# Blender v2.79 (sub 0) OBJ File: 'Katana.blend'
# www.blender.org
mtllib Katana.mtl
o Katana_Cube.002
v -0.074511 0.501038 0.052670
v 0.074511 0.501038 0.052670
v -0.074511 -0.348342 -0.207574
v 0.074511 -0.348342 -0.207574
v -0.074511 0.457382 0.195154
v 0.074511 0.457382 0.195154
v -0.074511 -0.391998 -0.065091
v 0.074511 -0.391998 -0.065091
v 0.048587 -0.386466 -0.192141
v -0.048587 -0.386466 -0.192141
v 0.048587 -0.414933 -0.099231
v -0.048587 -0.414933 -0.099231
v 0.000000 0.507527 0.031492
v -0.000000 -0.341853 -0.228753
v -0.000000 -0.399556 -0.040423
v -0.000000 0.449824 0.219821
v -0.000000 -0.386466 -0.192141
v -0.000000 -0.414933 -0.099231
v 0.000000 0.501478 0.051234
v 0.022563 0.496367 0.067917
v -0.000000 0.456024 0.199586
v -0.024143 0.461978 0.180154
v 0.022563 0.461978 0.180154
v -0.024143 0.496367 0.067917
v 0.074511 0.281486 -0.014599
v -0.074511 0.281486 -0.014599
v 0.074511 0.237830 0.127885
v -0.074511 0.237830 0.127885
v -0.000000 0.230272 0.152552
v -0.000000 0.287975 -0.035778
v -0.087860 0.338575 -0.011183
v 0.087860 0.287097 0.156828
v 0.000000 0.346226 -0.036157
v 0.087860 0.338575 -0.011183
v -0.087860 0.287097 0.156828
v -0.000000 0.278185 0.185915
v -0.077287 0.385193 0.014218
v 0.077287 0.339911 0.162011
v 0.000000 0.391924 -0.007749
v 0.077287 0.385193 0.014218
v -0.077287 0.339911 0.162011
v -0.000000 0.332071 0.187597
v 0.080091 0.386020 0.011521
v 0.087860 0.338575 -0.011183
v -0.080091 0.339094 0.164676
v -0.087860 0.287097 0.156828
v -0.000000 0.330970 0.191191
v -0.000000 0.278185 0.185915
v 0.000000 0.346226 -0.036157
v -0.087860 0.338575 -0.011183
v 0.087860 0.287097 0.156828
v -0.080091 0.386020 0.011521
v 0.080091 0.339094 0.164676
v 0.000000 0.392995 -0.011244
v 0.074511 -0.370170 -0.136332
v -0.074511 -0.370170 -0.136332
v 0.074511 0.479210 0.123912
v -0.074511 0.479210 0.123912
v 0.048587 -0.400699 -0.145686
v -0.048587 -0.400699 -0.145686
v -0.000000 -0.400699 -0.145686
v 0.022563 0.479172 0.124036
v -0.024143 0.479172 0.124036
v 0.074511 0.259658 0.056643
v -0.074511 0.259658 0.056643
v -0.087860 0.312836 0.072822
v 0.087860 0.312836 0.072822
v 0.077287 0.362552 0.088115
v -0.077287 0.362552 0.088115
v -0.087860 0.312836 0.072822
v 0.087860 0.312836 0.072822
v 0.080091 0.362557 0.088098
v -0.080091 0.362557 0.088098
v 0.131932 0.412259 -0.034993
v 0.126583 0.339028 -0.051790
v -0.131932 0.334960 0.217295
v -0.126583 0.264863 0.190269
v -0.000000 0.321578 0.260972
v -0.000000 0.252023 0.232175
v 0.000000 0.350052 -0.087770
v -0.126583 0.339028 -0.051790
v -0.148879 0.301946 0.069239
v 0.156899 0.301946 0.069239
v 0.126583 0.264863 0.190269
v -0.131932 0.412259 -0.034993
v 0.131932 0.334960 0.217295
v 0.000000 0.423749 -0.072493
v 0.162248 0.373610 0.091151
v -0.154228 0.373610 0.091151
v 0.000000 0.783795 0.106011
v 0.022563 0.781497 0.123307
v 0.000000 0.763364 0.259819
v -0.024143 0.766040 0.239673
v 0.022563 0.773768 0.181490
v -0.024143 0.773768 0.181490
v -0.024143 0.781497 0.123307
v 0.022563 0.766040 0.239673
v 0.000000 1.506207 0.179741
v 0.000000 1.100413 0.148068
v 0.022563 1.098115 0.165365
v 0.000000 1.079982 0.301876
v -0.024143 1.082658 0.281730
v 0.022563 1.090387 0.223547
v -0.024143 1.090387 0.223547
v -0.024143 1.098115 0.165365
v 0.022563 1.082658 0.281730
v 0.000000 1.961053 0.182869
v 0.022563 1.506112 0.197189
v 0.000000 1.505361 0.334898
v -0.024143 1.505472 0.314576
v 0.022563 1.505792 0.255883
v -0.024143 1.505792 0.255883
v -0.024143 1.506112 0.197189
v 0.022563 1.505472 0.314576
v 0.000000 2.601526 0.140657
v 0.022563 1.963220 0.200182
v 0.000000 1.980330 0.336826
v -0.024143 1.977805 0.316661
v 0.022563 1.970513 0.258421
v -0.024143 1.970513 0.258421
v -0.024143 1.963220 0.200182
v 0.022563 1.977805 0.316661
v 0.000000 3.354211 0.046410
v 0.022563 2.603694 0.157971
v 0.000000 2.620804 0.294614
v -0.024143 2.618279 0.274449
v 0.022563 2.610986 0.216210
v -0.024143 2.610986 0.216210
v -0.024143 2.603694 0.157971
v 0.022563 2.618279 0.274449
v 0.022563 3.356379 0.063724
v 0.000000 3.214584 0.200367
v -0.024143 3.212059 0.180202
v 0.022563 3.288084 0.121963
v -0.024143 3.288084 0.121963
v -0.024143 3.356379 0.063724
v 0.022563 3.212059 0.180202
v 0.000000 3.288263 0.123389
v 0.074511 0.202757 -0.038721
v 0.074511 0.124029 -0.062843
v 0.074511 0.045300 -0.086965
v 0.074511 -0.033428 -0.111087
v 0.074511 -0.112157 -0.135208
v 0.074511 -0.190885 -0.159330
v 0.074511 -0.269614 -0.183452
v -0.074511 0.159101 0.103763
v -0.074511 0.080373 0.079641
v -0.074511 0.001644 0.055519
v -0.074511 -0.077084 0.031397
v -0.074511 -0.155813 0.007275
v -0.074511 -0.234541 -0.016847
v -0.074511 -0.313270 -0.040969
v -0.000000 0.151543 0.128430
v -0.000000 0.072815 0.104308
v -0.000000 -0.005914 0.080186
v -0.000000 -0.084642 0.056065
v -0.000000 -0.163371 0.031943
v -0.000000 -0.242099 0.007821
v -0.000000 -0.320828 -0.016301
v -0.074511 -0.269614 -0.183452
v -0.074511 -0.190885 -0.159330
v -0.074511 -0.112157 -0.135208
v -0.074511 -0.033428 -0.111087
v -0.074511 0.045300 -0.086965
v -0.074511 0.124029 -0.062843
v -0.074511 0.202757 -0.038721
v 0.074511 -0.313270 -0.040969
v 0.074511 -0.234541 -0.016847
v 0.074511 -0.155813 0.007275
v 0.074511 -0.077084 0.031397
v 0.074511 0.001644 0.055519
v 0.074511 0.080373 0.079641
v 0.074511 0.159101 0.103763
v -0.000000 -0.263125 -0.204631
v -0.000000 -0.184396 -0.180509
v -0.000000 -0.105668 -0.156387
v -0.000000 -0.026939 -0.132265
v -0.000000 0.051789 -0.108143
v -0.000000 0.130518 -0.084021
v -0.000000 0.209246 -0.059900
v 0.074511 -0.291442 -0.112210
v 0.074511 -0.212713 -0.088089
v 0.074511 -0.133985 -0.063967
v 0.074511 -0.055256 -0.039845
v 0.074511 0.023472 -0.015723
v 0.074511 0.102201 0.008399
v 0.074511 0.180929 0.032521
v -0.074511 -0.291442 -0.112210
v -0.074511 -0.212713 -0.088089
v -0.074511 -0.133985 -0.063967
v -0.074511 -0.055256 -0.039845
v -0.074511 0.023472 -0.015723
v -0.074511 0.102201 0.008399
v -0.074511 0.180929 0.032521
v 0.089413 -0.257349 -0.195376
v 0.089413 -0.351823 -0.224322
v -0.000000 -0.344036 -0.249736
v -0.089413 -0.351823 -0.224322
v 0.089413 -0.378017 -0.138832
v 0.089413 -0.404210 -0.053342
v -0.000000 -0.413280 -0.023741
v -0.089413 -0.404210 -0.053342
v -0.089413 -0.378017 -0.138832
v -0.089413 -0.309736 -0.024395
v -0.000000 -0.318805 0.005206
v -0.089413 -0.257349 -0.195376
v 0.089413 -0.309736 -0.024395
v -0.000000 -0.249562 -0.220790
v 0.089413 -0.283542 -0.109885
v -0.089413 -0.283542 -0.109885
v 0.089413 -0.099892 -0.147132
v 0.089413 -0.194366 -0.176078
v -0.089413 -0.152279 0.023848
v -0.089413 -0.246753 -0.005098
v -0.000000 -0.161348 0.053450
v -0.000000 -0.255823 0.024503
v -0.089413 -0.194366 -0.176078
v -0.089413 -0.099892 -0.147132
v 0.089413 -0.246753 -0.005098
v 0.089413 -0.152279 0.023848
v -0.000000 -0.186579 -0.201493
v -0.000000 -0.092105 -0.172546
v 0.089413 -0.220559 -0.090588
v 0.089413 -0.126085 -0.061642
v -0.089413 -0.220559 -0.090588
v -0.089413 -0.126085 -0.061642
v 0.089413 0.057566 -0.098888
v 0.089413 -0.036909 -0.127834
v -0.089413 0.005178 0.072092
v -0.089413 -0.089296 0.043146
v -0.000000 -0.003891 0.101693
v -0.000000 -0.098366 0.072747
v -0.089413 -0.036909 -0.127834
v -0.089413 0.057566 -0.098888
v 0.089413 -0.089296 0.043146
v 0.089413 0.005178 0.072092
v -0.000000 -0.029122 -0.153249
v -0.000000 0.065352 -0.124303
v 0.089413 -0.063102 -0.042344
v 0.089413 0.031372 -0.013398
v -0.089413 -0.063102 -0.042344
v -0.089413 0.031372 -0.013398
v 0.089413 0.215023 -0.050644
v 0.089413 0.120548 -0.079591
v -0.089413 0.162635 0.120336
v -0.089413 0.068161 0.091390
v -0.000000 0.153566 0.149937
v -0.000000 0.059092 0.120991
v -0.089413 0.120548 -0.079591
v -0.089413 0.215023 -0.050644
v 0.089413 0.068161 0.091390
v 0.089413 0.162635 0.120336
v -0.000000 0.128335 -0.105005
v -0.000000 0.222809 -0.076059
v 0.089413 0.094355 0.005900
v 0.089413 0.188829 0.034846
v -0.089413 0.094355 0.005900
v -0.089413 0.188829 0.034846
vt 0.936832 0.948550
vt 0.961606 0.948550
vt 0.961606 0.973324
vt 0.936832 0.973324
vt 0.936832 0.948550
vt 0.961606 0.948550
vt 0.961606 0.973324
vt 0.936832 0.973324
vt 0.936832 0.948550
vt 0.961606 0.948550
vt 0.961606 0.973324
vt 0.936832 0.973324
vt 0.936832 0.948550
vt 0.961606 0.948550
vt 0.961606 0.973324
vt 0.936832 0.973324
vt 0.936832 0.948550
vt 0.961606 0.948550
vt 0.961606 0.973324
vt 0.936832 0.973324
vt 0.936832 0.948550
vt 0.961606 0.948550
vt 0.961606 0.973324
vt 0.936832 0.973324
vt 0.936832 0.948550
vt 0.961606 0.948550
vt 0.961606 0.973324
vt 0.936832 0.973324
vt 0.936832 0.948550
vt 0.961606 0.948550
vt 0.961606 0.973324
vt 0.936832 0.973324
vt 0.936832 0.948550
vt 0.961606 0.948550
vt 0.961606 0.973324
vt 0.936832 0.973324
vt 0.936832 0.948550
vt 0.961606 0.948550
vt 0.961606 0.973324
vt 0.936832 0.973324
vt 0.936832 0.948550
vt 0.961606 0.948550
vt 0.961606 0.973324
vt 0.936832 0.973324
vt 0.936832 0.948550
vt 0.961606 0.948550
vt 0.961606 0.973324
vt 0.936832 0.973324
vt 0.936832 0.948550
vt 0.961606 0.948550
vt 0.961606 0.973324
vt 0.936832 0.973324
vt 0.936832 0.948550
vt 0.961606 0.948550
vt 0.961606 0.973324
vt 0.936832 0.973324
vt 0.936832 0.948550
vt 0.961606 0.948550
vt 0.961606 0.973324
vt 0.936832 0.973324
vt 0.936832 0.948550
vt 0.961606 0.948550
vt 0.961606 0.973324
vt 0.936832 0.973324
vt 0.936832 0.948550
vt 0.961606 0.948550
vt 0.961606 0.973324
vt 0.936832 0.973324
vt 0.936832 0.948550
vt 0.961606 0.948550
vt 0.961606 0.973324
vt 0.936832 0.973324
vt 0.936832 0.948550
vt 0.961606 0.948550
vt 0.961606 0.973324
vt 0.936832 0.973324
vt 0.936832 0.948550
vt 0.961606 0.948550
vt 0.961606 0.973324
vt 0.936832 0.973324
vt 0.936832 0.948550
vt 0.961606 0.948550
vt 0.961606 0.973324
vt 0.936832 0.973324
vt 0.936832 0.948550
vt 0.961606 0.948550
vt 0.961606 0.973324
vt 0.936832 0.973324
vt 0.936832 0.948550
vt 0.961606 0.948550
vt 0.961606 0.973324
vt 0.936832 0.973324
vt 0.936832 0.948550
vt 0.961606 0.948550
vt 0.961606 0.973324
vt 0.936832 0.973324
vt 0.936832 0.948550
vt 0.961606 0.948550
vt 0.961606 0.973324
vt 0.936832 0.973324
vt 0.936832 0.948550
vt 0.961606 0.948550
vt 0.961606 0.973324
vt 0.936832 0.973324
vt 0.936832 0.948550
vt 0.961606 0.948550
vt 0.961606 0.973324
vt 0.936832 0.973324
vt 0.936832 0.948550
vt 0.961606 0.948550
vt 0.961606 0.973324
vt 0.936832 0.973324
vt 0.936832 0.948550
vt 0.961606 0.948550
vt 0.961606 0.973324
vt 0.936832 0.973324
vt 0.936832 0.948550
vt 0.961606 0.948550
vt 0.961606 0.973324
vt 0.936832 0.973324
vt 0.936832 0.948550
vt 0.961606 0.948550
vt 0.961606 0.973324
vt 0.936832 0.973324
vt 0.936832 0.948550
vt 0.961606 0.948550
vt 0.961606 0.973324
vt 0.936832 0.973324
vt 0.936832 0.948550
vt 0.961606 0.948550
vt 0.961606 0.973324
vt 0.936832 0.973324
vt 0.936832 0.948550
vt 0.961606 0.948550
vt 0.961606 0.973324
vt 0.936832 0.973324
vt 0.936832 0.948550
vt 0.961606 0.948550
vt 0.961606 0.973324
vt 0.936832 0.973324
vt 0.936832 0.948550
vt 0.961606 0.948550
vt 0.961606 0.973324
vt 0.936832 0.973324
vt 0.936832 0.948550
vt 0.961606 0.948550
vt 0.961606 0.973324
vt 0.936832 0.973324
vt 0.936832 0.948550
vt 0.961606 0.948550
vt 0.961606 0.973324
vt 0.936832 0.973324
vt 0.936832 0.948550
vt 0.961606 0.948550
vt 0.961606 0.973324
vt 0.936832 0.973324
vt 0.936832 0.948550
vt 0.961606 0.948550
vt 0.961606 0.973324
vt 0.936832 0.973324
vt 0.936832 0.948550
vt 0.961606 0.948550
vt 0.961606 0.973324
vt 0.936832 0.973324
vt 0.936832 0.948550
vt 0.961606 0.948550
vt 0.961606 0.973324
vt 0.936832 0.973324
vt 0.936832 0.948550
vt 0.961606 0.948550
vt 0.961606 0.973324
vt 0.936832 0.973324
vt 0.936832 0.948550
vt 0.961606 0.948550
vt 0.961606 0.973324
vt 0.936832 0.973324
vt 0.936832 0.948550
vt 0.961606 0.948550
vt 0.936832 0.973324
vt 0.936832 0.948550
vt 0.961606 0.948550
vt 0.936832 0.973324
vt 0.936832 0.948550
vt 0.961606 0.948550
vt 0.961606 0.973324
vt 0.936832 0.973324
vt 0.936832 0.948550
vt 0.961606 0.948550
vt 0.961606 0.973324
vt 0.936832 0.973324
vt 0.936832 0.948550
vt 0.961606 0.948550
vt 0.961606 0.973324
vt 0.936832 0.948550
vt 0.961606 0.948550
vt 0.961606 0.973324
vt 0.936832 0.948550
vt 0.961606 0.948550
vt 0.961606 0.973324
vt 0.936832 0.948550
vt 0.961606 0.948550
vt 0.936832 0.973324
vt 0.038394 0.940738
vt 0.063168 0.940738
vt 0.063168 0.965512
vt 0.038394 0.965512
vt 0.038394 0.940738
vt 0.063168 0.940738
vt 0.063168 0.965512
vt 0.038394 0.965512
vt 0.038394 0.940738
vt 0.063168 0.940738
vt 0.063168 0.965512
vt 0.038394 0.965512
vt 0.038394 0.940738
vt 0.063168 0.940738
vt 0.063168 0.965512
vt 0.038394 0.965512
vt 0.038394 0.940738
vt 0.063168 0.940738
vt 0.063168 0.965512
vt 0.038394 0.965512
vt 0.038394 0.940738
vt 0.063168 0.965512
vt 0.038394 0.965512
vt 0.038394 0.940738
vt 0.063168 0.940738
vt 0.063168 0.965512
vt 0.038394 0.965512
vt 0.038394 0.940738
vt 0.063168 0.965512
vt 0.038394 0.965512
vt 0.063168 0.940738
vt 0.063168 0.965512
vt 0.038394 0.965512
vt 0.038394 0.940738
vt 0.063168 0.940738
vt 0.063168 0.965512
vt 0.038394 0.965512
vt 0.038394 0.940738
vt 0.063168 0.940738
vt 0.063168 0.965512
vt 0.038394 0.965512
vt 0.038394 0.940738
vt 0.063168 0.940738
vt 0.063168 0.965512
vt 0.038394 0.965512
vt 0.063168 0.965512
vt 0.038394 0.965512
vt 0.063168 0.940738
vt 0.063168 0.965512
vt 0.038394 0.965512
vt 0.063168 0.940738
vt 0.063168 0.965512
vt 0.038394 0.965512
vt 0.063168 0.940738
vt 0.063168 0.965512
vt 0.038394 0.965512
vt 0.038394 0.940738
vt 0.063168 0.965512
vt 0.038394 0.965512
vt 0.038394 0.940738
vt 0.063168 0.940738
vt 0.063168 0.965512
vt 0.038394 0.965512
vt 0.038394 0.940738
vt 0.063168 0.940738
vt 0.063168 0.965512
vt 0.038394 0.965512
vt 0.038394 0.940738
vt 0.063168 0.940738
vt 0.063168 0.965512
vt 0.038394 0.965512
vt 0.038394 0.940738
vt 0.063168 0.940738
vt 0.063168 0.965512
vt 0.038394 0.965512
vt 0.038394 0.940738
vt 0.063168 0.940738
vt 0.063168 0.965512
vt 0.038394 0.965512
vt 0.038394 0.940738
vt 0.063168 0.940738
vt 0.063168 0.965512
vt 0.038394 0.965512
vt 0.038394 0.940738
vt 0.063168 0.940738
vt 0.063168 0.965512
vt 0.038394 0.965512
vt 0.038394 0.940738
vt 0.063168 0.940738
vt 0.063168 0.965512
vt 0.038394 0.965512
vt 0.038394 0.940738
vt 0.063168 0.940738
vt 0.063168 0.965512
vt 0.038394 0.965512
vt 0.063168 0.940738
vt 0.063168 0.965512
vt 0.038394 0.965512
vt 0.038394 0.940738
vt 0.063168 0.940738
vt 0.063168 0.965512
vt 0.038394 0.965512
vt 0.038394 0.940738
vt 0.063168 0.940738
vt 0.063168 0.965512
vt 0.038394 0.965512
vt 0.038394 0.940738
vt 0.063168 0.940738
vt 0.063168 0.965512
vt 0.038394 0.965512
vt 0.038394 0.940738
vt 0.063168 0.965512
vt 0.038394 0.965512
vt 0.038394 0.940738
vt 0.063168 0.965512
vt 0.038394 0.965512
vt 0.038394 0.940738
vt 0.063168 0.940738
vt 0.063168 0.965512
vt 0.038394 0.965512
vt 0.038394 0.940738
vt 0.063168 0.940738
vt 0.063168 0.965512
vt 0.038394 0.965512
vt 0.038394 0.940738
vt 0.063168 0.940738
vt 0.063168 0.965512
vt 0.038394 0.965512
vt 0.038394 0.940738
vt 0.063168 0.965512
vt 0.038394 0.965512
vt 0.038394 0.940738
vt 0.063168 0.965512
vt 0.038394 0.965512
vt 0.038394 0.940738
vt 0.063168 0.940738
vt 0.063168 0.965512
vt 0.038394 0.965512
vt 0.063168 0.940738
vt 0.063168 0.965512
vt 0.038394 0.965512
vt 0.063168 0.940738
vt 0.063168 0.965512
vt 0.038394 0.965512
vt 0.038394 0.940738
vt 0.063168 0.940738
vt 0.063168 0.965512
vt 0.038394 0.940738
vt 0.063168 0.940738
vt 0.063168 0.965512
vt 0.038394 0.940738
vt 0.063168 0.940738
vt 0.063168 0.965512
vt 0.038394 0.965512
vt 0.038394 0.940738
vt 0.063168 0.940738
vt 0.038394 0.965512
vt 0.038394 0.940738
vt 0.063168 0.940738
vt 0.038394 0.940738
vt 0.063168 0.940738
vt 0.038394 0.940738
vt 0.063168 0.940738
vt 0.063168 0.965512
vt 0.038394 0.965512
vt 0.038394 0.940738
vt 0.063168 0.940738
vt 0.063168 0.965512
vt 0.038394 0.940738
vt 0.063168 0.940738
vt 0.038394 0.965512
vt 0.038394 0.940738
vt 0.063168 0.940738
vt 0.038394 0.965512
vt 0.038394 0.940738
vt 0.063168 0.940738
vt 0.038394 0.965512
vt 0.038394 0.940738
vt 0.063168 0.940738
vt 0.038394 0.965512
vt 0.038394 0.940738
vt 0.063168 0.940738
vt 0.063168 0.965512
vt 0.038394 0.940738
vt 0.063168 0.940738
vt 0.063168 0.965512
vt 0.038394 0.940738
vt 0.063168 0.940738
vt 0.038394 0.965512
vt 0.038394 0.940738
vt 0.063168 0.940738
vt 0.063168 0.965512
vt 0.063168 0.940738
vt 0.038394 0.940738
vt 0.038394 0.940738
vt 0.063168 0.940738
vt 0.038394 0.940738
vt 0.063168 0.940738
vt 0.063168 0.965512
vt 0.038394 0.965512
vt 0.063168 0.940738
vt 0.038394 0.940738
vt 0.038394 0.940738
vt 0.063168 0.940738
vt 0.321790 0.094418
vt 0.321790 0.069644
vt 0.321790 0.069644
vt 0.321790 0.094418
vt 0.038394 0.940738
vt 0.063168 0.940738
vt 0.063168 0.965512
vt 0.038394 0.965512
vt 0.038394 0.940738
vt 0.063168 0.940738
vt 0.038394 0.965512
vt 0.038394 0.940738
vt 0.063168 0.940738
vt 0.063168 0.965512
vt 0.038394 0.940738
vt 0.063168 0.940738
vt 0.063168 0.965512
vt 0.038394 0.965512
vt 0.063168 0.965512
vt 0.038394 0.965512
vt 0.038394 0.940738
vt 0.063168 0.940738
vt 0.038394 0.965512
vt 0.038394 0.940738
vt 0.063168 0.940738
vt 0.063168 0.965512
vt 0.038394 0.965512
vt 0.321790 0.094418
vt 0.321790 0.069644
vt 0.321790 0.069644
vt 0.321790 0.094418
vt 0.063168 0.940738
vt 0.063168 0.965512
vt 0.038394 0.965512
vt 0.321790 0.069644
vt 0.324887 0.069644
vt 0.324887 0.094418
vt 0.321790 0.094418
vt 0.063168 0.940738
vt 0.063168 0.965512
vt 0.038394 0.965512
vt 0.063168 0.940738
vt 0.063168 0.965512
vt 0.038394 0.965512
vt 0.321790 0.069644
vt 0.324887 0.069644
vt 0.324887 0.094418
vt 0.321790 0.094418
vt 0.063168 0.940738
vt 0.063168 0.965512
vt 0.038394 0.965512
vt 0.038394 0.940738
vt 0.063168 0.965512
vt 0.038394 0.965512
vt 0.038394 0.940738
vt 0.063168 0.965512
vt 0.038394 0.965512
vt 0.063168 0.940738
vt 0.063168 0.965512
vt 0.038394 0.965512
vt 0.063168 0.940738
vt 0.063168 0.965512
vt 0.038394 0.965512
vt 0.038394 0.940738
vt 0.063168 0.940738
vt 0.063168 0.965512
vt 0.063168 0.965512
vt 0.038394 0.965512
vt 0.038394 0.940738
vt 0.063168 0.940738
vt 0.063168 0.965512
vt 0.038394 0.965512
vt 0.038394 0.940738
vt 0.063168 0.940738
vt 0.038394 0.940738
vt 0.063168 0.940738
vt 0.038394 0.940738
vt 0.063168 0.940738
vt 0.300113 0.069644
vt 0.303210 0.069644
vt 0.303210 0.094418
vt 0.300113 0.094418
vt 0.306306 0.069644
vt 0.306306 0.094418
vt 0.306306 0.094418
vt 0.306306 0.069644
vt 0.306306 0.069644
vt 0.309403 0.069644
vt 0.309403 0.094418
vt 0.306306 0.094418
vt 0.312500 0.069644
vt 0.312500 0.094418
vt 0.312500 0.094418
vt 0.312500 0.069644
vt 0.312500 0.069644
vt 0.315597 0.069644
vt 0.315597 0.094418
vt 0.312500 0.094418
vt 0.309403 0.069644
vt 0.309403 0.094418
vt 0.309403 0.094418
vt 0.309403 0.069644
vt 0.318693 0.069644
vt 0.321790 0.069644
vt 0.321790 0.094418
vt 0.318693 0.094418
vt 0.300113 0.069644
vt 0.303210 0.069644
vt 0.303210 0.094418
vt 0.300113 0.094418
vt 0.303210 0.094418
vt 0.303210 0.069644
vt 0.303210 0.069644
vt 0.303210 0.094418
vt 0.306306 0.069644
vt 0.309403 0.069644
vt 0.309403 0.094418
vt 0.306306 0.094418
vt 0.312500 0.069644
vt 0.312500 0.094418
vt 0.312500 0.094418
vt 0.312500 0.069644
vt 0.312500 0.069644
vt 0.315597 0.069644
vt 0.315597 0.094418
vt 0.312500 0.094418
vt 0.306306 0.094418
vt 0.306306 0.069644
vt 0.306306 0.069644
vt 0.306306 0.094418
vt 0.318693 0.069644
vt 0.321790 0.069644
vt 0.321790 0.094418
vt 0.318693 0.094418
vt 0.321790 0.094418
vt 0.321790 0.069644
vt 0.321790 0.069644
vt 0.321790 0.094418
vt 0.303210 0.069644
vt 0.303210 0.094418
vt 0.306306 0.094418
vt 0.306306 0.069644
vt 0.306306 0.069644
vt 0.306306 0.094418
vt 0.309403 0.069644
vt 0.312500 0.069644
vt 0.309403 0.094418
vt 0.309403 0.094418
vt 0.309403 0.069644
vt 0.309403 0.069644
vt 0.309403 0.094418
vt 0.315597 0.069644
vt 0.318693 0.069644
vt 0.318693 0.094418
vt 0.315597 0.094418
vt 0.321790 0.094418
vt 0.321790 0.069644
vt 0.321790 0.094418
vt 0.321790 0.069644
vt 0.321790 0.069644
vt 0.321790 0.094418
vt 0.303210 0.069644
vt 0.303210 0.094418
vt 0.318693 0.094418
vt 0.318693 0.069644
vt 0.312500 0.094418
vt 0.312500 0.069644
vt 0.312500 0.094418
vt 0.312500 0.094418
vt 0.312500 0.069644
vt 0.315597 0.069644
vt 0.318693 0.069644
vt 0.318693 0.094418
vt 0.315597 0.094418
vt 0.303210 0.094418
vt 0.303210 0.069644
vt 0.303210 0.069644
vt 0.303210 0.094418
vt 0.300113 0.069644
vt 0.303210 0.069644
vt 0.303210 0.094418
vt 0.300113 0.094418
vt 0.321790 0.094418
vt 0.321790 0.069644
vt 0.306306 0.069644
vt 0.306306 0.094418
vt 0.309403 0.094418
vt 0.309403 0.069644
vt 0.309403 0.069644
vt 0.309403 0.094418
vt 0.312500 0.069644
vt 0.315597 0.069644
vt 0.315597 0.094418
vt 0.312500 0.094418
vt 0.318693 0.094418
vt 0.318693 0.069644
vt 0.318693 0.069644
vt 0.318693 0.094418
vt 0.300113 0.069644
vt 0.300113 0.094418
vt 0.303210 0.094418
vt 0.303210 0.069644
vt 0.303210 0.069644
vt 0.303210 0.094418
vt 0.306306 0.069644
vt 0.306306 0.094418
vt 0.309403 0.094418
vt 0.309403 0.069644
vt 0.309403 0.069644
vt 0.309403 0.094418
vt 0.315597 0.069644
vt 0.315597 0.094418
vt 0.315597 0.069644
vt 0.315597 0.094418
vt 0.318693 0.069644
vt 0.318693 0.094418
vt 0.300113 0.069644
vt 0.300113 0.094418
vt 0.318693 0.069644
vt 0.318693 0.094418
vt 0.306306 0.069644
vt 0.306306 0.094418
vt 0.309403 0.094418
vt 0.309403 0.069644
vt 0.309403 0.069644
vt 0.309403 0.094418
vt 0.315597 0.069644
vt 0.315597 0.094418
vt 0.315597 0.069644
vt 0.315597 0.094418
vt 0.318693 0.069644
vt 0.318693 0.094418
vt 0.300113 0.069644
vt 0.300113 0.094418
vt 0.318693 0.069644
vt 0.318693 0.094418
vt 0.315597 0.094418
vt 0.315597 0.069644
vt 0.315597 0.069644
vt 0.315597 0.094418
vt 0.318693 0.094418
vt 0.318693 0.069644
vt 0.318693 0.069644
vt 0.318693 0.094418
vt 0.324887 0.069644
vt 0.324887 0.094418
vt 0.324887 0.069644
vt 0.324887 0.094418
vt 0.324887 0.069644
vt 0.324887 0.094418
vt 0.324887 0.069644
vt 0.324887 0.094418
vt 0.321790 0.069644
vt 0.324887 0.069644
vt 0.324887 0.094418
vt 0.321790 0.094418
vt 0.321790 0.069644
vt 0.324887 0.069644
vt 0.324887 0.094418
vt 0.321790 0.094418
vt 0.300113 0.069644
vt 0.303210 0.069644
vt 0.303210 0.094418
vt 0.300113 0.094418
vt 0.300113 0.069644
vt 0.303210 0.069644
vt 0.303210 0.094418
vt 0.300113 0.094418
vt 0.038394 0.940738
vt 0.063168 0.940738
vt 0.038394 0.940738
vt 0.063168 0.940738
vt 0.038394 0.940738
vt 0.063168 0.940738
vt 0.038394 0.940738
vt 0.063168 0.940738
vt 0.309403 0.069644
vt 0.309403 0.094418
vt 0.315597 0.069644
vt 0.315597 0.094418
vt 0.315597 0.069644
vt 0.318693 0.069644
vt 0.318693 0.094418
vt 0.315597 0.094418
vt 0.315597 0.069644
vt 0.318693 0.069644
vt 0.318693 0.094418
vt 0.315597 0.094418
vt 0.315597 0.069644
vt 0.318693 0.069644
vt 0.318693 0.094418
vt 0.315597 0.094418
vt 0.309403 0.069644
vt 0.312500 0.069644
vt 0.312500 0.094418
vt 0.309403 0.094418
vt 0.309403 0.069644
vt 0.312500 0.069644
vt 0.312500 0.094418
vt 0.309403 0.094418
vt 0.312500 0.069644
vt 0.315597 0.069644
vt 0.315597 0.094418
vt 0.312500 0.094418
vt 0.312500 0.069644
vt 0.312500 0.094418
vt 0.303210 0.069644
vt 0.306306 0.069644
vt 0.306306 0.094418
vt 0.303210 0.094418
vt 0.303210 0.069644
vt 0.306306 0.069644
vt 0.306306 0.094418
vt 0.303210 0.094418
vt 0.303210 0.069644
vt 0.306306 0.069644
vt 0.306306 0.094418
vt 0.303210 0.094418
vt 0.306306 0.069644
vt 0.306306 0.094418
vt 0.306306 0.069644
vt 0.306306 0.094418
vt 0.166666666666667 0.5
vt 0.5 0.5
vt 0.833333333333333 0.5
vn 1.0000 -0.0000 0.0000
vn -0.5843 0.1547 -0.7966
vn -0.6426 -0.1473 0.7519
vn 0.6693 -0.0978 0.7366
vn 0.6117 0.1042 -0.7842
vn 0.6103 0.1510 -0.7776
vn 0.6679 -0.1431 0.7304
vn -1.0000 0.0000 -0.0000
vn 0.6110 0.0616 -0.7893
vn -0.5850 0.0631 -0.8086
vn -0.6440 -0.1007 0.7584
vn -0.5857 0.1067 -0.8034
vn -0.5841 0.0054 -0.8117
vn -0.6424 -0.0032 0.7664
vn 0.6685 -0.0576 0.7415
vn -0.6432 -0.0593 0.7634
vn -0.6433 0.0503 0.7639
vn 0.6686 0.0489 0.7420
vn 0.6101 0.0053 -0.7923
vn 0.6677 -0.0032 0.7444
vn 0.6117 -0.0983 -0.7849
vn -0.5857 -0.1007 -0.8042
vn -0.5851 -0.0533 -0.8092
vn 0.6111 -0.0521 -0.7899
vn 0.2526 0.6867 0.6817
vn -0.2690 0.6835 0.6786
vn 0.3676 0.6234 0.6902
vn -0.3465 0.6288 0.6961
vn 0.6691 0.1165 0.7340
vn -0.6438 0.1200 0.7558
vn -0.3271 -0.2494 0.9115
vn -0.0000 0.9561 0.2930
vn 0.3271 -0.2494 0.9115
vn 0.0000 0.0000 1.0000
vn 0.0000 0.9561 0.2929
vn 0.2848 0.3081 -0.9077
vn 0.9997 0.0217 0.0067
vn -0.9997 0.0217 0.0067
vn -0.2848 0.3081 -0.9077
vn 0.0563 0.9895 0.1332
vn -0.0563 0.9895 0.1332
vn 0.0745 -0.8680 -0.4909
vn 0.0497 0.8926 0.4482
vn -0.0745 -0.8680 -0.4909
vn 0.1719 0.9470 0.2713
vn -0.0657 -0.9951 -0.0738
vn 0.1717 0.9365 0.3058
vn -0.2838 0.1946 -0.9389
vn -0.9826 -0.1224 0.1398
vn 0.9707 -0.0074 -0.2404
vn 0.2838 0.1946 -0.9389
vn 0.3259 -0.3616 0.8735
vn -0.3259 -0.3616 0.8735
vn 0.9707 -0.1406 0.1950
vn -0.9826 -0.0233 -0.1844
vn 0.0657 -0.9951 -0.0738
vn 0.2156 -0.9400 -0.2646
vn -0.1985 -0.9285 -0.3138
vn 0.2158 -0.9268 -0.3074
vn -0.0497 0.8926 0.4482
vn -0.1601 0.9502 0.2672
vn -0.1982 -0.9450 -0.2602
vn -0.1599 0.9369 0.3110
vn -0.4836 -0.8369 -0.2564
vn 0.1127 -0.5541 -0.8248
vn -0.1308 -0.7656 -0.6298
vn -0.1153 0.7608 0.6386
vn 0.0000 -0.9561 -0.2930
vn -0.1267 -0.9290 0.3476
vn -0.7763 -0.6027 -0.1847
vn 0.7763 -0.6027 -0.1847
vn 0.1267 -0.9290 0.3476
vn -0.1127 -0.5541 -0.8248
vn -0.4836 0.8369 0.2564
vn 0.2729 -0.0063 -0.9620
vn 0.3272 -0.2768 0.9035
vn 0.9724 -0.2233 -0.0684
vn -0.9724 -0.2233 -0.0684
vn -0.3272 -0.2768 0.9035
vn -0.2729 -0.0063 -0.9620
vn 0.3131 -0.5427 0.7794
vn -0.3131 -0.5427 0.7794
vn -0.1153 -0.9880 0.1028
vn 0.4836 -0.8369 -0.2564
vn 0.1153 -0.9880 0.1028
vn -0.1308 0.9870 -0.0928
vn 0.1308 -0.7656 -0.6298
vn 0.4836 0.8369 0.2564
vn 0.1308 0.9870 -0.0928
vn 0.1153 0.7608 0.6386
vn 0.2850 0.2808 -0.9165
vn -0.2850 0.2808 -0.9165
usemtl Metal
s off
f 62/729/1 20/729/1 91/729/1 94/729/1
f 23/729/1 62/729/1 94/729/1 97/729/1
f 19/729/2 24/729/2 96/729/2 90/729/2
f 22/729/3 21/729/3 92/729/3 93/729/3
f 92/729/4 97/729/4 106/729/4 101/729/4
f 97/729/1 94/729/1 103/729/1 106/729/1
f 91/729/5 90/729/5 99/729/5 100/729/5
f 94/729/1 91/729/1 100/729/1 103/729/1
f 20/729/6 19/729/6 90/729/6 91/729/6
f 21/729/7 23/729/7 97/729/7 92/729/7
f 24/729/8 63/729/8 95/729/8 96/729/8
f 63/729/8 22/729/8 93/729/8 95/729/8
f 100/729/9 99/729/9 98/729/9 108/729/9
f 103/729/1 100/729/1 108/729/1 111/729/1
f 99/729/10 105/729/10 113/729/10 98/729/10
f 105/729/8 104/729/8 112/729/8 113/729/8
f 95/729/8 93/729/8 102/729/8 104/729/8
f 93/729/11 92/729/11 101/729/11 102/729/11
f 96/729/8 95/729/8 104/729/8 105/729/8
f 90/729/12 96/729/12 105/729/12 99/729/12
f 98/729/13 113/729/13 121/729/13 107/729/13
f 113/729/8 112/729/8 120/729/8 121/729/8
f 110/729/14 109/729/14 117/729/14 118/729/14
f 112/729/8 110/729/8 118/729/8 120/729/8
f 106/729/1 103/729/1 111/729/1 114/729/1
f 101/729/15 106/729/15 114/729/15 109/729/15
f 104/729/8 102/729/8 110/729/8 112/729/8
f 102/729/16 101/729/16 109/729/16 110/729/16
f 118/729/17 117/729/17 125/729/17 126/729/17
f 120/729/8 118/729/8 126/729/8 128/729/8
f 117/729/18 122/729/18 130/729/18 125/729/18
f 122/729/1 119/729/1 127/729/1 130/729/1
f 111/729/1 108/729/1 116/729/1 119/729/1
f 108/729/19 98/729/19 107/729/19 116/729/19
f 114/729/1 111/729/1 119/729/1 122/729/1
f 109/729/20 114/729/20 122/729/20 117/729/20
f 130/729/1 127/729/1 134/729/1 137/729/1
f 124/729/21 115/729/21 123/729/21 131/729/21
f 127/729/1 124/729/1 131/729/1 134/729/1
f 115/729/22 129/729/22 136/729/22 123/729/22
f 121/729/8 120/729/8 128/729/8 129/729/8
f 107/729/23 121/729/23 129/729/23 115/729/23
f 119/729/1 116/729/1 124/729/1 127/729/1
f 116/729/24 107/729/24 115/729/24 124/729/24
f 138/729/25 123/729/25 136/729/25 135/729/25
f 134/729/26 131/729/26 123/729/26 138/729/26
f 137/729/27 134/729/27 138/729/27 132/729/27
f 132/729/28 138/729/28 135/729/28 133/729/28
f 125/729/29 130/729/29 137/729/29 132/729/29
f 128/729/8 126/729/8 133/729/8 135/729/8
f 126/729/30 125/729/30 132/729/30 133/729/30
f 129/729/8 128/729/8 135/729/8 136/729/8
usemtl Golden
f 42/730/31 16/730/31 5/730/31 41/730/31
f 58/730/32 5/730/32 22/730/32 63/730/32
f 2/730/32 13/730/32 19/730/32 20/730/32
f 38/730/33 6/730/33 16/730/33 42/730/33
f 13/730/32 1/730/32 24/730/32 19/730/32
f 16/730/32 6/730/32 23/730/32 21/730/32
f 57/730/32 2/730/32 20/730/32 62/730/32
f 5/730/32 16/730/32 21/730/32 22/730/32
f 38/730/32 42/730/32 47/730/32 53/730/32
f 67/730/34 34/730/34 44/730/34 71/730/34
f 39/730/35 40/730/35 43/730/35 54/730/35
f 35/730/34 36/730/34 48/730/34 46/730/34
f 2/730/36 40/730/36 39/730/36 13/730/36
f 57/730/37 68/730/37 40/730/37 2/730/37
f 58/730/38 69/730/38 41/730/38 5/730/38
f 13/730/39 39/730/39 37/730/39 1/730/39
f 37/730/35 39/730/35 54/730/35 52/730/35
f 66/730/34 35/730/34 46/730/34 70/730/34
f 47/730/40 45/730/40 76/730/40 78/730/40
f 53/730/41 47/730/41 78/730/41 86/730/41
f 46/730/42 48/730/42 79/730/42 77/730/42
f 52/730/43 54/730/43 87/730/43 85/730/43
f 48/730/44 51/730/44 84/730/44 79/730/44
f 45/730/45 73/730/45 89/730/45 76/730/45
f 68/730/35 38/730/35 53/730/35 72/730/35
f 34/730/34 33/730/34 49/730/34 44/730/34
f 42/730/32 41/730/32 45/730/32 47/730/32
f 33/730/34 31/730/34 50/730/34 49/730/34
f 69/730/32 37/730/32 52/730/32 73/730/32
f 36/730/34 32/730/34 51/730/34 48/730/34
f 41/730/32 69/730/32 73/730/32 45/730/32
f 40/730/32 68/730/32 72/730/32 43/730/32
f 44/730/46 49/730/46 80/730/46 75/730/46
f 73/730/47 52/730/47 85/730/47 89/730/47
f 31/730/34 66/730/34 70/730/34 50/730/34
f 1/730/38 37/730/38 69/730/38 58/730/38
f 6/730/37 38/730/37 68/730/37 57/730/37
f 32/730/34 67/730/34 71/730/34 51/730/34
f 6/730/32 57/730/32 62/730/32 23/730/32
f 1/730/32 58/730/32 63/730/32 24/730/32
f 87/730/48 80/730/48 81/730/48 85/730/48
f 89/730/49 82/730/49 77/730/49 76/730/49
f 88/730/50 83/730/50 75/730/50 74/730/50
f 74/730/51 75/730/51 80/730/51 87/730/51
f 84/730/52 86/730/52 78/730/52 79/730/52
f 79/730/53 78/730/53 76/730/53 77/730/53
f 86/730/54 84/730/54 83/730/54 88/730/54
f 85/730/55 81/730/55 82/730/55 89/730/55
f 49/730/56 50/730/56 81/730/56 80/730/56
f 50/730/57 70/730/57 82/730/57 81/730/57
f 51/730/58 71/730/58 83/730/58 84/730/58
f 70/730/59 46/730/59 77/730/59 82/730/59
f 54/730/60 43/730/60 74/730/60 87/730/60
f 72/730/61 53/730/61 86/730/61 88/730/61
f 71/730/62 44/730/62 75/730/62 83/730/62
f 43/730/63 72/730/63 88/730/63 74/730/63
usemtl Black
f 55/731/64 4/731/64 196/731/64 199/731/64
f 14/731/65 4/731/65 9/731/65 17/731/65
f 15/731/66 8/731/66 200/731/66 201/731/66
f 174/731/67 145/731/67 195/731/67 208/731/67
f 61/731/68 18/731/68 12/731/68 60/731/68
f 15/731/69 7/731/69 12/731/69 18/731/69
f 56/731/70 3/731/70 10/731/70 60/731/70
f 55/731/71 8/731/71 11/731/71 59/731/71
f 8/731/72 15/731/72 18/731/72 11/731/72
f 59/731/68 11/731/68 18/731/68 61/731/68
f 3/731/73 14/731/73 17/731/73 10/731/73
f 145/731/74 181/731/74 209/731/74 195/731/74
f 34/731/75 25/731/75 30/731/75 33/731/75
f 173/731/76 27/731/76 29/731/76 153/731/76
f 67/731/77 64/731/77 25/731/77 34/731/77
f 66/731/78 65/731/78 28/731/78 35/731/78
f 153/731/79 29/731/79 28/731/79 146/731/79
f 33/731/80 30/731/80 26/731/80 31/731/80
f 27/731/81 32/731/81 36/731/81 29/731/81
f 29/731/82 36/731/82 35/731/82 28/731/82
f 31/731/78 26/731/78 65/731/78 66/731/78
f 32/731/77 27/731/77 64/731/77 67/731/77
f 9/731/68 59/731/68 61/731/68 17/731/68
f 4/731/71 55/731/71 59/731/71 9/731/71
f 7/731/70 56/731/70 60/731/70 12/731/70
f 17/731/68 61/731/68 60/731/68 10/731/68
f 4/731/83 14/731/83 197/731/83 196/731/83
f 3/731/84 56/731/84 203/731/84 198/731/84
f 26/731/8 166/731/8 194/731/8 65/731/8
f 179/731/85 165/731/85 249/731/85 253/731/85
f 165/731/8 164/731/8 192/731/8 193/731/8
f 184/731/64 142/731/64 228/731/64 239/731/64
f 163/731/8 162/731/8 190/731/8 191/731/8
f 169/731/86 157/731/86 215/731/86 220/731/86
f 161/731/8 160/731/8 188/731/8 189/731/8
f 27/731/1 173/731/1 187/731/1 64/731/1
f 139/731/74 187/731/74 256/731/74 243/731/74
f 172/731/1 171/731/1 185/731/1 186/731/1
f 191/731/84 149/731/84 230/731/84 241/731/84
f 170/731/1 169/731/1 183/731/1 184/731/1
f 151/731/87 158/731/87 216/731/87 214/731/87
f 168/731/1 167/731/1 181/731/1 182/731/1
f 152/731/88 188/731/88 210/731/88 204/731/88
f 159/731/79 158/731/79 151/731/79 152/731/79
f 158/731/66 168/731/66 219/731/66 216/731/66
f 157/731/79 156/731/79 149/731/79 150/731/79
f 178/731/67 141/731/67 227/731/67 238/731/67
f 155/731/79 154/731/79 147/731/79 148/731/79
f 153/731/89 146/731/89 245/731/89 247/731/89
f 160/731/90 174/731/90 208/731/90 206/731/90
f 167/731/76 168/731/76 158/731/76 159/731/76
f 161/731/84 189/731/84 225/731/84 217/731/84
f 169/731/76 170/731/76 156/731/76 157/731/76
f 177/731/85 163/731/85 233/731/85 237/731/85
f 171/731/76 172/731/76 154/731/76 155/731/76
f 146/731/88 194/731/88 258/731/88 245/731/88
f 25/731/91 139/731/91 180/731/91 30/731/91
f 173/731/86 153/731/86 247/731/86 252/731/86
f 140/731/91 141/731/91 178/731/91 179/731/91
f 141/731/74 185/731/74 240/731/74 227/731/74
f 142/731/91 143/731/91 176/731/91 177/731/91
f 168/731/64 182/731/64 223/731/64 219/731/64
f 144/731/91 145/731/91 174/731/91 175/731/91
f 64/731/1 187/731/1 139/731/1 25/731/1
f 166/731/90 180/731/90 254/731/90 250/731/90
f 186/731/1 185/731/1 141/731/1 140/731/1
f 148/731/88 192/731/88 242/731/88 229/731/88
f 184/731/1 183/731/1 143/731/1 142/731/1
f 190/731/88 162/731/88 218/731/88 226/731/88
f 182/731/1 181/731/1 145/731/1 144/731/1
f 65/731/8 194/731/8 146/731/8 28/731/8
f 147/731/87 154/731/87 248/731/87 246/731/87
f 193/731/8 192/731/8 148/731/8 147/731/8
f 164/731/90 178/731/90 238/731/90 234/731/90
f 191/731/8 190/731/8 150/731/8 149/731/8
f 183/731/74 169/731/74 220/731/74 224/731/74
f 189/731/8 188/731/8 152/731/8 151/731/8
f 30/731/92 180/731/92 166/731/92 26/731/92
f 154/731/66 172/731/66 251/731/66 248/731/66
f 179/731/92 178/731/92 164/731/92 165/731/92
f 155/731/89 148/731/89 229/731/89 231/731/89
f 177/731/92 176/731/92 162/731/92 163/731/92
f 144/731/83 175/731/83 221/731/83 212/731/83
f 175/731/92 174/731/92 160/731/92 161/731/92
f 208/731/92 197/731/92 198/731/92 206/731/92
f 210/731/8 203/731/8 202/731/8 204/731/8
f 209/731/1 199/731/1 196/731/1 195/731/1
f 195/731/91 196/731/91 197/731/91 208/731/91
f 207/731/1 200/731/1 199/731/1 209/731/1
f 206/731/8 198/731/8 203/731/8 210/731/8
f 201/731/79 205/731/79 204/731/79 202/731/79
f 200/731/76 207/731/76 205/731/76 201/731/76
f 181/731/74 167/731/74 207/731/74 209/731/74
f 188/731/88 160/731/88 206/731/88 210/731/88
f 167/731/86 159/731/86 205/731/86 207/731/86
f 56/731/84 7/731/84 202/731/84 203/731/84
f 159/731/89 152/731/89 204/731/89 205/731/89
f 14/731/85 3/731/85 198/731/85 197/731/85
f 8/731/64 55/731/64 199/731/64 200/731/64
f 7/731/87 15/731/87 201/731/87 202/731/87
f 218/731/8 217/731/8 225/731/8 226/731/8
f 220/731/1 219/731/1 223/731/1 224/731/1
f 216/731/79 215/731/79 213/731/79 214/731/79
f 219/731/76 220/731/76 215/731/76 216/731/76
f 211/731/91 212/731/91 221/731/91 222/731/91
f 224/731/1 223/731/1 212/731/1 211/731/1
f 226/731/8 225/731/8 214/731/8 213/731/8
f 222/731/92 221/731/92 217/731/92 218/731/92
f 162/731/90 176/731/90 222/731/90 218/731/90
f 157/731/89 150/731/89 213/731/89 215/731/89
f 150/731/88 190/731/88 226/731/88 213/731/88
f 143/731/74 183/731/74 224/731/74 211/731/74
f 175/731/85 161/731/85 217/731/85 221/731/85
f 176/731/67 143/731/67 211/731/67 222/731/67
f 189/731/84 151/731/84 214/731/84 225/731/84
f 182/731/64 144/731/64 212/731/64 223/731/64
f 234/731/8 233/731/8 241/731/8 242/731/8
f 236/731/1 235/731/1 239/731/1 240/731/1
f 232/731/79 231/731/79 229/731/79 230/731/79
f 235/731/76 236/731/76 231/731/76 232/731/76
f 227/731/91 228/731/91 237/731/91 238/731/91
f 240/731/1 239/731/1 228/731/1 227/731/1
f 242/731/8 241/731/8 230/731/8 229/731/8
f 238/731/92 237/731/92 233/731/92 234/731/92
f 142/731/83 177/731/83 237/731/83 228/731/83
f 185/731/74 171/731/74 236/731/74 240/731/74
f 156/731/66 170/731/66 235/731/66 232/731/66
f 192/731/88 164/731/88 234/731/88 242/731/88
f 149/731/87 156/731/87 232/731/87 230/731/87
f 170/731/64 184/731/64 239/731/64 235/731/64
f 171/731/86 155/731/86 231/731/86 236/731/86
f 163/731/84 191/731/84 241/731/84 233/731/84
f 250/731/8 249/731/8 257/731/8 258/731/8
f 252/731/1 251/731/1 255/731/1 256/731/1
f 248/731/79 247/731/79 245/731/79 246/731/79
f 251/731/76 252/731/76 247/731/76 248/731/76
f 243/731/91 244/731/91 253/731/91 254/731/91
f 256/731/1 255/731/1 244/731/1 243/731/1
f 258/731/8 257/731/8 246/731/8 245/731/8
f 254/731/92 253/731/92 249/731/92 250/731/92
f 180/731/67 139/731/67 243/731/67 254/731/67
f 193/731/84 147/731/84 246/731/84 257/731/84
f 186/731/64 140/731/64 244/731/64 255/731/64
f 140/731/83 179/731/83 253/731/83 244/731/83
f 187/731/74 173/731/74 252/731/74 256/731/74
f 194/731/88 166/731/88 250/731/88 258/731/88
f 172/731/64 186/731/64 255/731/64 251/731/64
f 165/731/84 193/731/84 257/731/84 249/731/84
