# Blender v2.79 (sub 0) OBJ File: 'KnightCharacter.blend'
# www.blender.org
mtllib KnightCharacter.mtl
o Knight__ncl1_29.002
v 0.429503 2.212480 -0.531410
v 0.633931 2.130370 -0.145309
v 0.537885 2.099759 0.136501
v 0.536133 1.894373 -0.630471
v 0.676541 1.831720 -0.161520
v 0.582893 1.833209 0.146792
v 0.311375 1.943844 -0.727284
v 0.283197 1.763477 0.295448
v 0.358026 0.821799 0.231908
v 0.268095 1.595477 -0.699208
v 0.236995 1.462279 0.312331
v 0.417327 1.596388 -0.651669
v 0.605913 1.600495 -0.558060
v 0.720167 1.493470 -0.154850
v 0.618284 1.350341 0.169955
v 0.311501 1.255787 0.281216
v 0.702210 0.606997 -0.077809
v 0.237296 1.284374 -0.446606
v 0.432816 0.204044 -0.017991
v 0.437881 0.188548 -0.119770
v 0.338675 0.545481 0.000456
v 0.467547 0.226511 0.117577
v 0.615303 0.213597 0.061850
v 0.388037 1.273894 -0.522355
v 0.598735 1.249046 -0.449872
v 0.714816 1.200510 -0.111952
v 0.634746 1.117494 0.160959
v 0.330390 1.034672 0.243470
v 0.358079 0.536172 -0.174782
v 0.629108 0.188183 -0.076625
v 0.395571 0.900175 -0.351282
v 0.547652 0.937467 -0.325431
v 0.696542 0.940291 -0.095729
v 0.593640 0.960854 0.181025
v 0.372632 0.925544 0.252268
v 0.674654 0.629258 0.113376
v 0.295324 0.891367 -0.211553
v 0.572581 0.169499 -0.185587
v 0.447833 0.736055 -0.252062
v 0.558787 0.771993 -0.239304
v 0.668926 0.775978 -0.058493
v 0.634931 0.788361 0.101908
v 0.407043 0.730801 0.153177
v 0.460155 0.551274 -0.295010
v 0.359247 0.664961 -0.149729
v 0.509852 0.172721 -0.196946
v 0.196076 1.397675 -0.247058
v 0.224202 1.229082 -0.036066
v 0.239261 1.104475 -0.032988
v 0.282746 0.857550 -0.015990
v 0.332292 0.701570 0.022185
v 0.411748 0.581039 0.187399
v 0.637561 0.869342 0.165675
v 0.589994 0.587057 -0.275112
v 0.662330 1.857899 -0.444004
v 0.435456 -0.003147 -0.026905
v 0.444530 -0.001861 -0.130434
v 0.466844 -0.001769 0.254811
v 0.631926 -0.002343 0.196797
v 0.648677 -0.001940 -0.087785
v 0.579981 -0.001257 -0.198008
v 0.518739 0.000267 -0.209062
v 0.227630 1.436567 -0.584420
v 0.297477 1.425816 -0.583947
v 0.704848 0.779202 -0.061305
v 0.330195 0.648375 -0.171897
v 0.296338 0.692258 0.035719
v 0.663446 0.794437 0.133687
v 0.440347 0.731561 -0.296096
v 0.572055 0.774431 -0.280265
v 0.385350 0.727655 0.196627
v 0.060684 4.664355 0.540047
v 0.079497 4.669476 0.432251
v 0.377858 4.235989 -0.116998
v 0.219789 4.127432 -0.120801
v 0.478864 4.441330 -0.087063
v 0.383453 4.424368 0.146171
v 0.311221 4.305671 0.233942
v 0.551885 4.722839 -0.005931
v 0.597071 4.732778 -0.139870
v 0.567251 4.913584 0.072847
v 0.517823 4.477348 -0.243298
v 0.420984 4.659124 0.168747
v 0.291706 4.663239 0.336249
v 0.253194 4.446329 0.365894
v 0.399644 5.367760 0.102137
v 0.249870 5.371446 0.287717
v 0.209810 4.296341 0.397601
v 0.192026 4.252137 0.379924
v 0.082075 4.488660 0.472472
v 0.425002 5.142166 0.271604
v 0.293319 4.918774 0.368293
v 0.059228 4.926841 0.470461
v 0.243970 5.149580 0.391312
v 0.441873 4.910452 0.243448
v 0.594088 4.902462 -0.126499
v 0.553144 5.139281 -0.131252
v 0.256795 5.502155 0.073368
v 0.539572 5.140208 0.078652
v 0.462991 5.358539 -0.001170
v 0.484587 5.342217 -0.195589
v 0.567956 4.888293 -0.307872
v 0.526649 5.076419 -0.329774
v 0.458485 5.288444 -0.350705
v 0.520239 4.839880 -0.472189
v 0.462477 5.013393 -0.499507
v 0.395972 5.195112 -0.506635
v 0.581605 4.716397 -0.297278
v 0.339514 5.522831 -0.067925
v 0.329608 5.446511 -0.408787
v 0.369540 5.521955 -0.241517
v 0.295864 5.359988 -0.524800
v 0.285722 5.197387 -0.641624
v 0.338935 4.621442 -0.640547
v 0.287914 4.991710 -0.711444
v 0.323825 4.762398 -0.685958
v 0.340720 4.479622 -0.534378
v 0.486645 4.522251 -0.390744
v 0.526385 4.691682 -0.425173
v 0.339763 4.305697 -0.428565
v 0.275294 4.119383 -0.421231
v 0.423019 2.579128 -0.432141
v 0.432726 2.957687 -0.431308
v 0.534416 3.009989 -0.144154
v 0.571906 2.472578 -0.152377
v 0.488644 2.415672 0.132051
v 0.313878 3.521061 -0.514012
v 0.464775 3.533704 -0.445944
v 0.384414 3.544794 0.234009
v 0.536979 3.359762 -0.148172
v 0.213602 3.865566 -0.464944
v 0.460832 3.832840 -0.432507
v 0.605494 3.457553 -0.135848
v 0.622289 3.553915 -0.368186
v 0.666626 3.806710 0.052232
v 0.366683 3.856173 0.140480
v 0.306298 4.015490 -0.114251
v 0.648223 3.821337 -0.352185
v 0.884143 2.904020 -0.309708
v 0.634976 3.605492 0.106833
v 0.715143 2.868808 -0.000636
v 0.933046 1.690995 0.205582
v 0.885493 1.629747 -0.157537
v 0.766170 2.667867 -0.013517
v 0.936059 2.697405 -0.306289
v 0.887792 2.909861 -0.032664
v 0.928016 2.920548 -0.152310
v 0.671680 2.643757 -0.148250
v 0.620677 2.841507 -0.151605
v 0.715659 2.864309 -0.320769
v 0.766829 2.663305 -0.317391
v 1.005253 2.734171 -0.149036
v 0.939856 2.703475 -0.029247
v 0.855902 3.633072 -0.155803
v 0.534430 3.453664 -0.155045
v 0.548149 3.972532 -0.133113
v 0.728512 3.906752 -0.152013
v 0.793844 1.984929 0.052522
v 0.844013 1.951118 -0.022674
v 1.032307 2.031801 -0.393332
v 0.992205 1.983150 -0.336357
v 0.714127 1.970907 -0.108075
v 0.792441 1.972094 -0.405349
v 0.844672 1.941772 -0.344492
v 1.113129 2.057942 -0.108851
v 1.036221 2.046213 0.035111
v 0.992994 1.992995 -0.034472
v 0.799261 1.942697 -0.132670
v 0.832415 1.858547 -0.117516
v 1.036116 1.836102 0.031339
v 1.039748 1.998630 -0.133174
v 0.871786 1.841814 0.075408
v 1.068641 1.862174 -0.127634
v 0.878039 1.776164 -0.422806
v 1.049936 1.791711 -0.407390
v 1.075666 1.586396 -0.501670
v 0.897036 1.548559 -0.516926
v 1.110436 1.598718 -0.157510
v 1.076352 1.666476 0.125743
v 0.796519 1.856645 0.082860
v 0.944252 1.344312 -0.513218
v 1.052591 1.350797 -0.497738
v 1.101125 1.356485 -0.125729
v 1.100382 1.355397 0.159538
v 0.814062 1.633687 0.034977
v 0.828660 1.711820 0.206838
v 0.950371 1.356269 0.243645
v 0.929932 1.345303 -0.131694
v 0.923720 0.967500 -0.086400
v 1.037197 1.115905 -0.093294
v 1.047173 1.126301 0.133775
v 0.959979 1.020968 0.130461
v 0.716971 1.533853 0.226251
v 0.658736 1.591591 0.197150
v 0.659874 1.652169 0.264556
v 0.719324 1.603628 0.303644
v 0.788311 1.792141 -0.019520
v 0.730233 1.750244 0.151930
v 0.779804 1.678963 0.233031
v 0.762599 1.544228 0.165133
v 1.021427 1.153763 -0.423936
v 0.914369 0.995879 -0.366103
v 0.940319 1.164048 -0.448978
v 0.739782 1.698290 0.054187
v 0.370433 3.741522 0.205195
v 0.404322 3.273825 0.181769
v 0.385293 3.065571 0.123967
v 0.897292 1.044624 0.166698
v 0.925367 1.146035 0.213307
v 0.930825 1.147012 -0.103616
v 0.862688 1.010788 -0.086708
v 0.875138 1.033580 -0.372396
v 0.078231 4.567497 0.445990
v 0.065195 4.484230 0.525858
v 0.060191 4.550976 0.579094
v 0.273688 4.011276 -0.131012
v 0.206149 3.893241 -0.421208
v -0.427704 2.211954 -0.530860
v -0.633955 2.129993 -0.145613
v -0.539606 2.100144 0.136934
v -0.531217 1.892741 -0.629845
v -0.675530 1.831059 -0.161239
v -0.585371 1.833615 0.148062
v -0.306976 1.941630 -0.726598
v -0.284842 1.763955 0.296907
v -0.358579 0.821443 0.235675
v -0.261741 1.594772 -0.697186
v -0.239599 1.463070 0.315397
v -0.410856 1.595443 -0.649715
v -0.599963 1.599173 -0.556814
v -0.718139 1.492733 -0.154445
v -0.619745 1.350499 0.171825
v -0.313877 1.256962 0.286333
v -0.698298 0.606670 -0.080778
v -0.231599 1.285276 -0.441522
v -0.428600 0.204616 -0.017226
v -0.432280 0.188886 -0.119049
v -0.335544 0.546348 0.001905
v -0.465080 0.227116 0.117977
v -0.612116 0.213634 0.060688
v -0.381292 1.274160 -0.518478
v -0.592379 1.248653 -0.447377
v -0.712387 1.199933 -0.110864
v -0.635365 1.117585 0.163049
v -0.331771 1.035469 0.249437
v -0.352797 0.536985 -0.173600
v -0.624024 0.187962 -0.077899
v -0.389321 0.901328 -0.346855
v -0.541820 0.937590 -0.322861
v -0.693487 0.939874 -0.094857
v -0.594011 0.961153 0.183615
v -0.373769 0.925826 0.257340
v -0.673129 0.629149 0.110918
v -0.290747 0.893647 -0.205896
v -0.566054 0.169352 -0.186143
v -0.442245 0.736799 -0.250981
v -0.553459 0.772193 -0.239405
v -0.665788 0.775834 -0.060233
v -0.633780 0.788355 0.101252
v -0.406344 0.731450 0.154516
v -0.453458 0.551648 -0.294884
v -0.354676 0.666099 -0.148231
v -0.503257 0.172646 -0.196991
v -0.193126 1.398033 -0.243791
v -0.222900 1.230245 -0.029277
v -0.237527 1.105889 -0.025512
v -0.280425 0.860664 -0.011061
v -0.329918 0.702685 0.023817
v -0.410987 0.581821 0.188086
v -0.637450 0.869506 0.167241
v -0.583641 0.586927 -0.276461
v -0.658526 1.856557 -0.443681
v -0.434233 -0.002040 -0.026336
v -0.441741 -0.001752 -0.129350
v -0.466808 -0.002239 0.254785
v -0.631795 -0.002302 0.196741
v -0.647813 -0.001984 -0.087983
v -0.576801 -0.000325 -0.198615
v -0.515331 -0.001364 -0.208442
v -0.221447 1.436307 -0.581860
v -0.291030 1.425562 -0.580929
v 0.000544 2.257752 -0.642473
v -0.000099 2.041729 0.317919
v 0.001686 1.966641 -0.779127
v -0.000544 1.744531 0.324927
v -0.000960 1.458575 0.319978
v 0.001150 1.402348 -0.235329
v 0.002643 1.601544 -0.732270
v 0.002582 1.448999 -0.587386
v -0.701682 0.778925 -0.063729
v -0.325306 0.649447 -0.170113
v -0.294102 0.693373 0.037794
v -0.662695 0.794377 0.132411
v -0.434212 0.732212 -0.295155
v -0.566236 0.774551 -0.280782
v -0.385167 0.728385 0.198057
v -0.000000 4.101470 0.073264
v -0.000000 4.199946 0.409245
v -0.000000 4.264171 0.487133
v -0.000000 4.491691 0.491475
v -0.060684 4.664355 0.540047
v -0.079497 4.669476 0.432251
v -0.000000 4.922991 0.476001
v -0.000000 5.164642 0.452810
v -0.377858 4.236017 -0.116966
v -0.219789 4.127460 -0.120797
v -0.478864 4.441330 -0.087063
v -0.383453 4.424368 0.146171
v -0.311221 4.305671 0.233942
v -0.551885 4.722839 -0.005931
v -0.597071 4.732778 -0.139870
v -0.567251 4.913584 0.072847
v -0.517824 4.477348 -0.243298
v -0.420984 4.659124 0.168747
v -0.291706 4.663239 0.336249
v -0.253194 4.446329 0.365894
v -0.399644 5.367760 0.102137
v -0.249870 5.371446 0.287717
v -0.209810 4.296341 0.397601
v -0.192026 4.252137 0.379924
v -0.000000 5.375690 0.327201
v -0.082075 4.488660 0.472472
v -0.425002 5.142166 0.271604
v -0.293319 4.918774 0.368293
v -0.059228 4.926841 0.470461
v -0.243970 5.149580 0.391312
v -0.441873 4.910452 0.243448
v -0.594088 4.902462 -0.126499
v -0.553144 5.139281 -0.131252
v -0.256795 5.502155 0.073368
v -0.000000 5.526708 0.143168
v -0.539572 5.140208 0.078652
v -0.462991 5.358539 -0.001170
v -0.484587 5.342217 -0.195589
v -0.567956 4.888293 -0.307872
v -0.526649 5.076419 -0.329774
v -0.458485 5.288444 -0.350705
v -0.520239 4.839880 -0.472189
v -0.462477 5.013393 -0.499507
v -0.395972 5.195112 -0.506635
v -0.581605 4.716397 -0.297278
v -0.339514 5.522831 -0.067925
v -0.000000 5.584167 -0.047761
v -0.329608 5.446511 -0.408787
v -0.369540 5.521955 -0.241517
v -0.000000 5.581608 -0.238668
v -0.000000 5.502533 -0.442952
v -0.295864 5.359988 -0.524800
v -0.000000 5.405725 -0.579026
v -0.285722 5.197387 -0.641624
v -0.000000 5.194815 -0.721819
v -0.338935 4.621442 -0.640547
v -0.000000 4.629211 -0.720476
v -0.287914 4.991710 -0.711444
v -0.000000 5.015310 -0.774338
v -0.323825 4.762398 -0.685958
v -0.000000 4.796227 -0.763194
v -0.340720 4.479625 -0.534377
v -0.000000 4.275273 -0.495339
v -0.000000 4.467357 -0.595074
v -0.486645 4.522251 -0.390744
v -0.526385 4.691682 -0.425173
v -0.339763 4.305747 -0.428543
v -0.000000 4.124728 -0.467668
v -0.275294 4.119438 -0.421230
v -0.000000 3.874861 -0.561816
v 0.000095 2.569152 -0.562117
v -0.422772 2.578979 -0.432150
v -0.432722 2.957637 -0.431468
v -0.000000 2.936860 -0.551621
v -0.534422 3.009977 -0.144305
v -0.572083 2.472466 -0.152704
v -0.489370 2.415859 0.131967
v -0.313878 3.521046 -0.513982
v -0.000000 2.366808 0.296801
v 0.000000 3.492541 -0.585769
v -0.464955 3.532983 -0.445928
v -0.000000 3.543328 0.334565
v -0.384170 3.539636 0.234040
v -0.537646 3.359146 -0.148169
v -0.211021 3.864069 -0.464930
v -0.455046 3.831260 -0.432469
v -0.607001 3.457410 -0.135850
v -0.622619 3.554443 -0.368190
v -0.595102 3.840386 0.051992
v -0.355533 3.850543 0.140559
v -0.262257 4.005513 -0.114150
v -0.648021 3.822898 -0.352196
v -0.900562 2.910479 -0.309754
v -0.000000 3.977644 0.129910
v -0.637836 3.604930 0.106837
v -0.730512 2.875350 -0.000682
v -0.907011 1.681668 0.199561
v -0.857658 1.632952 -0.157559
v -0.778895 2.674839 -0.013567
v -0.948708 2.703351 -0.306332
v -0.905800 2.914724 -0.032699
v -0.946137 2.924655 -0.152339
v -0.683102 2.652603 -0.148313
v -0.636851 2.848533 -0.151655
v -0.731660 2.871275 -0.320819
v -0.780141 2.670302 -0.317441
v -1.018409 2.740385 -0.149080
v -0.952743 2.709463 -0.029290
v -0.859844 3.640927 -0.155859
v -0.613137 3.456565 -0.155065
v -0.463071 3.975871 -0.133065
v -0.649579 3.980825 -0.152540
v -0.777745 1.990860 0.052480
v -0.825600 1.955402 -0.022704
v -1.018110 2.031222 -0.393328
v -0.974734 1.983070 -0.336357
v -0.697253 1.979065 -0.108134
v -0.775708 1.977978 -0.405391
v -0.826052 1.946040 -0.344522
v -1.099889 2.055286 -0.108833
v -1.022835 2.045703 0.035114
v -0.975748 1.992889 -0.034471
v -0.780643 1.948298 -0.132709
v -0.811310 1.863211 -0.117549
v -1.014228 1.835708 0.031809
v -1.022669 1.997149 -0.133163
v -0.850132 1.845331 0.075382
v -1.047542 1.859904 -0.127618
v -0.854560 1.779524 -0.422829
v -1.026835 1.790019 -0.407378
v -1.046548 1.584037 -0.501653
v -0.863244 1.551377 -0.516946
v -1.081592 1.595334 -0.157486
v -1.050129 1.666829 0.122332
v -0.774984 1.865034 0.086532
v -0.903600 1.345250 -0.513224
v -1.014049 1.351005 -0.497740
v -1.065028 1.353779 -0.125709
v -1.065348 1.351347 0.153563
v -0.788247 1.647269 0.025456
v -0.802755 1.690007 0.197064
v -0.916212 1.351527 0.230895
v -0.892513 1.347080 -0.131706
v -0.875704 0.970444 -0.086421
v -0.995027 1.114274 -0.093282
v -1.005164 1.124770 0.133786
v -0.914465 1.022523 0.130450
v -0.698571 1.517308 0.128319
v -0.638466 1.580558 0.126278
v -0.636249 1.602420 0.211150
v -0.697286 1.543150 0.224564
v -0.765254 1.798129 -0.019563
v -0.703802 1.745872 0.161084
v -0.755272 1.645013 0.200458
v -0.743435 1.552155 0.086998
v -0.982668 1.154277 -0.423940
v -0.874093 0.997663 -0.366116
v -0.905598 1.158094 -0.448935
v -0.715006 1.712967 0.050360
v -0.367277 3.738230 0.205218
v -0.000000 3.858587 0.240472
v -0.000000 3.759979 0.305644
v -0.404322 3.273834 0.181763
v -0.385293 3.065573 0.123967
v -0.000000 3.164580 0.332624
v -0.000000 2.981776 0.259830
v -0.852605 1.048501 0.166671
v -0.884266 1.148675 0.213174
v -0.890159 1.149576 -0.103634
v -0.817097 1.015965 -0.086745
v -0.837064 1.034741 -0.372404
v -0.078231 4.567497 0.445990
v -0.000000 4.483845 0.541040
v -0.000000 4.556445 0.586227
v -0.000000 4.656456 0.551125
v -0.065195 4.484230 0.525858
v -0.060191 4.550976 0.579094
v -0.000000 3.898286 -0.499425
v -0.231912 4.000211 -0.130898
v -0.200016 3.890026 -0.421176
v -0.000000 3.978658 0.070234
v -0.862202 3.634666 -0.155830
v -0.754518 3.496281 -0.354746
v -0.858357 3.661191 -0.339550
vt 0.000000 0.000000
vt 0.000000 0.000000
vt 0.000000 0.000000
vt 0.000000 0.000000
vt 0.000000 0.000000
vt 0.000000 0.000000
vt 0.000000 0.000000
vt 0.000000 0.000000
vt 0.000000 0.000000
vt 0.000000 0.000000
vt 0.000000 0.000000
vt 0.000000 0.000000
vt 0.000000 0.000000
vt 0.000000 0.000000
vt 0.000000 0.000000
vt 0.000000 0.000000
vt 0.000000 0.000000
vt 0.000000 0.000000
vt 0.000000 0.000000
vt 0.000000 0.000000
vt 0.000000 0.000000
vt 0.000000 0.000000
vt 0.000000 0.000000
vt 0.000000 0.000000
vt 0.000000 0.000000
vt 0.000000 0.000000
vt 0.000000 0.000000
vt 0.000000 0.000000
vt 0.000000 0.000000
vt 0.000000 0.000000
vt 0.000000 0.000000
vt 0.000000 0.000000
vt 0.000000 0.000000
vt 0.000000 0.000000
vt 0.000000 0.000000
vt 0.000000 0.000000
vt 0.000000 0.000000
vt 0.000000 0.000000
vt 0.000000 0.000000
vt 0.000000 0.000000
vt 0.000000 0.000000
vt 0.000000 0.000000
vt 0.000000 0.000000
vt 0.000000 0.000000
vt 0.000000 0.000000
vt 0.000000 0.000000
vt 0.000000 0.000000
vt 0.000000 0.000000
vt 0.000000 0.000000
vt 0.000000 0.000000
vt 0.000000 0.000000
vt 0.000000 0.000000
vt 0.000000 0.000000
vt 0.000000 0.000000
vt 0.000000 0.000000
vt 0.000000 0.000000
vt 0.000000 0.000000
vt 0.000000 0.000000
vt 0.000000 0.000000
vt 0.000000 0.000000
vt 0.000000 0.000000
vt 0.000000 0.000000
vt 0.000000 0.000000
vt 0.000000 0.000000
vt 0.000000 0.000000
vt 0.000000 0.000000
vt 0.000000 0.000000
vt 0.000000 0.000000
vt 0.000000 0.000000
vt 0.000000 0.000000
vt 0.000000 0.000000
vt 0.000000 0.000000
vt 0.000000 0.000000
vt 0.000000 0.000000
vt 0.000000 0.000000
vt 0.000000 0.000000
vt 0.000000 0.000000
vt 0.000000 0.000000
vt 0.000000 0.000000
vt 0.000000 0.000000
vt 0.000000 0.000000
vt 0.000000 0.000000
vt 0.000000 0.000000
vt 0.000000 0.000000
vt 0.000000 0.000000
vt 0.000000 0.000000
vt 0.000000 0.000000
vt 0.000000 0.000000
vt 0.000000 0.000000
vt 0.000000 0.000000
vt 0.000000 0.000000
vt 0.000000 0.000000
vt 0.000000 0.000000
vt 0.000000 0.000000
vt 0.000000 0.000000
vt 0.000000 0.000000
vt 0.000000 0.000000
vt 0.000000 0.000000
vt 0.000000 0.000000
vt 0.000000 0.000000
vt 0.000000 0.000000
vt 0.000000 0.000000
vt 0.000000 0.000000
vt 0.000000 0.000000
vt 0.000000 0.000000
vt 0.000000 0.000000
vt 0.000000 0.000000
vt 0.000000 0.000000
vt 0.000000 0.000000
vt 0.000000 0.000000
vt 0.000000 0.000000
vt 0.000000 0.000000
vt 0.000000 0.000000
vt 0.000000 0.000000
vt 0.000000 0.000000
vt 0.000000 0.000000
vt 0.000000 0.000000
vt 0.000000 0.000000
vt 0.000000 0.000000
vt 0.000000 0.000000
vt 0.000000 0.000000
vt 0.000000 0.000000
vt 0.000000 0.000000
vt 0.000000 0.000000
vt 0.000000 0.000000
vt 0.000000 0.000000
vt 0.000000 0.000000
vt 0.000000 0.000000
vt 0.000000 0.000000
vt 0.000000 0.000000
vt 0.000000 0.000000
vt 0.000000 0.000000
vt 0.000000 0.000000
vt 0.000000 0.000000
vt 0.000000 0.000000
vt 0.000000 0.000000
vt 0.000000 0.000000
vt 0.000000 0.000000
vt 0.000000 0.000000
vt 0.000000 0.000000
vt 0.000000 0.000000
vt 0.000000 0.000000
vt 0.000000 0.000000
vt 0.000000 0.000000
vt 0.000000 0.000000
vt 0.000000 0.000000
vt 0.000000 0.000000
vt 0.000000 0.000000
vt 0.000000 0.000000
vt 0.000000 0.000000
vt 0.000000 0.000000
vt 0.000000 0.000000
vt 0.000000 0.000000
vt 0.000000 0.000000
vt 0.000000 0.000000
vt 0.000000 0.000000
vt 0.000000 0.000000
vt 0.000000 0.000000
vt 0.000000 0.000000
vt 0.000000 0.000000
vt 0.000000 0.000000
vt 0.000000 0.000000
vt 0.000000 0.000000
vt 0.000000 0.000000
vt 0.000000 0.000000
vt 0.000000 0.000000
vt 0.000000 0.000000
vt 0.000000 0.000000
vt 0.000000 0.000000
vt 0.000000 0.000000
vt 0.000000 0.000000
vt 0.000000 0.000000
vt 0.000000 0.000000
vt 0.000000 0.000000
vt 0.000000 0.000000
vt 0.000000 0.000000
vt 0.000000 0.000000
vt 0.000000 0.000000
vt 0.000000 0.000000
vt 0.000000 0.000000
vt 0.000000 0.000000
vt 0.000000 0.000000
vt 0.000000 0.000000
vt 0.000000 0.000000
vt 0.000000 0.000000
vt 0.000000 0.000000
vt 0.000000 0.000000
vt 0.000000 0.000000
vt 0.000000 0.000000
vt 0.000000 0.000000
vt 0.000000 0.000000
vt 0.000000 0.000000
vt 0.000000 0.000000
vt 0.000000 0.000000
vt 0.000000 0.000000
vt 0.000000 0.000000
vt 0.000000 0.000000
vt 0.000000 0.000000
vt 0.000000 0.000000
vt 0.000000 0.000000
vt 0.000000 0.000000
vt 0.000000 0.000000
vt 0.000000 0.000000
vt 0.000000 0.000000
vt 0.000000 0.000000
vt 0.000000 0.000000
vt 0.000000 0.000000
vt 0.000000 0.000000
vt 0.000000 0.000000
vt 0.000000 0.000000
vt 0.000000 0.000000
vt 0.000000 0.000000
vt 0.852461 0.434253
vt 0.888765 0.421272
vt 0.891271 0.391228
vt 0.876517 0.383196
vt 0.000000 0.000000
vt 0.852461 0.434253
vt 0.876517 0.383196
vt 0.851722 0.498089
vt 0.851722 0.498089
vt 0.000000 0.000000
vt 0.856768 0.576057
vt 0.933956 0.478812
vt 0.932335 0.415063
vt 0.890024 0.488854
vt 0.935540 0.367018
vt 0.934670 0.387915
vt 0.991829 0.385948
vt 0.991829 0.357971
vt 0.991829 0.640087
vt 0.934513 0.640087
vt 0.934513 0.640087
vt 0.991829 0.640087
vt 0.935540 0.354643
vt 0.934513 0.640087
vt 0.888184 0.640087
vt 0.888184 0.640087
vt 0.991829 0.640087
vt 0.983474 0.413152
vt 0.984436 0.447005
vt 0.928969 0.551786
vt 0.983161 0.543973
vt 0.984123 0.473450
vt 0.885890 0.551968
vt 0.888184 0.640087
vt 0.856768 0.576057
vt 0.856768 0.576057
vt 0.888184 0.640087
vt 0.991829 0.542724
vt 0.888184 0.640087
vt 0.888184 0.640087
vt 0.888184 0.640087
vt 0.888184 0.640087
vt 0.888184 0.640087
vt 0.888184 0.640087
vt 0.856768 0.576057
vt 0.851722 0.498089
vt 0.991829 0.640087
vt 0.934513 0.640087
vt 0.934513 0.640087
vt 0.991829 0.640087
vt 0.934513 0.640087
vt 0.991829 0.640087
vt 0.934513 0.640087
vt 0.991829 0.640087
vt 0.991829 0.640087
vt 0.934513 0.640087
vt 0.934513 0.640087
vt 0.991829 0.640087
vt 0.934513 0.640087
vt 0.991829 0.640087
vt 0.934513 0.640087
vt 0.991829 0.640087
vt 0.934513 0.640087
vt 0.991829 0.640087
vt 0.934513 0.640087
vt 0.991829 0.640087
vt 0.888184 0.640087
vt 0.888184 0.640087
vt 0.000000 0.000000
vt 0.851722 0.498089
vt 0.000000 0.000000
vt 0.852461 0.434253
vt 0.851722 0.498089
vt 0.888184 0.640087
vt 0.000000 0.000000
vt 0.888184 0.640087
vt 0.000000 0.000000
vt 0.934513 0.640087
vt 0.953801 0.640087
vt 0.991829 0.353999
vt 0.991829 0.640087
vt 0.961496 0.640087
vt 0.000000 0.000000
vt 0.000000 0.000000
vt 0.000000 0.000000
vt 0.000000 0.000000
vt 0.000000 0.000000
vt 0.000000 0.000000
vt 0.000000 0.000000
vt 0.000000 0.000000
vt 0.000000 0.000000
vt 0.000000 0.000000
vt 0.000000 0.000000
vt 0.000000 0.000000
vt 0.000000 0.000000
vt 0.000000 0.000000
vt 0.000000 0.000000
vt 0.000000 0.000000
vt 0.000000 0.000000
vt 0.000000 0.000000
vt 0.000000 0.000000
vt 0.000000 0.000000
vt 0.000000 0.000000
vt 0.000000 0.000000
vt 0.000000 0.000000
vt 0.000000 0.000000
vt 0.000000 0.000000
vt 0.000000 0.000000
vt 0.000000 0.000000
vt 0.000000 0.000000
vt 0.000000 0.000000
vt 0.000000 0.000000
vt 0.000000 0.000000
vt 0.000000 0.000000
vt 0.000000 0.000000
vt 0.000000 0.000000
vt 0.000000 0.000000
vt 0.000000 0.000000
vt 0.000000 0.000000
vt 0.000000 0.000000
vt 0.000000 0.000000
vt 0.000000 0.000000
vt 0.000000 0.000000
vt 0.000000 0.000000
vt 0.000000 0.000000
vt 0.000000 0.000000
vt 0.000000 0.000000
vt 0.000000 0.000000
vt 0.000000 0.000000
vt 0.983474 0.413152
vt 0.984436 0.447005
vt 0.991829 0.451537
vt 0.991829 0.412840
vt 0.984123 0.473450
vt 0.991829 0.472627
vt 0.991829 0.412840
vt 0.852461 0.434253
vt 0.891271 0.391228
vt 0.888765 0.421272
vt 0.876517 0.383196
vt 0.000000 0.000000
vt 0.876517 0.383196
vt 0.852461 0.434253
vt 0.851722 0.498089
vt 0.856768 0.576057
vt 0.000000 0.000000
vt 0.851722 0.498089
vt 0.933956 0.478812
vt 0.890024 0.488854
vt 0.932335 0.415063
vt 0.935540 0.367018
vt 0.934670 0.387915
vt 0.934513 0.640087
vt 0.934513 0.640087
vt 0.935540 0.354643
vt 0.934513 0.640087
vt 0.888184 0.640087
vt 0.888184 0.640087
vt 0.983474 0.413152
vt 0.984436 0.447005
vt 0.984123 0.473450
vt 0.983161 0.543973
vt 0.928969 0.551786
vt 0.885890 0.551968
vt 0.888184 0.640087
vt 0.888184 0.640087
vt 0.856768 0.576057
vt 0.856768 0.576057
vt 0.888184 0.640087
vt 0.888184 0.640087
vt 0.888184 0.640087
vt 0.888184 0.640087
vt 0.888184 0.640087
vt 0.888184 0.640087
vt 0.856768 0.576057
vt 0.851722 0.498089
vt 0.934513 0.640087
vt 0.934513 0.640087
vt 0.934513 0.640087
vt 0.934513 0.640087
vt 0.934513 0.640087
vt 0.934513 0.640087
vt 0.934513 0.640087
vt 0.934513 0.640087
vt 0.934513 0.640087
vt 0.934513 0.640087
vt 0.888184 0.640087
vt 0.888184 0.640087
vt 0.000000 0.000000
vt 0.000000 0.000000
vt 0.851722 0.498089
vt 0.851722 0.498089
vt 0.852461 0.434253
vt 0.888184 0.640087
vt 0.000000 0.000000
vt 0.000000 0.000000
vt 0.888184 0.640087
vt 0.953801 0.640087
vt 0.934513 0.640087
vt 0.961496 0.640087
vt 0.000000 0.000000
vt 0.000000 0.000000
vt 0.000000 0.000000
vt 0.000000 0.000000
vt 0.000000 0.000000
vt 0.000000 0.000000
vt 0.000000 0.000000
vt 0.000000 0.000000
vt 0.000000 0.000000
vt 0.000000 0.000000
vt 0.000000 0.000000
vt 0.000000 0.000000
vt 0.000000 0.000000
vt 0.000000 0.000000
vt 0.000000 0.000000
vt 0.000000 0.000000
vt 0.000000 0.000000
vt 0.000000 0.000000
vt 0.000000 0.000000
vt 0.000000 0.000000
vt 0.000000 0.000000
vt 0.000000 0.000000
vt 0.000000 0.000000
vt 0.000000 0.000000
vt 0.000000 0.000000
vt 0.000000 0.000000
vt 0.000000 0.000000
vt 0.000000 0.000000
vt 0.000000 0.000000
vt 0.000000 0.000000
vt 0.000000 0.000000
vt 0.000000 0.000000
vt 0.000000 0.000000
vt 0.000000 0.000000
vt 0.000000 0.000000
vt 0.000000 0.000000
vt 0.000000 0.000000
vt 0.000000 0.000000
vt 0.000000 0.000000
vt 0.000000 0.000000
vt 0.000000 0.000000
vt 0.000000 0.000000
vt 0.000000 0.000000
vt 0.000000 0.000000
vt 0.000000 0.000000
vt 0.983474 0.413152
vt 0.984436 0.447005
vt 0.984123 0.473450
vt 0.000000 0.000000
vt 0.000000 0.000000
vt 0.000000 0.000000
vt 0.000000 0.000000
vt 0.000000 0.000000
vt 0.000000 0.000000
vt 0.000000 0.000000
vt 0.000000 0.000000
vt 0.000000 0.000000
vt 0.000000 0.000000
vt 0.000000 0.000000
vt 0.000000 0.000000
vt 0.000000 0.000000
vt 0.000000 0.000000
vt 0.000000 0.000000
vt 0.000000 0.000000
vt 0.000000 0.000000
vt 0.000000 0.000000
vt 0.000000 0.000000
vt 0.000000 0.000000
vt 0.000000 0.000000
vt 0.000000 0.000000
vt 0.000000 0.000000
vt 0.000000 0.000000
vt 0.000000 0.000000
vt 0.000000 0.000000
vt 0.000000 0.000000
vt 0.000000 0.000000
vt 0.000000 0.000000
vt 0.000000 0.000000
vt 0.000000 0.000000
vt 0.000000 0.000000
vt 0.000000 0.000000
vt 0.000000 0.000000
vt 0.000000 0.000000
vt 0.000000 0.000000
vt 0.000000 0.000000
vt 0.000000 0.000000
vt 0.000000 0.000000
vt 0.000000 0.000000
vt 0.000000 0.000000
vt 0.000000 0.000000
vt 0.000000 0.000000
vt 0.000000 0.000000
vt 0.000000 0.000000
vt 0.000000 0.000000
vt 0.000000 0.000000
vt 0.000000 0.000000
vt 0.000000 0.000000
vt 0.000000 0.000000
vt 0.000000 0.000000
vt 0.000000 0.000000
vt 0.000000 0.000000
vt 0.000000 0.000000
vt 0.000000 0.000000
vt 0.000000 0.000000
vt 0.166666666666667 0.5
vt 0.5 0.5
vt 0.833333333333333 0.5
vn 0.1018 0.0233 0.9945
vn 0.9402 0.1425 0.3093
vn -0.9685 -0.2408 -0.0633
vn 0.3861 0.0331 0.9219
vn 0.3290 0.4576 -0.8260
vn 0.1263 -0.4414 -0.8884
vn 0.0026 -0.9942 0.1077
vn 0.0703 0.0147 0.9974
vn 0.2953 -0.5611 0.7733
vn 0.3205 -0.0723 0.9445
vn 0.9438 0.1022 0.3144
vn 0.4437 -0.1137 -0.8889
vn -0.0285 -0.6884 -0.7248
vn 0.9912 0.1271 -0.0381
vn -0.9946 -0.0654 0.0803
vn -0.9530 -0.1214 0.2776
vn 0.2574 0.1054 0.9605
vn 0.9453 -0.0918 -0.3131
vn 0.9516 0.0398 0.3047
vn 0.9708 -0.1407 0.1944
vn 0.2528 -0.3966 -0.8825
vn -0.9297 -0.2015 0.3083
vn 0.8789 -0.2117 -0.4273
vn 0.9468 -0.1085 0.3029
vn 0.8239 -0.2342 -0.5160
vn -0.6265 -0.4491 -0.6370
vn 0.8789 0.3716 0.2992
vn 0.2487 -0.4380 -0.8639
vn -0.9465 -0.3069 -0.0995
vn 0.2827 -0.1313 0.9502
vn -0.8560 -0.3962 0.3321
vn 0.3783 -0.0852 -0.9218
vn -0.9511 0.0751 0.2996
vn 0.1798 0.4186 -0.8902
vn -0.8902 -0.3627 0.2755
vn 0.9890 0.1431 -0.0365
vn -0.9915 -0.1210 -0.0479
vn -0.9787 -0.1879 -0.0830
vn -0.5941 -0.4156 -0.6887
vn 0.3730 -0.0052 0.9278
vn 0.8322 0.0618 -0.5511
vn 0.7914 0.4073 -0.4559
vn 0.9533 -0.0799 -0.2913
vn 0.8227 0.4568 -0.3384
vn 0.3363 0.1820 0.9240
vn -0.0317 -0.9908 -0.1314
vn -0.5082 -0.8489 -0.1454
vn 0.1396 -0.1116 -0.9839
vn -0.0984 -0.6714 -0.7345
vn -0.4073 -0.5411 -0.7357
vn 0.0506 -0.5932 -0.8034
vn 0.3022 -0.1138 -0.9464
vn 0.2804 0.0110 -0.9598
vn 0.9330 0.1633 0.3207
vn 0.9553 -0.0416 -0.2927
vn 0.8905 0.1423 -0.4322
vn 0.3131 0.0618 0.9477
vn 0.3118 -0.0695 0.9476
vn 0.2530 -0.0739 -0.9646
vn 0.8410 0.1266 0.5260
vn 0.2972 0.1359 -0.9451
vn 0.8381 0.1436 -0.5263
vn -0.8693 -0.1437 0.4730
vn 0.1516 0.1825 -0.9714
vn 0.1734 0.8882 -0.4255
vn 0.4140 -0.0461 -0.9091
vn 0.4075 0.0463 -0.9120
vn -0.8753 -0.1389 -0.4633
vn 0.1694 -0.0204 -0.9853
vn -0.7957 -0.2172 0.5654
vn 0.1342 0.0109 0.9909
vn 0.8305 0.3364 -0.4441
vn 0.0655 -0.0001 -0.9979
vn -0.8380 -0.2246 -0.4974
vn 0.8564 0.2892 0.4278
vn 0.2456 0.7902 0.5616
vn 0.4158 0.0311 -0.9089
vn 0.3617 -0.7642 -0.5341
vn 0.7760 -0.5761 0.2569
vn 0.1223 0.8853 -0.4487
vn 0.7934 0.3760 -0.4787
vn 0.8198 0.3756 0.4324
vn 0.2559 0.8463 -0.4672
vn 0.4434 -0.7245 0.5278
vn 0.8170 -0.5511 -0.1695
vn 0.0960 0.8447 -0.5266
vn -0.1500 0.9170 0.3695
vn -0.2783 -0.9382 0.2058
vn 0.2549 -0.8233 0.5071
vn 0.6676 -0.7359 -0.1129
vn 0.2366 -0.7957 -0.5576
vn -0.3701 -0.9246 -0.0904
vn 0.5706 -0.7870 0.2345
vn 0.9311 0.2293 -0.2836
vn -0.8372 -0.2215 -0.5000
vn -0.2742 0.2471 -0.9294
vn 0.9153 0.0317 -0.4015
vn 0.3166 0.0596 0.9467
vn 0.3196 0.4737 0.8207
vn 0.2394 0.5081 0.8274
vn 0.2577 0.1422 0.9557
vn 0.4185 0.1685 0.8925
vn 0.3071 0.7984 0.5180
vn 0.1894 0.8520 0.4880
vn 0.9035 -0.0756 0.4219
vn 0.3904 -0.3087 0.8674
vn 0.9281 -0.0036 0.3722
vn 0.8557 0.1694 0.4889
vn -0.9362 -0.0345 -0.3497
vn 0.0262 0.1302 -0.9911
vn 0.9289 0.1531 -0.3373
vn 0.0554 0.1018 0.9933
vn -0.8610 -0.0047 0.5085
vn 0.9162 0.1086 0.3856
vn 0.3482 -0.3283 -0.8781
vn 0.2282 0.8766 -0.4236
vn 0.2261 0.8779 -0.4220
vn 0.2306 0.8767 -0.4223
vn 0.2027 0.8878 -0.4132
vn 0.2056 0.8873 -0.4129
vn -0.1150 0.9933 0.0075
vn -0.1172 0.9931 0.0092
vn -0.0662 0.9973 0.0332
vn -0.0965 0.0236 0.9951
vn -0.9429 0.1433 0.3006
vn 0.9696 -0.2390 -0.0524
vn -0.3896 0.0372 0.9202
vn -0.3302 0.4524 -0.8284
vn -0.1253 -0.4470 -0.8857
vn -0.0037 -0.9941 0.1080
vn -0.0614 0.0183 0.9979
vn -0.3020 -0.5756 0.7599
vn -0.3305 -0.0702 0.9412
vn -0.9477 0.1001 0.3031
vn -0.4397 -0.1185 -0.8903
vn 0.0211 -0.6885 -0.7249
vn -0.9911 0.1238 -0.0485
vn 0.9941 -0.0616 0.0898
vn 0.9501 -0.1171 0.2893
vn -0.2695 0.1031 0.9575
vn -0.9412 -0.0965 -0.3237
vn -0.9553 0.0373 0.2932
vn -0.9722 -0.1476 0.1819
vn -0.2431 -0.3981 -0.8845
vn 0.9264 -0.2016 0.3179
vn -0.8732 -0.2139 -0.4378
vn -0.9501 -0.1119 0.2912
vn -0.8183 -0.2289 -0.5272
vn 0.6410 -0.4379 -0.6304
vn -0.8843 0.3677 0.2878
vn -0.2341 -0.4285 -0.8727
vn 0.9497 -0.3005 -0.0879
vn -0.2929 -0.1413 0.9456
vn 0.8529 -0.3977 0.3383
vn -0.3777 -0.0913 -0.9214
vn 0.9474 0.0732 0.3117
vn -0.1852 0.4170 -0.8898
vn 0.8878 -0.3603 0.2864
vn -0.9890 0.1400 -0.0469
vn 0.9924 -0.1178 -0.0367
vn 0.9801 -0.1851 -0.0714
vn 0.6032 -0.4156 -0.6807
vn -0.3685 0.0017 0.9296
vn -0.8292 0.0558 -0.5562
vn -0.7909 0.4001 -0.4631
vn -0.9499 -0.0838 -0.3011
vn -0.8235 0.4502 -0.3451
vn -0.3343 0.1862 0.9239
vn 0.0277 -0.9910 -0.1312
vn 0.5079 -0.8502 -0.1388
vn -0.1439 -0.1146 -0.9829
vn 0.0954 -0.6810 -0.7260
vn 0.4145 -0.5471 -0.7272
vn -0.0550 -0.5967 -0.8006
vn -0.3017 -0.1195 -0.9459
vn -0.2802 0.0106 -0.9599
vn -0.9341 0.1649 0.3167
vn -0.9550 -0.0424 -0.2935
vn -0.8890 0.1400 -0.4359
vn -0.3120 0.0631 0.9480
vn -0.3115 -0.0700 0.9477
vn -0.2529 -0.0737 -0.9647
vn -0.7643 0.1540 0.6262
vn -0.2988 0.1374 -0.9444
vn -0.9868 0.0820 -0.1400
vn 0.9429 -0.1066 0.3155
vn -0.1540 0.1850 -0.9706
vn -0.1735 0.9043 -0.3900
vn -0.4133 -0.0460 -0.9094
vn -0.4065 0.0547 -0.9120
vn 0.8407 -0.0170 -0.5412
vn -0.1022 0.0411 -0.9939
vn 0.7993 -0.2044 0.5651
vn -0.1337 0.0083 0.9910
vn -0.8359 0.3200 -0.4459
vn -0.0658 -0.0010 -0.9978
vn 0.8392 -0.2067 -0.5031
vn -0.8621 0.2712 0.4280
vn -0.2707 0.8020 0.5325
vn -0.4095 0.0362 -0.9116
vn -0.3670 -0.7615 -0.5342
vn -0.7751 -0.5788 0.2534
vn -0.0912 0.8958 -0.4351
vn -0.7809 0.4869 -0.3912
vn -0.7361 0.4504 0.5053
vn -0.0906 0.8509 -0.5175
vn -0.4487 -0.7250 0.5225
vn -0.8145 -0.5528 -0.1761
vn -0.7555 -0.5981 0.2675
vn 0.8496 -0.4640 -0.2509
vn 0.3097 -0.9277 0.2084
vn -0.2313 -0.8301 0.5074
vn -0.6401 -0.7603 -0.1108
vn -0.2140 -0.8020 -0.5577
vn 0.4022 -0.9109 -0.0919
vn -0.5442 -0.8062 0.2321
vn -0.9334 0.2122 -0.2894
vn 0.8403 -0.2111 -0.4993
vn -0.9150 0.0317 -0.4023
vn -0.3164 0.0597 0.9467
vn -0.3193 0.4977 0.8065
vn -0.2483 0.5178 0.8187
vn -0.2602 0.1434 0.9549
vn -0.4298 0.2275 0.8738
vn -0.1414 0.8441 0.5171
vn -0.1720 0.8683 0.4653
vn -0.9031 -0.0769 0.4226
vn -0.3904 -0.3086 0.8674
vn -0.9274 -0.0032 0.3739
vn -0.8627 0.1348 0.4875
vn 0.9360 0.0057 -0.3520
vn -0.0289 0.1285 -0.9913
vn -0.9346 0.1155 -0.3365
vn -0.0573 0.0991 0.9934
vn 0.8599 0.0316 0.5096
vn -0.9166 0.1093 0.3845
vn 0.2732 0.2489 -0.9292
vn -0.3419 -0.3336 -0.8785
vn -0.2023 0.9024 -0.3804
vn -0.2021 0.9014 -0.3829
vn -0.2003 0.9020 -0.3825
vn -0.2096 0.8947 -0.3945
vn -0.2083 0.8960 -0.3922
vn 0.1102 0.9938 -0.0120
vn 0.0595 0.9982 0.0105
vn 0.1078 0.9941 -0.0106
vn -0.5114 0.0249 0.8590
vn 0.4196 -0.0294 0.9072
vn 0.3339 -0.8509 -0.4056
vn -0.1284 -0.0441 -0.9907
vn -0.6147 0.7845 0.0816
vn 0.8810 -0.2936 0.3710
vn 0.9048 -0.2981 0.3041
vn 0.9053 -0.2768 0.3223
vn 0.8553 -0.4520 0.2532
vn 0.8376 -0.4750 0.2698
vn 0.8595 -0.4587 0.2256
vn 0.8867 -0.4481 0.1142
vn 0.8767 -0.4603 0.1396
vn 0.8757 -0.4729 0.0971
vn 0.9912 0.0434 -0.1251
vn 0.9906 0.0519 -0.1262
vn 0.9910 0.0504 -0.1244
vn 0.9896 0.0576 -0.1317
vn 0.8121 -0.0707 0.5793
vn 0.8124 -0.0087 0.5830
vn 0.7846 -0.0608 0.6170
vn 0.3413 -0.6407 0.6877
vn 0.3251 -0.6660 0.6714
vn 0.3643 -0.6588 0.6582
vn 0.3623 -0.5918 0.7201
vn 0.1688 0.8034 0.5711
vn 0.1593 0.8036 0.5735
vn 0.1691 0.7980 0.5784
vn 0.5811 -0.7815 0.2273
vn 0.5836 -0.7751 0.2421
vn 0.5783 -0.7776 0.2468
vn 0.5572 -0.7913 0.2519
vn 0.6197 0.4355 0.6529
vn 0.5946 0.3823 0.7073
vn 0.6606 0.3812 0.6467
vn 0.6277 0.4289 0.6496
vn 0.1953 0.4568 0.8679
vn 0.1864 0.4566 0.8699
vn 0.1959 0.4481 0.8723
vn 0.7417 -0.4836 0.4648
vn 0.7647 -0.4862 0.4228
vn 0.7665 -0.4754 0.4319
vn 0.3832 -0.0855 0.9197
vn 0.3982 -0.1311 0.9079
vn 0.4210 -0.0622 0.9049
vn 0.5073 0.3136 0.8027
vn 0.5669 0.2541 0.7836
vn 0.5886 0.2994 0.7509
vn 0.3648 -0.0977 0.9259
vn 0.3970 -0.1112 0.9110
vn 0.4029 -0.1188 0.9075
vn 0.4133 -0.0933 0.9058
vn 0.7052 -0.1715 0.6880
vn 0.6874 -0.1811 0.7033
vn 0.7104 -0.1784 0.6808
vn 0.7215 -0.1332 0.6795
vn 0.8540 -0.1174 0.5069
vn 0.8531 -0.1083 0.5103
vn 0.8251 -0.1621 0.5413
vn 0.8481 -0.1908 0.4943
vn 0.9788 0.1986 0.0498
vn 0.9843 0.1411 0.1055
vn 0.9842 0.1514 0.0914
vn 0.9937 0.1043 0.0420
vn 0.3007 0.0683 0.9513
vn 0.3139 0.0712 0.9468
vn 0.3094 0.0730 0.9481
vn 0.2990 0.0714 0.9516
vn 0.3037 0.0588 0.9510
vn 0.6411 -0.0414 0.7663
vn 0.6031 -0.0032 0.7977
vn 0.5987 -0.0023 0.8009
vn 0.5887 0.0237 0.8080
vn 0.4153 0.0314 0.9092
vn 0.4454 0.0539 0.8937
vn 0.4650 0.0683 0.8827
vn 0.4174 0.1260 0.9000
vn 0.5651 0.7012 0.4347
vn 0.5698 0.6551 0.4961
vn 0.5726 0.6896 0.4433
vn 0.7861 0.4730 0.3978
vn 0.7400 0.4852 0.4659
vn 0.7753 0.3856 0.5002
vn 0.8196 0.3890 0.4206
vn 0.9215 0.3881 0.0171
vn 0.9125 0.3952 0.1059
vn 0.9481 0.2975 0.1122
vn 0.9553 0.2945 0.0263
vn 0.9131 0.2967 -0.2796
vn 0.9295 0.3170 -0.1885
vn 0.9589 0.2246 -0.1736
vn 0.9389 0.2130 -0.2705
vn 0.9507 0.2165 -0.2222
vn 0.9687 0.1751 -0.1757
vn 0.9690 0.1709 -0.1785
vn 0.9684 0.1271 -0.2146
vn 0.8137 0.2862 -0.5059
vn 0.8565 0.3093 -0.4132
vn 0.8855 0.2223 -0.4081
vn 0.8434 0.2072 -0.4958
vn 0.8767 0.2356 -0.4194
vn 0.9115 0.1912 -0.3643
vn 0.9204 0.1612 -0.3561
vn 0.9009 0.1457 -0.4088
vn 0.8771 -0.2272 0.4232
vn 0.8615 -0.2482 0.4430
vn 0.8629 -0.2731 0.4252
vn 0.8666 -0.2725 0.4180
vn 0.7993 -0.2806 0.5314
vn 0.8026 -0.2460 0.5434
vn 0.7979 -0.2549 0.5462
vn 0.8076 -0.2478 0.5351
vn 0.8686 -0.1716 0.4649
vn 0.8169 -0.1717 0.5506
vn 0.8348 -0.1919 0.5160
vn 0.9065 -0.3164 0.2795
vn 0.9153 -0.2881 0.2813
vn 0.9047 -0.3186 0.2828
vn 0.1672 0.9038 -0.3939
vn 0.1577 0.9058 -0.3932
vn 0.1697 0.9070 -0.3855
vn 0.1767 0.9474 0.2668
vn 0.1676 0.9482 0.2699
vn 0.1726 0.9458 0.2751
vn 0.8062 0.5866 0.0764
vn 0.7676 0.6286 0.1254
vn 0.8266 0.5467 0.1332
vn 0.8110 0.5785 0.0870
vn 0.1683 0.9857 0.0046
vn 0.1591 0.9872 0.0058
vn 0.1674 0.9858 0.0141
vn 0.6206 0.6792 0.3918
vn 0.5637 0.6990 0.4402
vn 0.6212 0.6398 0.4526
vn 0.6229 0.6707 0.4026
vn 0.2103 0.7771 -0.5933
vn 0.2009 0.7792 -0.5937
vn 0.2129 0.7820 -0.5858
vn 0.7428 0.3983 -0.5381
vn 0.7339 0.4616 -0.4982
vn 0.7880 0.3800 -0.4843
vn 0.7502 0.3950 -0.5303
vn 0.8043 0.4699 -0.3638
vn 0.7918 0.5231 -0.3152
vn 0.8430 0.4443 -0.3033
vn 0.8116 0.4657 -0.3527
vn 0.1663 -0.5973 -0.7846
vn 0.1572 -0.5965 -0.7870
vn 0.1669 -0.5897 -0.7902
vn 0.2265 0.5518 -0.8027
vn 0.2173 0.5537 -0.8039
vn 0.2276 0.5594 -0.7970
vn 0.7204 0.3665 -0.5888
vn 0.7261 0.4256 -0.5400
vn 0.7276 0.3730 -0.5757
vn 0.2414 0.2950 -0.9245
vn 0.2323 0.2955 -0.9267
vn 0.2420 0.3041 -0.9214
vn 0.7449 0.2244 -0.6284
vn 0.7064 0.2818 -0.6493
vn 0.7614 0.2841 -0.5828
vn 0.7512 0.2333 -0.6175
vn 0.2173 -0.0622 -0.9741
vn 0.2081 -0.0608 -0.9762
vn 0.2165 -0.0528 -0.9749
vn 0.1905 -0.4811 -0.8557
vn 0.1811 -0.4809 -0.8579
vn 0.2075 -0.4729 -0.8563
vn 0.7426 0.0755 -0.6655
vn 0.7054 0.1303 -0.6968
vn 0.7643 0.1037 -0.6365
vn 0.7472 0.0868 -0.6589
vn 0.7621 -0.1548 -0.6287
vn 0.7545 -0.1088 -0.6472
vn 0.7475 -0.1752 -0.6407
vn 0.7680 -0.1441 -0.6241
vn 0.2074 -0.2597 -0.9432
vn 0.1982 -0.2581 -0.9456
vn 0.2070 -0.2507 -0.9457
vn 0.9458 0.0049 -0.3248
vn 0.9429 0.0003 -0.3331
vn 0.9330 0.0134 -0.3595
vn 0.9299 -0.0200 -0.3672
vn 0.9042 -0.2967 -0.3071
vn 0.9009 -0.2841 -0.3282
vn 0.8898 -0.2877 -0.3544
vn 0.9184 -0.2681 -0.2909
vn 0.7014 -0.4239 -0.5730
vn 0.6944 -0.4332 -0.5745
vn 0.6910 -0.4674 -0.5514
vn 0.7035 -0.3802 -0.6004
vn 0.7279 -0.3902 -0.5638
vn 0.7147 -0.3763 -0.5896
vn 0.7951 -0.5471 -0.2617
vn 0.7862 -0.5644 -0.2515
vn 0.8245 -0.5104 -0.2443
vn 0.7811 -0.5704 -0.2540
vn 0.9204 -0.3336 -0.2039
vn 0.9246 -0.3296 -0.1910
vn 0.9242 -0.3331 -0.1870
vn 0.3243 -0.9121 0.2510
vn 0.3182 -0.9189 0.2334
vn 0.3754 -0.8926 0.2496
vn 0.2765 -0.9224 0.2696
vn 0.3605 -0.9047 0.2272
vn 0.3044 -0.8978 0.3184
vn 0.1847 -0.1365 -0.9733
vn 0.1780 -0.1192 -0.9768
vn 0.1894 -0.1395 -0.9719
vn 0.5555 -0.8220 0.1253
vn 0.5607 -0.8193 0.1198
vn 0.5570 -0.8217 0.1210
vn 0.6400 0.1337 0.7566
vn 0.6143 0.0982 0.7829
vn 0.6113 0.0948 0.7857
vn 0.6502 0.0564 0.7576
vn 0.2505 0.0269 -0.9678
vn 0.2511 0.0295 -0.9675
vn 0.2538 0.0348 -0.9666
vn -0.9655 -0.2233 -0.1340
vn 0.9015 0.2977 0.3140
vn -0.9949 0.0977 0.0263
vn -0.1218 0.6456 0.7539
vn 0.9416 0.2847 -0.1798
vn -0.0007 0.3857 -0.9226
vn 0.3470 0.6095 0.7128
vn 0.9798 0.1693 -0.1064
vn 0.0191 0.4006 -0.9160
vn 0.9709 0.2028 0.1271
vn -0.9910 -0.0885 0.0999
vn 0.9907 -0.0756 -0.1133
vn 0.1082 -0.0113 -0.9941
vn 0.9978 0.0333 0.0572
vn 0.2810 -0.9517 0.1237
vn -0.9272 -0.1555 -0.3408
vn 0.9702 -0.2421 -0.0131
vn -0.4120 -0.8827 0.2260
vn 0.4923 0.1273 0.8611
vn -0.9826 -0.1851 -0.0138
vn 0.1684 0.6726 0.7206
vn 0.2039 0.6820 0.7023
vn -0.7259 -0.5024 0.4698
vn -0.9042 0.3302 -0.2710
vn 0.0224 0.7181 0.6956
vn 0.2476 0.4319 0.8673
vn -0.7659 -0.3169 -0.5594
vn -0.9887 -0.1414 -0.0502
vn 0.8256 -0.3771 0.4197
vn 0.1889 -0.3529 -0.9164
vn -0.9995 0.0000 -0.0327
vn -0.9981 0.0588 0.0208
vn -0.6237 -0.7782 -0.0738
vn 0.8795 -0.4077 0.2453
vn -0.4732 -0.6047 -0.6406
vn -0.1877 0.6144 0.7664
vn -0.9147 0.3709 -0.1603
vn 0.9989 -0.0454 -0.0141
vn 0.9989 -0.0440 -0.0134
vn 0.9990 -0.0419 -0.0170
vn 0.9988 -0.0486 -0.0114
vn 0.8372 0.0273 0.5462
vn 0.8630 0.0031 0.5053
vn 0.8532 0.0952 0.5128
vn 0.8487 0.0467 0.5268
vn 0.7978 -0.5950 -0.0974
vn 0.9733 -0.0746 0.2171
vn 0.9737 -0.0849 0.2113
vn 0.9730 -0.0872 0.2135
vn 0.9726 -0.0856 0.2160
vn 0.7704 -0.2994 -0.5628
vn 0.7765 -0.3163 -0.5450
vn 0.7430 -0.3406 -0.5761
vn 0.9539 -0.2988 0.0289
vn 0.9559 -0.2888 0.0540
vn 0.9472 -0.3162 0.0525
vn 0.9477 -0.3155 0.0486
vn 0.7844 -0.6202 0.0075
vn -0.9056 0.3639 -0.2178
vn -0.5703 -0.4518 -0.6860
vn -0.1727 -0.8910 0.4198
vn -0.1081 0.7130 0.6928
vn -0.9277 0.3724 0.0260
vn -0.8949 0.4463 -0.0029
vn 0.4948 -0.1962 0.8466
vn 0.4269 -0.4725 0.7710
vn 0.9671 -0.2342 -0.0992
vn -0.1108 -0.2747 -0.9551
vn 0.3731 -0.3360 0.8648
vn 0.1779 -0.5627 -0.8073
vn 0.1059 -0.5431 0.8330
vn 0.0859 -0.5822 0.8085
vn 0.1247 -0.5794 0.8054
vn 0.1491 -0.5615 0.8139
vn 0.9776 0.0704 0.1982
vn 0.9759 0.0107 0.2179
vn 0.9877 0.0033 0.1563
vn 0.9862 0.0475 0.1586
vn 0.9795 0.0642 0.1909
vn 0.9835 0.0423 0.1759
vn 0.9852 0.0658 0.1582
vn 0.1200 0.3570 0.9264
vn 0.1216 0.3093 0.9431
vn 0.1352 0.3236 0.9365
vn 0.1471 0.3274 0.9334
vn -0.0202 -0.9924 -0.1210
vn -0.0725 -0.9933 -0.0895
vn -0.0826 -0.9870 -0.1382
vn -0.0386 -0.9875 -0.1526
vn 0.9841 0.0634 0.1661
vn 0.9855 0.0142 0.1688
vn 0.9900 0.0136 0.1401
vn 0.9917 0.0448 0.1204
vn 0.0903 0.2751 0.9572
vn 0.0981 0.2600 0.9606
vn 0.1097 0.2483 0.9624
vn 0.1085 0.2633 0.9586
vn 0.4838 0.0065 0.8752
vn 0.5610 -0.0039 0.8278
vn 0.5251 0.0437 0.8499
vn 0.1842 -0.0328 0.9823
vn 0.2340 -0.0446 0.9712
vn 0.2280 0.0134 0.9736
vn -0.8804 -0.2965 0.3701
vn -0.9054 -0.2703 0.3275
vn -0.8756 -0.3263 0.3561
vn -0.8521 -0.4556 0.2574
vn -0.8638 -0.4493 0.2279
vn -0.8375 -0.4808 0.2596
vn -0.8865 -0.4476 0.1171
vn -0.8834 -0.4604 0.0878
vn -0.8727 -0.4708 0.1298
vn -0.9900 0.0504 -0.1320
vn -0.9894 0.0536 -0.1351
vn -0.9908 0.0511 -0.1253
vn -0.9905 0.0494 -0.1287
vn -0.7901 -0.0975 0.6052
vn -0.7842 -0.0585 0.6177
vn -0.8067 -0.0028 0.5909
vn -0.3226 -0.6549 0.6833
vn -0.4018 -0.6086 0.6842
vn -0.3507 -0.6713 0.6530
vn -0.3196 -0.6588 0.6810
vn -0.1688 0.8034 0.5711
vn -0.1599 0.8041 0.5726
vn -0.1699 0.8089 0.5629
vn -0.5879 -0.7756 0.2300
vn -0.5732 -0.7900 0.2177
vn -0.5751 -0.7816 0.2417
vn -0.5789 -0.7770 0.2472
vn -0.6273 0.4265 0.6516
vn -0.6207 0.4193 0.6625
vn -0.5777 0.4722 0.6658
vn -0.6607 0.4503 0.6006
vn -0.1953 0.4568 0.8679
vn -0.1857 0.4578 0.8694
vn -0.1961 0.4648 0.8634
vn -0.7402 -0.4875 0.4630
vn -0.7634 -0.4683 0.4450
vn -0.7539 -0.4976 0.4290
vn -0.3878 -0.0744 0.9187
vn -0.4290 -0.0735 0.9003
vn -0.4146 -0.1284 0.9009
vn -0.5063 0.3080 0.8055
vn -0.5711 0.3225 0.7549
vn -0.5796 0.2613 0.7719
vn -0.3899 -0.0713 0.9181
vn -0.4150 -0.0951 0.9048
vn -0.4086 -0.1123 0.9058
vn -0.3992 -0.1137 0.9098
vn -0.7076 -0.1682 0.6863
vn -0.7398 -0.1633 0.6527
vn -0.7121 -0.1763 0.6796
vn -0.7041 -0.2060 0.6795
vn -0.8570 -0.1282 0.4990
vn -0.8632 -0.1743 0.4739
vn -0.8228 -0.1359 0.5518
vn -0.8337 -0.1238 0.5382
vn -0.9842 0.1014 0.1454
vn -0.9714 0.1965 0.1331
vn -0.9846 0.1445 0.0989
vn -0.9862 0.1333 0.0979
vn -0.3007 0.0683 0.9513
vn -0.2913 0.0696 0.9541
vn -0.2974 0.0693 0.9522
vn -0.2916 0.0728 0.9538
vn -0.3029 0.0822 0.9495
vn -0.5597 0.0509 0.8271
vn -0.5731 0.0026 0.8195
vn -0.5962 0.0003 0.8028
vn -0.5968 -0.0126 0.8023
vn -0.3949 0.0590 0.9168
vn -0.4006 0.1181 0.9086
vn -0.4502 0.0986 0.8875
vn -0.4439 0.0523 0.8946
vn -0.5719 0.6951 0.4356
vn -0.5647 0.6913 0.4509
vn -0.5589 0.7334 0.3870
vn -0.7518 0.4163 0.5114
vn -0.7387 0.4823 0.4709
vn -0.7930 0.4648 0.3938
vn -0.8175 0.3810 0.4320
vn -0.9388 0.3197 0.1286
vn -0.9116 0.3988 0.1003
vn -0.9281 0.3723 0.0058
vn -0.9558 0.2926 0.0290
vn -0.9565 0.2414 -0.1640
vn -0.9258 0.3219 -0.1984
vn -0.9137 0.2923 -0.2823
vn -0.9467 0.2015 -0.2514
vn -0.9835 0.1402 -0.1148
vn -0.9610 0.2371 -0.1425
vn -0.9703 0.1676 -0.1745
vn -0.9686 0.1826 -0.1688
vn -0.8856 0.2330 -0.4017
vn -0.8419 0.3205 -0.4342
vn -0.8137 0.2869 -0.5056
vn -0.8536 0.1982 -0.4817
vn -0.9344 0.1677 -0.3142
vn -0.9029 0.2581 -0.3436
vn -0.8920 0.1938 -0.4085
vn -0.9117 0.1954 -0.3615
vn -0.8848 -0.2596 0.3870
vn -0.8639 -0.2771 0.4205
vn -0.8621 -0.2716 0.4278
vn -0.8549 -0.2587 0.4498
vn -0.8144 -0.2587 0.5195
vn -0.8040 -0.2414 0.5435
vn -0.7994 -0.2521 0.5453
vn -0.8045 -0.2485 0.5394
vn -0.8685 -0.1591 0.4695
vn -0.8336 -0.1907 0.5184
vn -0.8391 -0.1418 0.5252
vn -0.9052 -0.3187 0.2811
vn -0.9048 -0.3167 0.2846
vn -0.9140 -0.2879 0.2858
vn -0.1672 0.9038 -0.3939
vn -0.1581 0.9049 -0.3953
vn -0.1659 0.9002 -0.4027
vn -0.1767 0.9474 0.2668
vn -0.1675 0.9491 0.2666
vn -0.1820 0.9486 0.2589
vn -0.8102 0.5793 0.0890
vn -0.8037 0.5873 0.0951
vn -0.7902 0.6123 0.0273
vn -0.8414 0.5379 0.0519
vn -0.1683 0.9857 0.0046
vn -0.1589 0.9873 0.0039
vn -0.1705 0.9853 -0.0046
vn -0.6229 0.6712 0.4018
vn -0.6117 0.6775 0.4084
vn -0.6183 0.7075 0.3422
vn -0.6701 0.6368 0.3814
vn -0.2103 0.7771 -0.5933
vn -0.2012 0.7779 -0.5953
vn -0.2088 0.7715 -0.6010
vn -0.7513 0.3966 -0.5274
vn -0.7473 0.4093 -0.5234
vn -0.7007 0.4179 -0.5783
vn -0.7617 0.3408 -0.5510
vn -0.8120 0.4655 -0.3522
vn -0.8076 0.4771 -0.3466
vn -0.7717 0.4826 -0.4141
vn -0.8251 0.4164 -0.3817
vn -0.1663 -0.5973 -0.7846
vn -0.1569 -0.5982 -0.7858
vn -0.1670 -0.6047 -0.7787
vn -0.2265 0.5518 -0.8027
vn -0.2174 0.5511 -0.8056
vn -0.2266 0.5439 -0.8079
vn -0.7266 0.3660 -0.5814
vn -0.7214 0.3818 -0.5778
vn -0.7117 0.3217 -0.6245
vn -0.2414 0.2950 -0.9245
vn -0.2321 0.2951 -0.9268
vn -0.2421 0.2860 -0.9271
vn -0.7512 0.2338 -0.6173
vn -0.7445 0.2423 -0.6222
vn -0.7305 0.1769 -0.6597
vn -0.7871 0.2032 -0.5824
vn -0.2173 -0.0622 -0.9741
vn -0.2081 -0.0619 -0.9761
vn -0.2194 -0.0714 -0.9730
vn -0.1905 -0.4812 -0.8557
vn -0.1830 -0.4968 -0.8484
vn -0.1912 -0.4895 -0.8508
vn -0.7476 0.0866 -0.6585
vn -0.7391 0.0940 -0.6670
vn -0.7465 0.0438 -0.6640
vn -0.7816 0.0598 -0.6209
vn -0.7677 -0.1427 -0.6247
vn -0.7605 -0.1369 -0.6347
vn -0.7762 -0.1173 -0.6195
vn -0.7876 -0.1416 -0.5997
vn -0.2074 -0.2597 -0.9432
vn -0.1982 -0.2602 -0.9450
vn -0.2090 -0.2687 -0.9403
vn -0.9443 0.0079 -0.3289
vn -0.9408 0.0403 -0.3365
vn -0.9516 -0.0207 -0.3065
vn -0.9426 -0.0007 -0.3338
vn -0.9043 -0.2974 -0.3061
vn -0.8904 -0.3202 -0.3236
vn -0.8887 -0.3444 -0.3027
vn -0.9093 -0.2720 -0.3149
vn -0.6943 -0.4180 -0.5858
vn -0.7248 -0.3849 -0.5714
vn -0.6999 -0.4277 -0.5721
vn -0.7107 -0.3695 -0.5986
vn -0.6907 -0.3749 -0.6184
vn -0.7127 -0.3248 -0.6217
vn -0.7979 -0.5443 -0.2589
vn -0.7870 -0.5486 -0.2823
vn -0.7844 -0.5406 -0.3041
vn -0.7978 -0.5375 -0.2733
vn -0.9332 -0.3127 -0.1772
vn -0.9243 -0.3303 -0.1913
vn -0.9256 -0.3266 -0.1914
vn -0.3205 -0.9139 0.2492
vn -0.3753 -0.8924 0.2507
vn -0.3246 -0.9172 0.2312
vn -0.2820 -0.9239 0.2586
vn -0.3040 -0.8979 0.3185
vn -0.3197 -0.9278 0.1925
vn -0.1848 -0.1364 -0.9733
vn -0.1858 -0.1420 -0.9723
vn -0.1995 -0.1474 -0.9688
vn -0.5582 -0.8209 0.1208
vn -0.5616 -0.8187 0.1200
vn -0.5643 -0.8160 0.1252
vn -0.6856 0.0331 0.7272
vn -0.6889 -0.0441 0.7235
vn -0.6593 -0.0132 0.7518
vn -0.6568 -0.0077 0.7541
vn -0.2569 0.0251 -0.9661
vn -0.2600 0.0262 -0.9652
vn -0.2543 0.0252 -0.9668
vn 0.9716 -0.1948 -0.1342
vn -0.9100 0.2721 0.3129
vn 0.9913 0.1294 0.0236
vn 0.1029 0.6489 0.7539
vn -0.9496 0.2569 -0.1796
vn -0.0108 0.3856 -0.9226
vn -0.3386 0.5752 0.7446
vn -0.9844 0.1405 -0.1062
vn -0.0307 0.3996 -0.9162
vn -0.9766 0.1751 0.1252
vn 0.9926 -0.0612 0.1053
vn -0.9870 -0.1108 -0.1164
vn -0.1062 -0.0154 -0.9942
vn -0.9985 0.0038 0.0551
vn -0.1109 -0.9866 0.1193
vn 0.9306 -0.1277 -0.3430
vn -0.9629 -0.2694 -0.0156
vn 0.4464 -0.8657 0.2263
vn -0.4692 0.1027 0.8771
vn 0.9885 -0.1514 -0.0052
vn -0.1302 0.5865 0.7994
vn -0.2781 0.6729 0.6855
vn 0.7116 -0.6827 0.1660
vn 0.9032 0.3932 -0.1721
vn 0.0215 0.2994 0.9539
vn -0.2553 0.4281 0.8669
vn 0.7807 -0.2850 -0.5562
vn 0.9933 -0.1056 -0.0467
vn -0.8275 -0.5055 0.2445
vn -0.2014 -0.3452 -0.9167
vn 0.9993 -0.0078 -0.0365
vn 0.9960 0.0860 0.0257
vn 0.6481 -0.7570 -0.0826
vn -0.8565 -0.4923 0.1550
vn 0.4055 -0.3087 -0.8604
vn 0.0066 0.5332 0.8460
vn 0.9049 0.3926 -0.1646
vn -0.9821 -0.1728 0.0747
vn -0.9819 -0.1761 0.0695
vn -0.9827 -0.1703 0.0723
vn -0.9811 -0.1782 0.0756
vn -0.8413 0.0362 0.5393
vn -0.8337 0.0689 0.5479
vn -0.8065 -0.0089 0.5912
vn -0.8076 0.0907 0.5827
vn -0.7848 -0.6138 -0.0856
vn -0.9708 -0.0851 0.2245
vn -0.9735 -0.0926 0.2089
vn -0.9738 -0.0845 0.2113
vn -0.9742 -0.0868 0.2083
vn -0.7723 -0.2926 -0.5638
vn -0.7962 -0.2930 -0.5293
vn -0.7537 -0.2766 -0.5962
vn -0.9557 -0.2919 0.0369
vn -0.9469 -0.3175 0.0514
vn -0.9475 -0.3154 0.0531
vn -0.9463 -0.3136 0.0786
vn -0.7607 -0.6491 0.0077
vn 0.8971 0.3990 -0.1898
vn 0.5344 -0.2956 -0.7918
vn 0.0831 -0.9653 0.2474
vn 0.1898 0.2715 0.9435
vn 0.9135 0.4061 0.0249
vn 0.8799 0.4743 -0.0289
vn -0.4820 -0.1783 0.8579
vn -0.4099 -0.4875 0.7710
vn -0.9635 -0.2483 -0.1000
vn 0.1127 -0.2745 -0.9550
vn -0.3605 -0.3480 0.8654
vn -0.2199 -0.5996 -0.7695
vn -0.0893 -0.5571 0.8256
vn -0.1324 -0.5469 0.8267
vn -0.1330 -0.5729 0.8088
vn -0.1062 -0.5989 0.7938
vn -0.9728 0.0475 0.2267
vn -0.9800 0.0612 0.1895
vn -0.9885 0.0196 0.1497
vn -0.9784 -0.0032 0.2067
vn -0.9797 0.0659 0.1895
vn -0.9855 0.0643 0.1570
vn -0.9840 0.0422 0.1733
vn -0.1021 0.3415 0.9343
vn -0.1383 0.3366 0.9314
vn -0.1360 0.3245 0.9361
vn -0.1200 0.3107 0.9429
vn 0.0362 -0.9942 -0.1011
vn 0.0228 -0.9899 -0.1402
vn 0.0568 -0.9852 -0.1620
vn 0.0854 -0.9910 -0.1034
vn -0.9815 0.0427 0.1868
vn -0.9895 0.0594 0.1320
vn -0.9897 0.0119 0.1424
vn -0.9853 0.0158 0.1702
vn -0.0919 0.2770 0.9565
vn -0.1077 0.2640 0.9585
vn -0.1219 0.2609 0.9576
vn -0.1050 0.2537 0.9616
vn -0.4941 -0.0146 0.8693
vn -0.5346 0.0455 0.8439
vn -0.5666 0.0070 0.8240
vn -0.1963 -0.0515 0.9792
vn -0.2327 0.0125 0.9725
vn -0.2498 -0.0289 0.9679
vn 0.8592 0.0526 -0.5089
vn 0.3095 -0.1494 0.9391
vn 0.1921 -0.2177 -0.9569
vn 0.9756 -0.1637 0.1461
vn -0.7241 -0.2635 -0.6374
vn -0.9071 -0.2393 0.3463
vn 0.8742 -0.1449 -0.4634
vn -0.9668 -0.2474 -0.0632
vn -0.8512 -0.2679 0.4513
vn -0.7269 -0.1144 -0.6771
vn 0.9845 0.0059 0.1752
vn 0.1362 -0.0028 -0.9907
vn -0.9639 -0.2467 -0.0998
vn 0.2570 -0.0604 0.9645
vn 0.3142 0.5041 0.8044
vn -0.7287 0.0118 -0.6847
vn 0.9920 0.1083 0.0652
vn -0.9872 0.0410 0.1541
vn -0.9975 -0.0200 -0.0673
vn 0.1803 0.0787 -0.9805
vn 0.8607 0.0970 -0.4997
vn 0.0013 -1.0000 -0.0030
vn -0.2420 0.9702 -0.0158
vn -0.3303 0.9112 -0.2462
vn -0.3039 0.9517 -0.0437
vn -0.0989 0.9903 -0.0979
vn -0.5722 0.8182 0.0553
vn -0.2689 0.9612 -0.0619
vn -0.0870 0.9957 0.0310
vn -0.8528 0.0516 -0.5198
vn -0.3198 -0.1491 0.9357
vn -0.1817 -0.2191 -0.9586
vn -0.9770 -0.1660 0.1339
vn 0.7322 -0.2620 -0.6287
vn 0.9035 -0.2367 0.3573
vn -0.8678 -0.1482 -0.4742
vn 0.9682 -0.2448 -0.0509
vn 0.8466 -0.2660 0.4610
vn 0.7352 -0.1099 -0.6689
vn -0.9866 0.0020 0.1630
vn -0.1241 -0.0000 -0.9923
vn 0.9659 -0.2432 -0.0883
vn -0.2682 -0.0658 0.9611
vn -0.3182 0.5064 0.8014
vn 0.7359 -0.0031 -0.6771
vn -0.9906 0.1241 0.0579
vn 0.9863 0.0308 0.1620
vn 0.9980 -0.0354 -0.0518
vn -0.1650 0.0794 -0.9831
vn -0.8521 0.1139 -0.5109
vn -0.0005 -1.0000 -0.0028
vn 0.2395 0.9708 -0.0136
vn 0.3335 0.9111 -0.2422
vn 0.3001 0.9530 -0.0415
vn 0.0979 0.9905 -0.0969
vn 0.5706 0.8191 0.0597
vn 0.2668 0.9621 -0.0573
vn 0.0825 0.9961 0.0314
usemtl Armor
s off
f 283/517/1 285/517/1 8/517/1
f 2/517/2 3/517/2 6/517/2 5/517/2
f 48/517/3 47/517/3 18/517/3
f 6/517/4 8/517/4 16/517/4 15/517/4
f 282/517/5 1/517/5 4/517/5 7/517/5
f 64/517/6 10/517/6 12/517/6 24/517/6
f 287/517/7 47/517/7 11/517/7 286/517/7
f 8/517/8 285/517/8 286/517/8 11/517/8
f 53/517/9 9/517/9 43/517/9 42/517/9
f 16/517/10 28/517/10 27/517/10 15/517/10
f 5/517/11 6/517/11 15/517/11 14/517/11
f 4/517/12 13/517/12 12/517/12
f 288/517/13 63/517/13 289/517/13
f 55/517/14 5/517/14 14/517/14
f 11/517/15 47/517/15 48/517/15
f 16/517/16 48/517/16 49/517/16 28/517/16
f 28/517/17 35/517/17 34/517/17 27/517/17
f 13/517/18 14/517/18 26/517/18 25/517/18
f 14/517/19 15/517/19 27/517/19 26/517/19
f 41/517/20 33/517/20 53/517/20 42/517/20
f 24/517/21 25/517/21 32/517/21 31/517/21
f 28/517/22 49/517/22 50/517/22 35/517/22
f 25/517/23 26/517/23 33/517/23 32/517/23
f 26/517/24 27/517/24 34/517/24 33/517/24
f 32/517/25 33/517/25 41/517/25 40/517/25
f 37/517/26 31/517/26 39/517/26 45/517/26
f 33/517/27 34/517/27 53/517/27
f 31/517/28 32/517/28 40/517/28 39/517/28
f 50/517/29 37/517/29 45/517/29 51/517/29
f 34/517/30 35/517/30 9/517/30 53/517/30
f 50/517/31 51/517/31 43/517/31 9/517/31
f 7/517/32 4/517/32 12/517/32
f 35/517/33 50/517/33 9/517/33
f 282/517/34 7/517/34 284/517/34
f 11/517/35 48/517/35 16/517/35
f 2/517/36 5/517/36 55/517/36
f 48/517/37 18/517/37 49/517/37
f 49/517/38 18/517/38 37/517/38 50/517/38
f 18/517/39 24/517/39 31/517/39 37/517/39
f 8/517/40 11/517/40 16/517/40
f 4/517/41 55/517/41 13/517/41
f 4/517/42 1/517/42 55/517/42
f 13/517/43 55/517/43 14/517/43
f 1/517/44 2/517/44 55/517/44
f 3/517/45 283/517/45 8/517/45 6/517/45
f 287/517/46 289/517/46 47/517/46
f 63/517/47 18/517/47 47/517/47 289/517/47
f 10/517/48 288/517/48 284/517/48 7/517/48
f 64/517/49 18/517/49 63/517/49
f 18/517/50 64/517/50 24/517/50
f 63/517/51 288/517/51 10/517/51 64/517/51
f 10/517/52 7/517/52 12/517/52
f 367/517/53 370/517/53 123/517/53 122/517/53
f 2/517/54 125/517/54 126/517/54 3/517/54
f 124/517/55 123/517/55 128/517/55 130/517/55
f 1/517/56 122/517/56 125/517/56 2/517/56
f 283/517/57 3/517/57 126/517/57 375/517/57
f 461/517/58 206/517/58 129/517/58 378/517/58
f 123/517/59 370/517/59 376/517/59 127/517/59
f 135/517/60 146/517/60 147/517/60 154/517/60
f 127/517/61 376/517/61 366/517/61 131/517/61
f 139/517/62 138/517/62 154/517/62 147/517/62
f 140/517/63 155/517/63 149/517/63 141/517/63
f 127/517/64 131/517/64 132/517/64
f 132/517/65 131/517/65 137/517/65
f 123/517/66 127/517/66 128/517/66
f 128/517/67 127/517/67 132/517/67
f 155/517/68 134/517/68 150/517/68 149/517/68
f 134/517/69 138/517/69 139/517/69 150/517/69
f 141/517/70 149/517/70 148/517/70 144/517/70
f 146/517/71 141/517/71 144/517/71 153/517/71
f 147/517/72 152/517/72 145/517/72
f 150/517/73 139/517/73 145/517/73 151/517/73
f 148/517/74 149/517/74 151/517/74
f 147/517/75 146/517/75 153/517/75 152/517/75
f 136/517/76 137/517/76 390/517/76 457/517/76
f 128/517/77 132/517/77 138/517/77 134/517/77
f 130/517/78 128/517/78 134/517/78
f 130/517/79 133/517/79 140/517/79
f 132/517/80 137/517/80 156/517/80
f 138/517/81 157/517/81 154/517/81
f 157/517/82 135/517/82 154/517/82
f 138/517/83 132/517/83 156/517/83 157/517/83
f 129/517/84 130/517/84 140/517/84
f 133/517/85 130/517/85 134/517/85
f 133/517/86 155/517/86 140/517/86
f 155/517/87 133/517/87 134/517/87
f 158/517/88 162/517/88 168/517/88 159/517/88
f 166/517/89 158/517/89 159/517/89 167/517/89
f 160/517/90 165/517/90 171/517/90 161/517/90
f 163/517/91 160/517/91 161/517/91 164/517/91
f 162/517/92 163/517/92 164/517/92 168/517/92
f 165/517/93 166/517/93 167/517/93 171/517/93
f 139/517/94 147/517/94 145/517/94
f 149/517/95 150/517/95 151/517/95
f 218/517/96 368/517/96 367/517/96 282/517/96
f 122/517/97 123/517/97 124/517/97 125/517/97
f 126/517/98 207/517/98 462/517/98 375/517/98
f 136/517/99 205/517/99 135/517/99
f 458/517/100 205/517/100 136/517/100 457/517/100
f 378/517/101 129/517/101 205/517/101 458/517/101
f 205/517/102 129/517/102 140/517/102 135/517/102
f 136/517/103 135/517/103 157/517/103 156/517/103
f 137/517/104 136/517/104 156/517/104
f 124/517/105 130/517/105 206/517/105 207/517/105
f 462/517/106 207/517/106 206/517/106 461/517/106
f 130/517/107 129/517/107 206/517/107
f 152/517/108 153/517/108 166/517/108 165/517/108
f 148/517/109 151/517/109 163/517/109 162/517/109
f 151/517/110 145/517/110 160/517/110 163/517/110
f 145/517/111 152/517/111 165/517/111 160/517/111
f 153/517/112 144/517/112 158/517/112 166/517/112
f 144/517/113 148/517/113 162/517/113 158/517/113
f 124/517/114 207/517/114 126/517/114 125/517/114
f 12/517/115 13/517/115 25/517/115 24/517/115
f 137/517/116 131/517/116 217/517/117 216/517/118
f 131/517/119 366/517/119 474/517/119 217/517/120
f 390/517/121 137/517/121 216/517/122 477/517/123
f 283/517/124 225/517/124 285/517/124
f 219/517/125 222/517/125 223/517/125 220/517/125
f 265/517/126 235/517/126 264/517/126
f 223/517/127 232/517/127 233/517/127 225/517/127
f 282/517/128 224/517/128 221/517/128 218/517/128
f 281/517/129 241/517/129 229/517/129 227/517/129
f 287/517/130 286/517/130 228/517/130 264/517/130
f 225/517/131 228/517/131 286/517/131 285/517/131
f 270/517/132 259/517/132 260/517/132 226/517/132
f 233/517/133 232/517/133 244/517/133 245/517/133
f 222/517/134 231/517/134 232/517/134 223/517/134
f 221/517/135 229/517/135 230/517/135
f 288/517/136 289/517/136 280/517/136
f 272/517/137 231/517/137 222/517/137
f 228/517/138 265/517/138 264/517/138
f 233/517/139 245/517/139 266/517/139 265/517/139
f 245/517/140 244/517/140 251/517/140 252/517/140
f 230/517/141 242/517/141 243/517/141 231/517/141
f 231/517/142 243/517/142 244/517/142 232/517/142
f 258/517/143 259/517/143 270/517/143 250/517/143
f 241/517/144 248/517/144 249/517/144 242/517/144
f 245/517/145 252/517/145 267/517/145 266/517/145
f 242/517/146 249/517/146 250/517/146 243/517/146
f 243/517/147 250/517/147 251/517/147 244/517/147
f 249/517/148 257/517/148 258/517/148 250/517/148
f 254/517/149 262/517/149 256/517/149 248/517/149
f 250/517/150 270/517/150 251/517/150
f 248/517/151 256/517/151 257/517/151 249/517/151
f 267/517/152 268/517/152 262/517/152 254/517/152
f 251/517/153 270/517/153 226/517/153 252/517/153
f 267/517/154 226/517/154 260/517/154 268/517/154
f 224/517/155 229/517/155 221/517/155
f 252/517/156 226/517/156 267/517/156
f 282/517/157 284/517/157 224/517/157
f 228/517/158 233/517/158 265/517/158
f 219/517/159 272/517/159 222/517/159
f 265/517/160 266/517/160 235/517/160
f 266/517/161 267/517/161 254/517/161 235/517/161
f 235/517/162 254/517/162 248/517/162 241/517/162
f 225/517/163 233/517/163 228/517/163
f 221/517/164 230/517/164 272/517/164
f 221/517/165 272/517/165 218/517/165
f 230/517/166 231/517/166 272/517/166
f 218/517/167 272/517/167 219/517/167
f 220/517/168 223/517/168 225/517/168 283/517/168
f 287/517/169 264/517/169 289/517/169
f 280/517/170 289/517/170 264/517/170 235/517/170
f 227/517/171 224/517/171 284/517/171 288/517/171
f 281/517/172 280/517/172 235/517/172
f 235/517/173 241/517/173 281/517/173
f 280/517/174 281/517/174 227/517/174 288/517/174
f 227/517/175 229/517/175 224/517/175
f 367/517/176 368/517/176 369/517/176 370/517/176
f 219/517/177 220/517/177 373/517/177 372/517/177
f 371/517/178 380/517/178 377/517/178 369/517/178
f 219/517/179 372/517/179 368/517/179 218/517/179
f 283/517/180 375/517/180 373/517/180 220/517/180
f 461/517/181 378/517/181 379/517/181 459/517/181
f 369/517/182 374/517/182 376/517/182 370/517/182
f 385/517/183 405/517/183 478/517/183 398/517/183 397/517/183
f 374/517/184 381/517/184 366/517/184 376/517/184
f 389/517/185 398/517/185 478/517/185 480/517/185
f 391/517/186 392/517/186 400/517/186 406/517/186
f 374/517/187 382/517/187 381/517/187
f 382/517/188 387/517/188 381/517/188
f 369/517/189 377/517/189 374/517/189
f 377/517/190 382/517/190 374/517/190
f 406/517/191 400/517/191 401/517/191 479/517/191
f 384/517/192 479/517/192 480/517/192 388/517/192
f 392/517/193 395/517/193 399/517/193 400/517/193
f 397/517/194 404/517/194 395/517/194 392/517/194
f 398/517/195 396/517/195 403/517/195
f 401/517/196 402/517/196 396/517/196 389/517/196
f 399/517/197 402/517/197 400/517/197
f 398/517/198 403/517/198 404/517/198 397/517/198
f 386/517/199 457/517/199 390/517/199 387/517/199
f 377/517/200 384/517/200 388/517/200 382/517/200
f 380/517/201 384/517/201 377/517/201
f 380/517/202 391/517/202 383/517/202
f 382/517/203 407/517/203 387/517/203
f 388/517/204 405/517/204 408/517/204
f 408/517/205 405/517/205 385/517/205
f 388/517/206 408/517/206 407/517/206 382/517/206
f 379/517/207 391/517/207 380/517/207
f 383/517/208 384/517/208 380/517/208
f 383/517/209 391/517/209 406/517/209
f 406/517/210 384/517/210 383/517/210
f 409/517/211 410/517/211 419/517/211 413/517/211
f 417/517/212 418/517/212 410/517/212 409/517/212
f 411/517/213 412/517/213 422/517/213 416/517/213
f 414/517/214 415/517/214 412/517/214 411/517/214
f 413/517/215 419/517/215 415/517/215 414/517/215
f 416/517/216 422/517/216 418/517/216 417/517/216
f 389/517/217 396/517/217 398/517/217
f 400/517/218 402/517/218 401/517/218
f 368/517/219 372/517/219 371/517/219 369/517/219
f 373/517/220 375/517/220 462/517/220 460/517/220
f 386/517/221 385/517/221 456/517/221
f 458/517/222 457/517/222 386/517/222 456/517/222
f 378/517/223 458/517/223 456/517/223 379/517/223
f 456/517/224 385/517/224 391/517/224 379/517/224
f 386/517/225 407/517/225 408/517/225 385/517/225
f 387/517/226 407/517/226 386/517/226
f 371/517/227 460/517/227 459/517/227 380/517/227
f 462/517/228 461/517/228 459/517/228 460/517/228
f 380/517/229 459/517/229 379/517/229
f 403/517/230 416/517/230 417/517/230 404/517/230
f 399/517/231 413/517/231 414/517/231 402/517/231
f 402/517/232 414/517/232 411/517/232 396/517/232
f 396/517/233 411/517/233 416/517/233 403/517/233
f 404/517/234 417/517/234 409/517/234 395/517/234
f 395/517/235 409/517/235 413/517/235 399/517/235
f 371/517/236 372/517/236 373/517/236 460/517/236
f 1/517/237 282/517/237 367/517/237 122/517/237
f 229/517/238 241/517/238 242/517/238 230/517/238
f 387/517/239 475/517/240 476/517/241 381/517/239
f 381/517/242 476/517/243 474/517/242 366/517/242
f 390/517/244 477/517/245 475/517/246 387/517/244
f 385/517/247 397/517/247 392/517/247 391/517/247
f 135/517/248 140/517/248 141/517/248 146/517/248
f 479/517/249 384/517/249 406/517/249
f 480/517/250 479/517/250 401/517/250 389/517/250
f 480/517/251 478/517/251 405/517/251 388/517/251
usemtl Skin
f 76/518/252 77/518/253 78/518/254
f 74/518/255 76/518/256 78/518/257
f 74/518/258 82/518/259 76/518/260
f 96/518/261 80/518/262 108/518/263 102/518/264
f 84/518/265 85/518/266 83/518/267
f 89/518/268 88/518/269 299/518/270 298/518/271
f 321/518/272 87/518/273 98/518/274 331/518/272
f 89/518/275 75/518/276 74/518/277 78/518/278
f 94/518/279 91/518/280 86/518/281 87/518/282
f 304/518/283 94/518/284 87/518/285 321/518/283
f 78/518/286 88/518/287 89/518/288
f 88/518/289 90/518/290 299/518/291
f 85/518/292 213/518/293 90/518/294
f 84/518/295 92/518/296 93/518/297 73/518/298
f 83/518/299 95/518/300 92/518/301 84/518/302
f 88/518/303 78/518/304 77/518/305 85/518/306
f 99/518/307 81/518/308 96/518/309 97/518/310
f 304/518/311 303/518/312 93/518/313 92/518/314 94/518/315
f 91/518/316 94/518/317 92/518/318 95/518/319
f 84/518/320 73/518/321 213/518/322 85/518/323
f 87/518/324 86/518/325 98/518/326
f 86/518/327 91/518/328 99/518/329 100/518/330
f 100/518/331 99/518/332 97/518/333 101/518/334
f 101/518/335 97/518/336 103/518/337 104/518/338
f 97/518/339 96/518/340 102/518/341 103/518/342
f 104/518/343 103/518/344 106/518/345 107/518/346
f 103/518/347 102/518/348 105/518/349 106/518/350
f 77/518/351 76/518/352 79/518/353 83/518/354
f 95/518/355 83/518/356 79/518/357 81/518/358
f 85/518/359 77/518/360 83/518/361
f 79/518/362 76/518/363 80/518/364
f 346/518/365 111/518/366 110/518/367 347/518/365
f 331/518/368 98/518/369 109/518/370 343/518/368
f 109/518/371 100/518/372 101/518/373 111/518/374
f 343/518/375 109/518/376 111/518/377 346/518/375
f 98/518/378 86/518/379 100/518/380 109/518/381
f 347/518/382 110/518/383 112/518/384 349/518/382
f 110/518/385 104/518/386 107/518/387 112/518/388
f 111/518/389 101/518/390 104/518/391 110/518/392
f 353/518/393 114/518/394 117/518/395 360/518/393
f 349/518/396 112/518/397 113/518/398 351/518/396
f 112/518/399 107/518/400 113/518/401
f 351/518/402 113/518/403 115/518/404 355/518/402
f 113/518/405 107/518/406 106/518/407 115/518/408
f 355/518/409 115/518/410 116/518/411 357/518/409
f 360/518/412 117/518/413 120/518/414 359/518/412
f 115/518/415 106/518/416 105/518/417 116/518/418
f 116/518/419 105/518/420 119/518/421 114/518/422
f 357/518/423 116/518/424 114/518/425 353/518/423
f 102/518/426 108/518/427 119/518/428 105/518/429
f 108/518/430 82/518/431 118/518/432 119/518/433
f 117/518/434 114/518/435 118/518/436
f 117/518/437 118/518/438 120/518/439
f 74/518/440 120/518/441 118/518/442 82/518/443
f 120/518/444 74/518/445 121/518/446
f 75/518/447 89/518/448 297/518/449
f 89/518/450 298/518/451 297/518/452
f 359/518/453 120/518/454 121/518/455 364/518/453
f 74/518/456 75/518/457 121/518/458
f 477/518/459 216/518/460 75/518/461 297/518/462
f 217/518/463 474/518/464 364/518/464 121/518/465
f 168/518/466 164/518/466 174/518/466 169/518/466
f 171/518/467 167/518/467 170/518/467 173/518/467
f 159/518/468 168/518/468 169/518/468 180/518/468
f 167/518/469 159/518/469 172/518/469
f 161/518/470 171/518/470 173/518/470 175/518/470
f 164/518/471 161/518/471 175/518/471 174/518/471
f 170/518/472 172/518/472 142/518/472 179/518/472
f 175/518/473 173/518/473 178/518/473 176/518/473
f 174/518/474 175/518/474 176/518/474 177/518/474
f 173/518/475 170/518/475 179/518/475 178/518/475
f 142/518/476 143/518/476 188/518/476 187/518/476
f 176/518/477 178/518/477 183/518/477 182/518/477
f 177/518/478 176/518/478 182/518/478 181/518/478
f 178/518/479 179/518/479 184/518/479 183/518/479
f 185/518/480 143/518/480 142/518/480
f 169/518/481 143/518/481 185/518/481
f 183/518/482 184/518/482 191/518/482 190/518/482
f 208/518/483 211/518/483 189/518/483 192/518/483
f 179/518/484 142/518/484 187/518/484 184/518/484
f 143/518/485 177/518/485 181/518/485 188/518/485
f 172/518/486 180/518/486 186/518/486 142/518/486
f 172/518/487 159/518/487 180/518/487
f 195/518/488 194/518/488 193/518/488 196/518/488
f 198/518/489 204/518/489 194/518/489 195/518/489
f 199/518/490 198/518/490 195/518/490 196/518/490
f 170/518/491 167/518/491 172/518/491
f 197/518/492 169/518/492 185/518/492
f 169/518/493 174/518/493 177/518/493 143/518/493
f 199/518/494 196/518/494 193/518/494 200/518/494
f 181/518/495 182/518/495 201/518/495 203/518/495
f 188/518/496 181/518/496 203/518/496 210/518/496
f 187/518/497 188/518/497 210/518/497 209/518/497
f 211/518/498 212/518/498 202/518/498 189/518/498
f 186/518/499 199/518/499 200/518/499 185/518/499
f 194/518/500 204/518/500 200/518/500 193/518/500
f 186/518/501 180/518/501 198/518/501
f 180/518/502 169/518/502 197/518/502
f 216/518/503 217/518/504 121/518/505 75/518/506
f 81/518/507 99/518/508 91/518/509 95/518/510
f 201/518/511 190/518/511 189/518/511 202/518/511
f 81/518/512 79/518/513 80/518/514 96/518/515
f 114/518/516 119/518/517 118/518/518
f 76/518/519 82/518/520 108/518/521 80/518/522
f 190/518/523 191/518/523 192/518/523 189/518/523
f 198/518/524 180/518/524 197/518/524 204/518/524
f 204/518/525 197/518/525 185/518/525 200/518/525
f 186/518/526 185/518/526 142/518/526
f 199/518/527 186/518/527 198/518/527
f 209/518/528 210/518/528 211/518/528 208/518/528
f 210/518/529 203/518/529 212/518/529 211/518/529
f 209/518/530 191/518/530 184/518/530 187/518/530
f 208/518/531 191/518/531 209/518/531
f 182/518/532 183/518/532 190/518/532 201/518/532
f 212/518/533 201/518/533 202/518/533
f 191/518/534 208/518/534 192/518/534
f 203/518/535 201/518/535 212/518/535
f 214/518/536 215/518/537 470/518/538 469/518/539
f 90/518/540 213/518/541 215/518/542 214/518/543
f 73/518/544 93/518/545 72/518/546
f 215/518/547 72/518/548 471/518/549 470/518/550
f 300/518/551 90/518/552 214/518/553 469/518/554
f 213/518/555 73/518/556 72/518/557 215/518/558
f 72/518/559 93/518/560 303/518/561 471/518/562
f 85/518/563 90/518/564 88/518/565
f 90/518/566 300/518/567 299/518/568
f 307/518/569 309/518/570 308/518/571
f 305/518/572 309/518/573 307/518/574
f 305/518/575 307/518/576 313/518/577
f 328/518/578 335/518/579 341/518/580 311/518/581
f 315/518/582 314/518/583 316/518/584
f 320/518/585 298/518/586 299/518/587 319/518/588
f 321/518/589 331/518/589 330/518/590 318/518/591
f 320/518/592 309/518/593 305/518/594 306/518/595
f 326/518/596 318/518/597 317/518/598 323/518/599
f 304/518/600 321/518/600 318/518/601 326/518/602
f 309/518/603 320/518/604 319/518/605
f 319/518/606 299/518/607 322/518/608
f 316/518/609 322/518/610 468/518/611
f 315/518/612 302/518/613 325/518/614 324/518/615
f 314/518/616 315/518/617 324/518/618 327/518/619
f 319/518/620 316/518/621 308/518/622 309/518/623
f 332/518/624 329/518/625 328/518/626 312/518/627
f 304/518/628 326/518/629 324/518/630 325/518/631 303/518/632
f 323/518/633 327/518/634 324/518/635 326/518/636
f 315/518/637 316/518/638 468/518/639 302/518/640
f 318/518/641 330/518/642 317/518/643
f 317/518/644 333/518/645 332/518/646 323/518/647
f 333/518/648 334/518/649 329/518/650 332/518/651
f 334/518/652 337/518/653 336/518/654 329/518/655
f 329/518/656 336/518/657 335/518/658 328/518/659
f 337/518/660 340/518/661 339/518/662 336/518/663
f 336/518/664 339/518/665 338/518/666 335/518/667
f 308/518/668 314/518/669 310/518/670 307/518/671
f 327/518/672 312/518/673 310/518/674 314/518/675
f 316/518/676 314/518/677 308/518/678
f 310/518/679 311/518/680 307/518/681
f 346/518/682 347/518/682 344/518/683 345/518/684
f 331/518/685 343/518/685 342/518/686 330/518/687
f 342/518/688 345/518/689 334/518/690 333/518/691
f 343/518/692 346/518/692 345/518/693 342/518/694
f 330/518/695 342/518/696 333/518/697 317/518/698
f 347/518/699 349/518/699 348/518/700 344/518/701
f 344/518/702 348/518/703 340/518/704 337/518/705
f 345/518/706 344/518/707 337/518/708 334/518/709
f 353/518/710 360/518/710 358/518/711 352/518/712
f 349/518/713 351/518/713 350/518/714 348/518/715
f 348/518/716 350/518/717 340/518/718
f 351/518/719 355/518/719 354/518/720 350/518/721
f 350/518/722 354/518/723 339/518/724 340/518/725
f 355/518/726 357/518/726 356/518/727 354/518/728
f 360/518/729 359/518/729 363/518/730 358/518/731
f 354/518/732 356/518/733 338/518/734 339/518/735
f 356/518/736 352/518/737 362/518/738 338/518/739
f 357/518/740 353/518/740 352/518/741 356/518/742
f 335/518/743 338/518/744 362/518/745 341/518/746
f 341/518/747 362/518/748 361/518/749 313/518/750
f 358/518/751 361/518/752 352/518/753
f 358/518/754 363/518/755 361/518/756
f 305/518/757 313/518/758 361/518/759 363/518/760
f 363/518/761 365/518/762 305/518/763
f 306/518/764 297/518/765 320/518/766
f 320/518/767 297/518/768 298/518/769
f 359/518/770 364/518/770 365/518/771 363/518/772
f 305/518/773 365/518/774 306/518/775
f 477/518/776 297/518/777 306/518/778 475/518/779
f 476/518/780 365/518/781 364/518/782 474/518/782
f 419/518/783 420/518/783 425/518/783 415/518/783
f 422/518/784 424/518/784 421/518/784 418/518/784
f 410/518/785 431/518/785 420/518/785 419/518/785
f 418/518/786 423/518/786 410/518/786
f 412/518/787 426/518/787 424/518/787 422/518/787
f 415/518/788 425/518/788 426/518/788 412/518/788
f 421/518/789 430/518/789 393/518/789 423/518/789
f 426/518/790 427/518/790 429/518/790 424/518/790
f 425/518/791 428/518/791 427/518/791 426/518/791
f 424/518/792 429/518/792 430/518/792 421/518/792
f 393/518/793 438/518/793 439/518/793 394/518/793
f 427/518/794 433/518/794 434/518/794 429/518/794
f 428/518/795 432/518/795 433/518/795 427/518/795
f 429/518/796 434/518/796 435/518/796 430/518/796
f 436/518/797 393/518/797 394/518/797
f 420/518/798 436/518/798 394/518/798
f 434/518/799 441/518/799 442/518/799 435/518/799
f 463/518/800 443/518/800 440/518/800 466/518/800
f 430/518/801 435/518/801 438/518/801 393/518/801
f 394/518/802 439/518/802 432/518/802 428/518/802
f 423/518/803 393/518/803 437/518/803 431/518/803
f 423/518/804 431/518/804 410/518/804
f 446/518/805 447/518/805 444/518/805 445/518/805
f 449/518/806 446/518/806 445/518/806 455/518/806
f 450/518/807 447/518/807 446/518/807 449/518/807
f 421/518/808 423/518/808 418/518/808
f 448/518/809 436/518/809 420/518/809
f 420/518/810 394/518/810 428/518/810 425/518/810
f 450/518/811 451/518/811 444/518/811 447/518/811
f 432/518/812 454/518/812 452/518/812 433/518/812
f 439/518/813 465/518/813 454/518/813 432/518/813
f 438/518/814 464/518/814 465/518/814 439/518/814
f 466/518/815 440/518/815 453/518/815 467/518/815
f 437/518/816 436/518/816 451/518/816 450/518/816
f 445/518/817 444/518/817 451/518/817 455/518/817
f 437/518/818 449/518/818 431/518/818
f 431/518/819 448/518/819 420/518/819
f 475/518/820 306/518/821 365/518/822 476/518/823
f 312/518/824 327/518/825 323/518/826 332/518/827
f 452/518/828 453/518/828 440/518/828 441/518/828
f 312/518/829 328/518/830 311/518/831 310/518/832
f 352/518/833 361/518/834 362/518/835
f 307/518/836 311/518/837 341/518/838 313/518/839
f 441/518/840 440/518/840 443/518/840 442/518/840
f 449/518/841 455/518/841 448/518/841 431/518/841
f 455/518/842 451/518/842 436/518/842 448/518/842
f 437/518/843 393/518/843 436/518/843
f 450/518/844 449/518/844 437/518/844
f 464/518/845 463/518/845 466/518/845 465/518/845
f 465/518/846 466/518/846 467/518/846 454/518/846
f 464/518/847 438/518/847 435/518/847 442/518/847
f 463/518/848 464/518/848 442/518/848
f 433/518/849 452/518/849 441/518/849 434/518/849
f 467/518/850 453/518/850 452/518/850
f 442/518/851 443/518/851 463/518/851
f 454/518/852 467/518/852 452/518/852
f 472/518/853 469/518/854 470/518/855 473/518/856
f 322/518/857 472/518/858 473/518/859 468/518/860
f 302/518/861 301/518/862 325/518/863
f 473/518/864 470/518/865 471/518/866 301/518/867
f 300/518/868 469/518/869 472/518/870 322/518/871
f 468/518/872 473/518/873 301/518/874 302/518/875
f 301/518/876 471/518/877 303/518/878 325/518/879
f 316/518/880 319/518/881 322/518/882
f 322/518/883 299/518/884 300/518/885
usemtl Boots
f 70/519/886 65/519/886 17/519/886 54/519/886
f 36/519/887 52/519/887 22/519/887 23/519/887
f 44/519/888 54/519/888 38/519/888 46/519/888
f 17/519/889 36/519/889 23/519/889 30/519/889
f 29/519/890 44/519/890 46/519/890 20/519/890
f 52/519/891 21/519/891 19/519/891 22/519/891
f 54/519/892 17/519/892 30/519/892 38/519/892
f 21/519/893 29/519/893 20/519/893 19/519/893
f 71/519/894 67/519/894 21/519/894 52/519/894
f 66/519/895 69/519/895 44/519/895 29/519/895
f 65/519/896 68/519/896 36/519/896 17/519/896
f 69/519/897 70/519/897 54/519/897 44/519/897
f 67/519/898 66/519/898 29/519/898 21/519/898
f 68/519/899 71/519/899 52/519/899 36/519/899
f 23/519/900 22/519/900 58/519/900 59/519/900
f 20/519/901 46/519/901 62/519/901 57/519/901
f 30/519/902 23/519/902 59/519/902 60/519/902
f 22/519/903 19/519/903 56/519/903 58/519/903
f 19/519/904 20/519/904 57/519/904 56/519/904
f 46/519/905 38/519/905 61/519/905 62/519/905
f 38/519/906 30/519/906 60/519/906 61/519/906
f 56/519/907 57/519/907 62/519/907 61/519/907 60/519/907 59/519/907 58/519/907
f 42/519/908 43/519/908 71/519/908 68/519/908
f 51/519/909 45/519/909 66/519/909 67/519/909
f 39/519/910 40/519/910 70/519/910 69/519/910
f 41/519/911 42/519/911 68/519/911 65/519/911
f 45/519/912 39/519/912 69/519/912 66/519/912
f 43/519/913 51/519/913 67/519/913 71/519/913
f 40/519/914 41/519/914 65/519/914 70/519/914
f 295/519/915 271/519/915 234/519/915 290/519/915
f 253/519/916 240/519/916 239/519/916 269/519/916
f 261/519/917 263/519/917 255/519/917 271/519/917
f 234/519/918 247/519/918 240/519/918 253/519/918
f 246/519/919 237/519/919 263/519/919 261/519/919
f 269/519/920 239/519/920 236/519/920 238/519/920
f 271/519/921 255/519/921 247/519/921 234/519/921
f 238/519/922 236/519/922 237/519/922 246/519/922
f 296/519/923 269/519/923 238/519/923 292/519/923
f 291/519/924 246/519/924 261/519/924 294/519/924
f 290/519/925 234/519/925 253/519/925 293/519/925
f 294/519/926 261/519/926 271/519/926 295/519/926
f 292/519/927 238/519/927 246/519/927 291/519/927
f 293/519/928 253/519/928 269/519/928 296/519/928
f 240/519/929 276/519/929 275/519/929 239/519/929
f 237/519/930 274/519/930 279/519/930 263/519/930
f 247/519/931 277/519/931 276/519/931 240/519/931
f 239/519/932 275/519/932 273/519/932 236/519/932
f 236/519/933 273/519/933 274/519/933 237/519/933
f 263/519/934 279/519/934 278/519/934 255/519/934
f 255/519/935 278/519/935 277/519/935 247/519/935
f 273/519/936 275/519/936 276/519/936 277/519/936 278/519/936 279/519/936 274/519/936
f 259/519/937 293/519/937 296/519/937 260/519/937
f 268/519/938 292/519/938 291/519/938 262/519/938
f 256/519/939 294/519/939 295/519/939 257/519/939
f 258/519/940 290/519/940 293/519/940 259/519/940
f 262/519/941 291/519/941 294/519/941 256/519/941
f 260/519/942 296/519/942 292/519/942 268/519/942
f 257/519/943 295/519/943 290/519/943 258/519/943
