# Blender v2.79 (sub 0) OBJ File: 'Sword.blend'
# www.blender.org
mtllib Sword.mtl
o Sword_Cylinder
v -0.073154 0.116198 -0.071765
v -0.069620 -0.157959 -0.057979
v -0.103298 0.116198 0.001010
v -0.069620 -0.157959 -0.001520
v -0.073154 0.116198 0.073786
v -0.069620 -0.157959 0.054939
v -0.153716 -0.320350 -0.042713
v -0.100465 -0.228117 -0.042713
v -0.000000 -0.354633 -0.079920
v -0.053636 -0.493692 -0.042713
v -0.135222 -0.425234 -0.042713
v -0.100465 -0.228117 0.039330
v -0.000000 -0.355286 0.073878
v -0.153716 -0.320350 0.039330
v -0.135222 -0.425234 0.039330
v -0.053636 -0.493692 0.039330
v -0.100465 -0.228117 -0.001691
v -0.053636 -0.493692 -0.001691
v -0.135222 -0.425234 -0.001691
v -0.153716 -0.320350 -0.001691
v -0.077341 0.137247 -0.075989
v -0.109220 0.137247 0.000974
v -0.077341 0.137247 0.077938
v -0.068828 0.162513 -0.067402
v -0.097181 0.162513 0.001048
v -0.068828 0.162513 0.069498
v -0.068828 0.415825 -0.067402
v -0.097181 0.415825 0.001048
v -0.068828 0.415825 0.069498
v -0.081706 0.437183 -0.080391
v -0.115393 0.437183 0.000937
v -0.081706 0.437183 0.082265
v -0.077261 0.454715 -0.075908
v -0.109107 0.454715 0.000975
v -0.077261 0.454715 0.077858
v -0.065995 0.465781 -0.064545
v -0.093175 0.465781 0.001072
v -0.065995 0.465781 0.066690
v -0.100204 0.582536 -0.097224
v -0.141557 0.582536 0.002611
v -0.100204 0.582536 0.102446
v -0.044324 -0.226600 0.057349
v -0.134305 -0.322979 0.057349
v -0.046896 -0.474375 0.057349
v -0.118153 -0.414584 0.057349
v -0.087796 -0.242423 0.057349
v -0.044147 -0.226087 -0.059626
v -0.133768 -0.322080 -0.059626
v -0.046710 -0.472869 -0.059626
v -0.117680 -0.413317 -0.059626
v -0.087445 -0.241847 -0.059626
v -0.100204 0.687017 -0.097224
v -0.200436 0.689444 0.002611
v -0.100204 0.687017 0.102446
v -0.344221 0.582536 -0.097224
v -0.385574 0.582536 0.002611
v -0.344221 0.582536 0.102446
v -0.344221 0.687017 -0.097224
v -0.385574 0.687017 0.002611
v -0.344221 0.687017 0.102446
v -0.159083 0.689444 -0.028269
v -0.159083 0.689444 0.027401
v -0.140204 3.521534 -0.014562
v -0.165153 3.521534 0.004069
v -0.140204 3.521534 0.028016
v -0.014304 3.826337 -0.014558
v -0.039254 3.826337 0.004072
v -0.014304 3.826337 0.028020
v -0.091314 3.673936 0.031993
v -0.120860 3.673936 0.003632
v -0.091314 3.673936 -0.018431
v -0.017089 -0.292561 0.073878
v -0.018284 -0.335252 0.073878
v -0.053345 -0.333944 0.073878
v -0.018784 -0.393805 0.073878
v -0.046958 -0.370164 0.073878
v -0.034020 -0.298349 0.073878
v -0.012071 -0.324491 0.073878
v -0.016126 -0.347489 0.073878
v -0.017238 -0.292243 -0.079920
v -0.017740 -0.335186 -0.079920
v -0.052858 -0.333684 -0.079920
v -0.018786 -0.393690 -0.079920
v -0.046946 -0.369645 -0.079920
v -0.033905 -0.298309 -0.079920
v -0.011716 -0.324752 -0.079920
v -0.015648 -0.347051 -0.079920
v -0.068828 0.278143 0.069498
v -0.097181 0.278143 0.001048
v -0.068828 0.278143 -0.067402
v -0.068828 0.318446 0.069498
v -0.068828 0.318446 -0.067402
v -0.097181 0.318446 0.001048
v -0.105651 0.298294 0.000996
v -0.074817 0.298294 0.075436
v -0.074817 0.298294 -0.073443
v -0.087737 -0.070908 -0.078137
v -0.103956 -0.070908 -0.000010
v -0.087737 -0.070908 0.078116
v -0.079934 -0.041252 -0.072462
v -0.097342 -0.041252 0.000168
v -0.079934 -0.041252 0.072798
v -0.082112 -0.094004 -0.072686
v -0.095429 -0.094004 -0.000103
v -0.082112 -0.094004 0.072481
v 0.000000 0.116198 0.086820
v 0.000000 0.116198 -0.079788
v -0.000000 -0.162493 -0.057979
v 0.073154 0.116198 -0.071765
v 0.069620 -0.157959 -0.057979
v 0.103298 0.116198 0.001010
v 0.069620 -0.157959 -0.001520
v 0.073154 0.116198 0.073786
v 0.069620 -0.157959 0.054939
v 0.153716 -0.320350 -0.042713
v 0.100465 -0.228117 -0.042713
v 0.053636 -0.493692 -0.042713
v 0.135222 -0.425234 -0.042713
v 0.100465 -0.228117 0.039330
v 0.153716 -0.320350 0.039330
v 0.135222 -0.425234 0.039330
v 0.053636 -0.493692 0.039330
v 0.100465 -0.228117 -0.001691
v 0.053636 -0.493692 -0.001691
v 0.135222 -0.425234 -0.001691
v 0.153716 -0.320350 -0.001691
v 0.000000 0.137247 0.091721
v 0.000000 0.137247 -0.084473
v 0.077341 0.137247 -0.075989
v 0.109220 0.137247 0.000974
v 0.077341 0.137247 0.077938
v 0.000000 0.162513 0.081756
v 0.000000 0.162513 -0.074948
v 0.068828 0.162513 -0.067402
v 0.097181 0.162513 0.001048
v 0.068828 0.162513 0.069498
v 0.000000 0.415825 0.081756
v 0.000000 0.415825 -0.074948
v 0.068828 0.415825 -0.067402
v 0.097181 0.415825 0.001048
v 0.068828 0.415825 0.069498
v 0.000000 0.437183 0.096830
v 0.000000 0.437183 -0.089357
v 0.081706 0.437183 -0.080391
v 0.115393 0.437183 0.000937
v 0.081706 0.437183 0.082265
v 0.000000 0.454715 0.091627
v 0.000000 0.454715 -0.084383
v 0.077261 0.454715 -0.075908
v 0.109107 0.454715 0.000975
v 0.077261 0.454715 0.077858
v 0.000000 0.465781 0.078441
v 0.000000 0.465781 -0.071779
v 0.065995 0.465781 -0.064545
v 0.093175 0.465781 0.001072
v 0.065995 0.465781 0.066690
v 0.000000 0.582536 0.120325
v 0.000000 0.582536 -0.108230
v 0.100204 0.582536 -0.097224
v 0.141557 0.582536 0.002611
v 0.100204 0.582536 0.102446
v 0.044324 -0.226600 0.057349
v 0.134305 -0.322979 0.057349
v 0.046896 -0.474375 0.057349
v 0.118153 -0.414584 0.057349
v 0.087796 -0.242423 0.057349
v -0.000000 -0.210160 -0.059626
v 0.044147 -0.226087 -0.059626
v 0.133768 -0.322080 -0.059626
v 0.046710 -0.472869 -0.059626
v 0.117680 -0.413317 -0.059626
v 0.087445 -0.241847 -0.059626
v 0.000000 0.687017 0.120325
v 0.000000 0.687017 -0.108230
v 0.100204 0.687017 -0.097224
v 0.200436 0.689444 0.002611
v 0.100204 0.687017 0.102446
v 0.344221 0.582536 -0.097224
v 0.385574 0.582536 0.002611
v 0.344221 0.582536 0.102446
v 0.344221 0.687017 -0.097224
v 0.385574 0.687017 0.002611
v 0.344221 0.687017 0.102446
v 0.000000 0.689444 0.032391
v 0.000000 0.689444 -0.028178
v 0.159083 0.689444 -0.028269
v 0.159083 0.689444 0.027401
v 0.000000 3.521534 0.031027
v 0.000000 3.521534 -0.014507
v 0.140204 3.521534 -0.014562
v 0.165153 3.521534 0.004069
v 0.140204 3.521534 0.028016
v 0.000000 3.826337 0.031030
v 0.000000 3.826337 -0.014503
v 0.014305 3.826337 -0.014558
v 0.039254 3.826337 0.004072
v 0.014305 3.826337 0.028020
v 0.000000 3.673936 0.035558
v 0.091314 3.673936 0.031993
v 0.120860 3.673936 0.003632
v 0.091314 3.673936 -0.018431
v 0.000000 3.673936 -0.018366
v 0.000000 3.858828 0.005796
v 0.017767 -0.292424 0.073878
v 0.018284 -0.335252 0.073878
v 0.053345 -0.333944 0.073878
v 0.018784 -0.393805 0.073878
v 0.046958 -0.370164 0.073878
v 0.034055 -0.298397 0.073878
v -0.000000 -0.320241 0.073878
v 0.012071 -0.324491 0.073878
v 0.016126 -0.347489 0.073878
v -0.000000 -0.286112 -0.079920
v 0.017238 -0.292243 -0.079920
v -0.000000 -0.320632 -0.079920
v 0.017740 -0.335186 -0.079920
v 0.053360 -0.334066 -0.079920
v 0.018505 -0.393971 -0.079920
v 0.046946 -0.370206 -0.079920
v 0.033905 -0.298309 -0.079920
v 0.011716 -0.324752 -0.079920
v 0.015648 -0.347051 -0.079920
v 0.068828 0.278143 0.069498
v 0.097181 0.278143 0.001048
v 0.068828 0.278143 -0.067402
v 0.000000 0.278143 -0.074948
v 0.000000 0.278143 0.081756
v 0.068828 0.318446 0.069498
v 0.068828 0.318446 -0.067402
v 0.097181 0.318446 0.001048
v 0.000000 0.318446 -0.074948
v 0.000000 0.318446 0.081756
v 0.105651 0.298294 0.000996
v 0.000000 0.298294 -0.081649
v 0.000000 0.298294 0.088767
v 0.074817 0.298294 0.075436
v 0.074817 0.298294 -0.073443
v -0.000000 -0.070908 -0.082453
v 0.087737 -0.070908 -0.078137
v 0.103956 -0.070908 -0.000010
v 0.087737 -0.070908 0.078116
v -0.000000 -0.041252 -0.077095
v 0.079934 -0.041252 -0.072462
v 0.097342 -0.041252 0.000168
v 0.079934 -0.041252 0.072798
v -0.000000 -0.094004 -0.076230
v 0.082112 -0.094004 -0.072686
v 0.095429 -0.094004 -0.000103
v 0.082112 -0.094004 0.072481
v -0.000000 -0.493692 0.039330
v -0.000000 -0.493692 -0.042713
v -0.000000 -0.493692 -0.001691
v -0.000000 -0.474375 0.057349
v -0.000000 -0.472869 -0.059626
v -0.000000 -0.393805 0.073878
v 0.000281 -0.393690 -0.079920
v -0.000000 -0.094004 0.076073
v -0.000000 -0.157892 0.054939
v -0.000000 -0.041252 0.077923
v -0.000000 -0.286207 0.073878
v -0.000000 -0.226557 0.057349
v -0.000000 -0.070908 0.082671
v -0.000000 -0.354633 -0.079920
v -0.000000 -0.355286 0.073878
v -0.018284 -0.335252 0.073878
v -0.012071 -0.324491 0.073878
v -0.016126 -0.347489 0.073878
v -0.017740 -0.335186 -0.079920
v -0.011716 -0.324752 -0.079920
v -0.015648 -0.347051 -0.079920
v 0.018284 -0.335252 0.073878
v -0.000000 -0.320241 0.073878
v 0.012071 -0.324491 0.073878
v 0.016126 -0.347489 0.073878
v -0.000000 -0.320632 -0.079920
v 0.017740 -0.335186 -0.079920
v 0.011716 -0.324752 -0.079920
v 0.015648 -0.347051 -0.079920
vt 0.039265 0.065772
vt 0.060241 0.065772
vt 0.069818 0.801168
vt 0.057162 0.801168
vt 0.060241 0.065772
vt 0.069818 0.801168
vt 0.140938 0.065772
vt 0.140938 0.801168
vt 0.140938 0.065772
vt 0.140938 0.801168
vt 0.094618 0.878475
vt 0.140938 0.878475
vt 0.140938 0.955782
vt 0.133682 0.955782
vt 0.094618 0.878475
vt 0.079630 0.878475
vt 0.121026 0.955782
vt 0.133682 0.955782
vt 0.140938 0.878475
vt 0.140938 0.955782
vt 0.140938 0.972264
vt 0.242611 0.065772
vt 0.224713 0.801168
vt 0.212058 0.801168
vt 0.221634 0.065772
vt 0.221634 0.065772
vt 0.212058 0.801168
vt 0.187258 0.878475
vt 0.148194 0.955782
vt 0.187258 0.878475
vt 0.148194 0.955782
vt 0.160850 0.955782
vt 0.202246 0.878475
vt 0.541860 0.463699
vt 0.505761 0.463679
vt 0.505685 0.414431
vt 0.541823 0.414441
vt 0.505617 0.370267
vt 0.541789 0.370269
vt 0.541755 0.325917
vt 0.505549 0.325924
vt 0.505473 0.276756
vt 0.541718 0.276739
vt 0.804598 0.370280
vt 0.804816 0.325865
vt 0.870128 0.325852
vt 0.869848 0.370283
vt 0.804140 0.463845
vt 0.804381 0.414516
vt 0.869569 0.414535
vt 0.869258 0.463881
vt 0.805057 0.276616
vt 0.870439 0.276585
vt 0.910143 0.370285
vt 0.910462 0.325844
vt 0.988548 0.325828
vt 0.988154 0.370288
vt 0.909472 0.463904
vt 0.909825 0.414546
vt 0.987762 0.414568
vt 0.987327 0.463947
vt 0.910815 0.276566
vt 0.988984 0.276530
vt 0.705231 0.414488
vt 0.705353 0.370276
vt 0.786115 0.370279
vt 0.785916 0.414511
vt 0.705476 0.325884
vt 0.705612 0.276662
vt 0.786537 0.276624
vt 0.786315 0.325868
vt 0.705094 0.463790
vt 0.785694 0.463835
vt 0.681986 0.463777
vt 0.576963 0.463719
vt 0.576963 0.414451
vt 0.682098 0.414481
vt 0.576963 0.370270
vt 0.682198 0.370275
vt 0.682298 0.325889
vt 0.576963 0.325910
vt 0.576963 0.276722
vt 0.682410 0.276673
vt 0.541897 0.512957
vt 0.505836 0.512928
vt 0.541614 0.139036
vt 0.541647 0.183209
vt 0.505329 0.183244
vt 0.505261 0.139081
vt 0.541681 0.227560
vt 0.505397 0.227587
vt 0.805516 0.182951
vt 0.871030 0.182887
vt 0.870749 0.227318
vt 0.805298 0.227366
vt 0.868947 0.513228
vt 0.803898 0.513174
vt 0.805733 0.138715
vt 0.871309 0.138635
vt 0.911487 0.182847
vt 0.989814 0.182771
vt 0.989419 0.227231
vt 0.911168 0.227288
vt 0.986889 0.513326
vt 0.909118 0.513261
vt 0.911805 0.138586
vt 0.990206 0.138491
vt 0.705993 0.138836
vt 0.787158 0.138738
vt 0.786959 0.182969
vt 0.705871 0.183048
vt 0.705748 0.227440
vt 0.786759 0.227380
vt 0.785472 0.513159
vt 0.704958 0.513092
vt 0.681874 0.513073
vt 0.576963 0.512986
vt 0.682722 0.138865
vt 0.682622 0.183071
vt 0.576963 0.183174
vt 0.576963 0.138993
vt 0.682522 0.227457
vt 0.576963 0.227534
vt 0.294054 0.376263
vt 0.294054 0.376263
vt 0.317810 0.430296
vt 0.317810 0.430296
vt 0.337428 0.377826
vt 0.304081 0.365688
vt 0.371429 0.171724
vt 0.371429 0.171724
vt 0.330119 0.171724
vt 0.330119 0.171724
vt 0.267285 0.224449
vt 0.267285 0.224449
vt 0.253042 0.305227
vt 0.253042 0.305227
vt 0.294054 0.376263
vt 0.317810 0.430296
vt 0.253042 0.305227
vt 0.267285 0.224449
vt 0.330119 0.171724
vt 0.371429 0.171724
vt 0.268405 0.303895
vt 0.692121 0.370275
vt 0.692011 0.414484
vt 0.692231 0.325887
vt 0.691889 0.463783
vt 0.692353 0.276668
vt 0.886955 0.370284
vt 0.886659 0.414540
vt 0.887251 0.325848
vt 0.886331 0.463891
vt 0.887580 0.276577
vt 0.898467 0.370284
vt 0.898775 0.325846
vt 0.899115 0.276572
vt 0.898161 0.414543
vt 0.897820 0.463897
vt 0.267991 0.303203
vt 0.280431 0.232651
vt 0.335263 0.266862
vt 0.330344 0.294758
vt 0.303811 0.365245
vt 0.337292 0.377431
vt 0.335310 0.186602
vt 0.371429 0.430348
vt 0.371429 0.377463
vt 0.371429 0.390092
vt 0.371429 0.331596
vt 0.358152 0.326875
vt 0.280795 0.233627
vt 0.335454 0.187762
vt 0.371429 0.449704
vt 0.371429 0.187762
vt 0.371429 0.305311
vt 0.371429 0.331523
vt 0.358267 0.326630
vt 0.345228 0.322172
vt 0.357347 0.293750
vt 0.362132 0.302038
vt 0.356962 0.248655
vt 0.371429 0.305010
vt 0.362406 0.301837
vt 0.357766 0.293801
vt 0.330719 0.294958
vt 0.345316 0.322203
vt 0.335272 0.267262
vt 0.356960 0.248743
vt 0.371645 0.248743
vt 0.795148 0.414513
vt 0.795356 0.370280
vt 0.795565 0.325867
vt 0.795797 0.276620
vt 0.794917 0.463840
vt 0.557059 0.370269
vt 0.557040 0.325914
vt 0.557019 0.276731
vt 0.557078 0.414445
vt 0.557099 0.463708
vt 0.371429 0.186602
vt 0.371429 0.248655
vt 0.448803 0.376263
vt 0.425047 0.430296
vt 0.425047 0.430296
vt 0.448803 0.376263
vt 0.438776 0.365688
vt 0.405429 0.377826
vt 0.412738 0.171724
vt 0.412738 0.171724
vt 0.475572 0.224449
vt 0.475572 0.224449
vt 0.489816 0.305227
vt 0.489816 0.305227
vt 0.448803 0.376263
vt 0.425047 0.430296
vt 0.489816 0.305227
vt 0.475572 0.224449
vt 0.412738 0.171724
vt 0.474452 0.303895
vt 0.692695 0.138853
vt 0.692585 0.183061
vt 0.692475 0.227449
vt 0.691767 0.513081
vt 0.888501 0.138614
vt 0.888205 0.182870
vt 0.887908 0.227306
vt 0.886001 0.513242
vt 0.899764 0.182859
vt 0.899456 0.227297
vt 0.900071 0.138600
vt 0.897478 0.513252
vt 0.474866 0.303203
vt 0.412513 0.294758
vt 0.407594 0.266862
vt 0.462426 0.232651
vt 0.439046 0.365245
vt 0.405565 0.377431
vt 0.407547 0.186602
vt 0.384705 0.326875
vt 0.407403 0.187762
vt 0.462062 0.233627
vt 0.380725 0.302038
vt 0.385510 0.293750
vt 0.397656 0.322135
vt 0.385112 0.326735
vt 0.385895 0.248655
vt 0.397541 0.322203
vt 0.412524 0.294664
vt 0.385091 0.293801
vt 0.380452 0.301837
vt 0.385681 0.248527
vt 0.407585 0.266830
vt 0.796446 0.138726
vt 0.796238 0.182960
vt 0.796028 0.227373
vt 0.794685 0.513167
vt 0.556998 0.227549
vt 0.556979 0.183194
vt 0.556960 0.139018
vt 0.557120 0.512970
vt 0.371429 0.278823
vt 0.383480 0.284663
vt 0.359377 0.284663
vt 0.371429 0.278321
vt 0.359009 0.284326
vt 0.383848 0.284326
vt 0.577520 0.113743
vt 0.577558 0.024525
vt 0.570675 0.024525
vt 0.570421 0.113743
vt 0.583762 0.113743
vt 0.583610 0.024525
vt 0.586227 0.113743
vt 0.586001 0.024525
vt 0.583762 0.113743
vt 0.583610 0.024525
vt 0.577520 0.113743
vt 0.577558 0.024525
vt 0.570421 0.113743
vt 0.570675 0.024525
vt 0.566277 0.024525
vt 0.565898 0.113743
vt 0.849004 0.107401
vt 0.804363 0.115367
vt 0.804363 0.076191
vt 0.875235 0.073969
vt 0.493525 0.625751
vt 0.493525 0.666229
vt 0.353506 0.666229
vt 0.353506 0.625751
vt 0.540667 0.907896
vt 0.493525 0.907896
vt 0.493525 0.847944
vt 0.540667 0.847944
vt 0.493525 0.706871
vt 0.540603 0.706871
vt 0.540603 0.766823
vt 0.493525 0.766823
vt 0.268786 0.706871
vt 0.311060 0.706871
vt 0.311060 0.766823
vt 0.268786 0.766823
vt 0.353506 0.706871
vt 0.353506 0.766823
vt 0.353506 0.907896
vt 0.353506 0.847944
vt 0.804363 0.013544
vt 0.849004 0.018447
vt 0.875235 0.049167
vt 0.804363 0.049208
vt 0.893658 0.062924
vt 0.957716 0.018447
vt 0.976139 0.062924
vt 0.759721 0.107401
vt 0.733490 0.073969
vt 0.587698 0.625751
vt 0.727717 0.625751
vt 0.727717 0.666229
vt 0.587698 0.666229
vt 0.587809 0.847944
vt 0.587809 0.907896
vt 0.587698 0.706871
vt 0.587698 0.766823
vt 0.812438 0.706871
vt 0.812438 0.766823
vt 0.770163 0.766823
vt 0.770163 0.706871
vt 0.727717 0.766823
vt 0.727717 0.706871
vt 0.587698 0.565799
vt 0.727717 0.565799
vt 0.733490 0.049167
vt 0.759721 0.018447
vt 0.715067 0.062924
vt 0.632586 0.062924
vt 0.651010 0.018447
vt 0.957716 0.107401
vt 0.651010 0.107401
vt 0.125 0.5
vt 0.375 0.5
vt 0.625 0.5
vt 0.875 0.5
vn -0.5923 0.0054 0.8057
vn -0.5983 0.0079 -0.8012
vn -0.0267 0.0002 0.9996
vn 0.0005 0.0048 -1.0000
vn -0.0621 0.0435 0.9971
vn -0.5694 0.3071 -0.7625
vn -0.6497 0.3460 0.6769
vn 0.0011 0.0251 -0.9997
vn 0.0005 -0.0254 -0.9997
vn -0.6786 0.1992 0.7070
vn -0.5897 0.1691 -0.7897
vn -0.0284 -0.0233 0.9993
vn 0.0033 0.5299 -0.8481
vn -0.1640 0.6051 0.7791
vn -0.4751 0.6078 -0.6363
vn -0.5412 0.6239 0.5638
vn 0.5923 0.0054 0.8057
vn 0.5983 0.0079 -0.8012
vn 0.0267 0.0002 0.9996
vn -0.0005 0.0048 -1.0000
vn 0.0621 0.0435 0.9971
vn 0.5694 0.3071 -0.7625
vn 0.6497 0.3460 0.6769
vn -0.0011 0.0251 -0.9997
vn -0.0005 -0.0254 -0.9997
vn 0.6786 0.1992 0.7070
vn 0.5897 0.1691 -0.7897
vn 0.0284 -0.0233 0.9993
vn -0.0033 0.5299 -0.8481
vn 0.1640 0.6051 0.7791
vn 0.4751 0.6078 -0.6363
vn 0.5412 0.6239 0.5638
vn -0.0299 -0.2440 -0.9693
vn -0.9505 -0.2948 -0.0981
vn -0.0225 -0.2915 0.9563
vn -0.9493 -0.2988 0.0980
vn -0.9239 -0.0000 0.3827
vn -0.1090 0.0000 -0.9940
vn -0.1753 -0.0000 0.9845
vn -0.9239 0.0000 -0.3827
vn -0.8614 -0.3616 0.3568
vn -0.1042 -0.2963 -0.9494
vn -0.1655 -0.3329 0.9283
vn -0.8643 -0.3534 -0.3580
vn -0.0824 -0.0045 -0.9966
vn -0.9505 0.0040 -0.3108
vn -0.1177 -0.0286 0.9926
vn -0.9505 0.0007 0.3108
vn 0.0299 -0.2440 -0.9693
vn 0.9505 -0.2948 -0.0981
vn 0.0225 -0.2915 0.9563
vn 0.9493 -0.2988 0.0980
vn 0.9239 -0.0000 0.3827
vn 0.1090 0.0000 -0.9940
vn 0.1753 -0.0000 0.9845
vn 0.9239 -0.0000 -0.3827
vn 0.8614 -0.3616 0.3568
vn 0.1042 -0.2963 -0.9494
vn 0.1655 -0.3329 0.9283
vn 0.8643 -0.3534 -0.3580
vn 0.0824 -0.0045 -0.9966
vn 0.9505 0.0040 -0.3108
vn 0.1177 -0.0286 0.9926
vn 0.9505 0.0007 0.3108
vn -0.9154 0.4025 0.0000
vn -0.2893 0.0802 -0.9539
vn 0.0000 -1.0000 0.0000
vn -0.6428 -0.7660 0.0000
vn -0.9848 -0.1736 0.0000
vn -0.8660 0.5000 0.0000
vn -0.5906 0.3410 -0.7314
vn -0.8940 -0.2522 -0.3703
vn -0.8943 -0.2510 0.3704
vn -0.1065 -0.2160 -0.9706
vn -0.1710 -0.2234 0.9596
vn -0.1635 0.3618 0.9178
vn -0.8452 0.4038 -0.3501
vn -0.8459 0.4021 0.3504
vn -0.1021 0.3508 -0.9309
vn -0.7250 -0.6198 -0.3003
vn -0.7264 -0.6179 0.3009
vn -0.0906 -0.5569 -0.8257
vn -0.1441 -0.5705 0.8086
vn -0.5561 0.7986 0.2303
vn -0.1684 0.2803 0.9450
vn -0.8768 0.3152 -0.3632
vn -0.8772 0.3137 0.3634
vn -0.1050 0.2713 -0.9567
vn -0.0722 0.7494 -0.6581
vn -0.1138 0.7609 0.6388
vn -0.5543 0.8000 -0.2296
vn -0.2046 -0.0361 0.9782
vn -0.6841 -0.1206 0.7193
vn -0.6106 0.3525 0.7092
vn -0.3066 0.0930 0.9473
vn -0.4407 -0.5252 0.7279
vn -0.0000 0.0351 0.9994
vn -0.0924 0.2572 -0.9619
vn -0.4102 -0.4889 -0.7699
vn -0.6482 -0.1143 -0.7528
vn -0.0028 0.0278 -0.9996
vn 0.0000 -0.6304 -0.7762
vn -0.0000 -0.0000 1.0000
vn -0.1870 0.1060 0.9766
vn -0.0764 0.2134 0.9740
vn -0.0260 0.2492 0.9681
vn -0.1304 -0.1554 0.9792
vn 0.0000 0.0000 -1.0000
vn -0.1609 -0.1908 -0.9684
vn -0.2498 -0.0432 -0.9673
vn -0.2267 0.1280 -0.9655
vn -0.0935 0.2570 -0.9619
vn -0.0000 -0.2483 -0.9687
vn -0.8609 0.3628 -0.3566
vn -0.1659 0.3239 0.9314
vn -0.1035 0.3138 -0.9438
vn -0.8615 0.3612 0.3568
vn -0.8615 -0.3612 0.3568
vn -0.1035 -0.3138 -0.9438
vn -0.1659 -0.3239 0.9314
vn -0.8609 -0.3628 -0.3566
vn -0.9455 0.2481 0.2109
vn -0.0568 0.1743 0.9831
vn -0.9449 0.2505 -0.2108
vn -0.0523 0.1893 -0.9805
vn -0.9334 -0.3087 0.1829
vn -0.0462 -0.2610 0.9642
vn -0.9338 -0.3074 -0.1830
vn -0.0448 -0.2499 -0.9672
vn -0.0000 -0.2010 0.9796
vn 0.0000 -0.6821 0.7312
vn 0.9154 0.4025 0.0000
vn 0.2893 0.0802 -0.9539
vn 0.6428 -0.7660 0.0000
vn 0.9848 -0.1736 0.0000
vn 0.8660 0.5000 0.0000
vn 0.5906 0.3410 -0.7314
vn 0.8940 -0.2522 -0.3703
vn 0.8943 -0.2510 0.3704
vn 0.1065 -0.2160 -0.9706
vn 0.1710 -0.2234 0.9596
vn 0.1635 0.3618 0.9178
vn 0.8452 0.4038 -0.3501
vn 0.8459 0.4021 0.3504
vn 0.1021 0.3508 -0.9309
vn 0.7250 -0.6198 -0.3003
vn 0.7264 -0.6179 0.3009
vn 0.0906 -0.5569 -0.8257
vn 0.1441 -0.5705 0.8086
vn 0.5561 0.7986 0.2303
vn 0.1684 0.2803 0.9450
vn 0.8768 0.3152 -0.3632
vn 0.8772 0.3137 0.3634
vn 0.1050 0.2713 -0.9567
vn 0.0722 0.7494 -0.6581
vn 0.1138 0.7609 0.6388
vn 0.5543 0.8000 -0.2296
vn 0.2046 -0.0361 0.9782
vn 0.6841 -0.1206 0.7193
vn 0.6106 0.3525 0.7092
vn 0.3066 0.0930 0.9473
vn 0.4407 -0.5252 0.7279
vn 0.0924 0.2572 -0.9619
vn 0.4102 -0.4889 -0.7699
vn 0.6482 -0.1143 -0.7528
vn 0.0028 0.0278 -0.9996
vn 0.1870 0.1060 0.9766
vn 0.0777 0.2131 0.9739
vn 0.0252 0.2497 0.9680
vn 0.1304 -0.1554 0.9792
vn 0.1607 -0.1918 -0.9682
vn 0.2506 -0.0443 -0.9671
vn 0.2268 0.1286 -0.9654
vn 0.0935 0.2570 -0.9619
vn -0.0011 -0.2489 -0.9685
vn 0.8609 0.3628 -0.3566
vn 0.1659 0.3239 0.9314
vn 0.1035 0.3138 -0.9438
vn 0.8615 0.3612 0.3568
vn 0.8615 -0.3612 0.3568
vn 0.1035 -0.3138 -0.9438
vn 0.1659 -0.3239 0.9314
vn 0.8609 -0.3628 -0.3566
vn 0.9455 0.2481 0.2109
vn 0.0568 0.1743 0.9831
vn 0.9449 0.2505 -0.2108
vn 0.0523 0.1893 -0.9805
vn 0.9334 -0.3087 0.1829
vn 0.0462 -0.2610 0.9642
vn 0.9338 -0.3074 -0.1830
vn 0.0448 -0.2499 -0.9672
vn -0.9848 0.1736 0.0036
vn -0.8660 -0.5000 0.0028
vn -0.3319 -0.9433 0.0024
vn 0.3319 -0.9433 0.0024
vn 0.8660 -0.5000 0.0029
vn 0.9848 0.1736 0.0036
vn 0.4357 0.9001 0.0039
vn -0.4357 0.9001 0.0039
vn -0.0027 0.9995 0.0307
vn -0.1092 0.0000 -0.9940
vn -0.1757 -0.0000 0.9845
vn -0.0014 0.9995 -0.0331
vn -0.0072 0.9998 -0.0181
vn 0.0027 0.9995 0.0307
vn 0.1092 0.0000 -0.9940
vn 0.1757 -0.0000 0.9845
vn 0.0014 0.9995 -0.0331
vn 0.0072 0.9998 -0.0181
vn -0.0068 0.9998 0.0178
vn 0.0068 0.9998 0.0178
usemtl Metal
s off
f 53/340/1 62/340/1 65/340/1 64/340/1
f 61/340/2 53/340/2 64/340/2 63/340/2
f 62/340/3 184/340/3 188/340/3 65/340/3
f 185/340/4 61/340/4 63/340/4 189/340/4
f 69/340/5 198/340/5 193/340/5 68/340/5
f 71/340/6 70/340/6 67/340/6 66/340/6
f 70/340/7 69/340/7 68/340/7 67/340/7
f 202/340/8 71/340/8 66/340/8 194/340/8
f 189/340/9 63/340/9 71/340/9 202/340/9
f 64/340/10 65/340/10 69/340/10 70/340/10
f 63/340/11 64/340/11 70/340/11 71/340/11
f 65/340/12 188/340/12 198/340/12 69/340/12
f 194/340/13 66/340/13 203/340/13
f 68/340/14 193/340/14 203/340/14
f 66/340/15 67/340/15 203/340/15
f 67/340/16 68/340/16 203/340/16
f 176/340/17 191/340/17 192/340/17 187/340/17
f 186/340/18 190/340/18 191/340/18 176/340/18
f 187/340/19 192/340/19 188/340/19 184/340/19
f 185/340/20 189/340/20 190/340/20 186/340/20
f 199/340/21 197/340/21 193/340/21 198/340/21
f 201/340/22 195/340/22 196/340/22 200/340/22
f 200/340/23 196/340/23 197/340/23 199/340/23
f 202/340/24 194/340/24 195/340/24 201/340/24
f 189/340/25 202/340/25 201/340/25 190/340/25
f 191/340/26 200/340/26 199/340/26 192/340/26
f 190/340/27 201/340/27 200/340/27 191/340/27
f 192/340/28 199/340/28 198/340/28 188/340/28
f 194/340/29 203/340/29 195/340/29
f 197/340/30 203/340/30 193/340/30
f 195/340/31 203/340/31 196/340/31
f 196/340/32 203/340/32 197/340/32
usemtl Red
f 246/341/33 108/341/33 2/341/33 103/341/33
f 103/341/34 2/341/34 4/341/34 104/341/34
f 105/341/35 6/341/35 258/341/35 257/341/35
f 104/341/36 4/341/36 6/341/36 105/341/36
f 93/341/37 91/341/37 29/341/37 28/341/37
f 231/341/38 92/341/38 27/341/38 138/341/38
f 91/341/39 232/341/39 137/341/39 29/341/39
f 92/341/40 93/341/40 28/341/40 27/341/40
f 37/341/41 38/341/41 41/341/41 40/341/41
f 153/341/42 36/341/42 39/341/42 158/341/42
f 38/341/43 152/341/43 157/341/43 41/341/43
f 36/341/44 37/341/44 40/341/44 39/341/44
f 24/341/40 25/341/40 89/341/40 90/341/40
f 26/341/39 132/341/39 227/341/39 88/341/39
f 133/341/38 24/341/38 90/341/38 226/341/38
f 25/341/37 26/341/37 88/341/37 89/341/37
f 107/341/45 242/341/45 100/341/45 1/341/45
f 1/341/46 100/341/46 101/341/46 3/341/46
f 5/341/47 102/341/47 259/341/47 106/341/47
f 3/341/48 101/341/48 102/341/48 5/341/48
f 246/341/49 247/341/49 110/341/49 108/341/49
f 247/341/50 248/341/50 112/341/50 110/341/50
f 249/341/51 257/341/51 258/341/51 114/341/51
f 248/341/52 249/341/52 114/341/52 112/341/52
f 230/341/53 140/341/53 141/341/53 228/341/53
f 231/341/54 138/341/54 139/341/54 229/341/54
f 228/341/55 141/341/55 137/341/55 232/341/55
f 229/341/56 139/341/56 140/341/56 230/341/56
f 155/341/57 160/341/57 161/341/57 156/341/57
f 153/341/58 158/341/58 159/341/58 154/341/58
f 156/341/59 161/341/59 157/341/59 152/341/59
f 154/341/60 159/341/60 160/341/60 155/341/60
f 134/341/56 225/341/56 224/341/56 135/341/56
f 136/341/55 223/341/55 227/341/55 132/341/55
f 133/341/54 226/341/54 225/341/54 134/341/54
f 135/341/53 224/341/53 223/341/53 136/341/53
f 107/341/61 109/341/61 243/341/61 242/341/61
f 109/341/62 111/341/62 244/341/62 243/341/62
f 113/341/63 106/341/63 259/341/63 245/341/63
f 111/341/64 113/341/64 245/341/64 244/341/64
usemtl Gold
f 8/342/65 17/342/65 4/342/65 2/342/65
f 8/342/66 2/342/66 47/342/66 51/342/66
f 252/342/67 250/342/67 16/342/67 18/342/67
f 18/342/68 16/342/68 15/342/68 19/342/68
f 19/342/69 15/342/69 14/342/69 20/342/69
f 20/342/70 14/342/70 12/342/70 17/342/70
f 17/342/65 12/342/65 6/342/65 4/342/65
f 7/342/70 20/342/70 17/342/70 8/342/70
f 11/342/69 19/342/69 20/342/69 7/342/69
f 10/342/68 18/342/68 19/342/68 11/342/68
f 251/342/67 252/342/67 18/342/67 10/342/67
f 7/342/71 8/342/71 51/342/71 48/342/71
f 1/342/72 3/342/72 22/342/72 21/342/72
f 3/342/73 5/342/73 23/342/73 22/342/73
f 107/342/74 1/342/74 21/342/74 128/342/74
f 5/342/75 106/342/75 127/342/75 23/342/75
f 23/342/76 127/342/76 132/342/76 26/342/76
f 21/342/77 22/342/77 25/342/77 24/342/77
f 22/342/78 23/342/78 26/342/78 25/342/78
f 128/342/79 21/342/79 24/342/79 133/342/79
f 27/342/80 28/342/80 31/342/80 30/342/80
f 28/342/81 29/342/81 32/342/81 31/342/81
f 138/342/82 27/342/82 30/342/82 143/342/82
f 29/342/83 137/342/83 142/342/83 32/342/83
f 34/342/84 35/342/84 38/342/84 37/342/84
f 32/342/85 142/342/85 147/342/85 35/342/85
f 30/342/86 31/342/86 34/342/86 33/342/86
f 31/342/87 32/342/87 35/342/87 34/342/87
f 143/342/88 30/342/88 33/342/88 148/342/88
f 148/342/89 33/342/89 36/342/89 153/342/89
f 35/342/90 147/342/90 152/342/90 38/342/90
f 33/342/91 34/342/91 37/342/91 36/342/91
f 43/342/92 45/342/92 76/342/92 74/342/92
f 14/342/93 15/342/93 45/342/93 43/342/93
f 12/342/94 14/342/94 43/342/94 46/342/94
f 6/342/95 12/342/95 46/342/95 42/342/95
f 15/342/96 16/342/96 44/342/96 45/342/96
f 258/342/97 6/342/97 42/342/97 261/342/97
f 47/342/98 167/342/98 213/342/98 80/342/98
f 10/342/99 11/342/99 50/342/99 49/342/99
f 11/342/100 7/342/100 48/342/100 50/342/100
f 2/342/101 108/342/101 167/342/101 47/342/101
f 251/342/102 10/342/102 49/342/102 254/342/102
f 210/342/103 260/342/103 72/342/103 77/342/103 74/342/103 73/342/103 78/342/103
f 46/342/104 43/342/104 74/342/104 77/342/104
f 42/342/105 46/342/105 77/342/105 72/342/105
f 261/342/106 42/342/106 72/342/106 260/342/106
f 45/342/107 44/342/107 75/342/107 76/342/107
f 213/342/108 215/342/108 86/342/108 81/342/108 82/342/108 85/342/108 80/342/108
f 49/342/109 50/342/109 84/342/109 83/342/109
f 50/342/110 48/342/110 82/342/110 84/342/110
f 48/342/111 51/342/111 85/342/111 82/342/111
f 51/342/112 47/342/112 80/342/112 85/342/112
f 254/342/113 49/342/113 83/342/113 256/342/113
f 96/342/114 94/342/114 93/342/114 92/342/114
f 95/342/115 235/342/115 232/342/115 91/342/115
f 234/342/116 96/342/116 92/342/116 231/342/116
f 94/342/117 95/342/117 91/342/117 93/342/117
f 89/342/118 88/342/118 95/342/118 94/342/118
f 226/342/119 90/342/119 96/342/119 234/342/119
f 88/342/120 227/342/120 235/342/120 95/342/120
f 90/342/121 89/342/121 94/342/121 96/342/121
f 101/342/122 98/342/122 99/342/122 102/342/122
f 102/342/123 99/342/123 262/342/123 259/342/123
f 100/342/124 97/342/124 98/342/124 101/342/124
f 242/342/125 238/342/125 97/342/125 100/342/125
f 98/342/126 104/342/126 105/342/126 99/342/126
f 99/342/127 105/342/127 257/342/127 262/342/127
f 97/342/128 103/342/128 104/342/128 98/342/128
f 238/342/129 246/342/129 103/342/129 97/342/129
f 44/342/130 253/342/130 255/342/130 75/342/130
f 16/342/131 250/342/131 253/342/131 44/342/131
f 116/342/132 110/342/132 112/342/132 123/342/132
f 116/342/133 172/342/133 168/342/133 110/342/133
f 252/342/67 124/342/67 122/342/67 250/342/67
f 124/342/134 125/342/134 121/342/134 122/342/134
f 125/342/135 126/342/135 120/342/135 121/342/135
f 126/342/136 123/342/136 119/342/136 120/342/136
f 123/342/132 112/342/132 114/342/132 119/342/132
f 115/342/136 116/342/136 123/342/136 126/342/136
f 118/342/135 115/342/135 126/342/135 125/342/135
f 117/342/134 118/342/134 125/342/134 124/342/134
f 251/342/67 117/342/67 124/342/67 252/342/67
f 115/342/137 169/342/137 172/342/137 116/342/137
f 109/342/138 129/342/138 130/342/138 111/342/138
f 111/342/139 130/342/139 131/342/139 113/342/139
f 107/342/140 128/342/140 129/342/140 109/342/140
f 113/342/141 131/342/141 127/342/141 106/342/141
f 131/342/142 136/342/142 132/342/142 127/342/142
f 129/342/143 134/342/143 135/342/143 130/342/143
f 130/342/144 135/342/144 136/342/144 131/342/144
f 128/342/145 133/342/145 134/342/145 129/342/145
f 139/342/146 144/342/146 145/342/146 140/342/146
f 140/342/147 145/342/147 146/342/147 141/342/147
f 138/342/148 143/342/148 144/342/148 139/342/148
f 141/342/149 146/342/149 142/342/149 137/342/149
f 150/342/150 155/342/150 156/342/150 151/342/150
f 146/342/151 151/342/151 147/342/151 142/342/151
f 144/342/152 149/342/152 150/342/152 145/342/152
f 145/342/153 150/342/153 151/342/153 146/342/153
f 143/342/154 148/342/154 149/342/154 144/342/154
f 148/342/155 153/342/155 154/342/155 149/342/155
f 151/342/156 156/342/156 152/342/156 147/342/156
f 149/342/157 154/342/157 155/342/157 150/342/157
f 163/342/158 206/342/158 208/342/158 165/342/158
f 120/342/159 163/342/159 165/342/159 121/342/159
f 119/342/160 166/342/160 163/342/160 120/342/160
f 114/342/161 162/342/161 166/342/161 119/342/161
f 121/342/162 165/342/162 164/342/162 122/342/162
f 258/342/97 261/342/97 162/342/97 114/342/97
f 168/342/163 214/342/163 213/342/163 167/342/163
f 117/342/164 170/342/164 171/342/164 118/342/164
f 118/342/165 171/342/165 169/342/165 115/342/165
f 110/342/166 168/342/166 167/342/166 108/342/166
f 251/342/102 254/342/102 170/342/102 117/342/102
f 210/342/103 211/342/103 205/342/103 206/342/103 209/342/103 204/342/103 260/342/103
f 166/342/167 209/342/167 206/342/167 163/342/167
f 162/342/168 204/342/168 209/342/168 166/342/168
f 261/342/169 260/342/169 204/342/169 162/342/169
f 165/342/170 208/342/170 207/342/170 164/342/170
f 213/342/108 214/342/108 220/342/108 217/342/108 216/342/108 221/342/108 215/342/108
f 170/342/171 218/342/171 219/342/171 171/342/171
f 171/342/172 219/342/172 217/342/172 169/342/172
f 169/342/173 217/342/173 220/342/173 172/342/173
f 172/342/174 220/342/174 214/342/174 168/342/174
f 254/342/175 256/342/175 218/342/175 170/342/175
f 237/342/176 229/342/176 230/342/176 233/342/176
f 236/342/177 228/342/177 232/342/177 235/342/177
f 234/342/178 231/342/178 229/342/178 237/342/178
f 233/342/179 230/342/179 228/342/179 236/342/179
f 224/342/180 233/342/180 236/342/180 223/342/180
f 226/342/181 234/342/181 237/342/181 225/342/181
f 223/342/182 236/342/182 235/342/182 227/342/182
f 225/342/183 237/342/183 233/342/183 224/342/183
f 244/342/184 245/342/184 241/342/184 240/342/184
f 245/342/185 259/342/185 262/342/185 241/342/185
f 243/342/186 244/342/186 240/342/186 239/342/186
f 242/342/187 243/342/187 239/342/187 238/342/187
f 240/342/188 241/342/188 249/342/188 248/342/188
f 241/342/189 262/342/189 257/342/189 249/342/189
f 239/342/190 240/342/190 248/342/190 247/342/190
f 238/342/191 239/342/191 247/342/191 246/342/191
f 164/342/130 207/342/130 255/342/130 253/342/130
f 122/342/131 164/342/131 253/342/131 250/342/131
f 9/342/108 222/342/108 216/342/108 217/342/108 219/342/108 218/342/108 256/342/108
f 9/342/108 256/342/108 83/342/108 84/342/108 82/342/108 81/342/108 87/342/108
f 13/342/103 79/342/103 73/342/103 74/342/103 76/342/103 75/342/103 255/342/103
f 13/342/103 255/342/103 207/342/103 208/342/103 206/342/103 205/342/103 212/342/103
f 271/342/192 276/342/192 278/342/192 274/342/192
f 273/342/193 277/342/193 276/342/193 271/342/193
f 272/342/194 275/342/194 277/342/194 273/342/194
f 272/342/195 266/342/195 269/342/195 275/342/195
f 266/342/196 265/342/196 268/342/196 269/342/196
f 265/342/197 267/342/197 270/342/197 268/342/197
f 263/342/198 270/342/198 267/342/198 264/342/198
f 263/342/199 264/342/199 274/342/199 278/342/199
usemtl Brown
f 54/343/200 173/343/200 184/343/200 62/343/200
f 39/343/67 40/343/67 56/343/67 55/343/67
f 158/343/201 39/343/201 52/343/201 174/343/201
f 41/343/202 157/343/202 173/343/202 54/343/202
f 55/343/40 56/343/40 59/343/40 58/343/40
f 56/343/37 57/343/37 60/343/37 59/343/37
f 40/343/67 41/343/67 57/343/67 56/343/67
f 52/343/108 39/343/108 55/343/108 58/343/108
f 41/343/103 54/343/103 60/343/103 57/343/103
f 174/343/203 52/343/203 61/343/203 185/343/203
f 53/343/204 61/343/204 52/343/204 58/343/204 59/343/204
f 177/343/205 187/343/205 184/343/205 173/343/205
f 159/343/67 178/343/67 179/343/67 160/343/67
f 158/343/206 174/343/206 175/343/206 159/343/206
f 161/343/207 177/343/207 173/343/207 157/343/207
f 178/343/56 181/343/56 182/343/56 179/343/56
f 179/343/53 182/343/53 183/343/53 180/343/53
f 160/343/67 179/343/67 180/343/67 161/343/67
f 175/343/108 181/343/108 178/343/108 159/343/108
f 161/343/103 180/343/103 183/343/103 177/343/103
f 174/343/208 185/343/208 186/343/208 175/343/208
f 176/343/209 182/343/209 181/343/209 175/343/209 186/343/209
f 54/343/210 62/343/210 53/343/210 59/343/210 60/343/210
f 177/343/211 183/343/211 182/343/211 176/343/211 187/343/211
