# Blender v2.79 (sub 0) OBJ File: 'Dragon.blend'
# www.blender.org
mtllib Dragon.mtl
o Dragon_Cylinder
v 0.355869 1.995759 -0.414946
v 0.378109 2.528706 0.043677
v 0.461183 2.292440 0.295646
v 0.355938 1.444384 0.321281
v 0.378431 1.914986 0.617716
v 0.358678 2.139931 -0.116142
v 0.521293 1.865004 0.236911
v 0.402771 1.592231 0.526246
v 0.258455 1.767076 -0.535380
v 0.299155 1.434577 -0.377733
v 0.318301 1.288527 -0.096708
v 0.515944 1.985719 -0.121826
v 0.541560 1.888036 -0.273767
v 0.638756 1.663179 -0.119029
v 0.591887 1.801142 0.141244
v 0.643349 1.468240 0.178195
v 0.615645 1.507128 -0.267892
v 0.510825 1.680846 -0.390487
v 0.650996 1.335403 -0.114224
v 0.377838 1.157923 -0.120732
v 0.665841 1.153509 -0.129852
v 0.440667 0.925650 -0.117552
v 0.605626 0.933592 -0.144053
v 0.626645 0.964551 -0.320197
v 0.411683 0.950190 -0.316147
v 0.412283 0.810506 -0.125554
v 0.610183 0.811465 -0.154412
v 0.655006 0.830650 -0.360016
v 0.412283 0.829656 -0.351188
v 0.413106 0.537037 0.031231
v 0.611273 0.532918 0.020353
v 0.655829 0.416400 -0.080380
v 0.413106 0.419534 -0.072104
v 0.667587 1.243127 0.189289
v 0.643213 1.004432 0.098154
v 0.443975 1.005954 0.106607
v 0.398273 1.251639 0.217285
v 0.483741 1.308236 -0.138034
v 0.463533 1.433786 -0.374163
v 0.440218 1.948833 -0.374243
v 0.431928 2.067384 -0.115292
v 0.536209 1.154226 -0.171472
v 0.408792 1.698602 -0.481353
v 0.566398 1.836595 0.199304
v 0.519984 1.452242 0.289052
v 0.518204 0.928248 -0.102676
v 0.540983 0.951031 -0.373811
v 0.511367 0.810225 -0.131607
v 0.533645 0.821093 -0.410238
v 0.500483 0.522304 0.077947
v 0.534467 0.383655 -0.024011
v 0.529649 0.999305 0.140858
v 0.525707 1.239171 0.269753
v 0.310553 2.954331 0.444881
v 0.347387 2.866203 0.589847
v 0.247004 2.719626 0.791970
v 0.350144 2.635726 0.104011
v 0.352819 2.500818 0.408827
v 0.276073 2.390348 0.682743
v 0.477272 0.400564 -0.046676
v 0.575357 0.394688 -0.043003
v 0.548177 0.325217 0.004439
v 0.312474 1.663710 -0.727844
v 0.273559 1.542645 -1.142134
v 0.215636 1.439381 -1.475116
v 0.169748 1.441928 -1.847494
v 0.571905 2.305275 0.308632
v 0.480392 2.502861 0.174519
v 0.461037 2.582990 0.213298
v 0.538760 2.487432 0.361857
v 0.479226 2.222113 0.855493
v 0.339420 2.219738 0.847167
v 0.495492 2.077659 0.749609
v 0.324631 2.073218 0.743800
v 0.477654 2.127211 0.929048
v 0.335082 2.127412 0.921587
v 0.490924 1.994983 0.807860
v 0.334513 1.994224 0.801580
v 0.503507 1.834727 0.874354
v 0.315955 1.843368 0.885080
v 0.510437 1.858223 0.765075
v 0.309747 1.870298 0.778168
v 0.380580 1.864216 0.772493
v 0.377603 1.840535 0.881551
v 0.444436 1.837457 0.877724
v 0.437251 1.861606 0.769246
v 0.502696 1.660582 0.678909
v 0.483969 1.704996 0.630477
v 0.470216 1.695482 0.689491
v 0.468642 1.658013 0.682081
v 0.533281 1.734214 0.731314
v 0.456208 1.728397 0.738496
v 0.462090 1.697727 0.794027
v 0.517886 1.701937 0.788829
v 0.523658 1.729982 0.738529
v 0.465561 1.725598 0.743942
v 0.466687 1.701579 0.787281
v 0.513806 1.705135 0.782891
v 0.509939 1.666762 0.754024
v 0.511871 1.698625 0.685611
v 0.475886 1.664193 0.757196
v 0.472764 1.703254 0.715106
v 0.514417 1.706397 0.711226
v 0.428573 1.612839 0.673670
v 0.408420 1.664464 0.623309
v 0.393755 1.655140 0.686289
v 0.392352 1.610104 0.677046
v 0.454193 1.703862 0.733449
v 0.378546 1.696214 0.740008
v 0.384925 1.661346 0.798482
v 0.444270 1.665829 0.792948
v 0.450300 1.697654 0.739971
v 0.388507 1.692985 0.745734
v 0.389800 1.665697 0.791373
v 0.439917 1.669483 0.786699
v 0.436114 1.622672 0.754421
v 0.438060 1.658486 0.682158
v 0.399895 1.619936 0.757798
v 0.396371 1.665265 0.714022
v 0.440672 1.668611 0.709891
v 0.312156 1.650029 0.697719
v 0.314844 1.696062 0.647289
v 0.340402 1.689517 0.702639
v 0.346210 1.652604 0.694541
v 0.297328 1.718569 0.753933
v 0.358011 1.724822 0.748694
v 0.367031 1.694387 0.803936
v 0.311233 1.690166 0.809144
v 0.303627 1.714431 0.759378
v 0.350336 1.720736 0.755729
v 0.360755 1.697418 0.798203
v 0.313635 1.693853 0.802601
v 0.317892 1.656095 0.772977
v 0.298747 1.686367 0.706526
v 0.351945 1.658670 0.769799
v 0.341431 1.697175 0.728395
v 0.299779 1.694025 0.732283
v 0.273270 2.547781 0.028253
v 0.266844 2.652098 0.088882
v 0.347622 2.170858 -0.155229
v 0.821026 2.807590 -0.004268
v 0.797872 2.709042 -0.077379
v 0.830252 2.871197 -0.057513
v 0.802114 2.787566 -0.141472
v 0.955595 2.806812 0.022135
v 0.936952 2.677307 -0.077449
v 0.967591 2.872386 -0.032882
v 0.945208 2.755909 -0.141474
v 0.765705 2.470289 -0.267311
v 0.765026 2.536301 -0.331979
v 0.896329 2.449107 -0.246107
v 0.899254 2.538052 -0.332446
v 0.543766 2.126733 -0.449296
v 0.497398 2.184783 -0.508680
v 1.426448 2.817360 0.121351
v 1.446603 2.706932 0.023044
v 1.449461 2.881250 0.071839
v 1.458237 2.772645 -0.028205
v 2.000686 2.634023 0.237338
v 2.006689 2.495537 0.157314
v 2.044827 2.686948 0.189283
v 2.060433 2.555575 0.104281
v 1.295189 2.890769 0.030527
v 1.329316 2.780417 -0.067961
v 1.280994 2.824499 0.083411
v 1.314181 2.700775 -0.003494
v 1.426417 2.035664 -0.800112
v 1.391124 1.956019 -0.734708
v 1.393246 2.459867 -0.350413
v 1.360038 2.375676 -0.281570
v 1.494884 2.362064 -0.275171
v 1.509019 2.424121 -0.322971
v 1.896836 2.567786 0.105610
v 2.553842 1.660260 0.393607
v 1.940011 2.616011 0.066058
v 2.634638 1.713182 0.346023
v 1.858809 2.708231 0.195608
v 1.899064 2.760480 0.149027
v 2.051877 1.961266 -0.551968
v 1.985836 1.901513 -0.501388
v 1.474221 2.925794 0.152265
v 1.451167 2.861487 0.202171
v 0.391676 2.215057 -0.062011
v 0.499010 1.959132 0.245176
v 0.399599 1.657047 0.558501
v 0.273253 2.249095 -0.125221
v 0.454704 2.253572 -0.298418
v 0.404520 2.296607 -0.303353
v 1.002247 2.251833 -0.654269
v 1.137395 2.771385 -0.107776
v 1.128441 2.692680 -0.043830
v 1.131779 2.884262 -0.003715
v 1.119759 2.818304 0.050308
v 0.992469 2.172785 -0.582720
v 1.133277 2.416489 -0.267553
v 1.144107 2.504071 -0.346364
v 2.049834 2.141342 -0.101338
v 2.124936 2.193687 -0.146805
v 1.980169 2.191347 -0.138361
v 2.059710 2.246949 -0.184059
v 2.295651 2.201004 0.215198
v 2.250113 2.173224 0.238777
v 0.643578 0.332434 -0.022293
v 0.612332 0.374907 0.049100
v 0.589986 0.313926 -0.006270
v 0.609670 0.189550 -0.004154
v 0.523424 0.310321 0.007267
v 0.487277 0.323078 -0.003815
v 0.504238 0.345530 0.103756
v 0.512711 0.141099 0.017851
v 0.393518 0.336147 -0.008741
v 0.394574 0.371609 0.111716
v 0.445293 0.317837 0.007812
v 0.422049 0.198461 0.039466
v 2.045245 2.659810 0.308600
v 2.089799 2.713089 0.260223
v 0.822577 2.776237 0.035762
v 0.799781 2.678338 -0.037953
v 0.952260 2.779047 0.058582
v 0.933002 2.647801 -0.039370
v 0.891566 2.422631 -0.210936
v 0.769700 2.441304 -0.229447
v 0.561868 2.106609 -0.419355
v 1.416720 2.790326 0.156876
v 1.435897 2.677323 0.060982
v 1.871998 2.541451 0.139937
v 1.945695 2.173094 -0.112057
v 1.273883 2.796546 0.119903
v 1.122907 2.664379 -0.006951
v 1.977387 2.610890 0.268675
v 1.982522 2.472690 0.188350
v 1.839036 2.687302 0.224975
v 1.114967 2.790408 0.086827
v 1.307279 2.674493 0.031416
v 1.349626 2.351651 -0.248929
v 1.480580 2.330684 -0.235676
v 1.378186 1.929488 -0.699774
v 2.227767 2.160649 0.260112
v 2.518024 1.642945 0.418971
v 2.014597 2.122778 -0.074766
v 1.956130 1.880898 -0.472671
v 0.370046 3.335736 0.701599
v 0.419947 3.004292 0.745187
v 0.465773 3.395330 1.054632
v 0.468032 3.015877 1.094659
v 0.254872 2.932189 1.742181
v 0.247130 3.104960 1.682447
v 0.263396 2.709965 1.193682
v 0.232172 2.746751 1.659814
v 0.358388 3.365785 1.271217
v 0.250744 3.024319 1.710328
v 0.186383 3.115909 1.703254
v 0.310222 3.450074 0.977883
v 0.431910 3.374393 0.930786
v 0.282175 3.430146 1.082049
v 0.448296 3.489989 0.950668
v 0.472342 3.484113 1.039788
v 0.367733 3.513323 0.984680
v 0.347681 3.519840 1.059005
v 0.465527 3.655559 1.008219
v -0.000066 2.145805 -0.453374
v -0.000244 2.389579 -0.163139
v -0.355974 1.995685 -0.414915
v -0.378759 2.528414 0.043798
v -0.462960 2.292648 0.296280
v -0.355905 1.444351 0.321295
v -0.378436 1.914758 0.617808
v 0.000025 1.333437 0.351551
v -0.000017 1.875565 0.699088
v -0.000163 2.231611 -0.293400
v -0.359070 2.139662 -0.116031
v -0.521346 1.864736 0.237023
v -0.402668 1.592089 0.526305
v 0.000069 1.493414 0.596909
v -0.000004 1.982712 -0.587544
v -0.258468 1.767066 -0.535376
v -0.299155 1.434577 -0.377733
v -0.318301 1.288527 -0.096708
v -0.000000 1.260832 0.003114
v -0.000000 1.320191 -0.203502
v -0.000000 1.387368 -0.399425
v -0.000000 1.504424 -0.535825
v -0.516143 1.985442 -0.121711
v -0.541687 1.887831 -0.273682
v -0.638761 1.663110 -0.119000
v -0.591912 1.800955 0.141321
v -0.643345 1.468231 0.178199
v -0.615643 1.507107 -0.267883
v -0.510849 1.680779 -0.390459
v -0.650996 1.335403 -0.114224
v -0.377838 1.157923 -0.120732
v -0.665841 1.153509 -0.129853
v -0.440667 0.923442 -0.117187
v -0.605626 0.932751 -0.143834
v -0.626645 0.964716 -0.318789
v -0.411683 0.950348 -0.314856
v -0.412283 0.798431 -0.130457
v -0.610183 0.801420 -0.159130
v -0.655006 0.834141 -0.361111
v -0.412283 0.832687 -0.352353
v -0.413106 0.509157 0.000087
v -0.611274 0.506049 -0.011122
v -0.655830 0.399223 -0.122080
v -0.413106 0.401587 -0.113553
v -0.667587 1.243127 0.189289
v -0.643213 1.004432 0.098154
v -0.443975 1.005954 0.106607
v -0.398273 1.251639 0.217285
v -0.483741 1.308236 -0.138034
v -0.463532 1.433775 -0.374158
v -0.440356 1.948695 -0.374186
v -0.432218 2.067105 -0.115176
v -0.536209 1.154226 -0.171472
v -0.408812 1.698568 -0.481338
v -0.566435 1.836362 0.199400
v -0.519970 1.452221 0.289061
v -0.518204 0.927236 -0.102536
v -0.540983 0.953817 -0.369986
v -0.511367 0.797948 -0.136672
v -0.533645 0.826864 -0.411452
v -0.500484 0.490217 0.045261
v -0.534468 0.361464 -0.068939
v -0.529649 0.999305 0.140858
v -0.525707 1.239171 0.269753
v -0.311366 2.954363 0.444881
v -0.000483 3.016829 0.335277
v -0.348365 2.866333 0.589951
v -0.248111 2.719601 0.792671
v -0.000398 2.607008 0.858399
v -0.000259 2.351203 0.764183
v -0.000353 2.707769 0.037103
v -0.350803 2.635384 0.104203
v -0.354300 2.501109 0.409072
v -0.276530 2.390198 0.682785
v -0.477273 0.380373 -0.089964
v -0.575358 0.374186 -0.086844
v -0.548177 0.300671 -0.045948
v -0.000000 1.815299 -0.840692
v -0.312474 1.663710 -0.727844
v -0.000000 1.472261 -0.662751
v -0.000000 1.711819 -1.099812
v -0.273559 1.542645 -1.142134
v -0.000000 1.365997 -1.029031
v -0.000000 1.546752 -1.558923
v -0.215636 1.439381 -1.475116
v -0.000000 1.269134 -1.431437
v -0.000000 1.566455 -1.823792
v -0.169748 1.441928 -1.847494
v -0.000000 1.332782 -1.903561
v -0.000000 1.434380 -2.341589
v -0.575100 2.306546 0.309092
v -0.482457 2.504286 0.173732
v -0.462989 2.584866 0.211839
v -0.542843 2.490260 0.361089
v -0.483673 2.223563 0.856998
v -0.343195 2.220593 0.848905
v -0.499863 2.078783 0.751503
v -0.328457 2.073739 0.746066
v -0.482450 2.128633 0.930951
v -0.339443 2.128337 0.923807
v -0.495622 1.996091 0.810109
v -0.338796 1.994813 0.804200
v -0.508800 1.835821 0.877218
v -0.320874 1.843906 0.888412
v -0.515309 1.859166 0.767728
v -0.314216 1.870653 0.781312
v -0.385191 1.864773 0.775470
v -0.382643 1.841254 0.884728
v -0.449612 1.838375 0.880736
v -0.441978 1.862332 0.772083
v -0.507709 1.661149 0.682240
v -0.488674 1.705463 0.633646
v -0.475121 1.696003 0.692789
v -0.473605 1.658477 0.685517
v -0.538367 1.735042 0.734338
v -0.461179 1.728994 0.741755
v -0.467339 1.698411 0.797439
v -0.523217 1.702789 0.792069
v -0.528759 1.730790 0.741601
v -0.470576 1.726231 0.747192
v -0.471912 1.702269 0.790659
v -0.519100 1.705966 0.786125
v -0.515214 1.667492 0.757385
v -0.516837 1.699270 0.688781
v -0.481112 1.664820 0.760661
v -0.477745 1.703836 0.718392
v -0.519459 1.707104 0.714385
v -0.433525 1.613119 0.677369
v -0.413037 1.664643 0.626820
v -0.398585 1.655377 0.689935
v -0.397251 1.610275 0.680856
v -0.459193 1.704418 0.736796
v -0.383436 1.696541 0.743593
v -0.390113 1.661762 0.802236
v -0.449545 1.666423 0.796521
v -0.455329 1.698203 0.743357
v -0.393444 1.693349 0.749309
v -0.394962 1.666120 0.795090
v -0.445153 1.670056 0.790264
v -0.441339 1.623129 0.758140
v -0.442954 1.658856 0.685669
v -0.405067 1.620285 0.761628
v -0.401278 1.665569 0.717650
v -0.445644 1.669048 0.713383
v -0.316867 1.650029 0.701606
v -0.319278 1.696027 0.650949
v -0.345094 1.689652 0.706308
v -0.350971 1.652706 0.698325
v -0.302045 1.718691 0.757657
v -0.362815 1.725128 0.752228
v -0.372116 1.694789 0.807612
v -0.316236 1.690402 0.812990
v -0.308385 1.714579 0.763106
v -0.355160 1.721027 0.759305
v -0.365800 1.697793 0.801879
v -0.318611 1.694088 0.806421
v -0.322861 1.656253 0.776898
v -0.303378 1.686378 0.710322
v -0.356964 1.658930 0.773616
v -0.346196 1.697367 0.732058
v -0.304483 1.694092 0.736072
v -0.273939 2.547571 0.028340
v -0.267574 2.651893 0.088967
v -0.348029 2.170611 -0.155126
v -0.821160 2.826058 -0.034737
v -0.797904 2.723015 -0.100634
v -0.821378 2.887657 -0.091670
v -0.791077 2.798738 -0.168684
v -0.956542 2.834742 -0.022887
v -0.936883 2.700649 -0.115193
v -0.959244 2.898030 -0.081514
v -0.933472 2.774954 -0.182016
v -0.763014 2.474237 -0.276293
v -0.751947 2.537520 -0.344797
v -0.893946 2.461688 -0.268467
v -0.884890 2.546917 -0.357902
v -0.539135 2.116317 -0.437357
v -0.487525 2.172204 -0.498003
v -1.434488 2.875337 0.030214
v -1.450482 2.760514 -0.062753
v -1.453238 2.935920 -0.022992
v -1.458425 2.821525 -0.117173
v -2.010575 2.676709 0.135380
v -2.010514 2.535572 0.061439
v -2.053755 2.725443 0.082826
v -2.062193 2.588417 0.004649
v -1.293848 2.939303 -0.052450
v -1.324389 2.825873 -0.148544
v -1.286618 2.875735 0.004043
v -1.317476 2.750468 -0.080435
v -1.382256 2.047520 -0.846443
v -1.355760 1.972166 -0.776270
v -1.374835 2.493254 -0.418225
v -1.348602 2.413857 -0.345042
v -1.486029 2.403230 -0.346816
v -1.489154 2.456379 -0.393611
v -1.900119 2.612349 0.009378
v -2.563667 1.694331 0.297231
v -1.941123 2.652321 -0.032145
v -2.641458 1.743178 0.241058
v -1.868162 2.756053 0.094252
v -1.907348 2.803802 0.043757
v -1.999305 1.966591 -0.622538
v -1.936843 1.911282 -0.564769
v -1.482140 2.984932 0.053172
v -1.463675 2.923815 0.106874
v -0.000193 2.271450 -0.277056
v -0.392217 2.214692 -0.061726
v -0.499132 1.958815 0.245308
v -0.399509 1.656895 0.558564
v 0.000071 1.546830 0.668833
v -0.273702 2.248590 -0.124809
v -0.451891 2.246165 -0.289719
v -0.400106 2.289271 -0.296345
v -0.975106 2.254548 -0.677318
v -1.128375 2.804495 -0.169139
v -1.130130 2.730276 -0.102403
v -1.126418 2.922064 -0.070207
v -1.122904 2.858603 -0.012668
v -0.975218 2.178787 -0.601829
v -1.128793 2.444717 -0.313622
v -1.129348 2.528996 -0.396516
v -2.031180 2.163023 -0.179022
v -2.103792 2.211641 -0.233044
v -1.960108 2.213186 -0.213575
v -2.036973 2.264560 -0.267637
v -2.302346 2.231845 0.113912
v -2.254893 2.205817 0.145977
v -0.643579 0.310300 -0.071908
v -0.612333 0.346072 0.003067
v -0.589987 0.290405 -0.057643
v -0.609671 0.166357 -0.066901
v -0.523425 0.285578 -0.044493
v -0.487277 0.299295 -0.054362
v -0.504239 0.311824 0.054810
v -0.512711 0.116098 -0.049415
v -0.393519 0.312760 -0.058074
v -0.394575 0.337067 0.065120
v -0.445294 0.293014 -0.043263
v -0.422050 0.171245 -0.022649
v -2.059208 2.704314 0.203353
v -2.102875 2.753536 0.150318
v -0.827885 2.796750 0.005980
v -0.804845 2.694222 -0.060415
v -0.958504 2.808964 0.014642
v -0.938123 2.672611 -0.075489
v -0.894613 2.436225 -0.231191
v -0.771554 2.446876 -0.237491
v -0.559664 2.097162 -0.406778
v -1.427890 2.850436 0.067213
v -1.443831 2.733167 -0.023426
v -1.876642 2.587836 0.046604
v -1.927268 2.196765 -0.183709
v -1.283732 2.849700 0.041988
v -1.129269 2.703793 -0.064103
v -1.988408 2.656123 0.168828
v -1.987298 2.514935 0.094972
v -1.849618 2.738046 0.125121
v -1.123019 2.832655 0.025089
v -1.314188 2.725711 -0.043690
v -1.341018 2.391595 -0.310517
v -1.475298 2.373935 -0.305493
v -1.346278 1.947658 -0.739543
v -2.232898 2.195424 0.169730
v -2.529631 1.679011 0.326093
v -1.997650 2.146578 -0.149109
v -1.908680 1.892700 -0.533014
v -0.373686 3.335032 0.705786
v -0.421766 3.003936 0.747922
v -0.464997 3.393754 1.063055
v -0.464571 3.013950 1.104629
v -0.233176 2.930921 1.748550
v -0.227895 3.103724 1.688646
v -0.256180 2.708824 1.199533
v -0.211670 2.745597 1.665605
v -0.352410 3.364260 1.279067
v -0.002136 3.463802 0.683391
v 0.002833 3.395339 1.260700
v 0.000926 3.483675 1.123450
v -0.001084 3.515615 0.896548
v 0.011593 2.947129 1.805606
v 0.010522 3.147606 1.763490
v 0.003426 2.650009 1.199376
v 0.010923 2.726110 1.710168
v -0.230360 3.023068 1.716606
v -0.166683 3.114991 1.707861
v -0.311022 3.449148 0.982948
v -0.433199 3.373190 0.937457
v -0.281240 3.429319 1.086587
v -0.449643 3.488646 0.958013
v -0.472197 3.482671 1.047644
v -0.368605 3.512213 0.990740
v -0.347356 3.518796 1.064708
v -0.466427 3.654151 1.015903
vt 0.100000 0.500000
vt 0.300000 0.500000
vt 0.500000 0.500000
vt 0.700000 0.500000
vt 0.900000 0.500000
vn 0.3666 0.5024 -0.7831
vn 0.9678 0.1290 -0.2160
vn 0.9495 0.0369 0.3117
vn 0.3393 0.6961 -0.6327
vn 0.2913 -0.8036 0.5190
vn 0.7647 0.6219 0.1687
vn 0.7124 0.2279 -0.6637
vn 0.3233 0.8340 -0.4471
vn 0.3798 0.4359 -0.8160
vn 0.6723 0.6765 -0.3006
vn 0.2432 -0.9328 0.2661
vn -0.0030 -0.9611 -0.2761
vn 0.1964 0.1801 -0.9638
vn -0.0024 -0.8854 -0.4648
vn 0.5985 -0.6960 0.3966
vn 0.3102 -0.5006 -0.8082
vn 0.1080 -0.9060 -0.4094
vn 0.9826 0.1620 0.0911
vn 0.9328 -0.3577 0.0449
vn 0.9340 0.3553 -0.0389
vn 0.9976 0.0364 -0.0588
vn 0.8959 0.1679 -0.4113
vn 0.7517 0.1199 0.6486
vn 0.6269 -0.1702 -0.7602
vn 0.9646 -0.2633 -0.0131
vn -0.0708 -0.2976 0.9520
vn 0.9951 0.0958 -0.0253
vn 0.4045 0.2835 -0.8695
vn 0.2665 0.6702 -0.6927
vn -0.9601 -0.2582 0.1074
vn -0.9124 -0.3626 0.1898
vn -1.0000 -0.0020 0.0006
vn 0.9793 0.0905 0.1808
vn -0.9916 0.1026 0.0783
vn -0.0474 -0.1493 0.9877
vn 0.4428 -0.4661 0.7659
vn -0.1369 0.5431 0.8284
vn 0.0870 -0.6135 -0.7849
vn 0.9606 0.1543 0.2312
vn 0.9935 -0.1113 0.0258
vn -0.9641 -0.2350 0.1234
vn 0.4103 -0.3954 0.8218
vn -0.1165 -0.9439 0.3091
vn 0.1592 -0.9519 0.2620
vn -0.3719 -0.4410 0.8168
vn -0.1470 -0.6109 -0.7779
vn 0.2756 0.5364 0.7977
vn -0.4551 -0.5931 0.6642
vn 0.3268 -0.1556 0.9322
vn -0.2595 0.6590 -0.7060
vn -0.4008 0.2613 -0.8781
vn 0.5836 0.0247 0.8117
vn 0.0811 -0.3931 -0.9159
vn 0.3249 0.1175 0.9384
vn 0.4501 -0.6780 -0.5812
vn -0.2764 0.0845 -0.9573
vn 0.6241 0.7092 -0.3279
vn 0.4720 0.2715 -0.8387
vn 0.6720 0.7028 0.2334
vn 0.2991 0.5490 -0.7805
vn 0.9477 -0.0818 0.3085
vn 0.9946 0.0959 -0.0398
vn 0.0363 0.9140 0.4042
vn 0.9045 0.1777 0.3876
vn 0.5645 -0.7996 0.2047
vn 0.5758 0.7278 -0.3725
vn 0.6051 -0.7790 0.1643
vn 0.4854 0.8206 -0.3017
vn 0.5863 -0.8045 -0.0949
vn 0.4875 0.8155 -0.3119
vn 0.5740 -0.7977 -0.1850
vn 0.5164 0.8563 -0.0073
vn 0.5602 0.8026 -0.2047
vn 0.9234 0.2777 -0.2648
vn 0.7351 0.4530 -0.5044
vn 0.1580 -0.5034 -0.8495
vn 0.9824 0.0629 0.1760
vn 0.9954 0.0324 0.0900
vn 0.0839 -0.8983 -0.4313
vn 0.0893 0.8562 0.5089
vn -0.9667 -0.1154 -0.2286
vn -0.9937 0.1101 -0.0219
vn 0.0393 -0.5818 -0.8124
vn -0.9984 0.0105 0.0555
vn -0.0485 0.6203 0.7829
vn 0.0477 -0.1795 0.9826
vn 0.9945 0.0956 0.0421
vn -0.0615 0.1971 -0.9784
vn -0.1000 -0.9003 -0.4237
vn 0.9936 -0.0916 -0.0667
vn 0.0208 -0.8742 -0.4851
vn 0.0507 -0.1307 0.9901
vn -0.0196 -0.1568 0.9874
vn -0.0409 0.2930 -0.9552
vn 0.0159 0.2485 -0.9685
vn -0.9889 -0.1453 0.0302
vn 0.0208 -0.8742 -0.4850
vn 0.0702 -0.5203 0.8511
vn -0.0770 0.2308 -0.9700
vn 0.0208 -0.8743 -0.4850
vn 0.9853 0.0706 0.1555
vn 0.0169 -0.8580 -0.5135
vn -0.9997 -0.0197 0.0134
vn 0.2453 -0.8431 -0.4785
vn 0.0169 -0.8579 -0.5135
vn 0.0716 -0.4293 0.9003
vn -0.0800 0.2010 -0.9763
vn 0.0155 -0.7883 -0.6151
vn 0.9987 0.0396 0.0309
vn 0.0209 -0.8742 -0.4850
vn 0.0713 -0.4581 0.8860
vn -0.0817 0.1718 -0.9817
vn 0.0527 -0.8365 -0.5454
vn -0.9917 0.0138 0.1277
vn 0.2710 0.5087 -0.8172
vn 0.2733 0.6679 -0.6922
vn 0.4671 0.7399 -0.4840
vn -0.7747 0.2291 -0.5894
vn -0.0444 0.6251 0.7793
vn -0.4416 0.5786 -0.6858
vn 0.2404 0.6774 -0.6952
vn -0.1570 0.7936 0.5879
vn 0.1368 0.6687 -0.7308
vn -0.1412 0.6494 0.7472
vn -0.7120 0.5393 -0.4496
vn 0.0658 0.6225 -0.7798
vn -0.0090 0.4546 -0.8907
vn 0.9855 -0.1693 -0.0121
vn -0.1749 -0.8407 0.5125
vn 0.9386 -0.3348 0.0831
vn 0.1888 0.7262 0.6611
vn 0.4733 0.5269 -0.7059
vn -0.5078 -0.6583 0.5557
vn -0.1188 0.7869 0.6055
vn -0.1800 0.6398 0.7472
vn 0.1213 0.6788 -0.7243
vn 0.1682 -0.7908 -0.5886
vn 0.3617 0.6913 -0.6255
vn 0.3065 0.6514 -0.6941
vn 0.1625 -0.7988 -0.5792
vn 0.0300 0.6275 0.7781
vn -0.9931 0.0427 0.1088
vn 0.7602 0.3637 -0.5384
vn 0.3136 0.5961 -0.7391
vn 0.3628 0.3516 0.8630
vn -0.9638 0.1604 -0.2130
vn -0.1423 0.7766 0.6138
vn 0.6691 -0.6772 0.3061
vn 0.5816 0.5546 -0.5951
vn 0.7051 0.5527 -0.4442
vn 0.1906 0.8327 -0.5199
vn 0.9201 -0.3853 -0.0705
vn -0.5301 0.6127 0.5862
vn 0.6788 0.4854 -0.5510
vn 0.9228 0.0505 0.3818
vn 0.9406 0.0634 -0.3336
vn 0.4132 0.5463 -0.7285
vn 0.0777 0.6748 -0.7339
vn -0.1756 0.6471 0.7419
vn -0.8387 0.2731 0.4711
vn -0.1267 -0.5797 0.8049
vn -0.1672 -0.5929 0.7877
vn -0.1963 -0.3888 0.9001
vn -0.1919 -0.6319 0.7509
vn -0.5361 -0.4773 0.6963
vn -0.1354 -0.6012 0.7876
vn -0.1832 -0.7234 0.6657
vn -0.1672 -0.6560 0.7360
vn -0.8433 -0.4738 0.2535
vn -0.2926 -0.5867 0.7551
vn -0.6229 -0.5144 0.5894
vn -0.6725 -0.5844 0.4541
vn -0.0908 -0.5925 0.8004
vn -0.1516 0.7969 0.5848
vn -0.9758 0.0504 -0.2126
vn 0.6780 -0.7163 -0.1653
vn 0.7350 -0.4711 -0.4877
vn 0.7655 -0.3283 0.5534
vn 0.9655 -0.0825 0.2468
vn -0.4376 -0.5151 -0.7370
vn -0.1175 -0.7565 -0.6434
vn 0.4810 0.3946 0.7829
vn 0.0908 0.7807 0.6183
vn -0.3944 -0.4680 -0.7908
vn -0.1150 0.8023 0.5857
vn 0.3019 -0.5165 0.8013
vn 0.4914 0.6687 -0.5580
vn -0.1961 0.7383 0.6454
vn 0.1783 0.1349 0.9747
vn 0.9776 0.0480 -0.2050
vn 0.8952 -0.4081 0.1793
vn 0.3036 0.2535 0.9185
vn 0.9340 0.1359 0.3304
vn 0.1576 0.9218 0.3541
vn 0.1773 -0.9771 0.1172
vn 0.3261 -0.9447 0.0335
vn 0.2013 0.1851 0.9619
vn 0.3303 0.7541 0.5677
vn 0.3211 0.9069 -0.2729
vn 0.8500 -0.5246 -0.0476
vn 0.2388 -0.3856 0.8912
vn 0.2050 -0.4182 0.8849
vn 0.8918 0.0527 0.4494
vn 0.9369 0.0375 -0.3475
vn 0.7928 -0.6077 -0.0470
vn 0.1448 0.8627 0.4846
vn 0.9618 -0.1017 -0.2543
vn 0.1835 0.9689 0.1662
vn -0.7752 0.5759 -0.2596
vn -0.2552 0.2450 -0.9353
vn -0.7771 0.6077 -0.1638
vn 0.9653 -0.0097 -0.2611
vn -0.2801 0.3411 -0.8974
vn 0.1797 0.8674 0.4640
vn 0.6762 -0.4130 -0.6101
vn -0.3682 0.5012 -0.7831
vn -0.9675 0.1270 -0.2188
vn -0.9496 0.0338 0.3117
vn -0.3399 0.6956 -0.6330
vn -0.2910 -0.8037 0.5190
vn -0.7649 0.6216 0.1688
vn -0.7126 0.2278 -0.6636
vn -0.3240 0.8336 -0.4473
vn -0.3798 0.4358 -0.8160
vn -0.6726 0.6763 -0.3003
vn -0.2431 -0.9328 0.2661
vn 0.0030 -0.9611 -0.2761
vn -0.1964 0.1801 -0.9638
vn 0.0024 -0.8854 -0.4648
vn -0.5985 -0.6961 0.3965
vn -0.3102 -0.5006 -0.8082
vn -0.1080 -0.9060 -0.4094
vn -0.9826 0.1620 0.0911
vn -0.9326 -0.3580 0.0452
vn -0.9341 0.3550 -0.0387
vn -0.9976 0.0364 -0.0588
vn -0.8959 0.1678 -0.4113
vn -0.7517 0.1197 0.6486
vn -0.6270 -0.1703 -0.7602
vn -0.9649 -0.2623 -0.0134
vn 0.0708 -0.2977 0.9520
vn -0.9951 0.0958 -0.0253
vn -0.3959 0.3132 -0.8632
vn -0.2679 0.6677 -0.6945
vn 0.9607 -0.2558 0.1074
vn 0.9124 -0.3627 0.1898
vn 1.0000 -0.0021 0.0004
vn -0.9792 0.0823 0.1852
vn 0.9919 0.0963 0.0826
vn 0.0436 -0.1772 0.9832
vn -0.4428 -0.5341 0.7201
vn 0.1352 0.4613 0.8769
vn -0.0906 -0.5402 -0.8366
vn -0.9610 0.1315 0.2433
vn -0.9935 -0.1113 0.0258
vn 0.9641 -0.2350 0.1234
vn -0.4103 -0.3954 0.8218
vn 0.1110 -0.9425 0.3153
vn -0.1612 -0.9506 0.2652
vn 0.3719 -0.4410 0.8168
vn 0.1513 -0.5380 -0.8293
vn -0.2757 0.4579 0.8452
vn 0.4551 -0.6513 0.6072
vn -0.3264 -0.1789 0.9282
vn 0.2600 0.6567 -0.7079
vn 0.3943 0.2921 -0.8713
vn -0.5836 0.0247 0.8117
vn -0.0811 -0.3931 -0.9159
vn -0.3249 0.1173 0.9384
vn -0.4501 -0.6780 -0.5812
vn 0.2764 0.0845 -0.9573
vn -0.6245 0.7089 -0.3278
vn -0.4722 0.2715 -0.8387
vn -0.6723 0.7025 0.2335
vn -0.3044 0.5492 -0.7783
vn -0.9474 -0.0826 0.3093
vn -0.9944 0.0975 -0.0413
vn -0.0257 0.9150 0.4027
vn -0.9033 0.1764 0.3912
vn -0.5645 -0.7996 0.2047
vn -0.5758 0.7278 -0.3725
vn -0.6051 -0.7790 0.1643
vn -0.4854 0.8206 -0.3017
vn -0.5863 -0.8045 -0.0949
vn -0.4875 0.8155 -0.3119
vn -0.5740 -0.7977 -0.1850
vn -0.5164 0.8563 -0.0073
vn -0.5602 0.8026 -0.2047
vn -0.9210 0.2745 -0.2763
vn -0.7256 0.4547 -0.5165
vn -0.1595 -0.5056 -0.8479
vn -0.9829 0.0618 0.1734
vn -0.9956 0.0344 0.0871
vn -0.0877 -0.8989 -0.4294
vn -0.0821 0.8576 0.5077
vn 0.9670 -0.1190 -0.2251
vn 0.9940 0.1076 -0.0187
vn -0.0393 -0.5841 -0.8107
vn 0.9982 0.0077 0.0593
vn 0.0492 0.6225 0.7811
vn -0.0508 -0.1758 0.9831
vn -0.9944 0.0979 0.0386
vn 0.0646 0.1933 -0.9790
vn 0.0982 -0.9015 -0.4215
vn -0.9935 -0.0897 -0.0701
vn -0.0222 -0.8752 -0.4832
vn -0.0536 -0.1268 0.9905
vn 0.0167 -0.1531 0.9881
vn 0.0443 0.2896 -0.9561
vn -0.0128 0.2450 -0.9694
vn 0.9885 -0.1477 0.0340
vn -0.0221 -0.8753 -0.4832
vn -0.0222 -0.8753 -0.4831
vn -0.0740 -0.5173 0.8526
vn 0.0803 0.2270 -0.9706
vn -0.9856 0.0735 0.1521
vn -0.0182 -0.8591 -0.5116
vn 0.9996 -0.0220 0.0169
vn -0.2462 -0.8435 -0.4774
vn -0.0182 -0.8591 -0.5115
vn -0.0752 -0.4261 0.9016
vn 0.0831 0.1972 -0.9768
vn -0.0162 -0.7897 -0.6132
vn -0.9987 0.0420 0.0274
vn -0.0751 -0.4550 0.8873
vn 0.0847 0.1680 -0.9821
vn -0.0537 -0.8376 -0.5436
vn 0.9913 0.0120 0.1313
vn -0.2716 0.5085 -0.8171
vn -0.2740 0.6677 -0.6922
vn -0.4674 0.7399 -0.4839
vn 0.8076 0.2043 -0.5532
vn 0.0380 0.6561 0.7537
vn 0.4883 0.5456 -0.6811
vn -0.1711 0.6472 -0.7429
vn 0.1519 0.8127 0.5625
vn -0.0218 0.6385 -0.7694
vn 0.1059 0.6767 0.7286
vn 0.7321 0.5362 -0.4201
vn 0.0467 0.5889 -0.8069
vn 0.1192 0.4561 -0.8819
vn -0.9883 -0.1128 -0.1029
vn 0.1011 -0.8230 0.5590
vn -0.9486 -0.3153 0.0283
vn -0.2482 0.7532 0.6091
vn -0.4629 0.4693 -0.7520
vn 0.5125 -0.6029 0.6115
vn 0.1082 0.8072 0.5803
vn 0.1453 0.6677 0.7301
vn -0.0119 0.6460 -0.7632
vn -0.1634 -0.8082 -0.5657
vn -0.3545 0.6509 -0.6713
vn -0.2692 0.6128 -0.7430
vn -0.1555 -0.8198 -0.5511
vn -0.0796 0.6667 0.7410
vn 0.9815 -0.0012 0.1914
vn -0.7243 0.3265 -0.6073
vn -0.3020 0.5447 -0.7824
vn -0.4280 0.3820 0.8191
vn 0.9802 0.1309 -0.1489
vn 0.1455 0.7914 0.5937
vn -0.6736 -0.6811 0.2870
vn -0.5629 0.5058 -0.6537
vn -0.6803 0.5242 -0.5123
vn -0.1225 0.8128 -0.5695
vn -0.9197 -0.3771 -0.1091
vn 0.5007 0.6289 0.5948
vn -0.6780 0.4870 -0.5506
vn -0.9228 0.0499 0.3819
vn -0.9407 0.0626 -0.3333
vn -0.4137 0.5486 -0.7265
vn 0.0435 0.6400 -0.7671
vn 0.1434 0.6725 0.7261
vn 0.8155 0.2610 0.5166
vn -0.0008 -0.5482 0.8364
vn 0.0424 -0.5617 0.8263
vn 0.0810 -0.3941 0.9155
vn 0.1136 -0.6004 0.7916
vn 0.5348 -0.4284 0.7284
vn 0.0242 -0.5710 0.8206
vn 0.1175 -0.6908 0.7134
vn 0.0984 -0.6228 0.7762
vn 0.8260 -0.4376 0.3553
vn 0.2825 -0.5447 0.7896
vn 0.6077 -0.4553 0.6507
vn 0.6506 -0.5553 0.5180
vn -0.0358 -0.5611 0.8270
vn 0.1439 0.8182 0.5566
vn 0.9904 0.0224 -0.1363
vn -0.6467 -0.7458 -0.1600
vn -0.7170 -0.4582 -0.5253
vn -0.7915 -0.3110 0.5262
vn -0.9829 -0.0485 0.1778
vn 0.4936 -0.5398 -0.6819
vn 0.1650 -0.7852 -0.5969
vn -0.5400 0.4203 0.7292
vn -0.1395 0.8128 0.5656
vn 0.4642 -0.4935 -0.7355
vn 0.0979 0.8288 0.5509
vn -0.3535 -0.4783 0.8039
vn -0.4933 0.6151 -0.6150
vn 0.1387 0.7758 0.6156
vn -0.1607 0.1382 0.9773
vn -0.9811 0.0432 -0.1884
vn -0.8884 -0.4115 0.2037
vn -0.2808 0.2520 0.9261
vn -0.9257 0.1301 0.3552
vn -0.1541 0.9212 0.3572
vn -0.1700 -0.9779 0.1220
vn -0.3244 -0.9451 0.0389
vn -0.1854 0.1849 0.9651
vn -0.3193 0.7526 0.5758
vn -0.3271 0.9063 -0.2676
vn -0.8455 -0.5327 -0.0381
vn -0.2135 -0.3867 0.8971
vn -0.1797 -0.4192 0.8900
vn -0.8828 0.0501 0.4670
vn -0.9371 0.0352 -0.3472
vn -0.8043 -0.5933 -0.0317
vn -0.1373 0.8618 0.4883
vn -0.9658 -0.1058 -0.2367
vn -0.1834 0.9683 0.1693
vn 0.7690 0.5783 -0.2724
vn 0.2396 0.2484 -0.9386
vn 0.7724 0.6101 -0.1764
vn -0.9695 -0.0127 -0.2448
vn 0.2646 0.3422 -0.9016
vn -0.1677 0.8708 0.4622
vn -0.6712 -0.4168 -0.6130
vn -0.4834 0.6582 -0.5771
vn -0.0994 -0.6425 0.7598
vn -0.7425 -0.6664 0.0673
vn 0.1129 0.6666 -0.7368
vn -0.3591 -0.6910 0.6274
vn -0.1769 0.7066 -0.6851
vn -0.1304 -0.7412 0.6585
vn -0.3657 -0.6010 0.7107
vn -0.1219 -0.7023 -0.7013
vn 0.3500 -0.6050 0.7152
vn -0.5110 0.4803 -0.7129
vn 0.5310 -0.4136 0.7395
vn 0.5704 -0.8212 0.0183
vn -0.2836 -0.9038 -0.3205
vn -0.5539 0.8101 -0.1921
vn -0.0471 -0.6113 0.7900
vn 0.0618 0.6588 -0.7498
vn -0.5095 -0.4747 -0.7177
vn 0.1621 -0.7395 0.6533
vn 0.1329 0.7298 -0.6707
vn 0.3578 0.6171 -0.7008
vn 0.3521 0.7129 -0.6064
vn 0.1938 -0.7069 -0.6803
vn 0.3394 -0.8292 -0.4441
vn -0.7525 -0.4457 0.4849
vn -0.8075 -0.3987 0.4347
vn 0.8178 0.4192 -0.3942
vn 0.8029 0.4468 -0.3947
vn 0.1568 -0.7755 -0.6116
vn 0.5194 0.6218 -0.5861
vn -0.0025 -0.6074 0.7944
vn 0.7254 -0.6783 0.1168
vn -0.0187 0.6337 -0.7734
vn 0.3719 -0.6391 0.6732
vn 0.2648 0.6729 -0.6907
vn 0.0386 -0.7085 0.7047
vn 0.3679 -0.5493 0.7502
vn 0.1312 -0.7371 -0.6629
vn -0.3851 -0.5681 0.7273
vn 0.5424 0.4537 -0.7071
vn -0.5569 -0.3883 0.7342
vn -0.5895 -0.8066 0.0429
vn 0.2889 -0.9095 -0.2988
vn 0.5813 0.7762 -0.2443
vn -0.0786 -0.5734 0.8155
vn 0.0621 0.6275 -0.7762
vn 0.5565 -0.5242 -0.6446
vn -0.2544 -0.7059 0.6611
vn -0.0492 0.6956 -0.7167
vn -0.3510 0.5661 -0.7458
vn -0.3529 0.6719 -0.6511
vn -0.1497 -0.7419 -0.6536
vn -0.2869 -0.8563 -0.4295
vn 0.7300 -0.3987 0.5550
vn 0.7791 -0.3736 0.5034
vn -0.7905 0.3869 -0.4749
vn -0.7779 0.4169 -0.4702
vn -0.1620 -0.7889 -0.5927
vn 0.2617 -0.1362 0.9555
vn 0.3377 -0.2941 0.8942
vn 0.2518 -0.1045 0.9621
vn 0.3229 -0.6208 0.7144
vn -0.2614 -0.1364 0.9555
vn -0.3365 -0.2956 0.8941
vn -0.2516 -0.1047 0.9622
vn -0.3226 -0.6209 0.7144
vn -0.1132 -0.4562 -0.8826
vn -0.9913 0.1108 -0.0711
vn 0.9371 0.0787 0.3400
vn -0.9847 -0.0062 0.1742
vn -0.1909 -0.4918 -0.8495
vn -0.9239 0.0436 0.3802
vn 0.0971 -0.5958 -0.7973
vn 0.8778 0.0784 0.4726
vn 0.1807 -0.4349 -0.8822
vn 0.8924 0.0486 0.4487
vn -0.9792 -0.1834 -0.0867
vn -0.1165 0.7708 -0.6264
vn 0.9769 -0.2028 -0.0669
vn 0.8784 -0.1309 -0.4597
vn 0.1190 -0.6045 0.7876
vn -0.0610 0.9876 0.1450
vn -0.9734 0.0831 -0.2135
vn -0.0981 0.9550 -0.2800
vn 0.0819 -0.9939 0.0739
vn 0.9775 -0.2110 0.0046
vn -0.9954 0.0223 0.0937
vn -0.0071 -0.7384 -0.6744
vn -0.9825 -0.1668 -0.0825
vn -0.1179 0.7330 -0.6700
vn 0.9829 -0.1743 -0.0599
vn 0.8846 -0.0991 -0.4556
vn 0.1189 -0.5702 0.8129
vn -0.0624 0.9893 0.1319
vn -0.9736 0.0746 -0.2157
vn -0.1018 0.9375 -0.3327
vn 0.0853 -0.9900 0.1126
vn 0.9829 -0.1837 0.0117
vn -0.9958 0.0115 0.0911
vn -0.0135 -0.7009 -0.7131
vn 0.9632 -0.0354 -0.2665
vn -0.1356 0.7860 -0.6032
vn -0.9310 -0.3481 0.1097
vn -0.9178 -0.2676 -0.2932
vn 0.1192 -0.6045 0.7876
vn -0.0611 0.9875 0.1450
vn 0.8944 0.2255 -0.3863
vn -0.0984 0.9550 -0.2800
vn 0.0820 -0.9939 0.0739
vn -0.9631 -0.1914 0.1893
vn 0.9809 0.1729 -0.0892
vn -0.8626 -0.1282 0.4893
vn -0.2673 -0.0587 -0.9618
vn 0.8710 -0.1472 0.4688
vn 0.8943 -0.1413 0.4246
vn -0.9772 -0.1154 0.1782
vn 0.2673 -0.0770 -0.9605
vn -0.0793 -0.0572 -0.9952
vn 0.8868 -0.0509 0.4592
vn 0.1981 -0.2871 -0.9372
vn -0.9814 -0.1816 0.0621
vn 0.3581 0.3194 0.8774
vn 0.1132 -0.3737 -0.9206
vn 0.9913 0.1168 -0.0606
vn -0.9371 0.0473 0.3458
vn 0.9847 -0.0221 0.1729
vn 0.1909 -0.4121 -0.8909
vn 0.9239 0.0087 0.3826
vn -0.0971 -0.5204 -0.8484
vn -0.8778 0.0349 0.4778
vn -0.1807 -0.3525 -0.9182
vn -0.8924 0.0074 0.4513
vn 0.9790 -0.1862 -0.0831
vn 0.1206 0.7689 -0.6279
vn -0.9771 -0.2009 -0.0699
vn -0.8769 -0.1306 -0.4626
vn -0.1230 -0.6019 0.7891
vn 0.0636 0.9876 0.1434
vn 0.9743 0.0801 -0.2104
vn 0.1018 0.9542 -0.2815
vn -0.0851 -0.9935 0.0754
vn -0.9779 -0.2089 0.0016
vn 0.9951 0.0204 0.0972
vn 0.0066 -0.7402 -0.6724
vn 0.9824 -0.1696 -0.0789
vn 0.1219 0.7309 -0.6715
vn -0.9830 -0.1724 -0.0631
vn -0.8831 -0.0988 -0.4587
vn -0.1228 -0.5674 0.8143
vn 0.0650 0.9893 0.1303
vn 0.9745 0.0716 -0.2126
vn 0.1056 0.9366 -0.3342
vn -0.0885 -0.9895 0.1141
vn -0.9833 -0.1815 0.0087
vn 0.9955 0.0095 0.0947
vn 0.0133 -0.7029 -0.7111
vn -0.9623 -0.0343 -0.2700
vn 0.1396 0.7842 -0.6047
vn 0.9298 -0.3502 0.1136
vn 0.9179 -0.2711 -0.2899
vn -0.1232 -0.6018 0.7891
vn 0.0637 0.9876 0.1434
vn -0.8925 0.2263 -0.3902
vn 0.1020 0.9541 -0.2815
vn -0.0852 -0.9935 0.0753
vn 0.9620 -0.1931 0.1932
vn -0.9802 0.1750 -0.0930
vn 0.8626 -0.1724 0.4756
vn 0.2673 0.0295 -0.9632
vn -0.8710 -0.1894 0.4533
vn -0.8943 -0.1795 0.4099
vn 0.9772 -0.1312 0.1669
vn -0.2673 0.0111 -0.9636
vn 0.0793 0.0339 -0.9963
vn -0.8868 -0.0927 0.4527
vn -0.1981 -0.2002 -0.9595
vn 0.9814 -0.1865 0.0452
vn -0.3367 0.3176 0.8864
usemtl Main
s off
f 467/4/1 262/4/1 138/4/1 186/4/1
f 183/4/2 2/4/2 3/4/2 184/4/2
f 184/4/3 3/4/3 5/4/3 185/4/3
f 57/4/4 139/4/4 326/4/4 54/4/4
f 4/4/5 8/4/5 274/4/5 268/4/5
f 41/4/6 44/4/6 15/4/6 12/4/6
f 43/4/7 40/4/7 13/4/7 18/4/7
f 261/4/8 270/4/8 140/4/8
f 261/4/9 1/4/9 9/4/9 275/4/9
f 40/4/10 41/4/10 12/4/10 13/4/10
f 4/4/11 268/4/11 279/4/11 11/4/11
f 279/4/12 280/4/12 11/4/12
f 38/4/13 19/4/13 21/4/13 42/4/13
f 38/4/14 11/4/14 10/4/14 39/4/14
f 9/4/15 282/4/15 340/4/15 63/4/15
f 9/4/16 10/4/16 281/4/16 282/4/16
f 10/4/17 11/4/17 280/4/17 281/4/17
f 14/4/18 15/4/18 16/4/18
f 4/4/19 7/4/19 8/4/19
f 13/4/20 12/4/20 15/4/20 14/4/20
f 14/4/21 16/4/21 19/4/21 17/4/21
f 13/4/22 14/4/22 17/4/22 18/4/22
f 44/4/23 45/4/23 16/4/23 15/4/23
f 39/4/24 43/4/24 18/4/24 17/4/24
f 21/4/25 35/4/25 23/4/25 24/4/25
f 45/4/26 4/4/26 37/4/26 53/4/26
f 19/4/27 16/4/27 34/4/27 21/4/27
f 47/4/28 24/4/28 28/4/28 49/4/28
f 42/4/29 21/4/29 24/4/29 47/4/29
f 36/4/30 20/4/30 25/4/30 22/4/30
f 4/4/31 11/4/31 20/4/31 37/4/31
f 26/4/32 29/4/32 33/4/32 30/4/32
f 24/4/33 23/4/33 27/4/33 28/4/33
f 22/4/34 25/4/34 29/4/34 26/4/34
f 46/4/35 22/4/35 26/4/35 48/4/35
f 50/4/36 61/4/36 31/4/36
f 48/4/37 26/4/37 30/4/37 50/4/37
f 49/4/38 28/4/38 32/4/38 61/4/38 51/4/38
f 28/4/39 27/4/39 31/4/39 32/4/39
f 34/4/40 35/4/40 21/4/40
f 36/4/41 37/4/41 20/4/41
f 52/4/42 35/4/42 34/4/42 53/4/42
f 52/4/43 36/4/43 22/4/43 46/4/43
f 35/4/44 52/4/44 46/4/44 23/4/44
f 36/4/45 52/4/45 53/4/45 37/4/45
f 29/4/46 49/4/46 51/4/46 60/4/46 33/4/46
f 27/4/47 48/4/47 50/4/47 31/4/47
f 30/4/48 60/4/48 50/4/48
f 23/4/49 46/4/49 48/4/49 27/4/49
f 20/4/50 42/4/50 47/4/50 25/4/50
f 25/4/51 47/4/51 49/4/51 29/4/51
f 16/4/52 45/4/52 53/4/52 34/4/52
f 10/4/53 9/4/53 43/4/53 39/4/53
f 7/4/54 4/4/54 45/4/54 44/4/54
f 19/4/55 38/4/55 39/4/55 17/4/55
f 11/4/56 38/4/56 42/4/56 20/4/56
f 1/4/57 6/4/57 41/4/57 40/4/57
f 9/4/58 1/4/58 40/4/58 43/4/58
f 6/4/59 7/4/59 44/4/59 41/4/59
f 537/4/60 242/4/60 54/4/60 326/4/60
f 59/4/61 58/4/61 55/4/61 56/4/61
f 58/4/62 57/4/62 54/4/62 55/4/62
f 57/4/63 58/4/63 69/4/63
f 5/4/64 3/4/64 58/4/64 59/4/64
f 63/4/65 340/4/65 343/4/65 64/4/65
f 275/4/66 9/4/66 63/4/66 338/4/66
f 64/4/67 343/4/67 346/4/67 65/4/67
f 338/4/68 63/4/68 64/4/68 341/4/68
f 65/4/69 346/4/69 349/4/69 66/4/69
f 341/4/70 64/4/70 65/4/70 344/4/70
f 66/4/71 349/4/71 350/4/71
f 344/4/72 65/4/72 66/4/72 347/4/72
f 347/4/73 66/4/73 350/4/73
f 67/4/74 68/4/74 69/4/74 70/4/74
f 2/4/75 57/4/75 69/4/75 68/4/75
f 3/4/76 68/4/76 67/4/76
f 67/4/77 70/4/77 71/4/77 73/4/77
f 73/4/78 71/4/78 75/4/78 77/4/78
f 3/4/79 67/4/79 73/4/79 74/4/79
f 70/4/80 58/4/80 72/4/80 71/4/80
f 58/4/81 3/4/81 74/4/81 72/4/81
f 76/4/82 78/4/82 82/4/82 80/4/82
f 74/4/83 73/4/83 77/4/83 78/4/83
f 72/4/84 74/4/84 78/4/84 76/4/84
f 71/4/85 72/4/85 76/4/85 75/4/85
f 75/4/86 85/4/86 79/4/86
f 77/4/87 75/4/87 79/4/87 81/4/87
f 78/4/88 83/4/88 82/4/88
f 125/4/89 129/4/89 132/4/89 128/4/89
f 84/4/90 127/4/90 126/4/90 83/4/90
f 127/4/91 131/4/91 130/4/91 126/4/91
f 84/4/92 76/4/92 80/4/92
f 85/4/93 75/4/93 76/4/93 84/4/93
f 86/4/94 77/4/94 81/4/94
f 83/4/95 78/4/95 77/4/95 86/4/95
f 93/4/91 92/4/91 96/4/91 97/4/91
f 85/4/96 86/4/96 92/4/96 93/4/96
f 91/4/97 94/4/97 98/4/97 95/4/97
f 94/4/97 93/4/97 97/4/97 98/4/97
f 79/4/98 85/4/98 93/4/98 94/4/98
f 86/4/99 81/4/99 91/4/99 92/4/99
f 92/4/100 91/4/100 95/4/100 96/4/100
f 81/4/101 79/4/101 94/4/101 91/4/101
f 110/4/102 109/4/102 113/4/102 114/4/102
f 84/4/103 83/4/103 109/4/103 110/4/103
f 108/4/104 111/4/104 115/4/104 112/4/104
f 111/4/105 110/4/105 114/4/105 115/4/105
f 85/4/106 84/4/106 110/4/106 111/4/106
f 83/4/107 86/4/107 108/4/107 109/4/107
f 109/4/108 108/4/108 112/4/108 113/4/108
f 86/4/109 85/4/109 111/4/109 108/4/109
f 128/4/110 132/4/110 131/4/110 127/4/110
f 80/4/111 128/4/111 127/4/111 84/4/111
f 83/4/112 126/4/112 125/4/112 82/4/112
f 126/4/113 130/4/113 129/4/113 125/4/113
f 82/4/114 125/4/114 128/4/114 80/4/114
f 139/4/115 138/4/115 262/4/115 331/4/115
f 326/4/116 139/4/116 331/4/116
f 140/4/117 6/4/117 1/4/117 261/4/117
f 173/4/118 199/4/118 227/4/118 226/4/118
f 139/4/119 57/4/119 141/4/119 143/4/119
f 138/4/120 139/4/120 143/4/120 144/4/120
f 164/4/121 163/4/121 157/4/121 158/4/121
f 193/4/122 145/4/122 219/4/122 233/4/122
f 144/4/123 143/4/123 147/4/123 148/4/123
f 143/4/124 141/4/124 145/4/124 147/4/124
f 199/4/125 180/4/125 241/4/125 227/4/125
f 144/4/126 148/4/126 152/4/126 150/4/126
f 150/4/127 152/4/127 154/4/127
f 151/4/128 146/4/128 220/4/128 221/4/128
f 165/4/129 155/4/129 182/4/129
f 168/4/130 171/4/130 236/4/130 237/4/130
f 159/4/131 177/4/131 232/4/131 230/4/131
f 175/4/132 178/4/132 161/4/132 162/4/132
f 177/4/133 159/4/133 215/4/133
f 145/4/134 141/4/134 217/4/134 219/4/134
f 192/4/135 193/4/135 165/4/135 163/4/135
f 190/4/136 192/4/136 163/4/136 164/4/136
f 146/4/137 191/4/137 229/4/137 220/4/137
f 169/4/138 172/4/138 167/4/138
f 164/4/139 158/4/139 172/4/139 169/4/139
f 191/4/140 166/4/140 234/4/140 229/4/140
f 157/4/141 155/4/141 177/4/141 178/4/141
f 142/4/142 149/4/142 222/4/142 218/4/142
f 162/4/143 161/4/143 176/4/143 201/4/143
f 158/4/144 157/4/144 178/4/144 175/4/144
f 161/4/145 159/4/145 174/4/145 176/4/145
f 170/4/146 168/4/146 237/4/146 235/4/146
f 141/4/147 57/4/147 217/4/147
f 180/4/148 197/4/148 240/4/148 241/4/148
f 175/4/149 162/4/149 198/4/149 200/4/149
f 200/4/150 198/4/150 179/4/150
f 157/4/151 163/4/151 181/4/151
f 155/4/152 157/4/152 181/4/152 182/4/152
f 163/4/153 165/4/153 182/4/153 181/4/153
f 140/4/154 186/4/154 183/4/154 6/4/154
f 7/4/155 184/4/155 185/4/155 8/4/155
f 6/4/156 183/4/156 184/4/156 7/4/156
f 270/4/157 467/4/157 186/4/157 140/4/157
f 148/4/158 147/4/158 192/4/158 190/4/158
f 147/4/159 145/4/159 193/4/159 192/4/159
f 149/4/160 153/4/160 223/4/160 222/4/160
f 217/4/161 218/4/161 220/4/161 219/4/161
f 220/4/162 218/4/162 222/4/162 221/4/162
f 221/4/163 222/4/163 223/4/163
f 228/4/164 234/4/164 225/4/164 224/4/164
f 232/4/165 226/4/165 231/4/165 230/4/165
f 233/4/166 229/4/166 234/4/166 228/4/166
f 236/4/167 235/4/167 237/4/167
f 225/4/168 234/4/168 235/4/168 236/4/168
f 230/4/169 231/4/169 238/4/169 239/4/169
f 224/4/170 225/4/170 226/4/170 232/4/170
f 231/4/171 226/4/171 227/4/171 240/4/171
f 240/4/172 227/4/172 241/4/172
f 219/4/173 220/4/173 229/4/173 233/4/173
f 165/4/174 193/4/174 233/4/174 228/4/174
f 166/4/175 170/4/175 235/4/175 234/4/175
f 159/4/176 161/4/176 216/4/176 215/4/176
f 153/4/177 151/4/177 221/4/177 223/4/177
f 197/4/178 160/4/178 231/4/178 240/4/178
f 171/4/179 156/4/179 225/4/179 236/4/179
f 160/4/180 202/4/180 238/4/180 231/4/180
f 156/4/181 173/4/181 226/4/181 225/4/181
f 174/4/182 159/4/182 230/4/182 239/4/182
f 177/4/183 155/4/183 224/4/183 232/4/183
f 202/4/184 174/4/184 239/4/184 238/4/184
f 155/4/185 165/4/185 228/4/185 224/4/185
f 57/4/186 2/4/186 218/4/186 217/4/186
f 161/4/187 178/4/187 216/4/187
f 178/4/188 177/4/188 215/4/188 216/4/188
f 255/4/189 244/4/189 257/4/189 259/4/189
f 243/4/190 242/4/190 254/4/190 244/4/190 245/4/190
f 248/4/191 245/4/191 246/4/191 249/4/191
f 246/4/192 251/4/192 252/4/192 542/4/192 541/4/192
f 246/4/193 245/4/193 250/4/193 247/4/193 251/4/193
f 244/4/194 255/4/194 539/4/194 538/4/194 250/4/194
f 543/4/195 248/4/195 249/4/195 544/4/195
f 329/4/196 56/4/196 248/4/196 543/4/196
f 259/4/197 257/4/197 260/4/197
f 250/4/198 252/4/198 247/4/198
f 242/4/199 537/4/199 540/4/199 253/4/199 254/4/199
f 55/4/200 243/4/200 245/4/200 248/4/200
f 541/4/201 544/4/201 249/4/201
f 246/4/202 541/4/202 249/4/202
f 245/4/203 244/4/203 250/4/203
f 55/4/204 54/4/204 242/4/204 243/4/204
f 248/4/205 56/4/205 55/4/205
f 538/4/206 542/4/206 252/4/206 250/4/206
f 244/4/207 254/4/207 256/4/207 257/4/207
f 255/4/208 253/4/208 540/4/208 539/4/208
f 258/4/209 259/4/209 260/4/209
f 254/4/210 253/4/210 258/4/210 256/4/210
f 253/4/211 255/4/211 259/4/211 258/4/211
f 257/4/212 256/4/212 260/4/212
f 256/4/213 258/4/213 260/4/213
f 69/4/214 58/4/214 70/4/214
f 68/4/215 3/4/215 2/4/215
f 467/4/216 472/4/216 422/4/216 262/4/216
f 468/4/217 469/4/217 265/4/217 264/4/217
f 469/4/218 470/4/218 267/4/218 265/4/218
f 332/4/219 325/4/219 326/4/219 423/4/219
f 266/4/220 268/4/220 274/4/220 273/4/220
f 312/4/221 283/4/221 286/4/221 315/4/221
f 314/4/222 289/4/222 284/4/222 311/4/222
f 261/4/223 424/4/223 270/4/223
f 261/4/224 275/4/224 276/4/224 263/4/224
f 311/4/225 284/4/225 283/4/225 312/4/225
f 266/4/226 278/4/226 279/4/226 268/4/226
f 279/4/227 278/4/227 280/4/227
f 309/4/228 313/4/228 292/4/228 290/4/228
f 309/4/229 310/4/229 277/4/229 278/4/229
f 276/4/230 339/4/230 340/4/230 282/4/230
f 276/4/231 282/4/231 281/4/231 277/4/231
f 277/4/232 281/4/232 280/4/232 278/4/232
f 285/4/233 287/4/233 286/4/233
f 266/4/234 273/4/234 272/4/234
f 284/4/235 285/4/235 286/4/235 283/4/235
f 285/4/236 288/4/236 290/4/236 287/4/236
f 284/4/237 289/4/237 288/4/237 285/4/237
f 315/4/238 286/4/238 287/4/238 316/4/238
f 310/4/239 288/4/239 289/4/239 314/4/239
f 292/4/240 295/4/240 294/4/240 306/4/240
f 316/4/241 324/4/241 308/4/241 266/4/241
f 290/4/242 292/4/242 305/4/242 287/4/242
f 318/4/243 320/4/243 299/4/243 295/4/243
f 313/4/244 318/4/244 295/4/244 292/4/244
f 307/4/245 293/4/245 296/4/245 291/4/245
f 266/4/246 308/4/246 291/4/246 278/4/246
f 297/4/247 301/4/247 304/4/247 300/4/247
f 295/4/248 299/4/248 298/4/248 294/4/248
f 293/4/249 297/4/249 300/4/249 296/4/249
f 317/4/250 319/4/250 297/4/250 293/4/250
f 321/4/251 302/4/251 336/4/251
f 319/4/252 321/4/252 301/4/252 297/4/252
f 320/4/253 322/4/253 336/4/253 303/4/253 299/4/253
f 299/4/254 303/4/254 302/4/254 298/4/254
f 305/4/255 292/4/255 306/4/255
f 307/4/256 291/4/256 308/4/256
f 323/4/257 324/4/257 305/4/257 306/4/257
f 323/4/258 317/4/258 293/4/258 307/4/258
f 306/4/259 294/4/259 317/4/259 323/4/259
f 307/4/260 308/4/260 324/4/260 323/4/260
f 300/4/261 304/4/261 335/4/261 322/4/261 320/4/261
f 298/4/262 302/4/262 321/4/262 319/4/262
f 301/4/263 321/4/263 335/4/263
f 294/4/264 298/4/264 319/4/264 317/4/264
f 291/4/265 296/4/265 318/4/265 313/4/265
f 296/4/266 300/4/266 320/4/266 318/4/266
f 287/4/267 305/4/267 324/4/267 316/4/267
f 277/4/268 310/4/268 314/4/268 276/4/268
f 272/4/269 315/4/269 316/4/269 266/4/269
f 290/4/270 288/4/270 310/4/270 309/4/270
f 278/4/271 291/4/271 313/4/271 309/4/271
f 263/4/272 311/4/272 312/4/272 271/4/272
f 276/4/273 314/4/273 311/4/273 263/4/273
f 271/4/274 312/4/274 315/4/274 272/4/274
f 537/4/275 326/4/275 325/4/275 528/4/275
f 334/4/276 328/4/276 327/4/276 333/4/276
f 333/4/277 327/4/277 325/4/277 332/4/277
f 332/4/278 353/4/278 333/4/278
f 267/4/279 334/4/279 333/4/279 265/4/279
f 339/4/280 342/4/280 343/4/280 340/4/280
f 275/4/281 338/4/281 339/4/281 276/4/281
f 342/4/282 345/4/282 346/4/282 343/4/282
f 338/4/283 341/4/283 342/4/283 339/4/283
f 345/4/284 348/4/284 349/4/284 346/4/284
f 341/4/285 344/4/285 345/4/285 342/4/285
f 348/4/286 350/4/286 349/4/286
f 344/4/287 347/4/287 348/4/287 345/4/287
f 347/4/288 350/4/288 348/4/288
f 351/4/289 354/4/289 353/4/289 352/4/289
f 264/4/290 352/4/290 353/4/290 332/4/290
f 265/4/291 351/4/291 352/4/291
f 351/4/292 357/4/292 355/4/292 354/4/292
f 357/4/293 361/4/293 359/4/293 355/4/293
f 265/4/294 358/4/294 357/4/294 351/4/294
f 354/4/295 355/4/295 356/4/295 333/4/295
f 333/4/296 356/4/296 358/4/296 265/4/296
f 360/4/297 364/4/297 366/4/297 362/4/297
f 358/4/298 362/4/298 361/4/298 357/4/298
f 356/4/299 360/4/299 362/4/299 358/4/299
f 355/4/300 359/4/300 360/4/300 356/4/300
f 359/4/301 363/4/301 369/4/301
f 361/4/302 365/4/302 363/4/302 359/4/302
f 362/4/303 366/4/303 367/4/303
f 409/4/304 412/4/304 416/4/304 413/4/304
f 368/4/305 367/4/305 410/4/305 411/4/305
f 411/4/306 410/4/306 414/4/306 415/4/306
f 368/4/307 364/4/307 360/4/307
f 369/4/308 368/4/308 360/4/308 359/4/308
f 370/4/309 365/4/309 361/4/309
f 367/4/310 370/4/310 361/4/310 362/4/310
f 377/4/306 381/4/306 380/4/306 376/4/306
f 369/4/311 377/4/311 376/4/311 370/4/311
f 375/4/312 379/4/312 382/4/312 378/4/312
f 378/4/313 382/4/313 381/4/313 377/4/313
f 363/4/314 378/4/314 377/4/314 369/4/314
f 370/4/315 376/4/315 375/4/315 365/4/315
f 376/4/313 380/4/313 379/4/313 375/4/313
f 365/4/316 375/4/316 378/4/316 363/4/316
f 394/4/317 398/4/317 397/4/317 393/4/317
f 368/4/318 394/4/318 393/4/318 367/4/318
f 392/4/319 396/4/319 399/4/319 395/4/319
f 395/4/320 399/4/320 398/4/320 394/4/320
f 369/4/321 395/4/321 394/4/321 368/4/321
f 367/4/322 393/4/322 392/4/322 370/4/322
f 393/4/323 397/4/323 396/4/323 392/4/323
f 370/4/324 392/4/324 395/4/324 369/4/324
f 412/4/306 411/4/306 415/4/306 416/4/306
f 364/4/325 368/4/325 411/4/325 412/4/325
f 367/4/326 366/4/326 409/4/326 410/4/326
f 410/4/327 409/4/327 413/4/327 414/4/327
f 366/4/328 364/4/328 412/4/328 409/4/328
f 423/4/329 331/4/329 262/4/329 422/4/329
f 326/4/330 331/4/330 423/4/330
f 424/4/331 261/4/331 263/4/331 271/4/331
f 457/4/332 512/4/332 513/4/332 485/4/332
f 423/4/333 427/4/333 425/4/333 332/4/333
f 422/4/334 428/4/334 427/4/334 423/4/334
f 448/4/335 442/4/335 441/4/335 447/4/335
f 479/4/336 519/4/336 505/4/336 429/4/336
f 428/4/337 432/4/337 431/4/337 427/4/337
f 427/4/338 431/4/338 429/4/338 425/4/338
f 485/4/339 513/4/339 527/4/339 464/4/339
f 428/4/340 434/4/340 436/4/340 432/4/340
f 434/4/341 438/4/341 436/4/341
f 435/4/342 507/4/342 506/4/342 430/4/342
f 449/4/343 466/4/343 439/4/343
f 452/4/344 523/4/344 522/4/344 455/4/344
f 443/4/345 516/4/345 518/4/345 461/4/345
f 459/4/346 446/4/346 445/4/346 462/4/346
f 461/4/347 501/4/347 443/4/347
f 429/4/348 505/4/348 503/4/348 425/4/348
f 478/4/349 447/4/349 449/4/349 479/4/349
f 476/4/350 448/4/350 447/4/350 478/4/350
f 430/4/351 506/4/351 515/4/351 477/4/351
f 453/4/352 451/4/352 456/4/352
f 448/4/353 453/4/353 456/4/353 442/4/353
f 477/4/354 515/4/354 520/4/354 450/4/354
f 441/4/355 462/4/355 461/4/355 439/4/355
f 426/4/356 504/4/356 508/4/356 433/4/356
f 446/4/357 487/4/357 460/4/357 445/4/357
f 442/4/358 459/4/358 462/4/358 441/4/358
f 445/4/359 460/4/359 458/4/359 443/4/359
f 454/4/360 521/4/360 523/4/360 452/4/360
f 425/4/361 503/4/361 332/4/361
f 464/4/362 527/4/362 526/4/362 483/4/362
f 459/4/363 486/4/363 484/4/363 446/4/363
f 486/4/364 463/4/364 484/4/364
f 441/4/365 465/4/365 447/4/365
f 439/4/366 466/4/366 465/4/366 441/4/366
f 447/4/367 465/4/367 466/4/367 449/4/367
f 424/4/368 271/4/368 468/4/368 472/4/368
f 272/4/369 273/4/369 470/4/369 469/4/369
f 271/4/370 272/4/370 469/4/370 468/4/370
f 270/4/371 424/4/371 472/4/371 467/4/371
f 432/4/372 476/4/372 478/4/372 431/4/372
f 431/4/373 478/4/373 479/4/373 429/4/373
f 433/4/374 508/4/374 509/4/374 437/4/374
f 503/4/375 505/4/375 506/4/375 504/4/375
f 506/4/376 507/4/376 508/4/376 504/4/376
f 507/4/377 509/4/377 508/4/377
f 514/4/378 510/4/378 511/4/378 520/4/378
f 518/4/379 516/4/379 517/4/379 512/4/379
f 519/4/380 514/4/380 520/4/380 515/4/380
f 522/4/381 523/4/381 521/4/381
f 511/4/382 522/4/382 521/4/382 520/4/382
f 516/4/383 525/4/383 524/4/383 517/4/383
f 510/4/384 518/4/384 512/4/384 511/4/384
f 517/4/385 526/4/385 513/4/385 512/4/385
f 526/4/386 527/4/386 513/4/386
f 505/4/387 519/4/387 515/4/387 506/4/387
f 449/4/388 514/4/388 519/4/388 479/4/388
f 450/4/389 520/4/389 521/4/389 454/4/389
f 443/4/390 501/4/390 502/4/390 445/4/390
f 437/4/391 509/4/391 507/4/391 435/4/391
f 483/4/392 526/4/392 517/4/392 444/4/392
f 455/4/393 522/4/393 511/4/393 440/4/393
f 444/4/394 517/4/394 524/4/394 488/4/394
f 440/4/395 511/4/395 512/4/395 457/4/395
f 458/4/396 525/4/396 516/4/396 443/4/396
f 461/4/397 518/4/397 510/4/397 439/4/397
f 488/4/398 524/4/398 525/4/398 458/4/398
f 439/4/399 510/4/399 514/4/399 449/4/399
f 332/4/400 503/4/400 504/4/400 264/4/400
f 445/4/401 502/4/401 462/4/401
f 462/4/402 502/4/402 501/4/402 461/4/402
f 549/4/403 553/4/403 551/4/403 530/4/403
f 529/4/404 531/4/404 530/4/404 548/4/404 528/4/404
f 534/4/405 535/4/405 532/4/405 531/4/405
f 532/4/406 541/4/406 542/4/406 546/4/406 545/4/406
f 532/4/407 545/4/407 533/4/407 536/4/407 531/4/407
f 530/4/408 536/4/408 538/4/408 539/4/408 549/4/408
f 543/4/409 544/4/409 535/4/409 534/4/409
f 329/4/410 543/4/410 534/4/410 328/4/410
f 553/4/411 554/4/411 551/4/411
f 536/4/412 533/4/412 546/4/412
f 528/4/413 548/4/413 547/4/413 540/4/413 537/4/413
f 327/4/414 534/4/414 531/4/414 529/4/414
f 541/4/415 535/4/415 544/4/415
f 532/4/416 535/4/416 541/4/416
f 531/4/417 536/4/417 530/4/417
f 327/4/418 529/4/418 528/4/418 325/4/418
f 534/4/419 327/4/419 328/4/419
f 538/4/420 536/4/420 546/4/420 542/4/420
f 530/4/421 551/4/421 550/4/421 548/4/421
f 549/4/422 539/4/422 540/4/422 547/4/422
f 552/4/423 554/4/423 553/4/423
f 548/4/424 550/4/424 552/4/424 547/4/424
f 547/4/425 552/4/425 553/4/425 549/4/425
f 551/4/426 554/4/426 550/4/426
f 550/4/427 554/4/427 552/4/427
f 353/4/428 354/4/428 333/4/428
f 352/4/429 264/4/429 265/4/429
usemtl Wings
f 154/5/430 188/5/430 150/5/430
f 170/5/431 166/5/431 191/5/431 195/5/431
f 187/5/432 188/5/432 154/5/432 153/5/432
f 164/5/433 169/5/433 196/5/433 190/5/433
f 168/5/434 180/5/434 199/5/434 171/5/434
f 189/5/435 154/5/435 152/5/435 196/5/435
f 195/5/436 194/5/436 168/5/436 170/5/436
f 173/5/437 156/5/437 171/5/437 199/5/437
f 189/5/438 194/5/438 153/5/438 154/5/438
f 153/5/439 149/5/439 187/5/439
f 186/5/440 138/5/440 144/5/440 150/5/440
f 2/5/441 183/5/441 149/5/441 142/5/441
f 187/5/442 149/5/442 183/5/442
f 183/5/443 186/5/443 188/5/443 187/5/443
f 150/5/444 188/5/444 186/5/444
f 195/5/445 191/5/445 146/5/445 151/5/445
f 190/5/446 196/5/446 152/5/446 148/5/446
f 167/5/447 168/5/447 194/5/447 189/5/447
f 151/5/448 153/5/448 194/5/448 195/5/448
f 167/5/449 189/5/449 196/5/449 169/5/449
f 172/5/450 158/5/450 175/5/450 200/5/450
f 167/5/451 172/5/451 200/5/451 179/5/451
f 168/5/452 167/5/452 179/5/452 180/5/452
f 174/5/453 180/5/453 179/5/453 176/5/453
f 202/5/454 160/5/454 197/5/454
f 202/5/455 197/5/455 180/5/455 174/5/455
f 201/5/456 198/5/456 162/5/456
f 179/5/457 198/5/457 201/5/457 176/5/457
f 2/5/458 142/5/458 218/5/458
f 438/5/459 434/5/459 474/5/459
f 454/5/460 481/5/460 477/5/460 450/5/460
f 473/5/461 437/5/461 438/5/461 474/5/461
f 448/5/462 476/5/462 482/5/462 453/5/462
f 452/5/463 455/5/463 485/5/463 464/5/463
f 475/5/464 482/5/464 436/5/464 438/5/464
f 481/5/465 454/5/465 452/5/465 480/5/465
f 457/5/466 485/5/466 455/5/466 440/5/466
f 475/5/467 438/5/467 437/5/467 480/5/467
f 437/5/468 473/5/468 433/5/468
f 472/5/469 434/5/469 428/5/469 422/5/469
f 264/5/470 426/5/470 433/5/470 468/5/470
f 473/5/471 468/5/471 433/5/471
f 468/5/472 473/5/472 474/5/472 472/5/472
f 434/5/473 472/5/473 474/5/473
f 481/5/474 435/5/474 430/5/474 477/5/474
f 476/5/475 432/5/475 436/5/475 482/5/475
f 451/5/476 475/5/476 480/5/476 452/5/476
f 435/5/477 481/5/477 480/5/477 437/5/477
f 451/5/478 453/5/478 482/5/478 475/5/478
f 456/5/479 486/5/479 459/5/479 442/5/479
f 451/5/480 463/5/480 486/5/480 456/5/480
f 452/5/481 464/5/481 463/5/481 451/5/481
f 458/5/482 460/5/482 463/5/482 464/5/482
f 488/5/483 483/5/483 444/5/483
f 488/5/484 458/5/484 464/5/484 483/5/484
f 487/5/485 446/5/485 484/5/485
f 463/5/486 460/5/486 487/5/486 484/5/486
f 264/5/487 504/5/487 426/5/487
usemtl Belly
f 185/1/488 5/1/488 269/1/488 471/1/488
f 330/1/489 59/1/489 56/1/489 329/1/489
f 269/1/490 5/1/490 59/1/490 330/1/490
f 8/1/491 185/1/491 471/1/491 274/1/491
f 470/1/492 471/1/492 269/1/492 267/1/492
f 330/1/493 329/1/493 328/1/493 334/1/493
f 269/1/494 330/1/494 334/1/494 267/1/494
f 273/1/495 274/1/495 471/1/495 470/1/495
usemtl Claws
f 51/2/496 61/2/496 62/2/496 207/2/496
f 30/2/497 33/2/497 211/2/497 212/2/497
f 32/2/498 31/2/498 204/2/498 203/2/498
f 50/2/499 60/2/499 208/2/499 209/2/499
f 61/2/500 32/2/500 203/2/500 205/2/500
f 31/2/501 61/2/501 205/2/501 204/2/501
f 33/2/502 60/2/502 213/2/502 211/2/502
f 60/2/503 30/2/503 212/2/503 213/2/503
f 60/2/504 51/2/504 207/2/504 208/2/504
f 61/2/505 50/2/505 209/2/505 62/2/505
f 97/2/506 96/2/506 102/2/506 101/2/506
f 96/2/507 95/2/507 103/2/507 102/2/507
f 103/2/508 99/2/508 87/2/508 100/2/508
f 100/2/509 87/2/509 88/2/509
f 98/2/510 97/2/510 101/2/510 99/2/510
f 89/2/511 100/2/511 88/2/511
f 89/2/512 88/2/512 90/2/512
f 102/2/513 103/2/513 100/2/513 89/2/513
f 99/2/514 101/2/514 90/2/514 87/2/514
f 95/2/515 98/2/515 99/2/515 103/2/515
f 101/2/516 102/2/516 89/2/516 90/2/516
f 87/2/517 90/2/517 88/2/517
f 114/2/518 113/2/518 119/2/518 118/2/518
f 113/2/519 112/2/519 120/2/519 119/2/519
f 120/2/520 116/2/520 104/2/520 117/2/520
f 117/2/521 104/2/521 105/2/521
f 115/2/522 114/2/522 118/2/522 116/2/522
f 106/2/523 117/2/523 105/2/523
f 106/2/524 105/2/524 107/2/524
f 119/2/525 120/2/525 117/2/525 106/2/525
f 116/2/526 118/2/526 107/2/526 104/2/526
f 112/2/527 115/2/527 116/2/527 120/2/527
f 118/2/528 119/2/528 106/2/528 107/2/528
f 104/2/529 107/2/529 105/2/529
f 131/2/530 135/2/530 136/2/530 130/2/530
f 130/2/531 136/2/531 137/2/531 129/2/531
f 137/2/532 134/2/532 121/2/532 133/2/532
f 134/2/533 122/2/533 121/2/533
f 132/2/534 133/2/534 135/2/534 131/2/534
f 123/2/535 122/2/535 134/2/535
f 123/2/536 124/2/536 122/2/536
f 136/2/537 123/2/537 134/2/537 137/2/537
f 133/2/538 121/2/538 124/2/538 135/2/538
f 129/2/539 137/2/539 133/2/539 132/2/539
f 135/2/540 124/2/540 123/2/540 136/2/540
f 121/2/517 122/2/517 124/2/517
f 204/2/541 205/2/541 206/2/541
f 205/2/542 203/2/542 206/2/542
f 203/2/543 204/2/543 206/2/543
f 62/2/544 209/2/544 210/2/544
f 209/2/545 208/2/545 210/2/545
f 208/2/546 207/2/546 210/2/546
f 207/2/547 62/2/547 210/2/547
f 213/2/548 212/2/548 214/2/548
f 211/2/549 213/2/549 214/2/549
f 212/2/550 211/2/550 214/2/550
f 252/2/551 251/2/551 247/2/551
f 322/2/552 493/2/552 337/2/552 336/2/552
f 301/2/553 498/2/553 497/2/553 304/2/553
f 303/2/554 489/2/554 490/2/554 302/2/554
f 321/2/555 495/2/555 494/2/555 335/2/555
f 336/2/556 491/2/556 489/2/556 303/2/556
f 302/2/557 490/2/557 491/2/557 336/2/557
f 304/2/558 497/2/558 499/2/558 335/2/558
f 335/2/559 499/2/559 498/2/559 301/2/559
f 335/2/560 494/2/560 493/2/560 322/2/560
f 336/2/561 337/2/561 495/2/561 321/2/561
f 381/2/562 385/2/562 386/2/562 380/2/562
f 380/2/563 386/2/563 387/2/563 379/2/563
f 387/2/564 384/2/564 371/2/564 383/2/564
f 384/2/565 372/2/565 371/2/565
f 382/2/566 383/2/566 385/2/566 381/2/566
f 373/2/567 372/2/567 384/2/567
f 373/2/568 374/2/568 372/2/568
f 386/2/569 373/2/569 384/2/569 387/2/569
f 383/2/570 371/2/570 374/2/570 385/2/570
f 379/2/571 387/2/571 383/2/571 382/2/571
f 385/2/572 374/2/572 373/2/572 386/2/572
f 371/2/573 372/2/573 374/2/573
f 398/2/574 402/2/574 403/2/574 397/2/574
f 397/2/575 403/2/575 404/2/575 396/2/575
f 404/2/576 401/2/576 388/2/576 400/2/576
f 401/2/577 389/2/577 388/2/577
f 399/2/578 400/2/578 402/2/578 398/2/578
f 390/2/579 389/2/579 401/2/579
f 390/2/580 391/2/580 389/2/580
f 403/2/581 390/2/581 401/2/581 404/2/581
f 400/2/582 388/2/582 391/2/582 402/2/582
f 396/2/583 404/2/583 400/2/583 399/2/583
f 402/2/584 391/2/584 390/2/584 403/2/584
f 388/2/585 389/2/585 391/2/585
f 415/2/586 414/2/586 420/2/586 419/2/586
f 414/2/587 413/2/587 421/2/587 420/2/587
f 421/2/588 417/2/588 405/2/588 418/2/588
f 418/2/589 405/2/589 406/2/589
f 416/2/590 415/2/590 419/2/590 417/2/590
f 407/2/591 418/2/591 406/2/591
f 407/2/592 406/2/592 408/2/592
f 420/2/593 421/2/593 418/2/593 407/2/593
f 417/2/594 419/2/594 408/2/594 405/2/594
f 413/2/595 416/2/595 417/2/595 421/2/595
f 419/2/596 420/2/596 407/2/596 408/2/596
f 405/2/573 408/2/573 406/2/573
f 490/2/597 492/2/597 491/2/597
f 491/2/598 492/2/598 489/2/598
f 489/2/599 492/2/599 490/2/599
f 337/2/600 496/2/600 495/2/600
f 495/2/601 496/2/601 494/2/601
f 494/2/602 496/2/602 493/2/602
f 493/2/603 496/2/603 337/2/603
f 499/2/604 500/2/604 498/2/604
f 497/2/605 500/2/605 499/2/605
f 498/2/606 500/2/606 497/2/606
f 546/2/607 533/2/607 545/2/607
o Eyes_Cylinder.001
v 0.353466 3.147155 1.291418
v 0.450223 3.249646 1.292382
v 0.316526 3.278621 1.326338
v 0.232782 3.201638 1.243102
v 0.314725 3.125085 1.157704
v 0.449110 3.154757 1.188162
v 0.386880 3.364895 1.236147
v 0.262157 3.337356 1.207879
v 0.261124 3.249290 1.111153
v 0.385208 3.222398 1.079639
v 0.462930 3.293846 1.156890
v 0.332005 3.207025 1.327786
v 0.410590 3.189994 1.307827
v 0.388878 3.267268 1.328353
v 0.466808 3.194463 1.247135
v 0.409936 3.134220 1.246569
v 0.282782 3.161776 1.278861
v 0.261069 3.239049 1.299386
v 0.330947 3.116779 1.228666
v 0.260010 3.148803 1.200266
v 0.387165 3.121248 1.167973
v 0.479840 3.274499 1.230149
v 0.479185 3.218724 1.168890
v 0.353090 3.336526 1.300303
v 0.431675 3.319496 1.280345
v 0.224877 3.273836 1.233475
v 0.274100 3.319086 1.282401
v 0.272387 3.173065 1.122021
v 0.224222 3.218061 1.172216
v 0.429962 3.173474 1.119964
v 0.350972 3.156034 1.102062
v 0.437660 3.342881 1.196645
v 0.319649 3.368456 1.226616
v 0.245732 3.300505 1.153147
v 0.318059 3.232935 1.077769
v 0.436678 3.259125 1.104652
v 0.450041 3.353673 1.200491
v 0.392480 3.378625 1.245268
v 0.316273 3.382663 1.234464
v 0.251105 3.347410 1.213225
v 0.232486 3.305639 1.151185
v 0.249934 3.247585 1.103584
v 0.314470 3.229047 1.065743
v 0.390586 3.217103 1.067862
v 0.448927 3.258733 1.096216
v 0.478685 3.298091 1.155428
v 0.449854 3.366576 1.188746
v 0.392294 3.391528 1.233522
v 0.316086 3.395566 1.222719
v 0.250918 3.360313 1.201480
v 0.232299 3.318542 1.139440
v 0.249747 3.260488 1.091839
v 0.314284 3.241949 1.053997
v 0.390399 3.230006 1.056117
v 0.448740 3.271636 1.084470
v 0.478498 3.310993 1.143682
v 0.375228 3.400266 1.158869
v 0.425898 3.352929 1.106063
v 0.351537 3.368310 1.092853
v 0.292130 3.381918 1.140035
v 0.291442 3.323243 1.075590
v 0.374114 3.305326 1.054593
v -0.344615 3.145339 1.300527
v -0.441845 3.247327 1.304022
v -0.307460 3.276998 1.334480
v -0.225518 3.200446 1.249082
v -0.309261 3.123463 1.165846
v -0.442958 3.152437 1.199802
v -0.380591 3.362899 1.246161
v -0.256507 3.336008 1.214647
v -0.257540 3.247941 1.117921
v -0.382262 3.220403 1.089653
v -0.458313 3.291451 1.168911
v -0.322524 3.205323 1.336326
v -0.401513 3.187882 1.318424
v -0.379674 3.265270 1.338381
v -0.459318 3.192055 1.259219
v -0.402167 3.132108 1.257165
v -0.274359 3.160327 1.286131
v -0.252520 3.237714 1.306088
v -0.323583 3.115077 1.237207
v -0.253579 3.147468 1.206968
v -0.381387 3.119249 1.178002
v -0.473204 3.272021 1.242584
v -0.473859 3.216246 1.181325
v -0.344991 3.334711 1.309412
v -0.423981 3.317271 1.291510
v -0.218241 3.272684 1.239257
v -0.266406 3.317681 1.289454
v -0.268119 3.171659 1.129073
v -0.218896 3.216909 1.177998
v -0.425694 3.171249 1.131129
v -0.347109 3.154219 1.111171
v -0.432270 3.340619 1.207996
v -0.313651 3.366809 1.234880
v -0.241323 3.299239 1.159502
v -0.315240 3.231288 1.086032
v -0.433252 3.256862 1.116004
v -0.444602 3.351347 1.212165
v -0.386023 3.376601 1.255426
v -0.310145 3.381034 1.242638
v -0.245371 3.346119 1.219704
v -0.228161 3.304441 1.157196
v -0.246542 3.246294 1.110062
v -0.311947 3.227418 1.073916
v -0.387918 3.215079 1.078020
v -0.445716 3.256407 1.107889
v -0.474122 3.295613 1.167861
v -0.444789 3.364250 1.200419
v -0.386210 3.389504 1.243680
v -0.310332 3.393937 1.230892
v -0.245558 3.359022 1.207958
v -0.228348 3.317344 1.145450
v -0.246729 3.259197 1.098317
v -0.312134 3.240320 1.062171
v -0.388104 3.227982 1.066275
v -0.445902 3.269310 1.096144
v -0.474309 3.308516 1.156115
v -0.371143 3.398325 1.168608
v -0.422927 3.350722 1.117139
v -0.349017 3.366489 1.101994
v -0.288471 3.380409 1.147611
v -0.289159 3.321733 1.083166
v -0.372257 3.303385 1.064332
vn -0.1549 -0.9256 0.3455
vn 0.2214 -0.5428 0.8102
vn -0.0783 -0.9415 0.3277
vn -0.3527 -0.6544 0.6688
vn -0.3659 -0.7174 0.5928
vn -0.0210 -0.4872 0.8730
vn 0.2717 -0.8588 0.4343
vn -0.1473 -0.5049 0.8505
vn 0.3045 -0.6101 0.7315
vn 0.3237 -0.7989 0.5070
vn 0.9274 0.2591 0.2699
vn -0.0849 -0.6714 -0.7362
vn -0.5305 -0.5749 -0.6230
vn -0.9738 -0.1607 -0.1610
vn -0.9701 0.1556 0.1864
vn -0.5170 0.5721 0.6367
vn -0.0691 0.6710 0.7382
vn 0.9214 -0.2543 -0.2940
vn 0.6422 -0.5109 -0.5714
vn 0.6543 0.5142 0.5545
vn 0.4068 0.9134 0.0139
vn -0.4737 0.8806 -0.0081
vn -0.7094 0.3070 -0.6345
vn 0.0255 -0.0147 -0.9996
vn 0.7154 0.3601 -0.5988
vn 0.2564 0.5673 -0.7826
vn 0.4798 0.3487 -0.8052
vn 0.3969 0.0673 -0.9154
vn -0.1150 0.4853 -0.8668
vn -0.2006 0.1984 -0.9594
vn -0.4829 0.0955 -0.8704
vn -0.3414 0.6968 -0.6308
vn -0.6155 0.5860 -0.5270
vn -0.7051 0.6679 -0.2381
vn -0.1100 0.9095 -0.4008
vn -0.1915 0.9758 -0.1056
vn 0.0374 0.9935 0.1077
vn 0.2594 0.8295 -0.4946
vn 0.4854 0.8291 -0.2775
vn 0.7184 0.6223 -0.3109
vn 0.1686 -0.9247 0.3412
vn -0.1974 -0.5438 0.8157
vn 0.0917 -0.9411 0.3255
vn 0.3734 -0.6525 0.6594
vn 0.3850 -0.7155 0.5830
vn 0.0463 -0.4871 0.8721
vn -0.2558 -0.8602 0.4412
vn 0.1721 -0.5040 0.8464
vn -0.2822 -0.6116 0.7391
vn -0.3062 -0.8005 0.5152
vn -0.9214 0.2543 0.2940
vn 0.0691 -0.6710 -0.7382
vn 0.5170 -0.5721 -0.6367
vn 0.9701 -0.1556 -0.1864
vn 0.9738 0.1607 0.1610
vn 0.5304 0.5748 0.6231
vn 0.0849 0.6714 0.7362
vn -0.9274 -0.2591 -0.2699
vn -0.6543 -0.5143 -0.5545
vn -0.6422 0.5109 0.5714
vn -0.4110 0.9113 0.0246
vn 0.4688 0.8831 -0.0204
vn 0.6910 0.3107 -0.6527
vn -0.0515 -0.0149 -0.9986
vn -0.7326 0.3563 -0.5800
vn -0.2796 0.5659 -0.7756
vn -0.5024 0.3461 -0.7923
vn -0.4210 0.0652 -0.9047
vn 0.0898 0.4858 -0.8694
vn 0.1745 0.1994 -0.9643
vn 0.4596 0.0980 -0.8827
vn 0.3212 0.6985 -0.6394
vn 0.5985 0.5892 -0.5428
vn 0.6952 0.6716 -0.2564
vn 0.0948 0.9101 -0.4035
vn 0.1836 0.9768 -0.1105
vn -0.0397 0.9933 0.1088
vn -0.2766 0.8281 -0.4876
vn -0.4968 0.8265 -0.2647
vn -0.7295 0.6185 -0.2920
vn 0.1150 -0.4853 0.8668
vn 0.7094 -0.3070 0.6345
vn -0.2564 -0.5673 0.7826
vn -0.2594 -0.8295 0.4946
vn 0.1100 -0.9095 0.4008
vn 0.9106 -0.0615 0.4088
vn 0.0357 0.3910 0.9197
vn -0.8836 -0.0345 0.4670
vn -0.5769 -0.7499 -0.3238
vn 0.5319 -0.7666 -0.3597
vn 0.8085 0.3018 0.5053
vn -0.2977 0.5415 0.7862
vn -0.9906 -0.0955 0.0975
vn -0.3127 -0.7289 -0.6091
vn 0.7993 -0.4834 -0.3571
vn 0.8586 0.1056 -0.5017
vn 0.7690 -0.1704 -0.6161
vn 0.5351 -0.1891 -0.8233
vn -0.0221 -0.3098 -0.9506
vn -0.3064 -0.4035 -0.8621
vn -0.5373 -0.1963 -0.8202
vn -0.8757 0.1203 -0.4677
vn -0.9612 0.2091 -0.1801
vn -0.8718 0.4854 -0.0652
vn -0.5259 0.8028 0.2811
vn -0.2923 0.8220 0.4888
vn -0.0083 0.9162 0.4007
vn 0.5478 0.7948 0.2612
vn 0.7785 0.5879 0.2199
vn 0.8636 0.4997 -0.0674
vn 0.2895 -0.4371 -0.8516
vn 0.2981 -0.7668 -0.5684
vn 0.0208 -0.8794 -0.4756
vn -0.7902 -0.1994 -0.5795
vn -0.7971 -0.5295 -0.2903
vn -0.8886 -0.4587 0.0010
vn -0.7817 0.5651 0.2638
vn -0.7880 0.2479 0.5635
vn -0.5651 0.2583 0.7836
vn 0.3044 0.8015 0.5147
vn 0.3129 0.4910 0.8130
vn 0.5442 0.2808 0.7906
vn 0.9676 0.1814 -0.1755
vn 0.9842 -0.1362 0.1135
vn 0.9063 -0.4224 0.0124
vn 0.4737 -0.8806 0.0081
vn 0.1915 -0.9758 0.1056
vn -0.0374 -0.9935 -0.1077
vn -0.4068 -0.9134 -0.0139
vn -0.4854 -0.8291 0.2775
vn -0.7184 -0.6223 0.3109
vn -0.7154 -0.3601 0.5988
vn -0.4797 -0.3487 0.8052
vn -0.3969 -0.0673 0.9154
vn 0.7051 -0.6679 0.2381
vn 0.6155 -0.5860 0.5270
vn 0.3414 -0.6968 0.6308
vn -0.0255 0.0147 0.9996
vn 0.2006 -0.1984 0.9594
vn 0.4829 -0.0955 0.8704
vn -0.0898 -0.4858 0.8694
vn -0.6910 -0.3107 0.6527
vn 0.2796 -0.5659 0.7756
vn 0.2766 -0.8281 0.4876
vn -0.0948 -0.9101 0.4035
vn -0.8993 -0.0662 0.4324
vn -0.0138 0.3908 0.9204
vn 0.8956 -0.0299 0.4438
vn 0.5722 -0.7469 -0.3388
vn -0.5371 -0.7694 -0.3458
vn -0.7966 0.2976 0.5262
vn 0.3153 0.5431 0.7782
vn 0.9933 -0.0903 0.0716
vn 0.3004 -0.7273 -0.6171
vn -0.8058 -0.4875 -0.3361
vn -0.8719 0.1011 -0.4791
vn -0.7839 -0.1745 -0.5958
vn -0.5554 -0.1920 -0.8091
vn -0.0011 -0.3097 -0.9508
vn 0.2859 -0.4020 -0.8699
vn 0.5168 -0.1936 -0.8340
vn 0.8625 0.1248 -0.4903
vn 0.9550 0.2141 -0.2051
vn 0.8673 0.4899 -0.0879
vn 0.5288 0.8055 0.2673
vn 0.3006 0.8235 0.4811
vn 0.0140 0.9162 0.4005
vn -0.5449 0.7920 0.2755
vn -0.7755 0.5839 0.2402
vn -0.8676 0.4952 -0.0448
vn -0.3093 -0.4386 -0.8437
vn -0.3089 -0.7684 -0.5605
vn -0.0287 -0.8796 -0.4749
vn 0.7758 -0.1953 -0.5999
vn 0.7920 -0.5253 -0.3110
vn 0.8907 -0.4541 -0.0222
vn 0.7854 0.5692 0.2434
vn 0.8012 0.2520 0.5428
vn 0.5840 0.2613 0.7686
vn -0.2951 0.7999 0.5225
vn -0.2941 0.4894 0.8210
vn -0.5249 0.2780 0.8045
vn -0.9728 0.1763 -0.1501
vn -0.9802 -0.1413 0.1391
vn -0.9035 -0.4271 0.0360
vn -0.4688 -0.8831 0.0204
vn -0.1836 -0.9768 0.1105
vn 0.0397 -0.9933 -0.1087
vn 0.4110 -0.9113 -0.0246
vn 0.4968 -0.8265 0.2647
vn 0.7295 -0.6185 0.2920
vn 0.7326 -0.3563 0.5800
vn 0.5024 -0.3461 0.7923
vn 0.4210 -0.0652 0.9047
vn -0.6952 -0.6716 0.2564
vn -0.5985 -0.5892 0.5428
vn -0.3212 -0.6985 0.6394
vn 0.0515 0.0149 0.9986
vn -0.1745 -0.1994 0.9642
vn -0.4596 -0.0980 0.8827
usemtl Main
s off
f 564/4/608 589/4/608 597/4/608 598/4/608
f 586/4/609 565/4/609 600/4/609 591/4/609
f 589/4/610 563/4/610 596/4/610 597/4/610
f 563/4/611 588/4/611 595/4/611 596/4/611
f 588/4/612 562/4/612 594/4/612 595/4/612
f 562/4/613 587/4/613 593/4/613 594/4/613
f 565/4/614 590/4/614 599/4/614 600/4/614
f 587/4/615 561/4/615 592/4/615 593/4/615
f 561/4/616 586/4/616 591/4/616 592/4/616
f 590/4/617 564/4/617 598/4/617 599/4/617
f 591/4/618 600/4/618 610/4/618 601/4/618
f 598/4/619 597/4/619 607/4/619 608/4/619
f 597/4/620 596/4/620 606/4/620 607/4/620
f 596/4/621 595/4/621 605/4/621 606/4/621
f 595/4/622 594/4/622 604/4/622 605/4/622
f 594/4/623 593/4/623 603/4/623 604/4/623
f 593/4/624 592/4/624 602/4/624 603/4/624
f 600/4/625 599/4/625 609/4/625 610/4/625
f 599/4/626 598/4/626 608/4/626 609/4/626
f 592/4/627 591/4/627 601/4/627 602/4/627
f 602/4/628 601/4/628 611/4/628
f 604/4/629 603/4/629 614/4/629
f 606/4/630 605/4/630 615/4/630
f 608/4/631 607/4/631 616/4/631
f 610/4/632 609/4/632 612/4/632
f 612/4/633 616/4/633 613/4/633
f 612/4/634 609/4/634 616/4/634
f 609/4/635 608/4/635 616/4/635
f 616/4/636 615/4/636 613/4/636
f 616/4/637 607/4/637 615/4/637
f 607/4/638 606/4/638 615/4/638
f 615/4/639 614/4/639 613/4/639
f 615/4/640 605/4/640 614/4/640
f 605/4/641 604/4/641 614/4/641
f 614/4/642 611/4/642 613/4/642
f 614/4/643 603/4/643 611/4/643
f 603/4/644 602/4/644 611/4/644
f 611/4/645 612/4/645 613/4/645
f 611/4/646 601/4/646 612/4/646
f 601/4/647 610/4/647 612/4/647
f 626/4/648 660/4/648 659/4/648 651/4/648
f 648/4/649 653/4/649 662/4/649 627/4/649
f 651/4/650 659/4/650 658/4/650 625/4/650
f 625/4/651 658/4/651 657/4/651 650/4/651
f 650/4/652 657/4/652 656/4/652 624/4/652
f 624/4/653 656/4/653 655/4/653 649/4/653
f 627/4/654 662/4/654 661/4/654 652/4/654
f 649/4/655 655/4/655 654/4/655 623/4/655
f 623/4/656 654/4/656 653/4/656 648/4/656
f 652/4/657 661/4/657 660/4/657 626/4/657
f 653/4/658 663/4/658 672/4/658 662/4/658
f 660/4/659 670/4/659 669/4/659 659/4/659
f 659/4/660 669/4/660 668/4/660 658/4/660
f 658/4/661 668/4/661 667/4/661 657/4/661
f 657/4/662 667/4/662 666/4/662 656/4/662
f 656/4/663 666/4/663 665/4/663 655/4/663
f 655/4/664 665/4/664 664/4/664 654/4/664
f 662/4/665 672/4/665 671/4/665 661/4/665
f 661/4/666 671/4/666 670/4/666 660/4/666
f 654/4/667 664/4/667 663/4/667 653/4/667
f 664/4/668 673/4/668 663/4/668
f 666/4/669 676/4/669 665/4/669
f 668/4/670 677/4/670 667/4/670
f 670/4/671 678/4/671 669/4/671
f 672/4/672 674/4/672 671/4/672
f 674/4/673 675/4/673 678/4/673
f 674/4/674 678/4/674 671/4/674
f 671/4/675 678/4/675 670/4/675
f 678/4/676 675/4/676 677/4/676
f 678/4/677 677/4/677 669/4/677
f 669/4/678 677/4/678 668/4/678
f 677/4/679 675/4/679 676/4/679
f 677/4/680 676/4/680 667/4/680
f 667/4/681 676/4/681 666/4/681
f 676/4/682 675/4/682 673/4/682
f 676/4/683 673/4/683 665/4/683
f 665/4/684 673/4/684 664/4/684
f 673/4/685 675/4/685 674/4/685
f 673/4/686 674/4/686 663/4/686
f 663/4/687 674/4/687 672/4/687
usemtl Eyes
f 555/3/688 567/3/688 566/3/688
f 556/3/689 567/3/689 569/3/689
f 555/3/690 566/3/690 571/3/690
f 555/3/691 571/3/691 573/3/691
f 555/3/692 573/3/692 570/3/692
f 556/3/693 569/3/693 576/3/693
f 557/3/694 568/3/694 578/3/694
f 558/3/695 572/3/695 580/3/695
f 559/3/696 574/3/696 582/3/696
f 560/3/697 575/3/697 584/3/697
f 556/3/698 576/3/698 579/3/698
f 557/3/699 578/3/699 581/3/699
f 558/3/700 580/3/700 583/3/700
f 559/3/701 582/3/701 585/3/701
f 560/3/702 584/3/702 577/3/702
f 577/3/703 590/3/703 565/3/703
f 577/3/704 584/3/704 590/3/704
f 584/3/705 564/3/705 590/3/705
f 585/3/706 589/3/706 564/3/706
f 585/3/707 582/3/707 589/3/707
f 582/3/708 563/3/708 589/3/708
f 583/3/709 588/3/709 563/3/709
f 583/3/710 580/3/710 588/3/710
f 580/3/711 562/3/711 588/3/711
f 581/3/712 587/3/712 562/3/712
f 581/3/713 578/3/713 587/3/713
f 578/3/714 561/3/714 587/3/714
f 579/3/715 586/3/715 561/3/715
f 579/3/716 576/3/716 586/3/716
f 576/3/717 565/3/717 586/3/717
f 584/3/718 585/3/718 564/3/718
f 584/3/719 575/3/719 585/3/719
f 575/3/720 559/3/720 585/3/720
f 582/3/721 583/3/721 563/3/721
f 582/3/722 574/3/722 583/3/722
f 574/3/723 558/3/723 583/3/723
f 580/3/724 581/3/724 562/3/724
f 580/3/725 572/3/725 581/3/725
f 572/3/726 557/3/726 581/3/726
f 578/3/727 579/3/727 561/3/727
f 578/3/728 568/3/728 579/3/728
f 568/3/729 556/3/729 579/3/729
f 576/3/730 577/3/730 565/3/730
f 576/3/731 569/3/731 577/3/731
f 569/3/732 560/3/732 577/3/732
f 570/3/733 575/3/733 560/3/733
f 570/3/734 573/3/734 575/3/734
f 573/3/735 559/3/735 575/3/735
f 573/3/736 574/3/736 559/3/736
f 573/3/737 571/3/737 574/3/737
f 571/3/738 558/3/738 574/3/738
f 571/3/739 572/3/739 558/3/739
f 571/3/740 566/3/740 572/3/740
f 566/3/741 557/3/741 572/3/741
f 569/3/742 570/3/742 560/3/742
f 569/3/743 567/3/743 570/3/743
f 567/3/744 555/3/744 570/3/744
f 566/3/745 568/3/745 557/3/745
f 566/3/746 567/3/746 568/3/746
f 567/3/747 556/3/747 568/3/747
f 617/3/748 628/3/748 629/3/748
f 618/3/749 631/3/749 629/3/749
f 617/3/750 633/3/750 628/3/750
f 617/3/751 635/3/751 633/3/751
f 617/3/752 632/3/752 635/3/752
f 618/3/753 638/3/753 631/3/753
f 619/3/754 640/3/754 630/3/754
f 620/3/755 642/3/755 634/3/755
f 621/3/756 644/3/756 636/3/756
f 622/3/757 646/3/757 637/3/757
f 618/3/758 641/3/758 638/3/758
f 619/3/759 643/3/759 640/3/759
f 620/3/760 645/3/760 642/3/760
f 621/3/761 647/3/761 644/3/761
f 622/3/762 639/3/762 646/3/762
f 639/3/763 627/3/763 652/3/763
f 639/3/764 652/3/764 646/3/764
f 646/3/765 652/3/765 626/3/765
f 647/3/766 626/3/766 651/3/766
f 647/3/767 651/3/767 644/3/767
f 644/3/768 651/3/768 625/3/768
f 645/3/769 625/3/769 650/3/769
f 645/3/770 650/3/770 642/3/770
f 642/3/771 650/3/771 624/3/771
f 643/3/772 624/3/772 649/3/772
f 643/3/773 649/3/773 640/3/773
f 640/3/774 649/3/774 623/3/774
f 641/3/775 623/3/775 648/3/775
f 641/3/776 648/3/776 638/3/776
f 638/3/777 648/3/777 627/3/777
f 646/3/778 626/3/778 647/3/778
f 646/3/779 647/3/779 637/3/779
f 637/3/780 647/3/780 621/3/780
f 644/3/781 625/3/781 645/3/781
f 644/3/782 645/3/782 636/3/782
f 636/3/783 645/3/783 620/3/783
f 642/3/784 624/3/784 643/3/784
f 642/3/785 643/3/785 634/3/785
f 634/3/786 643/3/786 619/3/786
f 640/3/787 623/3/787 641/3/787
f 640/3/788 641/3/788 630/3/788
f 630/3/789 641/3/789 618/3/789
f 638/3/790 627/3/790 639/3/790
f 638/3/791 639/3/791 631/3/791
f 631/3/792 639/3/792 622/3/792
f 632/3/793 622/3/793 637/3/793
f 632/3/794 637/3/794 635/3/794
f 635/3/795 637/3/795 621/3/795
f 635/3/796 621/3/796 636/3/796
f 635/3/797 636/3/797 633/3/797
f 633/3/798 636/3/798 620/3/798
f 633/3/799 620/3/799 634/3/799
f 633/3/800 634/3/800 628/3/800
f 628/3/801 634/3/801 619/3/801
f 631/3/802 622/3/802 632/3/802
f 631/3/803 632/3/803 629/3/803
f 629/3/804 632/3/804 617/3/804
f 628/3/805 619/3/805 630/3/805
f 628/3/806 630/3/806 629/3/806
f 629/3/807 630/3/807 618/3/807
