# Blender v2.79 (sub 0) OBJ File: 'Skeleton.blend'
# www.blender.org
mtllib Skeleton.mtl
o Cylinder.001
v -0.399603 2.508152 0.368139
v -0.399603 2.584143 0.348707
v -0.498297 2.375266 0.014327
v -0.498297 2.491320 -0.015269
v -0.221763 2.284477 -0.273389
v -0.221763 2.416882 -0.307156
v 0.221763 2.284477 -0.273389
v 0.221763 2.416882 -0.307156
v 0.498297 2.375266 0.014327
v 0.498297 2.491320 -0.015269
v 0.399603 2.508152 0.368139
v 0.399603 2.584143 0.348707
v -0.320197 2.570549 0.295405
v -0.399280 2.496171 0.003754
v -0.177696 2.436525 -0.230131
v 0.177696 2.436525 -0.230131
v 0.399280 2.496171 0.003754
v 0.320197 2.570549 0.295405
v -0.318805 2.490670 0.314966
v -0.397543 2.380203 0.033685
v -0.176923 2.304465 -0.195014
v 0.176923 2.304465 -0.195014
v 0.397543 2.380203 0.033684
v 0.318805 2.490670 0.314966
v -0.061818 2.552289 0.502378
v -0.061818 2.619062 0.485634
v -0.049534 2.598530 0.405122
v -0.049318 2.525882 0.422063
v 0.075356 2.550519 0.496998
v 0.075356 2.617662 0.480146
v 0.060382 2.597408 0.400725
v 0.060119 2.524470 0.417770
v -0.438097 2.658149 0.388342
v -0.438097 2.743273 0.376163
v -0.546297 2.555222 -0.013022
v -0.546297 2.685216 -0.031533
v -0.243125 2.490348 -0.337361
v -0.243125 2.638657 -0.358481
v 0.243125 2.490348 -0.337361
v 0.243125 2.638657 -0.358481
v 0.546297 2.555222 -0.013022
v 0.546297 2.685216 -0.031533
v 0.438097 2.658149 0.388342
v 0.438097 2.743273 0.376163
v -0.351042 2.734771 0.316458
v -0.437742 2.688250 -0.010225
v -0.194814 2.650943 -0.272204
v 0.194813 2.650943 -0.272204
v 0.437742 2.688250 -0.010225
v 0.351042 2.734771 0.316458
v -0.349515 2.645393 0.328317
v -0.435838 2.558310 0.008661
v -0.193966 2.502850 -0.249571
v 0.193966 2.502850 -0.249571
v 0.435838 2.558310 0.008661
v 0.349515 2.645393 0.328317
v -0.067772 2.690354 0.539878
v -0.067772 2.765114 0.529537
v -0.054305 2.752272 0.439354
v -0.054069 2.671086 0.449213
v 0.082615 2.689063 0.533805
v 0.082615 2.764239 0.523390
v 0.066198 2.751571 0.434429
v 0.065910 2.670056 0.444368
v -0.484822 2.805001 0.444006
v -0.484822 2.900162 0.444496
v -0.604564 2.757497 -0.012071
v -0.604564 2.902805 -0.011229
v -0.269056 2.739144 -0.377653
v -0.269056 2.904924 -0.376691
v 0.269056 2.739144 -0.377653
v 0.269056 2.904924 -0.376691
v 0.604564 2.757497 -0.012072
v 0.604564 2.902805 -0.011229
v 0.484823 2.805001 0.444005
v 0.484823 2.900162 0.444495
v -0.388483 2.900549 0.377757
v -0.484430 2.902667 0.012590
v -0.215592 2.904365 -0.280251
v 0.215592 2.904365 -0.280251
v 0.484430 2.902667 0.012590
v 0.388483 2.900549 0.377757
v -0.386793 2.800783 0.376226
v -0.482323 2.757357 0.012165
v -0.214654 2.738575 -0.279521
v 0.214654 2.738575 -0.279521
v 0.482323 2.757357 0.012165
v 0.386793 2.800783 0.376226
v -0.075001 2.815650 0.615119
v -0.075001 2.899168 0.615937
v -0.060097 2.899752 0.515131
v -0.059836 2.809278 0.512741
v 0.091426 2.815223 0.608260
v 0.091426 2.899208 0.609065
v 0.073259 2.899784 0.509625
v 0.072940 2.808938 0.507269
v -0.497299 2.960620 0.466900
v -0.497299 3.057459 0.479156
v -0.620122 2.968600 -0.003377
v -0.620122 3.116457 0.015434
v -0.275980 2.995081 -0.377904
v -0.275980 3.163771 -0.356442
v 0.275980 2.995081 -0.377904
v 0.275980 3.163771 -0.356442
v 0.620122 2.968600 -0.003378
v 0.620122 3.116457 0.015434
v 0.497299 2.960620 0.466900
v 0.497299 3.057459 0.479156
v -0.398480 3.066099 0.411246
v -0.496897 3.113374 0.039671
v -0.221140 3.151286 -0.258309
v 0.221140 3.151286 -0.258309
v 0.496897 3.113374 0.039671
v 0.398480 3.066099 0.411246
v -0.396747 2.964700 0.397361
v -0.494736 2.965462 0.021284
v -0.220178 2.982377 -0.278050
v 0.220178 2.982377 -0.278050
v 0.494736 2.965462 0.021284
v 0.396747 2.964700 0.397361
v -0.076931 2.950322 0.642454
v -0.076931 3.035264 0.653606
v -0.061644 3.048315 0.551031
v -0.061376 2.956483 0.537419
v 0.093779 2.950735 0.635418
v 0.093779 3.036154 0.646614
v 0.075144 3.049027 0.545429
v 0.074817 2.956813 0.531806
v -0.423668 3.167558 0.372014
v -0.423668 3.249115 0.388258
v -0.528305 3.202643 -0.027152
v -0.528305 3.327161 -0.002267
v -0.235118 3.247688 -0.343834
v -0.235118 3.389750 -0.315443
v 0.235118 3.247688 -0.343835
v 0.235118 3.389750 -0.315443
v 0.528305 3.202643 -0.027152
v 0.528305 3.327161 -0.002267
v 0.423668 3.167558 0.372014
v 0.423668 3.249115 0.388258
v -0.339480 3.260544 0.331067
v -0.423325 3.323082 0.018144
v -0.188397 3.373234 -0.232800
v 0.188397 3.373234 -0.232801
v 0.423325 3.323082 0.018144
v 0.339480 3.260544 0.331067
v -0.338004 3.175210 0.313165
v -0.421484 3.198492 -0.006383
v -0.187578 3.230882 -0.259742
v 0.187578 3.230882 -0.259742
v 0.421484 3.198492 -0.006383
v 0.338004 3.175210 0.313165
v -0.065540 3.148241 0.520582
v -0.065540 3.219754 0.535171
v -0.052517 3.237018 0.448787
v -0.052288 3.159798 0.431693
v 0.079894 3.149014 0.514627
v 0.079894 3.220931 0.529283
v 0.064018 3.237961 0.444069
v 0.063740 3.160416 0.426942
v 0.201837 1.649339 0.043148
v 0.201837 2.203821 0.047060
v 0.246456 1.619359 -0.079940
v 0.246456 2.243565 -0.073231
v 0.445256 2.312724 0.009313
v 0.445256 1.572460 -0.010180
v 0.379770 2.275935 0.120661
v 0.379770 1.600211 0.103758
v 0.629150 2.159092 0.066705
v 0.588694 1.687005 0.044362
v 0.563664 2.122303 0.178053
v 0.523207 1.714756 0.158300
v 0.246456 1.927407 -0.134725
v 0.201837 1.927407 -0.008039
v 0.445256 1.927407 -0.078045
v 0.379770 1.927407 0.039224
v 0.548237 1.927407 -0.020538
v 0.482751 1.927407 0.096731
v 0.246456 2.108223 -0.117947
v 0.201837 2.068480 0.002344
v 0.445256 2.133912 -0.049766
v 0.379770 2.097123 0.061583
v 0.588694 2.048075 0.006232
v 0.523207 2.011286 0.117581
v 0.246456 1.757848 -0.113671
v 0.201837 1.787828 0.009417
v 0.445256 1.741105 -0.051256
v 0.379770 1.768856 0.062682
v 0.568465 1.805182 0.003952
v 0.502979 1.832933 0.117890
v -0.177819 1.649339 0.043148
v -0.177819 2.203821 0.047060
v -0.222439 1.619359 -0.079940
v -0.222439 2.243565 -0.073231
v 0.012009 2.196704 -0.099898
v 0.012009 1.668206 -0.102767
v 0.012009 2.154567 0.027636
v 0.012009 1.699991 0.027732
v -0.421239 2.312724 0.009313
v -0.421239 1.572460 -0.010180
v -0.355753 2.275935 0.120661
v -0.355753 1.600211 0.103758
v -0.605133 2.159092 0.066705
v -0.564676 1.687005 0.044362
v -0.539647 2.122303 0.178053
v -0.499190 1.714756 0.158300
v -0.222439 1.927407 -0.134725
v -0.177819 1.927407 -0.008039
v 0.012009 1.927407 -0.011030
v 0.012009 1.927407 -0.145345
v -0.421239 1.927407 -0.078045
v -0.355753 1.927407 0.039224
v -0.524220 1.927407 -0.020538
v -0.458733 1.927407 0.096731
v -0.222439 2.108223 -0.117947
v -0.177819 2.068480 0.002344
v 0.012009 2.044322 -0.008788
v 0.012009 2.086459 -0.136322
v -0.421239 2.133912 -0.049766
v -0.355753 2.097123 0.061583
v -0.564676 2.048075 0.006232
v -0.499190 2.011286 0.117581
v -0.222439 1.757848 -0.113671
v -0.177819 1.787828 0.009417
v 0.012009 1.812800 0.000256
v 0.012009 1.781015 -0.130244
v -0.421239 1.741105 -0.051256
v -0.355753 1.768856 0.062682
v -0.544448 1.805182 0.003952
v -0.478962 1.832933 0.117890
v 0.574608 0.585994 -0.088830
v 0.577952 0.549475 -0.091675
v 0.511349 0.543540 -0.067374
v 0.505268 0.584248 -0.065512
v 0.644556 0.555412 -0.067374
v 0.597459 0.327479 -0.096768
v 0.555851 0.732336 -0.077908
v 0.486132 0.580054 0.006059
v 0.640131 0.592021 -0.065107
v 0.524754 0.385267 -0.076171
v 0.476007 0.746675 -0.058363
v 0.489148 0.541561 0.005527
v 0.468639 0.733978 0.008103
v 0.661972 0.594031 0.006059
v 0.663594 0.393126 -0.076171
v 0.596067 0.184219 -0.178572
v 0.464521 0.288776 -0.141305
v 0.514355 0.325153 0.004308
v 0.555219 0.768168 -0.124489
v 0.617228 0.738711 -0.056405
v 0.511349 0.543540 0.085633
v 0.505268 0.584248 0.086711
v 0.666757 0.557391 0.005527
v 0.637687 0.740836 0.008103
v 0.680563 0.329805 0.004308
v 0.715727 0.302994 -0.141305
v 0.445705 0.180011 0.004308
v 0.427386 0.795122 -0.094984
v 0.419175 0.772870 0.007531
v 0.476007 0.746675 0.090848
v 0.644556 0.555412 0.078428
v 0.640131 0.592021 0.077226
v 0.746428 0.188427 0.004308
v 0.524755 0.385267 0.084787
v 0.464521 0.288776 0.149921
v 0.604925 0.101505 0.004308
v 0.440660 0.900845 -0.076332
v 0.545989 0.878636 -0.100643
v 0.650045 0.778236 -0.091484
v 0.681653 0.781592 0.007531
v 0.574608 0.585994 0.100948
v 0.555851 0.732336 0.094114
v 0.617228 0.738711 0.072611
v 0.663594 0.393126 0.084787
v 0.715728 0.302994 0.149921
v 0.597459 0.327479 0.105384
v 0.596067 0.184219 0.187188
v 0.624121 0.886932 -0.073448
v 0.433895 0.882510 0.008136
v 0.427386 0.795122 0.137531
v 0.577953 0.549475 0.102728
v 0.555219 0.768168 0.139551
v 0.650165 0.889697 0.008136
v 0.440660 0.900845 0.115250
v 0.650045 0.778236 0.106546
v 0.624121 0.886932 0.089720
v 0.545989 0.878636 0.116914
v 0.311697 1.635840 0.007533
v 0.317218 1.658637 0.136097
v 0.445872 1.646777 0.138094
v 0.568536 1.674420 0.007533
v 0.311697 1.553402 0.007533
v 0.317218 1.576200 0.136097
v 0.445872 1.564339 0.138094
v 0.537870 1.667509 0.105454
v 0.445872 1.646776 -0.123028
v 0.317218 1.576200 -0.093849
v 0.317218 1.658637 -0.093849
v 0.370519 1.534169 0.089929
v 0.537870 1.585072 0.105454
v 0.568536 1.591983 0.007533
v 0.537870 1.667509 -0.090388
v 0.445872 1.564339 -0.123028
v 0.370519 1.534169 -0.057633
v 0.364733 1.520854 0.008099
v 0.450591 1.529214 0.093159
v 0.510154 1.542494 0.071894
v 0.537870 1.585072 -0.090388
v 0.417835 1.377961 0.085838
v 0.530008 1.546921 0.008099
v 0.510153 1.542494 -0.055696
v 0.450590 1.529214 -0.076961
v 0.417835 1.377961 -0.064703
v 0.399517 1.371653 0.006078
v 0.485749 1.387605 0.099918
v 0.549424 1.401017 0.076458
v 0.428463 1.338667 0.084772
v 0.549424 1.401017 -0.064303
v 0.570650 1.405488 0.006078
v 0.485749 1.387604 -0.087763
v 0.428463 1.338667 -0.066544
v 0.406881 1.334185 0.005551
v 0.493210 1.352114 0.101678
v 0.557957 1.365562 0.077646
v 0.456388 1.124487 0.004346
v 0.537756 1.136274 0.104305
v 0.557957 1.365562 -0.066544
v 0.579539 1.370044 0.005551
v 0.493210 1.352114 -0.090576
v 0.459729 1.184726 0.083936
v 0.619124 1.148061 0.004346
v 0.537755 1.136274 -0.095613
v 0.459729 1.184726 -0.075244
v 0.405548 0.974061 0.004346
v 0.411594 1.083055 0.148349
v 0.552769 0.995388 0.185204
v 0.595215 1.208321 0.083936
v 0.411594 1.083055 -0.139658
v 0.656732 1.125746 0.148349
v 0.595215 1.208321 -0.075244
v 0.699990 1.016715 0.004346
v 0.552769 0.995388 -0.176513
v 0.570928 0.915150 0.004346
v 0.656732 1.125746 -0.139658
v -0.550298 0.585994 -0.088830
v -0.480958 0.584248 -0.065512
v -0.487040 0.543540 -0.067374
v -0.553643 0.549475 -0.091675
v -0.531541 0.732336 -0.077908
v -0.461823 0.580054 0.006059
v -0.620247 0.555412 -0.067374
v -0.573149 0.327479 -0.096768
v -0.615822 0.592021 -0.065107
v -0.451697 0.746675 -0.058363
v -0.444329 0.733978 0.008103
v -0.464838 0.541561 0.005527
v -0.500445 0.385267 -0.076171
v -0.592919 0.738711 -0.056405
v -0.530909 0.768168 -0.124489
v -0.480958 0.584248 0.086711
v -0.487040 0.543540 0.085633
v -0.490046 0.325153 0.004308
v -0.637663 0.594031 0.006059
v -0.639285 0.393126 -0.076171
v -0.440212 0.288776 -0.141305
v -0.571757 0.184219 -0.178572
v -0.613378 0.740836 0.008103
v -0.403076 0.795122 -0.094984
v -0.394866 0.772870 0.007531
v -0.451697 0.746675 0.090848
v -0.642448 0.557391 0.005527
v -0.656253 0.329805 0.004308
v -0.691418 0.302994 -0.141305
v -0.421396 0.180011 0.004308
v -0.625735 0.778236 -0.091484
v -0.657344 0.781592 0.007531
v -0.521679 0.878636 -0.100643
v -0.416351 0.900845 -0.076332
v -0.531541 0.732336 0.094114
v -0.550298 0.585994 0.100948
v -0.500445 0.385267 0.084788
v -0.620247 0.555412 0.078428
v -0.615822 0.592021 0.077226
v -0.722119 0.188427 0.004308
v -0.440212 0.288776 0.149921
v -0.580615 0.101505 0.004308
v -0.599811 0.886932 -0.073448
v -0.592919 0.738711 0.072611
v -0.409586 0.882510 0.008136
v -0.403076 0.795122 0.137531
v -0.530909 0.768168 0.139551
v -0.553643 0.549475 0.102728
v -0.573149 0.327479 0.105384
v -0.691418 0.302994 0.149921
v -0.639285 0.393126 0.084787
v -0.571757 0.184219 0.187188
v -0.625855 0.889697 0.008136
v -0.625735 0.778236 0.106546
v -0.416351 0.900845 0.115250
v -0.599811 0.886932 0.089720
v -0.521679 0.878636 0.116914
v -0.421563 1.646777 0.138094
v -0.292909 1.658637 0.136097
v -0.287388 1.635840 0.007533
v -0.544227 1.674420 0.007533
v -0.292909 1.576200 0.136097
v -0.421563 1.564339 0.138094
v -0.287388 1.553402 0.007533
v -0.421563 1.646776 -0.123028
v -0.513561 1.667509 0.105454
v -0.346209 1.534169 0.089929
v -0.513561 1.585072 0.105454
v -0.292909 1.576200 -0.093849
v -0.292909 1.658637 -0.093849
v -0.513561 1.667509 -0.090388
v -0.544227 1.591983 0.007533
v -0.426281 1.529214 0.093159
v -0.485844 1.542494 0.071894
v -0.340423 1.520854 0.008099
v -0.346209 1.534169 -0.057633
v -0.421563 1.564339 -0.123028
v -0.513561 1.585072 -0.090388
v -0.393525 1.377961 0.085838
v -0.485844 1.542494 -0.055696
v -0.505698 1.546921 0.008099
v -0.461440 1.387605 0.099918
v -0.525115 1.401017 0.076458
v -0.375208 1.371653 0.006078
v -0.393525 1.377961 -0.064703
v -0.426281 1.529214 -0.076961
v -0.404154 1.338667 0.084772
v -0.525115 1.401017 -0.064303
v -0.546340 1.405488 0.006078
v -0.468901 1.352114 0.101678
v -0.533648 1.365562 0.077646
v -0.382572 1.334185 0.005551
v -0.404154 1.338667 -0.066544
v -0.461439 1.387604 -0.087763
v -0.513446 1.136274 0.104305
v -0.432078 1.124487 0.004346
v -0.533648 1.365562 -0.066545
v -0.555230 1.370044 0.005551
v -0.435420 1.184726 0.083936
v -0.468901 1.352114 -0.090576
v -0.594814 1.148061 0.004346
v -0.528460 0.995388 0.185204
v -0.387285 1.083055 0.148349
v -0.570906 1.208321 0.083936
v -0.381238 0.974061 0.004346
v -0.435420 1.184726 -0.075244
v -0.513446 1.136274 -0.095613
v -0.632423 1.125746 0.148349
v -0.387285 1.083055 -0.139658
v -0.570906 1.208321 -0.075244
v -0.675681 1.016715 0.004346
v -0.546619 0.915150 0.004346
v -0.528460 0.995388 -0.176513
v -0.632423 1.125746 -0.139658
v 0.016104 2.648667 -0.226106
v 0.017897 2.615786 -0.224196
v -0.028892 2.611625 -0.206209
v -0.032541 2.648447 -0.209753
v 0.064687 2.619704 -0.207124
v 0.020970 2.393307 -0.113577
v -0.046021 2.645149 -0.159559
v 0.062137 2.652691 -0.209469
v -0.026193 2.454017 -0.134962
v -0.044488 2.610454 -0.155631
v 0.077481 2.654033 -0.159559
v 0.071077 2.458239 -0.134872
v 0.012793 2.256418 -0.122936
v -0.074653 2.356175 -0.121280
v -0.037095 2.393329 -0.044647
v -0.028892 2.611626 -0.098906
v -0.032541 2.648447 -0.102996
v 0.080283 2.621012 -0.155993
v 0.079034 2.393002 -0.039600
v 0.101608 2.364340 -0.123224
v -0.092561 2.255573 0.005321
v 0.064687 2.619706 -0.104877
v 0.062137 2.652691 -0.109648
v 0.118250 2.257263 0.005321
v -0.026186 2.454044 -0.022189
v -0.074584 2.356390 0.082104
v 0.017561 2.184131 0.005321
v 0.016104 2.648667 -0.093011
v 0.071080 2.458255 -0.022054
v 0.101626 2.364406 0.080757
v 0.020971 2.393315 0.028166
v 0.012798 2.256418 0.133578
v 0.017897 2.615788 -0.087867
v -0.021408 2.921852 -0.246443
v 0.027237 2.923656 -0.262697
v 0.073270 2.926049 -0.245748
v -0.034888 2.913702 -0.196805
v 0.088615 2.922544 -0.195943
v -0.021408 2.911500 -0.140189
v 0.073270 2.916369 -0.146398
v 0.027237 2.910750 -0.130230
v -0.027450 3.170354 -0.236491
v 0.021225 3.169810 -0.252746
v 0.067320 3.169978 -0.235797
v -0.041308 3.162865 -0.186853
v 0.082477 3.165737 -0.185992
v -0.027950 3.160014 -0.130238
v 0.066853 3.160309 -0.136447
v 0.020602 3.156919 -0.120278
v -0.077100 3.514958 -0.145704
v -0.028425 3.519488 -0.161324
v 0.017670 3.514385 -0.145161
v -0.088337 3.643845 -0.083844
v -0.033244 3.633976 -0.102848
v -0.090958 3.492424 -0.100846
v 0.009978 3.629978 -0.087915
v -0.094432 3.615390 -0.045447
v 0.032828 3.494887 -0.099135
v -0.119465 3.695159 -0.089569
v -0.031492 3.675670 -0.120244
v -0.077599 3.472133 -0.047914
v -0.088827 3.601867 0.012011
v 0.024198 3.612514 -0.046101
v 0.035298 3.669729 -0.097235
v -0.126811 3.648988 -0.031337
v 0.009555 3.593682 -0.005033
v 0.017203 3.474341 -0.053725
v -0.104219 3.773518 -0.040894
v -0.031734 3.757460 -0.066169
v -0.120228 3.629745 0.059802
v 0.057273 3.642988 -0.033024
v -0.029048 3.466097 -0.039409
v -0.033808 3.585580 0.007660
v 0.023298 3.752565 -0.047210
v -0.110272 3.735475 0.007087
v 0.034648 3.614017 0.029982
v -0.032359 3.601387 0.049378
v 0.041404 3.730531 0.005696
v -0.104848 3.719619 0.082181
v 0.022763 3.706660 0.057610
v -0.032448 3.696253 0.073592
v 1.108689 2.161500 -0.088829
v 1.117606 2.125929 -0.091675
v 1.052705 2.109830 -0.067374
v 1.040441 2.149121 -0.065512
v 1.182506 2.142028 -0.067374
v 1.170989 1.909565 -0.096768
v 1.067671 2.303222 -0.077907
v 1.022177 2.142037 0.006059
v 1.172509 2.177523 -0.065107
v 1.090269 1.955496 -0.076171
v 0.986571 2.305123 -0.058363
v 1.031072 2.104464 0.005527
v 0.981242 2.291445 0.008103
v 1.193782 2.182864 0.006059
v 1.226253 1.984593 -0.076171
v 1.191625 1.767792 -0.178571
v 1.045576 1.850896 -0.141305
v 1.089229 1.894498 0.004308
v 1.062143 2.338526 -0.124489
v 1.127340 2.318952 -0.056405
v 1.052705 2.109830 0.085633
v 1.040441 2.149121 0.086711
v 1.204140 2.147395 0.005527
v 1.147229 2.324195 0.008103
v 1.252748 1.924632 0.004308
v 1.291615 1.903543 -0.141305
v 1.043695 1.740531 0.004308
v 0.931334 2.345248 -0.094984
v 0.926390 2.322275 0.007531
v 0.986571 2.305123 0.090848
v 1.182506 2.142028 0.078428
v 1.172509 2.177523 0.077226
v 1.339554 1.795052 0.004308
v 1.090269 1.955496 0.084788
v 1.045576 1.850896 0.149921
v 1.213086 1.687421 0.004308
v 0.928067 2.450791 -0.076332
v 1.035719 2.445567 -0.100642
v 1.154387 2.363743 -0.091484
v 1.185030 2.372150 0.007531
v 1.108689 2.161500 0.100948
v 1.067671 2.303222 0.094114
v 1.127340 2.318952 0.072611
v 1.226253 1.984594 0.084788
v 1.291615 1.903543 0.149921
v 1.170989 1.909565 0.105385
v 1.191625 1.767792 0.187188
v 1.110901 2.468223 -0.073448
v 0.924309 2.431885 0.008136
v 0.931544 2.345015 0.137532
v 1.117606 2.125929 0.102729
v 1.062180 2.338525 0.139551
v 1.135768 2.476366 0.008136
v 0.928062 2.450851 0.115250
v 1.154451 2.363806 0.106546
v 1.110908 2.468195 0.089720
v 1.035722 2.445560 0.116915
v 0.617103 3.115289 0.007533
v 0.616627 3.138741 0.136097
v 0.744052 3.160083 0.138094
v 0.855609 3.218096 0.007533
v 0.638127 3.035578 0.007533
v 0.637652 3.059029 0.136097
v 0.765076 3.080372 0.138094
v 0.827720 3.203593 0.105454
v 0.744052 3.160083 -0.123028
v 0.637651 3.059029 -0.093849
v 0.616627 3.138741 -0.093849
v 0.699909 3.031981 0.089929
v 0.848744 3.123882 0.105454
v 0.876633 3.138385 0.007533
v 0.827720 3.203593 -0.090387
v 0.765076 3.080372 -0.123028
v 0.699909 3.031981 -0.057633
v 0.697710 3.017632 0.008099
v 0.778596 3.047611 0.093159
v 0.832803 3.075643 0.071894
v 0.848744 3.123882 -0.090388
v 0.785498 2.893006 0.085838
v 0.850872 3.084987 0.008099
v 0.832803 3.075643 -0.055696
v 0.778596 3.047611 -0.076961
v 0.785498 2.893006 -0.064703
v 0.769395 2.882235 0.006078
v 0.848707 2.919652 0.099918
v 0.906856 2.948860 0.076458
v 0.805797 2.857723 0.084772
v 0.906856 2.948860 -0.064302
v 0.926239 2.958596 0.006078
v 0.848707 2.919651 -0.087762
v 0.805797 2.857723 -0.066544
v 0.786071 2.847884 0.005551
v 0.864973 2.887237 0.101678
v 0.924149 2.916753 0.077646
v 0.887421 2.657746 0.004346
v 0.963092 2.689895 0.104305
v 0.924149 2.916753 -0.066544
v 0.943875 2.926591 0.005551
v 0.864973 2.887237 -0.090576
v 0.875289 2.716846 0.083936
v 1.038764 2.722044 0.004346
v 0.963092 2.689895 -0.095613
v 0.875289 2.716846 -0.075244
v 0.876626 2.499330 0.004346
v 0.854675 2.606261 0.148350
v 1.013540 2.557497 0.185204
v 1.000277 2.774214 0.083936
v 0.854675 2.606261 -0.139658
v 1.080819 2.710058 0.148349
v 1.000277 2.774214 -0.075244
v 1.150453 2.615665 0.004346
v 1.013540 2.557497 -0.176512
v 1.051562 2.484543 0.004346
v 1.080819 2.710058 -0.139658
v -1.035460 2.064422 -0.088829
v -1.040079 2.028042 -0.091674
v -0.973723 2.019783 -0.067374
v -0.966224 2.060254 -0.065512
v -1.106434 2.036302 -0.067374
v -1.067329 1.806863 -0.096768
v -1.011603 2.210019 -0.077907
v -0.947246 2.055395 0.006059
v -1.100733 2.072735 -0.065107
v -0.992650 1.862075 -0.076171
v -0.931306 2.221560 -0.058363
v -0.951605 2.017030 0.005527
v -0.924386 2.208613 0.008103
v -1.122491 2.075506 0.006059
v -1.131131 1.874780 -0.076171
v -1.070942 1.663641 -0.178571
v -0.935824 1.763539 -0.141305
v -0.984357 1.801635 0.004308
v -1.009719 2.245807 -0.124489
v -1.072720 2.218534 -0.056405
v -0.973724 2.019783 0.085633
v -0.966224 2.060255 0.086711
v -1.128553 2.039056 0.005527
v -1.093092 2.221373 0.008103
v -1.150301 1.812091 0.004308
v -1.186380 1.786525 -0.141305
v -0.920820 1.654182 0.004308
v -0.881022 2.268279 -0.094984
v -0.873594 2.245753 0.007531
v -0.931306 2.221560 0.090848
v -1.106434 2.036302 0.078428
v -1.100733 2.072734 0.077226
v -1.221065 1.673100 0.004308
v -0.992650 1.862076 0.084788
v -0.935824 1.763539 0.149921
v -1.082685 1.581288 0.004308
v -0.890595 2.374401 -0.076332
v -0.996635 2.355886 -0.100642
v -1.104135 2.259182 -0.091484
v -1.135607 2.263640 0.007531
v -1.035460 2.064422 0.100948
v -1.011602 2.210019 0.094114
v -1.072720 2.218535 0.072611
v -1.131131 1.874780 0.084788
v -1.186381 1.786525 0.149921
v -1.067329 1.806863 0.105384
v -1.070943 1.663642 0.187188
v -1.074430 2.366906 -0.073448
v -0.884475 2.355841 0.008136
v -0.881023 2.268279 0.137531
v -1.040079 2.028042 0.102728
v -1.009719 2.245807 0.139551
v -1.100361 2.370579 0.008136
v -0.890595 2.374401 0.115250
v -1.104135 2.259182 0.106546
v -1.074430 2.366905 0.089720
v -0.996635 2.355886 0.116914
v -0.610292 3.045952 0.007533
v -0.610676 3.069406 0.136097
v -0.738797 3.086062 0.138094
v -0.852406 3.139946 0.007533
v -0.628379 2.965524 0.007533
v -0.628764 2.988977 0.136097
v -0.756885 3.005634 0.138094
v -0.824004 3.126475 0.105454
v -0.738797 3.086062 -0.123028
v -0.628764 2.988977 -0.093849
v -0.610676 3.069406 -0.093849
v -0.689987 2.959665 0.089929
v -0.842092 3.046047 0.105454
v -0.870494 3.059517 0.007533
v -0.824004 3.126475 -0.090387
v -0.756885 3.005633 -0.123028
v -0.689987 2.959665 -0.057633
v -0.687264 2.945405 0.008099
v -0.769195 2.972399 0.093159
v -0.824393 2.998424 0.071894
v -0.842092 3.046046 -0.090388
v -0.770424 2.817645 0.085838
v -0.842792 3.007100 0.008099
v -0.824393 2.998425 -0.055696
v -0.769195 2.972399 -0.076961
v -0.770424 2.817645 -0.064703
v -0.753937 2.807471 0.006078
v -0.834567 2.841955 0.099918
v -0.893748 2.869011 0.076458
v -0.789415 2.781641 0.084772
v -0.893748 2.869011 -0.064302
v -0.913475 2.878031 0.006078
v -0.834567 2.841955 -0.087762
v -0.789415 2.781641 -0.066544
v -0.769343 2.772532 0.005551
v -0.849634 2.808966 0.101678
v -0.909852 2.836292 0.077646
v -0.863652 2.578806 0.004346
v -0.940451 2.608160 0.104305
v -0.909852 2.836292 -0.066544
v -0.929926 2.845401 0.005551
v -0.849634 2.808966 -0.090576
v -0.853696 2.638311 0.083936
v -1.017250 2.637512 0.004346
v -0.940451 2.608160 -0.095613
v -0.853696 2.638311 -0.075244
v -0.847057 2.420892 0.004346
v -0.829041 2.528556 0.148349
v -0.986011 2.474000 0.185204
v -0.980703 2.691059 0.083936
v -0.829041 2.528556 -0.139658
v -1.058839 2.623992 0.148349
v -0.980703 2.691059 -0.075244
v -1.124965 2.527110 0.004346
v -0.986011 2.474000 -0.176512
v -1.021333 2.399702 0.004346
v -1.058838 2.623993 -0.139658
v 0.574655 4.081607 0.016575
v 0.555056 4.240890 -0.009152
v 0.537819 3.998744 0.509006
v 0.499283 4.240754 0.494678
v 0.448722 3.967377 -0.201817
v 0.517669 4.240890 -0.280204
v 0.505274 3.985315 0.042019
v 0.245374 3.698658 0.422174
v 0.362711 3.836525 0.405525
v 0.376677 3.860404 0.576923
v 0.540671 4.468858 0.489854
v 0.596487 4.468858 -0.004971
v 0.558723 4.468858 -0.282566
v 0.483204 4.735407 0.494150
v 0.545052 4.733997 0.001370
v 0.506783 4.735407 -0.279578
v 0.368809 3.968429 -0.452004
v 0.401878 4.240889 -0.537104
v 0.442933 4.468858 -0.539466
v 0.392324 4.735407 -0.503181
v 0.575651 4.042953 0.234071
v 0.648920 4.240889 0.226253
v 0.690198 4.468858 0.225176
v 0.595488 4.735407 0.238868
v 0.569278 3.955049 0.235398
v 0.466282 4.924163 0.202806
v 0.504891 4.921344 -0.004943
v 0.381517 4.924163 0.372437
v 0.309467 4.924163 -0.372075
v 0.452631 4.924163 -0.204759
v 0.418508 4.991841 -0.005019
v 0.309839 5.040127 0.001453
v 0.323484 4.996915 0.202591
v 0.326170 5.006217 -0.204678
v 0.298876 3.684342 0.568080
v 0.176067 4.012792 0.591352
v 0.159585 3.925703 0.629256
v 0.151051 4.012180 0.499250
v 0.134618 3.925092 0.538006
v 0.255852 4.468858 0.566357
v 0.194202 4.240889 0.608490
v 0.465386 4.240890 0.506942
v 0.281987 4.149414 0.561161
v 0.179126 4.306196 0.608493
v 0.442113 4.385215 0.506453
v 0.127066 4.245503 0.412037
v 0.397621 4.245503 0.310525
v 0.214800 4.154027 0.364712
v 0.111991 4.310811 0.412040
v 0.188551 4.473473 0.367039
v 0.374964 4.389829 0.309771
v 0.275227 3.505175 0.303352
v 0.250947 3.784626 0.255795
v 0.255984 3.706188 -0.078284
v 0.257936 3.912654 -0.138948
v 0.389134 3.506357 0.301239
v 0.366592 3.784882 0.279992
v 0.371360 3.705966 -0.071034
v 0.373332 3.910623 -0.132997
v 0.161607 3.424047 0.457002
v 0.179653 3.675789 0.441886
v 0.267477 3.623675 0.546375
v 0.248905 3.371933 0.552344
v 0.273230 3.641167 0.096504
v 0.277535 3.885005 0.089742
v 0.389298 3.640980 0.104145
v 0.394184 3.883017 0.099534
v 0.274260 4.023506 0.111798
v 0.247308 4.169338 -0.087677
v 0.362611 4.168312 -0.088150
v 0.403407 4.022538 0.114066
v -0.552830 4.081607 0.081436
v -0.536310 4.240890 0.053631
v -0.459767 3.998744 0.566394
v -0.423128 4.240754 0.547742
v 0.046913 4.240889 0.674808
v -0.023423 4.014392 -0.547853
v -0.028458 4.240889 -0.635389
v -0.452771 3.967377 -0.149957
v -0.530252 4.240890 -0.219921
v 0.012819 3.968154 0.082139
v -0.010725 3.916661 -0.327122
v -0.480988 3.985315 0.098756
v -0.179209 3.698658 0.446599
v 0.045373 3.665504 0.648041
v 0.035178 3.688158 0.470810
v 0.031321 3.836567 0.403770
v -0.297681 3.836525 0.443515
v -0.291900 3.860404 0.615384
v 0.047878 3.872726 0.691582
v -0.464796 4.468858 0.547695
v -0.576989 4.468858 0.062535
v 0.046674 4.468858 0.670647
v -0.571307 4.468858 -0.217559
v -0.028458 4.468858 -0.635389
v -0.407217 4.735407 0.545373
v -0.525166 4.733997 0.062936
v 0.045932 4.735407 0.657759
v -0.519367 4.735407 -0.220547
v -0.024631 4.735407 -0.568862
v -0.402075 3.968429 -0.407658
v -0.444686 4.240889 -0.488404
v -0.485740 4.468858 -0.486042
v -0.431304 4.735407 -0.455800
v -0.528877 4.042953 0.297611
v -0.602560 4.240889 0.298247
v -0.643690 4.468858 0.301910
v -0.548034 4.735407 0.304652
v -0.522395 3.955049 0.298199
v 0.023283 3.890462 0.264036
v -0.423816 4.924163 0.254010
v -0.485993 4.921344 0.052060
v 0.037661 4.914015 0.513971
v -0.320158 4.924163 0.412802
v -0.333960 4.924163 -0.335060
v -0.016167 4.924163 -0.421726
v -0.456992 4.924163 -0.152431
v 0.009542 5.100690 0.025176
v -0.400189 4.991841 0.042078
v -0.291495 5.040127 0.036046
v 0.031305 4.974927 0.403491
v 0.022828 5.042100 0.256128
v -0.281984 4.996915 0.237421
v -0.002236 5.067472 -0.179563
v -0.331356 5.006217 -0.166852
v -0.012328 4.985075 -0.354989
v -0.215627 3.684342 0.597678
v 0.046275 4.181573 0.663714
v 0.047139 3.909398 0.678737
v -0.090959 4.012792 0.606713
v -0.070239 3.925703 0.642478
v -0.076670 4.012180 0.512350
v 0.039983 3.998603 0.554349
v 0.040743 4.180962 0.567549
v 0.041796 3.908786 0.585849
v -0.055901 3.925092 0.548966
v -0.173084 4.468858 0.591032
v -0.107009 4.240889 0.625817
v -0.388049 4.240890 0.556037
v -0.199642 4.149414 0.588868
v -0.092033 4.306196 0.624092
v -0.364985 4.385215 0.552883
v -0.062845 4.245503 0.422962
v -0.343255 4.245503 0.353146
v -0.155427 4.154027 0.386010
v -0.047868 4.310811 0.421237
v -0.129084 4.473473 0.385312
v -0.320834 4.389829 0.349798
v -0.222491 3.505175 0.331984
v -0.203824 3.784626 0.281956
v -0.247139 3.706188 -0.049341
v -0.256034 3.912654 -0.109381
v -0.335889 3.506357 0.342947
v -0.315933 3.784882 0.319256
v -0.360922 3.705966 -0.028908
v -0.369987 3.910623 -0.090236
v -0.092001 3.424047 0.471591
v -0.111661 3.675789 0.458645
v -0.186924 3.623675 0.572516
v -0.167790 3.371933 0.576315
v 0.035997 3.412016 0.485045
v 0.035581 3.664763 0.477820
v 0.041740 3.612650 0.584879
v 0.041751 3.359902 0.585077
v -0.244227 3.641167 0.126271
v -0.249279 3.885005 0.120048
v -0.358653 3.640980 0.147173
v -0.364036 3.883017 0.143153
v -0.243496 4.023506 0.141583
v -0.239597 4.169338 -0.059666
v -0.354194 4.168312 -0.046914
v -0.371531 4.022538 0.158646
vt 0.500000 0.500000
vn -0.3855 0.2266 0.8944
vn -0.9672 0.0629 0.2462
vn -0.7367 -0.1671 -0.6553
vn -0.0000 -0.2471 -0.9690
vn 0.7367 -0.1671 -0.6553
vn -0.0000 0.9690 -0.2471
vn 0.9672 0.0629 0.2462
vn 0.0020 -0.9340 0.3573
vn 0.3853 -0.2109 -0.8984
vn 0.7368 0.1785 0.6521
vn 0.9668 -0.0479 -0.2509
vn 0.0264 -0.9585 0.2837
vn 0.0000 -0.9500 0.3123
vn -0.0264 -0.9585 0.2837
vn -0.0020 -0.9340 0.3573
vn 0.0000 -0.9690 0.2471
vn -0.9668 -0.0479 -0.2509
vn 0.0000 0.2570 0.9664
vn -0.3853 -0.2110 -0.8983
vn -0.7368 0.1785 0.6521
vn -0.9837 0.0441 0.1745
vn 0.9892 0.0358 0.1420
vn 0.3855 0.2267 0.8944
vn -0.3855 0.1287 0.9137
vn -0.9672 0.0359 0.2516
vn -0.7367 -0.0953 -0.6695
vn -0.0000 -0.1410 -0.9900
vn 0.7367 -0.0953 -0.6695
vn -0.0000 0.9900 -0.1410
vn 0.9672 0.0359 0.2516
vn 0.0020 -0.9671 0.2543
vn 0.3853 -0.1126 -0.9159
vn 0.7368 0.1070 0.6676
vn 0.9668 -0.0206 -0.2546
vn 0.0264 -0.9836 0.1785
vn 0.0000 -0.9782 0.2079
vn -0.0264 -0.9836 0.1785
vn -0.0020 -0.9671 0.2543
vn 0.0000 -0.9900 0.1410
vn -0.9668 -0.0206 -0.2546
vn 0.0000 0.1511 0.9885
vn -0.3853 -0.1127 -0.9159
vn -0.7368 0.1070 0.6676
vn -0.9837 0.0250 0.1782
vn 0.9892 0.0203 0.1450
vn 0.3855 0.1288 0.9137
vn -0.3855 -0.0068 0.9227
vn -0.9672 -0.0014 0.2541
vn -0.7367 0.0039 -0.6763
vn -0.0000 0.0058 -1.0000
vn 0.7367 0.0039 -0.6763
vn -0.0000 1.0000 0.0058
vn 0.9672 -0.0014 0.2541
vn 0.0020 -0.9940 0.1097
vn 0.3853 0.0230 -0.9225
vn 0.7368 0.0079 0.6761
vn 0.9668 0.0170 -0.2548
vn 0.0264 -0.9991 0.0323
vn 0.0000 -0.9981 0.0621
vn -0.0264 -0.9991 0.0323
vn -0.0020 -0.9940 0.1097
vn -0.0000 -1.0000 -0.0058
vn -0.9668 0.0170 -0.2548
vn 0.0000 0.0044 1.0000
vn -0.3853 0.0229 -0.9225
vn -0.7368 0.0079 0.6761
vn -0.9837 -0.0015 0.1799
vn 0.9892 -0.0012 0.1464
vn 0.3855 -0.0067 0.9227
vn -0.3855 -0.1178 0.9151
vn -0.9672 -0.0320 0.2521
vn -0.7367 0.0854 -0.6709
vn -0.0000 0.1262 -0.9920
vn 0.7367 0.0854 -0.6709
vn 0.0000 0.9920 0.1262
vn 0.9672 -0.0320 0.2521
vn 0.0020 -0.9999 -0.0109
vn 0.3853 0.1339 -0.9130
vn 0.7368 -0.0736 0.6721
vn 0.9668 0.0476 -0.2509
vn 0.0264 -0.9957 -0.0883
vn -0.0000 -0.9983 -0.0586
vn -0.0264 -0.9957 -0.0883
vn -0.0020 -0.9999 -0.0109
vn -0.0000 -0.9920 -0.1262
vn -0.9668 0.0476 -0.2509
vn 0.0000 -0.1161 0.9932
vn -0.3853 0.1338 -0.9130
vn -0.7368 -0.0736 0.6721
vn -0.9837 -0.0231 0.1784
vn 0.9892 -0.0188 0.1452
vn 0.3855 -0.1178 0.9151
vn -0.3855 -0.1822 0.9045
vn -0.9672 -0.0497 0.2492
vn -0.7367 0.1325 -0.6632
vn -0.0000 0.1960 -0.9806
vn 0.7367 0.1325 -0.6632
vn 0.0000 0.9806 0.1960
vn 0.9672 -0.0497 0.2492
vn 0.0020 -0.9967 -0.0815
vn 0.3853 0.1981 -0.9013
vn 0.7368 -0.1209 0.6652
vn 0.9668 0.0652 -0.2469
vn 0.0264 -0.9870 -0.1584
vn -0.0000 -0.9917 -0.1289
vn -0.0264 -0.9870 -0.1585
vn -0.0020 -0.9967 -0.0815
vn -0.0000 -0.9806 -0.1960
vn -0.9668 0.0652 -0.2469
vn 0.0000 -0.1860 0.9826
vn -0.3853 0.1980 -0.9013
vn -0.7368 -0.1209 0.6652
vn -0.9837 -0.0357 0.1764
vn 0.9892 -0.0291 0.1435
vn 0.3855 -0.1821 0.9045
vn 0.0452 -0.2364 -0.9706
vn -0.2567 0.2287 0.9390
vn -0.2403 -0.9520 0.1896
vn -0.2403 0.9337 0.2652
vn -0.0158 0.2366 0.9715
vn -0.4876 0.2066 0.8483
vn 0.2742 0.3017 -0.9131
vn -0.2790 -0.9548 0.1029
vn -0.3906 0.9132 0.1161
vn 0.8583 0.2913 0.4224
vn 0.4876 0.2739 -0.8290
vn 0.4486 -0.7743 0.4464
vn 0.4531 0.7323 0.5084
vn 0.4689 -0.1148 -0.8757
vn 0.8163 -0.4162 0.4007
vn 0.2796 -0.1279 -0.9515
vn -0.4404 -0.0821 0.8940
vn -0.0340 -0.0488 0.9982
vn -0.2778 -0.1006 0.9553
vn 0.0580 0.0756 -0.9954
vn 0.0452 0.3134 -0.9485
vn -0.2567 -0.3032 0.9177
vn -0.0158 -0.3137 0.9494
vn -0.4876 -0.2739 0.8290
vn 0.8182 -0.4748 0.3243
vn 0.4436 0.0951 -0.8912
vn 0.2913 0.1105 -0.9502
vn 0.2742 -0.2276 -0.9344
vn 0.4876 -0.2066 -0.8483
vn 0.8541 0.2549 0.4533
vn -0.4693 0.1168 0.8753
vn -0.0244 0.1123 0.9934
vn -0.2630 0.1312 0.9558
vn 0.0519 -0.1135 -0.9922
vn -0.0452 -0.2364 -0.9706
vn 0.2567 0.2287 0.9390
vn 0.2403 -0.9520 0.1896
vn 0.2403 0.9337 0.2652
vn 0.0158 0.2366 0.9715
vn 0.4876 0.2066 0.8483
vn -0.2742 0.3017 -0.9131
vn 0.2790 -0.9548 0.1029
vn 0.3906 0.9132 0.1161
vn -0.8583 0.2913 0.4224
vn -0.4876 0.2739 -0.8290
vn -0.4486 -0.7743 0.4464
vn -0.4531 0.7323 0.5084
vn -0.4689 -0.1148 -0.8757
vn -0.8163 -0.4162 0.4007
vn -0.2796 -0.1279 -0.9515
vn 0.4404 -0.0821 0.8940
vn 0.0340 -0.0488 0.9982
vn 0.2778 -0.1006 0.9553
vn -0.0580 0.0756 -0.9954
vn -0.0452 0.3134 -0.9485
vn 0.2567 -0.3032 0.9177
vn 0.0158 -0.3137 0.9494
vn 0.4876 -0.2739 0.8290
vn -0.8182 -0.4748 0.3243
vn -0.4436 0.0951 -0.8912
vn -0.2913 0.1105 -0.9502
vn -0.2742 -0.2276 -0.9344
vn -0.4876 -0.2066 -0.8483
vn -0.8541 0.2549 0.4533
vn 0.4693 0.1168 0.8753
vn 0.0244 0.1123 0.9934
vn 0.2630 0.1312 0.9558
vn -0.0519 -0.1135 -0.9922
vn 0.9452 -0.0584 0.3213
vn 0.2424 0.0656 0.9680
vn 0.4340 0.0354 0.9002
vn 0.8977 -0.2716 -0.3470
vn 0.9456 -0.1740 -0.2749
vn 0.7859 -0.6027 -0.1379
vn 0.0617 -0.9743 -0.2165
vn 0.0621 -0.9933 0.0980
vn 0.9897 -0.0699 0.1250
vn 0.0511 -0.8862 -0.4604
vn -0.0787 -0.2509 -0.9648
vn 0.0297 -0.9924 -0.1194
vn 0.3130 -0.1927 0.9300
vn 0.7629 -0.6459 0.0278
vn 0.2512 0.2420 0.9372
vn 0.6626 -0.7473 0.0501
vn 0.1753 0.2012 -0.9637
vn 0.9151 -0.1635 -0.3687
vn 0.9753 -0.1759 -0.1336
vn 0.2105 -0.0240 -0.9773
vn 0.9468 0.2695 -0.1759
vn 0.9215 0.2640 -0.2848
vn 0.9726 0.1914 -0.1319
vn 0.3469 0.0012 0.9379
vn 0.8990 -0.1661 -0.4052
vn 0.8834 0.2011 -0.4233
vn 0.1993 -0.3304 -0.9226
vn 0.8685 0.2332 0.4373
vn 0.8622 -0.1500 0.4838
vn 0.9625 -0.1649 -0.2157
vn 0.0563 -0.9565 -0.2863
vn 0.8936 -0.3977 -0.2081
vn 0.6030 -0.7740 0.1929
vn 0.4425 0.8691 0.2211
vn 0.7150 0.5165 -0.4712
vn 0.2797 0.6160 0.7365
vn 0.7325 0.5900 0.3397
vn 0.1223 0.6044 -0.7873
vn 0.9126 0.4078 -0.0281
vn 0.1027 0.7318 -0.6738
vn 0.6249 0.7656 -0.1526
vn 0.4754 0.8655 -0.1575
vn 0.1959 0.9572 0.2133
vn 0.6286 0.7704 0.1064
vn 0.1673 0.8674 0.4686
vn 0.1820 0.9132 0.3647
vn 0.4305 0.8854 0.1754
vn 0.4933 0.7606 -0.4221
vn 0.1761 0.9718 -0.1568
vn 0.1386 0.8887 -0.4371
vn 0.8626 -0.3635 -0.3520
vn 0.4499 -0.0663 0.8906
vn -0.7814 -0.6102 0.1307
vn -0.1486 0.9887 0.0179
vn 0.3237 0.3512 0.8786
vn 0.3915 0.3115 0.8658
vn -0.9253 0.2850 0.2503
vn 0.8320 -0.4707 -0.2936
vn 0.2577 -0.1133 0.9596
vn -0.9365 -0.1477 0.3180
vn 0.3883 -0.1099 0.9150
vn 0.3475 -0.1459 0.9263
vn 0.4461 0.0214 0.8947
vn 0.2107 0.0037 0.9775
vn 0.3422 0.0800 0.9362
vn 0.6510 0.7308 -0.2054
vn -0.3789 -0.9192 0.1072
vn 0.9259 0.2138 -0.3114
vn -0.4030 0.9012 0.1596
vn -0.9948 0.0284 0.0974
vn 0.0519 -0.2859 -0.9569
vn 0.9946 0.0385 0.0969
vn -0.8593 -0.0699 -0.5067
vn 0.0170 -0.8306 -0.5566
vn -0.0650 0.8702 0.4884
vn -0.0205 -0.8861 -0.4630
vn -0.0044 -0.8815 -0.4722
vn -0.0861 0.8694 0.4865
vn 0.9008 0.0290 0.4332
vn -0.2278 -0.0351 -0.9731
vn 0.0327 0.9022 0.4300
vn 0.1621 0.0061 0.9868
vn 0.0258 0.1847 -0.9825
vn 0.0209 -0.9365 -0.3500
vn 0.9944 -0.0304 -0.1015
vn -0.9942 -0.0479 -0.0959
vn 0.0023 0.8094 0.5872
vn -0.0501 -0.1293 0.9903
vn -0.9949 -0.0512 0.0874
vn 0.9911 0.0234 -0.1312
vn -0.9021 -0.0584 0.4276
vn -0.1298 0.0656 0.9894
vn -0.3279 0.0354 0.9440
vn -0.9315 -0.2716 -0.2418
vn -0.9709 -0.1740 -0.1647
vn -0.7966 -0.6027 -0.0469
vn -0.0861 -0.9743 -0.2080
vn -0.0504 -0.9933 0.1045
vn -0.9688 -0.0699 0.2376
vn -0.1035 -0.8862 -0.4515
vn -0.0325 -0.2509 -0.9675
vn -0.0432 -0.9924 -0.1152
vn -0.2043 -0.1927 0.9598
vn -0.7547 -0.6459 0.1151
vn -0.1421 0.2420 0.9598
vn -0.6525 -0.7473 0.1258
vn -0.2847 0.2012 -0.9373
vn -0.9513 -0.1635 -0.2613
vn -0.9842 -0.1759 -0.0209
vn -0.3212 -0.0240 -0.9467
vn -0.9607 0.2695 -0.0662
vn -0.9481 0.2640 -0.1773
vn -0.9813 0.1914 -0.0195
vn -0.2370 0.0012 0.9715
vn -0.9395 -0.1661 -0.2994
vn -0.9261 0.2011 -0.3192
vn -0.3038 -0.3304 -0.8936
vn -0.8127 0.2332 0.5340
vn -0.8010 -0.1500 0.5795
vn -0.9808 -0.1649 -0.1039
vn -0.0888 -0.9565 -0.2780
vn -0.9116 -0.3977 -0.1042
vn -0.5769 -0.7740 0.2608
vn -0.4142 0.8691 0.2704
vn -0.7643 0.5165 -0.3861
vn -0.1934 0.6160 0.7637
vn -0.6887 0.5900 0.4214
vn -0.2117 0.6044 -0.7681
vn -0.9098 0.4078 0.0767
vn -0.1793 0.7318 -0.6576
vn -0.6383 0.7656 -0.0800
vn -0.4903 0.8655 -0.1020
vn -0.1701 0.9572 0.2344
vn -0.6123 0.7704 0.1778
vn -0.1124 0.8674 0.4847
vn -0.1390 0.9132 0.3831
vn -0.4076 0.8854 0.2236
vn -0.5384 0.7606 -0.3627
vn -0.1929 0.9718 -0.1356
vn -0.1878 0.8887 -0.4183
vn -0.8972 -0.3635 -0.2507
vn -0.3448 -0.0663 0.9363
vn 0.7912 -0.6102 0.0403
vn 0.1497 0.9887 0.0007
vn -0.2208 0.3512 0.9099
vn -0.2896 0.3115 0.9050
vn 0.9479 0.2850 0.1426
vn -0.8602 -0.4707 -0.1963
vn -0.1460 -0.1133 0.9828
vn 0.9668 -0.1477 0.2085
vn -0.2808 -0.1099 0.9534
vn -0.2390 -0.1459 0.9600
vn -0.3405 0.0214 0.9400
vn -0.0972 0.0037 0.9953
vn -0.2326 0.0800 0.9693
vn -0.6702 0.7308 -0.1294
vn 0.3887 -0.9192 0.0631
vn -0.9555 0.2138 -0.2032
vn 0.4186 0.9012 0.1123
vn 0.9994 0.0284 -0.0174
vn -0.1613 -0.2859 -0.9446
vn -0.9769 0.0385 0.2103
vn 0.7955 -0.0699 -0.6019
vn -0.0807 -0.8306 -0.5509
vn 0.1205 0.8702 0.4777
vn -0.0327 -0.8861 -0.4623
vn -0.0498 -0.8815 -0.4696
vn 0.1413 0.8694 0.4734
vn -0.8452 0.0290 0.5336
vn 0.1147 -0.0351 -0.9928
vn 0.0168 0.9022 0.4309
vn -0.0478 0.0061 0.9988
vn -0.1383 0.1847 -0.9730
vn -0.0609 -0.9365 -0.3453
vn -0.9995 -0.0304 0.0132
vn 0.9767 -0.0479 -0.2093
vn 0.0651 0.8094 0.5836
vn 0.1634 -0.1293 0.9781
vn 0.9983 -0.0512 -0.0273
vn -0.9996 0.0234 -0.0167
vn -0.0035 0.0499 -0.9987
vn -0.7224 -0.0471 -0.6898
vn -0.7233 -0.0593 -0.6880
vn 0.0157 0.0640 -0.9978
vn 0.7131 0.1402 -0.6869
vn 0.7227 0.1083 -0.6825
vn -0.0302 0.3830 -0.9232
vn -0.7170 0.2048 -0.6662
vn -0.6107 -0.5799 -0.5392
vn 0.0042 -0.4107 -0.9117
vn -0.9943 -0.1061 -0.0094
vn -0.9916 -0.1285 -0.0140
vn 0.7114 0.2881 -0.6410
vn 0.6733 -0.4234 -0.6062
vn -0.8762 -0.4815 -0.0191
vn 0.9889 0.1486 0.0001
vn 0.9939 0.1098 -0.0007
vn 0.0172 -0.4502 -0.8928
vn -0.7179 0.1808 -0.6722
vn -0.9608 0.2773 -0.0016
vn -0.7268 -0.2376 -0.6444
vn 0.0352 -0.3518 -0.9354
vn -0.7006 -0.0734 0.7097
vn -0.6824 -0.0875 0.7257
vn -0.5517 -0.6269 0.5502
vn 0.9317 -0.3633 0.0023
vn 0.9435 0.3313 -0.0002
vn 0.6673 0.2346 -0.7069
vn -0.8931 -0.4498 0.0000
vn 0.0627 -0.9980 0.0000
vn 0.7045 -0.2505 -0.6640
vn -0.9087 -0.4170 -0.0172
vn -0.7161 0.1902 0.6715
vn 0.7155 0.1211 0.6880
vn 0.7257 0.0943 0.6814
vn 0.6685 -0.4277 0.6083
vn 0.9201 -0.3916 0.0000
vn -0.7179 0.1808 0.6722
vn -0.5335 0.7118 -0.4568
vn 0.0457 0.6930 -0.7194
vn -0.6602 -0.2409 0.7113
vn 0.9721 -0.2345 -0.0011
vn 0.0361 0.0231 0.9991
vn 0.0844 0.0338 0.9958
vn 0.0945 -0.4052 0.9093
vn 0.7150 0.2819 0.6398
vn 0.6673 0.2346 0.7069
vn -0.0243 0.3776 0.9256
vn 0.0172 -0.4502 0.8928
vn 0.4963 0.7219 -0.4821
vn -0.7314 0.6819 -0.0043
vn -0.4991 0.7051 0.5038
vn 0.1276 0.7065 0.6961
vn 0.4974 0.7194 0.4849
vn 0.6678 0.7443 0.0007
vn 0.7060 -0.2508 0.6623
vn 0.1206 -0.3606 0.9249
vn -0.5751 0.5906 0.5660
vn 0.0762 0.6219 0.7794
vn 0.5404 0.6558 0.5271
vn 0.7248 0.6889 0.0000
vn 0.5404 0.6558 -0.5271
vn 0.0002 0.6035 -0.7973
vn -0.6143 0.6049 -0.5066
vn -0.8115 0.5842 -0.0048
vn -0.8503 -0.5259 -0.0172
vn -0.6384 -0.3891 0.6641
vn 0.1543 -0.4410 0.8841
vn -0.6998 -0.3781 -0.6061
vn -0.8147 -0.5796 -0.0191
vn -0.4755 -0.6864 0.5502
vn 0.1408 -0.3916 0.9093
vn 0.6990 -0.3338 0.6324
vn 0.9494 -0.3141 -0.0004
vn 0.0657 -0.4395 -0.8958
vn -0.5396 -0.6466 -0.5392
vn 0.7135 -0.3475 0.6083
vn 0.9674 -0.2531 0.0023
vn 0.6980 -0.3367 -0.6320
vn 0.0516 -0.4075 -0.9117
vn -0.9701 -0.2423 -0.0140
vn -0.6677 -0.1658 0.7257
vn 0.0799 0.0434 0.9958
vn 0.7177 -0.3427 -0.6062
vn -0.7116 -0.1425 -0.6880
vn 0.6967 0.2030 0.6880
vn 0.9651 0.2619 0.0001
vn 0.0082 0.0654 -0.9978
vn -0.9754 -0.2203 -0.0094
vn -0.6874 -0.1539 0.7097
vn 0.0332 0.0272 0.9991
vn 0.6921 0.2217 -0.6869
vn -0.7121 -0.1303 -0.6898
vn 0.7100 0.1776 0.6814
vn 0.9746 0.2240 -0.0007
vn -0.0093 0.0492 -0.9987
vn -0.9864 0.1643 -0.0016
vn -0.7333 0.1061 0.6715
vn -0.0678 0.3723 0.9256
vn 0.6776 0.3627 0.6398
vn 0.7054 0.1911 -0.6825
vn 0.8989 0.4382 -0.0002
vn -0.0743 0.3769 -0.9232
vn -0.7359 0.1205 -0.6662
vn -0.8351 -0.5501 0.0000
vn -0.7340 0.0966 0.6722
vn 0.0692 -0.4452 0.8928
vn 0.6733 0.3684 -0.6410
vn -0.7340 0.0966 -0.6722
vn 0.1776 -0.9841 0.0000
vn 0.6357 0.3102 0.7069
vn 0.9592 -0.2826 0.0000
vn 0.0692 -0.4452 -0.8928
vn 0.6357 0.3102 -0.7069
vn 0.7233 -0.0593 -0.6880
vn 0.7224 -0.0471 -0.6898
vn 0.0035 0.0499 -0.9987
vn -0.0157 0.0640 -0.9978
vn -0.0042 -0.4107 -0.9117
vn 0.6107 -0.5799 -0.5392
vn 0.9916 -0.1285 -0.0140
vn 0.9943 -0.1061 -0.0094
vn -0.7227 0.1083 -0.6825
vn -0.7131 0.1402 -0.6869
vn 0.7170 0.2048 -0.6662
vn 0.0302 0.3830 -0.9232
vn -0.6733 -0.4234 -0.6062
vn 0.8762 -0.4815 -0.0191
vn -0.7114 0.2881 -0.6410
vn -0.0352 -0.3518 -0.9354
vn 0.7268 -0.2376 -0.6444
vn 0.5517 -0.6269 0.5502
vn 0.6824 -0.0875 0.7257
vn 0.7006 -0.0734 0.7097
vn 0.9608 0.2773 -0.0016
vn -0.9939 0.1098 -0.0007
vn -0.9889 0.1486 0.0001
vn 0.7179 0.1808 -0.6722
vn -0.0172 -0.4502 -0.8928
vn -0.7045 -0.2505 -0.6640
vn -0.9317 -0.3633 0.0023
vn 0.9087 -0.4170 -0.0172
vn 0.7161 0.1902 0.6715
vn -0.9435 0.3313 -0.0002
vn -0.6673 0.2346 -0.7069
vn 0.8931 -0.4498 0.0000
vn -0.0627 -0.9980 0.0000
vn -0.9721 -0.2345 -0.0011
vn -0.0457 0.6930 -0.7194
vn 0.5335 0.7118 -0.4568
vn 0.6602 -0.2409 0.7113
vn -0.0945 -0.4052 0.9093
vn -0.0844 0.0338 0.9958
vn -0.0361 0.0231 0.9991
vn -0.7257 0.0943 0.6814
vn -0.7155 0.1211 0.6880
vn -0.6685 -0.4277 0.6083
vn -0.9201 -0.3916 0.0000
vn 0.7179 0.1808 0.6722
vn -0.4963 0.7219 -0.4821
vn -0.7060 -0.2508 0.6623
vn -0.6678 0.7443 0.0007
vn -0.4974 0.7194 0.4849
vn -0.1276 0.7065 0.6961
vn 0.4991 0.7051 0.5038
vn 0.7314 0.6819 -0.0043
vn -0.1206 -0.3606 0.9249
vn 0.0243 0.3776 0.9256
vn -0.7150 0.2819 0.6398
vn -0.6673 0.2346 0.7069
vn -0.0172 -0.4502 0.8928
vn 0.5751 0.5906 0.5660
vn 0.8115 0.5842 -0.0048
vn 0.6143 0.6049 -0.5066
vn -0.0002 0.6035 -0.7973
vn -0.5404 0.6558 -0.5271
vn -0.7248 0.6889 0.0000
vn -0.5404 0.6558 0.5271
vn -0.0762 0.6219 0.7794
vn 0.6384 -0.3891 0.6641
vn -0.1543 -0.4410 0.8841
vn 0.8503 -0.5259 -0.0172
vn -0.1408 -0.3916 0.9093
vn 0.4755 -0.6864 0.5502
vn -0.6990 -0.3338 0.6324
vn 0.8147 -0.5796 -0.0191
vn 0.6998 -0.3781 -0.6061
vn -0.9494 -0.3141 -0.0004
vn -0.7135 -0.3475 0.6083
vn 0.5396 -0.6466 -0.5392
vn -0.0657 -0.4395 -0.8958
vn -0.6980 -0.3367 -0.6320
vn -0.9674 -0.2531 0.0023
vn -0.0799 0.0434 0.9958
vn 0.6677 -0.1658 0.7257
vn 0.9701 -0.2423 -0.0140
vn -0.0516 -0.4075 -0.9117
vn -0.7177 -0.3427 -0.6062
vn -0.6967 0.2030 0.6880
vn 0.7116 -0.1425 -0.6880
vn -0.9651 0.2619 0.0001
vn -0.0332 0.0272 0.9991
vn 0.6874 -0.1539 0.7097
vn 0.9754 -0.2203 -0.0094
vn -0.0082 0.0654 -0.9978
vn -0.6921 0.2217 -0.6869
vn -0.7100 0.1776 0.6814
vn 0.7121 -0.1303 -0.6898
vn -0.9746 0.2240 -0.0007
vn 0.0678 0.3723 0.9256
vn 0.7333 0.1061 0.6715
vn 0.9864 0.1643 -0.0016
vn 0.0093 0.0492 -0.9987
vn -0.7054 0.1911 -0.6825
vn -0.6776 0.3627 0.6398
vn 0.7359 0.1205 -0.6662
vn -0.8989 0.4382 -0.0002
vn -0.0692 -0.4452 0.8928
vn 0.7340 0.0966 0.6722
vn 0.8351 -0.5501 0.0000
vn 0.0743 0.3769 -0.9232
vn -0.6733 0.3684 -0.6410
vn -0.6357 0.3102 0.7069
vn -0.1776 -0.9841 0.0000
vn 0.7340 0.0966 -0.6722
vn -0.9592 -0.2826 0.0000
vn -0.0692 -0.4452 -0.8928
vn -0.6357 0.3102 -0.7069
vn 0.0127 -0.2478 -0.9687
vn -0.6726 -0.2314 -0.7029
vn -0.7379 -0.0824 -0.6699
vn 0.0022 -0.1026 -0.9947
vn 0.7223 -0.0593 -0.6890
vn 0.7042 -0.1450 -0.6950
vn -0.0099 -0.1158 -0.9932
vn -0.6864 -0.2042 -0.6980
vn -0.9973 -0.0655 -0.0341
vn -0.9997 -0.0180 -0.0141
vn 0.7283 -0.1829 -0.6604
vn 0.9997 0.0226 0.0026
vn 0.9991 0.0401 -0.0143
vn 0.0072 -0.6146 -0.7888
vn -0.7815 0.0534 -0.6215
vn -0.9542 0.2982 0.0225
vn -0.7330 0.1713 0.6583
vn -0.7045 0.0822 0.7049
vn 0.9746 0.2235 0.0132
vn 0.7491 0.0009 -0.6624
vn -0.9044 -0.4264 0.0127
vn 0.0335 -0.9987 0.0377
vn -0.7098 0.3995 0.5801
vn 0.7072 0.1139 0.6977
vn 0.7459 0.2282 0.6257
vn 0.9016 -0.4321 0.0214
vn -0.6800 0.3519 0.6432
vn 0.0237 0.3118 0.9499
vn 0.0515 0.1399 0.9888
vn 0.7153 0.3982 0.5742
vn 0.6375 0.3627 0.6797
vn -0.0327 0.6167 0.7865
vn 0.0013 -0.3228 0.9464
vn 0.7365 0.0236 0.6760
vn 0.0728 0.0533 0.9959
vn -0.7059 0.0421 0.7070
vn 0.7194 -0.0342 -0.6938
vn 0.9998 -0.0104 -0.0140
vn -0.7084 -0.0293 -0.7052
vn 0.0228 -0.0461 -0.9987
vn -0.9995 0.0060 -0.0313
vn 0.7191 0.1590 -0.6764
vn 0.9963 0.0854 0.0026
vn 0.0254 0.1470 -0.9888
vn -0.7044 -0.1730 0.6883
vn -0.9957 -0.0754 -0.0540
vn 0.7385 -0.0334 0.6734
vn -0.6961 0.0537 -0.7159
vn 0.0783 -0.1378 0.9873
vn 0.6995 0.3128 -0.6424
vn 0.9943 0.1043 0.0216
vn 0.0129 0.3500 -0.9366
vn -0.7092 -0.3012 0.6374
vn -0.9946 -0.0841 -0.0598
vn 0.7174 -0.1459 0.6812
vn -0.7149 0.1823 -0.6750
vn 0.0748 -0.3107 0.9475
vn -0.6718 -0.2041 -0.7120
vn -0.0146 0.0514 -0.9986
vn 0.6659 -0.1375 -0.7332
vn -0.9360 -0.3118 -0.1631
vn -0.7426 0.1169 -0.6594
vn 0.0112 0.0749 -0.9971
vn -0.6251 -0.7105 0.3232
vn 0.9237 -0.3534 -0.1480
vn 0.6941 0.0125 -0.7197
vn -0.9462 -0.2862 -0.1507
vn 0.6563 -0.6377 0.4031
vn -0.4799 0.8676 -0.1300
vn 0.1027 0.9033 -0.4166
vn -0.6825 -0.4400 0.5835
vn 0.9607 -0.2556 -0.1081
vn 0.0680 -0.6990 0.7119
vn 0.5663 0.8047 -0.1779
vn -0.7101 0.6481 0.2752
vn -0.4530 0.4661 0.7599
vn 0.1815 0.3206 0.9297
vn 0.5624 0.4100 0.7180
vn 0.7374 0.6171 0.2747
vn 0.6892 -0.5223 0.5021
vn 0.0878 -0.6900 0.7185
vn -0.0111 0.0488 -0.9987
vn -0.7066 -0.1576 -0.6898
vn -0.7056 -0.1697 -0.6880
vn 0.0057 0.0656 -0.9978
vn 0.6831 0.2481 -0.6869
vn 0.6975 0.2180 -0.6825
vn -0.0887 0.3738 -0.9232
vn -0.7400 0.0922 -0.6662
vn -0.5139 -0.6673 -0.5390
vn 0.0674 -0.4054 -0.9116
vn -0.9662 -0.2576 -0.0094
vn -0.9601 -0.2794 -0.0140
vn 0.6587 0.3940 -0.6410
vn 0.7306 -0.3148 -0.6059
vn -0.7915 -0.6108 -0.0192
vn 0.9543 0.2988 0.0001
vn 0.9653 0.2612 -0.0007
vn 0.0862 -0.4422 -0.8928
vn -0.7372 0.0684 -0.6722
vn -0.9920 0.1264 -0.0016
vn -0.6808 -0.3471 -0.6450
vn 0.0904 -0.3425 -0.9351
vn -0.6810 -0.1801 0.7097
vn -0.6608 -0.1913 0.7257
vn -0.4480 -0.7054 0.5492
vn 0.9764 -0.2157 0.0022
vn 0.8814 0.4723 -0.0002
vn 0.6233 0.3344 -0.7069
vn -0.8134 -0.5817 0.0000
vn 0.2153 -0.9765 0.0000
vn 0.7354 -0.1371 -0.6636
vn -0.8342 -0.5511 -0.0171
vn -0.7368 0.0779 0.6715
vn 0.6884 0.2296 0.6880
vn 0.7026 0.2047 0.6814
vn 0.7266 -0.3199 0.6080
vn 0.9694 -0.2456 0.0000
vn -0.7372 0.0684 0.6722
vn -0.6431 0.6161 -0.4548
vn -0.0697 0.6876 -0.7227
vn -0.6137 -0.3410 0.7121
vn 0.9968 -0.0795 -0.0012
vn 0.0321 0.0284 0.9991
vn 0.0782 0.0464 0.9958
vn 0.1563 -0.3865 0.9089
vn 0.6632 0.3884 0.6398
vn 0.6233 0.3344 0.7069
vn -0.0820 0.3694 0.9256
vn 0.0862 -0.4422 0.8928
vn 0.3714 0.7941 -0.4811
vn -0.8306 0.5569 -0.0039
vn -0.6082 0.6151 0.5016
vn 0.0084 0.7137 0.7004
vn 0.3728 0.7918 0.4837
vn 0.5338 0.8456 0.0005
vn 0.7371 -0.1367 0.6618
vn 0.1760 -0.3381 0.9245
vn -0.7067 0.4244 0.5660
vn -0.0849 0.6208 0.7794
vn 0.3553 0.7719 0.5271
vn 0.5252 0.8509 0.0000
vn 0.3553 0.7719 -0.5271
vn -0.1538 0.5836 -0.7973
vn -0.7483 0.4282 -0.5066
vn -0.9337 0.3580 -0.0048
vn -0.6881 -0.7254 -0.0172
vn -0.5180 -0.5390 0.6641
vn 0.2616 -0.3871 0.8841
vn -0.5802 -0.5441 -0.6061
vn -0.6399 -0.7682 -0.0191
vn -0.2847 -0.7850 0.5502
vn 0.2360 -0.3427 0.9093
vn 0.7610 -0.1445 0.6324
vn 0.9981 -0.0616 -0.0004
vn 0.1757 -0.4082 -0.8958
vn -0.3569 -0.7628 -0.5392
vn 0.7786 -0.1541 0.6083
vn 1.0000 0.0020 0.0023
vn 0.7608 -0.1476 -0.6320
vn 0.1538 -0.3808 -0.9117
vn -0.8762 -0.4817 -0.0140
vn -0.6033 -0.3306 0.7257
vn 0.0662 0.0623 0.9958
vn 0.7814 -0.1483 -0.6062
vn -0.6517 -0.3193 -0.6880
vn 0.6219 0.3739 0.6880
vn 0.8664 0.4994 0.0001
vn -0.0087 0.0653 -0.9978
vn -0.8869 -0.4618 -0.0094
vn -0.6254 -0.3241 0.7097
vn 0.0251 0.0347 0.9991
vn 0.6127 0.3909 -0.6869
vn -0.6553 -0.3076 -0.6898
vn 0.6412 0.3528 0.6814
vn 0.8852 0.4651 -0.0007
vn -0.0215 0.0452 -0.9987
vn -0.9957 -0.0926 -0.0016
vn -0.7361 -0.0844 0.6715
vn -0.1605 0.3427 0.9256
vn 0.5627 0.5235 0.6398
vn 0.6333 0.3647 -0.6825
vn 0.7574 0.6529 -0.0002
vn -0.1679 0.3455 -0.9232
vn -0.7423 -0.0711 -0.6662
vn -0.6672 -0.7448 0.0000
vn -0.7344 -0.0938 0.6722
vn 0.1804 -0.4128 0.8928
vn 0.5571 0.5279 -0.6410
vn -0.7344 -0.0938 -0.6722
vn 0.4227 -0.9062 0.0000
vn 0.5355 0.4621 0.7069
vn 0.9996 -0.0286 0.0000
vn 0.1804 -0.4128 -0.8928
vn 0.5355 0.4621 -0.7069
vn 0.0052 0.0498 -0.9987
vn -0.0135 0.0645 -0.9978
vn 0.7208 -0.0845 -0.6880
vn 0.7203 -0.0723 -0.6898
vn -0.7185 0.1335 -0.6825
vn -0.7078 0.1650 -0.6869
vn 0.7238 0.1796 -0.6662
vn 0.0435 0.3817 -0.9232
vn -0.0185 -0.4103 -0.9117
vn 0.5901 -0.6008 -0.5392
vn 0.9865 -0.1631 -0.0140
vn 0.9900 -0.1408 -0.0094
vn -0.7009 0.3128 -0.6410
vn -0.6876 -0.3995 -0.6062
vn 0.8589 -0.5118 -0.0191
vn -0.9895 0.1444 -0.0007
vn -0.9831 0.1831 0.0001
vn 0.7238 0.1556 -0.6722
vn -0.0329 -0.4493 -0.8928
vn 0.9699 0.2435 -0.0016
vn -0.0475 -0.3504 -0.9354
vn 0.7181 -0.2629 -0.6444
vn 0.6789 -0.1112 0.7257
vn 0.6976 -0.0978 0.7097
vn 0.5294 -0.6457 0.5502
vn -0.9438 -0.3305 0.0023
vn -0.9314 0.3641 -0.0002
vn -0.6587 0.2578 -0.7069
vn 0.8768 -0.4807 0.0000
vn -0.0975 -0.9952 0.0000
vn -0.7129 -0.2257 -0.6640
vn 0.8936 -0.4485 -0.0172
vn 0.7223 0.1651 0.6715
vn -0.7220 0.1196 0.6814
vn -0.7108 0.1460 0.6880
vn -0.6831 -0.4041 0.6083
vn -0.9332 -0.3592 0.0000
vn 0.7238 0.1556 0.6722
vn -0.0215 0.6942 -0.7194
vn 0.5580 0.6927 -0.4568
vn 0.6514 -0.2638 0.7113
vn -0.9797 -0.2004 -0.0011
vn -0.0832 0.0368 0.9958
vn -0.0353 0.0244 0.9991
vn -0.1086 -0.4017 0.9093
vn -0.7047 0.3067 0.6398
vn -0.6587 0.2578 0.7069
vn 0.0375 0.3765 0.9256
vn -0.0329 -0.4493 0.8928
vn -0.4708 0.7389 -0.4821
vn 0.7548 0.6560 -0.0043
vn -0.6414 0.7672 0.0007
vn -0.4719 0.7363 0.4849
vn -0.1028 0.7106 0.6961
vn 0.5234 0.6872 0.5038
vn -0.7143 -0.2259 0.6623
vn -0.1332 -0.3562 0.9249
vn 0.6907 0.4500 0.5660
vn 0.9199 0.3919 -0.0048
vn 0.7321 0.4554 -0.5066
vn 0.1323 0.5889 -0.7973
vn -0.3834 0.7584 -0.5271
vn -0.5560 0.8311 0.0000
vn -0.3834 0.7584 0.5271
vn 0.0621 0.6235 0.7794
vn 0.7142 -0.6997 -0.0172
vn 0.5374 -0.5197 0.6641
vn -0.2473 -0.3964 0.8841
vn 0.5997 -0.5224 -0.6061
vn 0.3133 -0.7740 0.5502
vn 0.6676 -0.7442 -0.0191
vn -0.2232 -0.3511 0.9093
vn -0.7552 -0.1723 0.6324
vn -0.9951 -0.0981 -0.0004
vn -0.1606 -0.4144 -0.8958
vn 0.3846 -0.7492 -0.5392
vn -0.7724 -0.1825 0.6083
vn -0.9994 -0.0347 0.0023
vn -0.7548 -0.1754 -0.6320
vn -0.1398 -0.3862 -0.9117
vn 0.6150 -0.3082 0.7257
vn 0.8933 -0.4493 -0.0140
vn -0.0685 0.0598 0.9958
vn -0.7754 -0.1768 -0.6062
vn 0.6630 -0.2951 -0.6880
vn -0.6352 0.3509 0.6880
vn -0.8841 0.4673 0.0001
vn 0.0063 0.0656 -0.9978
vn 0.6369 -0.3010 0.7097
vn 0.9032 -0.4290 -0.0094
vn -0.0264 0.0338 0.9991
vn -0.6266 0.3681 -0.6869
vn 0.6662 -0.2834 -0.6898
vn -0.6537 0.3291 0.6814
vn -0.9017 0.4324 -0.0007
vn 0.0198 0.0460 -0.9987
vn 0.7387 -0.0573 0.6715
vn 0.9984 -0.0561 -0.0016
vn 0.1479 0.3483 0.9256
vn -0.5815 0.5025 0.6398
vn -0.6463 0.3412 -0.6825
vn -0.7808 0.6247 -0.0002
vn 0.7444 -0.0439 -0.6662
vn 0.1551 0.3515 -0.9232
vn 0.7373 -0.0668 0.6722
vn 0.6941 -0.7199 0.0000
vn -0.1651 -0.4191 0.8928
vn -0.5760 0.5072 -0.6410
vn 0.7373 -0.0668 -0.6722
vn -0.3892 -0.9211 0.0000
vn -0.5521 0.4421 0.7069
vn -0.9979 -0.0652 0.0000
vn -0.1651 -0.4191 -0.8928
vn -0.5521 0.4421 -0.7069
usemtl Skeleton
s off
f 25/1/1 26/1/1 2/1/1 1/1/1
f 1/1/2 2/1/2 4/1/2 3/1/2
f 3/1/3 4/1/3 6/1/3 5/1/3
f 5/1/4 6/1/4 8/1/4 7/1/4
f 7/1/5 8/1/5 10/1/5 9/1/5
f 12/1/6 10/1/6 17/1/6 18/1/6
f 9/1/7 10/1/7 12/1/7 11/1/7
f 1/1/8 3/1/8 20/1/8 19/1/8
f 8/1/6 6/1/6 15/1/6 16/1/6
f 30/1/6 12/1/6 18/1/6 31/1/6
f 4/1/6 2/1/6 13/1/6 14/1/6
f 10/1/6 8/1/6 16/1/6 17/1/6
f 6/1/6 4/1/6 14/1/6 15/1/6
f 28/1/9 19/1/9 13/1/9 27/1/9
f 15/1/10 14/1/10 20/1/10 21/1/10
f 19/1/11 20/1/11 14/1/11 13/1/11
f 7/1/12 9/1/12 23/1/12 22/1/12
f 25/1/13 1/1/13 19/1/13 28/1/13
f 3/1/14 5/1/14 21/1/14 20/1/14
f 9/1/15 11/1/15 24/1/15 23/1/15
f 5/1/16 7/1/16 22/1/16 21/1/16
f 18/1/17 17/1/17 23/1/17 24/1/17
f 16/1/18 15/1/18 21/1/18 22/1/18
f 31/1/19 18/1/19 24/1/19 32/1/19
f 17/1/20 16/1/20 22/1/20 23/1/20
f 2/1/6 26/1/6 27/1/6 13/1/6
f 32/1/21 29/1/21 30/1/21 31/1/21
f 11/1/13 29/1/13 32/1/13 24/1/13
f 28/1/22 27/1/22 26/1/22 25/1/22
f 11/1/23 12/1/23 30/1/23 29/1/23
f 57/1/24 58/1/24 34/1/24 33/1/24
f 33/1/25 34/1/25 36/1/25 35/1/25
f 35/1/26 36/1/26 38/1/26 37/1/26
f 37/1/27 38/1/27 40/1/27 39/1/27
f 39/1/28 40/1/28 42/1/28 41/1/28
f 44/1/29 42/1/29 49/1/29 50/1/29
f 41/1/30 42/1/30 44/1/30 43/1/30
f 33/1/31 35/1/31 52/1/31 51/1/31
f 40/1/29 38/1/29 47/1/29 48/1/29
f 62/1/29 44/1/29 50/1/29 63/1/29
f 36/1/29 34/1/29 45/1/29 46/1/29
f 42/1/29 40/1/29 48/1/29 49/1/29
f 38/1/29 36/1/29 46/1/29 47/1/29
f 60/1/32 51/1/32 45/1/32 59/1/32
f 47/1/33 46/1/33 52/1/33 53/1/33
f 51/1/34 52/1/34 46/1/34 45/1/34
f 39/1/35 41/1/35 55/1/35 54/1/35
f 57/1/36 33/1/36 51/1/36 60/1/36
f 35/1/37 37/1/37 53/1/37 52/1/37
f 41/1/38 43/1/38 56/1/38 55/1/38
f 37/1/39 39/1/39 54/1/39 53/1/39
f 50/1/40 49/1/40 55/1/40 56/1/40
f 48/1/41 47/1/41 53/1/41 54/1/41
f 63/1/42 50/1/42 56/1/42 64/1/42
f 49/1/43 48/1/43 54/1/43 55/1/43
f 34/1/29 58/1/29 59/1/29 45/1/29
f 64/1/44 61/1/44 62/1/44 63/1/44
f 43/1/36 61/1/36 64/1/36 56/1/36
f 60/1/45 59/1/45 58/1/45 57/1/45
f 43/1/46 44/1/46 62/1/46 61/1/46
f 89/1/47 90/1/47 66/1/47 65/1/47
f 65/1/48 66/1/48 68/1/48 67/1/48
f 67/1/49 68/1/49 70/1/49 69/1/49
f 69/1/50 70/1/50 72/1/50 71/1/50
f 71/1/51 72/1/51 74/1/51 73/1/51
f 76/1/52 74/1/52 81/1/52 82/1/52
f 73/1/53 74/1/53 76/1/53 75/1/53
f 65/1/54 67/1/54 84/1/54 83/1/54
f 72/1/52 70/1/52 79/1/52 80/1/52
f 94/1/52 76/1/52 82/1/52 95/1/52
f 68/1/52 66/1/52 77/1/52 78/1/52
f 74/1/52 72/1/52 80/1/52 81/1/52
f 70/1/52 68/1/52 78/1/52 79/1/52
f 92/1/55 83/1/55 77/1/55 91/1/55
f 79/1/56 78/1/56 84/1/56 85/1/56
f 83/1/57 84/1/57 78/1/57 77/1/57
f 71/1/58 73/1/58 87/1/58 86/1/58
f 89/1/59 65/1/59 83/1/59 92/1/59
f 67/1/60 69/1/60 85/1/60 84/1/60
f 73/1/61 75/1/61 88/1/61 87/1/61
f 69/1/62 71/1/62 86/1/62 85/1/62
f 82/1/63 81/1/63 87/1/63 88/1/63
f 80/1/64 79/1/64 85/1/64 86/1/64
f 95/1/65 82/1/65 88/1/65 96/1/65
f 81/1/66 80/1/66 86/1/66 87/1/66
f 66/1/52 90/1/52 91/1/52 77/1/52
f 96/1/67 93/1/67 94/1/67 95/1/67
f 75/1/59 93/1/59 96/1/59 88/1/59
f 92/1/68 91/1/68 90/1/68 89/1/68
f 75/1/69 76/1/69 94/1/69 93/1/69
f 121/1/70 122/1/70 98/1/70 97/1/70
f 97/1/71 98/1/71 100/1/71 99/1/71
f 99/1/72 100/1/72 102/1/72 101/1/72
f 101/1/73 102/1/73 104/1/73 103/1/73
f 103/1/74 104/1/74 106/1/74 105/1/74
f 108/1/75 106/1/75 113/1/75 114/1/75
f 105/1/76 106/1/76 108/1/76 107/1/76
f 97/1/77 99/1/77 116/1/77 115/1/77
f 104/1/75 102/1/75 111/1/75 112/1/75
f 126/1/75 108/1/75 114/1/75 127/1/75
f 100/1/75 98/1/75 109/1/75 110/1/75
f 106/1/75 104/1/75 112/1/75 113/1/75
f 102/1/75 100/1/75 110/1/75 111/1/75
f 124/1/78 115/1/78 109/1/78 123/1/78
f 111/1/79 110/1/79 116/1/79 117/1/79
f 115/1/80 116/1/80 110/1/80 109/1/80
f 103/1/81 105/1/81 119/1/81 118/1/81
f 121/1/82 97/1/82 115/1/82 124/1/82
f 99/1/83 101/1/83 117/1/83 116/1/83
f 105/1/84 107/1/84 120/1/84 119/1/84
f 101/1/85 103/1/85 118/1/85 117/1/85
f 114/1/86 113/1/86 119/1/86 120/1/86
f 112/1/87 111/1/87 117/1/87 118/1/87
f 127/1/88 114/1/88 120/1/88 128/1/88
f 113/1/89 112/1/89 118/1/89 119/1/89
f 98/1/75 122/1/75 123/1/75 109/1/75
f 128/1/90 125/1/90 126/1/90 127/1/90
f 107/1/82 125/1/82 128/1/82 120/1/82
f 124/1/91 123/1/91 122/1/91 121/1/91
f 107/1/92 108/1/92 126/1/92 125/1/92
f 153/1/93 154/1/93 130/1/93 129/1/93
f 129/1/94 130/1/94 132/1/94 131/1/94
f 131/1/95 132/1/95 134/1/95 133/1/95
f 133/1/96 134/1/96 136/1/96 135/1/96
f 135/1/97 136/1/97 138/1/97 137/1/97
f 140/1/98 138/1/98 145/1/98 146/1/98
f 137/1/99 138/1/99 140/1/99 139/1/99
f 129/1/100 131/1/100 148/1/100 147/1/100
f 136/1/98 134/1/98 143/1/98 144/1/98
f 158/1/98 140/1/98 146/1/98 159/1/98
f 132/1/98 130/1/98 141/1/98 142/1/98
f 138/1/98 136/1/98 144/1/98 145/1/98
f 134/1/98 132/1/98 142/1/98 143/1/98
f 156/1/101 147/1/101 141/1/101 155/1/101
f 143/1/102 142/1/102 148/1/102 149/1/102
f 147/1/103 148/1/103 142/1/103 141/1/103
f 135/1/104 137/1/104 151/1/104 150/1/104
f 153/1/105 129/1/105 147/1/105 156/1/105
f 131/1/106 133/1/106 149/1/106 148/1/106
f 137/1/107 139/1/107 152/1/107 151/1/107
f 133/1/108 135/1/108 150/1/108 149/1/108
f 146/1/109 145/1/109 151/1/109 152/1/109
f 144/1/110 143/1/110 149/1/110 150/1/110
f 159/1/111 146/1/111 152/1/111 160/1/111
f 145/1/112 144/1/112 150/1/112 151/1/112
f 130/1/98 154/1/98 155/1/98 141/1/98
f 160/1/113 157/1/113 158/1/113 159/1/113
f 139/1/105 157/1/105 160/1/105 152/1/105
f 156/1/114 155/1/114 154/1/114 153/1/114
f 139/1/115 140/1/115 158/1/115 157/1/115
f 226/1/116 185/1/116 163/1/116 196/1/116
f 186/1/117 161/1/117 168/1/117 188/1/117
f 198/1/118 196/1/118 163/1/118 161/1/118
f 162/1/119 164/1/119 195/1/119 197/1/119
f 186/1/120 225/1/120 198/1/120 161/1/120
f 188/1/121 168/1/121 172/1/121 190/1/121
f 179/1/122 164/1/122 165/1/122 181/1/122
f 161/1/123 163/1/123 166/1/123 168/1/123
f 164/1/124 162/1/124 167/1/124 165/1/124
f 189/1/125 190/1/125 172/1/125 170/1/125
f 181/1/126 165/1/126 169/1/126 183/1/126
f 168/1/127 166/1/127 170/1/127 172/1/127
f 165/1/128 167/1/128 171/1/128 169/1/128
f 187/1/129 175/1/129 177/1/129 189/1/129
f 183/1/130 184/1/130 178/1/130 177/1/130
f 185/1/131 173/1/131 175/1/131 187/1/131
f 182/1/132 176/1/132 178/1/132 184/1/132
f 180/1/133 217/1/133 209/1/133 174/1/133
f 180/1/134 174/1/134 176/1/134 182/1/134
f 218/1/135 179/1/135 173/1/135 210/1/135
f 195/1/136 164/1/136 179/1/136 218/1/136
f 162/1/137 180/1/137 182/1/137 167/1/137
f 162/1/138 197/1/138 217/1/138 180/1/138
f 167/1/139 182/1/139 184/1/139 171/1/139
f 169/1/140 171/1/140 184/1/140 183/1/140
f 175/1/141 181/1/141 183/1/141 177/1/141
f 173/1/142 179/1/142 181/1/142 175/1/142
f 163/1/143 185/1/143 187/1/143 166/1/143
f 166/1/144 187/1/144 189/1/144 170/1/144
f 177/1/145 178/1/145 190/1/145 189/1/145
f 176/1/146 188/1/146 190/1/146 178/1/146
f 174/1/147 209/1/147 225/1/147 186/1/147
f 174/1/148 186/1/148 188/1/148 176/1/148
f 210/1/149 173/1/149 185/1/149 226/1/149
f 226/1/150 196/1/150 193/1/150 223/1/150
f 224/1/151 228/1/151 202/1/151 191/1/151
f 198/1/152 191/1/152 193/1/152 196/1/152
f 192/1/153 197/1/153 195/1/153 194/1/153
f 224/1/154 191/1/154 198/1/154 225/1/154
f 228/1/155 230/1/155 206/1/155 202/1/155
f 215/1/156 219/1/156 199/1/156 194/1/156
f 191/1/157 202/1/157 200/1/157 193/1/157
f 194/1/158 199/1/158 201/1/158 192/1/158
f 229/1/159 204/1/159 206/1/159 230/1/159
f 219/1/160 221/1/160 203/1/160 199/1/160
f 202/1/161 206/1/161 204/1/161 200/1/161
f 199/1/162 203/1/162 205/1/162 201/1/162
f 227/1/163 229/1/163 213/1/163 211/1/163
f 221/1/164 213/1/164 214/1/164 222/1/164
f 223/1/165 227/1/165 211/1/165 207/1/165
f 220/1/166 222/1/166 214/1/166 212/1/166
f 216/1/167 208/1/167 209/1/167 217/1/167
f 216/1/168 220/1/168 212/1/168 208/1/168
f 218/1/169 210/1/169 207/1/169 215/1/169
f 195/1/170 218/1/170 215/1/170 194/1/170
f 192/1/171 201/1/171 220/1/171 216/1/171
f 192/1/172 216/1/172 217/1/172 197/1/172
f 201/1/173 205/1/173 222/1/173 220/1/173
f 203/1/174 221/1/174 222/1/174 205/1/174
f 211/1/175 213/1/175 221/1/175 219/1/175
f 207/1/176 211/1/176 219/1/176 215/1/176
f 193/1/177 200/1/177 227/1/177 223/1/177
f 200/1/178 204/1/178 229/1/178 227/1/178
f 213/1/179 229/1/179 230/1/179 214/1/179
f 212/1/180 214/1/180 230/1/180 228/1/180
f 208/1/181 224/1/181 225/1/181 209/1/181
f 208/1/182 212/1/182 228/1/182 224/1/182
f 210/1/183 226/1/183 223/1/183 207/1/183
f 788/1/184 789/1/184 771/1/184 770/1/184
f 770/1/185 771/1/185 809/1/185 810/1/185 803/1/185
f 843/1/186 808/1/186 811/1/186 860/1/186
f 784/1/187 785/1/187 773/1/187 772/1/187
f 772/1/188 773/1/188 769/1/188 768/1/188
f 768/1/189 774/1/189 772/1/189
f 772/1/190 849/1/190 844/1/190 784/1/190
f 772/1/191 774/1/191 848/1/191 849/1/191
f 770/1/192 792/1/192 788/1/192
f 877/1/193 792/1/193 776/1/193 854/1/193
f 854/1/194 776/1/194 775/1/194 853/1/194
f 853/1/195 775/1/195 802/1/195 852/1/195
f 777/1/196 857/1/196 852/1/196 802/1/196
f 776/1/197 777/1/197 775/1/197
f 770/1/198 803/1/198 804/1/198 777/1/198
f 777/1/199 776/1/199 770/1/199
f 786/1/200 862/1/200 867/1/200 787/1/200
f 789/1/201 769/1/201 779/1/201 790/1/201
f 769/1/202 773/1/202 780/1/202 779/1/202
f 785/1/203 845/1/203 862/1/203 786/1/203
f 782/1/204 783/1/204 797/1/204 794/1/204
f 790/1/205 779/1/205 782/1/205 791/1/205
f 779/1/206 780/1/206 783/1/206 782/1/206
f 860/1/207 807/1/207 778/1/207 781/1/207 865/1/207
f 773/1/208 785/1/208 786/1/208 780/1/208
f 780/1/209 786/1/209 787/1/209 783/1/209
f 844/1/210 845/1/210 785/1/210 784/1/210
f 778/1/211 790/1/211 791/1/211 781/1/211
f 771/1/212 789/1/212 790/1/212 778/1/212
f 768/1/213 769/1/213 789/1/213 788/1/213
f 848/1/214 774/1/214 792/1/214 877/1/214
f 788/1/215 792/1/215 774/1/215 768/1/215
f 792/1/216 770/1/216 776/1/216
f 795/1/217 793/1/217 800/1/217
f 783/1/218 787/1/218 796/1/218 797/1/218
f 865/1/219 781/1/219 795/1/219 880/1/219
f 781/1/220 791/1/220 793/1/220 795/1/220
f 787/1/221 867/1/221 883/1/221 796/1/221
f 791/1/222 782/1/222 794/1/222 793/1/222
f 796/1/223 883/1/223 893/1/223
f 797/1/224 798/1/224 794/1/224
f 799/1/225 798/1/225 797/1/225 801/1/225
f 799/1/226 885/1/226 889/1/226 800/1/226
f 794/1/227 798/1/227 793/1/227
f 795/1/228 888/1/228 880/1/228
f 800/1/229 889/1/229 888/1/229 795/1/229
f 800/1/230 793/1/230 798/1/230 799/1/230
f 801/1/231 797/1/231 796/1/231
f 801/1/232 891/1/232 885/1/232 799/1/232
f 893/1/233 891/1/233 801/1/233 796/1/233
f 802/1/234 775/1/234 777/1/234
f 805/1/235 901/1/235 900/1/235
f 803/1/236 895/1/236 901/1/236 805/1/236
f 896/1/237 804/1/237 806/1/237 902/1/237
f 777/1/238 804/1/238 896/1/238 857/1/238
f 902/1/239 806/1/239 805/1/239 900/1/239
f 804/1/240 803/1/240 805/1/240 806/1/240
f 807/1/241 811/1/241 816/1/241 817/1/241
f 807/1/242 812/1/242 778/1/242
f 809/1/243 812/1/243 818/1/243 814/1/243
f 803/1/244 810/1/244 808/1/244 843/1/244 895/1/244
f 813/1/245 815/1/245 814/1/245
f 860/1/246 811/1/246 807/1/246
f 778/1/247 812/1/247 809/1/247 771/1/247
f 814/1/248 818/1/248 817/1/248 816/1/248 813/1/248
f 808/1/249 810/1/249 815/1/249 813/1/249
f 812/1/250 807/1/250 817/1/250 818/1/250
f 811/1/251 808/1/251 813/1/251 816/1/251
f 810/1/252 809/1/252 814/1/252 815/1/252
f 831/1/253 832/1/253 822/1/253 821/1/253
f 821/1/254 822/1/254 826/1/254 825/1/254
f 833/1/255 834/1/255 824/1/255 823/1/255
f 820/1/256 819/1/256 827/1/256 828/1/256
f 831/1/257 833/1/257 823/1/257 819/1/257
f 834/1/258 832/1/258 820/1/258 824/1/258
f 827/1/259 830/1/259 931/1/259 928/1/259
f 819/1/260 823/1/260 830/1/260 827/1/260
f 824/1/261 820/1/261 828/1/261 829/1/261
f 823/1/262 824/1/262 829/1/262 830/1/262
f 828/1/263 827/1/263 928/1/263 929/1/263
f 829/1/264 828/1/264 929/1/264 930/1/264
f 830/1/265 829/1/265 930/1/265 931/1/265
f 826/1/266 822/1/266 836/1/266 837/1/266
f 821/1/267 825/1/267 833/1/267 831/1/267
f 825/1/268 826/1/268 834/1/268 833/1/268
f 819/1/269 820/1/269 832/1/269 831/1/269
f 837/1/270 836/1/270 835/1/270 838/1/270
f 832/1/271 834/1/271 838/1/271 835/1/271
f 822/1/272 832/1/272 835/1/272 836/1/272
f 834/1/273 826/1/273 837/1/273 838/1/273
f 872/1/274 841/1/274 842/1/274 873/1/274
f 841/1/275 897/1/275 907/1/275 906/1/275 842/1/275
f 843/1/276 860/1/276 908/1/276 905/1/276
f 868/1/277 846/1/277 847/1/277 869/1/277
f 846/1/278 839/1/278 840/1/278 847/1/278
f 839/1/279 846/1/279 850/1/279
f 846/1/280 868/1/280 844/1/280 849/1/280
f 846/1/281 849/1/281 848/1/281 850/1/281
f 841/1/282 872/1/282 876/1/282
f 877/1/283 854/1/283 855/1/283 876/1/283
f 854/1/284 853/1/284 851/1/284 855/1/284
f 853/1/285 852/1/285 894/1/285 851/1/285
f 856/1/286 894/1/286 852/1/286 857/1/286
f 855/1/287 851/1/287 856/1/287
f 841/1/288 856/1/288 898/1/288 897/1/288
f 856/1/289 841/1/289 855/1/289
f 870/1/290 871/1/290 867/1/290 862/1/290
f 873/1/291 874/1/291 859/1/291 840/1/291
f 840/1/292 859/1/292 861/1/292 847/1/292
f 869/1/293 870/1/293 862/1/293 845/1/293
f 864/1/294 879/1/294 884/1/294 866/1/294
f 874/1/295 875/1/295 864/1/295 859/1/295
f 859/1/296 864/1/296 866/1/296 861/1/296
f 860/1/297 865/1/297 863/1/297 858/1/297 904/1/297
f 847/1/298 861/1/298 870/1/298 869/1/298
f 861/1/299 866/1/299 871/1/299 870/1/299
f 844/1/300 868/1/300 869/1/300 845/1/300
f 858/1/301 863/1/301 875/1/301 874/1/301
f 842/1/302 858/1/302 874/1/302 873/1/302
f 839/1/303 872/1/303 873/1/303 840/1/303
f 848/1/304 877/1/304 876/1/304 850/1/304
f 872/1/305 839/1/305 850/1/305 876/1/305
f 876/1/306 855/1/306 841/1/306
f 881/1/307 890/1/307 878/1/307
f 866/1/308 884/1/308 882/1/308 871/1/308
f 865/1/309 880/1/309 881/1/309 863/1/309
f 863/1/310 881/1/310 878/1/310 875/1/310
f 871/1/311 882/1/311 883/1/311 867/1/311
f 875/1/312 878/1/312 879/1/312 864/1/312
f 882/1/313 893/1/313 883/1/313
f 884/1/314 879/1/314 886/1/314
f 887/1/315 892/1/315 884/1/315 886/1/315
f 887/1/316 890/1/316 889/1/316 885/1/316
f 879/1/317 878/1/317 886/1/317
f 881/1/318 880/1/318 888/1/318
f 890/1/319 881/1/319 888/1/319 889/1/319
f 890/1/320 887/1/320 886/1/320 878/1/320
f 892/1/321 882/1/321 884/1/321
f 892/1/322 887/1/322 885/1/322 891/1/322
f 893/1/323 882/1/323 892/1/323 891/1/323
f 894/1/324 856/1/324 851/1/324
f 899/1/325 900/1/325 901/1/325
f 897/1/326 899/1/326 901/1/326 895/1/326
f 896/1/327 902/1/327 903/1/327 898/1/327
f 856/1/328 857/1/328 896/1/328 898/1/328
f 902/1/329 900/1/329 899/1/329 903/1/329
f 898/1/330 903/1/330 899/1/330 897/1/330
f 904/1/331 914/1/331 913/1/331 908/1/331
f 904/1/332 858/1/332 909/1/332
f 906/1/333 911/1/333 915/1/333 909/1/333
f 897/1/334 895/1/334 843/1/334 905/1/334 907/1/334
f 910/1/335 911/1/335 912/1/335
f 860/1/336 904/1/336 908/1/336
f 858/1/337 842/1/337 906/1/337 909/1/337
f 911/1/338 910/1/338 913/1/338 914/1/338 915/1/338
f 905/1/339 910/1/339 912/1/339 907/1/339
f 909/1/340 915/1/340 914/1/340 904/1/340
f 908/1/341 913/1/341 910/1/341 905/1/341
f 907/1/342 912/1/342 911/1/342 906/1/342
f 932/1/343 918/1/343 919/1/343 933/1/343
f 918/1/344 922/1/344 923/1/344 919/1/344
f 934/1/345 920/1/345 921/1/345 935/1/345
f 917/1/346 925/1/346 924/1/346 916/1/346
f 932/1/347 916/1/347 920/1/347 934/1/347
f 935/1/348 921/1/348 917/1/348 933/1/348
f 924/1/349 928/1/349 931/1/349 927/1/349
f 916/1/350 924/1/350 927/1/350 920/1/350
f 921/1/351 926/1/351 925/1/351 917/1/351
f 920/1/352 927/1/352 926/1/352 921/1/352
f 925/1/353 929/1/353 928/1/353 924/1/353
f 926/1/354 930/1/354 929/1/354 925/1/354
f 927/1/355 931/1/355 930/1/355 926/1/355
f 923/1/356 938/1/356 937/1/356 919/1/356
f 918/1/357 932/1/357 934/1/357 922/1/357
f 922/1/358 934/1/358 935/1/358 923/1/358
f 916/1/359 932/1/359 933/1/359 917/1/359
f 938/1/360 939/1/360 936/1/360 937/1/360
f 933/1/361 936/1/361 939/1/361 935/1/361
f 919/1/362 937/1/362 936/1/362 933/1/362
f 935/1/363 939/1/363 938/1/363 923/1/363
s 1
f 232/1/364 233/1/365 234/1/366 231/1/367
f 232/1/364 231/1/367 239/1/368 235/1/369
f 232/1/364 236/1/370 240/1/371 233/1/365
f 231/1/367 234/1/366 241/1/372 237/1/373
f 234/1/366 233/1/365 242/1/374 238/1/375
f 232/1/364 235/1/369 245/1/376 236/1/370
f 231/1/367 237/1/373 250/1/377 239/1/368
f 238/1/375 243/1/378 241/1/372 234/1/366
f 239/1/368 244/1/379 253/1/380 235/1/369
f 240/1/371 236/1/370 246/1/381 247/1/382
f 240/1/371 248/1/383 242/1/374 233/1/365
f 237/1/373 241/1/372 258/1/384 249/1/385
f 242/1/374 251/1/386 252/1/387 238/1/375
f 238/1/375 252/1/387 260/1/388 243/1/378
f 244/1/379 239/1/368 250/1/377 254/1/389
f 245/1/376 235/1/369 253/1/380 255/1/390
f 236/1/370 245/1/376 256/1/391 246/1/381
f 248/1/383 240/1/371 247/1/382 257/1/392
f 247/1/382 246/1/381 266/1/393 257/1/392
f 237/1/373 249/1/385 269/1/394 250/1/377
f 243/1/378 259/1/395 258/1/384 241/1/372
f 242/1/374 248/1/383 264/1/396 251/1/386
f 253/1/380 244/1/379 262/1/397 261/1/398
f 244/1/379 254/1/389 273/1/399 262/1/397
f 245/1/376 255/1/390 263/1/400 256/1/391
f 256/1/391 263/1/400 266/1/393 246/1/381
f 264/1/396 248/1/383 257/1/392 265/1/401
f 249/1/385 258/1/384 267/1/402 268/1/403
f 243/1/378 260/1/388 280/1/404 259/1/395
f 254/1/389 250/1/377 269/1/394 270/1/405
f 252/1/387 251/1/386 281/1/406 271/1/407
f 260/1/388 252/1/387 271/1/407 272/1/408
f 253/1/380 261/1/398 274/1/409 255/1/390
f 255/1/390 274/1/409 275/1/410 263/1/400
f 276/1/411 264/1/396 265/1/401 277/1/412
f 265/1/401 257/1/392 266/1/393 277/1/412
f 269/1/394 249/1/385 268/1/403 278/1/413
f 258/1/384 259/1/395 279/1/414 267/1/402
f 267/1/402 279/1/414 284/1/415 287/1/416 286/1/417 283/1/418 278/1/413 268/1/403
f 254/1/389 270/1/405 285/1/419 273/1/399
f 264/1/396 276/1/411 281/1/406 251/1/386
f 272/1/408 282/1/420 280/1/404 260/1/388
f 262/1/397 271/1/407 281/1/406 261/1/398
f 273/1/399 272/1/408 271/1/407 262/1/397
f 274/1/409 276/1/411 277/1/412 275/1/410
f 266/1/393 263/1/400 275/1/410 277/1/412
f 270/1/405 269/1/394 278/1/413 283/1/418
f 259/1/395 280/1/404 284/1/415 279/1/414
f 272/1/408 273/1/399 285/1/419 282/1/420
f 274/1/409 261/1/398 281/1/406 276/1/411
f 285/1/419 270/1/405 283/1/418 286/1/417
f 280/1/404 282/1/420 287/1/416 284/1/415
f 282/1/420 285/1/419 286/1/417 287/1/416
f 289/1/421 290/1/422 295/1/423 291/1/424 302/1/425 296/1/426 298/1/427 288/1/428
f 292/1/429 293/1/430 289/1/421 288/1/428
f 293/1/430 294/1/431 290/1/422 289/1/421
f 297/1/432 292/1/429 288/1/428 298/1/427
f 293/1/430 292/1/429 305/1/433 299/1/434
f 293/1/430 299/1/434 306/1/435 294/1/431
f 294/1/431 300/1/436 295/1/423 290/1/422
f 300/1/436 301/1/437 291/1/424 295/1/423
f 303/1/438 297/1/432 298/1/427 296/1/426
f 297/1/432 304/1/439 305/1/433 292/1/429
f 300/1/436 294/1/431 306/1/435 307/1/440
f 300/1/436 307/1/440 310/1/441 301/1/437
f 301/1/437 308/1/442 302/1/425 291/1/424
f 308/1/442 303/1/438 296/1/426 302/1/425
f 297/1/432 303/1/438 312/1/443 304/1/439
f 299/1/434 305/1/433 314/1/444 309/1/445
f 299/1/434 309/1/445 315/1/446 306/1/435
f 308/1/442 301/1/437 310/1/441 311/1/447
f 308/1/442 311/1/447 312/1/443 303/1/438
f 304/1/439 313/1/448 314/1/444 305/1/433
f 307/1/440 306/1/435 315/1/446 316/1/449
f 307/1/440 316/1/449 319/1/450 310/1/441
f 304/1/439 312/1/443 320/1/451 313/1/448
f 309/1/445 314/1/444 322/1/452 317/1/453
f 309/1/445 317/1/453 323/1/454 315/1/446
f 311/1/447 310/1/441 319/1/450 318/1/455
f 311/1/447 318/1/455 320/1/451 312/1/443
f 313/1/448 321/1/456 322/1/452 314/1/444
f 316/1/449 315/1/446 323/1/454 324/1/457
f 316/1/449 324/1/457 328/1/458 319/1/450
f 313/1/448 320/1/451 329/1/459 321/1/456
f 322/1/452 325/1/460 330/1/461 317/1/453
f 330/1/461 326/1/462 323/1/454 317/1/453
f 323/1/454 326/1/462 337/1/463 324/1/457
f 328/1/458 327/1/464 318/1/455 319/1/450
f 328/1/458 324/1/457 337/1/463 331/1/465
f 329/1/459 320/1/451 318/1/455 327/1/464
f 329/1/459 332/1/466 333/1/467 321/1/456
f 333/1/467 325/1/460 322/1/452 321/1/456
f 330/1/461 325/1/460 334/1/468 335/1/469
f 326/1/462 330/1/461 335/1/469 336/1/470
f 328/1/458 331/1/465 340/1/471 327/1/464
f 329/1/459 327/1/464 340/1/471 332/1/466
f 325/1/460 333/1/467 338/1/472 334/1/468
f 335/1/469 334/1/468 343/1/473 336/1/470
f 337/1/463 326/1/462 336/1/470 339/1/474
f 331/1/465 337/1/463 339/1/474 341/1/475
f 333/1/467 332/1/466 342/1/476 338/1/472
f 338/1/472 342/1/476 343/1/473 334/1/468
f 339/1/474 336/1/470 343/1/473 341/1/475
f 340/1/471 331/1/465 341/1/475 344/1/477
f 332/1/466 340/1/471 344/1/477 342/1/476
f 344/1/477 341/1/475 343/1/473 342/1/476
f 346/1/478 347/1/479 348/1/480 345/1/481
f 345/1/481 349/1/482 354/1/483 346/1/478
f 346/1/478 350/1/484 356/1/485 347/1/479
f 348/1/480 351/1/486 353/1/487 345/1/481
f 348/1/480 347/1/479 357/1/488 352/1/489
f 345/1/481 353/1/487 358/1/490 349/1/482
f 350/1/484 346/1/478 354/1/483 355/1/491
f 348/1/480 352/1/489 364/1/492 351/1/486
f 349/1/482 359/1/493 368/1/494 354/1/483
f 350/1/484 355/1/491 370/1/495 360/1/496
f 356/1/485 350/1/484 360/1/496 361/1/497
f 356/1/485 362/1/498 357/1/488 347/1/479
f 353/1/487 351/1/486 371/1/499 363/1/500
f 357/1/488 365/1/501 366/1/502 352/1/489
f 349/1/482 358/1/490 375/1/503 359/1/493
f 358/1/490 353/1/487 363/1/500 367/1/504
f 355/1/491 354/1/483 368/1/494 369/1/505
f 356/1/485 361/1/497 381/1/506 362/1/498
f 364/1/492 372/1/507 371/1/499 351/1/486
f 352/1/489 366/1/502 373/1/508 364/1/492
f 362/1/498 374/1/509 365/1/501 357/1/488
f 365/1/501 374/1/509 386/1/510 366/1/502
f 367/1/504 376/1/511 375/1/503 358/1/490
f 359/1/493 377/1/512 378/1/513 368/1/494
f 355/1/491 369/1/505 390/1/514 370/1/495
f 370/1/495 379/1/515 380/1/516 360/1/496
f 360/1/496 380/1/516 392/1/517 361/1/497
f 371/1/499 382/1/518 383/1/519 363/1/500
f 363/1/500 383/1/519 388/1/520 367/1/504
f 364/1/492 373/1/508 384/1/521 372/1/507
f 373/1/508 366/1/502 386/1/510 384/1/521
f 381/1/506 385/1/522 374/1/509 362/1/498
f 375/1/503 387/1/523 377/1/512 359/1/493
f 367/1/504 388/1/520 398/1/524 376/1/511
f 378/1/513 377/1/512 387/1/523 397/1/525 400/1/526 401/1/527 399/1/528 389/1/529
f 368/1/494 378/1/513 389/1/529 369/1/505
f 379/1/515 370/1/495 390/1/514 391/1/530
f 381/1/506 361/1/497 392/1/517 393/1/531
f 371/1/499 372/1/507 395/1/532 382/1/518
f 372/1/507 384/1/521 394/1/533 395/1/532
f 393/1/531 396/1/534 385/1/522 381/1/506
f 385/1/522 396/1/534 386/1/510 374/1/509
f 376/1/511 397/1/525 387/1/523 375/1/503
f 369/1/505 389/1/529 399/1/528 390/1/514
f 380/1/516 379/1/515 388/1/520 383/1/519
f 379/1/515 391/1/530 398/1/524 388/1/520
f 392/1/517 380/1/516 383/1/519 382/1/518
f 394/1/533 384/1/521 386/1/510 396/1/534
f 395/1/532 394/1/533 396/1/534 393/1/531
f 398/1/524 400/1/526 397/1/525 376/1/511
f 390/1/514 399/1/528 401/1/527 391/1/530
f 392/1/517 382/1/518 395/1/532 393/1/531
f 391/1/530 401/1/527 400/1/526 398/1/524
f 403/1/535 404/1/536 414/1/537 409/1/538 415/1/539 405/1/540 410/1/541 402/1/542
f 406/1/543 403/1/535 402/1/542 407/1/544
f 408/1/545 404/1/536 403/1/535 406/1/543
f 406/1/543 407/1/544 417/1/546 411/1/547
f 407/1/544 402/1/542 410/1/541 412/1/548
f 406/1/543 411/1/547 419/1/549 408/1/545
f 413/1/550 414/1/537 404/1/536 408/1/545
f 412/1/548 410/1/541 405/1/540 416/1/551
f 412/1/548 418/1/552 417/1/546 407/1/544
f 413/1/550 408/1/545 419/1/549 420/1/553
f 421/1/554 409/1/538 414/1/537 413/1/550
f 422/1/555 415/1/539 409/1/538 421/1/554
f 416/1/551 405/1/540 415/1/539 422/1/555
f 412/1/548 416/1/551 425/1/556 418/1/552
f 411/1/547 417/1/546 426/1/557 423/1/558
f 411/1/547 423/1/558 428/1/559 419/1/549
f 413/1/550 420/1/553 430/1/560 421/1/554
f 422/1/555 421/1/554 430/1/560 424/1/561
f 422/1/555 424/1/561 425/1/556 416/1/551
f 418/1/552 427/1/562 426/1/557 417/1/546
f 420/1/553 419/1/549 428/1/559 429/1/563
f 418/1/552 425/1/556 433/1/564 427/1/562
f 423/1/558 426/1/557 434/1/565 431/1/566
f 423/1/558 431/1/566 436/1/567 428/1/559
f 420/1/553 429/1/563 438/1/568 430/1/560
f 424/1/561 430/1/560 438/1/568 432/1/569
f 424/1/561 432/1/569 433/1/564 425/1/556
f 427/1/562 435/1/570 434/1/565 426/1/557
f 429/1/563 428/1/559 436/1/567 437/1/571
f 427/1/562 433/1/564 442/1/572 435/1/570
f 434/1/565 439/1/573 443/1/574 431/1/566
f 436/1/567 431/1/566 443/1/574 440/1/575
f 429/1/563 437/1/571 444/1/576 438/1/568
f 432/1/569 438/1/568 444/1/576 441/1/577
f 432/1/569 441/1/577 442/1/572 433/1/564
f 434/1/565 435/1/570 448/1/578 439/1/573
f 436/1/567 440/1/575 450/1/579 437/1/571
f 442/1/572 445/1/580 448/1/578 435/1/570
f 439/1/573 446/1/581 447/1/582 443/1/574
f 443/1/574 447/1/582 449/1/583 440/1/575
f 444/1/576 437/1/571 450/1/579 451/1/584
f 444/1/576 451/1/584 454/1/585 441/1/577
f 442/1/572 441/1/577 454/1/585 445/1/580
f 448/1/578 452/1/586 446/1/581 439/1/573
f 447/1/582 446/1/581 456/1/587 449/1/583
f 440/1/575 449/1/583 453/1/588 450/1/579
f 445/1/580 455/1/589 452/1/586 448/1/578
f 452/1/586 455/1/589 456/1/587 446/1/581
f 453/1/588 449/1/583 456/1/587 457/1/590
f 450/1/579 453/1/588 457/1/590 451/1/584
f 451/1/584 457/1/590 458/1/591 454/1/585
f 454/1/585 458/1/591 455/1/589 445/1/580
f 458/1/591 457/1/590 456/1/587 455/1/589
f 460/1/592 461/1/593 462/1/594 459/1/595
f 460/1/592 459/1/595 466/1/596 463/1/597
f 460/1/592 464/1/598 467/1/599 461/1/593
f 462/1/594 461/1/593 468/1/600 465/1/601
f 460/1/592 463/1/597 470/1/602 464/1/598
f 466/1/596 469/1/603 476/1/604 463/1/597
f 467/1/599 464/1/598 471/1/605 472/1/606
f 467/1/599 473/1/607 468/1/600 461/1/593
f 468/1/600 474/1/608 475/1/609 465/1/601
f 470/1/602 463/1/597 476/1/604 477/1/610
f 464/1/598 470/1/602 478/1/611 471/1/605
f 473/1/607 467/1/599 472/1/606 479/1/612
f 472/1/606 471/1/605 485/1/613 479/1/612
f 468/1/600 473/1/607 483/1/614 474/1/608
f 476/1/604 469/1/603 481/1/615 480/1/616
f 470/1/602 477/1/610 482/1/617 478/1/611
f 478/1/611 482/1/617 485/1/613 471/1/605
f 483/1/614 473/1/607 479/1/612 484/1/618
f 475/1/609 474/1/608 491/1/619 486/1/620
f 476/1/604 480/1/616 487/1/621 477/1/610
f 477/1/610 487/1/621 488/1/622 482/1/617
f 489/1/623 483/1/614 484/1/618 490/1/624
f 484/1/618 479/1/612 485/1/613 490/1/624
f 483/1/614 489/1/623 491/1/619 474/1/608
f 486/1/620 481/1/615 498/1/625 499/1/626
f 481/1/615 486/1/620 491/1/619 480/1/616
f 475/1/609 486/1/620 499/1/626 497/1/627
f 487/1/621 489/1/623 490/1/624 488/1/622
f 485/1/613 482/1/617 488/1/622 490/1/624
f 469/1/603 466/1/596 494/1/628 496/1/629
f 459/1/595 462/1/594 492/1/630 493/1/631
f 465/1/601 475/1/609 497/1/627 495/1/632
f 487/1/621 480/1/616 491/1/619 489/1/623
f 481/1/615 469/1/603 496/1/629 498/1/625
f 462/1/594 465/1/601 495/1/632 492/1/630
f 466/1/596 459/1/595 493/1/631 494/1/628
f 496/1/629 494/1/628 502/1/633 504/1/634
f 494/1/628 493/1/631 501/1/635 502/1/633
f 495/1/632 497/1/627 505/1/636 503/1/637
f 498/1/625 496/1/629 504/1/634 506/1/638
f 492/1/630 495/1/632 503/1/637 500/1/639
f 493/1/631 492/1/630 500/1/639 501/1/635
f 497/1/627 499/1/626 507/1/640 505/1/636
f 499/1/626 498/1/625 506/1/638 507/1/640
f 504/1/634 502/1/633 510/1/641 516/1/642
f 502/1/633 501/1/635 509/1/643 510/1/641
f 503/1/637 505/1/636 519/1/644 513/1/645
f 506/1/638 504/1/634 516/1/642 525/1/646
f 500/1/639 503/1/637 513/1/645 508/1/647
f 501/1/635 500/1/639 508/1/647 509/1/643
f 505/1/636 507/1/640 530/1/648 519/1/644
f 507/1/640 506/1/638 525/1/646 530/1/648
f 509/1/643 508/1/647 511/1/649 512/1/650
f 509/1/643 512/1/650 514/1/651 510/1/641
f 513/1/645 515/1/652 511/1/649 508/1/647
f 512/1/650 511/1/649 517/1/653 518/1/654
f 513/1/645 519/1/644 520/1/655 515/1/652
f 516/1/642 510/1/641 514/1/651 521/1/656
f 512/1/650 518/1/654 522/1/657 514/1/651
f 515/1/652 523/1/658 517/1/653 511/1/649
f 516/1/642 521/1/656 524/1/659 525/1/646
f 518/1/654 517/1/653 526/1/660 527/1/661
f 515/1/652 520/1/655 528/1/662 523/1/658
f 521/1/656 514/1/651 522/1/657 529/1/663
f 520/1/655 519/1/644 530/1/648 531/1/664
f 522/1/657 518/1/654 527/1/661 532/1/665
f 517/1/653 523/1/658 533/1/666 526/1/660
f 526/1/660 533/1/666 537/1/667 539/1/668 538/1/669 536/1/670 532/1/665 527/1/661
f 521/1/656 529/1/663 534/1/671 524/1/659
f 531/1/664 535/1/672 528/1/662 520/1/655
f 524/1/659 531/1/664 530/1/648 525/1/646
f 529/1/663 522/1/657 532/1/665 536/1/670
f 523/1/658 528/1/662 537/1/667 533/1/666
f 531/1/664 524/1/659 534/1/671 535/1/672
f 534/1/671 529/1/663 536/1/670 538/1/669
f 528/1/662 535/1/672 539/1/668 537/1/667
f 535/1/672 534/1/671 538/1/669 539/1/668
f 541/1/673 542/1/674 543/1/675 540/1/676
f 541/1/673 540/1/676 548/1/677 544/1/678
f 541/1/673 545/1/679 549/1/680 542/1/674
f 540/1/676 543/1/675 550/1/681 546/1/682
f 543/1/675 542/1/674 551/1/683 547/1/684
f 541/1/673 544/1/678 554/1/685 545/1/679
f 540/1/676 546/1/682 559/1/686 548/1/677
f 547/1/684 552/1/687 550/1/681 543/1/675
f 548/1/677 553/1/688 562/1/689 544/1/678
f 549/1/680 545/1/679 555/1/690 556/1/691
f 549/1/680 557/1/692 551/1/683 542/1/674
f 546/1/682 550/1/681 567/1/693 558/1/694
f 551/1/683 560/1/695 561/1/696 547/1/684
f 547/1/684 561/1/696 569/1/697 552/1/687
f 553/1/688 548/1/677 559/1/686 563/1/698
f 554/1/685 544/1/678 562/1/689 564/1/699
f 545/1/679 554/1/685 565/1/700 555/1/690
f 557/1/692 549/1/680 556/1/691 566/1/701
f 556/1/691 555/1/690 575/1/702 566/1/701
f 546/1/682 558/1/694 578/1/703 559/1/686
f 552/1/687 568/1/704 567/1/693 550/1/681
f 551/1/683 557/1/692 573/1/705 560/1/695
f 562/1/689 553/1/688 571/1/706 570/1/707
f 553/1/688 563/1/698 582/1/708 571/1/706
f 554/1/685 564/1/699 572/1/709 565/1/700
f 565/1/700 572/1/709 575/1/702 555/1/690
f 573/1/705 557/1/692 566/1/701 574/1/710
f 558/1/694 567/1/693 576/1/711 577/1/712
f 552/1/687 569/1/697 589/1/713 568/1/704
f 563/1/698 559/1/686 578/1/703 579/1/714
f 561/1/696 560/1/695 590/1/715 580/1/716
f 569/1/697 561/1/696 580/1/716 581/1/717
f 562/1/689 570/1/707 583/1/718 564/1/699
f 564/1/699 583/1/718 584/1/719 572/1/709
f 585/1/720 573/1/705 574/1/710 586/1/721
f 574/1/710 566/1/701 575/1/702 586/1/721
f 578/1/703 558/1/694 577/1/712 587/1/722
f 567/1/693 568/1/704 588/1/723 576/1/711
f 576/1/711 588/1/723 593/1/724 596/1/725 595/1/726 592/1/727 587/1/722 577/1/712
f 563/1/698 579/1/714 594/1/728 582/1/708
f 573/1/705 585/1/720 590/1/715 560/1/695
f 581/1/717 591/1/729 589/1/713 569/1/697
f 571/1/706 580/1/716 590/1/715 570/1/707
f 582/1/708 581/1/717 580/1/716 571/1/706
f 583/1/718 585/1/720 586/1/721 584/1/719
f 575/1/702 572/1/709 584/1/719 586/1/721
f 579/1/714 578/1/703 587/1/722 592/1/727
f 568/1/704 589/1/713 593/1/724 588/1/723
f 581/1/717 582/1/708 594/1/728 591/1/729
f 583/1/718 570/1/707 590/1/715 585/1/720
f 594/1/728 579/1/714 592/1/727 595/1/726
f 589/1/713 591/1/729 596/1/725 593/1/724
f 591/1/729 594/1/728 595/1/726 596/1/725
f 598/1/730 599/1/731 604/1/732 600/1/733 611/1/734 605/1/735 607/1/736 597/1/737
f 601/1/738 602/1/739 598/1/730 597/1/737
f 602/1/739 603/1/740 599/1/731 598/1/730
f 606/1/741 601/1/738 597/1/737 607/1/736
f 602/1/739 601/1/738 614/1/742 608/1/743
f 602/1/739 608/1/743 615/1/744 603/1/740
f 603/1/740 609/1/745 604/1/732 599/1/731
f 609/1/745 610/1/746 600/1/733 604/1/732
f 612/1/747 606/1/741 607/1/736 605/1/735
f 606/1/741 613/1/748 614/1/742 601/1/738
f 609/1/745 603/1/740 615/1/744 616/1/749
f 609/1/745 616/1/749 619/1/750 610/1/746
f 610/1/746 617/1/751 611/1/734 600/1/733
f 617/1/751 612/1/747 605/1/735 611/1/734
f 606/1/741 612/1/747 621/1/752 613/1/748
f 608/1/743 614/1/742 623/1/753 618/1/754
f 608/1/743 618/1/754 624/1/755 615/1/744
f 617/1/751 610/1/746 619/1/750 620/1/756
f 617/1/751 620/1/756 621/1/752 612/1/747
f 613/1/748 622/1/757 623/1/753 614/1/742
f 616/1/749 615/1/744 624/1/755 625/1/758
f 616/1/749 625/1/758 628/1/759 619/1/750
f 613/1/748 621/1/752 629/1/760 622/1/757
f 618/1/754 623/1/753 631/1/761 626/1/762
f 618/1/754 626/1/762 632/1/763 624/1/755
f 620/1/756 619/1/750 628/1/759 627/1/764
f 620/1/756 627/1/764 629/1/760 621/1/752
f 622/1/757 630/1/765 631/1/761 623/1/753
f 625/1/758 624/1/755 632/1/763 633/1/766
f 625/1/758 633/1/766 637/1/767 628/1/759
f 622/1/757 629/1/760 638/1/768 630/1/765
f 631/1/761 634/1/769 639/1/770 626/1/762
f 639/1/770 635/1/771 632/1/763 626/1/762
f 632/1/763 635/1/771 646/1/772 633/1/766
f 637/1/767 636/1/773 627/1/764 628/1/759
f 637/1/767 633/1/766 646/1/772 640/1/774
f 638/1/768 629/1/760 627/1/764 636/1/773
f 638/1/768 641/1/775 642/1/776 630/1/765
f 642/1/776 634/1/769 631/1/761 630/1/765
f 639/1/770 634/1/769 643/1/777 644/1/778
f 635/1/771 639/1/770 644/1/778 645/1/779
f 637/1/767 640/1/774 649/1/780 636/1/773
f 638/1/768 636/1/773 649/1/780 641/1/775
f 634/1/769 642/1/776 647/1/781 643/1/777
f 644/1/778 643/1/777 652/1/782 645/1/779
f 646/1/772 635/1/771 645/1/779 648/1/783
f 640/1/774 646/1/772 648/1/783 650/1/784
f 642/1/776 641/1/775 651/1/785 647/1/781
f 647/1/781 651/1/785 652/1/782 643/1/777
f 648/1/783 645/1/779 652/1/782 650/1/784
f 649/1/780 640/1/774 650/1/784 653/1/786
f 641/1/775 649/1/780 653/1/786 651/1/785
f 653/1/786 650/1/784 652/1/782 651/1/785
f 655/1/787 654/1/788 657/1/789 656/1/790
f 655/1/787 658/1/791 662/1/792 654/1/788
f 655/1/787 656/1/790 663/1/793 659/1/794
f 654/1/788 660/1/795 664/1/796 657/1/789
f 657/1/789 661/1/797 665/1/798 656/1/790
f 655/1/787 659/1/794 668/1/799 658/1/791
f 654/1/788 662/1/792 673/1/800 660/1/795
f 661/1/797 657/1/789 664/1/796 666/1/801
f 662/1/792 658/1/791 676/1/802 667/1/803
f 663/1/793 670/1/804 669/1/805 659/1/794
f 663/1/793 656/1/790 665/1/798 671/1/806
f 660/1/795 672/1/807 681/1/808 664/1/796
f 665/1/798 661/1/797 675/1/809 674/1/810
f 661/1/797 666/1/801 683/1/811 675/1/809
f 667/1/803 677/1/812 673/1/800 662/1/792
f 668/1/799 678/1/813 676/1/802 658/1/791
f 659/1/794 669/1/805 679/1/814 668/1/799
f 671/1/806 680/1/815 670/1/804 663/1/793
f 670/1/804 680/1/815 689/1/816 669/1/805
f 660/1/795 673/1/800 692/1/817 672/1/807
f 666/1/801 664/1/796 681/1/808 682/1/818
f 665/1/798 674/1/810 687/1/819 671/1/806
f 676/1/802 684/1/820 685/1/821 667/1/803
f 667/1/803 685/1/821 696/1/822 677/1/812
f 668/1/799 679/1/814 686/1/823 678/1/813
f 679/1/814 669/1/805 689/1/816 686/1/823
f 687/1/819 688/1/824 680/1/815 671/1/806
f 672/1/807 691/1/825 690/1/826 681/1/808
f 666/1/801 682/1/818 703/1/827 683/1/811
f 677/1/812 693/1/828 692/1/817 673/1/800
f 675/1/809 694/1/829 704/1/830 674/1/810
f 683/1/811 695/1/831 694/1/829 675/1/809
f 676/1/802 678/1/813 697/1/832 684/1/820
f 678/1/813 686/1/823 698/1/833 697/1/832
f 699/1/834 700/1/835 688/1/824 687/1/819
f 688/1/824 700/1/835 689/1/816 680/1/815
f 692/1/817 701/1/836 691/1/825 672/1/807
f 681/1/808 690/1/826 702/1/837 682/1/818
f 690/1/826 691/1/825 701/1/836 706/1/838 709/1/839 710/1/840 707/1/841 702/1/837
f 677/1/812 696/1/822 708/1/842 693/1/828
f 687/1/819 674/1/810 704/1/830 699/1/834
f 695/1/831 683/1/811 703/1/827 705/1/843
f 685/1/821 684/1/820 704/1/830 694/1/829
f 696/1/822 685/1/821 694/1/829 695/1/831
f 697/1/832 698/1/833 700/1/835 699/1/834
f 689/1/816 700/1/835 698/1/833 686/1/823
f 693/1/828 706/1/838 701/1/836 692/1/817
f 682/1/818 702/1/837 707/1/841 703/1/827
f 695/1/831 705/1/843 708/1/842 696/1/822
f 697/1/832 699/1/834 704/1/830 684/1/820
f 708/1/842 709/1/839 706/1/838 693/1/828
f 703/1/827 707/1/841 710/1/840 705/1/843
f 705/1/843 710/1/840 709/1/839 708/1/842
f 712/1/844 711/1/845 721/1/846 719/1/847 725/1/848 714/1/849 718/1/850 713/1/851
f 715/1/852 711/1/845 712/1/844 716/1/853
f 716/1/853 712/1/844 713/1/851 717/1/854
f 720/1/855 721/1/846 711/1/845 715/1/852
f 716/1/853 722/1/856 728/1/857 715/1/852
f 716/1/853 717/1/854 729/1/858 722/1/856
f 717/1/854 713/1/851 718/1/850 723/1/859
f 723/1/859 718/1/850 714/1/849 724/1/860
f 726/1/861 719/1/847 721/1/846 720/1/855
f 720/1/855 715/1/852 728/1/857 727/1/862
f 723/1/859 730/1/863 729/1/858 717/1/854
f 723/1/859 724/1/860 733/1/864 730/1/863
f 724/1/860 714/1/849 725/1/848 731/1/865
f 731/1/865 725/1/848 719/1/847 726/1/861
f 720/1/855 727/1/862 735/1/866 726/1/861
f 722/1/856 732/1/867 737/1/868 728/1/857
f 722/1/856 729/1/858 738/1/869 732/1/867
f 731/1/865 734/1/870 733/1/864 724/1/860
f 731/1/865 726/1/861 735/1/866 734/1/870
f 727/1/862 728/1/857 737/1/868 736/1/871
f 730/1/863 739/1/872 738/1/869 729/1/858
f 730/1/863 733/1/864 742/1/873 739/1/872
f 727/1/862 736/1/871 743/1/874 735/1/866
f 732/1/867 740/1/875 745/1/876 737/1/868
f 732/1/867 738/1/869 746/1/877 740/1/875
f 734/1/870 741/1/878 742/1/873 733/1/864
f 734/1/870 735/1/866 743/1/874 741/1/878
f 736/1/871 737/1/868 745/1/876 744/1/879
f 739/1/872 747/1/880 746/1/877 738/1/869
f 739/1/872 742/1/873 751/1/881 747/1/880
f 736/1/871 744/1/879 752/1/882 743/1/874
f 745/1/876 740/1/875 753/1/883 748/1/884
f 753/1/883 740/1/875 746/1/877 749/1/885
f 746/1/877 747/1/880 760/1/886 749/1/885
f 751/1/881 742/1/873 741/1/878 750/1/887
f 751/1/881 754/1/888 760/1/886 747/1/880
f 752/1/882 750/1/887 741/1/878 743/1/874
f 752/1/882 744/1/879 756/1/889 755/1/890
f 756/1/889 744/1/879 745/1/876 748/1/884
f 753/1/883 758/1/891 757/1/892 748/1/884
f 749/1/885 759/1/893 758/1/891 753/1/883
f 751/1/881 750/1/887 763/1/894 754/1/888
f 752/1/882 755/1/890 763/1/894 750/1/887
f 748/1/884 757/1/892 761/1/895 756/1/889
f 758/1/891 759/1/893 766/1/896 757/1/892
f 760/1/886 762/1/897 759/1/893 749/1/885
f 754/1/888 764/1/898 762/1/897 760/1/886
f 756/1/889 761/1/895 765/1/899 755/1/890
f 761/1/895 757/1/892 766/1/896 765/1/899
f 762/1/897 764/1/898 766/1/896 759/1/893
f 763/1/894 767/1/900 764/1/898 754/1/888
f 755/1/890 765/1/899 767/1/900 763/1/894
f 767/1/900 765/1/899 766/1/896 764/1/898
