# Blender v2.79 (sub 0) OBJ File: 'Slime.blend'
# www.blender.org
mtllib Slime.mtl
o Slime_Cube
v -1.013646 1.242853 -0.435152
v -0.873694 1.510721 -0.377370
v -1.101474 0.939436 -0.472060
v 0.000000 1.247509 -1.085317
v -0.435152 1.242853 -1.013646
v 0.000000 1.529346 -0.933172
v 0.435152 1.242853 -1.013646
v -0.472060 0.939436 -1.101474
v -0.377370 1.510721 -0.873694
v 0.377370 1.510721 -0.873694
v 0.472060 0.939436 -1.101474
v 1.013646 1.242853 -0.435152
v 1.101474 0.939436 -0.472060
v 0.873694 1.510721 -0.377370
v 0.000000 0.001705 -0.482723
v -0.449267 0.016749 -0.449267
v 0.449267 0.016749 -0.449267
v -0.000000 1.888524 -0.376185
v 0.353840 1.845955 -0.353840
v -0.353840 1.845955 -0.353840
v 1.161034 0.250832 -0.497245
v 1.051475 0.135216 -0.449267
v 1.183828 0.420920 -0.507355
v 0.000000 0.249187 -1.244307
v -0.497245 0.250832 -1.161034
v 0.000000 0.420920 -1.268387
v 0.497245 0.250832 -1.161034
v 0.000000 0.128634 -1.127946
v -0.449267 0.135216 -1.051475
v -0.507355 0.420920 -1.183828
v 0.507355 0.420920 -1.183828
v 0.449267 0.135216 -1.051475
v -1.161034 0.250832 -0.497245
v -1.183828 0.420920 -0.507355
v -1.051475 0.135216 -0.449267
v -0.824452 0.061409 -0.415811
v -0.660724 1.719577 -0.337378
v -0.930151 0.420920 -0.930151
v -0.911814 0.252477 -0.911814
v -0.824452 0.141797 -0.824452
v 0.415811 0.061409 -0.824452
v 0.000000 0.049421 -0.885390
v -0.415811 0.061409 -0.824452
v -0.337378 1.719577 -0.660724
v 0.000000 1.753500 -0.703524
v 0.337378 1.719577 -0.660724
v 0.930151 0.420920 -0.930151
v 0.911814 0.252477 -0.911814
v 0.824452 0.141797 -0.824452
v 0.824452 0.061409 -0.415811
v 0.660724 1.719577 -0.337378
v -0.690136 1.492097 -0.690136
v -0.797352 1.238197 -0.797352
v -0.865444 0.939436 -0.865444
v 0.690136 1.492097 -0.690136
v 0.797352 1.238197 -0.797352
v 0.865444 0.939436 -0.865444
v 1.152945 0.649211 -0.494119
v -0.494119 0.649211 -1.152945
v 0.000000 0.649211 -1.235299
v 0.494119 0.649211 -1.152945
v -1.152945 0.649211 -0.494119
v -0.700983 0.085698 -0.700983
v -0.572005 1.650846 -0.572005
v 0.700983 0.085698 -0.700983
v 0.572005 1.650846 -0.572005
v -0.905886 0.649211 -0.905886
v 0.905886 0.649211 -0.905886
v 0.000000 1.104973 -1.177242
v -0.154998 1.080520 -1.158040
v -0.213136 0.943688 -1.185700
v -0.015036 1.294627 -1.395201
v -0.180609 0.822684 -1.218542
v 0.168100 1.080520 -1.158040
v 0.000000 0.791747 -1.255761
v 0.226238 0.943688 -1.185700
v 0.193712 0.822684 -1.218542
v -0.004909 1.174010 -1.266112
v -0.131403 1.145742 -1.255876
v -0.177023 1.045791 -1.314160
v -0.148554 0.961895 -1.373322
v 0.134159 1.154183 -1.260210
v -0.000279 0.952858 -1.413097
v 0.184109 1.057269 -1.320053
v 0.159109 0.971674 -1.378343
v -0.101285 1.272095 -1.392121
v -0.132005 1.215010 -1.447599
v -0.022563 1.289317 -1.499439
v -0.112135 1.169911 -1.501570
v 0.080672 1.282653 -1.395947
v -0.010837 1.173090 -1.530877
v 0.115434 1.229368 -1.452802
v 0.098668 1.182143 -1.506003
v 0.084329 1.256373 -1.477007
v -0.017357 1.229409 -1.528483
v -0.112790 1.242959 -1.471341
v -0.021037 1.300043 -1.437766
v 0.328293 0.941923 -1.150733
v 0.000000 0.714909 -1.231297
v -0.292094 0.760997 -1.181782
v 0.275107 0.775682 -1.187335
v 0.243482 1.126342 -1.105771
v -0.252384 1.136949 -1.096335
v 0.000000 1.202981 -1.102523
v -0.337840 0.941640 -1.145135
v 0.331209 1.179668 -1.060408
v -0.334947 1.184789 -1.055853
v -0.365058 0.720624 -1.170341
v 0.378569 0.715937 -1.168568
v -1.085317 1.247509 -0.000000
v -0.933172 1.529346 -0.000000
v -1.013646 1.242853 0.435152
v -1.180151 0.939436 -0.000000
v -0.873694 1.510721 0.377370
v -1.101474 0.939436 0.472060
v 0.000000 1.247509 1.085317
v -0.435152 1.242853 1.013646
v 0.000000 1.529346 0.933172
v 0.435152 1.242853 1.013646
v -0.472060 0.939436 1.101474
v -0.377370 1.510721 0.873694
v 0.377370 1.510721 0.873694
v 0.472060 0.939436 1.101474
v 1.085317 1.247509 -0.000000
v 1.013646 1.242853 0.435152
v 0.933172 1.529346 0.000000
v 1.180151 0.939436 -0.000000
v 1.101474 0.939436 0.472060
v 0.873694 1.510721 0.377370
v 0.000000 -0.014279 0.000000
v -0.000000 0.001705 0.482723
v 0.482723 0.001705 0.000000
v -0.482723 0.001705 -0.000000
v -0.449267 0.016749 0.449267
v 0.449267 0.016749 0.449267
v -0.000000 1.933755 -0.000000
v 0.000000 1.888524 0.376185
v -0.376185 1.888524 -0.000000
v 0.376185 1.888524 -0.000000
v 0.353840 1.845955 0.353840
v -0.353840 1.845955 0.353840
v 1.244307 0.249187 -0.000000
v 1.161034 0.250832 0.497245
v 1.268387 0.420920 -0.000000
v 1.127946 0.128634 -0.000000
v 1.051475 0.135216 0.449267
v 1.183828 0.420920 0.507355
v 0.000000 0.249187 1.244307
v -0.497245 0.250832 1.161034
v -0.000000 0.420920 1.268387
v 0.497245 0.250832 1.161034
v -0.000000 0.128634 1.127946
v -0.449267 0.135216 1.051475
v -0.507355 0.420920 1.183828
v 0.507355 0.420920 1.183828
v 0.449267 0.135216 1.051475
v -1.244307 0.249187 -0.000000
v -1.268387 0.420920 -0.000000
v -1.161034 0.250832 0.497245
v -1.127946 0.128634 -0.000000
v -1.183828 0.420920 0.507355
v -1.051475 0.135216 0.449267
v -0.824452 0.061409 0.415811
v -0.885390 0.049421 -0.000000
v -0.703524 1.753500 -0.000000
v -0.660724 1.719577 0.337378
v -0.930151 0.420920 0.930151
v -0.911814 0.252477 0.911814
v -0.824452 0.141797 0.824452
v 0.415811 0.061409 0.824452
v -0.000000 0.049421 0.885390
v -0.415811 0.061409 0.824452
v -0.337378 1.719577 0.660724
v 0.000000 1.753500 0.703524
v 0.337378 1.719577 0.660724
v 0.930151 0.420920 0.930151
v 0.911814 0.252477 0.911814
v 0.824452 0.141797 0.824452
v 0.885390 0.049421 -0.000000
v 0.824452 0.061409 0.415811
v 0.660724 1.719577 0.337378
v 0.703524 1.753500 -0.000000
v -0.690136 1.492097 0.690136
v -0.797352 1.238197 0.797352
v -0.865444 0.939436 0.865444
v 0.690136 1.492097 0.690136
v 0.797352 1.238197 0.797352
v 0.865444 0.939436 0.865444
v 1.152945 0.649211 0.494119
v 1.235299 0.649211 -0.000000
v -0.494119 0.649211 1.152945
v -0.000000 0.649211 1.235299
v 0.494119 0.649211 1.152945
v -1.235299 0.649211 -0.000000
v -1.152945 0.649211 0.494119
v -0.700983 0.085698 0.700983
v -0.572005 1.650846 0.572005
v 0.700983 0.085698 0.700983
v 0.572005 1.650846 0.572005
v -0.905886 0.649211 0.905886
v 0.905886 0.649211 0.905886
v 0.000000 1.104973 1.177242
v -0.154998 1.080520 1.158040
v -0.213136 0.943688 1.185700
v -0.015036 1.294627 1.395201
v -0.180609 0.822684 1.218542
v 0.168100 1.080520 1.158040
v -0.000000 0.791747 1.255761
v 0.226238 0.943688 1.185700
v 0.193712 0.822684 1.218542
v -0.004909 1.174010 1.266112
v -0.131403 1.145742 1.255876
v -0.177023 1.045791 1.314160
v -0.148554 0.961895 1.373322
v 0.134159 1.154183 1.260210
v -0.000279 0.952858 1.413097
v 0.184109 1.057269 1.320053
v 0.159109 0.971674 1.378343
v -0.101285 1.272095 1.392121
v -0.132005 1.215010 1.447599
v -0.022563 1.289317 1.499439
v -0.112135 1.169911 1.501570
v 0.080672 1.282653 1.395947
v -0.010837 1.173090 1.530877
v 0.115434 1.229368 1.452802
v 0.098668 1.182143 1.506003
v 0.084329 1.256373 1.477007
v -0.017357 1.229409 1.528483
v -0.112790 1.242959 1.471341
v -0.021037 1.300043 1.437766
v 0.328293 0.941923 1.150733
v -0.000000 0.714909 1.231297
v -0.292094 0.760997 1.181782
v 0.275107 0.775682 1.187335
v 0.243482 1.126342 1.105771
v -0.252384 1.136949 1.096335
v 0.000000 1.202981 1.102523
v -0.337840 0.941640 1.145135
v 0.331209 1.179668 1.060408
v -0.334947 1.184789 1.055853
v -0.365058 0.720624 1.170341
v 0.378569 0.715937 1.168568
v 0.402503 1.184778 0.814929
v 0.589230 1.279146 0.817695
v 0.300247 1.184778 0.781705
v 0.300247 1.184778 0.674188
v 0.402503 1.184778 0.640964
v 0.645756 1.370607 0.817696
v 0.372786 1.370606 1.013908
v 0.101824 1.370607 0.814929
v 0.207333 1.370607 0.495744
v 0.543501 1.370607 0.497454
v 0.617494 1.427133 0.904679
v 0.281325 1.427133 1.013908
v 0.073561 1.427133 0.727946
v 0.281325 1.427133 0.441984
v 0.617494 1.427133 0.551213
v 0.495416 1.671288 0.926923
v 0.222446 1.671288 0.904679
v 0.159249 1.671288 0.638197
v 0.393160 1.671288 0.495745
v 0.600925 1.671287 0.674188
v 0.448232 1.765656 0.674188
v 0.522225 1.714664 0.620429
v 0.495416 1.671288 0.528969
v 0.345977 1.765656 0.640964
v 0.317714 1.714664 0.553980
v 0.222446 1.671288 0.551214
v 0.282780 1.765656 0.727946
v 0.191320 1.714664 0.727946
v 0.159249 1.671288 0.817695
v 0.345977 1.765656 0.814929
v 0.317714 1.714664 0.901912
v 0.393160 1.671288 0.960148
v 0.448232 1.765656 0.781705
v 0.522225 1.714664 0.835463
v 0.600925 1.671287 0.781705
v 0.646655 1.579826 0.640963
v 0.613686 1.531743 0.553980
v 0.541147 1.579827 0.495744
v 0.375693 1.579827 0.441985
v 0.282779 1.531743 0.446461
v 0.204978 1.579827 0.497454
v 0.102723 1.579827 0.638197
v 0.078268 1.531743 0.727946
v 0.102723 1.579827 0.817696
v 0.204978 1.579827 0.958438
v 0.282779 1.531743 1.009431
v 0.375693 1.579827 1.013908
v 0.541147 1.579827 0.960149
v 0.613686 1.531743 0.901913
v 0.646655 1.579827 0.814929
v 0.467154 1.523301 0.441985
v 0.465700 1.418690 0.446461
v 0.372786 1.370606 0.441985
v 0.130986 1.523301 0.551213
v 0.134794 1.418691 0.553980
v 0.101824 1.370607 0.640963
v 0.130986 1.523301 0.904679
v 0.134794 1.418691 0.901913
v 0.207333 1.370607 0.960149
v 0.467154 1.523301 1.013908
v 0.465700 1.418690 1.009431
v 0.543501 1.370606 0.958438
v 0.674918 1.523300 0.727946
v 0.670211 1.418691 0.727946
v 0.645756 1.370607 0.638197
v 0.526033 1.279146 0.551214
v 0.430766 1.235769 0.553980
v 0.355319 1.279146 0.495745
v 0.253063 1.279146 0.528969
v 0.226255 1.235770 0.620429
v 0.147555 1.279147 0.674188
v 0.147555 1.279147 0.781705
v 0.226255 1.235770 0.835463
v 0.253063 1.279146 0.926923
v 0.589230 1.279146 0.638197
v 0.557159 1.235770 0.727946
v 0.465699 1.184778 0.727946
v 0.355319 1.279146 0.960148
v 0.430766 1.235769 0.901912
v 0.526033 1.279146 0.904679
v 0.349707 1.180763 0.803450
v 0.558584 1.272523 0.861879
v 0.368056 1.321589 0.991320
v 0.622812 1.321589 0.815215
v 0.558584 1.272523 0.594014
v 0.294849 1.180764 0.727946
v 0.121845 1.321589 0.803451
v 0.349707 1.180763 0.652442
v 0.224437 1.321589 0.511237
v 0.534051 1.321589 0.518509
v 0.637975 1.400980 0.861879
v 0.666330 1.549453 0.681282
v 0.328360 1.400980 1.020161
v 0.508880 1.549453 0.991320
v 0.082149 1.400981 0.774610
v 0.165362 1.549453 0.937384
v 0.239599 1.400980 0.464572
v 0.110505 1.549453 0.594014
v 0.583117 1.400980 0.518508
v 0.420119 1.549453 0.435732
v 0.524042 1.628845 0.944655
v 0.214428 1.628845 0.937384
v 0.125667 1.628844 0.640678
v 0.380423 1.628845 0.464573
v 0.626634 1.628844 0.652442
v 0.444652 1.677911 0.944655
v 0.453630 1.769670 0.727946
v 0.189896 1.677911 0.861879
v 0.189896 1.677911 0.594014
v 0.444652 1.677911 0.511238
v 0.303828 1.272523 0.944655
v 0.438468 1.180763 0.774610
v 0.534051 1.321589 0.937384
v 0.622812 1.321589 0.640678
v 0.438468 1.180763 0.681282
v 0.146378 1.272524 0.727946
v 0.224437 1.321589 0.944655
v 0.303828 1.272523 0.511238
v 0.121845 1.321589 0.652442
v 0.368056 1.321589 0.464573
v 0.666330 1.549453 0.774610
v 0.637975 1.400980 0.594014
v 0.420119 1.549453 1.020161
v 0.583117 1.400980 0.937384
v 0.110505 1.549453 0.861879
v 0.239599 1.400980 0.991320
v 0.165362 1.549453 0.518508
v 0.082149 1.400981 0.681282
v 0.508880 1.549453 0.464572
v 0.328360 1.400980 0.435732
v 0.626634 1.628844 0.803451
v 0.380423 1.628845 0.991320
v 0.125667 1.628844 0.815215
v 0.214428 1.628845 0.518509
v 0.524042 1.628844 0.511237
v 0.398772 1.769670 0.803450
v 0.602101 1.677910 0.727946
v 0.310012 1.769670 0.774610
v 0.310012 1.769670 0.681282
v 0.398772 1.769670 0.652442
v 0.485228 1.744879 0.647309
v 0.565796 1.695086 0.647308
v 0.510125 1.695086 0.570685
v 0.331845 1.744879 0.597472
v 0.356741 1.695086 0.520848
v 0.266665 1.695086 0.550116
v 0.237050 1.744879 0.727946
v 0.171870 1.695086 0.680591
v 0.171870 1.695086 0.775302
v 0.331845 1.744879 0.858421
v 0.266665 1.695086 0.905777
v 0.356741 1.695086 0.935045
v 0.485228 1.744879 0.808584
v 0.510125 1.695086 0.885208
v 0.565796 1.695086 0.808584
v 0.634391 1.557895 0.597472
v 0.619005 1.477327 0.550115
v 0.578721 1.557896 0.520847
v 0.330541 1.557896 0.440209
v 0.280748 1.477327 0.440208
v 0.240464 1.557896 0.469477
v 0.087081 1.557895 0.680591
v 0.071693 1.477327 0.727946
v 0.087081 1.557895 0.775302
v 0.240464 1.557896 0.986416
v 0.280748 1.477327 1.015684
v 0.330541 1.557896 1.015684
v 0.578721 1.557896 0.935045
v 0.619005 1.477327 0.905777
v 0.634391 1.557895 0.858421
v 0.467731 1.473106 0.440208
v 0.508016 1.392538 0.469477
v 0.417939 1.392538 0.440209
v 0.129475 1.473106 0.550115
v 0.169759 1.392538 0.520847
v 0.114088 1.392538 0.597472
v 0.129475 1.473106 0.905777
v 0.114088 1.392538 0.858421
v 0.169759 1.392538 0.935045
v 0.467731 1.473106 1.015684
v 0.417939 1.392538 1.015684
v 0.508016 1.392538 0.986416
v 0.676786 1.473106 0.727946
v 0.661398 1.392538 0.775302
v 0.661398 1.392538 0.680591
v 0.481814 1.255347 0.550116
v 0.416634 1.205554 0.597472
v 0.391738 1.255347 0.520848
v 0.238355 1.255347 0.570685
v 0.263251 1.205554 0.647309
v 0.182684 1.255348 0.647308
v 0.182684 1.255348 0.808584
v 0.263251 1.205554 0.808584
v 0.238355 1.255347 0.885208
v 0.576609 1.255347 0.680591
v 0.576609 1.255347 0.775302
v 0.511429 1.205554 0.727946
v 0.391738 1.255347 0.935045
v 0.416634 1.205554 0.858421
v 0.481814 1.255347 0.905777
v 0.374240 1.168720 0.727946
v 0.596022 1.338146 0.889079
v 0.289528 1.338146 0.988667
v 0.100101 1.338147 0.727946
v 0.289528 1.338146 0.467226
v 0.596022 1.338146 0.566813
v 0.458952 1.612288 0.988667
v 0.152457 1.612288 0.889079
v 0.152457 1.612288 0.566813
v 0.458952 1.612288 0.467226
v 0.648378 1.612287 0.727946
v 0.374240 1.781713 0.727946
v 0.324417 1.214333 0.881288
v 0.504680 1.214333 0.822716
v 0.454858 1.313981 0.976059
v 0.635121 1.313981 0.727946
v 0.504680 1.214333 0.633177
v 0.213006 1.214334 0.727946
v 0.163182 1.313981 0.881288
v 0.324417 1.214333 0.574605
v 0.163182 1.313981 0.574604
v 0.454858 1.313981 0.479834
v 0.665915 1.475217 0.822716
v 0.665915 1.475217 0.633176
v 0.374240 1.475217 1.034631
v 0.554505 1.475217 0.976060
v 0.082564 1.475217 0.822716
v 0.193974 1.475217 0.976060
v 0.193974 1.475217 0.479833
v 0.082564 1.475217 0.633176
v 0.554505 1.475217 0.479833
v 0.374240 1.475217 0.421261
v 0.585297 1.636452 0.881288
v 0.293622 1.636453 0.976059
v 0.113358 1.636452 0.727946
v 0.293622 1.636453 0.479834
v 0.585297 1.636452 0.574604
v 0.424063 1.736100 0.881288
v 0.535473 1.736099 0.727946
v 0.243799 1.736100 0.822716
v 0.243799 1.736100 0.633177
v 0.424063 1.736100 0.574605
v 0.402503 1.184778 -0.814929
v 0.589230 1.279146 -0.817696
v 0.300247 1.184778 -0.781705
v 0.300247 1.184778 -0.674188
v 0.402503 1.184778 -0.640964
v 0.645756 1.370607 -0.817696
v 0.372786 1.370606 -1.013908
v 0.101824 1.370607 -0.814930
v 0.207333 1.370606 -0.495744
v 0.543501 1.370606 -0.497454
v 0.617494 1.427133 -0.904680
v 0.281325 1.427133 -1.013908
v 0.073561 1.427133 -0.727946
v 0.281325 1.427133 -0.441985
v 0.617494 1.427133 -0.551213
v 0.495416 1.671288 -0.926924
v 0.222446 1.671288 -0.904679
v 0.159249 1.671288 -0.638197
v 0.393160 1.671288 -0.495745
v 0.600925 1.671287 -0.674188
v 0.448232 1.765656 -0.674188
v 0.522225 1.714664 -0.620429
v 0.495416 1.671288 -0.528969
v 0.345977 1.765656 -0.640964
v 0.317714 1.714664 -0.553980
v 0.222446 1.671288 -0.551214
v 0.282780 1.765656 -0.727946
v 0.191320 1.714664 -0.727946
v 0.159249 1.671288 -0.817696
v 0.345977 1.765656 -0.814929
v 0.317714 1.714664 -0.901913
v 0.393160 1.671288 -0.960148
v 0.448232 1.765656 -0.781705
v 0.522225 1.714664 -0.835464
v 0.600925 1.671287 -0.781705
v 0.646655 1.579827 -0.640963
v 0.613686 1.531743 -0.553980
v 0.541147 1.579827 -0.495744
v 0.375693 1.579827 -0.441985
v 0.282779 1.531743 -0.446461
v 0.204978 1.579827 -0.497454
v 0.102723 1.579827 -0.638197
v 0.078268 1.531743 -0.727946
v 0.102723 1.579827 -0.817696
v 0.204978 1.579827 -0.958438
v 0.282779 1.531743 -1.009431
v 0.375693 1.579827 -1.013908
v 0.541147 1.579827 -0.960149
v 0.613686 1.531743 -0.901913
v 0.646655 1.579826 -0.814929
v 0.467154 1.523301 -0.441985
v 0.465700 1.418690 -0.446461
v 0.372786 1.370606 -0.441985
v 0.130986 1.523301 -0.551213
v 0.134794 1.418691 -0.553980
v 0.101824 1.370607 -0.640963
v 0.130986 1.523301 -0.904680
v 0.134794 1.418691 -0.901913
v 0.207333 1.370607 -0.960149
v 0.467154 1.523301 -1.013908
v 0.465700 1.418690 -1.009431
v 0.543501 1.370606 -0.958438
v 0.674918 1.523301 -0.727947
v 0.670211 1.418691 -0.727946
v 0.645756 1.370607 -0.638197
v 0.526033 1.279146 -0.551214
v 0.430766 1.235769 -0.553980
v 0.355319 1.279146 -0.495745
v 0.253063 1.279146 -0.528969
v 0.226255 1.235770 -0.620429
v 0.147555 1.279147 -0.674188
v 0.147555 1.279147 -0.781705
v 0.226255 1.235770 -0.835464
v 0.253063 1.279146 -0.926924
v 0.589230 1.279146 -0.638197
v 0.557159 1.235770 -0.727946
v 0.465699 1.184778 -0.727946
v 0.355319 1.279146 -0.960148
v 0.430766 1.235769 -0.901913
v 0.526033 1.279146 -0.904679
v 0.349707 1.180763 -0.803451
v 0.558584 1.272523 -0.861879
v 0.368056 1.321589 -0.991320
v 0.622812 1.321589 -0.815215
v 0.558584 1.272523 -0.594014
v 0.294849 1.180764 -0.727946
v 0.121845 1.321589 -0.803451
v 0.349707 1.180763 -0.652442
v 0.224437 1.321589 -0.511238
v 0.534051 1.321589 -0.518509
v 0.637975 1.400980 -0.861879
v 0.666330 1.549453 -0.681282
v 0.328360 1.400980 -1.020161
v 0.508880 1.549453 -0.991320
v 0.082149 1.400981 -0.774611
v 0.165362 1.549453 -0.937384
v 0.239599 1.400980 -0.464572
v 0.110505 1.549453 -0.594014
v 0.583117 1.400980 -0.518509
v 0.420119 1.549453 -0.435732
v 0.524042 1.628845 -0.944655
v 0.214428 1.628845 -0.937384
v 0.125667 1.628844 -0.640678
v 0.380423 1.628845 -0.464573
v 0.626634 1.628844 -0.652442
v 0.444652 1.677911 -0.944655
v 0.453630 1.769670 -0.727946
v 0.189896 1.677911 -0.861879
v 0.189896 1.677911 -0.594014
v 0.444651 1.677911 -0.511238
v 0.303828 1.272523 -0.944655
v 0.438468 1.180763 -0.774610
v 0.534051 1.321589 -0.937384
v 0.622812 1.321589 -0.640678
v 0.438468 1.180763 -0.681283
v 0.146378 1.272524 -0.727947
v 0.224437 1.321589 -0.944655
v 0.303828 1.272523 -0.511238
v 0.121845 1.321589 -0.652442
v 0.368056 1.321589 -0.464573
v 0.666330 1.549453 -0.774611
v 0.637975 1.400980 -0.594014
v 0.420119 1.549453 -1.020161
v 0.583117 1.400980 -0.937384
v 0.110505 1.549453 -0.861879
v 0.239599 1.400980 -0.991320
v 0.165362 1.549453 -0.518509
v 0.082149 1.400981 -0.681282
v 0.508880 1.549453 -0.464572
v 0.328360 1.400980 -0.435732
v 0.626634 1.628844 -0.803451
v 0.380423 1.628845 -0.991320
v 0.125667 1.628844 -0.815215
v 0.214428 1.628845 -0.518509
v 0.524042 1.628844 -0.511238
v 0.398772 1.769670 -0.803451
v 0.602101 1.677910 -0.727947
v 0.310012 1.769670 -0.774610
v 0.310012 1.769670 -0.681283
v 0.398772 1.769670 -0.652442
v 0.485228 1.744879 -0.647309
v 0.565796 1.695086 -0.647309
v 0.510125 1.695086 -0.570685
v 0.331845 1.744879 -0.597472
v 0.356741 1.695086 -0.520848
v 0.266665 1.695086 -0.550116
v 0.237050 1.744879 -0.727946
v 0.171870 1.695086 -0.680591
v 0.171870 1.695086 -0.775302
v 0.331845 1.744879 -0.858421
v 0.266665 1.695086 -0.905777
v 0.356741 1.695086 -0.935045
v 0.485228 1.744879 -0.808584
v 0.510125 1.695086 -0.885208
v 0.565796 1.695086 -0.808584
v 0.634391 1.557895 -0.597472
v 0.619005 1.477327 -0.550115
v 0.578721 1.557895 -0.520847
v 0.330541 1.557896 -0.440209
v 0.280748 1.477327 -0.440208
v 0.240464 1.557896 -0.469477
v 0.087081 1.557895 -0.680591
v 0.071693 1.477327 -0.727946
v 0.087081 1.557895 -0.775302
v 0.240464 1.557896 -0.986416
v 0.280748 1.477327 -1.015684
v 0.330541 1.557896 -1.015684
v 0.578721 1.557895 -0.935046
v 0.619005 1.477327 -0.905778
v 0.634391 1.557895 -0.858421
v 0.467731 1.473106 -0.440208
v 0.508016 1.392538 -0.469477
v 0.417939 1.392538 -0.440209
v 0.129475 1.473106 -0.550115
v 0.169759 1.392538 -0.520847
v 0.114088 1.392538 -0.597472
v 0.129475 1.473106 -0.905778
v 0.114088 1.392538 -0.858421
v 0.169759 1.392538 -0.935046
v 0.467731 1.473106 -1.015684
v 0.417939 1.392538 -1.015684
v 0.508016 1.392538 -0.986416
v 0.676786 1.473106 -0.727946
v 0.661398 1.392538 -0.775302
v 0.661398 1.392538 -0.680591
v 0.481814 1.255347 -0.550116
v 0.416634 1.205554 -0.597472
v 0.391738 1.255347 -0.520848
v 0.238355 1.255347 -0.570685
v 0.263251 1.205554 -0.647309
v 0.182684 1.255348 -0.647309
v 0.182684 1.255348 -0.808584
v 0.263251 1.205554 -0.808584
v 0.238355 1.255347 -0.885208
v 0.576609 1.255347 -0.680591
v 0.576609 1.255347 -0.775302
v 0.511429 1.205554 -0.727946
v 0.391738 1.255347 -0.935045
v 0.416634 1.205554 -0.858421
v 0.481814 1.255347 -0.905777
v 0.374240 1.168720 -0.727946
v 0.596022 1.338146 -0.889079
v 0.289528 1.338146 -0.988667
v 0.100101 1.338147 -0.727946
v 0.289527 1.338146 -0.467226
v 0.596022 1.338146 -0.566813
v 0.458952 1.612288 -0.988667
v 0.152457 1.612288 -0.889079
v 0.152457 1.612288 -0.566813
v 0.458952 1.612288 -0.467226
v 0.648378 1.612287 -0.727946
v 0.374240 1.781713 -0.727946
v 0.324417 1.214333 -0.881288
v 0.504680 1.214333 -0.822716
v 0.454858 1.313981 -0.976059
v 0.635121 1.313981 -0.727947
v 0.504680 1.214333 -0.633177
v 0.213006 1.214334 -0.727947
v 0.163182 1.313981 -0.881288
v 0.324417 1.214333 -0.574605
v 0.163182 1.313981 -0.574605
v 0.454858 1.313981 -0.479834
v 0.665915 1.475217 -0.822717
v 0.665915 1.475217 -0.633177
v 0.374240 1.475217 -1.034632
v 0.554505 1.475217 -0.976060
v 0.082564 1.475217 -0.822717
v 0.193974 1.475217 -0.976060
v 0.193974 1.475217 -0.479833
v 0.082564 1.475217 -0.633177
v 0.554505 1.475217 -0.479833
v 0.374240 1.475217 -0.421261
v 0.585297 1.636452 -0.881288
v 0.293622 1.636453 -0.976059
v 0.113358 1.636452 -0.727947
v 0.293622 1.636453 -0.479834
v 0.585297 1.636452 -0.574605
v 0.424063 1.736100 -0.881288
v 0.535473 1.736099 -0.727947
v 0.243799 1.736100 -0.822716
v 0.243799 1.736100 -0.633177
v 0.424063 1.736100 -0.574605
vn -0.8658 0.4762 -0.1534
vn -0.7401 0.4947 -0.4555
vn -0.6844 0.7135 -0.1504
vn -0.5866 0.7020 -0.4038
vn -0.9435 0.2914 -0.1579
vn -0.9695 0.1842 -0.1616
vn -0.8183 0.2976 -0.4917
vn -0.8422 0.1878 -0.5053
vn -0.1535 0.3939 -0.9063
vn -0.4917 0.2976 -0.8183
vn -0.2201 0.2958 -0.9295
vn -0.5053 0.1878 -0.8422
vn -0.1534 0.4762 -0.8658
vn -0.1504 0.7135 -0.6844
vn -0.4555 0.4947 -0.7401
vn -0.4038 0.7020 -0.5866
vn 0.1534 0.4762 -0.8658
vn 0.4555 0.4947 -0.7401
vn 0.1504 0.7135 -0.6844
vn 0.4038 0.7020 -0.5866
vn -0.2321 0.1869 -0.9546
vn 0.1642 0.0537 -0.9850
vn 0.4917 0.2976 -0.8183
vn 0.5053 0.1878 -0.8422
vn 0.9435 0.2914 -0.1579
vn 0.8183 0.2976 -0.4917
vn 0.9695 0.1842 -0.1616
vn 0.8422 0.1878 -0.5053
vn 0.8658 0.4762 -0.1534
vn 0.6844 0.7135 -0.1504
vn 0.7401 0.4947 -0.4555
vn 0.5866 0.7020 -0.4038
vn -0.0345 -0.9988 -0.0345
vn -0.0441 -0.9918 -0.1197
vn -0.1197 -0.9918 -0.0441
vn -0.1345 -0.9818 -0.1345
vn 0.0345 -0.9988 -0.0345
vn 0.1197 -0.9918 -0.0441
vn 0.0441 -0.9918 -0.1197
vn 0.1345 -0.9818 -0.1345
vn 0.1222 0.9850 -0.1222
vn 0.1371 0.9146 -0.3805
vn 0.3805 0.9146 -0.1371
vn 0.3779 0.8452 -0.3779
vn -0.1222 0.9850 -0.1222
vn -0.3805 0.9146 -0.1371
vn -0.1371 0.9146 -0.3805
vn -0.3779 0.8452 -0.3779
vn 0.7042 -0.6990 -0.1249
vn 0.5859 -0.7256 -0.3609
vn 0.3047 -0.9500 -0.0688
vn 0.2672 -0.9455 -0.1860
vn 0.9767 -0.1388 -0.1634
vn 0.9765 0.1415 -0.1627
vn 0.8480 -0.1458 -0.5096
vn 0.8485 0.1443 -0.5091
vn -0.1249 -0.6990 -0.7042
vn -0.3609 -0.7256 -0.5859
vn -0.0688 -0.9500 -0.3047
vn -0.1860 -0.9455 -0.2672
vn -0.1634 -0.1388 -0.9767
vn -0.1627 0.1415 -0.9765
vn -0.5096 -0.1458 -0.8480
vn -0.5091 0.1443 -0.8485
vn 0.1634 -0.1388 -0.9767
vn 0.5096 -0.1458 -0.8480
vn 0.1627 0.1415 -0.9765
vn 0.5091 0.1443 -0.8485
vn 0.1249 -0.6990 -0.7042
vn 0.0688 -0.9500 -0.3047
vn 0.3609 -0.7256 -0.5859
vn 0.1860 -0.9455 -0.2672
vn -0.9767 -0.1388 -0.1634
vn -0.8480 -0.1458 -0.5096
vn -0.9765 0.1415 -0.1627
vn -0.8485 0.1443 -0.5091
vn -0.7042 -0.6990 -0.1249
vn -0.3047 -0.9500 -0.0688
vn -0.5859 -0.7256 -0.3609
vn -0.2672 -0.9455 -0.1860
vn 0.9116 0.4098 0.0313
vn -0.2438 -0.6863 -0.6852
vn -0.9208 0.3876 0.0437
vn -0.9339 -0.1281 -0.3339
vn -0.1641 0.0567 -0.9848
vn 0.2369 0.1871 -0.9533
vn 0.1523 0.4138 -0.8976
vn 0.2360 0.2966 -0.9254
vn -0.9352 -0.0420 -0.3516
vn 0.9182 0.0418 -0.3938
vn -0.1325 0.7305 0.6699
vn 0.2375 -0.4511 -0.8603
vn 0.0681 0.8059 0.5881
vn 0.2371 -0.6814 -0.6924
vn -0.0921 0.8128 0.5753
vn 0.9336 -0.1094 -0.3412
vn -0.2444 0.9570 0.1562
vn -0.4447 0.3483 -0.8252
vn 0.1243 0.9864 0.1080
vn 0.3209 0.4151 -0.8513
vn -0.9256 0.3550 0.1312
vn -0.2455 -0.4717 -0.8469
vn 0.8945 0.4390 0.0844
vn 0.0849 0.7359 0.6718
vn -0.8600 0.1885 -0.4741
vn -0.2782 0.0086 -0.9605
vn 0.2959 0.9257 -0.2356
vn 0.7220 0.6670 -0.1837
vn 0.2158 0.0664 -0.9742
vn 0.7476 0.3619 -0.5569
vn -0.4633 0.8630 -0.2013
vn -0.8487 0.5243 -0.0696
vn 0.3639 0.1149 -0.9243
vn 0.2165 -0.2784 -0.9358
vn 0.1771 0.5976 -0.7820
vn -0.1793 0.5854 -0.7907
vn 0.3421 0.3494 -0.8723
vn -0.2136 -0.2460 -0.9455
vn -0.3225 0.3425 -0.8824
vn -0.3393 0.1267 -0.9321
vn 0.1437 0.4385 -0.8872
vn 0.2920 0.3365 -0.8952
vn 0.2953 0.1403 -0.9450
vn 0.1634 0.0187 -0.9864
vn -0.1475 0.4257 -0.8928
vn -0.1639 0.0436 -0.9855
vn -0.2792 0.3339 -0.9003
vn -0.2817 0.1429 -0.9488
vn -0.8658 0.4762 0.1534
vn -0.7401 0.4947 0.4555
vn -0.6844 0.7135 0.1504
vn -0.5866 0.7020 0.4038
vn -0.9435 0.2914 0.1579
vn -0.9695 0.1842 0.1616
vn -0.8183 0.2976 0.4917
vn -0.8422 0.1878 0.5053
vn -0.1535 0.3939 0.9063
vn -0.4917 0.2976 0.8183
vn -0.2201 0.2958 0.9295
vn -0.5053 0.1878 0.8422
vn -0.1534 0.4762 0.8658
vn -0.1504 0.7135 0.6844
vn -0.4555 0.4947 0.7401
vn -0.4038 0.7020 0.5866
vn 0.1534 0.4762 0.8658
vn 0.4555 0.4947 0.7401
vn 0.1504 0.7135 0.6844
vn 0.4038 0.7020 0.5866
vn -0.2321 0.1869 0.9546
vn 0.1642 0.0537 0.9850
vn 0.4917 0.2976 0.8183
vn 0.5053 0.1878 0.8422
vn 0.9435 0.2914 0.1579
vn 0.8183 0.2976 0.4917
vn 0.9695 0.1842 0.1616
vn 0.8422 0.1878 0.5053
vn 0.8658 0.4762 0.1534
vn 0.6844 0.7135 0.1504
vn 0.7401 0.4947 0.4555
vn 0.5866 0.7020 0.4038
vn -0.0345 -0.9988 0.0345
vn -0.0441 -0.9918 0.1197
vn -0.1197 -0.9918 0.0441
vn -0.1345 -0.9818 0.1345
vn 0.0345 -0.9988 0.0345
vn 0.1197 -0.9918 0.0441
vn 0.0441 -0.9918 0.1197
vn 0.1345 -0.9818 0.1345
vn 0.1222 0.9850 0.1222
vn 0.1371 0.9146 0.3805
vn 0.3805 0.9146 0.1371
vn 0.3779 0.8452 0.3779
vn -0.1222 0.9850 0.1222
vn -0.3805 0.9146 0.1371
vn -0.1371 0.9146 0.3805
vn -0.3779 0.8452 0.3779
vn 0.7042 -0.6990 0.1249
vn 0.5859 -0.7256 0.3609
vn 0.3047 -0.9500 0.0688
vn 0.2672 -0.9455 0.1860
vn 0.9767 -0.1388 0.1634
vn 0.9765 0.1415 0.1627
vn 0.8480 -0.1458 0.5096
vn 0.8485 0.1443 0.5091
vn -0.1249 -0.6990 0.7042
vn -0.3609 -0.7256 0.5859
vn -0.0688 -0.9500 0.3047
vn -0.1860 -0.9455 0.2672
vn -0.1634 -0.1388 0.9767
vn -0.1627 0.1415 0.9765
vn -0.5096 -0.1458 0.8480
vn -0.5091 0.1443 0.8485
vn 0.1634 -0.1388 0.9767
vn 0.5096 -0.1458 0.8480
vn 0.1627 0.1415 0.9765
vn 0.5091 0.1443 0.8485
vn 0.1249 -0.6990 0.7042
vn 0.0688 -0.9500 0.3047
vn 0.3609 -0.7256 0.5859
vn 0.1860 -0.9455 0.2672
vn -0.9767 -0.1388 0.1634
vn -0.8480 -0.1458 0.5096
vn -0.9765 0.1415 0.1627
vn -0.8485 0.1443 0.5091
vn -0.7042 -0.6990 0.1249
vn -0.3047 -0.9500 0.0688
vn -0.5859 -0.7256 0.3609
vn -0.2672 -0.9455 0.1860
vn 0.9116 0.4098 -0.0313
vn -0.2438 -0.6863 0.6852
vn -0.9208 0.3876 -0.0437
vn -0.9339 -0.1281 0.3339
vn -0.1641 0.0567 0.9848
vn 0.2369 0.1871 0.9533
vn 0.1523 0.4138 0.8976
vn 0.2360 0.2966 0.9254
vn -0.9352 -0.0420 0.3516
vn 0.9182 0.0418 0.3938
vn -0.1325 0.7305 -0.6699
vn 0.2375 -0.4511 0.8603
vn 0.0681 0.8059 -0.5881
vn 0.2371 -0.6814 0.6924
vn -0.0921 0.8128 -0.5753
vn 0.9336 -0.1094 0.3412
vn -0.2444 0.9570 -0.1562
vn -0.4447 0.3483 0.8252
vn 0.1243 0.9864 -0.1080
vn 0.3209 0.4151 0.8513
vn -0.9256 0.3550 -0.1312
vn -0.2455 -0.4717 0.8469
vn 0.8945 0.4390 -0.0844
vn 0.0849 0.7359 -0.6718
vn -0.8600 0.1885 0.4741
vn -0.2782 0.0086 0.9605
vn 0.2959 0.9257 0.2356
vn 0.7220 0.6670 0.1837
vn 0.2158 0.0664 0.9742
vn 0.7476 0.3619 0.5569
vn -0.4633 0.8630 0.2013
vn -0.8487 0.5243 0.0696
vn 0.3639 0.1149 0.9243
vn 0.2165 -0.2784 0.9358
vn 0.1771 0.5976 0.7820
vn -0.1793 0.5854 0.7907
vn 0.3421 0.3494 0.8723
vn -0.2136 -0.2460 0.9455
vn -0.3225 0.3425 0.8824
vn -0.3393 0.1267 0.9321
vn 0.1437 0.4385 0.8872
vn 0.2920 0.3365 0.8952
vn 0.2953 0.1403 0.9450
vn 0.1634 0.0187 0.9864
vn -0.1475 0.4257 0.8928
vn -0.1639 0.0436 0.9855
vn -0.2792 0.3339 0.9003
vn -0.2817 0.1429 0.9488
vn 0.0534 -0.9849 0.1645
vn 0.2387 -0.9126 0.3321
vn 0.0021 -0.9126 0.4090
vn 0.7218 -0.5656 0.3988
vn 0.5953 -0.7554 0.2738
vn 0.7665 -0.6247 0.1495
vn -0.1399 -0.9849 0.1016
vn -0.2421 -0.9126 0.3296
vn -0.3883 -0.9126 0.1284
vn -0.1399 -0.9849 -0.1016
vn -0.3883 -0.9126 -0.1284
vn -0.2421 -0.9126 -0.3296
vn 0.0534 -0.9849 -0.1645
vn 0.0021 -0.9126 -0.4090
vn 0.2387 -0.9126 -0.3321
vn 0.8287 -0.3927 0.3988
vn 0.9015 -0.4062 0.1495
vn 0.9419 -0.1946 0.2738
vn -0.1232 -0.3927 0.9114
vn 0.1364 -0.4062 0.9035
vn 0.0307 -0.1946 0.9804
vn -0.9048 -0.3927 0.1645
vn -0.8172 -0.4062 0.4090
vn -0.9229 -0.1946 0.3321
vn -0.4360 -0.3927 -0.8097
vn -0.6415 -0.4062 -0.6508
vn -0.6011 -0.1946 -0.7751
vn 0.6354 -0.3927 -0.6649
vn 0.4207 -0.4062 -0.8112
vn 0.5515 -0.1946 -0.8112
vn 0.7753 -0.2858 0.5633
vn 0.8744 -0.0596 0.4816
vn 0.7282 -0.0596 0.6828
vn -0.2961 -0.2858 0.9114
vn -0.1878 -0.0596 0.9804
vn -0.4243 -0.0596 0.9035
vn -0.9583 -0.2858 0.0000
vn -0.9904 -0.0596 0.1243
vn -0.9904 -0.0596 -0.1243
vn -0.2961 -0.2858 -0.9114
vn -0.4243 -0.0596 -0.9035
vn -0.1878 -0.0596 -0.9804
vn 0.7753 -0.2858 -0.5633
vn 0.7282 -0.0596 -0.6828
vn 0.8744 -0.0596 -0.4816
vn 0.3496 0.5656 0.7469
vn 0.5322 0.6247 0.5714
vn 0.3207 0.7554 0.5714
vn -0.6023 0.5656 0.5633
vn -0.3790 0.6247 0.6828
vn -0.4444 0.7554 0.4816
vn -0.7218 0.5656 -0.3988
vn -0.7665 0.6247 -0.1495
vn -0.5953 0.7554 -0.2738
vn 0.1562 0.5656 -0.8097
vn -0.0947 0.6247 -0.7751
vn 0.0764 0.7554 -0.6508
vn 0.8184 0.5656 -0.1016
vn 0.7079 0.6247 -0.3296
vn 0.6426 0.7554 -0.1284
vn 0.3883 0.9126 -0.1284
vn 0.2421 0.9126 -0.3296
vn 0.1399 0.9849 -0.1016
vn 0.5119 0.8282 -0.2282
vn 0.5730 0.7060 -0.4163
vn 0.3752 0.8282 -0.4163
vn 0.5322 0.6247 -0.5714
vn 0.3496 0.5656 -0.7469
vn 0.3207 0.7554 -0.5714
vn -0.0021 0.9126 -0.4090
vn -0.2387 0.9126 -0.3321
vn -0.0534 0.9849 -0.1645
vn -0.0589 0.8282 -0.5573
vn -0.2189 0.7060 -0.6736
vn -0.2800 0.8282 -0.4855
vn -0.3790 0.6247 -0.6828
vn -0.6023 0.5656 -0.5633
vn -0.4444 0.7554 -0.4816
vn -0.3896 0.9126 -0.1243
vn -0.3896 0.9126 0.1243
vn -0.1729 0.9849 -0.0000
vn -0.5482 0.8282 -0.1163
vn -0.7082 0.7060 0.0000
vn -0.5482 0.8282 0.1163
vn -0.7665 0.6247 0.1495
vn -0.7218 0.5656 0.3988
vn -0.5953 0.7554 0.2738
vn -0.2387 0.9126 0.3321
vn -0.0021 0.9126 0.4090
vn -0.0534 0.9849 0.1645
vn -0.2800 0.8282 0.4855
vn -0.2189 0.7060 0.6736
vn -0.0589 0.8282 0.5573
vn -0.0947 0.6247 0.7751
vn 0.1562 0.5656 0.8097
vn 0.0764 0.7554 0.6508
vn 0.2421 0.9126 0.3296
vn 0.3883 0.9126 0.1284
vn 0.1399 0.9849 0.1016
vn 0.3752 0.8282 0.4163
vn 0.5730 0.7060 0.4163
vn 0.5119 0.8282 0.2282
vn 0.7079 0.6246 0.3296
vn 0.8184 0.5656 0.1016
vn 0.6426 0.7554 0.1284
vn 0.9229 0.1946 -0.3321
vn 0.8172 0.4062 -0.4090
vn 0.9048 0.3927 -0.1645
vn 0.8660 0.1200 -0.4855
vn 0.7293 0.1200 -0.6736
vn 0.7671 0.3177 -0.5573
vn 0.6011 0.1946 -0.7751
vn 0.4360 0.3927 -0.8097
vn 0.6415 0.4062 -0.6508
vn -0.0307 0.1946 -0.9804
vn -0.1364 0.4062 -0.9035
vn 0.1232 0.3927 -0.9114
vn -0.1941 0.1200 -0.9736
vn -0.4152 0.1200 -0.9018
vn -0.2930 0.3177 -0.9018
vn -0.5515 0.1946 -0.8112
vn -0.6354 0.3927 -0.6649
vn -0.4207 0.4062 -0.8112
vn -0.9419 0.1946 -0.2738
vn -0.9015 0.4062 -0.1495
vn -0.8287 0.3927 -0.3988
vn -0.9859 0.1200 -0.1163
vn -0.9859 0.1200 0.1163
vn -0.9482 0.3177 0.0000
vn -0.9419 0.1946 0.2738
vn -0.8287 0.3927 0.3988
vn -0.9015 0.4062 0.1495
vn -0.5515 0.1946 0.8112
vn -0.4207 0.4062 0.8112
vn -0.6354 0.3927 0.6649
vn -0.4152 0.1200 0.9018
vn -0.1941 0.1200 0.9736
vn -0.2930 0.3177 0.9018
vn -0.0307 0.1946 0.9804
vn 0.1232 0.3927 0.9114
vn -0.1364 0.4062 0.9035
vn 0.6011 0.1946 0.7751
vn 0.6415 0.4062 0.6508
vn 0.4360 0.3927 0.8097
vn 0.7293 0.1200 0.6736
vn 0.8660 0.1200 0.4855
vn 0.7671 0.3177 0.5573
vn 0.9229 0.1946 0.3321
vn 0.9048 0.3927 0.1645
vn 0.8172 0.4062 0.4090
vn 0.4243 0.0596 -0.9035
vn 0.1878 0.0596 -0.9804
vn 0.2961 0.2858 -0.9114
vn 0.4152 -0.1200 -0.9018
vn 0.2930 -0.3177 -0.9018
vn 0.1941 -0.1200 -0.9736
vn 0.1364 -0.4062 -0.9035
vn -0.1232 -0.3927 -0.9114
vn 0.0307 -0.1946 -0.9804
vn -0.7282 0.0596 -0.6828
vn -0.8744 0.0596 -0.4816
vn -0.7753 0.2858 -0.5633
vn -0.7293 -0.1200 -0.6736
vn -0.7671 -0.3177 -0.5573
vn -0.8660 -0.1200 -0.4855
vn -0.8172 -0.4062 -0.4090
vn -0.9048 -0.3927 -0.1645
vn -0.9229 -0.1946 -0.3321
vn -0.8744 0.0596 0.4816
vn -0.7282 0.0596 0.6828
vn -0.7753 0.2858 0.5633
vn -0.8660 -0.1200 0.4855
vn -0.7671 -0.3177 0.5573
vn -0.7293 -0.1200 0.6736
vn -0.6415 -0.4062 0.6508
vn -0.4360 -0.3927 0.8097
vn -0.6011 -0.1946 0.7751
vn 0.1878 0.0596 0.9804
vn 0.4243 0.0596 0.9035
vn 0.2961 0.2858 0.9114
vn 0.1941 -0.1200 0.9736
vn 0.2930 -0.3177 0.9018
vn 0.4152 -0.1200 0.9018
vn 0.4207 -0.4062 0.8112
vn 0.6354 -0.3927 0.6649
vn 0.5515 -0.1946 0.8112
vn 0.9904 0.0596 0.1243
vn 0.9904 0.0596 -0.1243
vn 0.9583 0.2858 0.0000
vn 0.9859 -0.1200 0.1163
vn 0.9482 -0.3178 0.0000
vn 0.9859 -0.1200 -0.1163
vn 0.9015 -0.4062 -0.1495
vn 0.8287 -0.3927 -0.3988
vn 0.9419 -0.1946 -0.2738
vn 0.4444 -0.7554 -0.4816
vn 0.3790 -0.6247 -0.6828
vn 0.6023 -0.5656 -0.5633
vn 0.2800 -0.8282 -0.4855
vn 0.0589 -0.8282 -0.5573
vn 0.2189 -0.7060 -0.6736
vn -0.0764 -0.7554 -0.6508
vn -0.1562 -0.5656 -0.8097
vn 0.0947 -0.6247 -0.7751
vn -0.3207 -0.7554 -0.5714
vn -0.5322 -0.6247 -0.5714
vn -0.3496 -0.5656 -0.7469
vn -0.3752 -0.8282 -0.4163
vn -0.5119 -0.8282 -0.2282
vn -0.5730 -0.7060 -0.4163
vn -0.6426 -0.7554 -0.1284
vn -0.8184 -0.5656 -0.1016
vn -0.7079 -0.6247 -0.3296
vn -0.6426 -0.7554 0.1284
vn -0.7079 -0.6247 0.3296
vn -0.8184 -0.5656 0.1016
vn -0.5119 -0.8282 0.2282
vn -0.3752 -0.8282 0.4163
vn -0.5730 -0.7060 0.4163
vn -0.3207 -0.7554 0.5714
vn -0.3496 -0.5656 0.7469
vn -0.5322 -0.6247 0.5714
vn 0.7665 -0.6247 -0.1495
vn 0.5953 -0.7554 -0.2738
vn 0.7218 -0.5656 -0.3988
vn 0.7082 -0.7060 0.0000
vn 0.5482 -0.8282 0.1162
vn 0.5482 -0.8282 -0.1162
vn 0.3896 -0.9126 0.1243
vn 0.1729 -0.9849 0.0000
vn 0.3896 -0.9126 -0.1243
vn -0.0764 -0.7554 0.6508
vn 0.0947 -0.6247 0.7751
vn -0.1562 -0.5656 0.8097
vn 0.0589 -0.8282 0.5573
vn 0.2800 -0.8282 0.4855
vn 0.2189 -0.7060 0.6736
vn 0.4444 -0.7554 0.4816
vn 0.6023 -0.5656 0.5633
vn 0.3790 -0.6247 0.6828
vn 0.7079 0.6247 0.3296
vn 0.7079 0.6246 -0.3296
vn 0.6011 0.1947 0.7751
vn 0.6011 0.1947 -0.7751
vn -0.7079 -0.6246 0.3296
vn -0.7079 -0.6246 -0.3296
vt 0.250000 0.500000
vt 0.750000 0.500000
usemtl Body
s off
f 110/1/1 111/1/1 2/1/1 1/1/1
f 1/1/2 2/1/2 52/1/2 53/1/2
f 111/1/3 165/1/3 37/1/3 2/1/3
f 2/1/4 37/1/4 64/1/4 52/1/4
f 110/1/5 1/1/5 3/1/5 113/1/5
f 113/1/6 3/1/6 62/1/6 194/1/6
f 1/1/7 53/1/7 54/1/7 3/1/7
f 3/1/8 54/1/8 67/1/8 62/1/8
f 5/1/9 4/1/9 107/1/9
f 5/1/10 8/1/10 54/1/10 53/1/10
f 8/1/11 5/1/11 107/1/11
f 8/1/12 59/1/12 67/1/12 54/1/12
f 4/1/13 5/1/13 9/1/13 6/1/13
f 6/1/14 9/1/14 44/1/14 45/1/14
f 5/1/15 53/1/15 52/1/15 9/1/15
f 9/1/16 52/1/16 64/1/16 44/1/16
f 4/1/17 6/1/17 10/1/17 7/1/17
f 7/1/18 10/1/18 55/1/18 56/1/18
f 6/1/19 45/1/19 46/1/19 10/1/19
f 10/1/20 46/1/20 66/1/20 55/1/20
f 59/1/21 8/1/21 108/1/21
f 61/1/22 60/1/22 109/1/22
f 7/1/23 56/1/23 57/1/23 11/1/23
f 11/1/24 57/1/24 68/1/24 61/1/24
f 124/1/25 127/1/25 13/1/25 12/1/25
f 12/1/26 13/1/26 57/1/26 56/1/26
f 127/1/27 190/1/27 58/1/27 13/1/27
f 13/1/28 58/1/28 68/1/28 57/1/28
f 124/1/29 12/1/29 14/1/29 126/1/29
f 126/1/30 14/1/30 51/1/30 182/1/30
f 12/1/31 56/1/31 55/1/31 14/1/31
f 14/1/32 55/1/32 66/1/32 51/1/32
f 130/1/33 133/1/33 16/1/33 15/1/33
f 15/1/34 16/1/34 43/1/34 42/1/34
f 133/1/35 164/1/35 36/1/35 16/1/35
f 16/1/36 36/1/36 63/1/36 43/1/36
f 130/1/37 15/1/37 17/1/37 132/1/37
f 132/1/38 17/1/38 50/1/38 179/1/38
f 15/1/39 42/1/39 41/1/39 17/1/39
f 17/1/40 41/1/40 65/1/40 50/1/40
f 136/1/41 139/1/41 19/1/41 18/1/41
f 18/1/42 19/1/42 46/1/42 45/1/42
f 139/1/43 182/1/43 51/1/43 19/1/43
f 19/1/44 51/1/44 66/1/44 46/1/44
f 136/1/45 18/1/45 20/1/45 138/1/45
f 138/1/46 20/1/46 37/1/46 165/1/46
f 18/1/47 45/1/47 44/1/47 20/1/47
f 20/1/48 44/1/48 64/1/48 37/1/48
f 142/1/49 145/1/49 22/1/49 21/1/49
f 21/1/50 22/1/50 49/1/50 48/1/50
f 145/1/51 179/1/51 50/1/51 22/1/51
f 22/1/52 50/1/52 65/1/52 49/1/52
f 142/1/53 21/1/53 23/1/53 144/1/53
f 144/1/54 23/1/54 58/1/54 190/1/54
f 21/1/55 48/1/55 47/1/55 23/1/55
f 23/1/56 47/1/56 68/1/56 58/1/56
f 24/1/57 28/1/57 29/1/57 25/1/57
f 25/1/58 29/1/58 40/1/58 39/1/58
f 28/1/59 42/1/59 43/1/59 29/1/59
f 29/1/60 43/1/60 63/1/60 40/1/60
f 24/1/61 25/1/61 30/1/61 26/1/61
f 26/1/62 30/1/62 59/1/62 60/1/62
f 25/1/63 39/1/63 38/1/63 30/1/63
f 30/1/64 38/1/64 67/1/64 59/1/64
f 24/1/65 26/1/65 31/1/65 27/1/65
f 27/1/66 31/1/66 47/1/66 48/1/66
f 26/1/67 60/1/67 61/1/67 31/1/67
f 31/1/68 61/1/68 68/1/68 47/1/68
f 24/1/69 27/1/69 32/1/69 28/1/69
f 28/1/70 32/1/70 41/1/70 42/1/70
f 27/1/71 48/1/71 49/1/71 32/1/71
f 32/1/72 49/1/72 65/1/72 41/1/72
f 157/1/73 158/1/73 34/1/73 33/1/73
f 33/1/74 34/1/74 38/1/74 39/1/74
f 158/1/75 194/1/75 62/1/75 34/1/75
f 34/1/76 62/1/76 67/1/76 38/1/76
f 157/1/77 33/1/77 35/1/77 160/1/77
f 160/1/78 35/1/78 36/1/78 164/1/78
f 33/1/79 39/1/79 40/1/79 35/1/79
f 35/1/80 40/1/80 63/1/80 36/1/80
f 74/1/81 76/1/81 84/1/81 82/1/81
f 75/1/82 73/1/82 81/1/82 83/1/82
f 71/1/83 70/1/83 79/1/83 80/1/83
f 73/1/84 71/1/84 80/1/84 81/1/84
f 60/1/85 59/1/85 108/1/85
f 11/1/86 61/1/86 109/1/86
f 4/1/87 7/1/87 106/1/87
f 7/1/88 11/1/88 106/1/88
f 81/1/89 80/1/89 87/1/89 89/1/89
f 84/1/90 85/1/90 93/1/90 92/1/90
f 79/1/91 78/1/91 72/1/91 86/1/91
f 85/1/92 83/1/92 91/1/92 93/1/92
f 69/1/93 74/1/93 82/1/93 78/1/93
f 77/1/94 75/1/94 83/1/94 85/1/94
f 70/1/95 69/1/95 78/1/95 79/1/95
f 76/1/96 77/1/96 85/1/96 84/1/96
f 72/1/97 97/1/97 86/1/97
f 88/1/98 95/1/98 89/1/98 96/1/98
f 72/1/99 90/1/99 97/1/99
f 88/1/100 94/1/100 93/1/100 95/1/100
f 80/1/101 79/1/101 86/1/101 87/1/101
f 83/1/102 81/1/102 89/1/102 91/1/102
f 82/1/103 84/1/103 92/1/103 90/1/103
f 78/1/104 82/1/104 90/1/104 72/1/104
f 96/1/105 89/1/105 87/1/105
f 89/1/106 95/1/106 91/1/106
f 97/1/107 90/1/107 94/1/107 88/1/107
f 94/1/108 90/1/108 92/1/108
f 95/1/109 93/1/109 91/1/109
f 93/1/110 94/1/110 92/1/110
f 86/1/111 97/1/111 88/1/111 96/1/111
f 96/1/112 87/1/112 86/1/112
f 98/1/113 101/1/113 77/1/113 76/1/113
f 101/1/114 99/1/114 75/1/114 77/1/114
f 104/1/115 102/1/115 74/1/115 69/1/115
f 103/1/116 104/1/116 69/1/116 70/1/116
f 102/1/117 98/1/117 76/1/117 74/1/117
f 99/1/118 100/1/118 73/1/118 75/1/118
f 105/1/119 103/1/119 70/1/119 71/1/119
f 100/1/120 105/1/120 71/1/120 73/1/120
f 106/1/121 102/1/121 104/1/121 4/1/121
f 106/1/122 11/1/122 98/1/122 102/1/122
f 109/1/123 101/1/123 98/1/123 11/1/123
f 109/1/124 60/1/124 99/1/124 101/1/124
f 107/1/125 4/1/125 104/1/125 103/1/125
f 108/1/126 100/1/126 99/1/126 60/1/126
f 107/1/127 103/1/127 105/1/127 8/1/127
f 108/1/128 8/1/128 105/1/128 100/1/128
f 110/1/129 112/1/129 114/1/129 111/1/129
f 112/1/130 184/1/130 183/1/130 114/1/130
f 111/1/131 114/1/131 166/1/131 165/1/131
f 114/1/132 183/1/132 197/1/132 166/1/132
f 110/1/133 113/1/133 115/1/133 112/1/133
f 113/1/134 194/1/134 195/1/134 115/1/134
f 112/1/135 115/1/135 185/1/135 184/1/135
f 115/1/136 195/1/136 200/1/136 185/1/136
f 117/1/137 240/1/137 116/1/137
f 117/1/138 184/1/138 185/1/138 120/1/138
f 120/1/139 240/1/139 117/1/139
f 120/1/140 185/1/140 200/1/140 191/1/140
f 116/1/141 118/1/141 121/1/141 117/1/141
f 118/1/142 174/1/142 173/1/142 121/1/142
f 117/1/143 121/1/143 183/1/143 184/1/143
f 121/1/144 173/1/144 197/1/144 183/1/144
f 116/1/145 119/1/145 122/1/145 118/1/145
f 119/1/146 187/1/146 186/1/146 122/1/146
f 118/1/147 122/1/147 175/1/147 174/1/147
f 122/1/148 186/1/148 199/1/148 175/1/148
f 191/1/149 241/1/149 120/1/149
f 193/1/150 242/1/150 192/1/150
f 119/1/151 123/1/151 188/1/151 187/1/151
f 123/1/152 193/1/152 201/1/152 188/1/152
f 124/1/153 125/1/153 128/1/153 127/1/153
f 125/1/154 187/1/154 188/1/154 128/1/154
f 127/1/155 128/1/155 189/1/155 190/1/155
f 128/1/156 188/1/156 201/1/156 189/1/156
f 124/1/157 126/1/157 129/1/157 125/1/157
f 126/1/158 182/1/158 181/1/158 129/1/158
f 125/1/159 129/1/159 186/1/159 187/1/159
f 129/1/160 181/1/160 199/1/160 186/1/160
f 130/1/161 131/1/161 134/1/161 133/1/161
f 131/1/162 171/1/162 172/1/162 134/1/162
f 133/1/163 134/1/163 163/1/163 164/1/163
f 134/1/164 172/1/164 196/1/164 163/1/164
f 130/1/165 132/1/165 135/1/165 131/1/165
f 132/1/166 179/1/166 180/1/166 135/1/166
f 131/1/167 135/1/167 170/1/167 171/1/167
f 135/1/168 180/1/168 198/1/168 170/1/168
f 136/1/169 137/1/169 140/1/169 139/1/169
f 137/1/170 174/1/170 175/1/170 140/1/170
f 139/1/171 140/1/171 181/1/171 182/1/171
f 140/1/172 175/1/172 199/1/172 181/1/172
f 136/1/173 138/1/173 141/1/173 137/1/173
f 138/1/174 165/1/174 166/1/174 141/1/174
f 137/1/175 141/1/175 173/1/175 174/1/175
f 141/1/176 166/1/176 197/1/176 173/1/176
f 142/1/177 143/1/177 146/1/177 145/1/177
f 143/1/178 177/1/178 178/1/178 146/1/178
f 145/1/179 146/1/179 180/1/179 179/1/179
f 146/1/180 178/1/180 198/1/180 180/1/180
f 142/1/181 144/1/181 147/1/181 143/1/181
f 144/1/182 190/1/182 189/1/182 147/1/182
f 143/1/183 147/1/183 176/1/183 177/1/183
f 147/1/184 189/1/184 201/1/184 176/1/184
f 148/1/185 149/1/185 153/1/185 152/1/185
f 149/1/186 168/1/186 169/1/186 153/1/186
f 152/1/187 153/1/187 172/1/187 171/1/187
f 153/1/188 169/1/188 196/1/188 172/1/188
f 148/1/189 150/1/189 154/1/189 149/1/189
f 150/1/190 192/1/190 191/1/190 154/1/190
f 149/1/191 154/1/191 167/1/191 168/1/191
f 154/1/192 191/1/192 200/1/192 167/1/192
f 148/1/193 151/1/193 155/1/193 150/1/193
f 151/1/194 177/1/194 176/1/194 155/1/194
f 150/1/195 155/1/195 193/1/195 192/1/195
f 155/1/196 176/1/196 201/1/196 193/1/196
f 148/1/197 152/1/197 156/1/197 151/1/197
f 152/1/198 171/1/198 170/1/198 156/1/198
f 151/1/199 156/1/199 178/1/199 177/1/199
f 156/1/200 170/1/200 198/1/200 178/1/200
f 157/1/201 159/1/201 161/1/201 158/1/201
f 159/1/202 168/1/202 167/1/202 161/1/202
f 158/1/203 161/1/203 195/1/203 194/1/203
f 161/1/204 167/1/204 200/1/204 195/1/204
f 157/1/205 160/1/205 162/1/205 159/1/205
f 160/1/206 164/1/206 163/1/206 162/1/206
f 159/1/207 162/1/207 169/1/207 168/1/207
f 162/1/208 163/1/208 196/1/208 169/1/208
f 207/1/209 215/1/209 217/1/209 209/1/209
f 208/1/210 216/1/210 214/1/210 206/1/210
f 204/1/211 213/1/211 212/1/211 203/1/211
f 206/1/212 214/1/212 213/1/212 204/1/212
f 192/1/213 241/1/213 191/1/213
f 123/1/214 242/1/214 193/1/214
f 116/1/215 239/1/215 119/1/215
f 119/1/216 239/1/216 123/1/216
f 214/1/217 222/1/217 220/1/217 213/1/217
f 217/1/218 225/1/218 226/1/218 218/1/218
f 212/1/219 219/1/219 205/1/219 211/1/219
f 218/1/220 226/1/220 224/1/220 216/1/220
f 202/1/221 211/1/221 215/1/221 207/1/221
f 210/1/222 218/1/222 216/1/222 208/1/222
f 203/1/223 212/1/223 211/1/223 202/1/223
f 209/1/224 217/1/224 218/1/224 210/1/224
f 205/1/225 219/1/225 230/1/225
f 221/1/226 229/1/226 222/1/226 228/1/226
f 205/1/227 230/1/227 223/1/227
f 221/1/228 228/1/228 226/1/228 227/1/228
f 213/1/229 220/1/229 219/1/229 212/1/229
f 216/1/230 224/1/230 222/1/230 214/1/230
f 215/1/231 223/1/231 225/1/231 217/1/231
f 211/1/232 205/1/232 223/1/232 215/1/232
f 229/1/233 220/1/233 222/1/233
f 222/1/234 224/1/234 228/1/234
f 230/1/235 221/1/235 227/1/235 223/1/235
f 227/1/236 225/1/236 223/1/236
f 228/1/237 224/1/237 226/1/237
f 226/1/238 225/1/238 227/1/238
f 219/1/239 229/1/239 221/1/239 230/1/239
f 229/1/240 219/1/240 220/1/240
f 231/1/241 209/1/241 210/1/241 234/1/241
f 234/1/242 210/1/242 208/1/242 232/1/242
f 237/1/243 202/1/243 207/1/243 235/1/243
f 236/1/244 203/1/244 202/1/244 237/1/244
f 235/1/245 207/1/245 209/1/245 231/1/245
f 232/1/246 208/1/246 206/1/246 233/1/246
f 238/1/247 204/1/247 203/1/247 236/1/247
f 233/1/248 206/1/248 204/1/248 238/1/248
f 239/1/249 116/1/249 237/1/249 235/1/249
f 239/1/250 235/1/250 231/1/250 123/1/250
f 242/1/251 123/1/251 231/1/251 234/1/251
f 242/1/252 234/1/252 232/1/252 192/1/252
f 240/1/253 236/1/253 237/1/253 116/1/253
f 241/1/254 192/1/254 232/1/254 233/1/254
f 240/1/255 120/1/255 238/1/255 236/1/255
f 241/1/256 233/1/256 238/1/256 120/1/256
usemtl Eyes
f 243/2/257 323/2/257 443/2/257 354/2/257
f 243/2/258 354/2/258 456/2/258 441/2/258
f 243/2/259 441/2/259 455/2/259 323/2/259
f 244/2/260 326/2/260 444/2/260 324/2/260
f 244/2/261 324/2/261 456/2/261 438/2/261
f 244/2/262 438/2/262 458/2/262 326/2/262
f 245/2/263 328/2/263 443/2/263 323/2/263
f 245/2/264 323/2/264 455/2/264 435/2/264
f 245/2/265 435/2/265 460/2/265 328/2/265
f 246/2/266 330/2/266 443/2/266 328/2/266
f 246/2/267 328/2/267 460/2/267 432/2/267
f 246/2/268 432/2/268 462/2/268 330/2/268
f 247/2/269 357/2/269 443/2/269 330/2/269
f 247/2/270 330/2/270 462/2/270 429/2/270
f 247/2/271 429/2/271 459/2/271 357/2/271
f 248/2/272 333/2/272 444/2/272 326/2/272
f 248/2/273 326/2/273 458/2/273 426/2/273
f 248/2/274 426/2/274 465/2/274 333/2/274
f 249/2/275 335/2/275 445/2/275 325/2/275
f 249/2/276 325/2/276 457/2/276 423/2/276
f 249/2/277 423/2/277 467/2/277 335/2/277
f 250/2/278 337/2/278 446/2/278 329/2/278
f 250/2/279 329/2/279 461/2/279 420/2/279
f 250/2/280 420/2/280 469/2/280 337/2/280
f 251/2/281 339/2/281 447/2/281 331/2/281
f 251/2/282 331/2/282 463/2/282 417/2/282
f 251/2/283 417/2/283 471/2/283 339/2/283
f 252/2/284 341/2/284 448/2/284 332/2/284
f 252/2/285 332/2/285 464/2/285 414/2/285
f 252/2/286 414/2/286 473/2/286 341/2/286
f 253/2/287 366/2/287 444/2/287 333/2/287
f 253/2/288 333/2/288 465/2/288 411/2/288
f 253/2/289 411/2/289 468/2/289 366/2/289
f 254/2/290 368/2/290 445/2/290 335/2/290
f 254/2/291 335/2/291 467/2/291 408/2/291
f 254/2/292 408/2/292 470/2/292 368/2/292
f 255/2/293 370/2/293 446/2/293 337/2/293
f 255/2/294 337/2/294 469/2/294 405/2/294
f 255/2/295 405/2/295 472/2/295 370/2/295
f 256/2/296 372/2/296 447/2/296 339/2/296
f 256/2/297 339/2/297 471/2/297 402/2/297
f 256/2/298 402/2/298 474/2/298 372/2/298
f 257/2/299 364/2/299 448/2/299 341/2/299
f 257/2/300 341/2/300 473/2/300 399/2/300
f 257/2/301 399/2/301 466/2/301 364/2/301
f 258/2/302 348/2/302 449/2/302 343/2/302
f 258/2/303 343/2/303 475/2/303 396/2/303
f 258/2/304 396/2/304 480/2/304 348/2/304
f 259/2/305 350/2/305 450/2/305 344/2/305
f 259/2/306 344/2/306 476/2/306 393/2/306
f 259/2/307 393/2/307 482/2/307 350/2/307
f 260/2/308 351/2/308 451/2/308 345/2/308
f 260/2/309 345/2/309 477/2/309 390/2/309
f 260/2/310 390/2/310 483/2/310 351/2/310
f 261/2/311 352/2/311 452/2/311 346/2/311
f 261/2/312 346/2/312 478/2/312 387/2/312
f 261/2/313 387/2/313 484/2/313 352/2/313
f 262/2/314 379/2/314 453/2/314 347/2/314
f 262/2/315 347/2/315 479/2/315 384/2/315
f 262/2/316 384/2/316 481/2/316 379/2/316
f 263/2/317 349/2/317 481/2/317 383/2/317
f 263/2/318 383/2/318 484/2/318 382/2/318
f 263/2/319 382/2/319 454/2/319 349/2/319
f 264/2/320 383/2/320 481/2/320 384/2/320
f 264/2/321 384/2/321 479/2/321 385/2/321
f 264/2/322 385/2/322 484/2/322 383/2/322
f 265/2/323 385/2/323 479/2/323 377/2/323
f 265/2/324 377/2/324 452/2/324 352/2/324
f 265/2/325 352/2/325 484/2/325 385/2/325
f 266/2/326 382/2/326 484/2/326 386/2/326
f 266/2/327 386/2/327 483/2/327 381/2/327
f 266/2/328 381/2/328 454/2/328 382/2/328
f 267/2/329 386/2/329 484/2/329 387/2/329
f 267/2/330 387/2/330 478/2/330 388/2/330
f 267/2/331 388/2/331 483/2/331 386/2/331
f 268/2/332 388/2/332 478/2/332 376/2/332
f 268/2/333 376/2/333 451/2/333 351/2/333
f 268/2/334 351/2/334 483/2/334 388/2/334
f 269/2/335 381/2/335 483/2/335 389/2/335
f 269/2/336 389/2/336 482/2/336 380/2/336
f 269/2/337 380/2/337 454/2/337 381/2/337
f 270/2/338 389/2/338 483/2/338 390/2/338
f 270/2/339 390/2/339 477/2/339 391/2/339
f 270/2/340 391/2/340 482/2/340 389/2/340
f 271/2/341 391/2/341 477/2/341 375/2/341
f 271/2/342 375/2/342 450/2/342 350/2/342
f 271/2/343 350/2/343 482/2/343 391/2/343
f 272/2/344 380/2/344 482/2/344 392/2/344
f 272/2/345 392/2/345 480/2/345 378/2/345
f 272/2/346 378/2/346 454/2/346 380/2/346
f 273/2/347 392/2/347 482/2/347 393/2/347
f 273/2/348 393/2/348 476/2/348 394/2/348
f 273/2/349 394/2/349 480/2/349 392/2/349
f 274/2/350 394/2/350 476/2/350 374/2/350
f 274/2/351 374/2/351 449/2/351 348/2/351
f 274/2/352 348/2/352 480/2/352 394/2/352
f 275/2/353 378/2/353 480/2/353 395/2/353
f 275/2/354 395/2/354 481/2/354 349/2/354
f 275/2/355 349/2/355 454/2/355 378/2/355
f 276/2/356 395/2/356 480/2/356 396/2/356
f 276/2/357 396/2/357 475/2/357 397/2/357
f 276/2/358 397/2/358 481/2/358 395/2/358
f 277/2/359 397/2/359 475/2/359 373/2/359
f 277/2/360 373/2/360 453/2/360 379/2/360
f 277/2/361 379/2/361 481/2/361 397/2/361
f 278/2/362 334/2/362 466/2/362 398/2/362
f 278/2/363 398/2/363 479/2/363 347/2/363
f 278/2/364 347/2/364 453/2/364 334/2/364
f 279/2/365 398/2/365 466/2/365 399/2/365
f 279/2/366 399/2/366 473/2/366 400/2/366
f 279/2/367 400/2/367 479/2/367 398/2/367
f 280/2/368 400/2/368 473/2/368 371/2/368
f 280/2/369 371/2/369 452/2/369 377/2/369
f 280/2/370 377/2/370 479/2/370 400/2/370
f 281/2/371 342/2/371 474/2/371 401/2/371
f 281/2/372 401/2/372 478/2/372 346/2/372
f 281/2/373 346/2/373 452/2/373 342/2/373
f 282/2/374 401/2/374 474/2/374 402/2/374
f 282/2/375 402/2/375 471/2/375 403/2/375
f 282/2/376 403/2/376 478/2/376 401/2/376
f 283/2/377 403/2/377 471/2/377 369/2/377
f 283/2/378 369/2/378 451/2/378 376/2/378
f 283/2/379 376/2/379 478/2/379 403/2/379
f 284/2/380 340/2/380 472/2/380 404/2/380
f 284/2/381 404/2/381 477/2/381 345/2/381
f 284/2/382 345/2/382 451/2/382 340/2/382
f 285/2/383 404/2/383 472/2/383 405/2/383
f 285/2/384 405/2/384 469/2/384 406/2/384
f 285/2/385 406/2/385 477/2/385 404/2/385
f 286/2/386 406/2/386 469/2/386 367/2/386
f 286/2/387 367/2/387 450/2/387 375/2/387
f 286/2/388 375/2/388 477/2/388 406/2/388
f 287/2/389 338/2/389 470/2/389 407/2/389
f 287/2/390 407/2/390 476/2/390 344/2/390
f 287/2/391 344/2/391 450/2/391 338/2/391
f 288/2/392 407/2/392 470/2/392 408/2/392
f 288/2/393 408/2/393 467/2/393 409/2/393
f 288/2/394 409/2/394 476/2/394 407/2/394
f 289/2/395 409/2/395 467/2/395 365/2/395
f 289/2/396 365/2/396 449/2/396 374/2/396
f 289/2/397 374/2/397 476/2/397 409/2/397
f 290/2/398 336/2/398 468/2/398 410/2/398
f 290/2/399 410/2/399 475/2/399 343/2/399
f 290/2/400 343/2/400 449/2/400 336/2/400
f 291/2/401 410/2/401 468/2/401 411/2/401
f 291/2/402 411/2/402 465/2/402 412/2/402
f 291/2/403 412/2/403 475/2/403 410/2/403
f 292/2/404 412/2/404 465/2/404 363/2/404
f 292/2/405 363/2/405 453/2/405 373/2/405
f 292/2/406 373/2/406 475/2/406 412/2/406
f 293/2/407 371/2/407 473/2/407 413/2/407
f 293/2/408 413/2/408 474/2/408 342/2/408
f 293/2/409 342/2/409 452/2/409 371/2/409
f 294/2/410 413/2/410 473/2/410 414/2/410
f 294/2/411 414/2/411 464/2/411 415/2/411
f 294/2/412 415/2/412 474/2/412 413/2/412
f 295/2/413 415/2/413 464/2/413 362/2/413
f 295/2/414 362/2/414 447/2/414 372/2/414
f 295/2/415 372/2/415 474/2/415 415/2/415
f 296/2/416 369/2/416 471/2/416 416/2/416
f 296/2/417 416/2/417 472/2/417 340/2/417
f 296/2/418 340/2/418 451/2/418 369/2/418
f 297/2/419 416/2/419 471/2/419 417/2/419
f 297/2/420 417/2/420 463/2/420 418/2/420
f 297/2/421 418/2/421 472/2/421 416/2/421
f 298/2/422 418/2/422 463/2/422 361/2/422
f 298/2/423 361/2/423 446/2/423 370/2/423
f 298/2/424 370/2/424 472/2/424 418/2/424
f 299/2/425 367/2/425 469/2/425 419/2/425
f 299/2/426 419/2/426 470/2/426 338/2/426
f 299/2/427 338/2/427 450/2/427 367/2/427
f 300/2/428 419/2/428 469/2/428 420/2/428
f 300/2/429 420/2/429 461/2/429 421/2/429
f 300/2/430 421/2/430 470/2/430 419/2/430
f 301/2/431 421/2/431 461/2/431 359/2/431
f 301/2/432 359/2/432 445/2/432 368/2/432
f 301/2/433 368/2/433 470/2/433 421/2/433
f 302/2/434 365/2/434 467/2/434 422/2/434
f 302/2/435 422/2/435 468/2/435 336/2/435
f 302/2/436 336/2/436 449/2/436 365/2/436
f 303/2/437 422/2/437 467/2/437 423/2/437
f 303/2/438 423/2/438 457/2/438 424/2/438
f 303/2/439 424/2/439 468/2/439 422/2/439
f 304/2/440 424/2/440 457/2/440 355/2/440
f 304/2/441 355/2/441 444/2/441 366/2/441
f 304/2/442 366/2/442 468/2/442 424/2/442
f 305/2/443 363/2/443 465/2/443 425/2/443
f 305/2/444 425/2/444 466/2/444 334/2/444
f 305/2/445 334/2/445 453/2/445 363/2/445
f 306/2/446 425/2/446 465/2/446 426/2/446
f 306/2/447 426/2/447 458/2/447 427/2/447
f 306/2/448 427/2/448 466/2/448 425/2/448
f 307/2/449 427/2/449 458/2/449 356/2/449
f 307/2/450 356/2/450 448/2/450 364/2/450
f 307/2/451 364/2/451 466/2/451 427/2/451
f 308/2/452 327/2/452 459/2/452 428/2/452
f 308/2/453 428/2/453 464/2/453 332/2/453
f 308/2/454 332/2/454 448/2/454 327/2/454
f 309/2/455 428/2/455 459/2/455 429/2/455
f 309/2/456 429/2/456 462/2/456 430/2/456
f 309/2/457 430/2/457 464/2/457 428/2/457
f 310/2/458 430/2/458 462/2/458 360/2/458
f 310/2/459 360/2/459 447/2/459 362/2/459
f 310/2/460 362/2/460 464/2/460 430/2/460
f 311/2/461 360/2/461 462/2/461 431/2/461
f 311/2/462 431/2/462 463/2/462 331/2/462
f 311/2/463 331/2/463 447/2/463 360/2/463
f 312/2/464 431/2/464 462/2/464 432/2/464
f 312/2/465 432/2/465 460/2/465 433/2/465
f 312/2/466 433/2/466 463/2/466 431/2/466
f 313/2/467 433/2/467 460/2/467 358/2/467
f 313/2/468 358/2/468 446/2/468 361/2/468
f 313/2/469 361/2/469 463/2/469 433/2/469
f 314/2/470 358/2/470 460/2/470 434/2/470
f 314/2/471 434/2/471 461/2/471 329/2/471
f 314/2/472 329/2/472 446/2/472 358/2/472
f 315/2/473 434/2/473 460/2/473 435/2/473
f 315/2/474 435/2/474 455/2/474 436/2/474
f 315/2/475 436/2/475 461/2/475 434/2/475
f 316/2/476 436/2/476 455/2/476 353/2/476
f 316/2/477 353/2/477 445/2/477 359/2/477
f 316/2/478 359/2/478 461/2/478 436/2/478
f 317/2/479 356/2/479 458/2/479 437/2/479
f 317/2/480 437/2/480 459/2/480 327/2/480
f 317/2/481 327/2/481 448/2/481 356/2/481
f 318/2/482 437/2/482 458/2/482 438/2/482
f 318/2/483 438/2/483 456/2/483 439/2/483
f 318/2/484 439/2/484 459/2/484 437/2/484
f 319/2/485 439/2/485 456/2/485 354/2/485
f 319/2/486 354/2/486 443/2/486 357/2/486
f 319/2/487 357/2/487 459/2/487 439/2/487
f 320/2/488 353/2/488 455/2/488 440/2/488
f 320/2/489 440/2/489 457/2/489 325/2/489
f 320/2/490 325/2/490 445/2/490 353/2/490
f 321/2/491 440/2/491 455/2/491 441/2/491
f 321/2/492 441/2/492 456/2/492 442/2/492
f 321/2/493 442/2/493 457/2/493 440/2/493
f 322/2/494 442/2/494 456/2/494 324/2/494
f 322/2/495 324/2/495 444/2/495 355/2/495
f 322/2/496 355/2/496 457/2/496 442/2/496
f 485/2/269 596/2/269 685/2/269 565/2/269
f 485/2/270 565/2/270 697/2/270 683/2/270
f 485/2/271 683/2/271 698/2/271 596/2/271
f 486/2/481 566/2/481 686/2/481 568/2/481
f 486/2/479 568/2/479 700/2/479 680/2/479
f 486/2/480 680/2/480 698/2/480 566/2/480
f 487/2/266 565/2/266 685/2/266 570/2/266
f 487/2/267 570/2/267 702/2/267 677/2/267
f 487/2/268 677/2/268 697/2/268 565/2/268
f 488/2/263 570/2/263 685/2/263 572/2/263
f 488/2/264 572/2/264 704/2/264 674/2/264
f 488/2/265 674/2/265 702/2/265 570/2/265
f 489/2/257 572/2/257 685/2/257 599/2/257
f 489/2/258 599/2/258 701/2/258 671/2/258
f 489/2/259 671/2/259 704/2/259 572/2/259
f 490/2/450 568/2/450 686/2/450 575/2/450
f 490/2/451 575/2/451 707/2/451 668/2/451
f 490/2/449 668/2/449 700/2/449 568/2/449
f 491/2/414 567/2/414 687/2/414 577/2/414
f 491/2/415 577/2/415 709/2/415 665/2/415
f 491/2/413 665/2/413 699/2/413 567/2/413
f 492/2/423 571/2/423 688/2/423 579/2/423
f 492/2/424 579/2/424 711/2/424 662/2/424
f 492/2/422 662/2/422 703/2/422 571/2/422
f 493/2/432 573/2/432 689/2/432 581/2/432
f 493/2/433 581/2/433 713/2/433 659/2/433
f 493/2/431 659/2/431 705/2/431 573/2/431
f 494/2/441 574/2/441 690/2/441 583/2/441
f 494/2/442 583/2/442 715/2/442 656/2/442
f 494/2/440 656/2/440 706/2/440 574/2/440
f 495/2/299 575/2/299 686/2/299 608/2/299
f 495/2/300 608/2/300 710/2/300 653/2/300
f 495/2/301 653/2/301 707/2/301 575/2/301
f 496/2/296 577/2/296 687/2/296 610/2/296
f 496/2/297 610/2/297 712/2/297 650/2/297
f 496/2/298 650/2/298 709/2/298 577/2/298
f 497/2/293 579/2/293 688/2/293 612/2/293
f 497/2/294 612/2/294 714/2/294 647/2/294
f 497/2/295 647/2/295 711/2/295 579/2/295
f 498/2/290 581/2/290 689/2/290 614/2/290
f 498/2/291 614/2/291 716/2/291 644/2/291
f 498/2/292 644/2/292 713/2/292 581/2/292
f 499/2/287 583/2/287 690/2/287 606/2/287
f 499/2/288 606/2/288 708/2/288 641/2/288
f 499/2/289 641/2/289 715/2/289 583/2/289
f 500/2/324 585/2/324 691/2/324 590/2/324
f 500/2/325 590/2/325 722/2/325 638/2/325
f 500/2/323 638/2/323 717/2/323 585/2/323
f 501/2/333 586/2/333 692/2/333 592/2/333
f 501/2/334 592/2/334 724/2/334 635/2/334
f 501/2/332 635/2/332 718/2/332 586/2/332
f 502/2/342 587/2/342 693/2/342 593/2/342
f 502/2/343 593/2/343 725/2/343 632/2/343
f 502/2/341 632/2/341 719/2/341 587/2/341
f 503/2/351 588/2/351 694/2/351 594/2/351
f 503/2/352 594/2/352 726/2/352 629/2/352
f 503/2/350 629/2/350 720/2/350 588/2/350
f 504/2/360 589/2/360 695/2/360 621/2/360
f 504/2/361 621/2/361 723/2/361 626/2/361
f 504/2/497 626/2/497 721/2/497 589/2/497
f 505/2/354 625/2/354 723/2/354 591/2/354
f 505/2/355 591/2/355 696/2/355 624/2/355
f 505/2/353 624/2/353 726/2/353 625/2/353
f 506/2/358 626/2/358 723/2/358 625/2/358
f 506/2/356 625/2/356 726/2/356 627/2/356
f 506/2/357 627/2/357 721/2/357 626/2/357
f 507/2/303 619/2/303 721/2/303 627/2/303
f 507/2/304 627/2/304 726/2/304 594/2/304
f 507/2/302 594/2/302 694/2/302 619/2/302
f 508/2/345 628/2/345 726/2/345 624/2/345
f 508/2/346 624/2/346 696/2/346 623/2/346
f 508/2/344 623/2/344 725/2/344 628/2/344
f 509/2/349 629/2/349 726/2/349 628/2/349
f 509/2/347 628/2/347 725/2/347 630/2/347
f 509/2/348 630/2/348 720/2/348 629/2/348
f 510/2/306 618/2/306 720/2/306 630/2/306
f 510/2/307 630/2/307 725/2/307 593/2/307
f 510/2/305 593/2/305 693/2/305 618/2/305
f 511/2/336 631/2/336 725/2/336 623/2/336
f 511/2/337 623/2/337 696/2/337 622/2/337
f 511/2/335 622/2/335 724/2/335 631/2/335
f 512/2/340 632/2/340 725/2/340 631/2/340
f 512/2/338 631/2/338 724/2/338 633/2/338
f 512/2/339 633/2/339 719/2/339 632/2/339
f 513/2/309 617/2/309 719/2/309 633/2/309
f 513/2/310 633/2/310 724/2/310 592/2/310
f 513/2/308 592/2/308 692/2/308 617/2/308
f 514/2/327 634/2/327 724/2/327 622/2/327
f 514/2/328 622/2/328 696/2/328 620/2/328
f 514/2/326 620/2/326 722/2/326 634/2/326
f 515/2/331 635/2/331 724/2/331 634/2/331
f 515/2/329 634/2/329 722/2/329 636/2/329
f 515/2/330 636/2/330 718/2/330 635/2/330
f 516/2/312 616/2/312 718/2/312 636/2/312
f 516/2/313 636/2/313 722/2/313 590/2/313
f 516/2/311 590/2/311 691/2/311 616/2/311
f 517/2/318 637/2/318 722/2/318 620/2/318
f 517/2/319 620/2/319 696/2/319 591/2/319
f 517/2/317 591/2/317 723/2/317 637/2/317
f 518/2/322 638/2/322 722/2/322 637/2/322
f 518/2/320 637/2/320 723/2/320 639/2/320
f 518/2/321 639/2/321 717/2/321 638/2/321
f 519/2/498 615/2/498 717/2/498 639/2/498
f 519/2/316 639/2/316 723/2/316 621/2/316
f 519/2/314 621/2/314 695/2/314 615/2/314
f 520/2/404 640/2/404 708/2/404 576/2/404
f 520/2/405 576/2/405 695/2/405 589/2/405
f 520/2/406 589/2/406 721/2/406 640/2/406
f 521/2/402 641/2/402 708/2/402 640/2/402
f 521/2/403 640/2/403 721/2/403 642/2/403
f 521/2/401 642/2/401 715/2/401 641/2/401
f 522/2/499 613/2/499 715/2/499 642/2/499
f 522/2/399 642/2/399 721/2/399 619/2/399
f 522/2/400 619/2/400 694/2/400 613/2/400
f 523/2/395 643/2/395 716/2/395 584/2/395
f 523/2/396 584/2/396 694/2/396 588/2/396
f 523/2/397 588/2/397 720/2/397 643/2/397
f 524/2/393 644/2/393 716/2/393 643/2/393
f 524/2/394 643/2/394 720/2/394 645/2/394
f 524/2/392 645/2/392 713/2/392 644/2/392
f 525/2/389 611/2/389 713/2/389 645/2/389
f 525/2/390 645/2/390 720/2/390 618/2/390
f 525/2/391 618/2/391 693/2/391 611/2/391
f 526/2/386 646/2/386 714/2/386 582/2/386
f 526/2/387 582/2/387 693/2/387 587/2/387
f 526/2/388 587/2/388 719/2/388 646/2/388
f 527/2/384 647/2/384 714/2/384 646/2/384
f 527/2/385 646/2/385 719/2/385 648/2/385
f 527/2/383 648/2/383 711/2/383 647/2/383
f 528/2/380 609/2/380 711/2/380 648/2/380
f 528/2/381 648/2/381 719/2/381 617/2/381
f 528/2/382 617/2/382 692/2/382 609/2/382
f 529/2/377 649/2/377 712/2/377 580/2/377
f 529/2/378 580/2/378 692/2/378 586/2/378
f 529/2/379 586/2/379 718/2/379 649/2/379
f 530/2/375 650/2/375 712/2/375 649/2/375
f 530/2/376 649/2/376 718/2/376 651/2/376
f 530/2/374 651/2/374 709/2/374 650/2/374
f 531/2/371 607/2/371 709/2/371 651/2/371
f 531/2/372 651/2/372 718/2/372 616/2/372
f 531/2/373 616/2/373 691/2/373 607/2/373
f 532/2/500 652/2/500 710/2/500 578/2/500
f 532/2/369 578/2/369 691/2/369 585/2/369
f 532/2/370 585/2/370 717/2/370 652/2/370
f 533/2/366 653/2/366 710/2/366 652/2/366
f 533/2/367 652/2/367 717/2/367 654/2/367
f 533/2/365 654/2/365 707/2/365 653/2/365
f 534/2/362 605/2/362 707/2/362 654/2/362
f 534/2/363 654/2/363 717/2/363 615/2/363
f 534/2/364 615/2/364 695/2/364 605/2/364
f 535/2/435 655/2/435 715/2/435 613/2/435
f 535/2/436 613/2/436 694/2/436 584/2/436
f 535/2/434 584/2/434 716/2/434 655/2/434
f 536/2/439 656/2/439 715/2/439 655/2/439
f 536/2/437 655/2/437 716/2/437 657/2/437
f 536/2/438 657/2/438 706/2/438 656/2/438
f 537/2/276 604/2/276 706/2/276 657/2/276
f 537/2/277 657/2/277 716/2/277 614/2/277
f 537/2/275 614/2/275 689/2/275 604/2/275
f 538/2/426 658/2/426 713/2/426 611/2/426
f 538/2/427 611/2/427 693/2/427 582/2/427
f 538/2/425 582/2/425 714/2/425 658/2/425
f 539/2/430 659/2/430 713/2/430 658/2/430
f 539/2/428 658/2/428 714/2/428 660/2/428
f 539/2/429 660/2/429 705/2/429 659/2/429
f 540/2/279 603/2/279 705/2/279 660/2/279
f 540/2/280 660/2/280 714/2/280 612/2/280
f 540/2/278 612/2/278 688/2/278 603/2/278
f 541/2/417 661/2/417 711/2/417 609/2/417
f 541/2/418 609/2/418 692/2/418 580/2/418
f 541/2/416 580/2/416 712/2/416 661/2/416
f 542/2/421 662/2/421 711/2/421 661/2/421
f 542/2/419 661/2/419 712/2/419 663/2/419
f 542/2/420 663/2/420 703/2/420 662/2/420
f 543/2/282 601/2/282 703/2/282 663/2/282
f 543/2/283 663/2/283 712/2/283 610/2/283
f 543/2/281 610/2/281 687/2/281 601/2/281
f 544/2/408 664/2/408 709/2/408 607/2/408
f 544/2/409 607/2/409 691/2/409 578/2/409
f 544/2/407 578/2/407 710/2/407 664/2/407
f 545/2/412 665/2/412 709/2/412 664/2/412
f 545/2/410 664/2/410 710/2/410 666/2/410
f 545/2/411 666/2/411 699/2/411 665/2/411
f 546/2/285 597/2/285 699/2/285 666/2/285
f 546/2/286 666/2/286 710/2/286 608/2/286
f 546/2/284 608/2/284 686/2/284 597/2/284
f 547/2/444 667/2/444 707/2/444 605/2/444
f 547/2/445 605/2/445 695/2/445 576/2/445
f 547/2/443 576/2/443 708/2/443 667/2/443
f 548/2/448 668/2/448 707/2/448 667/2/448
f 548/2/446 667/2/446 708/2/446 669/2/446
f 548/2/447 669/2/447 700/2/447 668/2/447
f 549/2/273 598/2/273 700/2/273 669/2/273
f 549/2/274 669/2/274 708/2/274 606/2/274
f 549/2/272 606/2/272 690/2/272 598/2/272
f 550/2/494 670/2/494 701/2/494 569/2/494
f 550/2/495 569/2/495 690/2/495 574/2/495
f 550/2/496 574/2/496 706/2/496 670/2/496
f 551/2/492 671/2/492 701/2/492 670/2/492
f 551/2/493 670/2/493 706/2/493 672/2/493
f 551/2/491 672/2/491 704/2/491 671/2/491
f 552/2/488 602/2/488 704/2/488 672/2/488
f 552/2/489 672/2/489 706/2/489 604/2/489
f 552/2/490 604/2/490 689/2/490 602/2/490
f 553/2/476 673/2/476 704/2/476 602/2/476
f 553/2/477 602/2/477 689/2/477 573/2/477
f 553/2/478 573/2/478 705/2/478 673/2/478
f 554/2/474 674/2/474 704/2/474 673/2/474
f 554/2/475 673/2/475 705/2/475 675/2/475
f 554/2/473 675/2/473 702/2/473 674/2/473
f 555/2/470 600/2/470 702/2/470 675/2/470
f 555/2/501 675/2/501 705/2/501 603/2/501
f 555/2/472 603/2/472 688/2/472 600/2/472
f 556/2/467 676/2/467 702/2/467 600/2/467
f 556/2/468 600/2/468 688/2/468 571/2/468
f 556/2/502 571/2/502 703/2/502 676/2/502
f 557/2/465 677/2/465 702/2/465 676/2/465
f 557/2/466 676/2/466 703/2/466 678/2/466
f 557/2/464 678/2/464 697/2/464 677/2/464
f 558/2/461 595/2/461 697/2/461 678/2/461
f 558/2/462 678/2/462 703/2/462 601/2/462
f 558/2/463 601/2/463 687/2/463 595/2/463
f 559/2/262 679/2/262 700/2/262 598/2/262
f 559/2/260 598/2/260 690/2/260 569/2/260
f 559/2/261 569/2/261 701/2/261 679/2/261
f 560/2/482 680/2/482 700/2/482 679/2/482
f 560/2/483 679/2/483 701/2/483 681/2/483
f 560/2/484 681/2/484 698/2/484 680/2/484
f 561/2/487 596/2/487 698/2/487 681/2/487
f 561/2/485 681/2/485 701/2/485 599/2/485
f 561/2/486 599/2/486 685/2/486 596/2/486
f 562/2/458 682/2/458 697/2/458 595/2/458
f 562/2/459 595/2/459 687/2/459 567/2/459
f 562/2/460 567/2/460 699/2/460 682/2/460
f 563/2/456 683/2/456 697/2/456 682/2/456
f 563/2/457 682/2/457 699/2/457 684/2/457
f 563/2/455 684/2/455 698/2/455 683/2/455
f 564/2/452 566/2/452 698/2/452 684/2/452
f 564/2/453 684/2/453 699/2/453 597/2/453
f 564/2/454 597/2/454 686/2/454 566/2/454
