# Blender 4.4.1
# www.blender.org
mtllib hitougoku.mtl
o Cube
v 0.341018 3.514890 -0.504100
v 0.341018 2.549992 -0.432711
v 0.341018 3.514890 0.495900
v 0.341018 2.517225 0.501339
v -0.658982 3.514890 -0.504100
v -0.658982 2.549953 -0.432782
v -0.658982 3.514890 0.495900
v -0.658982 2.515652 0.501349
v -0.731914 2.478300 -0.224028
v -0.768550 2.421244 0.052879
v -0.731914 2.443334 0.316863
v 0.137668 2.479949 -0.500356
v -0.158982 2.441772 -0.539932
v -0.455632 2.479921 -0.500408
v 0.413951 3.311540 -0.577033
v 0.450586 3.018267 -0.603553
v 0.413951 2.737834 -0.534676
v -0.731914 2.718240 0.568833
v -0.768550 3.014890 0.605468
v -0.731914 3.311540 0.568833
v 0.413951 3.311540 0.568833
v 0.450586 3.014890 0.605468
v 0.413951 2.718240 0.568833
v -0.731914 3.311540 -0.577033
v -0.768550 3.018237 -0.603621
v -0.731914 2.737785 -0.534767
v 0.137668 3.587823 0.568833
v -0.158982 3.624458 0.605468
v -0.455632 3.587823 0.568833
v 0.413951 3.587823 -0.300750
v 0.450586 3.624458 -0.004100
v 0.413951 3.587823 0.292550
v -0.455632 2.443199 0.571764
v -0.158982 2.405568 0.606149
v 0.137668 2.443242 0.571770
v -0.731914 3.587823 0.292550
v -0.768550 3.624458 -0.004100
v -0.731914 3.587823 -0.300750
v -0.455632 3.587823 -0.577033
v -0.158982 3.624458 -0.613668
v 0.137668 3.587823 -0.577033
v 0.413951 2.453530 0.316661
v 0.450586 2.433399 0.052810
v 0.413951 2.479949 -0.224073
v 0.157176 3.743880 -0.320257
v -0.158982 3.796719 -0.337241
v -0.475139 3.743880 -0.320257
v 0.174159 3.796719 -0.004100
v -0.158982 3.854396 -0.004100
v -0.492122 3.796719 -0.004100
v 0.157175 3.743880 0.312057
v -0.158982 3.796719 0.329040
v -0.475139 3.743880 0.312057
v 0.157176 2.698733 0.724890
v 0.174159 3.014890 0.777729
v 0.157175 3.331047 0.724890
v -0.158982 2.681750 0.777729
v -0.158982 3.014890 0.835406
v -0.158982 3.348030 0.777729
v -0.475139 2.698733 0.724890
v -0.492122 3.014890 0.777729
v -0.475139 3.331047 0.724890
v -0.887972 2.701209 0.318730
v -0.940810 3.014890 0.329040
v -0.887972 3.331047 0.312057
v -0.940810 2.692760 0.020951
v -0.998488 3.015213 -0.002146
v -0.940810 3.348030 -0.004100
v -0.887972 2.716913 -0.280871
v -0.940810 3.017273 -0.329559
v -0.887972 3.331047 -0.320257
v -0.475139 2.333574 -0.223105
v -0.158982 2.281607 -0.240095
v 0.157176 2.334446 -0.223111
v -0.492122 2.259241 0.068284
v -0.158982 2.211034 0.066922
v 0.174159 2.269812 0.069169
v -0.475139 2.291904 0.341614
v -0.158982 2.245672 0.354151
v 0.157176 2.300763 0.341678
v 0.570008 2.716958 -0.280788
v 0.622847 3.017298 -0.329499
v 0.570008 3.331047 -0.320257
v 0.622847 2.692971 0.020998
v 0.680525 3.015222 -0.002116
v 0.622847 3.348030 -0.004100
v 0.570008 2.701299 0.318758
v 0.622847 3.014890 0.329040
v 0.570008 3.331047 0.312057
v -0.475139 2.716913 -0.693703
v -0.492122 3.017273 -0.778247
v -0.475139 3.331047 -0.733090
v -0.158982 2.696462 -0.753277
v -0.158982 3.015542 -0.840433
v -0.158982 3.348030 -0.785929
v 0.157176 2.716958 -0.693621
v 0.174159 3.017298 -0.778187
v 0.157176 3.331047 -0.733090
v -0.154440 0.175807 -0.368374
v -0.593745 1.972027 -0.120362
v -0.154440 1.968174 -0.137344
v 0.284865 1.952932 -0.148102
v -0.154440 0.175807 0.306377
v 0.284924 1.642372 0.302140
v -0.164727 1.645399 0.302357
v -0.593844 1.621804 0.283138
v -0.957246 0.615736 0.241120
v -1.021125 0.990241 0.173433
v -1.020708 1.010365 -0.177654
v -0.958499 0.626870 -0.295287
v 0.712299 0.988047 -0.235373
v 0.648338 0.615112 -0.303396
v 0.712494 0.989192 0.173377
v 0.648338 0.615112 0.241400
v 0.284947 1.491932 0.306377
v 0.282469 0.982452 0.173377
v 0.259430 0.615112 0.241400
v -0.154440 1.494223 0.306069
v -0.154440 0.974162 0.173377
v -0.154440 0.615112 0.241400
v -0.593882 1.476203 0.289140
v -0.591416 0.989599 0.171956
v -0.568310 0.615112 0.241400
v -0.593920 1.523147 -0.179260
v -0.591528 1.005528 -0.203300
v -0.568845 0.615902 -0.302952
v -0.154440 1.506150 -0.234601
v -0.154440 0.974162 -0.235373
v -0.154440 0.615112 -0.303396
v 0.284984 1.497772 -0.245359
v 0.282361 0.979506 -0.235373
v 0.259932 0.615112 -0.303396
v -0.850352 -3.830880 -0.256856
v -0.217172 -3.830881 -0.258061
v -0.216009 -3.832103 0.329717
v -0.850352 -3.832385 0.316709
v -0.091708 -3.826731 -0.258123
v 0.541472 -3.826731 -0.258123
v 0.541472 -3.827160 0.330386
v -0.092871 -3.827336 0.330385
v -0.850352 -3.599096 0.799446
v -0.850352 -3.854367 0.781470
v -0.216009 -3.854397 0.809259
v -0.216009 -3.599003 0.834354
v -0.092871 -3.578866 0.840217
v -0.092871 -3.846387 0.811315
v 0.541472 -3.846387 0.811315
v 0.541472 -3.578864 0.840433
v -5.382759 1.691957 0.139247
v -5.381194 2.042956 0.139246
v -5.381194 2.042956 -0.154274
v -5.382823 1.677771 -0.154274
v 5.382822 1.845563 -0.227030
v 5.360530 2.037691 -0.154274
v 5.360530 2.037691 0.139247
v 5.361611 1.686691 0.139247
v 0.058361 2.294946 -0.176770
v 0.079783 2.279795 0.130286
v -0.145246 2.305114 -0.174508
v -0.149171 2.287194 0.130405
v -0.354846 2.294528 -0.177958
v -0.370712 2.274966 0.129352
v -0.220702 0.175807 -0.199686
v -0.220702 0.175807 0.137690
v -0.154440 0.175807 -0.199686
v -0.154440 0.175807 0.137690
v -0.088178 0.175807 -0.199686
v -0.088178 0.175807 0.137690
v 0.647651 0.615112 -0.167197
v 0.647651 0.615112 0.105201
v 0.712583 0.988042 -0.133186
v 0.712732 0.989212 0.071189
v 0.725074 1.720073 -0.203740
v 0.724505 1.672975 0.086292
v -0.956950 0.619376 0.105397
v -0.957647 0.626102 -0.160925
v -1.021272 0.995058 0.084177
v -1.021059 1.005868 -0.089471
v -1.033627 1.653686 0.097665
v -1.033958 1.514807 -0.110043
v -0.216009 -3.840743 0.220877
v -0.216009 -3.830959 -0.080761
v -0.850352 -3.831324 -0.080570
v -0.850352 -3.839627 0.212189
v 0.541472 -3.836621 0.221243
v 0.541472 -3.826792 -0.080820
v -0.092871 -3.809572 -0.080923
v -0.092871 -3.836621 0.221244
v -5.380792 2.133020 -0.096507
v -5.380792 2.133020 0.085866
v -5.382823 1.677771 0.085866
v -5.382823 1.677771 -0.096507
v 5.360252 2.127756 0.085866
v 5.360252 2.127756 -0.096507
v 5.361993 1.729975 -0.210116
v 5.361611 1.686691 0.085866
v -0.902314 0.138227 0.306806
v -0.907963 0.213060 0.300852
v -0.904420 0.175711 0.304884
v -0.996545 1.976767 0.151900
v -1.070313 2.009997 0.139819
v -1.033184 1.999854 0.143443
v -0.902315 0.138231 -0.366649
v -0.907953 0.213053 -0.362339
v -0.904417 0.175710 -0.366101
v -0.995057 2.042881 -0.098368
v -1.070162 2.049852 -0.096800
v -1.032646 2.047736 -0.097050
v 0.593428 0.138228 0.306809
v 0.599089 0.213073 0.300866
v 0.595540 0.175715 0.304889
v 0.687764 1.997433 0.162774
v 0.761529 2.029607 0.149982
v 0.724370 2.020151 0.153820
v 0.593428 0.138231 -0.366639
v 0.599089 0.213073 -0.362862
v 0.595540 0.175716 -0.366251
v 0.686706 2.029965 -0.130080
v 0.761548 2.037109 -0.128928
v 0.724057 2.035052 -0.129048
v -0.057860 0.213070 -0.362862
v -0.087404 0.138232 -0.366639
v -0.087506 0.175807 -0.330778
v -0.124909 0.175807 -0.368374
v -0.078713 0.175716 -0.366251
v -0.221476 0.138232 -0.366649
v -0.251013 0.213124 -0.362827
v -0.183971 0.175807 -0.368374
v -0.221374 0.175807 -0.330778
v -0.230165 0.175731 -0.366244
v -0.250179 0.213060 0.300867
v -0.220606 0.138227 0.306806
v -0.220702 0.175807 0.268782
v -0.183107 0.175807 0.306378
v -0.229308 0.175711 0.304889
v -0.088275 0.138227 0.306809
v -0.058693 0.213070 0.300866
v -0.125773 0.175807 0.306378
v -0.088178 0.175807 0.268782
v -0.079570 0.175714 0.304890
v -0.997240 1.644830 0.151380
v -1.071398 1.660663 0.138708
v -1.033629 1.654333 0.101833
v -1.032889 1.622511 0.140917
v -1.034019 1.655770 0.142535
v -1.071824 1.517524 -0.193279
v -0.996005 1.515883 -0.191501
v -1.032939 1.477676 -0.191538
v -1.033991 1.515068 -0.155060
v -1.033948 1.516104 -0.192500
v 0.714107 1.813172 -0.217017
v 0.786366 1.838659 -0.214980
v 0.741371 1.801927 -0.211326
v 0.747110 1.801088 -0.215642
v 0.749595 1.831196 -0.215473
v 0.762316 1.672699 0.139308
v 0.688387 1.657707 0.153022
v 0.723830 1.635017 0.141181
v 0.724520 1.672865 0.101714
v 0.725008 1.668250 0.143325
v -4.502789 1.708206 0.177342
v -4.427638 1.708413 0.177814
v -4.465218 1.708555 0.178154
v -4.426098 2.051560 0.161302
v -4.501288 2.051294 0.161059
v -4.463694 2.051520 0.161516
v -4.501287 2.054819 -0.114618
v -4.426084 2.055237 -0.113064
v -4.463682 2.055152 -0.113461
v -4.427900 1.648768 -0.234877
v -4.503017 1.650613 -0.231875
v -4.465471 1.649593 -0.234125
v 4.505411 1.842861 -0.227030
v 4.429904 1.842628 -0.227030
v 4.467658 1.842745 -0.227030
v 4.405016 2.034749 -0.154274
v 4.480482 2.034981 -0.154274
v 4.442748 2.034865 -0.154274
v 4.480449 2.034981 0.139247
v 4.405049 2.034749 0.139247
v 4.442748 2.034865 0.139247
v 4.406124 1.683748 0.139247
v 4.481536 1.683981 0.139247
v 4.443829 1.683864 0.139247
v -0.850352 -3.110622 -0.292105
v -0.850352 -3.037487 -0.293594
v -0.850352 -3.074481 -0.293261
v -0.217168 -3.037485 -0.283678
v -0.217168 -3.110629 -0.282456
v -0.217168 -3.074057 -0.283067
v -0.216009 -3.115534 0.365547
v -0.216009 -3.042444 0.331031
v -0.216009 -3.079426 0.341183
v -0.850352 -3.042261 0.298297
v -0.850352 -3.115386 0.331861
v -0.850352 -3.079250 0.307802
v -0.091708 -3.088692 -0.282756
v -0.091708 -3.015559 -0.283954
v -0.091708 -3.052125 -0.283355
v 0.541472 -3.015559 -0.283951
v 0.541472 -3.088691 -0.282754
v 0.541472 -3.052125 -0.283353
v 0.541472 -3.093094 0.368473
v 0.541472 -3.020050 0.333858
v 0.541472 -3.057019 0.344071
v -0.092871 -3.020045 0.333656
v -0.092871 -3.093089 0.368265
v -0.092871 -3.057014 0.343866
v -0.902314 0.138230 -0.198092
v -0.907892 0.213068 -0.196479
v -0.904399 0.175714 -0.198280
v -0.907902 0.213070 0.134977
v -0.902314 0.138229 0.138536
v -0.904402 0.175715 0.137143
v -0.996755 2.113919 0.100060
v -1.069933 2.105621 0.098051
v -1.033019 2.107683 0.098771
v -1.069858 2.128269 -0.053334
v -0.996365 2.136713 -0.059559
v -1.032906 2.130546 -0.054947
v 0.593428 0.138229 0.138541
v 0.599032 0.213084 0.134933
v 0.595523 0.175719 0.137132
v 0.599032 0.213084 -0.196929
v 0.593428 0.138230 -0.198083
v 0.595523 0.175719 -0.198409
v 0.687879 2.137114 -0.074166
v 0.761287 2.128032 -0.068849
v 0.724286 2.130715 -0.070170
v 0.761280 2.122743 0.103060
v 0.687889 2.131463 0.104922
v 0.724258 2.125283 0.103752
v -4.500903 2.141152 -0.067780
v -4.425698 2.141462 -0.066758
v -4.463298 2.141387 -0.066973
v -4.425705 2.139530 0.105260
v -4.500906 2.139311 0.104925
v -4.463305 2.139487 0.105360
v -4.502839 1.695672 0.129710
v -4.427692 1.695902 0.130506
v -4.465271 1.696056 0.130719
v -4.427992 1.628094 -0.130870
v -4.503096 1.630519 -0.129320
v -4.465560 1.628974 -0.130354
v 4.480174 2.125046 0.085866
v 4.404769 2.124813 0.085866
v 4.442471 2.124929 0.085866
v 4.404759 2.124813 -0.096507
v 4.480184 2.125046 -0.096507
v 4.442471 2.124929 -0.096507
v 4.482020 1.727265 -0.210116
v 4.406528 1.727032 -0.210116
v 4.444274 1.727149 -0.210116
v 4.406109 1.683748 0.085866
v 4.481551 1.683981 0.085866
v 4.443829 1.683864 0.085866
v -0.216009 -3.110357 0.186342
v -0.216009 -3.037749 0.184535
v -0.216009 -3.074590 0.185127
v -0.216009 -3.037484 -0.118735
v -0.216009 -3.110449 -0.116872
v -0.216009 -3.074430 -0.118152
v -0.850352 -3.110475 -0.135288
v -0.850352 -3.037487 -0.137553
v -0.850352 -3.074438 -0.137064
v -0.850352 -3.037708 0.153814
v -0.850352 -3.110372 0.155842
v -0.850352 -3.074563 0.154125
v 0.541472 -3.088333 0.188251
v 0.541472 -3.015707 0.186500
v 0.541472 -3.052554 0.187099
v 0.541472 -3.015558 -0.119110
v 0.541472 -3.088527 -0.117283
v 0.541472 -3.052505 -0.118542
v -0.092871 -3.088527 -0.117255
v -0.092871 -3.015558 -0.119117
v -0.092871 -3.052505 -0.118539
v -0.092871 -3.015706 0.186403
v -0.092871 -3.088333 0.188157
v -0.092871 -3.052553 0.187002
v -0.217172 -1.692295 -0.284355
v -0.217262 -1.617046 -0.286101
v -0.217198 -1.654666 -0.284874
v -0.851442 -1.617049 -0.286100
v -0.850352 -1.692289 -0.284625
v -0.850671 -1.654666 -0.284953
v -0.216105 -1.617034 0.326826
v -0.216009 -1.692304 0.327358
v -0.216057 -1.654669 0.327092
v -0.850352 -1.692290 0.326470
v -0.851443 -1.617042 0.326826
v -0.850672 -1.654664 0.326900
v -0.850352 -1.692287 -0.122473
v -0.851442 -1.617049 -0.123646
v -0.850672 -1.654665 -0.122642
v -0.850352 -1.692287 0.178242
v -0.851442 -1.617047 0.178078
v -0.850671 -1.654665 0.178477
v -0.216009 -1.675117 0.179040
v -0.216106 -1.599795 0.178032
v -0.216058 -1.637456 0.178536
v -0.216009 -1.692303 -0.121961
v -0.216105 -1.617039 -0.123647
v -0.216037 -1.654667 -0.122492
v 0.541472 -1.681294 -0.284363
v 0.542568 -1.606115 -0.286109
v 0.541793 -1.643702 -0.284879
v -0.091617 -1.606114 -0.286110
v -0.091708 -1.681294 -0.284363
v -0.091681 -1.643702 -0.284879
v 0.542568 -1.606113 0.326824
v 0.541472 -1.681294 0.327436
v 0.542020 -1.643703 0.327130
v -0.092871 -1.681294 0.327430
v -0.092774 -1.606112 0.326824
v -0.092823 -1.643703 0.327127
v -0.092871 -1.681294 -0.121971
v -0.092774 -1.606113 -0.123655
v -0.092843 -1.643701 -0.122498
v -0.092871 -1.681294 0.179130
v -0.092774 -1.606112 0.178073
v -0.092823 -1.643703 0.178602
v 0.541472 -1.681294 0.179133
v 0.542568 -1.606114 0.178074
v 0.542020 -1.643704 0.178603
v 0.541472 -1.681294 -0.121970
v 0.542568 -1.606115 -0.123655
v 0.541793 -1.643702 -0.122497
v -2.785718 2.047592 0.131285
v -2.710531 2.046662 0.130804
v -2.748124 2.047127 0.131044
v -2.712134 1.686092 0.126587
v -2.787316 1.687158 0.127463
v -2.749727 1.686644 0.126729
v -2.710523 2.051241 -0.118873
v -2.785699 2.051360 -0.119237
v -2.748111 2.051301 -0.119055
v -2.787624 1.618838 -0.221458
v -2.712486 1.615904 -0.220526
v -2.750047 1.617694 -0.221057
v -2.787384 1.672559 0.083583
v -2.712191 1.671626 0.082840
v -2.749791 1.672064 0.082920
v -2.787663 1.610230 -0.137468
v -2.712521 1.607745 -0.137016
v -2.750084 1.609334 -0.137399
v -2.785305 2.139831 -0.075737
v -2.710124 2.139537 -0.075436
v -2.747715 2.139684 -0.075587
v -2.785318 2.137395 0.084329
v -2.710135 2.136637 0.084167
v -2.747727 2.137016 0.084248
v 2.621048 2.029255 -0.154274
v 2.545573 2.029304 -0.153749
v 2.583311 2.029279 -0.154012
v 2.570484 1.837054 -0.226780
v 2.645978 1.837134 -0.227030
v 2.608231 1.837094 -0.226905
v 2.545613 2.029149 0.139469
v 2.621015 2.029255 0.139247
v 2.583314 2.029202 0.139358
v 2.622103 1.678254 0.139247
v 2.546689 1.678028 0.139248
v 2.584396 1.678140 0.139247
v 2.622586 1.721538 -0.210116
v 2.547096 1.721397 -0.209986
v 2.584841 1.721468 -0.210051
v 2.622118 1.678254 0.085866
v 2.546676 1.678036 0.085875
v 2.584397 1.678145 0.085871
v 2.620740 2.119319 0.085866
v 2.545332 2.119277 0.086222
v 2.583036 2.119298 0.086044
v 2.620751 2.119319 -0.096507
v 2.545319 2.119386 -0.095935
v 2.583035 2.119353 -0.096221
vn 0.1681 0.9708 -0.1713
vn -0.1713 0.9708 -0.1681
vn 0.1681 0.9708 0.1713
vn -0.1713 0.9708 0.1681
vn 0.4896 0.7501 -0.4446
vn 0.1678 0.8367 -0.5213
vn -0.1677 0.8367 -0.5214
vn -0.4446 0.7501 -0.4896
vn -0.5213 0.8367 -0.1678
vn -0.5213 0.8367 0.1678
vn -0.4446 0.7501 0.4896
vn -0.1677 0.8367 0.5214
vn 0.1678 0.8367 0.5213
vn 0.4896 0.7501 0.4446
vn 0.5214 0.8367 0.1677
vn 0.5214 0.8367 -0.1677
vn 0.1713 -0.1681 0.9708
vn 0.1681 0.1713 0.9708
vn -0.1713 -0.1681 0.9708
vn -0.1681 0.1713 0.9708
vn 0.4387 -0.4864 0.7557
vn 0.5213 -0.1678 0.8367
vn 0.5214 0.1677 0.8367
vn 0.4896 0.4446 0.7501
vn 0.1678 0.5213 0.8367
vn -0.1678 0.5213 0.8367
vn -0.4896 0.4446 0.7501
vn -0.5214 0.1677 0.8367
vn -0.5213 -0.1678 0.8367
vn -0.4356 -0.4869 0.7571
vn -0.1632 -0.5206 0.8380
vn 0.1632 -0.5206 0.8380
vn -0.9696 -0.1691 0.1768
vn -0.9706 0.1713 0.1692
vn -0.9652 -0.1858 -0.1839
vn -0.9709 0.1685 -0.1700
vn -0.7508 -0.4578 0.4762
vn -0.8329 -0.1577 0.5305
vn -0.8367 0.1677 0.5214
vn -0.7501 0.4446 0.4896
vn -0.8367 0.5213 0.1678
vn -0.8367 0.5213 -0.1678
vn -0.7501 0.4446 -0.4896
vn -0.8370 0.1522 -0.5256
vn -0.8207 -0.2292 -0.5233
vn -0.7010 -0.5628 -0.4381
vn -0.8121 -0.5410 -0.2189
vn -0.8440 -0.5119 0.1600
vn -0.1396 -0.9575 -0.2524
vn 0.1723 -0.9600 -0.2207
vn -0.1416 -0.9819 0.1261
vn 0.1750 -0.9775 0.1179
vn -0.4432 -0.7890 -0.4256
vn -0.1677 -0.8669 -0.4693
vn 0.1737 -0.8686 -0.4640
vn 0.4204 -0.7909 -0.4447
vn 0.4879 -0.8459 -0.2154
vn 0.5163 -0.8468 0.1283
vn 0.4436 -0.7446 0.4987
vn 0.1669 -0.8325 0.5282
vn -0.1420 -0.8216 0.5521
vn -0.4799 -0.7356 0.4781
vn -0.5064 -0.8506 0.1415
vn -0.4763 -0.8466 -0.2375
vn 0.9652 -0.1859 -0.1838
vn 0.9709 0.1685 -0.1700
vn 0.9696 -0.1692 0.1768
vn 0.9706 0.1713 0.1692
vn 0.7008 -0.5655 -0.4348
vn 0.8207 -0.2293 -0.5233
vn 0.8370 0.1521 -0.5256
vn 0.7501 0.4446 -0.4896
vn 0.8367 0.5213 -0.1678
vn 0.8367 0.5213 0.1678
vn 0.7501 0.4446 0.4896
vn 0.8367 0.1677 0.5214
vn 0.8329 -0.1577 0.5305
vn 0.7495 -0.4760 0.4601
vn 0.8352 -0.5274 0.1562
vn 0.8048 -0.5587 -0.2004
vn -0.1950 -0.2584 -0.9461
vn -0.1807 0.1497 -0.9721
vn 0.1953 -0.2584 -0.9461
vn 0.1808 0.1495 -0.9721
vn -0.4304 -0.5915 -0.6818
vn -0.5228 -0.2670 -0.8095
vn -0.5283 0.1419 -0.8371
vn -0.4896 0.4446 -0.7501
vn -0.1678 0.5213 -0.8367
vn 0.1678 0.5213 -0.8367
vn 0.4896 0.4446 -0.7501
vn 0.5284 0.1417 -0.8371
vn 0.5228 -0.2671 -0.8095
vn 0.4305 -0.5914 -0.6818
vn 0.1818 -0.6314 -0.7538
vn -0.1816 -0.6315 -0.7538
vn -0.0100 0.5512 -0.8343
vn -0.1127 0.2641 0.9579
vn 0.0039 0.4003 0.9164
vn 0.3457 0.0265 0.9380
vn 0.0022 0.2610 0.9653
vn -0.0189 0.2592 0.9656
vn 1.0000 0.0026 -0.0000
vn -1.0000 0.0026 -0.0000
vn 0.0059 -0.0299 0.9995
vn -0.0006 0.0282 0.9996
vn -0.0401 0.0412 0.9983
vn 0.0270 0.1782 -0.9836
vn -0.1145 0.2046 -0.9721
vn -0.0200 0.2089 -0.9777
vn -1.0000 0.0024 -0.0052
vn -0.0000 0.1861 -0.9825
vn 0.0002 -0.0193 -0.9998
vn 1.0000 0.0021 -0.0071
vn -0.0007 0.1861 -0.9825
vn -0.0731 0.0014 -0.9973
vn -0.0000 -0.0458 -0.9989
vn -0.0121 0.2471 -0.9689
vn -0.0580 -0.9936 -0.0971
vn -0.0000 -1.0000 -0.0000
vn -0.0000 0.1861 0.9825
vn -0.0114 -0.2342 0.9721
vn 0.0047 -0.2472 0.9689
vn -0.0000 0.0115 0.9999
vn -0.0000 0.1821 0.9833
vn 0.0030 -1.0000 -0.0002
vn -0.9926 -0.1215 -0.0004
vn -0.0004 0.1823 0.9832
vn -0.0119 -0.9875 0.1569
vn 0.9996 -0.0291 -0.0000
vn 0.9854 -0.1699 -0.0050
vn 0.3402 0.0411 0.9395
vn -0.0000 -0.0461 -0.9989
vn -0.0000 0.1835 -0.9830
vn -0.0033 -0.0926 -0.9957
vn -0.0008 0.1465 -0.9892
vn -0.9868 -0.1617 0.0053
vn 0.0231 0.0465 -0.9987
vn 0.0030 -0.9895 -0.1447
vn -0.0260 0.5376 0.8428
vn -0.0759 0.2781 -0.9576
vn 0.0243 0.4766 -0.8788
vn -0.0011 0.3540 -0.9352
vn 0.0004 -0.1449 -0.9895
vn -0.0017 0.5399 -0.8417
vn -0.0000 -0.0000 1.0000
vn -0.0016 0.5099 0.8603
vn 0.0152 -0.0489 -0.9987
vn 1.0000 -0.0002 -0.0070
vn -0.0380 0.6945 0.7185
vn 1.0000 -0.0000 -0.0000
vn -1.0000 -0.0000 -0.0000
vn -0.0002 0.6968 0.7172
vn -0.0027 -0.9976 0.0691
vn 1.0000 -0.0000 -0.0072
vn 0.0068 -0.9671 0.2545
vn -0.0000 -0.9964 0.0848
vn -1.0000 -0.0004 -0.0070
vn -1.0000 0.0045 -0.0000
vn -0.0547 -0.0976 0.9937
vn -0.0000 -0.0334 -0.9994
vn 0.0014 -0.9989 -0.0472
vn -0.0014 0.0027 1.0000
vn -0.0003 -0.1082 0.9941
vn -0.9928 -0.1198 -0.0000
vn 0.0003 -0.9992 -0.0399
vn -0.0000 0.0047 1.0000
vn 0.0119 0.4633 0.8861
vn 0.0122 0.2299 -0.9731
vn -0.0112 -0.9947 -0.1019
vn 1.0000 0.0031 -0.0000
vn 0.0031 -1.0000 -0.0000
vn 0.9142 -0.1076 0.3907
vn -0.0031 1.0000 -0.0000
vn -0.0045 -0.9488 0.3157
vn -0.0066 -0.9679 0.2511
vn -0.0045 0.4412 -0.8974
vn 1.0000 0.0026 -0.0001
vn -1.0000 -0.0000 -0.0072
vn -0.0000 -0.9995 -0.0325
vn -0.0270 -0.9950 0.0962
vn -0.0013 -0.9995 -0.0324
vn -0.0000 -1.0000 -0.0025
vn -0.0127 -0.9602 0.2790
vn -0.0000 -0.0003 -1.0000
vn 0.2383 0.9707 0.0313
vn -0.2528 0.9579 0.1362
vn 0.0004 -0.0005 -1.0000
vn 0.0011 0.9999 0.0152
vn 0.0002 -0.9894 -0.1450
vn 0.0305 -0.0107 0.9995
vn 0.9928 -0.1201 -0.0000
vn -0.0472 -0.9802 -0.1921
vn -0.9997 -0.0190 0.0143
vn -0.3066 0.0432 0.9508
vn -0.9855 -0.1694 -0.0118
vn -0.9855 -0.1693 -0.0067
vn -0.9996 -0.0290 -0.0000
vn -0.0000 0.0114 0.9999
vn 0.9999 -0.0171 -0.0008
vn 0.0497 0.0221 -0.9985
vn 0.9852 -0.1715 -0.0000
vn 0.9854 -0.1699 0.0050
vn -0.0000 0.1463 -0.9892
vn -0.0003 0.1463 -0.9892
vn -0.0513 0.9970 0.0579
vn 0.0219 -0.1102 -0.9937
vn 0.0504 0.9970 0.0592
vn -0.0279 -0.1018 -0.9944
vn 0.0022 0.9995 0.0308
vn -0.0886 0.2081 -0.9741
vn 0.0066 0.9998 0.0182
vn 0.0278 0.1300 -0.9911
vn -0.0000 0.1463 0.9892
vn 0.0151 0.4847 -0.8746
vn -0.0074 -0.0032 1.0000
vn -0.9998 -0.0188 0.0035
vn 0.0093 0.4499 0.8930
vn -0.0490 0.4625 -0.8853
vn -0.1693 -0.0504 -0.9843
vn -0.0092 1.0000 -0.0000
vn -0.9996 -0.0286 0.0006
vn 0.0076 -0.9698 0.2439
vn 0.5963 -0.0444 0.8015
vn 0.9926 -0.1216 -0.0003
vn -0.9926 -0.1213 0.0004
vn -0.3082 0.0393 0.9505
vn -0.0317 0.3961 0.9177
vn 0.9998 -0.0194 -0.0011
vn -0.0252 0.0475 0.9986
vn 0.9926 -0.1216 0.0003
vn -0.0110 0.3966 -0.9179
vn -0.0021 -1.0000 0.0021
vn 0.0017 -1.0000 0.0017
vn 0.0021 -1.0000 -0.0022
vn -0.0021 -1.0000 -0.0021
vn -0.9994 -0.0336 -0.0084
vn -0.9997 -0.0263 -0.0019
vn 0.5952 -0.0536 0.8018
vn 0.9993 -0.0344 -0.0156
vn -0.9985 -0.0556 -0.0001
vn -0.9956 -0.0933 -0.0004
vn -0.2341 -0.0010 0.9722
vn -0.1021 -0.0024 0.9948
vn -0.1857 0.4449 -0.8761
vn -0.0679 0.4839 -0.8725
vn -0.0000 0.0108 -0.9999
vn -0.0002 0.0909 -0.9959
vn 0.9984 -0.0558 0.0001
vn 0.9956 -0.0935 0.0003
vn 0.1016 0.4278 0.8981
vn 0.0475 0.4495 0.8920
vn -0.0000 0.0511 0.9987
vn -0.0000 0.1071 0.9942
vn -0.0000 0.0103 -0.9999
vn -0.0000 0.0904 -0.9959
vn -0.0000 0.0512 0.9987
vn -0.0000 0.1074 0.9942
vn -0.0117 0.1767 -0.9842
vn 0.0035 0.1783 -0.9840
vn -0.0188 0.3958 -0.9182
vn -0.0273 0.3873 -0.9216
vn 0.2541 -0.0284 0.9668
vn 0.1101 -0.0295 0.9935
vn -0.0124 0.0485 0.9987
vn 0.0056 0.0480 0.9988
vn -0.0123 0.5381 0.8428
vn 0.0016 0.5373 0.8434
vn -0.0496 0.2850 -0.9572
vn -0.0129 0.2871 -0.9578
vn -0.0457 -0.9803 -0.1921
vn -0.0256 -0.9805 -0.1948
vn 0.0152 -0.0167 -0.9997
vn 0.0157 -0.0167 -0.9997
vn 1.0000 -0.0001 -0.0070
vn -0.0436 0.5537 0.8316
vn -0.0498 0.2486 0.9673
vn -0.0000 -0.0164 -0.9999
vn -0.0003 0.5602 0.8283
vn -0.0003 0.2662 0.9639
vn -0.9984 -0.0560 -0.0000
vn -0.9955 -0.0943 0.0001
vn -0.9985 -0.0555 -0.0000
vn -0.9957 -0.0931 -0.0000
vn 0.0069 0.3536 0.9354
vn 0.0144 0.3827 0.9238
vn -0.1727 0.9743 0.1448
vn -0.0580 0.9873 0.1477
vn 0.9984 -0.0562 -0.0000
vn 0.9955 -0.0946 -0.0001
vn 0.9984 -0.0558 -0.0000
vn 0.9956 -0.0935 -0.0000
vn -0.0386 0.4626 -0.8857
vn -0.0260 0.5240 -0.8513
vn 0.1697 0.9850 0.0311
vn 0.0712 0.9970 0.0312
vn 0.0228 0.4767 -0.8788
vn 0.0082 0.4745 -0.8802
vn -0.0065 0.9999 0.0107
vn -0.0020 0.9999 0.0110
vn 0.0034 -0.9670 0.2548
vn -0.0014 -0.9670 0.2548
vn 0.0033 -0.9698 0.2439
vn -0.0026 -0.9685 0.2489
vn 0.0031 -0.9895 -0.1447
vn -1.0000 -0.0001 -0.0071
vn 1.0000 0.0013 0.0001
vn 1.0000 0.0018 -0.0000
vn 1.0000 0.0007 -0.0000
vn -1.0000 -0.0085 -0.0000
vn -0.9998 -0.0205 -0.0000
vn -0.0003 -0.0114 0.9999
vn -0.0000 0.0020 1.0000
vn 1.0000 0.0006 -0.0072
vn 1.0000 0.0016 -0.0072
vn 0.0004 -0.0138 -0.9999
vn 0.0001 -0.0326 -0.9995
vn 0.9999 -0.0146 -0.0000
vn 0.9998 -0.0206 -0.0000
vn 1.0000 -0.0085 -0.0008
vn -1.0000 0.0006 -0.0072
vn -1.0000 0.0015 -0.0071
vn -1.0000 0.0013 0.0001
vn -1.0000 0.0013 -0.0000
vn -0.0000 0.0081 1.0000
vn 1.0000 -0.0085 -0.0000
vn -0.0000 -0.0137 -0.9999
vn -0.0000 -0.0327 -0.9995
vn 0.0051 0.4412 -0.8974
vn 0.0050 0.4413 -0.8973
vn 0.0101 0.9998 0.0182
vn 0.0101 0.9998 0.0167
vn -0.0068 -0.9488 0.3157
vn -0.0127 -0.9487 0.3158
vn -0.0434 -0.9594 0.2788
vn -0.0234 -0.9615 0.2738
vn -0.0236 -0.9948 -0.0994
vn -0.0411 -0.9944 -0.0972
vn 0.0173 0.2289 -0.9733
vn 0.0246 0.2272 -0.9735
vn 0.0066 0.4633 0.8862
vn 0.0066 0.4617 0.8870
vn 0.0063 -0.0106 0.9999
vn 0.0063 -0.0120 0.9999
vn 0.0018 0.5093 0.8606
vn 0.0018 0.5087 0.8610
vn 0.0009 1.0000 0.0003
vn 0.0009 1.0000 -0.0000
vn -0.0031 -0.1442 -0.9895
vn -0.0031 -0.1436 -0.9896
vn 0.0029 -0.9894 -0.1450
vn 0.0028 -0.9894 -0.1448
vn 0.0029 -1.0000 -0.0000
vn 0.0029 -1.0000 -0.0002
vn -0.0000 -0.0003 1.0000
vn -0.0059 0.5400 -0.8417
vn -0.0059 0.5401 -0.8416
vn -0.0063 0.3539 -0.9353
vn -0.0063 0.3544 -0.9351
vn 0.1713 0.9708 -0.1681
vn -0.1681 0.9708 -0.1713
vn 0.1713 0.9708 0.1681
vn -0.1681 0.9708 0.1713
vn 0.4446 0.7501 -0.4896
vn 0.1677 0.8367 -0.5214
vn -0.1678 0.8367 -0.5213
vn -0.4896 0.7501 -0.4446
vn -0.5214 0.8367 -0.1677
vn -0.5214 0.8367 0.1677
vn -0.4896 0.7501 0.4446
vn -0.1678 0.8367 0.5213
vn 0.1677 0.8367 0.5214
vn 0.4446 0.7501 0.4896
vn 0.5213 0.8367 0.1678
vn 0.5213 0.8367 -0.1678
vn 0.1681 -0.1713 0.9708
vn 0.1713 0.1681 0.9708
vn -0.1681 -0.1713 0.9708
vn -0.1713 0.1681 0.9708
vn 0.4921 -0.4323 0.7556
vn 0.5214 -0.1677 0.8367
vn 0.5213 0.1678 0.8367
vn 0.4446 0.4896 0.7501
vn 0.1677 0.5214 0.8367
vn -0.1677 0.5214 0.8367
vn -0.4446 0.4896 0.7501
vn -0.5213 0.1678 0.8367
vn -0.5214 -0.1677 0.8367
vn -0.4926 -0.4295 0.7569
vn -0.1681 -0.5161 0.8399
vn 0.1681 -0.5162 0.8398
vn -0.9722 -0.1618 0.1692
vn -0.9706 0.1692 0.1713
vn -0.9652 -0.1976 -0.1713
vn -0.9709 0.1673 -0.1713
vn -0.7500 -0.4358 0.4976
vn -0.8367 -0.1677 0.5214
vn -0.8367 0.1678 0.5213
vn -0.7501 0.4896 0.4446
vn -0.8367 0.5214 0.1677
vn -0.8367 0.5214 -0.1677
vn -0.7501 0.4896 -0.4446
vn -0.8387 0.1567 -0.5216
vn -0.8226 -0.2346 -0.5179
vn -0.7020 -0.5305 -0.4751
vn -0.8015 -0.5684 -0.1858
vn -0.8416 -0.5147 0.1639
vn -0.1697 -0.9604 -0.2208
vn 0.1709 -0.9599 -0.2222
vn -0.1483 -0.9818 0.1184
vn 0.1717 -0.9776 0.1217
vn -0.4205 -0.7899 -0.4464
vn -0.1735 -0.8687 -0.4640
vn 0.1701 -0.8676 -0.4673
vn 0.4460 -0.7898 -0.4211
vn 0.4818 -0.8515 -0.2069
vn 0.5105 -0.8491 0.1357
vn 0.4885 -0.7472 0.4506
vn 0.1659 -0.8321 0.5293
vn -0.1668 -0.8325 0.5283
vn -0.4407 -0.7325 0.5189
vn -0.5129 -0.8480 0.1332
vn -0.4804 -0.8427 -0.2430
vn 0.9652 -0.1976 -0.1713
vn 0.9709 0.1672 -0.1713
vn 0.9722 -0.1619 0.1692
vn 0.9706 0.1692 0.1713
vn 0.7020 -0.5305 -0.4751
vn 0.8226 -0.2347 -0.5179
vn 0.8387 0.1566 -0.5216
vn 0.7501 0.4896 -0.4446
vn 0.8367 0.5214 -0.1677
vn 0.8367 0.5214 0.1677
vn 0.7501 0.4896 0.4446
vn 0.8367 0.1678 0.5213
vn 0.8367 -0.1677 0.5214
vn 0.7488 -0.4385 0.4970
vn 0.8312 -0.5317 0.1624
vn 0.7998 -0.5710 -0.1854
vn -0.1778 -0.2759 -0.9446
vn -0.1711 0.1594 -0.9723
vn 0.1779 -0.2760 -0.9445
vn 0.1711 0.1594 -0.9723
vn -0.4699 -0.5551 -0.6863
vn -0.5165 -0.2589 -0.8162
vn -0.5218 0.1491 -0.8399
vn -0.4446 0.4896 -0.7501
vn -0.1677 0.5214 -0.8367
vn 0.1677 0.5214 -0.8367
vn 0.4446 0.4896 -0.7501
vn 0.5218 0.1490 -0.8400
vn 0.5165 -0.2590 -0.8162
vn 0.4700 -0.5550 -0.6863
vn 0.1832 -0.6303 -0.7544
vn -0.1829 -0.6304 -0.7544
vn -0.0093 0.5401 -0.8416
vn 0.0068 0.3536 0.9354
vn 0.0012 0.4602 0.8878
vn 0.3474 -0.0263 0.9373
vn 0.0089 0.2586 0.9659
vn -0.0569 0.2472 0.9673
vn 1.0000 0.0026 0.0003
vn -0.0000 -0.0006 1.0000
vn 0.0006 0.0246 0.9997
vn -0.0459 0.0214 0.9987
vn 0.0133 0.2273 -0.9737
vn -0.0372 0.1300 -0.9908
vn -0.0168 0.2060 -0.9784
vn -1.0000 0.0022 -0.0051
vn -1.0000 0.0021 -0.0071
vn -0.0022 0.1836 -0.9830
vn -0.0244 0.0015 -0.9997
vn 1.0000 0.0022 -0.0051
vn 1.0000 0.0023 -0.0052
vn -0.0535 0.2445 -0.9682
vn -0.1231 0.0455 -0.9914
vn -0.0540 0.2848 -0.9571
vn -0.0590 -0.9982 -0.0057
vn -0.0552 -0.9984 -0.0075
vn 0.0032 0.1825 0.9832
vn -0.0272 -0.2471 0.9686
vn -0.0035 0.1823 0.9832
vn -0.0020 -0.2526 0.9676
vn -0.0028 0.1794 0.9838
vn 0.0028 -1.0000 -0.0072
vn -0.9927 -0.1202 -0.0054
vn 0.0036 0.1785 0.9839
vn -0.0159 -0.9881 0.1533
vn -0.0170 -0.9493 0.3139
vn 0.9852 -0.1712 0.0023
vn 0.0040 -0.2526 0.9676
vn 0.3403 0.0409 0.9394
vn -0.0036 0.1800 -0.9837
vn -0.0066 -0.0910 -0.9958
vn -0.0067 -0.1424 -0.9898
vn -0.0150 0.1581 -0.9873
vn -0.9866 -0.1624 -0.0122
vn -0.0600 -0.0312 -0.9977
vn 0.0309 -0.0289 -0.9991
vn -0.0223 0.5098 0.8600
vn 0.0450 -0.0002 -0.9990
vn 0.0306 0.5395 -0.8414
vn -0.0019 -0.0338 -0.9994
vn 1.0000 -0.0003 -0.0066
vn -0.0396 0.6956 0.7173
vn -0.0012 -0.9969 0.0791
vn 1.0000 -0.0000 -0.0070
vn 0.0069 -0.9664 0.2568
vn 0.0003 -0.9963 0.0864
vn -1.0000 -0.0002 -0.0065
vn -0.0437 -0.0702 0.9966
vn 0.0020 -0.9989 -0.0464
vn -0.0515 -0.0208 0.9985
vn -0.0000 -0.1074 0.9942
vn -0.9928 -0.1196 -0.0004
vn -0.0000 -0.9992 -0.0396
vn -0.0003 0.0048 1.0000
vn 0.0167 0.5372 0.8433
vn -0.0029 0.2871 -0.9579
vn -0.0163 -0.9807 -0.1949
vn 1.0000 0.0038 0.0019
vn 0.8900 0.2482 -0.3826
vn -0.0047 -0.9668 0.2557
vn -0.0094 -0.9624 0.2714
vn -0.0022 0.4731 -0.8810
vn -1.0000 -0.0000 -0.0071
vn -0.0270 -0.9957 -0.0891
vn -0.0000 -1.0000 -0.0003
vn 0.0006 -0.9996 -0.0284
vn 0.0006 -1.0000 -0.0004
vn -0.0549 -0.8300 0.5550
vn 0.2381 0.9708 0.0306
vn -0.2299 0.9719 0.0500
vn 0.0157 0.0067 -0.9999
vn 0.0014 0.9999 0.0112
vn 0.0027 -0.9871 -0.1603
vn 0.0184 0.0480 0.9987
vn -0.0536 -0.9986 -0.0000
vn -0.9997 -0.0255 -0.0028
vn 0.0030 -0.2341 0.9722
vn -0.3065 0.0437 0.9509
vn -0.9864 -0.1644 -0.0016
vn -0.9856 -0.1692 -0.0075
vn 0.9999 -0.0172 -0.0006
vn 0.0004 -0.0193 -0.9998
vn 0.9852 -0.1714 0.0003
vn 0.9852 -0.1713 -0.0027
vn -0.0000 0.1470 -0.9891
vn -0.0008 0.1464 -0.9892
vn -0.0553 0.9966 0.0606
vn -0.0395 -0.1472 -0.9883
vn 0.0323 0.9984 0.0470
vn -0.0165 -0.1092 -0.9939
vn 0.0049 1.0000 0.0006
vn -0.0290 0.3689 -0.9290
vn 0.0174 0.9888 0.1479
vn -0.0232 0.1740 -0.9845
vn 0.0124 0.4413 -0.8973
vn -0.0005 0.1467 0.9892
vn -0.0058 -0.0117 0.9999
vn -0.9998 -0.0186 0.0007
vn -0.9998 -0.0202 0.0025
vn 0.0052 0.5087 0.8610
vn 0.1678 0.0285 -0.9854
vn 0.0169 0.3823 -0.9239
vn -0.0074 0.9999 0.0107
vn -0.9996 -0.0263 -0.0053
vn -0.9997 -0.0254 -0.0009
vn 0.9998 -0.0173 -0.0028
vn 0.5978 -0.0450 0.8004
vn 0.9927 -0.1204 -0.0050
vn -0.9927 -0.1201 0.0056
vn -0.3105 -0.0008 0.9506
vn 0.1108 0.2918 0.9500
vn 0.9998 -0.0174 0.0023
vn 0.9999 -0.0172 0.0004
vn -0.0433 0.0002 0.9991
vn 0.9927 -0.1204 0.0050
vn -0.0059 0.3544 -0.9351
vn 0.0459 0.0648 -0.9968
vn -0.9463 0.2219 -0.2351
vn 0.9463 0.2218 -0.2351
vn -0.0461 0.0654 -0.9968
vn -0.0323 0.0892 0.9955
vn 0.9463 0.2312 0.2261
vn -0.9462 0.2313 0.2262
vn 0.0322 0.0892 0.9955
vn -0.2490 -0.0555 0.9669
vn -0.1332 -0.9905 0.0337
vn -0.0369 -0.9989 -0.0277
vn 0.0262 -0.0243 -0.9994
vn 0.0424 0.0021 -0.9991
vn 0.0442 -0.1523 -0.9873
vn 0.1059 -0.9882 -0.1108
vn 0.2745 -0.0716 0.9589
vn -0.9984 -0.0561 -0.0000
vn -0.9955 -0.0944 -0.0001
vn -0.2261 -0.0020 0.9741
vn -0.0979 -0.0029 0.9952
vn 0.0170 0.3823 -0.9239
vn 0.0196 0.4532 -0.8912
vn -0.0002 0.0146 -0.9999
vn -0.0007 0.1002 -0.9950
vn 0.9955 -0.0946 0.0001
vn -0.0214 0.3962 0.9179
vn -0.0161 0.4299 0.9027
vn -0.0000 0.1071 0.9943
vn 0.0269 0.1739 -0.9844
vn 0.0269 0.1766 -0.9839
vn -0.0653 0.3825 -0.9216
vn -0.1392 0.3534 -0.9251
vn 0.2632 -0.0272 0.9644
vn 0.1105 -0.0294 0.9934
vn -0.0220 0.0475 0.9986
vn 0.0092 0.0484 0.9988
vn -0.0135 0.5377 0.8430
vn 0.0042 0.5381 0.8429
vn 0.0271 0.2784 -0.9601
vn 0.0094 0.2851 -0.9584
vn -0.0383 -0.9801 -0.1948
vn -0.0254 -0.9805 -0.1949
vn 0.0161 -0.0320 -0.9994
vn 0.0161 -0.0090 -0.9998
vn -0.0438 0.5588 0.8281
vn -0.0506 0.2644 0.9631
vn -0.0003 0.5603 0.8283
vn -0.0003 0.2663 0.9639
vn -0.9985 -0.0555 0.0001
vn -0.9957 -0.0931 0.0004
vn -0.9985 -0.0556 -0.0000
vn -0.9956 -0.0933 -0.0000
vn -0.0982 0.3810 0.9193
vn -0.0402 0.4001 0.9156
vn -0.1476 0.9792 0.1395
vn -0.0544 0.9877 0.1469
vn 0.9984 -0.0558 -0.0001
vn 0.9956 -0.0935 -0.0003
vn 0.1825 0.5150 -0.8375
vn 0.0696 0.5501 -0.8322
vn 0.1684 0.9852 0.0308
vn 0.0690 0.9971 0.0307
vn 0.0160 0.4744 -0.8802
vn 0.0041 0.4731 -0.8810
vn -0.0048 0.9999 0.0110
vn -0.0011 0.9999 0.0112
vn 0.0030 -0.9671 0.2545
vn -0.0025 -0.9668 0.2557
vn -0.0330 -0.9680 0.2488
vn -0.0192 -0.9678 0.2511
vn -1.0000 -0.0003 -0.0070
vn 1.0000 0.0013 -0.0001
vn 1.0000 0.0013 -0.0000
vn -0.0014 0.0071 1.0000
vn -0.0003 0.0071 1.0000
vn 1.0000 0.0015 -0.0071
vn 0.0001 -0.0087 -1.0000
vn -0.0000 -0.0305 -0.9995
vn 0.9999 -0.0146 -0.0008
vn -1.0000 0.0007 -0.0072
vn -1.0000 0.0016 -0.0072
vn -1.0000 0.0018 -0.0000
vn -1.0000 0.0008 0.0001
vn 0.0053 0.4413 -0.8973
vn 0.0053 0.4414 -0.8973
vn 0.0038 0.9999 0.0167
vn 0.0038 0.9999 0.0152
vn -0.0069 -0.9488 0.3158
vn -0.0104 -0.9494 0.3140
vn -0.0106 -0.9617 0.2738
vn -0.0079 -0.9624 0.2714
vn -0.0292 -0.9944 -0.1019
vn -0.0460 -0.9940 -0.0993
vn 0.0051 0.2300 -0.9732
vn 0.0051 0.2290 -0.9734
vn 0.0114 0.4617 0.8870
vn 0.0114 0.4601 0.8878
vn 0.0194 -0.0121 0.9997
vn 0.0036 -0.0117 0.9999
vn 0.0038 0.5099 0.8602
vn 0.0038 0.5093 0.8606
vn -0.0005 1.0000 0.0006
vn -0.0006 1.0000 0.0003
vn -0.0014 -0.1440 -0.9896
vn -0.0014 -0.1434 -0.9897
vn 0.0016 -0.9895 -0.1449
vn 0.0016 -0.9895 -0.1447
vn 0.0030 -1.0000 -0.0001
vn 0.0029 -0.0003 1.0000
vn 0.0029 -0.0006 1.0000
vn -0.0055 0.5399 -0.8417
vn -0.0055 0.5400 -0.8417
vn -0.0035 0.3538 -0.9353
vn -0.0035 0.3542 -0.9351
vt 0.687500 0.562500
vt 0.750000 0.625000
vt 0.687500 0.625000
vt 0.812500 0.562500
vt 0.750000 0.562500
vt 0.687500 0.687500
vt 0.812500 0.687500
vt 0.750000 0.687500
vt 0.625000 0.500000
vt 0.625000 0.562500
vt 0.687500 0.500000
vt 0.812500 0.500000
vt 0.750000 0.500000
vt 0.875000 0.500000
vt 0.875000 0.562500
vt 0.812500 0.625000
vt 0.875000 0.687500
vt 0.875000 0.750000
vt 0.812500 0.750000
vt 0.750000 0.750000
vt 0.687500 0.750000
vt 0.625000 0.750000
vt 0.625000 0.687500
vt 0.625000 0.625000
vt 0.437500 0.812500
vt 0.500000 0.875000
vt 0.437500 0.875000
vt 0.562500 0.812500
vt 0.500000 0.812500
vt 0.437500 0.937500
vt 0.562500 0.937500
vt 0.500000 0.937500
vt 0.375000 0.750000
vt 0.375000 0.812500
vt 0.437500 0.750000
vt 0.562500 0.750000
vt 0.500000 0.750000
vt 0.625000 0.812500
vt 0.562500 0.875000
vt 0.625000 0.937500
vt 0.625000 1.000000
vt 0.562500 1.000000
vt 0.500000 1.000000
vt 0.437500 1.000000
vt 0.375000 1.000000
vt 0.375000 0.937500
vt 0.375000 0.875000
vt 0.500000 0.062500
vt 0.437500 0.125000
vt 0.437500 0.062500
vt 0.562500 0.062500
vt 0.500000 0.125000
vt 0.437500 0.187500
vt 0.562500 0.187500
vt 0.500000 0.187500
vt 0.375000 0.000000
vt 0.375000 0.062500
vt 0.437500 0.000000
vt 0.562500 0.000000
vt 0.500000 0.000000
vt 0.625000 0.000000
vt 0.625000 0.062500
vt 0.562500 0.125000
vt 0.625000 0.187500
vt 0.625000 0.250000
vt 0.562500 0.250000
vt 0.500000 0.250000
vt 0.437500 0.250000
vt 0.375000 0.250000
vt 0.375000 0.187500
vt 0.375000 0.125000
vt 0.187500 0.562500
vt 0.250000 0.625000
vt 0.187500 0.625000
vt 0.312500 0.562500
vt 0.250000 0.562500
vt 0.187500 0.687500
vt 0.312500 0.687500
vt 0.250000 0.687500
vt 0.125000 0.500000
vt 0.125000 0.562500
vt 0.187500 0.500000
vt 0.312500 0.500000
vt 0.250000 0.500000
vt 0.375000 0.500000
vt 0.375000 0.625000
vt 0.312500 0.625000
vt 0.375000 0.687500
vt 0.312500 0.750000
vt 0.250000 0.750000
vt 0.187500 0.750000
vt 0.125000 0.750000
vt 0.125000 0.687500
vt 0.125000 0.625000
vt 0.437500 0.562500
vt 0.500000 0.625000
vt 0.437500 0.625000
vt 0.562500 0.562500
vt 0.500000 0.562500
vt 0.500000 0.687500
vt 0.437500 0.687500
vt 0.562500 0.687500
vt 0.375000 0.562500
vt 0.437500 0.500000
vt 0.562500 0.500000
vt 0.500000 0.500000
vt 0.562500 0.625000
vt 0.437500 0.312500
vt 0.500000 0.375000
vt 0.437500 0.375000
vt 0.562500 0.312500
vt 0.500000 0.312500
vt 0.437500 0.437500
vt 0.562500 0.437500
vt 0.500000 0.437500
vt 0.375000 0.312500
vt 0.625000 0.312500
vt 0.562500 0.375000
vt 0.625000 0.437500
vt 0.375000 0.437500
vt 0.375000 0.375000
vt 0.000000 0.000000
vt 0.875000 0.625000
vt 0.625000 0.875000
vt 0.625000 0.125000
vt 0.625000 0.375000
s 0
usemtl Material
f 45/1/1 49/2/1 48/3/1
f 47/4/2 49/2/2 46/5/2
f 49/2/3 51/6/3 48/3/3
f 49/2/4 53/7/4 52/8/4
f 1/9/5 45/1/5 30/10/5
f 41/11/6 46/5/6 45/1/6
f 39/12/7 46/5/7 40/13/7
f 5/14/8 47/4/8 39/12/8
f 38/15/9 50/16/9 47/4/9
f 50/16/10 36/17/10 53/7/10
f 53/7/11 7/18/11 29/19/11
f 52/8/12 29/19/12 28/20/12
f 52/8/13 27/21/13 51/6/13
f 51/6/14 3/22/14 32/23/14
f 48/3/15 32/23/15 31/24/15
f 30/10/16 48/3/16 31/24/16
f 54/25/17 58/26/17 57/27/17
f 56/28/18 58/26/18 55/29/18
f 58/26/19 60/30/19 57/27/19
f 58/26/20 62/31/20 61/32/20
f 4/33/21 54/25/21 35/34/21
f 23/35/22 55/29/22 54/25/22
f 21/36/23 55/29/23 22/37/23
f 3/22/24 56/28/24 21/36/24
f 27/38/25 59/39/25 56/28/25
f 59/39/26 29/40/26 62/31/26
f 62/31/27 7/41/27 20/42/27
f 61/32/28 20/42/28 19/43/28
f 61/32/29 18/44/29 60/30/29
f 60/30/30 8/45/30 33/46/30
f 57/27/31 33/46/31 34/47/31
f 35/34/32 57/27/32 34/47/32
f 64/48/33 66/49/33 63/50/33
f 65/51/34 67/52/34 64/48/34
f 67/52/35 69/53/35 66/49/35
f 67/52/36 71/54/36 70/55/36
f 8/56/37 63/50/37 11/57/37
f 18/58/38 64/48/38 63/50/38
f 20/59/39 64/48/39 19/60/39
f 7/61/40 65/51/40 20/59/40
f 36/62/41 68/63/41 65/51/41
f 68/63/42 38/64/42 71/54/42
f 71/54/43 5/65/43 24/66/43
f 70/55/44 24/66/44 25/67/44
f 70/55/45 26/68/45 69/53/45
f 69/53/46 6/69/46 9/70/46
f 66/49/47 9/70/47 10/71/47
f 63/50/48 10/71/48 11/57/48
f 72/72/49 76/73/49 75/74/49
f 74/75/50 76/73/50 73/76/50
f 76/73/51 78/77/51 75/74/51
f 76/73/52 80/78/52 79/79/52
f 6/80/53 72/72/53 9/81/53
f 14/82/54 73/76/54 72/72/54
f 12/83/55 73/76/55 13/84/55
f 2/85/56 74/75/56 12/83/56
f 74/75/57 43/86/57 77/87/57
f 77/87/58 42/88/58 80/78/58
f 80/78/59 4/33/59 35/89/59
f 79/79/60 35/89/60 34/90/60
f 79/79/61 33/91/61 78/77/61
f 78/77/62 8/92/62 11/93/62
f 75/74/63 11/93/63 10/94/63
f 72/72/64 10/94/64 9/81/64
f 81/95/65 85/96/65 84/97/65
f 83/98/66 85/96/66 82/99/66
f 84/97/67 88/100/67 87/101/67
f 85/96/68 89/102/68 88/100/68
f 2/85/69 81/95/69 44/103/69
f 17/104/70 82/99/70 81/95/70
f 15/105/71 82/99/71 16/106/71
f 1/9/72 83/98/72 15/105/72
f 30/10/73 86/107/73 83/98/73
f 86/107/74 32/23/74 89/102/74
f 89/102/75 3/22/75 21/36/75
f 88/100/76 21/36/76 22/37/76
f 88/100/77 23/35/77 87/101/77
f 87/101/78 4/33/78 42/88/78
f 43/86/79 87/101/79 42/88/79
f 44/103/80 84/97/80 43/86/80
f 90/108/81 94/109/81 93/110/81
f 92/111/82 94/109/82 91/112/82
f 94/109/83 96/113/83 93/110/83
f 94/109/84 98/114/84 97/115/84
f 6/69/85 90/108/85 14/116/85
f 25/67/86 90/108/86 26/68/86
f 24/66/87 91/112/87 25/67/87
f 5/65/88 92/111/88 24/66/88
f 39/117/89 95/118/89 92/111/89
f 95/118/90 41/119/90 98/114/90
f 98/114/91 1/9/91 15/105/91
f 97/115/92 15/105/92 16/106/92
f 96/113/93 16/106/93 17/104/93
f 96/113/94 2/85/94 12/120/94
f 93/110/95 12/120/95 13/121/95
f 14/116/96 93/110/96 13/121/96
f 45/1/360 46/5/360 49/2/360
f 47/4/361 50/16/361 49/2/361
f 49/2/362 52/8/362 51/6/362
f 49/2/363 50/16/363 53/7/363
f 1/9/364 41/11/364 45/1/364
f 41/11/365 40/13/365 46/5/365
f 39/12/366 47/4/366 46/5/366
f 5/14/367 38/15/367 47/4/367
f 38/15/368 37/123/368 50/16/368
f 50/16/369 37/123/369 36/17/369
f 53/7/370 36/17/370 7/18/370
f 52/8/371 53/7/371 29/19/371
f 52/8/372 28/20/372 27/21/372
f 51/6/373 27/21/373 3/22/373
f 48/3/374 51/6/374 32/23/374
f 30/10/375 45/1/375 48/3/375
f 54/25/376 55/29/376 58/26/376
f 56/28/377 59/39/377 58/26/377
f 58/26/378 61/32/378 60/30/378
f 58/26/379 59/39/379 62/31/379
f 4/33/380 23/35/380 54/25/380
f 23/35/381 22/37/381 55/29/381
f 21/36/382 56/28/382 55/29/382
f 3/22/383 27/38/383 56/28/383
f 27/38/384 28/124/384 59/39/384
f 59/39/385 28/124/385 29/40/385
f 62/31/386 29/40/386 7/41/386
f 61/32/387 62/31/387 20/42/387
f 61/32/388 19/43/388 18/44/388
f 60/30/389 18/44/389 8/45/389
f 57/27/390 60/30/390 33/46/390
f 35/34/391 54/25/391 57/27/391
f 64/48/392 67/52/392 66/49/392
f 65/51/393 68/63/393 67/52/393
f 67/52/394 70/55/394 69/53/394
f 67/52/395 68/63/395 71/54/395
f 8/56/396 18/58/396 63/50/396
f 18/58/397 19/60/397 64/48/397
f 20/59/398 65/51/398 64/48/398
f 7/61/399 36/62/399 65/51/399
f 36/62/400 37/125/400 68/63/400
f 68/63/401 37/125/401 38/64/401
f 71/54/402 38/64/402 5/65/402
f 70/55/403 71/54/403 24/66/403
f 70/55/404 25/67/404 26/68/404
f 69/53/405 26/68/405 6/69/405
f 66/49/406 69/53/406 9/70/406
f 63/50/407 66/49/407 10/71/407
f 72/72/408 73/76/408 76/73/408
f 74/75/409 77/87/409 76/73/409
f 76/73/410 79/79/410 78/77/410
f 76/73/411 77/87/411 80/78/411
f 6/80/412 14/82/412 72/72/412
f 14/82/413 13/84/413 73/76/413
f 12/83/414 74/75/414 73/76/414
f 2/85/415 44/103/415 74/75/415
f 74/75/416 44/103/416 43/86/416
f 77/87/417 43/86/417 42/88/417
f 80/78/418 42/88/418 4/33/418
f 79/79/419 80/78/419 35/89/419
f 79/79/420 34/90/420 33/91/420
f 78/77/421 33/91/421 8/92/421
f 75/74/422 78/77/422 11/93/422
f 72/72/423 75/74/423 10/94/423
f 81/95/424 82/99/424 85/96/424
f 83/98/425 86/107/425 85/96/425
f 84/97/426 85/96/426 88/100/426
f 85/96/427 86/107/427 89/102/427
f 2/85/428 17/104/428 81/95/428
f 17/104/429 16/106/429 82/99/429
f 15/105/430 83/98/430 82/99/430
f 1/9/431 30/10/431 83/98/431
f 30/10/432 31/24/432 86/107/432
f 86/107/433 31/24/433 32/23/433
f 89/102/434 32/23/434 3/22/434
f 88/100/435 89/102/435 21/36/435
f 88/100/436 22/37/436 23/35/436
f 87/101/437 23/35/437 4/33/437
f 43/86/438 84/97/438 87/101/438
f 44/103/439 81/95/439 84/97/439
f 90/108/440 91/112/440 94/109/440
f 92/111/441 95/118/441 94/109/441
f 94/109/442 97/115/442 96/113/442
f 94/109/443 95/118/443 98/114/443
f 6/69/444 26/68/444 90/108/444
f 25/67/445 91/112/445 90/108/445
f 24/66/446 92/111/446 91/112/446
f 5/65/447 39/117/447 92/111/447
f 39/117/448 40/126/448 95/118/448
f 95/118/449 40/126/449 41/119/449
f 98/114/450 41/119/450 1/9/450
f 97/115/451 98/114/451 15/105/451
f 96/113/452 97/115/452 16/106/452
f 96/113/453 17/104/453 2/85/453
f 93/110/454 96/113/454 12/120/454
f 14/116/455 90/108/455 93/110/455
usemtl 
f 475/122/97 219/122/97 328/122/97
f 315/122/98 106/122/98 162/122/98
f 316/122/99 430/122/99 201/122/99
f 257/122/100 104/122/100 115/122/100
f 158/122/101 105/122/101 104/122/101
f 162/122/102 105/122/102 160/122/102
f 232/122/103 400/122/103 164/122/103
f 421/122/104 415/122/104 236/122/104
f 256/122/105 459/122/105 213/122/105
f 104/122/106 118/122/106 115/122/106
f 118/122/107 106/122/107 121/122/107
f 439/122/108 207/122/108 246/122/108
f 124/122/109 101/122/109 127/122/109
f 127/122/110 102/122/110 130/122/110
f 222/122/111 418/122/111 167/122/111
f 128/122/112 132/122/112 129/122/112
f 128/122/113 130/122/113 131/122/113
f 403/122/114 382/122/114 226/122/114
f 126/122/115 128/122/115 129/122/115
f 125/122/116 127/122/116 128/122/116
f 226/122/117 384/122/117 203/122/117
f 110/122/118 125/122/118 126/122/118
f 445/122/119 439/122/119 246/122/119
f 103/122/120 234/122/120 233/122/120
f 119/122/121 123/122/121 120/122/121
f 119/122/122 121/122/122 122/122/122
f 239/122/120 238/122/120 103/122/120
f 117/122/121 119/122/121 120/122/121
f 116/122/123 118/122/123 119/122/123
f 236/122/124 411/122/124 209/122/124
f 114/122/125 116/122/125 117/122/125
f 469/122/126 463/122/126 256/122/126
f 107/122/127 312/122/127 198/122/127
f 122/122/128 107/122/128 123/122/128
f 242/122/129 442/122/129 179/122/129
f 209/122/130 424/122/130 321/122/130
f 170/122/131 113/122/131 114/122/131
f 258/122/132 257/122/132 115/122/132
f 406/122/133 222/122/133 215/122/133
f 131/122/134 112/122/134 132/122/134
f 252/122/135 466/122/135 173/122/135
f 204/122/136 126/122/136 227/122/136
f 176/122/137 109/122/137 110/122/137
f 248/122/138 124/122/138 125/122/138
f 354/122/139 465/122/139 352/122/139
f 337/122/140 150/122/140 265/122/140
f 152/122/141 267/122/141 271/122/141
f 267/122/142 189/122/142 333/122/142
f 154/122/143 273/122/143 277/122/143
f 457/122/144 352/122/144 465/122/144
f 194/122/145 277/122/145 349/122/145
f 283/122/146 155/122/146 279/122/146
f 155/122/147 345/122/147 279/122/147
f 289/122/148 133/122/148 285/122/148
f 361/122/149 134/122/149 289/122/149
f 141/122/150 291/122/150 295/122/150
f 135/122/151 357/122/151 291/122/151
f 136/122/152 141/122/152 295/122/152
f 373/122/151 138/122/151 301/122/151
f 145/122/153 303/122/153 307/122/153
f 139/122/151 369/122/151 303/122/151
f 140/122/152 145/122/152 307/122/152
f 181/122/154 136/122/154 184/122/154
f 133/122/152 363/122/152 285/122/152
f 402/122/155 288/122/155 381/122/155
f 149/122/156 339/122/156 261/122/156
f 396/122/152 294/122/152 390/122/152
f 185/122/157 140/122/157 188/122/157
f 297/122/158 187/122/158 375/122/158
f 426/122/151 300/122/151 405/122/151
f 192/122/159 151/122/159 152/122/159
f 378/122/152 414/122/152 420/122/152
f 141/122/160 143/122/160 144/122/160
f 138/122/161 297/122/161 301/122/161
f 135/122/162 142/122/162 136/122/162
f 388/122/151 358/122/151 399/122/151
f 390/122/163 292/122/163 388/122/163
f 145/122/164 147/122/164 148/122/164
f 175/122/165 310/122/165 312/122/165
f 147/122/166 140/122/166 139/122/166
f 412/122/151 370/122/151 423/122/151
f 306/122/167 412/122/167 414/122/167
f 336/122/168 429/122/168 450/122/168
f 270/122/169 436/122/169 438/122/169
f 342/122/170 438/122/170 444/122/170
f 196/122/171 155/122/171 156/122/171
f 273/122/144 195/122/144 351/122/144
f 348/122/145 453/122/145 474/122/145
f 282/122/146 460/122/146 462/122/146
f 468/122/172 282/122/172 462/122/172
f 460/122/147 346/122/147 471/122/147
f 196/122/171 194/122/171 193/122/171
f 153/122/173 194/122/173 195/122/173
f 346/122/174 474/122/174 471/122/174
f 433/122/175 340/122/175 441/122/175
f 342/122/176 441/122/176 340/122/176
f 436/122/177 334/122/177 447/122/177
f 403/122/178 164/122/178 400/122/178
f 298/122/179 417/122/179 409/122/179
f 192/122/159 190/122/159 189/122/159
f 150/122/159 191/122/159 149/122/159
f 376/122/152 420/122/152 417/122/152
f 148/122/151 139/122/151 303/122/151
f 188/122/180 186/122/180 185/122/180
f 137/122/181 186/122/181 187/122/181
f 372/122/151 423/122/151 370/122/151
f 385/122/152 364/122/152 393/122/152
f 366/122/152 393/122/152 364/122/152
f 144/122/151 135/122/151 291/122/151
f 184/122/182 182/122/182 181/122/182
f 134/122/183 183/122/183 133/122/183
f 445/122/184 179/122/184 442/122/184
f 300/122/185 409/122/185 405/122/185
f 158/122/186 327/122/186 157/122/186
f 379/122/152 140/122/152 307/122/152
f 162/122/187 319/122/187 315/122/187
f 288/122/188 385/122/188 381/122/188
f 418/122/104 168/122/104 167/122/104
f 184/122/152 295/122/152 367/122/152
f 276/122/143 457/122/143 453/122/143
f 334/122/189 450/122/189 447/122/189
f 355/122/172 156/122/172 283/122/172
f 469/122/190 173/122/190 466/122/190
f 429/122/191 262/122/191 433/122/191
f 169/122/192 322/122/192 324/122/192
f 343/122/193 152/122/193 271/122/193
f 180/122/194 177/122/194 179/122/194
f 121/122/195 244/122/195 108/122/195
f 178/122/196 175/122/196 177/122/196
f 108/122/197 175/122/197 107/122/197
f 394/122/198 313/122/198 309/122/198
f 391/122/199 232/122/199 197/122/199
f 174/122/200 171/122/200 173/122/200
f 130/122/201 254/122/201 111/122/201
f 171/122/202 170/122/202 169/122/202
f 111/122/203 169/122/203 112/122/203
f 427/122/130 321/122/130 424/122/130
f 325/122/130 406/122/130 215/122/130
f 168/122/120 165/122/120 167/122/120
f 129/122/204 132/122/204 221/122/204
f 166/122/120 163/122/120 165/122/120
f 227/122/205 129/122/205 99/122/205
f 161/122/206 160/122/206 159/122/206
f 101/122/207 161/122/207 159/122/207
f 160/122/208 157/122/208 159/122/208
f 101/122/209 157/122/209 102/122/209
f 472/122/210 328/122/210 330/122/210
f 102/122/211 251/122/211 130/122/211
f 451/122/212 318/122/212 448/122/212
f 247/122/213 100/122/213 124/122/213
f 358/122/151 402/122/151 399/122/151
f 237/122/214 120/122/214 103/122/214
f 182/122/151 357/122/151 181/122/151
f 207/122/215 448/122/215 318/122/215
f 183/122/152 367/122/152 363/122/152
f 123/122/214 198/122/214 231/122/214
f 201/122/216 432/122/216 242/122/216
f 120/122/214 123/122/214 231/122/214
f 384/122/198 309/122/198 203/122/198
f 210/122/214 117/122/214 237/122/214
f 186/122/151 369/122/151 185/122/151
f 165/122/120 229/122/120 99/122/120
f 187/122/152 379/122/152 375/122/152
f 244/122/217 179/122/217 177/122/217
f 213/122/218 472/122/218 330/122/218
f 132/122/204 216/122/204 221/122/204
f 102/122/219 327/122/219 218/122/219
f 100/122/220 319/122/220 161/122/220
f 190/122/221 333/122/221 189/122/221
f 180/122/222 249/122/222 248/122/222
f 191/122/223 343/122/223 339/122/223
f 254/122/224 253/122/224 173/122/224
f 322/122/225 114/122/225 210/122/225
f 310/122/226 110/122/226 204/122/226
f 106/122/227 241/122/227 121/122/227
f 331/122/228 104/122/228 212/122/228
f 193/122/174 349/122/174 345/122/174
f 174/122/229 259/122/229 258/122/229
f 196/122/139 351/122/139 195/122/139
f 150/122/230 261/122/230 265/122/230
f 112/122/231 324/122/231 216/122/231
f 454/122/232 252/122/232 219/122/232
f 223/122/120 167/122/120 165/122/120
f 225/122/233 223/122/233 224/122/233
f 230/122/234 228/122/234 229/122/234
f 235/122/235 233/122/235 234/122/235
f 240/122/236 238/122/236 239/122/236
f 245/122/237 243/122/237 244/122/237
f 250/122/238 248/122/238 249/122/238
f 255/122/239 253/122/239 254/122/239
f 260/122/240 258/122/240 259/122/240
f 313/122/241 199/122/241 314/122/241
f 314/122/242 198/122/242 312/122/242
f 200/122/243 245/122/243 241/122/243
f 202/122/244 242/122/244 245/122/244
f 319/122/245 208/122/245 320/122/245
f 320/122/246 207/122/246 318/122/246
f 203/122/247 230/122/247 226/122/247
f 205/122/248 227/122/248 230/122/248
f 325/122/249 217/122/249 326/122/249
f 326/122/250 216/122/250 324/122/250
f 331/122/251 214/122/251 332/122/251
f 332/122/252 213/122/252 330/122/252
f 209/122/253 240/122/253 236/122/253
f 211/122/254 237/122/254 240/122/254
f 215/122/255 225/122/255 217/122/255
f 217/122/256 221/122/256 216/122/256
f 197/122/257 235/122/257 199/122/257
f 199/122/258 231/122/258 198/122/258
f 206/122/259 250/122/259 208/122/259
f 208/122/260 246/122/260 207/122/260
f 252/122/261 220/122/261 219/122/261
f 255/122/262 218/122/262 220/122/262
f 212/122/263 260/122/263 214/122/263
f 214/122/264 256/122/264 213/122/264
f 265/122/265 263/122/265 266/122/265
f 266/122/266 262/122/266 264/122/266
f 337/122/267 266/122/267 338/122/267
f 338/122/268 264/122/268 336/122/268
f 271/122/269 269/122/269 272/122/269
f 272/122/270 268/122/270 270/122/270
f 271/122/271 344/122/271 343/122/271
f 272/122/272 342/122/272 344/122/272
f 277/122/143 275/122/143 278/122/143
f 278/122/143 274/122/143 276/122/143
f 349/122/145 278/122/145 350/122/145
f 278/122/145 348/122/145 350/122/145
f 279/122/146 284/122/146 283/122/146
f 284/122/146 280/122/146 282/122/146
f 283/122/172 356/122/172 355/122/172
f 356/122/172 282/122/172 354/122/172
f 285/122/273 290/122/273 289/122/273
f 290/122/274 286/122/274 288/122/274
f 289/122/149 362/122/149 361/122/149
f 290/122/275 360/122/275 362/122/275
f 295/122/276 293/122/276 296/122/276
f 296/122/277 292/122/277 294/122/277
f 367/122/152 296/122/152 368/122/152
f 368/122/152 294/122/152 366/122/152
f 301/122/278 299/122/278 302/122/278
f 302/122/278 298/122/278 300/122/278
f 301/122/151 374/122/151 373/122/151
f 302/122/151 372/122/151 374/122/151
f 307/122/279 305/122/279 308/122/279
f 308/122/280 304/122/280 306/122/280
f 379/122/152 308/122/152 380/122/152
f 380/122/152 306/122/152 378/122/152
f 309/122/281 205/122/281 203/122/281
f 311/122/282 204/122/282 205/122/282
f 309/122/283 314/122/283 311/122/283
f 311/122/284 312/122/284 310/122/284
f 315/122/285 202/122/285 200/122/285
f 317/122/286 201/122/286 202/122/286
f 315/122/287 320/122/287 317/122/287
f 317/122/288 318/122/288 316/122/288
f 321/122/289 211/122/289 209/122/289
f 323/122/290 210/122/290 211/122/290
f 325/122/291 323/122/291 321/122/291
f 326/122/292 322/122/292 323/122/292
f 327/122/293 220/122/293 218/122/293
f 329/122/294 219/122/294 220/122/294
f 331/122/295 329/122/295 327/122/295
f 332/122/296 328/122/296 329/122/296
f 333/122/297 269/122/297 267/122/297
f 335/122/298 268/122/298 269/122/298
f 337/122/299 335/122/299 333/122/299
f 338/122/300 334/122/300 335/122/300
f 261/122/301 341/122/301 263/122/301
f 341/122/302 262/122/302 263/122/302
f 343/122/303 341/122/303 339/122/303
f 344/122/304 340/122/304 341/122/304
f 279/122/147 347/122/147 281/122/147
f 347/122/147 280/122/147 281/122/147
f 345/122/174 350/122/174 347/122/174
f 350/122/174 346/122/174 347/122/174
f 351/122/144 275/122/144 273/122/144
f 353/122/144 274/122/144 275/122/144
f 355/122/305 353/122/305 351/122/305
f 356/122/305 352/122/305 353/122/305
f 357/122/151 293/122/151 291/122/151
f 359/122/151 292/122/151 293/122/151
f 361/122/151 359/122/151 357/122/151
f 362/122/151 358/122/151 359/122/151
f 285/122/152 365/122/152 287/122/152
f 287/122/152 364/122/152 286/122/152
f 363/122/152 368/122/152 365/122/152
f 365/122/152 366/122/152 364/122/152
f 369/122/151 305/122/151 303/122/151
f 371/122/151 304/122/151 305/122/151
f 373/122/151 371/122/151 369/122/151
f 374/122/151 370/122/151 371/122/151
f 297/122/306 377/122/306 299/122/306
f 299/122/306 376/122/306 298/122/306
f 375/122/152 380/122/152 377/122/152
f 377/122/152 378/122/152 376/122/152
f 399/122/307 389/122/307 388/122/307
f 401/122/307 387/122/307 389/122/307
f 403/122/308 401/122/308 404/122/308
f 404/122/309 399/122/309 402/122/309
f 385/122/310 395/122/310 386/122/310
f 386/122/311 394/122/311 384/122/311
f 397/122/311 395/122/311 398/122/311
f 395/122/310 396/122/310 398/122/310
f 390/122/310 398/122/310 396/122/310
f 398/122/311 391/122/311 397/122/311
f 390/122/312 389/122/312 392/122/312
f 392/122/313 387/122/313 391/122/313
f 381/122/314 404/122/314 402/122/314
f 383/122/315 403/122/315 404/122/315
f 385/122/316 383/122/316 381/122/316
f 386/122/317 382/122/317 383/122/317
f 423/122/318 413/122/318 412/122/318
f 425/122/318 411/122/318 413/122/318
f 424/122/319 428/122/319 427/122/319
f 425/122/320 426/122/320 428/122/320
f 409/122/321 419/122/321 410/122/321
f 410/122/322 418/122/322 408/122/322
f 421/122/323 419/122/323 422/122/323
f 422/122/324 417/122/324 420/122/324
f 420/122/324 416/122/324 422/122/324
f 422/122/324 415/122/324 421/122/324
f 412/122/325 416/122/325 414/122/325
f 413/122/325 415/122/325 416/122/325
f 405/122/326 428/122/326 426/122/326
f 407/122/319 427/122/319 428/122/319
f 405/122/327 410/122/327 407/122/327
f 407/122/328 408/122/328 406/122/328
f 447/122/329 437/122/329 436/122/329
f 449/122/330 435/122/330 437/122/330
f 448/122/331 452/122/331 451/122/331
f 449/122/332 450/122/332 452/122/332
f 441/122/333 434/122/333 433/122/333
f 443/122/334 432/122/334 434/122/334
f 442/122/335 446/122/335 445/122/335
f 443/122/336 444/122/336 446/122/336
f 444/122/337 440/122/337 446/122/337
f 446/122/338 439/122/338 445/122/338
f 438/122/339 437/122/339 440/122/339
f 440/122/340 435/122/340 439/122/340
f 429/122/341 452/122/341 450/122/341
f 431/122/342 451/122/342 452/122/342
f 433/122/343 431/122/343 429/122/343
f 434/122/344 430/122/344 431/122/344
f 460/122/345 473/122/345 461/122/345
f 461/122/346 472/122/346 459/122/346
f 475/122/347 473/122/347 476/122/347
f 476/122/348 471/122/348 474/122/348
f 465/122/349 458/122/349 457/122/349
f 467/122/350 456/122/350 458/122/350
f 466/122/351 470/122/351 469/122/351
f 467/122/352 468/122/352 470/122/352
f 462/122/353 470/122/353 468/122/353
f 470/122/354 463/122/354 469/122/354
f 460/122/146 464/122/146 462/122/146
f 461/122/355 463/122/355 464/122/355
f 474/122/356 455/122/356 476/122/356
f 476/122/357 454/122/357 475/122/357
f 453/122/358 458/122/358 455/122/358
f 455/122/359 456/122/359 454/122/359
f 397/122/198 197/122/198 313/122/198
f 475/122/456 454/122/456 219/122/456
f 315/122/457 200/122/457 106/122/457
f 316/122/458 451/122/458 430/122/458
f 257/122/459 212/122/459 104/122/459
f 158/122/460 160/122/460 105/122/460
f 162/122/461 106/122/461 105/122/461
f 164/122/103 233/122/103 232/122/103
f 232/122/462 387/122/462 400/122/462
f 239/122/104 168/122/104 236/122/104
f 168/122/104 421/122/104 236/122/104
f 256/122/463 463/122/463 459/122/463
f 104/122/464 105/122/464 118/122/464
f 118/122/465 105/122/465 106/122/465
f 439/122/466 435/122/466 207/122/466
f 124/122/467 100/122/467 101/122/467
f 127/122/468 101/122/468 102/122/468
f 167/122/469 223/122/469 222/122/469
f 222/122/470 408/122/470 418/122/470
f 128/122/471 131/122/471 132/122/471
f 128/122/472 127/122/472 130/122/472
f 229/122/473 163/122/473 226/122/473
f 163/122/474 403/122/474 226/122/474
f 126/122/475 125/122/475 128/122/475
f 125/122/476 124/122/476 127/122/476
f 226/122/117 382/122/117 384/122/117
f 110/122/477 109/122/477 125/122/477
f 249/122/478 180/122/478 246/122/478
f 180/122/479 445/122/479 246/122/479
f 233/122/120 164/122/120 166/122/120
f 166/122/120 103/122/120 233/122/120
f 119/122/480 122/122/480 123/122/480
f 119/122/481 118/122/481 121/122/481
f 103/122/120 166/122/120 239/122/120
f 166/122/120 168/122/120 239/122/120
f 117/122/482 116/122/482 119/122/482
f 116/122/483 115/122/483 118/122/483
f 236/122/124 415/122/124 411/122/124
f 114/122/484 113/122/484 116/122/484
f 259/122/485 174/122/485 256/122/485
f 174/122/485 469/122/485 256/122/485
f 107/122/486 175/122/486 312/122/486
f 122/122/487 108/122/487 107/122/487
f 179/122/488 243/122/488 242/122/488
f 242/122/489 432/122/489 442/122/489
f 209/122/130 411/122/130 424/122/130
f 170/122/490 172/122/490 113/122/490
f 116/122/491 113/122/491 115/122/491
f 113/122/492 258/122/492 115/122/492
f 406/122/133 408/122/133 222/122/133
f 131/122/493 111/122/493 112/122/493
f 173/122/494 253/122/494 252/122/494
f 252/122/495 456/122/495 466/122/495
f 204/122/496 110/122/496 126/122/496
f 176/122/497 178/122/497 109/122/497
f 125/122/498 109/122/498 248/122/498
f 248/122/499 247/122/499 124/122/499
f 354/122/139 468/122/139 465/122/139
f 337/122/500 190/122/500 150/122/500
f 152/122/501 151/122/501 267/122/501
f 267/122/502 151/122/502 189/122/502
f 154/122/143 153/122/143 273/122/143
f 457/122/144 274/122/144 352/122/144
f 194/122/145 154/122/145 277/122/145
f 283/122/146 156/122/146 155/122/146
f 155/122/147 193/122/147 345/122/147
f 289/122/503 134/122/503 133/122/503
f 361/122/504 182/122/504 134/122/504
f 141/122/505 144/122/505 291/122/505
f 135/122/151 181/122/151 357/122/151
f 136/122/152 142/122/152 141/122/152
f 373/122/151 186/122/151 138/122/151
f 145/122/153 148/122/153 303/122/153
f 139/122/151 185/122/151 369/122/151
f 140/122/152 146/122/152 145/122/152
f 181/122/506 135/122/506 136/122/506
f 133/122/152 183/122/152 363/122/152
f 402/122/507 360/122/507 288/122/507
f 149/122/508 191/122/508 339/122/508
f 396/122/152 366/122/152 294/122/152
f 185/122/509 139/122/509 140/122/509
f 297/122/510 137/122/510 187/122/510
f 426/122/151 372/122/151 300/122/151
f 192/122/159 189/122/159 151/122/159
f 378/122/152 306/122/152 414/122/152
f 141/122/511 142/122/511 143/122/511
f 138/122/161 137/122/161 297/122/161
f 135/122/512 143/122/512 142/122/512
f 388/122/151 292/122/151 358/122/151
f 390/122/513 294/122/513 292/122/513
f 145/122/514 146/122/514 147/122/514
f 175/122/515 176/122/515 310/122/515
f 147/122/516 146/122/516 140/122/516
f 412/122/151 304/122/151 370/122/151
f 306/122/517 304/122/517 412/122/517
f 336/122/518 264/122/518 429/122/518
f 270/122/519 268/122/519 436/122/519
f 342/122/520 270/122/520 438/122/520
f 196/122/171 193/122/171 155/122/171
f 273/122/144 153/122/144 195/122/144
f 348/122/145 276/122/145 453/122/145
f 282/122/146 280/122/146 460/122/146
f 468/122/172 354/122/172 282/122/172
f 460/122/147 280/122/147 346/122/147
f 196/122/521 195/122/521 194/122/521
f 153/122/522 154/122/522 194/122/522
f 346/122/174 348/122/174 474/122/174
f 433/122/523 262/122/523 340/122/523
f 342/122/524 444/122/524 441/122/524
f 436/122/525 268/122/525 334/122/525
f 403/122/103 163/122/103 164/122/103
f 298/122/526 376/122/526 417/122/526
f 192/122/159 191/122/159 190/122/159
f 150/122/159 190/122/159 191/122/159
f 376/122/152 378/122/152 420/122/152
f 148/122/151 147/122/151 139/122/151
f 188/122/527 187/122/527 186/122/527
f 137/122/528 138/122/528 186/122/528
f 372/122/151 426/122/151 423/122/151
f 385/122/152 286/122/152 364/122/152
f 366/122/152 396/122/152 393/122/152
f 144/122/151 143/122/151 135/122/151
f 184/122/529 183/122/529 182/122/529
f 134/122/530 182/122/530 183/122/530
f 445/122/531 180/122/531 179/122/531
f 300/122/185 298/122/185 409/122/185
f 158/122/532 331/122/532 327/122/532
f 379/122/152 188/122/152 140/122/152
f 162/122/533 161/122/533 319/122/533
f 288/122/534 286/122/534 385/122/534
f 418/122/104 421/122/104 168/122/104
f 184/122/152 136/122/152 295/122/152
f 276/122/143 274/122/143 457/122/143
f 334/122/535 336/122/535 450/122/535
f 355/122/172 196/122/172 156/122/172
f 469/122/536 174/122/536 173/122/536
f 429/122/537 264/122/537 262/122/537
f 169/122/192 170/122/192 322/122/192
f 343/122/538 192/122/538 152/122/538
f 180/122/539 178/122/539 177/122/539
f 108/122/540 122/122/540 121/122/540
f 121/122/541 241/122/541 244/122/541
f 178/122/542 176/122/542 175/122/542
f 108/122/543 177/122/543 175/122/543
f 394/122/198 397/122/198 313/122/198
f 391/122/199 387/122/199 232/122/199
f 174/122/544 172/122/544 171/122/544
f 111/122/545 131/122/545 130/122/545
f 130/122/201 251/122/201 254/122/201
f 171/122/546 172/122/546 170/122/546
f 111/122/547 171/122/547 169/122/547
f 427/122/130 325/122/130 321/122/130
f 325/122/130 427/122/130 406/122/130
f 168/122/120 166/122/120 165/122/120
f 224/122/204 99/122/204 221/122/204
f 99/122/204 129/122/204 221/122/204
f 166/122/120 164/122/120 163/122/120
f 99/122/548 228/122/548 227/122/548
f 227/122/549 126/122/549 129/122/549
f 161/122/550 162/122/550 160/122/550
f 101/122/551 100/122/551 161/122/551
f 160/122/552 158/122/552 157/122/552
f 101/122/553 159/122/553 157/122/553
f 472/122/554 475/122/554 328/122/554
f 102/122/555 218/122/555 251/122/555
f 451/122/556 316/122/556 318/122/556
f 247/122/557 206/122/557 100/122/557
f 358/122/151 360/122/151 402/122/151
f 103/122/214 238/122/214 237/122/214
f 237/122/214 117/122/214 120/122/214
f 182/122/151 361/122/151 357/122/151
f 207/122/558 435/122/558 448/122/558
f 183/122/152 184/122/152 367/122/152
f 123/122/559 107/122/559 198/122/559
f 201/122/560 430/122/560 432/122/560
f 234/122/214 103/122/214 231/122/214
f 103/122/214 120/122/214 231/122/214
f 384/122/198 394/122/198 309/122/198
f 210/122/214 114/122/214 117/122/214
f 186/122/151 373/122/151 369/122/151
f 163/122/120 229/122/120 165/122/120
f 229/122/120 228/122/120 99/122/120
f 187/122/152 188/122/152 379/122/152
f 177/122/561 108/122/561 244/122/561
f 244/122/562 243/122/562 179/122/562
f 213/122/563 459/122/563 472/122/563
f 132/122/204 112/122/204 216/122/204
f 102/122/564 157/122/564 327/122/564
f 100/122/565 206/122/565 319/122/565
f 190/122/566 337/122/566 333/122/566
f 109/122/567 178/122/567 248/122/567
f 178/122/568 180/122/568 248/122/568
f 191/122/538 192/122/538 343/122/538
f 171/122/569 111/122/569 173/122/569
f 111/122/570 254/122/570 173/122/570
f 322/122/571 170/122/571 114/122/571
f 310/122/572 176/122/572 110/122/572
f 106/122/573 200/122/573 241/122/573
f 331/122/574 158/122/574 104/122/574
f 193/122/174 194/122/174 349/122/174
f 113/122/575 172/122/575 258/122/575
f 172/122/576 174/122/576 258/122/576
f 196/122/139 355/122/139 351/122/139
f 150/122/577 149/122/577 261/122/577
f 112/122/578 169/122/578 324/122/578
f 454/122/579 456/122/579 252/122/579
f 165/122/120 99/122/120 223/122/120
f 99/122/120 224/122/120 223/122/120
f 224/122/580 221/122/580 225/122/580
f 225/122/581 222/122/581 223/122/581
f 229/122/582 226/122/582 230/122/582
f 230/122/583 227/122/583 228/122/583
f 234/122/584 231/122/584 235/122/584
f 235/122/585 232/122/585 233/122/585
f 239/122/586 236/122/586 240/122/586
f 240/122/587 237/122/587 238/122/587
f 244/122/588 241/122/588 245/122/588
f 245/122/589 242/122/589 243/122/589
f 249/122/590 246/122/590 250/122/590
f 250/122/591 247/122/591 248/122/591
f 254/122/592 251/122/592 255/122/592
f 255/122/593 252/122/593 253/122/593
f 259/122/594 256/122/594 260/122/594
f 260/122/595 257/122/595 258/122/595
f 313/122/596 197/122/596 199/122/596
f 314/122/597 199/122/597 198/122/597
f 200/122/598 202/122/598 245/122/598
f 202/122/599 201/122/599 242/122/599
f 319/122/600 206/122/600 208/122/600
f 320/122/601 208/122/601 207/122/601
f 203/122/602 205/122/602 230/122/602
f 205/122/603 204/122/603 227/122/603
f 325/122/289 215/122/289 217/122/289
f 326/122/604 217/122/604 216/122/604
f 331/122/605 212/122/605 214/122/605
f 332/122/606 214/122/606 213/122/606
f 209/122/253 211/122/253 240/122/253
f 211/122/254 210/122/254 237/122/254
f 215/122/255 222/122/255 225/122/255
f 217/122/256 225/122/256 221/122/256
f 197/122/253 232/122/253 235/122/253
f 199/122/607 235/122/607 231/122/607
f 206/122/608 247/122/608 250/122/608
f 208/122/609 250/122/609 246/122/609
f 252/122/610 255/122/610 220/122/610
f 255/122/611 251/122/611 218/122/611
f 212/122/612 257/122/612 260/122/612
f 214/122/613 260/122/613 256/122/613
f 265/122/614 261/122/614 263/122/614
f 266/122/615 263/122/615 262/122/615
f 337/122/616 265/122/616 266/122/616
f 338/122/617 266/122/617 264/122/617
f 271/122/618 267/122/618 269/122/618
f 272/122/619 269/122/619 268/122/619
f 271/122/620 272/122/620 344/122/620
f 272/122/621 270/122/621 342/122/621
f 277/122/143 273/122/143 275/122/143
f 278/122/143 275/122/143 274/122/143
f 349/122/145 277/122/145 278/122/145
f 278/122/145 276/122/145 348/122/145
f 279/122/146 281/122/146 284/122/146
f 284/122/146 281/122/146 280/122/146
f 283/122/172 284/122/172 356/122/172
f 356/122/172 284/122/172 282/122/172
f 285/122/622 287/122/622 290/122/622
f 290/122/623 287/122/623 286/122/623
f 289/122/275 290/122/275 362/122/275
f 290/122/275 288/122/275 360/122/275
f 295/122/624 291/122/624 293/122/624
f 296/122/625 293/122/625 292/122/625
f 367/122/152 295/122/152 296/122/152
f 368/122/152 296/122/152 294/122/152
f 301/122/278 297/122/278 299/122/278
f 302/122/278 299/122/278 298/122/278
f 301/122/151 302/122/151 374/122/151
f 302/122/151 300/122/151 372/122/151
f 307/122/626 303/122/626 305/122/626
f 308/122/627 305/122/627 304/122/627
f 379/122/152 307/122/152 308/122/152
f 380/122/152 308/122/152 306/122/152
f 309/122/628 311/122/628 205/122/628
f 311/122/629 310/122/629 204/122/629
f 309/122/630 313/122/630 314/122/630
f 311/122/631 314/122/631 312/122/631
f 315/122/632 317/122/632 202/122/632
f 317/122/633 316/122/633 201/122/633
f 315/122/634 319/122/634 320/122/634
f 317/122/635 320/122/635 318/122/635
f 321/122/636 323/122/636 211/122/636
f 323/122/637 322/122/637 210/122/637
f 325/122/291 326/122/291 323/122/291
f 326/122/292 324/122/292 322/122/292
f 327/122/638 329/122/638 220/122/638
f 329/122/639 328/122/639 219/122/639
f 331/122/640 332/122/640 329/122/640
f 332/122/641 330/122/641 328/122/641
f 333/122/642 335/122/642 269/122/642
f 335/122/643 334/122/643 268/122/643
f 337/122/644 338/122/644 335/122/644
f 338/122/645 336/122/645 334/122/645
f 261/122/646 339/122/646 341/122/646
f 341/122/647 340/122/647 262/122/647
f 343/122/648 344/122/648 341/122/648
f 344/122/649 342/122/649 340/122/649
f 279/122/147 345/122/147 347/122/147
f 347/122/147 346/122/147 280/122/147
f 345/122/174 349/122/174 350/122/174
f 350/122/174 348/122/174 346/122/174
f 351/122/144 353/122/144 275/122/144
f 353/122/144 352/122/144 274/122/144
f 355/122/139 356/122/139 353/122/139
f 356/122/305 354/122/305 352/122/305
f 357/122/151 359/122/151 293/122/151
f 359/122/151 358/122/151 292/122/151
f 361/122/151 362/122/151 359/122/151
f 362/122/151 360/122/151 358/122/151
f 285/122/152 363/122/152 365/122/152
f 287/122/152 365/122/152 364/122/152
f 363/122/152 367/122/152 368/122/152
f 365/122/152 368/122/152 366/122/152
f 369/122/151 371/122/151 305/122/151
f 371/122/151 370/122/151 304/122/151
f 373/122/151 374/122/151 371/122/151
f 374/122/151 372/122/151 370/122/151
f 297/122/650 375/122/650 377/122/650
f 299/122/306 377/122/306 376/122/306
f 375/122/152 379/122/152 380/122/152
f 377/122/152 380/122/152 378/122/152
f 399/122/307 401/122/307 389/122/307
f 401/122/307 400/122/307 387/122/307
f 403/122/651 400/122/651 401/122/651
f 404/122/652 401/122/652 399/122/652
f 385/122/310 393/122/310 395/122/310
f 386/122/311 395/122/311 394/122/311
f 397/122/311 394/122/311 395/122/311
f 395/122/310 393/122/310 396/122/310
f 390/122/310 392/122/310 398/122/310
f 398/122/311 392/122/311 391/122/311
f 390/122/653 388/122/653 389/122/653
f 392/122/654 389/122/654 387/122/654
f 381/122/314 383/122/314 404/122/314
f 383/122/655 382/122/655 403/122/655
f 385/122/656 386/122/656 383/122/656
f 386/122/657 384/122/657 382/122/657
f 423/122/318 425/122/318 413/122/318
f 425/122/318 424/122/318 411/122/318
f 424/122/658 425/122/658 428/122/658
f 425/122/318 423/122/318 426/122/318
f 409/122/659 417/122/659 419/122/659
f 410/122/660 419/122/660 418/122/660
f 421/122/661 418/122/661 419/122/661
f 422/122/662 419/122/662 417/122/662
f 420/122/324 414/122/324 416/122/324
f 422/122/324 416/122/324 415/122/324
f 412/122/325 413/122/325 416/122/325
f 413/122/325 411/122/325 415/122/325
f 405/122/326 407/122/326 428/122/326
f 407/122/319 406/122/319 427/122/319
f 405/122/327 409/122/327 410/122/327
f 407/122/328 410/122/328 408/122/328
f 447/122/663 449/122/663 437/122/663
f 449/122/664 448/122/664 435/122/664
f 448/122/665 449/122/665 452/122/665
f 449/122/666 447/122/666 450/122/666
f 441/122/667 443/122/667 434/122/667
f 443/122/668 442/122/668 432/122/668
f 442/122/669 443/122/669 446/122/669
f 443/122/670 441/122/670 444/122/670
f 444/122/671 438/122/671 440/122/671
f 446/122/672 440/122/672 439/122/672
f 438/122/673 436/122/673 437/122/673
f 440/122/674 437/122/674 435/122/674
f 429/122/675 431/122/675 452/122/675
f 431/122/676 430/122/676 451/122/676
f 433/122/677 434/122/677 431/122/677
f 434/122/678 432/122/678 430/122/678
f 460/122/679 471/122/679 473/122/679
f 461/122/680 473/122/680 472/122/680
f 475/122/681 472/122/681 473/122/681
f 476/122/682 473/122/682 471/122/682
f 465/122/683 467/122/683 458/122/683
f 467/122/684 466/122/684 456/122/684
f 466/122/685 467/122/685 470/122/685
f 467/122/686 465/122/686 468/122/686
f 462/122/687 464/122/687 470/122/687
f 470/122/687 464/122/687 463/122/687
f 460/122/688 461/122/688 464/122/688
f 461/122/689 459/122/689 463/122/689
f 474/122/690 453/122/690 455/122/690
f 476/122/691 455/122/691 454/122/691
f 453/122/692 457/122/692 458/122/692
f 455/122/693 458/122/693 456/122/693
f 397/122/198 391/122/198 197/122/198
