# Blender 4.2.14 LTS
# www.blender.org
mtllib player.mtl
o 立方体
v -0.302457 -0.520000 0.320520
v -0.302457 0.386698 0.320520
v -0.484506 -0.520000 -0.529929
v -0.484506 0.520000 -0.529929
v 0.302457 -0.520000 0.320520
v 0.302457 0.386698 0.320520
v 0.401482 -0.520000 -0.529929
v 0.401482 0.520000 -0.529929
v -0.302457 -0.066651 0.320520
v -0.484506 0.348422 -1.060245
v 0.401482 0.348422 -1.060245
v 0.302457 -0.066651 0.320520
vn -0.9847 -0.1128 0.1330
vn -0.0000 0.9514 -0.3078
vn 0.9954 -0.0620 0.0731
vn -0.0000 -0.0000 1.0000
vn -0.0000 -1.0000 -0.0000
vn -0.0000 0.9879 0.1549
vn 0.9947 0.0383 0.0954
vn -0.0000 -0.5212 -0.8535
vn -0.9824 0.0695 0.1732
vt 0.500000 0.000000
vt 0.625000 0.000000
vt 0.625000 0.250000
vt 0.500000 0.250000
vt 0.625000 0.500000
vt 0.500000 0.500000
vt 0.625000 0.750000
vt 0.500000 0.750000
vt 0.625000 1.000000
vt 0.500000 1.000000
vt 0.125000 0.500000
vt 0.375000 0.500000
vt 0.375000 0.750000
vt 0.125000 0.750000
vt 0.875000 0.500000
vt 0.875000 0.750000
vt 0.375000 1.000000
vt 0.375000 0.250000
vt 0.375000 0.000000
s 0
usemtl マテリアル.001
f 9/1/1 2/2/1 4/3/1 10/4/1
f 10/4/2 4/3/2 8/5/2 11/6/2
f 11/6/3 8/5/3 6/7/3 12/8/3
f 12/8/4 6/7/4 2/9/4 9/10/4
f 3/11/5 7/12/5 5/13/5 1/14/5
f 8/5/6 4/15/6 2/16/6 6/7/6
f 5/13/4 12/8/4 9/10/4 1/17/4
f 7/12/7 11/6/7 12/8/7 5/13/7
f 3/18/8 10/4/8 11/6/8 7/12/8
f 1/19/9 9/1/9 10/4/9 3/18/9
