vt 0.125 0.5
vt 0.375 0.5
vt 0.625 0.5
vt 0.875 0.5
# Blender v2.79 (sub 0) OBJ File: 'Axe_Double.blend'
# www.blender.org
mtllib Axe_Double.mtl
o Axe_Double_Cylinder.004
v 0.665880 -2.272417 -0.059306
v 0.690445 -2.272417 -0.000000
v 0.665880 -2.272417 0.059306
v 0.666425 -2.045993 0.060008
v 0.666443 -1.876915 0.060709
v 0.671046 -1.855280 0.061411
v 0.665437 -1.672012 0.062112
v 0.657253 -1.636438 0.062814
v 0.672127 -1.439670 0.063515
v 0.670791 -1.416592 0.064216
v 0.666425 -2.045993 -0.060008
v 0.666443 -1.876915 -0.060709
v 0.671046 -1.855280 -0.061411
v 0.665437 -1.672012 -0.062112
v 0.657126 -1.637069 -0.062814
v 0.672127 -1.439670 -0.063515
v 0.670791 -1.416592 -0.064217
v 0.697390 -1.412730 -0.000000
v 0.698447 -1.433018 -0.000000
v 0.685562 -1.627717 -0.000000
v 0.690581 -1.677461 -0.000000
v 0.696453 -1.856518 -0.000000
v 0.691241 -1.872746 -0.000000
v 0.690449 -2.039613 -0.000000
v 0.683824 -2.024599 0.078010
v 0.684404 -1.896298 0.078922
v 0.683824 -2.024599 -0.078010
v 0.684404 -1.896298 -0.078922
v 0.713861 -1.900147 -0.000000
v 0.708567 -2.007964 -0.000000
v 0.682665 -1.831924 0.079834
v 0.684153 -1.702475 0.080746
v 0.682665 -1.831924 -0.079834
v 0.684153 -1.702475 -0.080746
v 0.711654 -1.721244 -0.000000
v 0.715694 -1.833533 -0.000000
v 0.674933 -1.608371 0.081658
v 0.681259 -1.473909 0.082570
v 0.674933 -1.608371 -0.081658
v 0.681259 -1.473909 -0.082570
v 0.718773 -1.469448 -0.000000
v 0.706983 -1.592508 -0.000000
v 0.526816 -1.239378 0.070504
v 0.497612 -1.256614 -0.000000
v 0.725723 -1.261798 -0.000000
v 0.724635 -1.359510 -0.000000
v 0.690055 -1.376245 -0.083482
v 0.690055 -1.376245 0.083481
v 0.690825 -1.261798 0.084251
v 0.690825 -1.261798 -0.084251
v 0.606574 -2.272417 -0.083872
v 0.547268 -2.272417 -0.059306
v 0.522702 -2.272417 -0.000000
v 0.547268 -2.272417 0.059306
v 0.606574 -2.272417 0.083872
v 0.850948 -3.043086 -0.084905
v 0.881509 -3.025683 -0.000000
v 0.850948 -3.043086 0.084905
v 0.606574 -1.428822 -0.090816
v 0.606574 -1.453762 -0.089824
v 0.604889 -1.635699 -0.088832
v 0.600777 -1.659432 -0.087840
v 0.608584 -1.863906 -0.086848
v 0.606574 -1.886979 -0.085856
v 0.608428 -2.061393 -0.084864
v 0.550430 -2.076794 0.060008
v 0.546704 -1.897044 0.060709
v 0.546562 -1.849343 0.061411
v 0.540400 -1.659944 0.062112
v 0.543760 -1.637597 0.062814
v 0.543058 -1.473715 0.063515
v 0.540426 -1.450062 0.064216
v 0.606574 -1.428822 0.090816
v 0.606574 -1.453762 0.089824
v 0.604889 -1.635699 0.088832
v 0.600777 -1.659432 0.087840
v 0.608584 -1.863906 0.086848
v 0.606574 -1.886979 0.085856
v 0.608428 -2.061393 0.084864
v 0.550430 -2.076794 -0.060008
v 0.546704 -1.897044 -0.060709
v 0.546562 -1.849343 -0.061411
v 0.540400 -1.659944 -0.062112
v 0.543760 -1.636953 -0.062814
v 0.543058 -1.473715 -0.063515
v 0.542357 -1.450062 -0.064217
v 0.515758 -1.455855 -0.000000
v 0.516750 -1.473715 -0.000000
v 0.517742 -1.640376 -0.000000
v 0.515281 -1.660826 -0.000000
v 0.522072 -1.842467 -0.000000
v 0.521906 -1.901212 -0.000000
v 0.526406 -2.083173 -0.000000
v 0.606574 -1.909382 -0.111612
v 0.608428 -2.044620 -0.110323
v 0.533030 -2.048528 0.078010
v 0.528744 -1.922466 0.078922
v 0.606574 -1.909382 0.111612
v 0.608428 -2.044620 0.110323
v 0.533030 -2.048528 -0.078010
v 0.528744 -1.922466 -0.078922
v 0.502067 -1.941788 -0.000000
v 0.506434 -2.053469 -0.000000
v 0.601282 -1.685948 -0.114192
v 0.608105 -1.838728 -0.112902
v 0.528345 -1.819185 0.079834
v 0.522712 -1.682431 0.080746
v 0.601282 -1.685948 0.114192
v 0.608105 -1.838728 0.112902
v 0.528345 -1.819185 -0.079834
v 0.522712 -1.682431 -0.080746
v 0.491955 -1.693702 -0.000000
v 0.502436 -1.796999 -0.000000
v 0.606574 -1.485608 -0.116771
v 0.607592 -1.622334 -0.115481
v 0.524916 -1.613425 0.081658
v 0.524004 -1.505561 0.082570
v 0.606574 -1.485608 0.116771
v 0.607592 -1.622334 0.115481
v 0.524916 -1.614929 -0.081658
v 0.524004 -1.505561 -0.082570
v 0.489803 -1.517147 -0.000000
v 0.487224 -1.614918 -0.000000
v 0.605752 -1.239314 0.099708
v 0.605752 -1.239314 -0.099708
v 0.676256 -1.224558 -0.070504
v 0.676256 -1.224558 0.070504
v 0.705460 -1.224558 -0.000000
v 0.606574 -1.279431 -0.119149
v 0.606574 -1.388475 -0.118061
v 0.606574 -1.279431 0.119149
v 0.606574 -1.388475 0.118061
v 0.477349 -1.300104 -0.000000
v 0.488513 -1.415508 -0.000000
v 0.523092 -1.415508 -0.083482
v 0.523092 -1.415508 0.083481
v 0.512247 -1.279508 0.084251
v 0.512247 -1.279508 -0.084251
v 0.731815 -3.062208 -0.120074
v 0.675917 -3.159153 -0.084905
v 0.645356 -3.176555 -0.000000
v 0.675917 -3.159153 0.084905
v 0.731815 -3.062208 0.120074
v 0.637444 -2.603571 0.100821
v 0.607908 -2.093750 -0.084533
v 0.603770 -2.251336 -0.084202
v 0.607908 -2.093750 0.084533
v 0.603770 -2.251336 0.084202
v 0.693018 -2.067848 -0.000000
v 0.688233 -2.231220 -0.000000
v 0.663896 -2.228603 0.059540
v 0.668444 -2.067644 0.059774
v 0.663896 -2.228603 -0.059540
v 0.668444 -2.067644 -0.059774
v 0.524007 -2.093051 -0.000000
v 0.520427 -2.257499 -0.000000
v 0.544838 -2.255694 0.059540
v 0.548581 -2.093256 0.059774
v 0.544838 -2.255694 -0.059540
v 0.548581 -2.093256 -0.059774
v 0.618347 -2.103816 -0.100961
v 0.604053 -2.229886 -0.100566
v 0.613995 -2.108167 0.100961
v 0.604053 -2.229886 0.100566
v 0.711720 -2.096408 -0.000000
v 0.708209 -2.213486 -0.000000
v 0.679233 -2.209898 0.071111
v 0.679433 -2.088743 0.071390
v 0.679233 -2.209898 -0.071111
v 0.679433 -2.088743 -0.071390
v 0.504425 -2.114117 -0.000000
v 0.504534 -2.235640 -0.000000
v 0.533682 -2.233955 0.071111
v 0.537334 -2.109693 0.071390
v 0.533682 -2.233955 -0.071111
v 0.537334 -2.109693 -0.071390
v 0.566215 -2.606556 0.071291
v 0.536711 -2.607793 -0.000000
v 0.566215 -2.606556 -0.071292
v 0.637444 -2.603571 -0.100822
v 0.708673 -2.600586 0.071291
v 0.738177 -2.599350 -0.000000
v 0.708673 -2.600586 -0.071292
v 0.526816 -1.239378 -0.070504
v 0.521706 1.172481 0.070504
v 0.492502 1.172481 0.000000
v 0.600642 1.172481 0.099708
v 0.600642 1.172481 -0.099708
v 0.673332 1.175280 -0.070504
v 0.673332 1.175280 0.070504
v 0.702410 1.177996 0.000000
v 0.521706 1.172481 -0.070504
v 0.521706 1.274204 0.070504
v 0.492502 1.274204 0.000000
v 0.600642 1.274204 0.099708
v 0.600642 1.274204 -0.099708
v 0.666845 1.268711 -0.070504
v 0.666845 1.268711 0.070504
v 0.695818 1.265048 0.000000
v 0.521706 1.274204 -0.070504
v 0.521706 1.410451 0.070504
v 0.492502 1.410451 0.000000
v 0.600642 1.410451 0.099708
v 0.600642 1.410451 -0.099708
v 0.671146 1.410451 -0.070504
v 0.671146 1.410451 0.070504
v 0.700350 1.410451 0.000000
v 0.521706 1.410451 -0.070504
v 0.508805 1.426346 0.082677
v 0.474559 1.426346 0.000000
v 0.601370 1.426346 0.116922
v 0.601370 1.426346 -0.116922
v 0.684046 1.426346 -0.082677
v 0.684046 1.426346 0.082677
v 0.718292 1.426346 0.000000
v 0.508805 1.426346 -0.082676
v 0.502550 2.196699 0.082677
v 0.468345 2.198360 0.000000
v 0.595006 2.192208 0.116922
v 0.595006 2.192208 -0.116922
v 0.677585 2.188197 -0.082676
v 0.677585 2.188197 0.082677
v 0.711791 2.186536 0.000000
v 0.502550 2.196699 -0.082676
v 0.525666 2.221503 0.060839
v 0.500496 2.222726 0.000000
v 0.593702 2.218199 0.086040
v 0.593702 2.218199 -0.086039
v 0.654470 2.215248 -0.060839
v 0.654470 2.215248 0.060839
v 0.679640 2.214025 0.000000
v 0.525666 2.221503 -0.060839
v 0.479663 1.183843 0.000000
v 0.503392 1.185332 0.087784
v 0.503392 1.185332 -0.087784
v 0.601675 1.185332 0.124145
v 0.601675 1.185332 -0.124145
v 0.726199 1.205700 0.000000
v 0.690536 1.198603 0.087784
v 0.690536 1.198603 -0.087784
v 0.470368 1.259293 0.000000
v 0.503392 1.261353 0.087784
v 0.503392 1.261353 -0.087784
v 0.601675 1.261353 0.124145
v 0.601675 1.261353 -0.124145
v 0.719476 1.249102 0.000000
v 0.683401 1.253664 0.087784
v 0.683401 1.253664 -0.087784
v 1.116063 2.365262 0.026858
v 1.070866 2.257161 -0.026858
v 1.070866 2.257161 0.026858
v 1.115819 2.462476 0.026858
v 1.116063 2.365262 -0.026858
v 0.783512 2.053022 0.026858
v 0.913644 2.079103 -0.026858
v 0.992255 2.132212 -0.026858
v 0.992255 2.132212 0.026858
v 0.913644 2.079103 0.026858
v 0.693544 1.768227 0.026858
v 0.783512 2.053022 -0.026858
v 1.494338 2.318690 0.026858
v 1.494338 2.318690 -0.026858
v 1.547158 2.318690 -0.000000
v 1.163319 2.040853 0.026858
v 0.992255 1.975234 -0.026858
v 1.070866 2.018164 0.026858
v 1.163319 2.040853 -0.026858
v 0.788470 1.949422 0.026858
v 0.913644 1.957973 0.026858
v 0.788470 1.949422 -0.026858
v 1.070866 2.018164 -0.026858
v 0.992255 1.975234 0.026858
v 0.913644 1.957973 -0.026858
v 0.693544 1.949422 -0.026858
v 1.582947 2.036839 0.026858
v 1.582947 2.036839 -0.026858
v 1.635766 2.036839 -0.000000
v 1.115819 2.462476 -0.026858
v 1.456006 2.526001 0.026858
v 1.456006 2.526001 -0.026858
v 1.507812 2.536298 -0.000000
v 1.038750 2.619816 0.026858
v 1.038750 2.619816 -0.026858
v 1.308725 2.770563 0.026858
v 1.308725 2.770563 -0.026858
v 1.348050 2.805825 -0.000000
v 0.913207 2.726773 0.026858
v 0.913207 2.726773 -0.026858
v 1.087856 2.981938 0.026858
v 1.087856 2.981938 -0.026858
v 1.107374 3.031019 -0.000000
v 1.284972 2.494062 -0.026858
v 0.833175 3.123754 0.026858
v 0.833175 3.123754 -0.026858
v 0.831783 3.176555 -0.000000
v 1.315570 2.343143 -0.026858
v 1.315570 2.343143 0.026858
v 1.371972 2.038857 -0.026858
v 1.371972 2.038857 0.026858
v 1.284972 2.494062 0.026858
v 1.172991 2.694772 -0.026858
v 1.172991 2.694772 0.026858
v 1.000049 2.853650 -0.026858
v 1.000049 2.853650 0.026858
v 0.918325 2.911736 0.026858
v 0.918148 2.912618 -0.026858
v 1.116063 1.455987 0.026858
v 1.070866 1.564088 -0.026858
v 1.070866 1.564088 0.026858
v 1.115819 1.358774 0.026858
v 1.116063 1.455987 -0.026858
v 0.783512 1.768227 0.026858
v 0.913644 1.742146 -0.026858
v 0.992255 1.689037 -0.026858
v 0.992255 1.689037 0.026858
v 0.913644 1.742146 0.026858
v 0.693544 1.949422 0.026858
v 0.783512 1.768227 -0.026858
v 1.517295 1.500472 0.026858
v 1.517295 1.500472 -0.026858
v 1.570115 1.500472 -0.000000
v 1.163319 1.780396 0.026858
v 0.992255 1.846015 -0.026858
v 1.070866 1.803085 0.026858
v 1.163319 1.780396 -0.026858
v 0.788470 1.871827 0.026858
v 0.913644 1.863276 0.026858
v 0.788470 1.871827 -0.026858
v 1.070866 1.803085 -0.026858
v 0.992255 1.846015 0.026858
v 0.913644 1.863276 -0.026858
v 0.693544 2.053022 -0.026858
v 1.582947 1.784410 0.026858
v 1.582947 1.784410 -0.026858
v 1.635766 1.784410 -0.000000
v 1.115819 1.358774 -0.026858
v 1.456006 1.295248 0.026858
v 1.456006 1.295248 -0.026858
v 1.507812 1.284951 -0.000000
v 1.038750 1.201434 0.026858
v 1.038750 1.201434 -0.026858
v 1.308725 1.050686 0.026858
v 1.308725 1.050686 -0.026858
v 1.348050 1.015424 -0.000000
v 0.913207 1.094476 0.026858
v 0.913207 1.094476 -0.026858
v 1.087856 0.839311 0.026858
v 1.087856 0.839311 -0.026858
v 1.107374 0.790230 -0.000000
v 1.284972 1.327187 -0.026858
v 0.833175 0.697495 0.026858
v 0.833175 0.697495 -0.026858
v 0.831783 0.644694 -0.000000
v 1.315570 1.478106 -0.026858
v 1.315570 1.478106 0.026858
v 1.371972 1.782392 -0.026858
v 1.371972 1.782392 0.026858
v 1.284972 1.327187 0.026858
v 1.172991 1.126477 -0.026858
v 1.172991 1.126477 0.026858
v 1.000049 0.967599 -0.026858
v 1.000049 0.967599 0.026858
v 0.918325 0.909513 0.026858
v 0.918148 0.908631 -0.026858
v 1.159353 1.910625 0.026858
v 0.992255 1.910625 -0.026858
v 1.070866 1.910625 0.026858
v 1.159353 1.910625 -0.026858
v 0.790949 1.910625 0.026858
v 0.913644 1.910625 0.026858
v 0.790949 1.910625 -0.026858
v 1.070866 1.910625 -0.026858
v 0.992255 1.910625 0.026858
v 0.913644 1.910625 -0.026858
v 0.693544 2.053022 0.026858
v 1.586339 1.910625 0.026858
v 1.586339 1.910625 -0.026858
v 1.639158 1.910625 -0.000000
v 1.371665 1.910625 0.026858
v 1.371665 1.910625 -0.026858
v 0.693544 1.768227 -0.026858
v 0.693544 1.871827 0.026858
v 0.693544 1.871827 -0.026858
v 0.693544 1.910625 0.026858
v 0.693544 1.910625 -0.026858
v 1.467825 2.456109 -0.000000
v 1.549347 2.392617 -0.000000
v 1.496865 2.389185 -0.026858
v 1.415680 2.449245 -0.026858
v 1.153583 2.438767 0.026858
v 1.115982 2.397667 0.026858
v 1.496865 2.389185 0.026858
v 1.415680 2.449245 0.026858
v 1.115982 2.397667 -0.026858
v 1.153583 2.438767 -0.026858
v 1.305370 2.393450 -0.026858
v 1.295171 2.443756 -0.026858
v 1.305370 2.393450 0.026858
v 1.295171 2.443756 0.026858
v 0.693544 1.891226 -0.026858
v 0.693544 1.891226 0.026858
v 1.161336 1.845510 0.026858
v 0.992255 1.878320 -0.026858
v 1.070866 1.856855 0.026858
v 1.161336 1.845510 -0.026858
v 0.789710 1.891226 0.026858
v 0.913644 1.886950 0.026858
v 0.789710 1.891226 -0.026858
v 1.541163 1.847517 0.026858
v 1.541163 1.847517 -0.026858
v 1.371819 1.846508 0.026858
v 1.070866 1.856855 -0.026858
v 0.992255 1.878320 0.026858
v 0.913644 1.886950 -0.026858
v 1.593983 1.847517 -0.000000
v 1.371819 1.846508 -0.026858
v 1.477459 2.037848 -0.026858
v 1.477459 2.037848 0.026858
v 1.370489 2.510032 -0.026858
v 1.404954 2.330916 -0.026858
v 1.404954 2.330916 0.026858
v 1.370489 2.510032 0.026858
v 1.240858 2.732668 -0.026858
v 1.240858 2.732668 0.026858
v 1.043952 2.917794 -0.026858
v 1.043952 2.917794 0.026858
v 0.959085 2.963395 0.026858
v 0.958996 2.963837 -0.026858
v 1.479002 1.910625 0.026858
v 1.479002 1.910625 -0.026858
v 1.477459 1.783401 -0.026858
v 1.477459 1.783401 0.026858
v 1.370489 1.311217 -0.026858
v 1.416432 1.489289 -0.026858
v 1.416432 1.489289 0.026858
v 1.370489 1.311217 0.026858
v 1.240858 1.088581 -0.026858
v 1.240858 1.088581 0.026858
v 1.043952 0.903455 -0.026858
v 1.043952 0.903455 0.026858
v 0.875750 0.803504 0.026858
v 0.875661 0.803063 -0.026858
v 1.401118 2.391317 -0.026858
v 1.367020 2.446500 -0.026858
v 1.401118 2.391317 0.026858
v 1.367020 2.446500 0.026858
v 1.456491 1.847013 0.026858
v 1.456491 1.847013 -0.026858
v 0.099964 2.365262 0.026858
v 0.145161 2.257161 -0.026858
v 0.145161 2.257161 0.026858
v 0.100208 2.462476 0.026858
v 0.099964 2.365262 -0.026858
v 0.432515 2.053022 0.026858
v 0.302383 2.079103 -0.026858
v 0.223772 2.132212 -0.026858
v 0.223772 2.132212 0.026858
v 0.302383 2.079103 0.026858
v 0.522484 1.768227 0.026858
v 0.432515 2.053022 -0.026858
v -0.278311 2.318690 0.026858
v -0.278311 2.318690 -0.026858
v -0.331130 2.318690 -0.000000
v 0.052708 2.040853 0.026858
v 0.223772 1.975234 -0.026858
v 0.145161 2.018164 0.026858
v 0.052708 2.040853 -0.026858
v 0.427557 1.949422 0.026858
v 0.302383 1.957973 0.026858
v 0.427557 1.949422 -0.026858
v 0.145161 2.018164 -0.026858
v 0.223772 1.975234 0.026858
v 0.302383 1.957973 -0.026858
v 0.522484 1.949422 -0.026858
v -0.366919 2.036839 0.026858
v -0.366919 2.036839 -0.026858
v -0.419739 2.036839 -0.000000
v 0.100208 2.462476 -0.026858
v -0.239979 2.526001 0.026858
v -0.239979 2.526001 -0.026858
v -0.291785 2.536298 -0.000000
v 0.177277 2.619816 0.026858
v 0.177277 2.619816 -0.026858
v -0.092697 2.770563 0.026858
v -0.092697 2.770563 -0.026858
v -0.132023 2.805825 -0.000000
v 0.302820 2.726773 0.026858
v 0.302820 2.726773 -0.026858
v 0.128171 2.981938 0.026858
v 0.128171 2.981938 -0.026858
v 0.108653 3.031019 -0.000000
v -0.068944 2.494062 -0.026858
v 0.382852 3.123754 0.026858
v 0.382852 3.123754 -0.026858
v 0.384244 3.176555 -0.000000
v -0.099542 2.343143 -0.026858
v -0.099542 2.343143 0.026858
v -0.155945 2.038857 -0.026858
v -0.155945 2.038857 0.026858
v -0.068944 2.494062 0.026858
v 0.043037 2.694772 -0.026858
v 0.043037 2.694772 0.026858
v 0.215979 2.853650 -0.026858
v 0.215979 2.853650 0.026858
v 0.297702 2.911736 0.026858
v 0.297880 2.912618 -0.026858
v 0.099964 1.455987 0.026858
v 0.145161 1.564088 -0.026858
v 0.145161 1.564088 0.026858
v 0.100208 1.358774 0.026858
v 0.099964 1.455987 -0.026858
v 0.432515 1.768227 0.026858
v 0.302383 1.742146 -0.026858
v 0.223772 1.689037 -0.026858
v 0.223772 1.689037 0.026858
v 0.302383 1.742146 0.026858
v 0.522484 1.949422 0.026858
v 0.432515 1.768227 -0.026858
v -0.301268 1.500472 0.026858
v -0.301268 1.500472 -0.026858
v -0.354087 1.500472 -0.000000
v 0.052708 1.780396 0.026858
v 0.223772 1.846015 -0.026858
v 0.145161 1.803085 0.026858
v 0.052708 1.780396 -0.026858
v 0.427557 1.871827 0.026858
v 0.302383 1.863276 0.026858
v 0.427557 1.871827 -0.026858
v 0.145161 1.803085 -0.026858
v 0.223772 1.846015 0.026858
v 0.302383 1.863276 -0.026858
v 0.522484 2.053022 -0.026858
v -0.366919 1.784410 0.026858
v -0.366919 1.784410 -0.026858
v -0.419739 1.784410 -0.000000
v 0.100208 1.358774 -0.026858
v -0.239979 1.295248 0.026858
v -0.239979 1.295248 -0.026858
v -0.291785 1.284951 -0.000000
v 0.177277 1.201434 0.026858
v 0.177277 1.201434 -0.026858
v -0.092697 1.050686 0.026858
v -0.092697 1.050686 -0.026858
v -0.132023 1.015424 -0.000000
v 0.302820 1.094476 0.026858
v 0.302820 1.094476 -0.026858
v 0.128171 0.839311 0.026858
v 0.128171 0.839311 -0.026858
v 0.108653 0.790230 -0.000000
v -0.068944 1.327187 -0.026858
v 0.382852 0.697495 0.026858
v 0.382852 0.697495 -0.026858
v 0.384244 0.644694 -0.000000
v -0.099542 1.478106 -0.026858
v -0.099542 1.478106 0.026858
v -0.155945 1.782392 -0.026858
v -0.155945 1.782392 0.026858
v -0.068944 1.327187 0.026858
v 0.043037 1.126477 -0.026858
v 0.043037 1.126477 0.026858
v 0.215979 0.967599 -0.026858
v 0.215979 0.967599 0.026858
v 0.297702 0.909513 0.026858
v 0.297880 0.908631 -0.026858
v 0.056675 1.910625 0.026858
v 0.223772 1.910625 -0.026858
v 0.145161 1.910625 0.026858
v 0.056675 1.910625 -0.026858
v 0.425078 1.910625 0.026858
v 0.302383 1.910625 0.026858
v 0.425078 1.910625 -0.026858
v 0.145161 1.910625 -0.026858
v 0.223772 1.910625 0.026858
v 0.302383 1.910625 -0.026858
v 0.522484 2.053022 0.026858
v -0.370312 1.910625 0.026858
v -0.370312 1.910625 -0.026858
v -0.423131 1.910625 -0.000000
v -0.155638 1.910625 0.026858
v -0.155638 1.910625 -0.026858
v 0.522484 1.768227 -0.026858
v 0.522484 1.871827 0.026858
v 0.522484 1.871827 -0.026858
v 0.522484 1.910625 0.026858
v 0.522484 1.910625 -0.026858
v -0.346732 2.456109 -0.000000
v -0.333320 2.392617 -0.000000
v -0.280838 2.389185 -0.026858
v -0.294588 2.449245 -0.026858
v 0.101122 2.438767 0.026858
v 0.100045 2.397667 0.026858
v -0.280838 2.389185 0.026858
v -0.294588 2.449245 0.026858
v 0.100045 2.397667 -0.026858
v 0.101122 2.438767 -0.026858
v -0.089343 2.393450 -0.026858
v -0.079144 2.443756 -0.026858
v -0.089343 2.393450 0.026858
v -0.079144 2.443756 0.026858
v 0.522484 1.891226 -0.026858
v 0.522484 1.891226 0.026858
v 0.054691 1.845510 0.026858
v 0.223772 1.878320 -0.026858
v 0.145161 1.856855 0.026858
v 0.054691 1.845510 -0.026858
v 0.426318 1.891226 0.026858
v 0.302383 1.886950 0.026858
v 0.426318 1.891226 -0.026858
v -0.325136 1.847517 0.026858
v -0.325136 1.847517 -0.026858
v -0.155791 1.846508 0.026858
v 0.145161 1.856855 -0.026858
v 0.223772 1.878320 0.026858
v 0.302383 1.886950 -0.026858
v -0.377956 1.847517 -0.000000
v -0.155791 1.846508 -0.026858
v -0.261432 2.037848 -0.026858
v -0.261432 2.037848 0.026858
v -0.154461 2.510032 -0.026858
v -0.188927 2.330916 -0.026858
v -0.188927 2.330916 0.026858
v -0.154461 2.510032 0.026858
v -0.024830 2.732668 -0.026858
v -0.024830 2.732668 0.026858
v 0.172075 2.917794 -0.026858
v 0.172075 2.917794 0.026858
v 0.256942 2.963395 0.026858
v 0.257031 2.963837 -0.026858
v -0.262975 1.910625 0.026858
v -0.262975 1.910625 -0.026858
v -0.261432 1.783401 -0.026858
v -0.261432 1.783401 0.026858
v -0.154461 1.311217 -0.026858
v -0.200405 1.489289 -0.026858
v -0.200405 1.489289 0.026858
v -0.154461 1.311217 0.026858
v -0.024830 1.088581 -0.026858
v -0.024830 1.088581 0.026858
v 0.172075 0.903455 -0.026858
v 0.172075 0.903455 0.026858
v 0.340277 0.803504 0.026858
v 0.340366 0.803063 -0.026858
v -0.185090 2.391317 -0.026858
v -0.150993 2.446500 -0.026858
v -0.185090 2.391317 0.026858
v -0.150993 2.446500 0.026858
v -0.240464 1.847013 0.026858
v -0.240464 1.847013 -0.026858
v 0.521706 -0.198089 0.070504
v 0.600642 -0.198057 0.099708
v 0.492502 -0.206707 0.000000
v 0.672239 -0.189279 -0.070504
v 0.600642 -0.198057 -0.099708
v 0.701380 -0.187922 0.000000
v 0.521706 -0.198089 -0.070504
v 0.672239 -0.189279 0.070504
v 0.666425 -1.003062 0.060008
v 0.666443 -0.833984 0.060709
v 0.671046 -0.812350 0.061411
v 0.665437 -0.629082 0.062112
v 0.657253 -0.593507 0.062814
v 0.672127 -0.396740 0.063515
v 0.670791 -0.373662 0.064216
v 0.666425 -1.003062 -0.060008
v 0.666443 -0.833984 -0.060709
v 0.671046 -0.812350 -0.061411
v 0.665437 -0.629082 -0.062112
v 0.657126 -0.594138 -0.062814
v 0.672127 -0.396740 -0.063515
v 0.670791 -0.373662 -0.064217
v 0.697390 -0.369800 -0.000000
v 0.698447 -0.390087 -0.000000
v 0.685562 -0.584786 -0.000000
v 0.690581 -0.634531 -0.000000
v 0.696453 -0.813587 -0.000000
v 0.691241 -0.829816 -0.000000
v 0.690449 -0.996683 -0.000000
v 0.683824 -0.981668 0.078010
v 0.684404 -0.853368 0.078922
v 0.683824 -0.981668 -0.078010
v 0.684404 -0.853368 -0.078922
v 0.713861 -0.857217 -0.000000
v 0.708567 -0.965034 -0.000000
v 0.682665 -0.788993 0.079834
v 0.684153 -0.659544 0.080746
v 0.682665 -0.788993 -0.079834
v 0.684153 -0.659544 -0.080746
v 0.711654 -0.678314 -0.000000
v 0.715694 -0.790602 -0.000000
v 0.674933 -0.565441 0.081658
v 0.681259 -0.430979 0.082570
v 0.674933 -0.565441 -0.081658
v 0.681259 -0.430979 -0.082570
v 0.718773 -0.426518 -0.000000
v 0.706983 -0.549577 -0.000000
v 0.526816 -0.196447 0.070504
v 0.497612 -0.213684 -0.000000
v 0.725723 -0.218868 -0.000000
v 0.724635 -0.316580 -0.000000
v 0.690055 -0.333315 -0.083482
v 0.690055 -0.333315 0.083481
v 0.690825 -0.218868 0.084251
v 0.690825 -0.218868 -0.084251
v 0.606574 -0.385891 -0.090816
v 0.606574 -0.410831 -0.089824
v 0.604889 -0.592768 -0.088832
v 0.600777 -0.616502 -0.087840
v 0.608584 -0.820976 -0.086848
v 0.606574 -0.844049 -0.085856
v 0.608428 -1.018463 -0.084864
v 0.550430 -1.033863 0.060008
v 0.546704 -0.854113 0.060709
v 0.546562 -0.806413 0.061411
v 0.540400 -0.617014 0.062112
v 0.543760 -0.594666 0.062814
v 0.543058 -0.430784 0.063515
v 0.540426 -0.407132 0.064216
v 0.606574 -0.385891 0.090816
v 0.606574 -0.410831 0.089824
v 0.604889 -0.592768 0.088832
v 0.600777 -0.616502 0.087840
v 0.608584 -0.820976 0.086848
v 0.606574 -0.844049 0.085856
v 0.608428 -1.018463 0.084864
v 0.550430 -1.033863 -0.060008
v 0.546704 -0.854113 -0.060709
v 0.546562 -0.806413 -0.061411
v 0.540400 -0.617014 -0.062112
v 0.543760 -0.594022 -0.062814
v 0.543058 -0.430784 -0.063515
v 0.542357 -0.407132 -0.064217
v 0.515758 -0.412924 -0.000000
v 0.516750 -0.430784 -0.000000
v 0.517742 -0.597445 -0.000000
v 0.515281 -0.617895 -0.000000
v 0.522072 -0.799536 -0.000000
v 0.521906 -0.858282 -0.000000
v 0.526406 -1.040243 -0.000000
v 0.606574 -0.866451 -0.111612
v 0.608428 -1.001689 -0.110323
v 0.533030 -1.005598 0.078010
v 0.528744 -0.879535 0.078922
v 0.606574 -0.866451 0.111612
v 0.608428 -1.001689 0.110323
v 0.533030 -1.005598 -0.078010
v 0.528744 -0.879535 -0.078922
v 0.502067 -0.898857 -0.000000
v 0.506434 -1.010539 -0.000000
v 0.601282 -0.643018 -0.114192
v 0.608105 -0.795797 -0.112902
v 0.528345 -0.776254 0.079834
v 0.522712 -0.639500 0.080746
v 0.601282 -0.643018 0.114192
v 0.608105 -0.795797 0.112902
v 0.528345 -0.776254 -0.079834
v 0.522712 -0.639500 -0.080746
v 0.491955 -0.650772 -0.000000
v 0.502436 -0.754069 -0.000000
v 0.606574 -0.442678 -0.116771
v 0.607592 -0.579403 -0.115481
v 0.524916 -0.570495 0.081658
v 0.524004 -0.462631 0.082570
v 0.606574 -0.442678 0.116771
v 0.607592 -0.579403 0.115481
v 0.524916 -0.571998 -0.081658
v 0.524004 -0.462631 -0.082570
v 0.489803 -0.474217 -0.000000
v 0.487224 -0.571988 -0.000000
v 0.605752 -0.196384 0.099708
v 0.605752 -0.196384 -0.099708
v 0.676256 -0.181628 -0.070504
v 0.676256 -0.181628 0.070504
v 0.705460 -0.181628 -0.000000
v 0.606574 -0.236501 -0.119149
v 0.606574 -0.345544 -0.118061
v 0.606574 -0.236501 0.119149
v 0.606574 -0.345544 0.118061
v 0.477349 -0.257174 -0.000000
v 0.488513 -0.372577 -0.000000
v 0.523092 -0.372577 -0.083482
v 0.523092 -0.372577 0.083481
v 0.512247 -0.236577 0.084251
v 0.512247 -0.236577 -0.084251
v 0.607908 -1.050820 -0.084533
v 0.603770 -1.208406 -0.084202
v 0.607908 -1.050820 0.084533
v 0.603770 -1.208406 0.084202
v 0.693018 -1.024918 -0.000000
v 0.688233 -1.188290 -0.000000
v 0.663896 -1.185672 0.059540
v 0.668444 -1.024713 0.059774
v 0.663896 -1.185672 -0.059540
v 0.668444 -1.024713 -0.059774
v 0.524007 -1.050121 -0.000000
v 0.520427 -1.214569 -0.000000
v 0.544838 -1.212764 0.059540
v 0.548581 -1.050325 0.059774
v 0.544838 -1.212764 -0.059540
v 0.548581 -1.050325 -0.059774
v 0.618347 -1.060885 -0.100961
v 0.604053 -1.186956 -0.100566
v 0.613995 -1.065236 0.100961
v 0.604053 -1.186956 0.100566
v 0.711720 -1.053477 -0.000000
v 0.708209 -1.170555 -0.000000
v 0.679233 -1.166967 0.071111
v 0.679433 -1.045812 0.071390
v 0.679233 -1.166967 -0.071111
v 0.679433 -1.045812 -0.071390
v 0.504425 -1.071187 -0.000000
v 0.504534 -1.192710 -0.000000
v 0.533682 -1.191025 0.071111
v 0.537334 -1.066762 0.071390
v 0.533682 -1.191025 -0.071111
v 0.537334 -1.066762 -0.071390
v 0.526816 -0.196447 -0.070504
v 0.404750 1.747054 0.063632
v 0.449071 1.973075 0.071416
v 0.324831 1.738502 0.037474
v 0.504555 1.929762 0.093364
v 0.384476 1.878017 0.060535
v 0.450474 1.851111 0.084433
v 0.527180 2.031579 0.120958
v 0.563647 1.980757 0.123303
v 0.497388 2.136956 0.117797
v 0.476097 2.065641 0.099590
v 0.461228 2.155637 0.062320
v 0.439937 2.084322 0.044114
v 0.600648 2.091208 0.109824
v 0.409321 1.756676 0.045572
v 0.456356 1.973369 0.051757
v 0.326333 1.755111 0.024766
v 0.512042 1.930579 0.073796
v 0.391085 1.877202 0.040653
v 0.598960 1.997643 0.105772
v 0.457031 1.850067 0.064544
v 0.403089 1.749738 0.000000
v 0.322485 1.737421 0.000000
v 0.532325 2.033141 0.100692
v 0.568835 1.982751 0.103086
v 0.509335 2.136257 0.100580
v 0.487774 2.065007 0.082187
v 0.479798 2.152017 0.053281
v 0.458664 2.080495 0.035493
v 0.469131 2.160544 0.000000
v 0.446986 2.089280 0.000000
v 0.596902 2.090430 0.130439
v 0.789560 1.752388 0.066115
v 0.744732 1.973075 0.071416
v 0.869479 1.743835 0.039957
v 0.689248 1.929762 0.093364
v 0.809327 1.878017 0.060535
v 0.596902 1.996912 0.126625
v 0.743329 1.851111 0.084433
v 0.666623 2.031579 0.120958
v 0.630156 1.980757 0.123303
v 0.696416 2.136956 0.117797
v 0.717707 2.065641 0.099590
v 0.732575 2.155637 0.062320
v 0.753866 2.084322 0.044114
v 0.593155 2.091208 0.109824
v 0.784989 1.762010 0.048055
v 0.737447 1.973369 0.051757
v 0.867977 1.760445 0.027249
v 0.681762 1.930579 0.073796
v 0.802718 1.877202 0.040653
v 0.594843 1.997643 0.105772
v 0.736772 1.850067 0.064544
v 0.790714 1.761778 0.000000
v 0.871318 1.749460 0.000000
v 0.661479 2.033141 0.100692
v 0.624968 1.982751 0.103086
v 0.684469 2.136257 0.100580
v 0.706030 2.065007 0.082187
v 0.714005 2.152017 0.053281
v 0.735140 2.080495 0.035493
v 0.724672 2.160544 0.000000
v 0.746818 2.089280 0.000000
v 0.404243 1.752388 -0.066115
v 0.449071 1.973075 -0.071416
v 0.324324 1.743835 -0.039957
v 0.504555 1.929762 -0.093364
v 0.384476 1.878017 -0.060535
v 0.450474 1.851111 -0.084433
v 0.404928 1.729437 -0.000000
v 0.324324 1.717119 -0.000000
v 0.527180 2.031579 -0.120958
v 0.563647 1.980757 -0.123303
v 0.497388 2.136956 -0.117797
v 0.476097 2.065641 -0.099590
v 0.461228 2.155637 -0.062320
v 0.439937 2.084322 -0.044114
v 0.449579 2.165806 -0.000000
v 0.427433 2.094541 -0.000000
v 0.600648 2.091208 -0.109824
v 0.408814 1.762010 -0.048055
v 0.456356 1.973369 -0.051757
v 0.325826 1.760445 -0.027249
v 0.512042 1.930579 -0.073796
v 0.391085 1.877202 -0.040653
v 0.598960 1.997643 -0.105772
v 0.457031 1.850067 -0.064544
v 0.532325 2.033141 -0.100692
v 0.568835 1.982751 -0.103086
v 0.509335 2.136257 -0.100580
v 0.487774 2.065007 -0.082187
v 0.479798 2.152017 -0.053281
v 0.458664 2.080495 -0.035493
v 0.596902 2.090430 -0.130439
v 0.789560 1.752388 -0.066115
v 0.744732 1.973075 -0.071416
v 0.869479 1.743835 -0.039957
v 0.689248 1.929762 -0.093364
v 0.809327 1.878017 -0.060535
v 0.596902 1.996912 -0.126625
v 0.743329 1.851111 -0.084433
v 0.788875 1.741476 -0.000000
v 0.869479 1.729158 -0.000000
v 0.666623 2.031579 -0.120958
v 0.630156 1.980757 -0.123303
v 0.696416 2.136956 -0.117797
v 0.717707 2.065641 -0.099590
v 0.732575 2.155637 -0.062320
v 0.753866 2.084322 -0.044114
v 0.744224 2.165806 -0.000000
v 0.766370 2.094541 -0.000000
v 0.593155 2.091208 -0.109824
v 0.784989 1.762010 -0.048055
v 0.737447 1.973369 -0.051757
v 0.867977 1.760445 -0.027249
v 0.681762 1.930579 -0.073796
v 0.802718 1.877202 -0.040653
v 0.594843 1.997643 -0.105772
v 0.736772 1.850067 -0.064544
v 0.661479 2.033141 -0.100692
v 0.624968 1.982751 -0.103086
v 0.684469 2.136257 -0.100580
v 0.706030 2.065007 -0.082187
v 0.714005 2.152017 -0.053281
v 0.735140 2.080495 -0.035493
v 0.558226 0.222689 0.099708
v 0.600642 0.637378 0.099708
v 0.558226 0.222689 -0.099708
v 0.600642 0.637378 -0.099708
v 0.479289 0.222676 -0.070504
v 0.521706 0.637371 -0.070504
v 0.630187 0.227143 0.070504
v 0.672968 0.640523 0.070504
v 0.521706 0.637371 0.070504
v 0.479289 0.222675 0.070504
v 0.492502 0.635485 0.000000
v 0.450086 0.218904 0.000000
v 0.672968 0.640523 -0.070504
v 0.630187 0.227143 -0.070504
v 0.702067 0.642009 0.000000
v 0.659307 0.228332 0.000000
vn 0.5494 0.8152 -0.1834
vn 0.2997 -0.7817 0.5469
vn 0.5494 0.8152 0.1834
vn 0.7116 -0.6564 -0.2504
vn -0.1717 0.8689 -0.4642
vn 0.7116 -0.6565 0.2504
vn -0.1717 0.8689 0.4642
vn -0.1717 -0.8689 -0.4642
vn 0.2682 -0.7134 -0.6474
vn 0.6394 -0.7218 -0.2649
vn -0.2454 -0.7071 -0.6632
vn -0.6394 -0.7218 -0.2649
vn 0.2682 -0.7134 0.6474
vn 0.6394 -0.7218 0.2649
vn -0.2454 -0.7071 0.6632
vn -0.6394 -0.7218 0.2649
vn 0.9240 0.0079 0.3824
vn -0.3472 -0.0029 0.9378
vn -0.9240 -0.0075 0.3824
vn 0.3829 0.0032 -0.9238
vn 0.9240 0.0079 -0.3824
vn -0.3472 -0.0029 -0.9378
vn -0.9240 -0.0075 -0.3824
vn 0.3829 0.0032 0.9238
vn 0.2886 0.7385 0.6094
vn 0.6299 0.7367 0.2458
vn -0.1993 0.7456 0.6359
vn -0.5837 0.7702 0.2570
vn 0.2886 0.7385 -0.6094
vn 0.6299 0.7367 -0.2458
vn -0.1993 0.7456 -0.6359
vn -0.5837 0.7702 -0.2570
vn 0.0485 0.9988 0.0000
vn 0.3915 0.0213 0.9199
vn 0.9173 0.1291 0.3767
vn -0.3470 0.0000 0.9379
vn -0.9496 -0.0583 0.3081
vn 0.3915 0.0213 -0.9199
vn 0.9173 0.1291 -0.3767
vn -0.3470 0.0000 -0.9379
vn -0.9496 -0.0583 -0.3081
vn 0.2997 -0.7817 -0.5469
vn 0.2757 0.8487 0.4513
vn -0.5361 -0.8232 0.1870
vn 0.2757 0.8487 -0.4513
vn -0.5361 -0.8232 -0.1870
vn -0.5008 0.8454 0.1859
vn -0.1717 -0.8689 0.4642
vn -0.5008 0.8454 -0.1859
vn -0.0000 0.0000 -1.0000
vn -0.0000 0.0000 1.0000
vn 0.0000 -1.0000 0.0000
vn -0.7862 -0.6180 -0.0019
vn -0.9996 0.0271 0.0019
vn -0.6485 -0.7612 0.0000
vn -0.8981 -0.4399 0.0000
vn -1.0000 -0.0025 0.0000
vn -0.9226 0.3857 0.0000
vn -0.8464 0.5325 0.0000
vn -0.5598 0.8286 0.0000
vn -0.1965 0.9805 0.0000
vn 0.0000 1.0000 0.0000
vn -0.9278 0.3730 -0.0008
vn -0.9996 -0.0271 0.0019
vn -0.6485 0.7612 0.0000
vn -0.8981 0.4399 0.0000
vn -1.0000 0.0025 0.0000
vn -0.9226 -0.3857 0.0000
vn -0.8464 -0.5325 0.0000
vn -0.5598 -0.8286 0.0000
vn -0.1965 -0.9805 0.0000
vn -1.0000 0.0000 0.0000
vn -0.5317 -0.8469 0.0000
vn -0.7378 0.6750 0.0000
vn -0.9278 0.3730 -0.0023
vn -0.7834 0.6214 0.0096
vn 0.7862 -0.6180 -0.0019
vn 0.9996 0.0271 0.0019
vn 0.6485 -0.7612 0.0000
vn 0.8981 -0.4399 0.0000
vn 1.0000 -0.0025 0.0000
vn 0.9226 0.3857 0.0000
vn 0.8464 0.5325 0.0000
vn 0.5598 0.8286 0.0000
vn 0.1965 0.9805 0.0000
vn 0.9278 0.3730 -0.0008
vn 0.9996 -0.0271 0.0019
vn 0.6485 0.7612 0.0000
vn 0.8981 0.4399 0.0000
vn 1.0000 0.0025 0.0000
vn 0.9226 -0.3857 0.0000
vn 0.8464 -0.5325 0.0000
vn 0.5598 -0.8286 0.0000
vn 0.1965 -0.9805 0.0000
vn 1.0000 0.0000 0.0000
vn 0.9993 0.0385 0.0000
vn 0.9997 -0.0262 0.0000
vn 0.9278 0.3730 -0.0023
vn 0.7834 0.6214 0.0096
vn 0.6754 0.6886 -0.2640
vn 0.3527 -0.6749 0.6481
vn 0.8350 0.5033 0.2224
vn 0.2317 0.5771 0.7831
vn 0.7281 -0.6095 -0.3135
vn 0.4160 -0.7594 0.5003
vn 0.8093 0.4417 -0.3872
vn 0.6754 0.6886 0.2640
vn 0.7281 -0.6095 0.3135
vn 0.7879 -0.5888 -0.1802
vn 0.3902 0.6480 -0.6541
vn 0.3536 -0.7650 0.5383
vn 0.7879 -0.5888 0.1802
vn 0.8093 0.4417 0.3872
vn 0.3916 -0.0058 -0.9201
vn 0.3916 -0.0058 0.9201
vn 0.9455 -0.0248 -0.3245
vn 0.9455 -0.0248 0.3245
vn 0.1472 0.7463 0.6491
vn 0.4160 -0.7593 -0.5003
vn 0.1472 0.7463 -0.6491
vn 0.3892 0.0002 -0.9212
vn 0.3892 0.0002 0.9212
vn 0.9361 0.0086 -0.3518
vn 0.9361 0.0086 0.3518
vn 0.8350 0.5033 -0.2224
vn 0.3902 0.6480 0.6541
vn 0.3527 -0.6749 -0.6481
vn 0.4342 -0.0158 -0.9007
vn 0.4342 -0.0158 0.9007
vn 0.9217 -0.0662 -0.3822
vn 0.9217 -0.0662 0.3822
vn 0.3527 -0.7610 -0.5446
vn 0.2317 0.5771 -0.7831
vn 0.7936 -0.5607 0.2362
vn 0.7957 -0.5579 -0.2358
vn -0.3170 0.4083 -0.8560
vn 0.3982 -0.5276 0.7504
vn 0.8354 -0.4729 -0.2801
vn 0.8354 -0.4729 0.2801
vn 0.3840 -0.0090 -0.9233
vn 0.3840 -0.0090 0.9233
vn 0.9242 -0.0095 -0.3819
vn 0.9242 -0.0095 0.3819
vn 0.3982 -0.5276 -0.7504
vn -0.8746 0.4075 -0.2627
vn -0.8211 0.5293 -0.2137
vn -0.4181 -0.6507 0.6339
vn -0.7410 0.6285 0.2364
vn -0.4398 0.6086 0.6604
vn -0.8539 -0.4777 -0.2064
vn -0.1836 -0.7184 0.6710
vn -0.7854 0.5512 -0.2816
vn -0.8211 0.5293 0.2137
vn -0.8539 -0.4777 0.2064
vn -0.7472 -0.5816 -0.3217
vn -0.2666 0.7009 -0.6616
vn -0.2691 -0.7876 0.5544
vn -0.7472 -0.5816 0.3217
vn -0.7854 0.5512 0.2816
vn -0.3889 -0.0169 -0.9211
vn -0.3889 -0.0169 0.9211
vn -0.9446 -0.0356 -0.3262
vn -0.9446 -0.0356 0.3262
vn -0.3734 0.7000 0.6088
vn -0.1836 -0.7184 -0.6710
vn -0.3734 0.7000 -0.6088
vn -0.3901 -0.0238 -0.9204
vn -0.3901 -0.0238 0.9204
vn -0.9424 -0.0645 -0.3282
vn -0.9424 -0.0645 0.3282
vn -0.7410 0.6285 -0.2364
vn -0.2666 0.7009 0.6616
vn -0.4181 -0.6507 -0.6339
vn -0.3799 -0.0113 -0.9250
vn -0.3800 -0.0113 0.9249
vn -0.9162 0.0056 -0.4007
vn -0.9162 0.0057 0.4006
vn -0.2570 -0.8049 -0.5349
vn -0.4398 0.6086 -0.6604
vn -0.6193 -0.7278 0.2946
vn -0.6059 -0.7429 -0.2847
vn 0.2692 0.4245 -0.8645
vn -0.1595 -0.5471 0.8217
vn 0.8254 0.4491 -0.3419
vn -0.7589 -0.5577 -0.3362
vn -0.7712 -0.5440 0.3307
vn -0.3170 0.4083 0.8560
vn -0.3608 -0.0230 -0.9324
vn -0.3608 -0.0230 0.9324
vn -0.9172 -0.0815 -0.3899
vn -0.9172 -0.0815 0.3899
vn -0.1597 -0.5501 -0.8197
vn -0.8746 0.4075 0.2627
vn -0.6958 0.6598 -0.2837
vn 0.6380 -0.7117 -0.2941
vn -0.7616 -0.5594 -0.3272
vn 0.7834 0.5403 0.3072
vn -0.6958 0.6598 0.2837
vn 0.6380 -0.7117 0.2941
vn 0.0820 0.6972 -0.7121
vn -0.7616 -0.5594 0.3272
vn -0.9170 0.0128 0.3988
vn -0.9170 0.0128 -0.3988
vn -0.3731 0.0181 0.9276
vn -0.3645 0.0236 -0.9309
vn 0.9182 -0.0148 0.3959
vn 0.9182 -0.0148 -0.3959
vn 0.3915 -0.0189 0.9200
vn 0.4030 -0.0261 -0.9148
vn 0.7834 0.5403 -0.3072
vn -0.2853 -0.5701 0.7704
vn 0.4521 -0.6212 0.6401
vn -0.2795 0.6710 0.6868
vn 0.0943 0.6445 0.7588
vn -0.2853 -0.5701 -0.7704
vn 0.4521 -0.6212 -0.6401
vn -0.2805 0.7017 -0.6550
vn 0.8254 0.4491 0.3419
vn 0.2692 0.4245 0.8645
vn 0.4160 -0.7594 -0.5003
vn -0.3014 0.0978 0.9485
vn 0.0626 -0.9312 0.3590
vn -0.3275 -0.0284 0.9444
vn -0.0982 -0.0349 0.9946
vn -0.3988 -0.1563 0.9036
vn -0.2398 -0.0387 0.9701
vn -0.8179 0.0995 0.5666
vn -0.9325 0.2509 0.2597
vn 0.3025 -0.0967 -0.9482
vn -0.0388 0.9448 -0.3253
vn 0.2882 0.0045 -0.9576
vn 0.0941 0.0342 -0.9950
vn 0.3990 0.1580 -0.9032
vn 0.2267 0.0495 -0.9727
vn 0.8270 -0.1075 -0.5518
vn 0.9275 -0.2461 -0.2814
vn -0.7786 0.5611 -0.2810
vn 0.9903 -0.0147 0.1381
vn 0.8801 -0.4481 0.1568
vn 0.7767 -0.5643 0.2797
vn 0.4385 -0.8986 0.0177
vn -0.9021 0.4313 -0.0155
vn 0.9936 -0.1091 -0.0305
vn -0.9980 0.0123 0.0621
vn -0.5489 0.8253 -0.1325
vn 0.6168 -0.7742 0.1418
vn -0.4828 -0.8433 -0.2363
vn 0.4101 0.8957 0.1720
vn -0.2666 -0.9523 -0.1482
vn 0.2642 0.9527 0.1504
vn -0.2600 -0.9541 -0.1488
vn 0.2497 0.9623 0.1074
vn 0.3014 0.0978 0.9485
vn -0.0877 -0.9682 0.2341
vn 0.3255 -0.0092 0.9455
vn 0.0982 -0.0349 0.9946
vn 0.3988 -0.1563 0.9036
vn 0.2398 -0.0387 0.9701
vn 0.8179 0.0995 0.5666
vn 0.9325 0.2509 0.2597
vn -0.3025 -0.0967 -0.9482
vn 0.0661 0.9881 -0.1392
vn -0.2846 -0.0178 -0.9585
vn -0.0941 0.0342 -0.9950
vn -0.3990 0.1580 -0.9032
vn -0.2267 0.0495 -0.9727
vn -0.8270 -0.1075 -0.5518
vn -0.9275 -0.2461 -0.2814
vn 0.7786 0.5611 -0.2810
vn -0.9903 -0.0147 0.1381
vn -0.8709 -0.4682 0.1495
vn -0.7767 -0.5643 0.2797
vn -0.4385 -0.8986 0.0177
vn 0.8942 0.4476 -0.0056
vn -0.9933 -0.1106 -0.0331
vn 0.9989 0.0070 0.0470
vn 0.5489 0.8253 -0.1325
vn -0.6168 -0.7742 0.1418
vn 0.4828 -0.8433 -0.2363
vn -0.4101 0.8957 0.1720
vn 0.2666 -0.9523 -0.1482
vn -0.2642 0.9527 0.1504
vn 0.2600 -0.9541 -0.1488
vn -0.2497 0.9623 0.1074
vn -0.3014 0.0978 -0.9485
vn 0.0485 -0.9044 -0.4238
vn -0.3255 -0.0092 -0.9455
vn -0.0982 -0.0349 -0.9946
vn -0.3988 -0.1563 -0.9036
vn -0.2398 -0.0387 -0.9701
vn -0.8179 0.0995 -0.5666
vn -0.9325 0.2509 -0.2597
vn 0.3025 -0.0967 0.9482
vn -0.0232 0.9063 0.4220
vn 0.2846 -0.0178 0.9585
vn 0.0941 0.0342 0.9950
vn 0.3990 0.1580 0.9032
vn 0.2267 0.0495 0.9727
vn 0.8270 -0.1075 0.5518
vn 0.9275 -0.2461 0.2814
vn -0.7786 0.5611 0.2810
vn 0.9903 -0.0147 -0.1381
vn 0.8709 -0.4682 -0.1495
vn 0.7767 -0.5643 -0.2797
vn 0.4385 -0.8986 -0.0177
vn -0.8942 0.4476 0.0056
vn 0.9950 -0.0989 0.0134
vn -0.9990 0.0064 -0.0450
vn -0.5489 0.8253 0.1325
vn 0.6168 -0.7742 -0.1418
vn -0.4828 -0.8433 0.2363
vn 0.4101 0.8957 -0.1720
vn -0.2666 -0.9523 0.1482
vn 0.2642 0.9527 -0.1504
vn -0.2600 -0.9541 0.1488
vn 0.2497 0.9623 -0.1074
vn 0.3014 0.0978 -0.9485
vn -0.0877 -0.9682 -0.2341
vn 0.3255 -0.0092 -0.9455
vn 0.0982 -0.0349 -0.9946
vn 0.3988 -0.1563 -0.9036
vn 0.2398 -0.0387 -0.9701
vn 0.8179 0.0995 -0.5666
vn 0.9325 0.2509 -0.2597
vn -0.3025 -0.0967 0.9482
vn 0.0661 0.9881 0.1392
vn -0.2846 -0.0178 0.9585
vn -0.0941 0.0342 0.9950
vn -0.3990 0.1580 0.9032
vn -0.2267 0.0495 0.9727
vn -0.8270 -0.1075 0.5518
vn -0.9275 -0.2461 0.2814
vn 0.7786 0.5611 0.2810
vn -0.9903 -0.0147 -0.1381
vn -0.8709 -0.4682 -0.1495
vn -0.7767 -0.5643 -0.2797
vn -0.4385 -0.8986 -0.0177
vn 0.8942 0.4476 0.0056
vn -0.9933 -0.1106 0.0331
vn 0.9989 0.0070 -0.0470
vn 0.5489 0.8253 0.1325
vn -0.6168 -0.7742 -0.1418
vn 0.4828 -0.8433 0.2363
vn -0.4101 0.8957 -0.1720
vn 0.2666 -0.9523 0.1482
vn -0.2642 0.9527 -0.1504
vn 0.2600 -0.9541 0.1488
vn -0.2497 0.9623 -0.1074
vn 0.3858 0.0011 -0.9226
vn 0.3925 -0.0927 -0.9150
vn 0.4050 0.0026 -0.9143
vn 0.3813 -0.0220 -0.9242
vn 0.3858 0.0011 0.9226
vn 0.3925 -0.0927 0.9150
vn 0.4046 0.0017 0.9145
vn 0.3813 -0.0220 0.9242
vn 0.9219 0.0830 -0.3783
vn 0.8999 -0.2400 -0.3642
vn 0.9084 0.1397 -0.3940
vn 0.9216 0.0446 -0.3855
vn 0.9219 0.0830 0.3783
vn 0.8999 -0.2400 0.3642
vn 0.9093 0.1375 0.3927
vn 0.9216 0.0446 0.3855
vn 0.4948 -0.8690 0.0000
vn 0.8663 -0.4995 0.0000
vn -0.3904 0.0083 -0.9206
vn -0.3836 -0.0120 -0.9234
vn -0.3920 0.0294 -0.9195
vn -0.3720 -0.0377 -0.9275
vn -0.3904 0.0083 0.9206
vn -0.3836 -0.0120 0.9234
vn -0.3921 0.0298 0.9194
vn -0.3631 -0.0521 0.9303
vn -0.9194 0.1450 -0.3656
vn -0.9273 -0.0023 -0.3742
vn -0.9205 0.1173 -0.3727
vn -0.9223 -0.0441 -0.3840
vn -0.9194 0.1450 0.3656
vn -0.9273 -0.0023 0.3742
vn -0.9201 0.1190 0.3731
vn -0.9239 -0.0870 0.3727
vn 0.1585 -0.9874 0.0000
vn -0.9122 -0.1731 0.3714
vn -0.4182 -0.0549 -0.9067
vn 0.8795 0.2950 0.3734
vn 0.3076 0.1152 -0.9445
vn -0.4182 -0.0549 0.9067
vn -0.9149 -0.1388 0.3791
vn -0.9149 -0.1388 -0.3791
vn -0.3814 -0.0666 0.9220
vn -0.3814 -0.0666 -0.9220
vn 0.9242 0.0446 0.3793
vn 0.9242 0.0446 -0.3793
vn 0.3778 0.0198 0.9257
vn 0.3778 0.0198 -0.9257
vn -0.9122 -0.1731 -0.3714
vn 0.3076 0.1152 0.9445
vn 0.8795 0.2950 -0.3734
vn 0.9152 0.1334 0.3802
vn -0.9231 -0.0386 0.3826
vn 0.3799 0.0829 -0.9213
vn 0.9152 0.1334 -0.3802
vn -0.9231 -0.0386 -0.3826
vn 0.3799 0.0829 0.9213
vn -0.3830 0.0115 0.9237
vn -0.3830 0.0115 -0.9237
vn 0.2539 0.3882 -0.8859
vn 0.8554 0.3870 -0.3444
vn -0.3344 0.4693 -0.8173
vn -0.8117 0.5240 -0.2579
vn 0.2539 0.3882 0.8859
vn 0.8554 0.3870 0.3444
vn -0.3344 0.4693 0.8173
vn -0.9239 0.0000 0.3827
vn 0.3736 -0.0001 -0.9276
vn 0.9244 -0.0006 -0.3814
vn -0.9239 0.0000 -0.3827
vn 0.3736 -0.0001 0.9276
vn 0.9244 -0.0006 0.3814
vn 0.3927 -0.0061 0.9197
vn 0.9238 -0.0284 0.3819
vn 0.3927 -0.0061 -0.9197
vn 0.9238 -0.0284 -0.3819
vn -0.9205 0.1173 -0.3728
vn -0.8117 0.5240 0.2579
vn 0.9196 0.0929 0.3816
vn 0.9208 -0.0952 0.3783
vn 0.3736 0.0377 0.9268
vn 0.3767 -0.0388 0.9255
vn -0.9171 -0.0919 -0.3879
vn -0.9211 0.0940 -0.3778
vn -0.3468 -0.0350 -0.9373
vn -0.3468 0.0355 -0.9373
vn 0.9196 0.0929 -0.3816
vn 0.9208 -0.0952 -0.3783
vn 0.3736 0.0377 -0.9268
vn 0.3767 -0.0388 -0.9255
vn -0.9171 -0.0919 0.3879
vn -0.9211 0.0940 0.3778
vn -0.3468 -0.0350 0.9373
vn -0.3468 0.0355 0.9373
vn 0.4487 0.1411 0.8825
vn 0.4487 0.1411 -0.8825
vn 0.4767 -0.2439 -0.8446
vn 0.4532 0.0122 -0.8913
vn 0.4532 0.0122 0.8913
vn 0.4767 -0.2439 0.8445
vn 0.4013 0.2397 -0.8841
vn 0.4013 0.2397 0.8840
vn 0.3209 0.3393 0.8843
vn 0.3209 0.3393 -0.8843
vn 0.2286 0.4219 -0.8773
vn 0.2286 0.4219 0.8773
vn -0.9997 -0.0264 0.0000
vn 0.4508 -0.1042 0.8865
vn 0.4508 -0.1042 -0.8865
vn 0.4427 -0.1300 -0.8872
vn 0.4341 0.2874 -0.8538
vn 0.4341 0.2874 0.8538
vn 0.4427 -0.1300 0.8872
vn 0.4013 -0.2397 -0.8840
vn 0.4013 -0.2397 0.8840
vn 0.3209 -0.3393 0.8843
vn 0.3209 -0.3393 -0.8843
vn 0.2286 -0.4219 -0.8773
vn 0.2286 -0.4219 0.8773
vn -0.9997 0.0264 0.0000
vn 0.4547 -0.0149 0.8905
vn 0.3633 0.4785 0.7994
vn 0.4547 -0.0149 -0.8905
vn 0.3633 0.4785 -0.7994
vn 0.4311 -0.3086 0.8479
vn 0.4311 -0.3086 -0.8479
vn -0.4487 0.1411 0.8825
vn -0.4487 0.1411 -0.8825
vn -0.4034 0.2816 -0.8706
vn -0.4532 0.0122 -0.8913
vn -0.4532 0.0122 0.8913
vn -0.4034 0.2816 0.8706
vn -0.4013 0.2397 -0.8841
vn -0.4013 0.2397 0.8840
vn -0.3209 0.3393 0.8843
vn -0.3209 0.3393 -0.8843
vn -0.2286 0.4219 -0.8773
vn -0.2286 0.4219 0.8773
vn 0.9997 -0.0264 0.0000
vn -0.4508 -0.1042 0.8865
vn -0.4508 -0.1042 -0.8865
vn -0.4427 -0.1300 -0.8872
vn -0.4341 0.2874 -0.8538
vn -0.4341 0.2874 0.8538
vn -0.4427 -0.1300 0.8872
vn -0.4013 -0.2397 -0.8840
vn -0.4013 -0.2397 0.8840
vn -0.3209 -0.3393 0.8843
vn -0.3209 -0.3393 -0.8843
vn -0.2286 -0.4219 -0.8773
vn -0.2286 -0.4219 0.8773
vn 0.9997 0.0264 0.0000
vn -0.4547 -0.0149 0.8905
vn -0.4623 -0.1016 0.8809
vn -0.4547 -0.0149 -0.8905
vn -0.4623 -0.1016 -0.8809
vn -0.4311 -0.3086 0.8479
vn -0.4311 -0.3086 -0.8479
usemtl Steel
s off
f 197/1/1 199/1/1 246/1/1 248/1/1
f 187/1/2 190/1/2 239/1/2 236/1/2
f 199/1/3 198/1/3 247/1/3 246/1/3
f 191/1/4 189/1/4 240/1/4 238/1/4
f 200/1/5 196/1/5 245/1/5 243/1/5
f 190/1/6 191/1/6 238/1/6 239/1/6
f 195/1/7 193/1/7 242/1/7 244/1/7
f 188/1/8 192/1/8 235/1/8 237/1/8
f 205/1/9 204/1/9 212/1/9 213/1/9
f 207/1/10 205/1/10 213/1/10 215/1/10
f 204/1/11 208/1/11 216/1/11 212/1/11
f 208/1/12 202/1/12 210/1/12 216/1/12
f 203/1/13 206/1/13 214/1/13 211/1/13
f 206/1/14 207/1/14 215/1/14 214/1/14
f 201/1/15 203/1/15 211/1/15 209/1/15
f 202/1/16 201/1/16 209/1/16 210/1/16
f 214/1/17 215/1/17 223/1/17 222/1/17
f 209/1/18 211/1/18 219/1/18 217/1/18
f 210/1/19 209/1/19 217/1/19 218/1/19
f 213/1/20 212/1/20 220/1/20 221/1/20
f 215/1/21 213/1/21 221/1/21 223/1/21
f 212/1/22 216/1/22 224/1/22 220/1/22
f 216/1/23 210/1/23 218/1/23 224/1/23
f 211/1/24 214/1/24 222/1/24 219/1/24
f 219/1/25 222/1/25 230/1/25 227/1/25
f 222/1/26 223/1/26 231/1/26 230/1/26
f 217/1/27 219/1/27 227/1/27 225/1/27
f 218/1/28 217/1/28 225/1/28 226/1/28
f 221/1/29 220/1/29 228/1/29 229/1/29
f 223/1/30 221/1/30 229/1/30 231/1/30
f 220/1/31 224/1/31 232/1/31 228/1/31
f 224/1/32 218/1/32 226/1/32 232/1/32
f 225/1/33 227/1/33 230/1/33 231/1/33 229/1/33 228/1/33 232/1/33 226/1/33
f 236/1/34 239/1/34 247/1/34 244/1/34
f 239/1/35 238/1/35 246/1/35 247/1/35
f 234/1/36 236/1/36 244/1/36 242/1/36
f 233/1/37 234/1/37 242/1/37 241/1/37
f 240/1/38 237/1/38 245/1/38 248/1/38
f 238/1/39 240/1/39 248/1/39 246/1/39
f 237/1/40 235/1/40 243/1/40 245/1/40
f 235/1/41 233/1/41 241/1/41 243/1/41
f 189/1/42 188/1/42 237/1/42 240/1/42
f 198/1/43 195/1/43 244/1/43 247/1/43
f 186/1/44 185/1/44 234/1/44 233/1/44
f 196/1/45 197/1/45 248/1/45 245/1/45
f 192/1/46 186/1/46 233/1/46 235/1/46
f 193/1/47 194/1/47 241/1/47 242/1/47
f 185/1/48 187/1/48 236/1/48 234/1/48
f 194/1/49 200/1/49 243/1/49 241/1/49
f 265/1/50 256/1/50 250/1/50 271/1/50
f 266/1/51 251/1/51 257/1/51 272/1/51
f 264/1/51 249/1/51 251/1/51 266/1/51
f 446/1/51 393/1/51 279/1/51 422/1/51
f 267/1/50 271/1/50 250/1/50 253/1/50
f 265/1/50 273/1/50 255/1/50 256/1/50
f 269/1/51 272/1/51 257/1/51 258/1/51
f 268/1/51 269/1/51 258/1/51 254/1/51
f 369/1/51 268/1/51 317/1/51 384/1/51
f 328/1/50 318/1/50 381/1/50 383/1/50
f 270/1/50 260/1/50 255/1/50 273/1/50
f 417/1/50 420/1/50 262/1/50 276/1/50
f 430/1/50 417/1/50 276/1/50 377/1/50
f 421/1/51 418/1/51 275/1/51 261/1/51
f 371/1/50 270/1/50 273/1/50 374/1/50
f 408/1/50 328/1/50 383/1/50 400/1/50
f 318/1/52 312/1/52 259/1/52 381/1/52
f 369/1/51 370/1/51 269/1/51 268/1/51
f 370/1/51 373/1/51 272/1/51 269/1/51
f 366/1/50 374/1/50 273/1/50 265/1/50
f 368/1/50 372/1/50 271/1/50 267/1/50
f 365/1/51 264/1/51 266/1/51 367/1/51
f 367/1/51 266/1/51 272/1/51 373/1/51
f 366/1/50 265/1/50 271/1/50 372/1/50
f 397/1/50 395/1/50 278/1/50 292/1/50
f 292/1/50 278/1/50 283/1/50 301/1/50
f 422/1/51 279/1/51 284/1/51 424/1/51
f 301/1/50 283/1/50 288/1/50 303/1/50
f 424/1/51 284/1/51 289/1/51 426/1/51
f 425/1/50 303/1/50 306/1/50 428/1/50
f 287/1/51 304/1/51 305/1/51
f 282/1/51 302/1/51 304/1/51 287/1/51
f 423/1/50 301/1/50 303/1/50 425/1/50
f 252/1/51 300/1/51 302/1/51 282/1/51
f 419/1/50 292/1/50 301/1/50 423/1/50
f 444/1/50 397/1/50 292/1/50 419/1/50
f 249/1/51 264/1/51 299/1/51 297/1/51
f 368/1/50 267/1/50 298/1/50 380/1/50
f 267/1/50 253/1/50 296/1/50 298/1/50
f 390/1/51 399/1/51 300/1/51 252/1/51
f 427/1/51 426/1/51 289/1/51 293/1/51
f 306/1/50 303/1/50 288/1/50
f 427/1/53 293/1/53 294/1/53 428/1/53
f 287/1/54 305/1/54 306/1/54 288/1/54
f 283/1/55 282/1/55 287/1/55 288/1/55
f 278/1/56 252/1/56 282/1/56 283/1/56
f 391/1/57 394/1/57 253/1/57 249/1/57
f 249/1/58 253/1/58 250/1/58 251/1/58
f 256/1/59 257/1/59 251/1/59 250/1/59
f 256/1/60 255/1/60 258/1/60 257/1/60
f 254/1/61 258/1/61 255/1/61 260/1/61
f 260/1/50 270/1/50 274/1/50 332/1/50
f 264/1/51 365/1/51 379/1/51 299/1/51
f 418/1/51 429/1/51 376/1/51 275/1/51
f 323/1/50 329/1/50 308/1/50 314/1/50
f 324/1/51 330/1/51 315/1/51 309/1/51
f 322/1/51 324/1/51 309/1/51 307/1/51
f 435/1/51 436/1/51 337/1/51 319/1/51
f 325/1/50 311/1/50 308/1/50 329/1/50
f 323/1/50 314/1/50 313/1/50 331/1/50
f 327/1/51 316/1/51 315/1/51 330/1/51
f 326/1/51 312/1/51 316/1/51 327/1/51
f 270/1/50 371/1/50 385/1/50 274/1/50
f 254/1/62 260/1/62 332/1/62 375/1/62
f 328/1/50 331/1/50 313/1/50 318/1/50
f 431/1/50 334/1/50 320/1/50 434/1/50
f 448/1/50 410/1/50 334/1/50 431/1/50
f 435/1/51 319/1/51 333/1/51 432/1/51
f 408/1/50 414/1/50 331/1/50 328/1/50
f 312/1/51 326/1/51 382/1/51 259/1/51
f 406/1/51 369/1/51 384/1/51 401/1/51
f 406/1/51 326/1/51 327/1/51 407/1/51
f 407/1/51 327/1/51 330/1/51 413/1/51
f 403/1/50 323/1/50 331/1/50 414/1/50
f 405/1/50 325/1/50 329/1/50 412/1/50
f 402/1/51 404/1/51 324/1/51 322/1/51
f 404/1/51 413/1/51 330/1/51 324/1/51
f 403/1/50 412/1/50 329/1/50 323/1/50
f 354/1/50 350/1/50 336/1/50 311/1/50
f 350/1/50 359/1/50 341/1/50 336/1/50
f 436/1/51 438/1/51 342/1/51 337/1/51
f 359/1/50 361/1/50 346/1/50 341/1/50
f 438/1/51 440/1/51 347/1/51 342/1/51
f 439/1/50 442/1/50 364/1/50 361/1/50
f 345/1/51 363/1/51 362/1/51
f 340/1/51 345/1/51 362/1/51 360/1/51
f 437/1/50 439/1/50 361/1/50 359/1/50
f 310/1/51 340/1/51 360/1/51 358/1/51
f 433/1/50 437/1/50 359/1/50 350/1/50
f 434/1/50 433/1/50 350/1/50 354/1/50
f 307/1/51 355/1/51 357/1/51 322/1/51
f 405/1/50 416/1/50 356/1/50 325/1/50
f 325/1/50 356/1/50 354/1/50 311/1/50
f 307/1/51 310/1/51 358/1/51 355/1/51
f 441/1/51 351/1/51 347/1/51 440/1/51
f 364/1/50 346/1/50 361/1/50
f 441/1/63 442/1/63 352/1/63 351/1/63
f 345/1/64 346/1/64 364/1/64 363/1/64
f 341/1/65 346/1/65 345/1/65 340/1/65
f 336/1/66 341/1/66 340/1/66 310/1/66
f 310/1/67 307/1/67 311/1/67 336/1/67
f 307/1/68 309/1/68 308/1/68 311/1/68
f 314/1/69 308/1/69 309/1/69 315/1/69
f 314/1/70 315/1/70 316/1/70 313/1/70
f 312/1/71 318/1/71 313/1/71 316/1/71
f 268/1/51 254/1/51 375/1/51 317/1/51
f 402/1/51 411/1/51 379/1/51 365/1/51
f 447/1/51 409/1/51 376/1/51 429/1/51
f 400/1/72 401/1/72 384/1/72 317/1/72 375/1/72 332/1/72 274/1/72 385/1/72
f 252/1/73 278/1/73 395/1/73 390/1/73
f 390/1/74 395/1/74 394/1/74 391/1/74
f 249/1/51 297/1/51 398/1/51 391/1/51
f 391/1/51 398/1/51 399/1/51 390/1/51
f 420/1/50 296/1/50 396/1/50 443/1/50
f 443/1/50 396/1/50 397/1/50 444/1/50
f 296/1/50 253/1/50 394/1/50 396/1/50
f 396/1/50 394/1/50 395/1/50 397/1/50
f 421/1/51 261/1/51 392/1/51 445/1/51
f 445/1/51 392/1/51 393/1/51 446/1/51
f 381/1/72 259/1/72 382/1/72 401/1/72 400/1/72 383/1/72
f 432/1/51 333/1/51 409/1/51 447/1/51
f 322/1/51 357/1/51 411/1/51 402/1/51
f 368/1/50 380/1/50 416/1/50 405/1/50
f 366/1/50 372/1/50 412/1/50 403/1/50
f 367/1/51 373/1/51 413/1/51 404/1/51
f 365/1/51 367/1/51 404/1/51 402/1/51
f 368/1/50 405/1/50 412/1/50 372/1/50
f 366/1/50 403/1/50 414/1/50 374/1/50
f 370/1/51 407/1/51 413/1/51 373/1/51
f 369/1/51 406/1/51 407/1/51 370/1/51
f 326/1/51 406/1/51 401/1/51 382/1/51
f 371/1/50 374/1/50 414/1/50 408/1/50
f 430/1/50 377/1/50 410/1/50 448/1/50
f 371/1/50 408/1/50 400/1/50 385/1/50
f 380/1/50 430/1/50 448/1/50 416/1/50
f 357/1/51 432/1/51 447/1/51 411/1/51
f 398/1/51 445/1/51 446/1/51 399/1/51
f 297/1/51 421/1/51 445/1/51 398/1/51
f 388/1/50 443/1/50 444/1/50 389/1/50
f 262/1/50 420/1/50 443/1/50 388/1/50
f 411/1/51 447/1/51 429/1/51 379/1/51
f 363/1/75 364/1/75 442/1/75 441/1/75
f 363/1/51 441/1/51 440/1/51 362/1/51
f 320/1/50 338/1/50 433/1/50 434/1/50
f 338/1/50 343/1/50 437/1/50 433/1/50
f 343/1/50 348/1/50 439/1/50 437/1/50
f 348/1/50 352/1/50 442/1/50 439/1/50
f 360/1/51 362/1/51 440/1/51 438/1/51
f 358/1/51 360/1/51 438/1/51 436/1/51
f 355/1/51 435/1/51 432/1/51 357/1/51
f 416/1/50 448/1/50 431/1/50 356/1/50
f 356/1/50 431/1/50 434/1/50 354/1/50
f 355/1/51 358/1/51 436/1/51 435/1/51
f 299/1/51 379/1/51 429/1/51 418/1/51
f 305/1/76 427/1/76 428/1/76 306/1/76
f 305/1/51 304/1/51 426/1/51 427/1/51
f 389/1/50 444/1/50 419/1/50 280/1/50
f 280/1/50 419/1/50 423/1/50 285/1/50
f 285/1/50 423/1/50 425/1/50 290/1/50
f 290/1/50 425/1/50 428/1/50 294/1/50
f 302/1/51 424/1/51 426/1/51 304/1/51
f 300/1/51 422/1/51 424/1/51 302/1/51
f 297/1/51 299/1/51 418/1/51 421/1/51
f 380/1/50 298/1/50 417/1/50 430/1/50
f 298/1/50 296/1/50 420/1/50 417/1/50
f 399/1/51 446/1/51 422/1/51 300/1/51
f 465/1/50 471/1/50 450/1/50 456/1/50
f 466/1/51 472/1/51 457/1/51 451/1/51
f 464/1/51 466/1/51 451/1/51 449/1/51
f 646/1/51 622/1/51 479/1/51 593/1/51
f 467/1/50 453/1/50 450/1/50 471/1/50
f 465/1/50 456/1/50 455/1/50 473/1/50
f 469/1/51 458/1/51 457/1/51 472/1/51
f 468/1/51 454/1/51 458/1/51 469/1/51
f 569/1/51 584/1/51 517/1/51 468/1/51
f 528/1/50 583/1/50 581/1/50 518/1/50
f 470/1/50 473/1/50 455/1/50 460/1/50
f 617/1/50 476/1/50 462/1/50 620/1/50
f 630/1/50 577/1/50 476/1/50 617/1/50
f 621/1/51 461/1/51 475/1/51 618/1/51
f 571/1/50 574/1/50 473/1/50 470/1/50
f 608/1/50 600/1/50 583/1/50 528/1/50
f 518/1/52 581/1/52 459/1/52 512/1/52
f 569/1/51 468/1/51 469/1/51 570/1/51
f 570/1/51 469/1/51 472/1/51 573/1/51
f 566/1/50 465/1/50 473/1/50 574/1/50
f 568/1/50 467/1/50 471/1/50 572/1/50
f 565/1/51 567/1/51 466/1/51 464/1/51
f 567/1/51 573/1/51 472/1/51 466/1/51
f 566/1/50 572/1/50 471/1/50 465/1/50
f 597/1/50 492/1/50 478/1/50 595/1/50
f 492/1/50 501/1/50 483/1/50 478/1/50
f 622/1/51 624/1/51 484/1/51 479/1/51
f 501/1/50 503/1/50 488/1/50 483/1/50
f 624/1/51 626/1/51 489/1/51 484/1/51
f 625/1/50 628/1/50 506/1/50 503/1/50
f 487/1/51 505/1/51 504/1/51
f 482/1/51 487/1/51 504/1/51 502/1/51
f 623/1/50 625/1/50 503/1/50 501/1/50
f 452/1/51 482/1/51 502/1/51 500/1/51
f 619/1/50 623/1/50 501/1/50 492/1/50
f 644/1/50 619/1/50 492/1/50 597/1/50
f 449/1/51 497/1/51 499/1/51 464/1/51
f 568/1/50 580/1/50 498/1/50 467/1/50
f 467/1/50 498/1/50 496/1/50 453/1/50
f 590/1/51 452/1/51 500/1/51 599/1/51
f 627/1/51 493/1/51 489/1/51 626/1/51
f 506/1/50 488/1/50 503/1/50
f 627/1/77 628/1/77 494/1/77 493/1/77
f 487/1/78 488/1/78 506/1/78 505/1/78
f 483/1/79 488/1/79 487/1/79 482/1/79
f 478/1/80 483/1/80 482/1/80 452/1/80
f 591/1/81 449/1/81 453/1/81 594/1/81
f 449/1/82 451/1/82 450/1/82 453/1/82
f 456/1/83 450/1/83 451/1/83 457/1/83
f 456/1/84 457/1/84 458/1/84 455/1/84
f 454/1/85 460/1/85 455/1/85 458/1/85
f 460/1/50 532/1/50 474/1/50 470/1/50
f 464/1/51 499/1/51 579/1/51 565/1/51
f 618/1/51 475/1/51 576/1/51 629/1/51
f 523/1/50 514/1/50 508/1/50 529/1/50
f 524/1/51 509/1/51 515/1/51 530/1/51
f 522/1/51 507/1/51 509/1/51 524/1/51
f 635/1/51 519/1/51 537/1/51 636/1/51
f 525/1/50 529/1/50 508/1/50 511/1/50
f 523/1/50 531/1/50 513/1/50 514/1/50
f 527/1/51 530/1/51 515/1/51 516/1/51
f 526/1/51 527/1/51 516/1/51 512/1/51
f 470/1/50 474/1/50 585/1/50 571/1/50
f 454/1/62 575/1/62 532/1/62 460/1/62
f 528/1/50 518/1/50 513/1/50 531/1/50
f 631/1/50 634/1/50 520/1/50 534/1/50
f 648/1/50 631/1/50 534/1/50 610/1/50
f 635/1/51 632/1/51 533/1/51 519/1/51
f 608/1/50 528/1/50 531/1/50 614/1/50
f 512/1/51 459/1/51 582/1/51 526/1/51
f 606/1/51 601/1/51 584/1/51 569/1/51
f 606/1/51 607/1/51 527/1/51 526/1/51
f 607/1/51 613/1/51 530/1/51 527/1/51
f 603/1/50 614/1/50 531/1/50 523/1/50
f 605/1/50 612/1/50 529/1/50 525/1/50
f 602/1/51 522/1/51 524/1/51 604/1/51
f 604/1/51 524/1/51 530/1/51 613/1/51
f 603/1/50 523/1/50 529/1/50 612/1/50
f 554/1/50 511/1/50 536/1/50 550/1/50
f 550/1/50 536/1/50 541/1/50 559/1/50
f 636/1/51 537/1/51 542/1/51 638/1/51
f 559/1/50 541/1/50 546/1/50 561/1/50
f 638/1/51 542/1/51 547/1/51 640/1/51
f 639/1/50 561/1/50 564/1/50 642/1/50
f 545/1/51 562/1/51 563/1/51
f 540/1/51 560/1/51 562/1/51 545/1/51
f 637/1/50 559/1/50 561/1/50 639/1/50
f 510/1/51 558/1/51 560/1/51 540/1/51
f 633/1/50 550/1/50 559/1/50 637/1/50
f 634/1/50 554/1/50 550/1/50 633/1/50
f 507/1/51 522/1/51 557/1/51 555/1/51
f 605/1/50 525/1/50 556/1/50 616/1/50
f 525/1/50 511/1/50 554/1/50 556/1/50
f 507/1/51 555/1/51 558/1/51 510/1/51
f 641/1/51 640/1/51 547/1/51 551/1/51
f 564/1/50 561/1/50 546/1/50
f 641/1/86 551/1/86 552/1/86 642/1/86
f 545/1/87 563/1/87 564/1/87 546/1/87
f 541/1/88 540/1/88 545/1/88 546/1/88
f 536/1/89 510/1/89 540/1/89 541/1/89
f 510/1/90 536/1/90 511/1/90 507/1/90
f 507/1/91 511/1/91 508/1/91 509/1/91
f 514/1/92 515/1/92 509/1/92 508/1/92
f 514/1/93 513/1/93 516/1/93 515/1/93
f 512/1/94 516/1/94 513/1/94 518/1/94
f 468/1/51 517/1/51 575/1/51 454/1/51
f 602/1/51 565/1/51 579/1/51 611/1/51
f 647/1/51 629/1/51 576/1/51 609/1/51
f 600/1/95 585/1/95 474/1/95 532/1/95 575/1/95 517/1/95 584/1/95 601/1/95
f 452/1/96 590/1/96 595/1/96 478/1/96
f 590/1/97 591/1/97 594/1/97 595/1/97
f 449/1/51 591/1/51 598/1/51 497/1/51
f 591/1/51 590/1/51 599/1/51 598/1/51
f 620/1/50 643/1/50 596/1/50 496/1/50
f 643/1/50 644/1/50 597/1/50 596/1/50
f 496/1/50 596/1/50 594/1/50 453/1/50
f 596/1/50 597/1/50 595/1/50 594/1/50
f 621/1/51 645/1/51 592/1/51 461/1/51
f 645/1/51 646/1/51 593/1/51 592/1/51
f 581/1/95 583/1/95 600/1/95 601/1/95 582/1/95 459/1/95
f 632/1/51 647/1/51 609/1/51 533/1/51
f 522/1/51 602/1/51 611/1/51 557/1/51
f 568/1/50 605/1/50 616/1/50 580/1/50
f 566/1/50 603/1/50 612/1/50 572/1/50
f 567/1/51 604/1/51 613/1/51 573/1/51
f 565/1/51 602/1/51 604/1/51 567/1/51
f 568/1/50 572/1/50 612/1/50 605/1/50
f 566/1/50 574/1/50 614/1/50 603/1/50
f 570/1/51 573/1/51 613/1/51 607/1/51
f 569/1/51 570/1/51 607/1/51 606/1/51
f 526/1/51 582/1/51 601/1/51 606/1/51
f 571/1/50 608/1/50 614/1/50 574/1/50
f 630/1/50 648/1/50 610/1/50 577/1/50
f 571/1/50 585/1/50 600/1/50 608/1/50
f 580/1/50 616/1/50 648/1/50 630/1/50
f 557/1/51 611/1/51 647/1/51 632/1/51
f 598/1/51 599/1/51 646/1/51 645/1/51
f 497/1/51 598/1/51 645/1/51 621/1/51
f 588/1/50 589/1/50 644/1/50 643/1/50
f 462/1/50 588/1/50 643/1/50 620/1/50
f 611/1/51 579/1/51 629/1/51 647/1/51
f 563/1/98 641/1/98 642/1/98 564/1/98
f 563/1/51 562/1/51 640/1/51 641/1/51
f 520/1/50 634/1/50 633/1/50 538/1/50
f 538/1/50 633/1/50 637/1/50 543/1/50
f 543/1/50 637/1/50 639/1/50 548/1/50
f 548/1/50 639/1/50 642/1/50 552/1/50
f 560/1/51 638/1/51 640/1/51 562/1/51
f 558/1/51 636/1/51 638/1/51 560/1/51
f 555/1/51 557/1/51 632/1/51 635/1/51
f 616/1/50 556/1/50 631/1/50 648/1/50
f 556/1/50 554/1/50 634/1/50 631/1/50
f 555/1/51 635/1/51 636/1/51 558/1/51
f 499/1/51 618/1/51 629/1/51 579/1/51
f 505/1/99 506/1/99 628/1/99 627/1/99
f 505/1/51 627/1/51 626/1/51 504/1/51
f 589/1/50 480/1/50 619/1/50 644/1/50
f 480/1/50 485/1/50 623/1/50 619/1/50
f 485/1/50 490/1/50 625/1/50 623/1/50
f 490/1/50 494/1/50 628/1/50 625/1/50
f 502/1/51 504/1/51 626/1/51 624/1/51
f 500/1/51 502/1/51 624/1/51 622/1/51
f 497/1/51 621/1/51 618/1/51 499/1/51
f 580/1/50 630/1/50 617/1/50 498/1/50
f 498/1/50 617/1/50 620/1/50 496/1/50
f 599/1/51 500/1/51 622/1/51 646/1/51
usemtl LightWood
f 12/2/100 23/2/100 29/2/100 28/2/100
f 77/2/101 6/2/101 31/2/101 109/2/101
f 21/2/102 7/2/102 32/2/102 35/2/102
f 9/2/103 74/2/103 118/2/103 38/2/103
f 22/2/104 13/2/104 33/2/104 36/2/104
f 79/2/105 4/2/105 25/2/105 99/2/105
f 16/2/106 19/2/106 41/2/106 40/2/106
f 23/2/107 5/2/107 26/2/107 29/2/107
f 6/2/108 22/2/108 36/2/108 31/2/108
f 24/2/109 11/2/109 27/2/109 30/2/109
f 62/2/110 14/2/110 34/2/110 104/2/110
f 75/2/111 8/2/111 37/2/111 119/2/111
f 4/2/112 24/2/112 30/2/112 25/2/112
f 19/2/113 9/2/113 38/2/113 41/2/113
f 95/2/114 94/2/114 28/2/114 27/2/114
f 25/2/115 26/2/115 98/2/115 99/2/115
f 27/2/116 28/2/116 29/2/116 30/2/116
f 30/2/117 29/2/117 26/2/117 25/2/117
f 5/2/118 78/2/118 98/2/118 26/2/118
f 11/2/119 65/2/119 95/2/119 27/2/119
f 64/2/120 12/2/120 28/2/120 94/2/120
f 105/2/121 104/2/121 34/2/121 33/2/121
f 31/2/122 32/2/122 108/2/122 109/2/122
f 33/2/123 34/2/123 35/2/123 36/2/123
f 36/2/124 35/2/124 32/2/124 31/2/124
f 14/2/125 21/2/125 35/2/125 34/2/125
f 7/2/126 76/2/126 108/2/126 32/2/126
f 13/2/127 63/2/127 105/2/127 33/2/127
f 115/2/128 114/2/128 40/2/128 39/2/128
f 37/2/129 38/2/129 118/2/129 119/2/129
f 39/2/130 40/2/130 41/2/130 42/2/130
f 42/2/131 41/2/131 38/2/131 37/2/131
f 15/2/132 61/2/132 115/2/132 39/2/132
f 60/2/133 16/2/133 40/2/133 114/2/133
f 8/2/134 20/2/134 42/2/134 37/2/134
f 20/2/135 15/2/135 39/2/135 42/2/135
f 129/2/136 138/2/136 184/2/136 125/2/136
f 73/2/137 10/2/137 48/2/137 132/2/137
f 18/2/138 17/2/138 47/2/138 46/2/138
f 10/2/139 18/2/139 46/2/139 48/2/139
f 130/2/140 129/2/140 50/2/140 47/2/140
f 48/2/141 49/2/141 131/2/141 132/2/141
f 47/2/142 50/2/142 45/2/142 46/2/142
f 46/2/143 45/2/143 49/2/143 48/2/143
f 17/2/144 59/2/144 130/2/144 47/2/144
f 138/2/145 133/2/145 44/2/145 184/2/145
f 81/2/146 101/2/146 102/2/146 92/2/146
f 77/2/147 109/2/147 106/2/147 68/2/147
f 90/2/148 112/2/148 107/2/148 69/2/148
f 71/2/149 117/2/149 118/2/149 74/2/149
f 91/2/150 113/2/150 110/2/150 82/2/150
f 79/2/151 99/2/151 96/2/151 66/2/151
f 85/2/152 121/2/152 122/2/152 88/2/152
f 92/2/153 102/2/153 97/2/153 67/2/153
f 68/2/154 106/2/154 113/2/154 91/2/154
f 93/2/155 103/2/155 100/2/155 80/2/155
f 62/2/156 104/2/156 111/2/156 83/2/156
f 75/2/157 119/2/157 116/2/157 70/2/157
f 66/2/158 96/2/158 103/2/158 93/2/158
f 88/2/159 122/2/159 117/2/159 71/2/159
f 95/2/160 100/2/160 101/2/160 94/2/160
f 96/2/161 99/2/161 98/2/161 97/2/161
f 100/2/162 103/2/162 102/2/162 101/2/162
f 103/2/163 96/2/163 97/2/163 102/2/163
f 67/2/164 97/2/164 98/2/164 78/2/164
f 80/2/165 100/2/165 95/2/165 65/2/165
f 64/2/166 94/2/166 101/2/166 81/2/166
f 105/2/167 110/2/167 111/2/167 104/2/167
f 106/2/168 109/2/168 108/2/168 107/2/168
f 110/2/169 113/2/169 112/2/169 111/2/169
f 113/2/170 106/2/170 107/2/170 112/2/170
f 83/2/171 111/2/171 112/2/171 90/2/171
f 69/2/172 107/2/172 108/2/172 76/2/172
f 82/2/173 110/2/173 105/2/173 63/2/173
f 115/2/174 120/2/174 121/2/174 114/2/174
f 116/2/175 119/2/175 118/2/175 117/2/175
f 120/2/176 123/2/176 122/2/176 121/2/176
f 123/2/177 116/2/177 117/2/177 122/2/177
f 84/2/178 120/2/178 115/2/178 61/2/178
f 60/2/179 114/2/179 121/2/179 85/2/179
f 70/2/180 116/2/180 123/2/180 89/2/180
f 89/2/181 123/2/181 120/2/181 84/2/181
f 50/2/182 129/2/182 125/2/182 126/2/182
f 73/2/183 132/2/183 136/2/183 72/2/183
f 45/2/184 50/2/184 126/2/184 128/2/184
f 87/2/185 134/2/185 135/2/185 86/2/185
f 72/2/186 136/2/186 134/2/186 87/2/186
f 137/2/187 131/2/187 124/2/187 43/2/187
f 130/2/188 135/2/188 138/2/188 129/2/188
f 136/2/189 132/2/189 131/2/189 137/2/189
f 135/2/190 134/2/190 133/2/190 138/2/190
f 134/2/191 136/2/191 137/2/191 133/2/191
f 86/2/192 135/2/192 130/2/192 59/2/192
f 133/2/193 137/2/193 43/2/193 44/2/193
f 155/2/194 160/2/194 176/2/194 171/2/194
f 150/2/195 153/2/195 169/2/195 166/2/195
f 159/2/196 156/2/196 172/2/196 175/2/196
f 149/2/197 152/2/197 168/2/197 165/2/197
f 158/2/198 155/2/198 171/2/198 174/2/198
f 151/2/199 150/2/199 166/2/199 167/2/199
f 145/2/200 154/2/200 170/2/200 161/2/200
f 156/2/201 157/2/201 173/2/201 172/2/201
f 172/2/202 173/2/202 174/2/202 171/2/202
f 175/2/203 172/2/203 171/2/203 176/2/203
f 173/2/204 164/2/204 163/2/204 174/2/204
f 162/2/205 175/2/205 176/2/205 161/2/205
f 166/2/206 165/2/206 168/2/206 167/2/206
f 169/2/207 170/2/207 165/2/207 166/2/207
f 167/2/208 168/2/208 163/2/208 164/2/208
f 162/2/209 161/2/209 170/2/209 169/2/209
f 154/2/210 149/2/210 165/2/210 170/2/210
f 157/2/211 148/2/211 164/2/211 173/2/211
f 148/2/212 151/2/212 167/2/212 164/2/212
f 147/2/213 158/2/213 174/2/213 163/2/213
f 152/2/214 147/2/214 163/2/214 168/2/214
f 146/2/215 159/2/215 175/2/215 162/2/215
f 153/2/216 146/2/216 162/2/216 169/2/216
f 160/2/217 145/2/217 161/2/217 176/2/217
f 49/2/218 45/2/218 128/2/218 127/2/218
f 131/2/219 49/2/219 127/2/219 124/2/219
f 662/2/103 719/2/103 763/2/103 691/2/103
f 674/2/102 660/2/102 685/2/102 688/2/102
f 722/2/101 659/2/101 684/2/101 754/2/101
f 665/2/100 676/2/100 682/2/100 681/2/100
f 675/2/104 666/2/104 686/2/104 689/2/104
f 724/2/105 657/2/105 678/2/105 744/2/105
f 669/2/106 672/2/106 694/2/106 693/2/106
f 676/2/107 658/2/107 679/2/107 682/2/107
f 659/2/108 675/2/108 689/2/108 684/2/108
f 677/2/109 664/2/109 680/2/109 683/2/109
f 707/2/110 667/2/110 687/2/110 749/2/110
f 720/2/111 661/2/111 690/2/111 764/2/111
f 657/2/112 677/2/112 683/2/112 678/2/112
f 672/2/113 662/2/113 691/2/113 694/2/113
f 740/2/114 739/2/114 681/2/114 680/2/114
f 678/2/115 679/2/115 743/2/115 744/2/115
f 680/2/116 681/2/116 682/2/116 683/2/116
f 683/2/117 682/2/117 679/2/117 678/2/117
f 658/2/118 723/2/118 743/2/118 679/2/118
f 664/2/220 710/2/220 740/2/220 680/2/220
f 709/2/120 665/2/120 681/2/120 739/2/120
f 750/2/121 749/2/121 687/2/121 686/2/121
f 684/2/122 685/2/122 753/2/122 754/2/122
f 686/2/123 687/2/123 688/2/123 689/2/123
f 689/2/124 688/2/124 685/2/124 684/2/124
f 667/2/125 674/2/125 688/2/125 687/2/125
f 660/2/126 721/2/126 753/2/126 685/2/126
f 666/2/127 708/2/127 750/2/127 686/2/127
f 760/2/128 759/2/128 693/2/128 692/2/128
f 690/2/129 691/2/129 763/2/129 764/2/129
f 692/2/130 693/2/130 694/2/130 695/2/130
f 695/2/131 694/2/131 691/2/131 690/2/131
f 668/2/132 706/2/132 760/2/132 692/2/132
f 705/2/133 669/2/133 693/2/133 759/2/133
f 661/2/134 673/2/134 695/2/134 690/2/134
f 673/2/135 668/2/135 692/2/135 695/2/135
f 774/2/136 783/2/136 816/2/136 770/2/136
f 718/2/137 663/2/137 701/2/137 777/2/137
f 671/2/138 670/2/138 700/2/138 699/2/138
f 663/2/139 671/2/139 699/2/139 701/2/139
f 775/2/140 774/2/140 703/2/140 700/2/140
f 701/2/141 702/2/141 776/2/141 777/2/141
f 700/2/142 703/2/142 698/2/142 699/2/142
f 699/2/143 698/2/143 702/2/143 701/2/143
f 670/2/144 704/2/144 775/2/144 700/2/144
f 783/2/145 778/2/145 697/2/145 816/2/145
f 726/2/146 746/2/146 747/2/146 737/2/146
f 722/2/147 754/2/147 751/2/147 713/2/147
f 735/2/148 757/2/148 752/2/148 714/2/148
f 716/2/149 762/2/149 763/2/149 719/2/149
f 736/2/150 758/2/150 755/2/150 727/2/150
f 724/2/151 744/2/151 741/2/151 711/2/151
f 730/2/152 766/2/152 767/2/152 733/2/152
f 737/2/153 747/2/153 742/2/153 712/2/153
f 713/2/154 751/2/154 758/2/154 736/2/154
f 738/2/155 748/2/155 745/2/155 725/2/155
f 707/2/156 749/2/156 756/2/156 728/2/156
f 720/2/157 764/2/157 761/2/157 715/2/157
f 711/2/158 741/2/158 748/2/158 738/2/158
f 733/2/159 767/2/159 762/2/159 716/2/159
f 740/2/160 745/2/160 746/2/160 739/2/160
f 741/2/161 744/2/161 743/2/161 742/2/161
f 745/2/162 748/2/162 747/2/162 746/2/162
f 748/2/163 741/2/163 742/2/163 747/2/163
f 712/2/164 742/2/164 743/2/164 723/2/164
f 725/2/165 745/2/165 740/2/165 710/2/165
f 709/2/166 739/2/166 746/2/166 726/2/166
f 750/2/167 755/2/167 756/2/167 749/2/167
f 751/2/168 754/2/168 753/2/168 752/2/168
f 755/2/169 758/2/169 757/2/169 756/2/169
f 758/2/170 751/2/170 752/2/170 757/2/170
f 728/2/171 756/2/171 757/2/171 735/2/171
f 714/2/172 752/2/172 753/2/172 721/2/172
f 727/2/173 755/2/173 750/2/173 708/2/173
f 760/2/174 765/2/174 766/2/174 759/2/174
f 761/2/175 764/2/175 763/2/175 762/2/175
f 765/2/176 768/2/176 767/2/176 766/2/176
f 768/2/177 761/2/177 762/2/177 767/2/177
f 729/2/178 765/2/178 760/2/178 706/2/178
f 705/2/179 759/2/179 766/2/179 730/2/179
f 715/2/180 761/2/180 768/2/180 734/2/180
f 734/2/181 768/2/181 765/2/181 729/2/181
f 703/2/182 774/2/182 770/2/182 771/2/182
f 718/2/183 777/2/183 781/2/183 717/2/183
f 698/2/184 703/2/184 771/2/184 773/2/184
f 732/2/185 779/2/185 780/2/185 731/2/185
f 717/2/186 781/2/186 779/2/186 732/2/186
f 782/2/187 776/2/187 769/2/187 696/2/187
f 775/2/188 780/2/188 783/2/188 774/2/188
f 781/2/189 777/2/189 776/2/189 782/2/189
f 780/2/190 779/2/190 778/2/190 783/2/190
f 779/2/191 781/2/191 782/2/191 778/2/191
f 731/2/192 780/2/192 775/2/192 704/2/192
f 778/2/193 782/2/193 696/2/193 697/2/193
f 794/2/194 799/2/194 815/2/194 810/2/194
f 789/2/195 792/2/195 808/2/195 805/2/195
f 798/2/196 795/2/196 811/2/196 814/2/196
f 788/2/197 791/2/197 807/2/197 804/2/197
f 797/2/198 794/2/198 810/2/198 813/2/198
f 790/2/199 789/2/199 805/2/199 806/2/199
f 784/2/200 793/2/200 809/2/200 800/2/200
f 795/2/201 796/2/201 812/2/201 811/2/201
f 811/2/202 812/2/202 813/2/202 810/2/202
f 814/2/203 811/2/203 810/2/203 815/2/203
f 812/2/204 803/2/204 802/2/204 813/2/204
f 801/2/205 814/2/205 815/2/205 800/2/205
f 805/2/206 804/2/206 807/2/206 806/2/206
f 808/2/207 809/2/207 804/2/207 805/2/207
f 806/2/208 807/2/208 802/2/208 803/2/208
f 801/2/209 800/2/209 809/2/209 808/2/209
f 793/2/210 788/2/210 804/2/210 809/2/210
f 796/2/211 787/2/211 803/2/211 812/2/211
f 787/2/212 790/2/212 806/2/212 803/2/212
f 786/2/213 797/2/213 813/2/213 802/2/213
f 791/2/214 786/2/214 802/2/214 807/2/214
f 785/2/215 798/2/215 814/2/215 801/2/215
f 792/2/216 785/2/216 801/2/216 808/2/216
f 799/2/217 784/2/217 800/2/217 815/2/217
f 702/2/218 698/2/218 773/2/218 772/2/218
f 776/2/219 702/2/219 772/2/219 769/2/219
f 821/2/221 822/2/221 820/2/221 818/2/221
f 886/2/222 885/2/222 817/2/222 819/2/222
f 819/2/223 817/2/223 822/2/223 821/2/223
f 823/2/224 824/2/224 853/2/224 847/2/224
f 818/2/225 820/2/225 824/2/225 823/2/225
f 823/2/226 847/2/226 825/2/226 826/2/226
f 826/2/227 825/2/227 827/2/227 828/2/227
f 828/2/228 827/2/228 893/2/228 894/2/228
f 834/2/229 831/2/229 833/2/229 836/2/229
f 838/2/230 832/2/230 830/2/230 837/2/230
f 832/2/231 834/2/231 836/2/231 830/2/231
f 839/2/232 829/2/232 835/2/232 840/2/232
f 831/2/233 839/2/233 840/2/233 833/2/233
f 839/2/234 842/2/234 841/2/234 829/2/234
f 842/2/235 844/2/235 843/2/235 841/2/235
f 844/2/236 846/2/236 845/2/236 843/2/236
f 821/2/237 818/2/237 831/2/237 834/2/237
f 847/2/238 853/2/238 835/2/238 829/2/238
f 822/2/239 817/2/239 830/2/239 836/2/239
f 820/2/240 822/2/240 836/2/240 833/2/240
f 853/2/241 824/2/241 840/2/241 835/2/241
f 819/2/242 821/2/242 834/2/242 832/2/242
f 817/2/243 885/2/243 837/2/243 830/2/243
f 886/2/244 819/2/244 832/2/244 838/2/244
f 818/2/245 823/2/245 839/2/245 831/2/245
f 824/2/246 820/2/246 833/2/246 840/2/246
f 823/2/247 826/2/247 842/2/247 839/2/247
f 825/2/248 847/2/248 829/2/248 841/2/248
f 826/2/249 828/2/249 844/2/249 842/2/249
f 827/2/250 825/2/250 841/2/250 843/2/250
f 828/2/251 894/2/251 846/2/251 844/2/251
f 893/2/252 827/2/252 843/2/252 845/2/252
f 852/2/253 849/2/253 851/2/253 854/2/253
f 918/2/254 850/2/254 848/2/254 917/2/254
f 850/2/255 852/2/255 854/2/255 848/2/255
f 855/2/256 847/2/256 853/2/256 856/2/256
f 849/2/257 855/2/257 856/2/257 851/2/257
f 855/2/258 858/2/258 857/2/258 847/2/258
f 858/2/259 860/2/259 859/2/259 857/2/259
f 860/2/260 926/2/260 925/2/260 859/2/260
f 866/2/261 868/2/261 865/2/261 863/2/261
f 870/2/262 869/2/262 862/2/262 864/2/262
f 864/2/263 862/2/263 868/2/263 866/2/263
f 871/2/264 872/2/264 867/2/264 861/2/264
f 863/2/265 865/2/265 872/2/265 871/2/265
f 871/2/266 861/2/266 873/2/266 874/2/266
f 874/2/267 873/2/267 875/2/267 876/2/267
f 876/2/268 875/2/268 877/2/268 878/2/268
f 852/2/269 866/2/269 863/2/269 849/2/269
f 847/2/270 861/2/270 867/2/270 853/2/270
f 854/2/271 868/2/271 862/2/271 848/2/271
f 851/2/272 865/2/272 868/2/272 854/2/272
f 853/2/273 867/2/273 872/2/273 856/2/273
f 850/2/274 864/2/274 866/2/274 852/2/274
f 848/2/275 862/2/275 869/2/275 917/2/275
f 918/2/276 870/2/276 864/2/276 850/2/276
f 849/2/277 863/2/277 871/2/277 855/2/277
f 856/2/278 872/2/278 865/2/278 851/2/278
f 855/2/279 871/2/279 874/2/279 858/2/279
f 857/2/280 873/2/280 861/2/280 847/2/280
f 858/2/281 874/2/281 876/2/281 860/2/281
f 859/2/282 875/2/282 873/2/282 857/2/282
f 860/2/283 876/2/283 878/2/283 926/2/283
f 925/2/284 877/2/284 875/2/284 859/2/284
f 883/2/285 880/2/285 882/2/285 884/2/285
f 886/2/286 881/2/286 879/2/286 885/2/286
f 881/2/287 883/2/287 884/2/287 879/2/287
f 887/2/288 909/2/288 915/2/288 888/2/288
f 880/2/289 887/2/289 888/2/289 882/2/289
f 887/2/290 890/2/290 889/2/290 909/2/290
f 890/2/291 892/2/291 891/2/291 889/2/291
f 892/2/292 894/2/292 893/2/292 891/2/292
f 900/2/293 902/2/293 899/2/293 897/2/293
f 838/2/294 837/2/294 896/2/294 898/2/294
f 898/2/295 896/2/295 902/2/295 900/2/295
f 903/2/296 904/2/296 901/2/296 895/2/296
f 897/2/297 899/2/297 904/2/297 903/2/297
f 903/2/298 895/2/298 905/2/298 906/2/298
f 906/2/299 905/2/299 907/2/299 908/2/299
f 908/2/300 907/2/300 845/2/300 846/2/300
f 883/2/301 900/2/301 897/2/301 880/2/301
f 909/2/302 895/2/302 901/2/302 915/2/302
f 884/2/303 902/2/303 896/2/303 879/2/303
f 882/2/304 899/2/304 902/2/304 884/2/304
f 915/2/305 901/2/305 904/2/305 888/2/305
f 881/2/306 898/2/306 900/2/306 883/2/306
f 879/2/307 896/2/307 837/2/307 885/2/307
f 886/2/308 838/2/308 898/2/308 881/2/308
f 880/2/309 897/2/309 903/2/309 887/2/309
f 888/2/310 904/2/310 899/2/310 882/2/310
f 887/2/311 903/2/311 906/2/311 890/2/311
f 889/2/312 905/2/312 895/2/312 909/2/312
f 890/2/313 906/2/313 908/2/313 892/2/313
f 891/2/314 907/2/314 905/2/314 889/2/314
f 892/2/315 908/2/315 846/2/315 894/2/315
f 893/2/316 845/2/316 907/2/316 891/2/316
f 914/2/317 916/2/317 913/2/317 911/2/317
f 918/2/318 917/2/318 910/2/318 912/2/318
f 912/2/319 910/2/319 916/2/319 914/2/319
f 919/2/320 920/2/320 915/2/320 909/2/320
f 911/2/321 913/2/321 920/2/321 919/2/321
f 919/2/322 909/2/322 921/2/322 922/2/322
f 922/2/323 921/2/323 923/2/323 924/2/323
f 924/2/324 923/2/324 925/2/324 926/2/324
f 932/2/325 929/2/325 931/2/325 934/2/325
f 870/2/326 930/2/326 928/2/326 869/2/326
f 930/2/327 932/2/327 934/2/327 928/2/327
f 935/2/328 927/2/328 933/2/328 936/2/328
f 929/2/329 935/2/329 936/2/329 931/2/329
f 935/2/330 938/2/330 937/2/330 927/2/330
f 938/2/331 940/2/331 939/2/331 937/2/331
f 940/2/332 878/2/332 877/2/332 939/2/332
f 914/2/333 911/2/333 929/2/333 932/2/333
f 909/2/334 915/2/334 933/2/334 927/2/334
f 916/2/335 910/2/335 928/2/335 934/2/335
f 913/2/336 916/2/336 934/2/336 931/2/336
f 915/2/337 920/2/337 936/2/337 933/2/337
f 912/2/338 914/2/338 932/2/338 930/2/338
f 910/2/339 917/2/339 869/2/339 928/2/339
f 918/2/340 912/2/340 930/2/340 870/2/340
f 911/2/341 919/2/341 935/2/341 929/2/341
f 920/2/342 913/2/342 931/2/342 936/2/342
f 919/2/343 922/2/343 938/2/343 935/2/343
f 921/2/344 909/2/344 927/2/344 937/2/344
f 922/2/345 924/2/345 940/2/345 938/2/345
f 923/2/346 921/2/346 937/2/346 939/2/346
f 924/2/347 926/2/347 878/2/347 940/2/347
f 925/2/348 923/2/348 939/2/348 877/2/348
usemtl DarkWood
f 145/3/349 65/3/349 11/3/349 154/3/349
f 64/3/350 63/3/350 13/3/350 12/3/350
f 62/3/351 61/3/351 15/3/351 14/3/351
f 60/3/352 59/3/352 17/3/352 16/3/352
f 152/3/353 4/3/353 79/3/353 147/3/353
f 5/3/354 6/3/354 77/3/354 78/3/354
f 7/3/355 8/3/355 75/3/355 76/3/355
f 9/3/356 10/3/356 73/3/356 74/3/356
f 154/3/357 11/3/357 24/3/357 149/3/357
f 12/3/358 13/3/358 22/3/358 23/3/358
f 14/3/359 15/3/359 20/3/359 21/3/359
f 16/3/360 17/3/360 18/3/360 19/3/360
f 149/3/361 24/3/361 4/3/361 152/3/361
f 23/3/362 22/3/362 6/3/362 5/3/362
f 21/3/363 20/3/363 8/3/363 7/3/363
f 19/3/364 18/3/364 10/3/364 9/3/364
f 58/3/365 56/3/365 57/3/365
f 143/3/366 142/3/366 140/3/366 139/3/366
f 140/3/365 142/3/365 141/3/365
f 145/3/367 160/3/367 80/3/367 65/3/367
f 64/3/368 81/3/368 82/3/368 63/3/368
f 62/3/369 83/3/369 84/3/369 61/3/369
f 60/3/370 85/3/370 86/3/370 59/3/370
f 158/3/371 147/3/371 79/3/371 66/3/371
f 67/3/372 78/3/372 77/3/372 68/3/372
f 69/3/373 76/3/373 75/3/373 70/3/373
f 71/3/374 74/3/374 73/3/374 72/3/374
f 160/3/375 155/3/375 93/3/375 80/3/375
f 81/3/376 92/3/376 91/3/376 82/3/376
f 83/3/377 90/3/377 89/3/377 84/3/377
f 85/3/378 88/3/378 87/3/378 86/3/378
f 155/3/379 158/3/379 66/3/379 93/3/379
f 92/3/380 67/3/380 68/3/380 91/3/380
f 90/3/381 69/3/381 70/3/381 89/3/381
f 88/3/382 71/3/382 72/3/382 87/3/382
f 139/3/383 56/3/383 58/3/383 143/3/383
f 177/3/384 178/3/384 141/3/384 142/3/384
f 179/3/385 180/3/385 139/3/385 140/3/385
f 182/3/386 181/3/386 58/3/386 57/3/386
f 180/3/387 183/3/387 56/3/387 139/3/387
f 144/3/388 177/3/388 142/3/388 143/3/388
f 53/3/389 54/3/389 157/3/389 156/3/389
f 52/3/390 53/3/390 156/3/390 159/3/390
f 54/3/391 55/3/391 148/3/391 157/3/391
f 51/3/392 52/3/392 159/3/392 146/3/392
f 2/3/393 150/3/393 151/3/393 3/3/393
f 1/3/394 153/3/394 150/3/394 2/3/394
f 3/3/395 151/3/395 148/3/395 55/3/395
f 51/3/396 146/3/396 153/3/396 1/3/396
f 178/3/397 179/3/397 140/3/397 141/3/397
f 181/3/398 144/3/398 143/3/398 58/3/398
f 183/3/399 182/3/399 57/3/399 56/3/399
f 2/3/400 3/3/400 181/3/400 182/3/400
f 54/3/401 53/3/401 178/3/401 177/3/401
f 51/3/402 1/3/402 183/3/402 180/3/402
f 1/3/403 2/3/403 182/3/403 183/3/403
f 53/3/404 52/3/404 179/3/404 178/3/404
f 3/3/405 55/3/405 144/3/405 181/3/405
f 55/3/406 54/3/406 177/3/406 144/3/406
f 52/3/407 51/3/407 180/3/407 179/3/407
f 125/3/408 785/3/408 792/3/408 126/3/408
f 126/3/409 792/3/409 789/3/409 128/3/409
f 184/3/410 798/3/410 785/3/410 125/3/410
f 44/3/411 795/3/411 798/3/411 184/3/411
f 127/3/412 790/3/412 787/3/412 124/3/412
f 128/3/413 789/3/413 790/3/413 127/3/413
f 124/3/414 787/3/414 796/3/414 43/3/414
f 949/3/36 942/3/36 187/3/36 185/3/36
f 951/3/415 949/3/415 185/3/415 186/3/415
f 953/3/416 944/3/416 188/3/416 189/3/416
f 955/3/417 953/3/417 189/3/417 191/3/417
f 944/3/40 946/3/40 192/3/40 188/3/40
f 946/3/418 951/3/418 186/3/418 192/3/418
f 942/3/419 948/3/419 190/3/419 187/3/419
f 948/3/420 955/3/420 191/3/420 190/3/420
f 196/3/40 200/3/40 208/3/40 204/3/40
f 200/3/418 194/3/418 202/3/418 208/3/418
f 195/3/421 198/3/421 206/3/421 203/3/421
f 198/3/422 199/3/422 207/3/422 206/3/422
f 193/3/36 195/3/36 203/3/36 201/3/36
f 194/3/415 193/3/415 201/3/415 202/3/415
f 197/3/423 196/3/423 204/3/423 205/3/423
f 199/3/424 197/3/424 205/3/424 207/3/424
f 705/3/352 704/3/352 670/3/352 669/3/352
f 707/3/351 706/3/351 668/3/351 667/3/351
f 709/3/350 708/3/350 666/3/350 665/3/350
f 784/3/349 710/3/349 664/3/349 793/3/349
f 791/3/353 657/3/353 724/3/353 786/3/353
f 658/3/354 659/3/354 722/3/354 723/3/354
f 660/3/355 661/3/355 720/3/355 721/3/355
f 662/3/356 663/3/356 718/3/356 719/3/356
f 793/3/357 664/3/357 677/3/357 788/3/357
f 665/3/358 666/3/358 675/3/358 676/3/358
f 667/3/359 668/3/359 673/3/359 674/3/359
f 669/3/360 670/3/360 671/3/360 672/3/360
f 788/3/361 677/3/361 657/3/361 791/3/361
f 676/3/362 675/3/362 659/3/362 658/3/362
f 674/3/363 673/3/363 661/3/363 660/3/363
f 672/3/364 671/3/364 663/3/364 662/3/364
f 784/3/367 799/3/367 725/3/367 710/3/367
f 709/3/368 726/3/368 727/3/368 708/3/368
f 707/3/369 728/3/369 729/3/369 706/3/369
f 705/3/370 730/3/370 731/3/370 704/3/370
f 797/3/371 786/3/371 724/3/371 711/3/371
f 712/3/372 723/3/372 722/3/372 713/3/372
f 714/3/373 721/3/373 720/3/373 715/3/373
f 716/3/374 719/3/374 718/3/374 717/3/374
f 799/3/375 794/3/375 738/3/375 725/3/375
f 726/3/376 737/3/376 736/3/376 727/3/376
f 728/3/425 735/3/425 734/3/425 729/3/425
f 730/3/378 733/3/378 732/3/378 731/3/378
f 794/3/379 797/3/379 711/3/379 738/3/379
f 737/3/380 712/3/380 713/3/380 736/3/380
f 735/3/381 714/3/381 715/3/381 734/3/381
f 733/3/382 716/3/382 717/3/382 732/3/382
f 43/3/426 796/3/426 795/3/426 44/3/426
f 656/3/427 654/3/427 956/3/427 947/3/427
f 947/3/428 956/3/428 955/3/428 948/3/428
f 650/3/429 656/3/429 947/3/429 941/3/429
f 941/3/430 947/3/430 948/3/430 942/3/430
f 655/3/431 651/3/431 952/3/431 945/3/431
f 945/3/432 952/3/432 951/3/432 946/3/432
f 653/3/433 655/3/433 945/3/433 943/3/433
f 943/3/434 945/3/434 946/3/434 944/3/434
f 654/3/435 652/3/435 954/3/435 956/3/435
f 956/3/436 954/3/436 953/3/436 955/3/436
f 652/3/437 653/3/437 943/3/437 954/3/437
f 954/3/438 943/3/438 944/3/438 953/3/438
f 651/3/439 649/3/439 950/3/439 952/3/439
f 952/3/440 950/3/440 949/3/440 951/3/440
f 649/3/441 650/3/441 941/3/441 950/3/441
f 950/3/442 941/3/442 942/3/442 949/3/442
usemtl LightSteel
f 277/4/443 263/4/443 261/4/443 275/4/443
f 276/4/444 262/4/444 263/4/444 277/4/444
f 386/4/445 389/4/445 280/4/445 281/4/445
f 377/4/446 276/4/446 277/4/446 378/4/446
f 378/4/447 277/4/447 275/4/447 376/4/447
f 393/4/448 386/4/448 281/4/448 279/4/448
f 281/4/449 280/4/449 285/4/449 286/4/449
f 279/4/450 281/4/450 286/4/450 284/4/450
f 284/4/451 286/4/451 291/4/451 289/4/451
f 286/4/452 285/4/452 290/4/452 291/4/452
f 291/4/453 290/4/453 294/4/453 295/4/453
f 289/4/454 291/4/454 295/4/454 293/4/454
f 295/4/455 294/4/455 293/4/455
f 335/4/456 333/4/456 319/4/456 321/4/456
f 334/4/457 335/4/457 321/4/457 320/4/457
f 321/4/458 339/4/458 338/4/458 320/4/458
f 410/4/459 415/4/459 335/4/459 334/4/459
f 415/4/460 409/4/460 333/4/460 335/4/460
f 319/4/461 337/4/461 339/4/461 321/4/461
f 339/4/462 344/4/462 343/4/462 338/4/462
f 337/4/463 342/4/463 344/4/463 339/4/463
f 342/4/464 347/4/464 349/4/464 344/4/464
f 344/4/465 349/4/465 348/4/465 343/4/465
f 349/4/466 353/4/466 352/4/466 348/4/466
f 347/4/467 351/4/467 353/4/467 349/4/467
f 353/4/468 351/4/468 352/4/468
f 261/4/469 263/4/469 387/4/469 392/4/469
f 392/4/470 387/4/470 386/4/470 393/4/470
f 263/4/471 262/4/471 388/4/471 387/4/471
f 387/4/472 388/4/472 389/4/472 386/4/472
f 378/4/473 376/4/473 409/4/473 415/4/473
f 377/4/474 378/4/474 415/4/474 410/4/474
f 477/4/475 475/4/475 461/4/475 463/4/475
f 476/4/476 477/4/476 463/4/476 462/4/476
f 586/4/477 481/4/477 480/4/477 589/4/477
f 577/4/478 578/4/478 477/4/478 476/4/478
f 578/4/479 576/4/479 475/4/479 477/4/479
f 593/4/480 479/4/480 481/4/480 586/4/480
f 481/4/481 486/4/481 485/4/481 480/4/481
f 479/4/482 484/4/482 486/4/482 481/4/482
f 484/4/483 489/4/483 491/4/483 486/4/483
f 486/4/484 491/4/484 490/4/484 485/4/484
f 491/4/485 495/4/485 494/4/485 490/4/485
f 489/4/486 493/4/486 495/4/486 491/4/486
f 495/4/487 493/4/487 494/4/487
f 535/4/488 521/4/488 519/4/488 533/4/488
f 534/4/489 520/4/489 521/4/489 535/4/489
f 521/4/490 520/4/490 538/4/490 539/4/490
f 610/4/491 534/4/491 535/4/491 615/4/491
f 615/4/492 535/4/492 533/4/492 609/4/492
f 519/4/493 521/4/493 539/4/493 537/4/493
f 539/4/494 538/4/494 543/4/494 544/4/494
f 537/4/495 539/4/495 544/4/495 542/4/495
f 542/4/496 544/4/496 549/4/496 547/4/496
f 544/4/497 543/4/497 548/4/497 549/4/497
f 549/4/498 548/4/498 552/4/498 553/4/498
f 547/4/499 549/4/499 553/4/499 551/4/499
f 553/4/500 552/4/500 551/4/500
f 461/4/501 592/4/501 587/4/501 463/4/501
f 592/4/502 593/4/502 586/4/502 587/4/502
f 463/4/503 587/4/503 588/4/503 462/4/503
f 587/4/504 586/4/504 589/4/504 588/4/504
f 578/4/505 615/4/505 609/4/505 576/4/505
f 577/4/506 610/4/506 615/4/506 578/4/506
