vt 0.1 0.5
vt 0.3 0.5
vt 0.5 0.5
vt 0.7 0.5
vt 0.9 0.5
# Blender v2.79 (sub 0) OBJ File: 'Claymore.blend'
# www.blender.org
mtllib Claymore.mtl
o Claymore_Cylinder.010
v 0.157738 0.133884 -0.094159
v 0.061609 0.230442 -0.061609
v 0.196740 0.133884 0.000000
v 0.087128 0.230442 0.000000
v 0.157738 0.133884 0.094159
v 0.061609 0.230442 0.061609
v 0.022009 -0.321694 -0.019322
v 0.030013 -0.321694 0.000000
v 0.022009 -0.321694 0.019322
v 0.483355 1.908651 0.067439
v 0.281100 1.827086 -0.000000
v 0.483355 1.908651 0.000000
v 0.067439 1.455623 -0.067439
v 0.095373 1.455623 0.000000
v 0.067439 1.455623 0.067439
v 0.062176 0.494676 0.062338
v 0.062194 0.691986 0.063066
v 0.066975 0.717234 0.063795
v 0.061149 0.931104 0.064524
v 0.052647 0.972619 0.065253
v 0.068098 1.202244 0.065981
v 0.066710 1.229176 0.066710
v 0.062176 0.494676 -0.062338
v 0.062194 0.691986 -0.063066
v 0.066975 0.717234 -0.063795
v 0.061149 0.931104 -0.064524
v 0.052515 0.971883 -0.065253
v 0.068098 1.202244 -0.065981
v 0.066710 1.229176 -0.066710
v 0.094342 1.233682 0.000000
v 0.095441 1.210007 0.000000
v 0.082056 0.982797 -0.000000
v 0.087269 0.924746 0.000000
v 0.093369 0.715789 0.000000
v 0.087955 0.696851 0.000000
v 0.087132 0.502120 0.000000
v 0.080250 0.519642 0.081039
v 0.080852 0.669366 0.081986
v 0.080250 0.519642 -0.081039
v 0.080852 0.669366 -0.081986
v 0.111453 0.664875 0.000000
v 0.105954 0.539054 0.000000
v 0.079046 0.744490 0.082934
v 0.080591 0.895556 0.083881
v 0.079046 0.744490 -0.082934
v 0.080591 0.895556 -0.083881
v 0.109161 0.873651 0.000000
v 0.113357 0.742613 0.000000
v 0.483355 1.908651 -0.067439
v 0.281100 1.827086 -0.067439
v 0.488973 1.633554 -0.067439
v 0.071013 1.005372 0.084828
v 0.077585 1.162288 0.085776
v 0.071013 1.005372 -0.084828
v 0.077585 1.162288 -0.085776
v 0.116556 1.167493 0.000000
v 0.104309 1.023885 -0.000000
v 0.067325 1.441529 0.067325
v 0.067325 1.441529 -0.067325
v 0.095212 1.441529 0.000000
v 0.293004 1.633554 -0.067439
v 0.067439 1.636336 -0.067439
v 0.123775 1.409817 0.000000
v 0.122645 1.295789 0.000000
v 0.086723 1.276260 -0.086723
v 0.488973 1.724005 0.067439
v 0.086723 1.276260 0.086723
v 0.488973 1.724005 -0.067439
v 0.488973 1.724005 0.000000
v 0.087523 1.409817 0.087522
v 0.087523 1.409817 -0.087522
v 0.067439 1.817050 -0.067439
v 0.067439 1.817050 0.067439
v 0.488973 1.543103 0.067439
v 0.488973 1.543103 -0.067439
v 0.488973 1.543103 0.000000
v 0.293004 1.543103 0.000000
v 0.293004 1.543103 -0.067439
v 0.293004 1.543103 0.067439
v 0.293004 1.724005 0.000000
v 0.293004 1.724005 -0.067439
v 0.293004 1.724005 0.067439
v 0.048671 1.817050 -0.027901
v 0.136199 4.195562 -0.027901
v 0.048671 1.817050 0.027901
v 0.152145 1.817050 0.000000
v 0.116471 1.817050 -0.027901
v 0.116471 1.817050 0.027901
v 0.048671 4.201949 0.027901
v 0.136199 4.195562 0.027901
v 0.116471 4.030692 0.027901
v 0.048671 4.021434 -0.027901
v 0.048671 4.021434 0.027901
v 0.152145 4.030692 0.000000
v 0.116471 4.030692 -0.027901
v 0.064553 4.102846 0.027901
v 0.048671 4.118634 0.027901
v 0.064553 4.102846 -0.027901
v 0.048671 4.118634 -0.027901
v 0.092751 4.096387 -0.000000
v 0.048671 4.201949 -0.027901
v 0.164086 4.187237 0.000000
v 0.116468 5.958245 0.000000
v 0.152145 5.824067 0.000000
v 0.081333 4.289480 0.027901
v 0.048671 6.061233 -0.027901
v 0.102223 5.875220 -0.027901
v 0.116471 4.452664 0.027901
v 0.102223 5.875220 0.027901
v 0.048671 6.061233 0.027901
v 0.081333 4.289480 -0.027901
v 0.048671 4.267520 0.027901
v 0.048671 4.267520 -0.027901
v 0.114017 4.295939 0.000000
v 0.154225 4.384636 0.027901
v 0.154225 4.384636 -0.027901
v 0.048671 4.360092 0.027901
v 0.048671 4.360092 -0.027901
v 0.179059 4.385927 0.000000
v 0.053732 6.148908 0.000000
v 0.116471 4.452664 -0.027901
v 0.048671 4.452664 0.027901
v 0.048671 4.452664 -0.027901
v 0.152145 4.452664 0.000000
v 0.048671 4.644822 0.027901
v 0.048671 5.028522 0.027901
v 0.048671 5.143424 0.027901
v 0.048671 5.258325 0.027901
v 0.048671 5.373226 0.027901
v 0.048671 5.488127 0.027901
v 0.116471 4.644822 -0.027901
v 0.100844 5.028522 -0.027901
v 0.116471 5.143424 -0.027901
v 0.069591 5.258325 -0.027901
v 0.116471 5.373226 -0.027901
v 0.116471 5.488127 -0.027901
v 0.116471 4.644822 0.027901
v 0.100844 5.028522 0.027901
v 0.116471 5.143424 0.027901
v 0.069591 5.258325 0.027901
v 0.116471 5.373226 0.027901
v 0.116471 5.488127 0.027901
v 0.048671 5.488127 -0.027901
v 0.048671 5.373226 -0.027901
v 0.048671 5.258325 -0.027901
v 0.048671 5.143424 -0.027901
v 0.048671 5.028522 -0.027901
v 0.048671 4.644822 -0.027901
v 0.152145 5.488127 0.000000
v 0.152145 5.373226 0.000000
v 0.105265 5.258325 0.000000
v 0.152145 5.143424 0.000000
v 0.136518 5.028522 0.000000
v 0.152145 4.644822 0.000000
v -0.016635 -0.321694 -0.019322
v -0.001751 0.973482 -0.092281
v -0.006022 0.945785 -0.091251
v 0.002088 0.707167 -0.090220
v 0.001926 0.476703 -0.088159
v 0.001926 0.496278 -0.114606
v -0.005497 0.914841 -0.118626
v 0.001590 0.736550 -0.117286
v 0.001058 0.989078 -0.119965
v -0.057517 1.817050 -0.027901
v -0.057517 4.021434 -0.027901
v -0.057517 4.118634 -0.027901
v -0.057517 4.201949 -0.027901
v -0.057517 4.267520 -0.027901
v 0.438754 2.091580 0.067439
v -0.057517 4.360092 -0.027901
v 0.438754 2.091580 -0.067439
v -0.057517 4.452664 -0.027901
v 0.438754 2.091580 0.000000
v 0.048671 2.881201 -0.027901
v 0.136072 2.881201 0.000000
v 0.100398 2.881201 0.027901
v 0.048671 2.881201 0.027901
v 0.100398 2.881201 -0.027901
v -0.057517 2.881201 -0.027901
v 0.281100 1.827086 0.067439
v 0.144137 -0.020383 -0.095913
v 0.183865 -0.020383 0.000000
v 0.144137 -0.020383 0.095913
v 0.001386 0.438943 -0.087815
v -0.002912 0.255043 -0.087472
v 0.089801 0.469170 0.000000
v 0.084830 0.278518 0.000000
v 0.059548 0.281573 0.061852
v 0.064273 0.469409 0.062095
v 0.059548 0.281573 -0.061852
v 0.064273 0.469409 -0.062095
v 0.012230 0.427197 -0.104881
v -0.002619 0.280074 -0.104471
v 0.109229 0.435842 0.000000
v 0.105582 0.299214 0.000000
v 0.075481 0.303401 0.073872
v 0.075688 0.444787 0.074162
v 0.075481 0.303401 -0.073872
v 0.075688 0.444787 -0.074162
v 0.022009 -0.321694 0.000003
v 0.048671 2.042003 -0.027901
v 0.247003 2.042003 0.000000
v -0.057517 2.042003 -0.027901
v 0.211329 2.042003 0.027901
v 0.048671 2.042003 0.027901
v 0.211329 2.042003 -0.027901
v 0.140424 2.190584 0.027901
v 0.048671 2.190584 0.027901
v 0.140424 2.190584 -0.027901
v 0.048671 2.190584 -0.027901
v 0.176099 2.190584 0.000000
v -0.057517 2.190584 -0.027901
v 0.173938 2.349431 0.027901
v 0.048671 2.349431 0.027901
v 0.173938 2.349431 -0.027901
v 0.048671 2.349431 -0.027901
v 0.209612 2.349431 0.000000
v -0.057517 2.349431 -0.027901
v 0.140699 2.435326 0.027901
v 0.048671 2.435326 0.027901
v 0.140699 2.435326 -0.027901
v 0.048671 2.435326 -0.027901
v 0.176373 2.435326 0.000000
v -0.057517 2.435326 -0.027901
v -0.157738 0.133884 -0.094159
v -0.061609 0.230442 -0.061609
v -0.196740 0.133884 0.000000
v -0.087128 0.230442 0.000000
v -0.157738 0.133884 0.094159
v -0.061609 0.230442 0.061609
v -0.022009 -0.321694 -0.019322
v -0.030013 -0.321694 0.000000
v -0.022009 -0.321694 0.019322
v -0.483355 1.908651 0.067439
v -0.281100 1.827086 -0.000000
v -0.483355 1.908651 0.000000
v -0.067439 1.455623 -0.067439
v -0.095373 1.455623 0.000000
v -0.067439 1.455623 0.067439
v -0.062176 0.494676 0.062338
v -0.062194 0.691986 0.063066
v -0.066975 0.717234 0.063795
v -0.061149 0.931104 0.064524
v -0.052647 0.972619 0.065253
v -0.068098 1.202244 0.065981
v -0.066710 1.229176 0.066710
v -0.062176 0.494676 -0.062338
v -0.062194 0.691986 -0.063066
v -0.066975 0.717234 -0.063795
v -0.061149 0.931104 -0.064524
v -0.052515 0.971883 -0.065253
v -0.068098 1.202244 -0.065981
v -0.066710 1.229176 -0.066710
v -0.094342 1.233682 0.000000
v -0.095441 1.210007 0.000000
v -0.082056 0.982797 -0.000000
v -0.087269 0.924746 0.000000
v -0.093369 0.715789 0.000000
v -0.087955 0.696851 0.000000
v -0.087132 0.502120 0.000000
v -0.080250 0.519642 0.081039
v -0.080852 0.669366 0.081986
v -0.080250 0.519642 -0.081039
v -0.080852 0.669366 -0.081986
v -0.111453 0.664875 0.000000
v -0.105954 0.539054 0.000000
v -0.079046 0.744490 0.082934
v -0.080591 0.895556 0.083881
v -0.079046 0.744490 -0.082934
v -0.080591 0.895556 -0.083881
v -0.109161 0.873651 0.000000
v -0.113357 0.742613 0.000000
v -0.483355 1.908651 -0.067439
v -0.281100 1.827086 -0.067439
v -0.488973 1.633554 -0.067439
v -0.071013 1.005372 0.084828
v -0.077585 1.162288 0.085776
v -0.071013 1.005372 -0.084828
v -0.077585 1.162288 -0.085776
v -0.116556 1.167493 0.000000
v -0.104309 1.023885 -0.000000
v -0.067325 1.441529 0.067325
v -0.067325 1.441529 -0.067325
v -0.095212 1.441529 0.000000
v -0.293004 1.633554 -0.067439
v -0.067439 1.636336 -0.067439
v -0.123775 1.409817 0.000000
v -0.122645 1.295789 0.000000
v -0.086723 1.276260 -0.086723
v 0.000000 1.636336 -0.095373
v -0.488973 1.724005 0.067439
v -0.086723 1.276260 0.086723
v -0.488973 1.724005 -0.067439
v -0.488973 1.724005 0.000000
v -0.087523 1.409817 0.087522
v -0.087523 1.409817 -0.087522
v -0.067439 1.817050 -0.067439
v -0.067439 1.817050 0.067439
v -0.488973 1.543103 0.067439
v -0.488973 1.543103 -0.067439
v -0.488973 1.543103 0.000000
v -0.293004 1.543103 0.000000
v -0.293004 1.543103 -0.067439
v -0.293004 1.543103 0.067439
v -0.293004 1.724005 0.000000
v -0.293004 1.724005 -0.067439
v -0.293004 1.724005 0.067439
v -0.048671 1.817050 -0.027901
v -0.136199 4.195562 -0.027901
v -0.048671 1.817050 0.027901
v -0.152145 1.817050 0.000000
v -0.116471 1.817050 -0.027901
v -0.116471 1.817050 0.027901
v -0.048671 4.201949 0.027901
v -0.136199 4.195562 0.027901
v -0.116471 4.030692 0.027901
v -0.048671 4.021434 -0.027901
v -0.048671 4.021434 0.027901
v -0.152145 4.030692 0.000000
v -0.116471 4.030692 -0.027901
v -0.064553 4.102846 0.027901
v -0.048671 4.118634 0.027901
v -0.064553 4.102846 -0.027901
v -0.048671 4.118634 -0.027901
v -0.092751 4.096387 -0.000000
v -0.048671 4.201949 -0.027901
v -0.164086 4.187237 0.000000
v -0.116468 5.958245 0.000000
v -0.152145 5.824067 0.000000
v -0.081333 4.289480 0.027901
v -0.048671 6.061233 -0.027901
v -0.102223 5.875220 -0.027901
v -0.116471 4.452664 0.027901
v -0.102223 5.875220 0.027901
v -0.048671 6.061233 0.027901
v -0.081333 4.289480 -0.027901
v -0.048671 4.267520 0.027901
v -0.048671 4.267520 -0.027901
v -0.114017 4.295939 0.000000
v -0.154225 4.384636 0.027901
v -0.154225 4.384636 -0.027901
v -0.048671 4.360092 0.027901
v -0.048671 4.360092 -0.027901
v -0.179059 4.385927 0.000000
v -0.053732 6.148908 0.000000
v -0.116471 4.452664 -0.027901
v -0.048671 4.452664 0.027901
v -0.048671 4.452664 -0.027901
v -0.152145 4.452664 0.000000
v -0.048671 4.644822 0.027901
v -0.048671 5.028522 0.027901
v -0.048671 5.143424 0.027901
v -0.048671 5.258325 0.027901
v -0.048671 5.373226 0.027901
v -0.048671 5.488127 0.027901
v -0.116471 4.644822 -0.027901
v -0.100844 5.028522 -0.027901
v -0.116471 5.143424 -0.027901
v -0.069591 5.258325 -0.027901
v -0.116471 5.373226 -0.027901
v -0.116471 5.488127 -0.027901
v -0.116471 4.644822 0.027901
v -0.100844 5.028522 0.027901
v -0.116471 5.143424 0.027901
v -0.069591 5.258325 0.027901
v -0.116471 5.373226 0.027901
v -0.116471 5.488127 0.027901
v -0.048671 5.488127 -0.027901
v -0.048671 5.373226 -0.027901
v -0.048671 5.258325 -0.027901
v -0.048671 5.143424 -0.027901
v -0.048671 5.028522 -0.027901
v -0.048671 4.644822 -0.027901
v -0.152145 5.488127 0.000000
v -0.152145 5.373226 0.000000
v -0.105265 5.258325 0.000000
v -0.152145 5.143424 0.000000
v -0.136518 5.028522 0.000000
v -0.152145 4.644822 0.000000
v 0.000000 0.133884 -0.133161
v 0.000000 0.230442 -0.087128
v 0.000000 0.133884 0.133161
v 0.000000 0.230442 0.087128
v 0.000000 -0.321694 -0.027325
v 0.016635 -0.321694 -0.019322
v 0.000000 -0.321694 0.019322
v 0.000000 -0.321694 0.027325
v 0.000000 1.214904 -0.094342
v 0.000000 1.455623 -0.095373
v 0.000000 1.455623 0.095373
v 0.000000 1.185799 -0.093312
v 0.001751 0.973482 -0.092281
v 0.006022 0.945785 -0.091251
v -0.002088 0.707167 -0.090220
v 0.000000 0.680241 -0.089189
v -0.001926 0.476703 -0.088159
v 0.000000 1.214904 0.094342
v 0.000000 1.185799 0.093312
v 0.000000 0.973482 0.092281
v 0.000000 0.945785 0.091251
v 0.000000 0.707167 0.090220
v 0.000000 0.680241 0.089189
v 0.000000 0.476703 0.088159
v 0.000000 0.654098 -0.115946
v -0.001926 0.496278 -0.114606
v 0.000000 0.654098 0.115946
v 0.000000 0.496278 0.114606
v 0.005497 0.914841 -0.118626
v -0.001590 0.736550 -0.117286
v 0.000000 0.914841 0.118626
v 0.000000 0.736550 0.117286
v 0.000000 1.148635 -0.121305
v -0.001058 0.989078 -0.119965
v 0.000000 1.148635 0.121305
v 0.000000 0.989078 0.119965
v 0.000000 1.420951 -0.095212
v 0.000000 1.420951 0.095212
v 0.000000 1.389240 -0.123775
v 0.000000 1.261988 -0.122645
v 0.000000 1.389240 0.123775
v 0.000000 1.261988 0.122645
v 0.000000 1.817050 -0.095373
v 0.000000 1.817050 0.095373
v 0.000000 1.817050 0.027901
v 0.057517 1.817050 -0.027901
v 0.000000 1.817050 -0.027901
v 0.000000 4.201949 -0.027901
v 0.057517 4.021434 -0.027901
v 0.000000 4.021434 -0.027901
v 0.000000 4.021434 0.027901
v 0.000000 4.118634 -0.027901
v 0.057517 4.118634 -0.027901
v 0.000000 4.118634 0.027901
v 0.057517 4.201949 -0.027901
v 0.000000 4.201949 0.027901
v 0.000000 6.272916 0.000467
v 0.000000 6.155789 0.027901
v 0.000000 6.155789 -0.027901
v 0.000000 4.267520 -0.027901
v 0.057517 4.267520 -0.027901
v 0.000000 4.267520 0.027901
v -0.438754 2.091580 0.067439
v 0.000000 4.360092 -0.027901
v 0.057517 4.360092 -0.027901
v 0.000000 4.360092 0.027901
v -0.438754 2.091580 -0.067439
v 0.000000 4.452664 -0.027901
v 0.057517 4.452664 -0.027901
v 0.000000 4.452664 0.027901
v 0.000000 4.644822 -0.027901
v 0.000000 5.028522 -0.027901
v 0.000000 5.143424 -0.027901
v 0.000000 5.258325 -0.027901
v 0.000000 5.373226 -0.027901
v 0.000000 5.488127 -0.027901
v -0.438754 2.091580 0.000000
v 0.000000 4.644822 -0.027901
v 0.000000 5.488127 0.027901
v 0.000000 5.373226 0.027901
v 0.000000 5.258325 0.027901
v 0.000000 5.143424 0.027901
v 0.000000 5.028522 0.027901
v 0.000000 4.644822 0.027901
v -0.048671 2.881201 -0.027901
v 0.000000 2.881201 0.027901
v -0.136072 2.881201 0.000000
v -0.100398 2.881201 0.027901
v 0.000000 2.881201 -0.027901
v -0.048671 2.881201 0.027901
v -0.100398 2.881201 -0.027901
v 0.057517 2.881201 -0.027901
v -0.281100 1.827086 0.067439
v 0.000000 -0.095834 -0.135642
v -0.144137 -0.020383 -0.095913
v -0.183865 -0.020383 0.000000
v -0.144137 -0.020383 0.095913
v 0.000000 -0.095834 0.135642
v -0.001386 0.438943 -0.087815
v 0.002912 0.255043 -0.087472
v 0.000000 0.438943 0.087815
v 0.000000 0.255043 0.087472
v -0.089801 0.469170 0.000000
v -0.084830 0.278518 0.000000
v -0.059548 0.281573 0.061852
v -0.064273 0.469409 0.062095
v -0.059548 0.281573 -0.061852
v -0.064273 0.469409 -0.062095
v -0.012230 0.427197 -0.104881
v 0.002619 0.280074 -0.104471
v 0.000000 0.422119 0.104881
v 0.000000 0.280074 0.104471
v -0.109229 0.435842 0.000000
v -0.105582 0.299214 0.000000
v -0.075481 0.303401 0.073872
v -0.075688 0.444787 0.074162
v -0.075481 0.303401 -0.073872
v -0.075688 0.444787 -0.074162
v 0.000000 -0.321694 0.019320
v 0.000000 -0.321694 0.000004
v 0.000000 -0.321694 -0.019317
v -0.022009 -0.321694 0.000003
v -0.048671 2.042003 -0.027901
v 0.000000 2.042003 0.027901
v -0.247003 2.042003 0.000000
v 0.057517 2.042003 -0.027901
v -0.211329 2.042003 0.027901
v 0.000000 2.042003 -0.027901
v -0.048671 2.042003 0.027901
v -0.211329 2.042003 -0.027901
v -0.140424 2.190584 0.027901
v 0.000000 2.190584 -0.027901
v -0.048671 2.190584 0.027901
v -0.140424 2.190584 -0.027901
v -0.048671 2.190584 -0.027901
v 0.000000 2.190584 0.027901
v -0.176099 2.190584 0.000000
v 0.057517 2.190584 -0.027901
v -0.173938 2.349431 0.027901
v 0.000000 2.349431 -0.027901
v -0.048671 2.349431 0.027901
v -0.173938 2.349431 -0.027901
v -0.048671 2.349431 -0.027901
v 0.000000 2.349431 0.027901
v -0.209612 2.349431 0.000000
v 0.057517 2.349431 -0.027901
v -0.140699 2.435326 0.027901
v 0.000000 2.435326 -0.027901
v -0.048671 2.435326 0.027901
v -0.140699 2.435326 -0.027901
v -0.048671 2.435326 -0.027901
v 0.000000 2.435326 0.027901
v -0.176373 2.435326 0.000000
v 0.057517 2.435326 -0.027901
vn 0.6023 0.4863 0.6331
vn 0.6023 0.4863 -0.6331
vn 0.6160 -0.0086 0.7877
vn 0.6160 -0.0086 -0.7877
vn 0.5703 -0.4442 -0.6909
vn 0.5703 -0.4442 0.6909
vn 0.6443 0.3337 -0.6882
vn 0.6443 0.3337 0.6882
vn 0.5506 0.0109 -0.8347
vn 0.5506 0.0109 0.8347
vn 0.4716 0.2228 -0.8532
vn 0.6435 -0.4794 -0.5967
vn 0.6435 -0.4794 0.5967
vn 0.6415 0.3078 -0.7027
vn 0.6415 0.3078 0.7027
vn 0.6019 0.1858 -0.7767
vn 0.6019 0.1858 0.7767
vn 0.4716 0.2191 0.8542
vn 0.6014 0.1599 -0.7828
vn 0.6013 0.1599 0.7828
vn 0.6161 0.0000 0.7877
vn 0.6159 0.0251 0.7875
vn 0.6139 -0.0835 0.7849
vn 0.5975 0.2438 0.7639
vn 0.5975 -0.2438 0.7639
vn 0.6161 0.0000 -0.7877
vn 0.6159 0.0251 -0.7875
vn 0.6139 -0.0835 -0.7849
vn 0.5975 0.2438 -0.7639
vn 0.5975 -0.2438 -0.7639
vn 0.6151 0.0556 -0.7865
vn 0.6151 0.0556 0.7865
vn 0.5963 -0.2514 0.7624
vn 0.5963 -0.2514 -0.7624
vn 0.5910 0.2821 0.7557
vn 0.5910 0.2821 -0.7557
vn 0.6109 -0.1289 0.7811
vn 0.6109 -0.1289 -0.7811
vn 0.5993 0.2319 0.7662
vn 0.5993 0.2319 -0.7662
vn -0.6023 0.4863 0.6331
vn -0.6023 0.4863 -0.6331
vn -0.6160 -0.0086 0.7877
vn -0.6160 -0.0086 -0.7877
vn -0.5703 -0.4442 -0.6909
vn -0.5703 -0.4442 0.6909
vn -0.6443 0.3337 -0.6882
vn -0.6443 0.3337 0.6882
vn -0.5506 0.0109 -0.8347
vn -0.5506 0.0109 0.8347
vn -0.4716 0.2228 -0.8532
vn -0.6435 -0.4794 -0.5967
vn -0.6435 -0.4794 0.5967
vn -0.6415 0.3078 -0.7027
vn -0.6415 0.3078 0.7027
vn -0.6019 0.1858 -0.7767
vn -0.6019 0.1858 0.7767
vn -0.4716 0.2191 0.8542
vn -0.6014 0.1599 -0.7828
vn -0.6013 0.1599 0.7828
vn -0.6161 0.0000 0.7877
vn -0.6159 0.0251 0.7875
vn -0.6139 -0.0835 0.7849
vn -0.5975 0.2438 0.7639
vn -0.5975 -0.2438 0.7639
vn -0.6161 0.0000 -0.7877
vn -0.6159 0.0251 -0.7875
vn -0.6139 -0.0835 -0.7849
vn -0.5975 0.2438 -0.7639
vn -0.5975 -0.2438 -0.7639
vn -0.6151 0.0556 -0.7865
vn -0.6151 0.0556 0.7865
vn -0.5963 -0.2514 0.7624
vn -0.5963 -0.2514 -0.7624
vn -0.5910 0.2821 0.7557
vn -0.5910 0.2821 -0.7557
vn -0.6109 -0.1289 0.7811
vn -0.6109 -0.1289 -0.7811
vn -0.5993 0.2319 0.7662
vn -0.5993 0.2319 -0.7662
vn 0.0000 0.0000 1.0000
vn -0.0000 -0.0000 -1.0000
vn 0.7113 0.6456 -0.2780
vn 0.3624 -0.6343 0.6829
vn 0.8579 0.4603 0.2285
vn 0.2402 0.5325 0.8116
vn 0.7579 -0.5648 -0.3264
vn 0.4342 -0.7221 0.5386
vn 0.8262 0.4015 -0.3953
vn 0.7113 0.6456 0.2780
vn 0.7579 -0.5648 0.3264
vn 0.8179 -0.5441 -0.1871
vn 0.4084 0.6038 -0.6846
vn 0.3828 -0.7160 0.5838
vn 0.8179 -0.5441 0.1871
vn 0.8262 0.4015 0.3953
vn 0.3916 -0.0052 -0.9201
vn 0.3881 -0.0076 0.9216
vn 0.9456 -0.0221 -0.3246
vn 0.9456 -0.0221 0.3246
vn 0.1565 0.7064 0.6902
vn 0.4434 -0.7205 -0.5332
vn 0.1565 0.7064 -0.6902
vn 0.3892 0.0002 -0.9212
vn 0.3967 -0.0082 0.9179
vn 0.9361 0.0076 -0.3518
vn 0.9361 0.0076 0.3518
vn 0.8579 0.4603 -0.2285
vn 0.4350 0.5994 0.6719
vn 0.3707 -0.6314 -0.6811
vn 0.4343 -0.0141 -0.9007
vn 0.4320 -0.0155 0.9018
vn 0.9221 -0.0590 -0.3824
vn 0.9221 -0.0590 0.3824
vn 0.3760 -0.7222 -0.5806
vn 0.2402 0.5325 -0.8116
vn 0.8208 -0.5163 0.2443
vn 0.8227 -0.5135 -0.2438
vn 0.1472 0.6319 -0.7609
vn 0.4102 -0.4838 0.7731
vn 0.7101 0.6397 0.2942
vn 0.8555 -0.4311 -0.2868
vn 0.8555 -0.4311 0.2868
vn 0.7101 0.6397 -0.2942
vn 0.3840 -0.0080 -0.9233
vn 0.3840 -0.0080 0.9233
vn 0.9242 -0.0084 -0.3819
vn 0.9242 -0.0084 0.3819
vn 0.4102 -0.4838 -0.7731
vn 0.1472 0.6319 0.7609
vn 0.6744 -0.6697 -0.3109
vn 0.8083 0.4962 0.3170
vn 0.6744 -0.6697 0.3109
vn 0.0865 0.6546 -0.7510
vn 0.9182 -0.0131 0.3959
vn 0.9182 -0.0131 -0.3959
vn 0.3765 -0.0026 0.9264
vn 0.4030 -0.0233 -0.9149
vn 0.8083 0.4962 -0.3170
vn 0.4862 -0.5736 0.6592
vn 0.0989 0.5903 0.8011
vn 0.4714 -0.5765 -0.6674
vn -0.7113 0.6456 -0.2780
vn -0.3624 -0.6343 0.6829
vn -0.8579 0.4603 0.2285
vn -0.2402 0.5325 0.8116
vn -0.7579 -0.5648 -0.3264
vn -0.4342 -0.7221 0.5386
vn -0.8262 0.4015 -0.3953
vn -0.7113 0.6456 0.2780
vn -0.7579 -0.5648 0.3264
vn -0.8179 -0.5441 -0.1871
vn -0.4084 0.6038 -0.6846
vn -0.3828 -0.7160 0.5838
vn -0.8179 -0.5441 0.1871
vn -0.8262 0.4015 0.3953
vn -0.3916 -0.0052 -0.9201
vn -0.3881 -0.0076 0.9216
vn -0.9456 -0.0221 -0.3246
vn -0.9456 -0.0221 0.3246
vn -0.1565 0.7064 0.6902
vn -0.4434 -0.7205 -0.5332
vn -0.1565 0.7064 -0.6902
vn -0.3892 0.0002 -0.9212
vn -0.3967 -0.0082 0.9179
vn -0.9361 0.0076 -0.3518
vn -0.9361 0.0076 0.3518
vn -0.8579 0.4603 -0.2285
vn -0.4350 0.5994 0.6719
vn -0.3707 -0.6314 -0.6811
vn -0.4343 -0.0141 -0.9007
vn -0.4320 -0.0155 0.9018
vn -0.9221 -0.0590 -0.3824
vn -0.9221 -0.0590 0.3824
vn -0.3760 -0.7222 -0.5806
vn -0.2402 0.5325 -0.8116
vn -0.8208 -0.5163 0.2443
vn -0.8227 -0.5135 -0.2438
vn -0.1472 0.6319 -0.7609
vn -0.4102 -0.4838 0.7731
vn -0.7101 0.6397 0.2942
vn -0.8555 -0.4311 -0.2868
vn -0.8555 -0.4311 0.2868
vn -0.7101 0.6397 -0.2942
vn -0.3840 -0.0080 -0.9233
vn -0.3840 -0.0080 0.9233
vn -0.9242 -0.0084 -0.3819
vn -0.9242 -0.0084 0.3819
vn -0.4102 -0.4838 -0.7731
vn -0.1472 0.6319 0.7609
vn -0.6744 -0.6697 -0.3109
vn -0.8083 0.4962 0.3170
vn -0.6744 -0.6697 0.3109
vn -0.0865 0.6546 -0.7510
vn -0.9182 -0.0131 0.3959
vn -0.9182 -0.0131 -0.3959
vn -0.3765 -0.0026 0.9264
vn -0.4030 -0.0233 -0.9149
vn -0.8083 0.4962 -0.3170
vn -0.4862 -0.5736 0.6592
vn -0.0989 0.5903 0.8011
vn -0.4714 -0.5765 -0.6674
vn 0.9238 -0.0106 0.3827
vn 0.3858 0.0010 -0.9226
vn 0.9238 -0.0106 -0.3827
vn 0.3835 -0.0061 0.9235
vn 0.3929 -0.0826 -0.9159
vn 0.4050 0.0023 -0.9143
vn 0.3813 -0.0196 -0.9243
vn 0.3835 -0.0061 -0.9235
vn 0.3762 0.0039 0.9265
vn 0.3856 -0.0664 0.9203
vn 0.4303 0.0299 0.9022
vn 0.3813 -0.0196 0.9242
vn 0.9226 0.0740 -0.3786
vn 0.9053 -0.2149 -0.3664
vn 0.9103 0.1246 -0.3948
vn 0.9218 0.0397 -0.3856
vn 0.9226 0.0740 0.3786
vn 0.9053 -0.2149 0.3664
vn 0.9111 0.1226 0.3935
vn 0.9218 0.0397 0.3856
vn 0.9244 0.0397 0.3794
vn 0.9244 0.0397 -0.3794
vn 0.3882 0.0034 0.9216
vn 0.3778 0.0176 -0.9257
vn -0.9238 -0.0106 0.3827
vn -0.3858 0.0010 -0.9226
vn -0.9238 -0.0106 -0.3827
vn -0.3835 -0.0061 0.9235
vn -0.3929 -0.0826 -0.9159
vn -0.4050 0.0023 -0.9143
vn -0.3813 -0.0196 -0.9243
vn -0.3835 -0.0061 -0.9235
vn -0.3762 0.0039 0.9265
vn -0.3856 -0.0664 0.9203
vn -0.4303 0.0299 0.9022
vn -0.3813 -0.0196 0.9242
vn -0.9226 0.0740 -0.3786
vn -0.9053 -0.2149 -0.3664
vn -0.9103 0.1246 -0.3948
vn -0.9218 0.0397 -0.3856
vn -0.9226 0.0740 0.3786
vn -0.9053 -0.2149 0.3664
vn -0.9111 0.1226 0.3935
vn -0.9218 0.0397 0.3856
vn -0.9244 0.0397 0.3794
vn -0.9244 0.0397 -0.3794
vn -0.3882 0.0034 0.9216
vn -0.3778 0.0176 -0.9257
vn 0.2493 0.4689 -0.8474
vn 0.6375 0.7237 -0.2641
vn 0.6375 0.7237 0.2641
vn 0.2493 0.4689 0.8474
vn 0.4121 -0.3851 0.8257
vn 0.8356 -0.4267 -0.3461
vn 0.4121 -0.3851 -0.8257
vn 0.8356 -0.4267 0.3461
vn -0.8590 0.5120 0.0000
vn -0.9934 -0.1147 0.0000
vn 0.9995 0.0304 0.0000
vn 0.9715 0.2369 0.0000
vn 0.3827 0.0000 -0.9239
vn 0.2831 0.8925 0.3511
vn 0.3809 -0.9213 0.0789
vn 0.0000 -1.0000 0.0000
vn 0.3827 0.0000 0.9239
vn 0.4808 0.8582 -0.1799
vn 0.0000 1.0000 0.0000
vn 0.3809 -0.9213 -0.0789
vn 0.4808 0.8582 0.1799
vn 0.2831 0.8925 -0.3511
vn 0.2520 0.0018 -0.9677
vn 0.9211 -0.0769 0.3816
vn 0.9211 -0.0769 -0.3816
vn 0.2520 0.0018 0.9677
vn 1.0000 0.0000 0.0000
vn -0.2493 0.4689 -0.8474
vn -0.6375 0.7237 -0.2641
vn -0.6375 0.7237 0.2641
vn -0.2493 0.4689 0.8474
vn -0.4121 -0.3851 0.8257
vn -0.8356 -0.4267 -0.3461
vn -0.4121 -0.3851 -0.8257
vn -0.8356 -0.4267 0.3461
vn 0.8590 0.5120 0.0000
vn 0.9934 -0.1147 0.0000
vn -0.9995 0.0304 0.0000
vn -0.9715 0.2369 0.0000
vn -0.3827 0.0000 -0.9239
vn -0.2831 0.8925 0.3511
vn -0.3809 -0.9213 0.0789
vn -0.3827 0.0000 0.9239
vn -0.4808 0.8582 -0.1799
vn -0.3809 -0.9213 -0.0789
vn -0.4808 0.8582 0.1799
vn -0.2831 0.8925 -0.3511
vn -0.2520 0.0018 -0.9677
vn -0.9211 -0.0769 0.3816
vn -0.9211 -0.0769 -0.3816
vn -0.2520 0.0018 0.9677
vn -1.0000 0.0000 0.0000
usemtl LightRed
s off
f 91/1/1 94/1/1 100/1/1 96/1/1
f 94/1/2 95/1/2 98/1/2 100/1/2
f 175/1/3 94/1/3 91/1/3 176/1/3
f 178/1/4 95/1/4 94/1/4 175/1/4
f 100/1/5 98/1/5 84/1/5 102/1/5
f 96/1/6 100/1/6 102/1/6 90/1/6
f 102/1/7 84/1/7 111/1/7 114/1/7
f 90/1/8 102/1/8 114/1/8 105/1/8
f 136/1/9 107/1/9 104/1/9 149/1/9
f 149/1/10 104/1/10 109/1/10 142/1/10
f 106/1/11 438/1/11 436/1/11 120/1/11
f 114/1/12 111/1/12 116/1/12 119/1/12
f 105/1/13 114/1/13 119/1/13 115/1/13
f 119/1/14 116/1/14 121/1/14 124/1/14
f 115/1/15 119/1/15 124/1/15 108/1/15
f 106/1/16 120/1/16 103/1/16 107/1/16
f 120/1/17 110/1/17 109/1/17 103/1/17
f 120/1/18 436/1/18 437/1/18 110/1/18
f 107/1/19 103/1/19 104/1/19
f 103/1/20 109/1/20 104/1/20
f 124/1/21 154/1/21 137/1/21 108/1/21
f 154/1/22 153/1/22 138/1/22 137/1/22
f 153/1/23 152/1/23 139/1/23 138/1/23
f 152/1/24 151/1/24 140/1/24 139/1/24
f 151/1/25 150/1/25 141/1/25 140/1/25
f 150/1/21 149/1/21 142/1/21 141/1/21
f 121/1/26 131/1/26 154/1/26 124/1/26
f 131/1/27 132/1/27 153/1/27 154/1/27
f 132/1/28 133/1/28 152/1/28 153/1/28
f 133/1/29 134/1/29 151/1/29 152/1/29
f 134/1/30 135/1/30 150/1/30 151/1/30
f 135/1/26 136/1/26 149/1/26 150/1/26
f 221/1/31 178/1/31 175/1/31 223/1/31
f 223/1/32 175/1/32 176/1/32 219/1/32
f 86/1/33 202/1/33 204/1/33 88/1/33
f 87/1/34 206/1/34 202/1/34 86/1/34
f 202/1/35 211/1/35 207/1/35 204/1/35
f 206/1/36 209/1/36 211/1/36 202/1/36
f 211/1/37 217/1/37 213/1/37 207/1/37
f 209/1/38 215/1/38 217/1/38 211/1/38
f 217/1/39 223/1/39 219/1/39 213/1/39
f 215/1/40 221/1/40 223/1/40 217/1/40
f 316/1/41 321/1/41 325/1/41 319/1/41
f 319/1/42 325/1/42 323/1/42 320/1/42
f 466/1/43 467/1/43 316/1/43 319/1/43
f 470/1/44 466/1/44 319/1/44 320/1/44
f 325/1/45 327/1/45 309/1/45 323/1/45
f 321/1/46 315/1/46 327/1/46 325/1/46
f 327/1/47 339/1/47 336/1/47 309/1/47
f 315/1/48 330/1/48 339/1/48 327/1/48
f 361/1/49 374/1/49 329/1/49 332/1/49
f 374/1/50 367/1/50 334/1/50 329/1/50
f 331/1/51 345/1/51 436/1/51 438/1/51
f 339/1/52 344/1/52 341/1/52 336/1/52
f 330/1/53 340/1/53 344/1/53 339/1/53
f 344/1/54 349/1/54 346/1/54 341/1/54
f 340/1/55 333/1/55 349/1/55 344/1/55
f 331/1/56 332/1/56 328/1/56 345/1/56
f 345/1/57 328/1/57 334/1/57 335/1/57
f 345/1/58 335/1/58 437/1/58 436/1/58
f 332/1/59 329/1/59 328/1/59
f 328/1/60 329/1/60 334/1/60
f 349/1/61 333/1/61 362/1/61 379/1/61
f 379/1/62 362/1/62 363/1/62 378/1/62
f 378/1/63 363/1/63 364/1/63 377/1/63
f 377/1/64 364/1/64 365/1/64 376/1/64
f 376/1/65 365/1/65 366/1/65 375/1/65
f 375/1/61 366/1/61 367/1/61 374/1/61
f 346/1/66 349/1/66 379/1/66 356/1/66
f 356/1/67 379/1/67 378/1/67 357/1/67
f 357/1/68 378/1/68 377/1/68 358/1/68
f 358/1/69 377/1/69 376/1/69 359/1/69
f 359/1/70 376/1/70 375/1/70 360/1/70
f 360/1/66 375/1/66 374/1/66 361/1/66
f 529/1/71 532/1/71 466/1/71 470/1/71
f 532/1/72 526/1/72 467/1/72 466/1/72
f 311/1/73 313/1/73 506/1/73 504/1/73
f 312/1/74 311/1/74 504/1/74 509/1/74
f 504/1/75 506/1/75 510/1/75 516/1/75
f 509/1/76 504/1/76 516/1/76 513/1/76
f 516/1/77 510/1/77 518/1/77 524/1/77
f 513/1/78 516/1/78 524/1/78 521/1/78
f 524/1/79 518/1/79 526/1/79 532/1/79
f 521/1/80 524/1/80 532/1/80 529/1/80
usemtl Red
f 93/2/81 91/2/81 96/2/81 97/2/81
f 95/2/82 92/2/82 99/2/82 98/2/82
f 430/2/81 93/2/81 97/2/81 433/2/81
f 92/2/82 429/2/82 431/2/82 99/2/82
f 468/2/82 429/2/82 92/2/82 174/2/82
f 177/2/81 93/2/81 430/2/81 465/2/81
f 176/2/81 91/2/81 93/2/81 177/2/81
f 178/2/82 174/2/82 92/2/82 95/2/82
f 97/2/81 96/2/81 90/2/81 89/2/81
f 98/2/82 99/2/82 101/2/82 84/2/82
f 433/2/81 97/2/81 89/2/81 435/2/81
f 99/2/82 431/2/82 427/2/82 101/2/82
f 101/2/82 427/2/82 439/2/82 113/2/82
f 89/2/81 90/2/81 105/2/81 112/2/81
f 84/2/82 101/2/82 113/2/82 111/2/82
f 435/2/81 89/2/81 112/2/81 441/2/81
f 136/2/82 143/2/82 106/2/82 107/2/82
f 142/2/81 109/2/81 110/2/81 130/2/81
f 441/2/81 112/2/81 117/2/81 445/2/81
f 113/2/82 439/2/82 443/2/82 118/2/82
f 112/2/81 105/2/81 115/2/81 117/2/81
f 111/2/82 113/2/82 118/2/82 116/2/82
f 118/2/82 443/2/82 447/2/82 123/2/82
f 117/2/81 115/2/81 108/2/81 122/2/81
f 116/2/82 118/2/82 123/2/82 121/2/82
f 445/2/81 117/2/81 122/2/81 449/2/81
f 130/2/81 110/2/81 437/2/81 458/2/81
f 447/2/82 450/2/82 148/2/82 123/2/82
f 450/2/82 451/2/82 147/2/82 148/2/82
f 451/2/82 452/2/82 146/2/82 147/2/82
f 452/2/82 453/2/82 145/2/82 146/2/82
f 453/2/82 454/2/82 144/2/82 145/2/82
f 454/2/82 455/2/82 143/2/82 144/2/82
f 122/2/81 125/2/81 463/2/81 449/2/81
f 125/2/81 126/2/81 462/2/81 463/2/81
f 126/2/81 127/2/81 461/2/81 462/2/81
f 127/2/81 128/2/81 460/2/81 461/2/81
f 128/2/81 129/2/81 459/2/81 460/2/81
f 129/2/81 130/2/81 458/2/81 459/2/81
f 108/2/81 137/2/81 125/2/81 122/2/81
f 137/2/81 138/2/81 126/2/81 125/2/81
f 138/2/81 139/2/81 127/2/81 126/2/81
f 139/2/81 140/2/81 128/2/81 127/2/81
f 140/2/81 141/2/81 129/2/81 128/2/81
f 141/2/81 142/2/81 130/2/81 129/2/81
f 121/2/82 123/2/82 148/2/82 131/2/82
f 131/2/82 148/2/82 147/2/82 132/2/82
f 132/2/82 147/2/82 146/2/82 133/2/82
f 133/2/82 146/2/82 145/2/82 134/2/82
f 134/2/82 145/2/82 144/2/82 135/2/82
f 135/2/82 144/2/82 143/2/82 136/2/82
f 455/2/82 438/2/82 106/2/82 143/2/82
f 165/2/82 166/2/82 431/2/82 429/2/82
f 468/2/82 179/2/82 165/2/82 429/2/82
f 166/2/82 167/2/82 427/2/82 431/2/82
f 167/2/82 168/2/82 439/2/82 427/2/82
f 168/2/82 170/2/82 443/2/82 439/2/82
f 170/2/82 172/2/82 447/2/82 443/2/82
f 447/2/82 172/2/82 457/2/82 450/2/82
f 527/2/82 224/2/82 179/2/82 468/2/82
f 221/2/82 222/2/82 174/2/82 178/2/82
f 219/2/81 176/2/81 177/2/81 220/2/81
f 220/2/81 177/2/81 465/2/81 531/2/81
f 527/2/82 468/2/82 174/2/82 222/2/82
f 426/2/82 507/2/82 201/2/82 83/2/82
f 85/2/81 205/2/81 503/2/81 424/2/81
f 88/2/81 204/2/81 205/2/81 85/2/81
f 87/2/82 83/2/82 201/2/82 206/2/82
f 426/2/82 164/2/82 203/2/82 507/2/82
f 507/2/82 511/2/82 210/2/82 201/2/82
f 205/2/81 208/2/81 515/2/81 503/2/81
f 204/2/81 207/2/81 208/2/81 205/2/81
f 206/2/82 201/2/82 210/2/82 209/2/82
f 507/2/82 203/2/82 212/2/82 511/2/82
f 511/2/82 519/2/82 216/2/82 210/2/82
f 208/2/81 214/2/81 523/2/81 515/2/81
f 207/2/81 213/2/81 214/2/81 208/2/81
f 209/2/82 210/2/82 216/2/82 215/2/82
f 511/2/82 212/2/82 218/2/82 519/2/82
f 519/2/82 527/2/82 222/2/82 216/2/82
f 214/2/81 220/2/81 531/2/81 523/2/81
f 213/2/81 219/2/81 220/2/81 214/2/81
f 215/2/82 216/2/82 222/2/82 221/2/82
f 519/2/82 218/2/82 224/2/82 527/2/82
f 318/2/81 322/2/81 321/2/81 316/2/81
f 320/2/82 323/2/82 324/2/82 317/2/82
f 430/2/81 433/2/81 322/2/81 318/2/81
f 317/2/82 324/2/82 431/2/82 429/2/82
f 468/2/82 464/2/82 317/2/82 429/2/82
f 469/2/81 465/2/81 430/2/81 318/2/81
f 467/2/81 469/2/81 318/2/81 316/2/81
f 470/2/82 320/2/82 317/2/82 464/2/82
f 322/2/81 314/2/81 315/2/81 321/2/81
f 323/2/82 309/2/82 326/2/82 324/2/82
f 433/2/81 435/2/81 314/2/81 322/2/81
f 324/2/82 326/2/82 427/2/82 431/2/82
f 326/2/82 338/2/82 439/2/82 427/2/82
f 314/2/81 337/2/81 330/2/81 315/2/81
f 309/2/82 336/2/82 338/2/82 326/2/82
f 435/2/81 441/2/81 337/2/81 314/2/81
f 361/2/82 332/2/82 331/2/82 368/2/82
f 367/2/81 355/2/81 335/2/81 334/2/81
f 441/2/81 445/2/81 342/2/81 337/2/81
f 338/2/82 343/2/82 443/2/82 439/2/82
f 337/2/81 342/2/81 340/2/81 330/2/81
f 336/2/82 341/2/82 343/2/82 338/2/82
f 343/2/82 348/2/82 447/2/82 443/2/82
f 342/2/81 347/2/81 333/2/81 340/2/81
f 341/2/82 346/2/82 348/2/82 343/2/82
f 445/2/81 449/2/81 347/2/81 342/2/81
f 355/2/81 458/2/81 437/2/81 335/2/81
f 447/2/82 348/2/82 373/2/82 450/2/82
f 450/2/82 373/2/82 372/2/82 451/2/82
f 451/2/82 372/2/82 371/2/82 452/2/82
f 452/2/82 371/2/82 370/2/82 453/2/82
f 453/2/82 370/2/82 369/2/82 454/2/82
f 454/2/82 369/2/82 368/2/82 455/2/82
f 347/2/81 449/2/81 463/2/81 350/2/81
f 350/2/81 463/2/81 462/2/81 351/2/81
f 351/2/81 462/2/81 461/2/81 352/2/81
f 352/2/81 461/2/81 460/2/81 353/2/81
f 353/2/81 460/2/81 459/2/81 354/2/81
f 354/2/81 459/2/81 458/2/81 355/2/81
f 333/2/81 347/2/81 350/2/81 362/2/81
f 362/2/81 350/2/81 351/2/81 363/2/81
f 363/2/81 351/2/81 352/2/81 364/2/81
f 364/2/81 352/2/81 353/2/81 365/2/81
f 365/2/81 353/2/81 354/2/81 366/2/81
f 366/2/81 354/2/81 355/2/81 367/2/81
f 346/2/82 356/2/82 373/2/82 348/2/82
f 356/2/82 357/2/82 372/2/82 373/2/82
f 357/2/82 358/2/82 371/2/82 372/2/82
f 358/2/82 359/2/82 370/2/82 371/2/82
f 359/2/82 360/2/82 369/2/82 370/2/82
f 360/2/82 361/2/82 368/2/82 369/2/82
f 455/2/82 368/2/82 331/2/82 438/2/82
f 428/2/82 429/2/82 431/2/82 432/2/82
f 468/2/82 429/2/82 428/2/82 471/2/82
f 432/2/82 431/2/82 427/2/82 434/2/82
f 434/2/82 427/2/82 439/2/82 440/2/82
f 440/2/82 439/2/82 443/2/82 444/2/82
f 444/2/82 443/2/82 447/2/82 448/2/82
f 447/2/82 450/2/82 457/2/82 448/2/82
f 527/2/82 468/2/82 471/2/82 533/2/82
f 529/2/82 470/2/82 464/2/82 530/2/82
f 526/2/81 528/2/81 469/2/81 467/2/81
f 528/2/81 531/2/81 465/2/81 469/2/81
f 527/2/82 530/2/82 464/2/82 468/2/82
f 426/2/82 308/2/82 502/2/82 507/2/82
f 310/2/81 424/2/81 503/2/81 508/2/81
f 313/2/81 310/2/81 508/2/81 506/2/81
f 312/2/82 509/2/82 502/2/82 308/2/82
f 426/2/82 507/2/82 505/2/82 425/2/82
f 507/2/82 502/2/82 514/2/82 511/2/82
f 508/2/81 503/2/81 515/2/81 512/2/81
f 506/2/81 508/2/81 512/2/81 510/2/81
f 509/2/82 513/2/82 514/2/82 502/2/82
f 507/2/82 511/2/82 517/2/82 505/2/82
f 511/2/82 514/2/82 522/2/82 519/2/82
f 512/2/81 515/2/81 523/2/81 520/2/81
f 510/2/81 512/2/81 520/2/81 518/2/81
f 513/2/82 521/2/82 522/2/82 514/2/82
f 511/2/82 519/2/82 525/2/82 517/2/82
f 519/2/82 522/2/82 530/2/82 527/2/82
f 520/2/81 523/2/81 531/2/81 528/2/81
f 518/2/81 520/2/81 528/2/81 526/2/81
f 521/2/82 529/2/82 530/2/82 522/2/82
f 519/2/82 527/2/82 533/2/82 525/2/82
usemtl DarkBrown
f 24/3/83 35/3/83 41/3/83 40/3/83
f 401/3/84 18/3/84 43/3/84 411/3/84
f 33/3/85 19/3/85 44/3/85 47/3/85
f 21/3/86 398/3/86 414/3/86 53/3/86
f 34/3/87 25/3/87 45/3/87 48/3/87
f 403/3/88 16/3/88 37/3/88 407/3/88
f 28/3/89 31/3/89 56/3/89 55/3/89
f 35/3/90 17/3/90 38/3/90 41/3/90
f 18/3/91 34/3/91 48/3/91 43/3/91
f 36/3/92 23/3/92 39/3/92 42/3/92
f 157/3/93 26/3/93 46/3/93 161/3/93
f 399/3/94 20/3/94 52/3/94 415/3/94
f 16/3/95 36/3/95 42/3/95 37/3/95
f 31/3/96 21/3/96 53/3/96 56/3/96
f 160/3/97 404/3/97 40/3/97 39/3/97
f 37/3/98 38/3/98 406/3/98 407/3/98
f 39/3/99 40/3/99 41/3/99 42/3/99
f 42/3/100 41/3/100 38/3/100 37/3/100
f 17/3/101 402/3/101 406/3/101 38/3/101
f 23/3/102 159/3/102 160/3/102 39/3/102
f 395/3/103 24/3/103 40/3/103 404/3/103
f 162/3/104 161/3/104 46/3/104 45/3/104
f 43/3/105 44/3/105 410/3/105 411/3/105
f 45/3/106 46/3/106 47/3/106 48/3/106
f 48/3/107 47/3/107 44/3/107 43/3/107
f 26/3/108 33/3/108 47/3/108 46/3/108
f 19/3/109 400/3/109 410/3/109 44/3/109
f 25/3/110 158/3/110 162/3/110 45/3/110
f 163/3/111 412/3/111 55/3/111 54/3/111
f 52/3/112 53/3/112 414/3/112 415/3/112
f 54/3/113 55/3/113 56/3/113 57/3/113
f 57/3/114 56/3/114 53/3/114 52/3/114
f 27/3/115 156/3/115 163/3/115 54/3/115
f 391/3/116 28/3/116 55/3/116 412/3/116
f 20/3/117 32/3/117 57/3/117 52/3/117
f 32/3/118 27/3/118 54/3/118 57/3/118
f 416/3/119 59/3/119 71/3/119 418/3/119
f 397/3/120 22/3/120 67/3/120 421/3/120
f 60/3/121 58/3/121 70/3/121 63/3/121
f 30/3/122 29/3/122 65/3/122 64/3/122
f 22/3/123 30/3/123 64/3/123 67/3/123
f 59/3/124 60/3/124 63/3/124 71/3/124
f 419/3/125 418/3/125 71/3/125 65/3/125
f 67/3/126 70/3/126 420/3/126 421/3/126
f 65/3/127 71/3/127 63/3/127 64/3/127
f 64/3/128 63/3/128 70/3/128 67/3/128
f 29/3/129 388/3/129 419/3/129 65/3/129
f 58/3/130 417/3/130 420/3/130 70/3/130
f 187/3/131 190/3/131 198/3/131 195/3/131
f 186/3/132 189/3/132 197/3/132 194/3/132
f 188/3/133 187/3/133 195/3/133 196/3/133
f 184/3/134 191/3/134 199/3/134 192/3/134
f 195/3/135 194/3/135 197/3/135 196/3/135
f 198/3/136 199/3/136 194/3/136 195/3/136
f 196/3/137 197/3/137 490/3/137 491/3/137
f 193/3/138 192/3/138 199/3/138 198/3/138
f 191/3/139 186/3/139 194/3/139 199/3/139
f 481/3/140 188/3/140 196/3/140 491/3/140
f 189/3/141 480/3/141 490/3/141 197/3/141
f 190/3/142 185/3/142 193/3/142 198/3/142
f 248/3/143 264/3/143 265/3/143 259/3/143
f 401/3/144 411/3/144 267/3/144 242/3/144
f 257/3/145 271/3/145 268/3/145 243/3/145
f 245/3/146 277/3/146 414/3/146 398/3/146
f 258/3/147 272/3/147 269/3/147 249/3/147
f 403/3/148 407/3/148 261/3/148 240/3/148
f 252/3/149 279/3/149 280/3/149 255/3/149
f 259/3/150 265/3/150 262/3/150 241/3/150
f 242/3/151 267/3/151 272/3/151 258/3/151
f 260/3/152 266/3/152 263/3/152 247/3/152
f 393/3/153 408/3/153 270/3/153 250/3/153
f 399/3/154 415/3/154 276/3/154 244/3/154
f 240/3/155 261/3/155 266/3/155 260/3/155
f 255/3/156 280/3/156 277/3/156 245/3/156
f 405/3/157 263/3/157 264/3/157 404/3/157
f 261/3/158 407/3/158 406/3/158 262/3/158
f 263/3/159 266/3/159 265/3/159 264/3/159
f 266/3/160 261/3/160 262/3/160 265/3/160
f 241/3/161 262/3/161 406/3/161 402/3/161
f 247/3/162 263/3/162 405/3/162 396/3/162
f 395/3/163 404/3/163 264/3/163 248/3/163
f 409/3/164 269/3/164 270/3/164 408/3/164
f 267/3/165 411/3/165 410/3/165 268/3/165
f 269/3/166 272/3/166 271/3/166 270/3/166
f 272/3/167 267/3/167 268/3/167 271/3/167
f 250/3/168 270/3/168 271/3/168 257/3/168
f 243/3/169 268/3/169 410/3/169 400/3/169
f 249/3/170 269/3/170 409/3/170 394/3/170
f 413/3/171 278/3/171 279/3/171 412/3/171
f 276/3/172 415/3/172 414/3/172 277/3/172
f 278/3/173 281/3/173 280/3/173 279/3/173
f 281/3/174 276/3/174 277/3/174 280/3/174
f 251/3/175 278/3/175 413/3/175 392/3/175
f 391/3/176 412/3/176 279/3/176 252/3/176
f 244/3/177 276/3/177 281/3/177 256/3/177
f 256/3/178 281/3/178 278/3/178 251/3/178
f 416/3/179 418/3/179 296/3/179 283/3/179
f 397/3/180 421/3/180 292/3/180 246/3/180
f 284/3/181 287/3/181 295/3/181 282/3/181
f 254/3/182 288/3/182 289/3/182 253/3/182
f 246/3/183 292/3/183 288/3/183 254/3/183
f 283/3/184 296/3/184 287/3/184 284/3/184
f 419/3/185 289/3/185 296/3/185 418/3/185
f 292/3/186 421/3/186 420/3/186 295/3/186
f 289/3/187 288/3/187 287/3/187 296/3/187
f 288/3/188 292/3/188 295/3/188 287/3/188
f 253/3/189 289/3/189 419/3/189 388/3/189
f 282/3/190 295/3/190 420/3/190 417/3/190
f 483/3/191 493/3/191 496/3/191 486/3/191
f 482/3/192 492/3/192 495/3/192 485/3/192
f 484/3/193 494/3/193 493/3/193 483/3/193
f 478/3/194 488/3/194 497/3/194 487/3/194
f 493/3/195 494/3/195 495/3/195 492/3/195
f 496/3/196 493/3/196 492/3/196 497/3/196
f 494/3/197 491/3/197 490/3/197 495/3/197
f 489/3/198 496/3/198 497/3/198 488/3/198
f 487/3/199 497/3/199 492/3/199 482/3/199
f 481/3/200 491/3/200 494/3/200 484/3/200
f 485/3/201 495/3/201 490/3/201 480/3/201
f 486/3/202 496/3/202 489/3/202 479/3/202
usemtl Black
f 60/4/203 14/4/203 15/4/203 58/4/203
f 184/4/204 159/4/204 23/4/204 191/4/204
f 59/4/205 13/4/205 14/4/205 60/4/205
f 58/4/206 15/4/206 390/4/206 417/4/206
f 395/4/207 158/4/207 25/4/207 24/4/207
f 157/4/208 156/4/208 27/4/208 26/4/208
f 391/4/209 388/4/209 29/4/209 28/4/209
f 416/4/210 389/4/210 13/4/210 59/4/210
f 189/4/211 16/4/211 403/4/211 480/4/211
f 17/4/212 18/4/212 401/4/212 402/4/212
f 19/4/213 20/4/213 399/4/213 400/4/213
f 21/4/214 22/4/214 397/4/214 398/4/214
f 191/4/215 23/4/215 36/4/215 186/4/215
f 24/4/216 25/4/216 34/4/216 35/4/216
f 26/4/217 27/4/217 32/4/217 33/4/217
f 28/4/218 29/4/218 30/4/218 31/4/218
f 186/4/219 36/4/219 16/4/219 189/4/219
f 35/4/220 34/4/220 18/4/220 17/4/220
f 33/4/221 32/4/221 20/4/221 19/4/221
f 31/4/222 30/4/222 22/4/222 21/4/222
f 4/4/223 187/4/223 188/4/223 6/4/223
f 2/4/224 190/4/224 187/4/224 4/4/224
f 6/4/225 188/4/225 481/4/225 383/4/225
f 381/4/226 185/4/226 190/4/226 2/4/226
f 284/4/227 282/4/227 239/4/227 238/4/227
f 478/4/228 487/4/228 247/4/228 396/4/228
f 283/4/229 284/4/229 238/4/229 237/4/229
f 282/4/230 417/4/230 390/4/230 239/4/230
f 395/4/231 248/4/231 249/4/231 394/4/231
f 393/4/232 250/4/232 251/4/232 392/4/232
f 391/4/233 252/4/233 253/4/233 388/4/233
f 416/4/234 283/4/234 237/4/234 389/4/234
f 485/4/235 480/4/235 403/4/235 240/4/235
f 241/4/236 402/4/236 401/4/236 242/4/236
f 243/4/237 400/4/237 399/4/237 244/4/237
f 245/4/238 398/4/238 397/4/238 246/4/238
f 487/4/239 482/4/239 260/4/239 247/4/239
f 248/4/240 259/4/240 258/4/240 249/4/240
f 250/4/241 257/4/241 256/4/241 251/4/241
f 252/4/242 255/4/242 254/4/242 253/4/242
f 482/4/243 485/4/243 240/4/243 260/4/243
f 259/4/244 241/4/244 242/4/244 258/4/244
f 257/4/245 243/4/245 244/4/245 256/4/245
f 255/4/246 245/4/246 246/4/246 254/4/246
f 228/4/247 230/4/247 484/4/247 483/4/247
f 226/4/248 228/4/248 483/4/248 486/4/248
f 230/4/249 383/4/249 481/4/249 484/4/249
f 381/4/250 226/4/250 486/4/250 479/4/250
usemtl DarkSteel
f 380/5/251 381/5/251 2/5/251 1/5/251
f 1/5/252 2/5/252 4/5/252 3/5/252
f 3/5/253 4/5/253 6/5/253 5/5/253
f 5/5/254 6/5/254 383/5/254 382/5/254
f 183/5/255 477/5/255 387/5/255 9/5/255
f 181/5/256 182/5/256 8/5/256 7/5/256
f 473/5/257 181/5/257 7/5/257 384/5/257
f 182/5/258 183/5/258 9/5/258 8/5/258
f 180/5/259 169/5/259 173/5/259 11/5/259
f 81/5/260 80/5/260 11/5/260 50/5/260
f 82/5/81 66/5/81 10/5/81 180/5/81
f 66/5/261 69/5/261 12/5/261 10/5/261
f 68/5/82 81/5/82 50/5/82 49/5/82
f 180/5/81 10/5/81 169/5/81
f 10/5/262 12/5/262 173/5/262 169/5/262
f 13/5/263 389/5/263 290/5/263 62/5/263
f 78/5/82 61/5/82 51/5/82 75/5/82
f 13/5/82 62/5/82 61/5/82 78/5/82
f 73/5/264 82/5/264 88/5/264 85/5/264
f 15/5/265 14/5/265 77/5/265 79/5/265
f 62/5/263 290/5/263 422/5/263 72/5/263
f 80/5/260 82/5/260 180/5/260 11/5/260
f 387/5/266 498/5/266 9/5/266
f 390/5/267 15/5/267 73/5/267 423/5/267
f 80/5/268 81/5/268 87/5/268 86/5/268
f 61/5/82 81/5/82 68/5/82 51/5/82
f 69/5/261 68/5/261 49/5/261 12/5/261
f 62/5/82 72/5/82 81/5/82 61/5/82
f 72/5/269 422/5/269 426/5/269 83/5/269
f 73/5/81 15/5/81 79/5/81 82/5/81
f 14/5/270 13/5/270 78/5/270 77/5/270
f 82/5/271 80/5/271 86/5/271 88/5/271
f 423/5/269 73/5/269 85/5/269 424/5/269
f 81/5/272 72/5/272 83/5/272 87/5/272
f 12/5/262 49/5/262 171/5/262 173/5/262
f 49/5/82 50/5/82 171/5/82
f 82/5/81 79/5/81 74/5/81 66/5/81
f 380/5/273 1/5/273 181/5/273 473/5/273
f 3/5/274 5/5/274 183/5/274 182/5/274
f 1/5/275 3/5/275 182/5/275 181/5/275
f 5/5/276 382/5/276 477/5/276 183/5/276
f 500/5/266 155/5/266 384/5/266
f 9/5/266 200/5/266 8/5/266
f 8/5/266 200/5/266 7/5/266
f 7/5/266 500/5/266 384/5/266
f 500/5/266 7/5/266 200/5/266 499/5/266
f 499/5/266 200/5/266 9/5/266 498/5/266
f 74/5/266 79/5/266 77/5/266 78/5/266 75/5/266 76/5/266
f 74/5/277 76/5/277 69/5/277 66/5/277
f 51/5/277 68/5/277 69/5/277 76/5/277 75/5/277
f 50/5/259 11/5/259 173/5/259 171/5/259
f 380/5/278 225/5/278 226/5/278 381/5/278
f 225/5/279 227/5/279 228/5/279 226/5/279
f 227/5/280 229/5/280 230/5/280 228/5/280
f 229/5/281 382/5/281 383/5/281 230/5/281
f 476/5/282 233/5/282 387/5/282 477/5/282
f 474/5/283 231/5/283 232/5/283 475/5/283
f 473/5/284 384/5/284 231/5/284 474/5/284
f 475/5/285 232/5/285 233/5/285 476/5/285
f 472/5/286 235/5/286 456/5/286 442/5/286
f 306/5/287 274/5/287 235/5/287 305/5/287
f 307/5/81 472/5/81 234/5/81 291/5/81
f 291/5/288 234/5/288 236/5/288 294/5/288
f 293/5/82 273/5/82 274/5/82 306/5/82
f 472/5/81 442/5/81 234/5/81
f 234/5/289 442/5/289 456/5/289 236/5/289
f 237/5/290 286/5/290 290/5/290 389/5/290
f 303/5/82 300/5/82 275/5/82 285/5/82
f 237/5/82 303/5/82 285/5/82 286/5/82
f 298/5/291 310/5/291 313/5/291 307/5/291
f 239/5/292 304/5/292 302/5/292 238/5/292
f 286/5/290 297/5/290 422/5/290 290/5/290
f 305/5/287 235/5/287 472/5/287 307/5/287
f 387/5/266 233/5/266 498/5/266
f 390/5/293 423/5/293 298/5/293 239/5/293
f 305/5/294 311/5/294 312/5/294 306/5/294
f 285/5/82 275/5/82 293/5/82 306/5/82
f 294/5/288 236/5/288 273/5/288 293/5/288
f 286/5/82 285/5/82 306/5/82 297/5/82
f 297/5/269 308/5/269 426/5/269 422/5/269
f 298/5/81 307/5/81 304/5/81 239/5/81
f 238/5/295 302/5/295 303/5/295 237/5/295
f 307/5/296 313/5/296 311/5/296 305/5/296
f 423/5/269 424/5/269 310/5/269 298/5/269
f 306/5/297 312/5/297 308/5/297 297/5/297
f 387/5/81 498/5/81 386/5/81
f 236/5/289 456/5/289 446/5/289 273/5/289
f 273/5/82 446/5/82 274/5/82
f 307/5/81 291/5/81 299/5/81 304/5/81
f 380/5/298 473/5/298 474/5/298 225/5/298
f 227/5/299 475/5/299 476/5/299 229/5/299
f 225/5/300 474/5/300 475/5/300 227/5/300
f 229/5/301 476/5/301 477/5/301 382/5/301
f 500/5/266 384/5/266 385/5/266
f 233/5/266 232/5/266 501/5/266
f 232/5/266 231/5/266 501/5/266
f 231/5/266 384/5/266 500/5/266
f 500/5/266 499/5/266 501/5/266 231/5/266
f 499/5/266 498/5/266 233/5/266 501/5/266
f 299/5/266 301/5/266 300/5/266 303/5/266 302/5/266 304/5/266
f 299/5/302 291/5/302 294/5/302 301/5/302
f 275/5/302 300/5/302 301/5/302 294/5/302 293/5/302
f 274/5/286 446/5/286 456/5/286 235/5/286
