vt 0.1 0.5
vt 0.3 0.5
vt 0.5 0.5
vt 0.7 0.5
vt 0.9 0.5
# Blender v2.79 (sub 0) OBJ File: 'Dagger.blend'
# www.blender.org
mtllib Dagger.mtl
o Dagger_Cylinder.002
v 0.091762 -0.416404 -0.059670
v 0.041235 -0.377848 -0.042844
v 0.118885 -0.416404 0.000000
v 0.058981 -0.377848 0.000000
v 0.091762 -0.416404 0.059670
v 0.041235 -0.377848 0.042844
v 0.095928 -0.581349 -0.022459
v 0.105231 -0.581349 0.000000
v 0.095928 -0.581349 0.022459
v 0.051415 0.260648 0.044629
v 0.000063 0.261647 0.063513
v -0.283471 0.274299 0.042495
v 0.046913 0.214182 -0.046763
v 0.066088 0.213705 0.000000
v 0.046913 0.214182 0.046763
v 0.043773 -0.220668 0.045578
v 0.049168 -0.104979 0.051258
v 0.046435 -0.080562 0.056370
v 0.055384 0.068940 0.053079
v 0.053250 0.085191 0.052729
v 0.043774 -0.220672 -0.045580
v 0.049191 -0.105055 -0.051279
v 0.046311 -0.081028 -0.056359
v 0.055360 0.068875 -0.053057
v 0.053227 0.085124 -0.052709
v 0.075328 0.088883 0.000000
v 0.077457 0.074651 0.000000
v 0.071779 -0.073646 -0.000000
v 0.069878 -0.100879 0.000000
v 0.062144 -0.216076 0.000000
v 0.057446 -0.205506 0.059719
v 0.063267 -0.118643 0.065622
v 0.057452 -0.205529 -0.059725
v 0.063294 -0.118720 -0.065647
v 0.087008 -0.120235 0.000000
v 0.076881 -0.193629 0.000000
v -0.256694 0.332567 0.042495
v -0.256694 0.332567 -0.042495
v -0.256694 0.332567 0.000000
v 0.062461 -0.060216 0.073451
v 0.064672 0.043438 0.070704
v 0.062451 -0.060223 -0.073441
v 0.064643 0.043384 -0.070674
v 0.097011 0.047543 0.000000
v 0.091334 -0.047744 -0.000000
v 0.047183 0.206615 0.047020
v 0.047183 0.206615 -0.047020
v 0.066528 0.206311 0.000000
v -0.256694 0.216032 0.042495
v -0.256694 0.216032 -0.042495
v 0.087861 0.188870 0.000000
v 0.093122 0.124113 0.000000
v 0.066485 0.112027 -0.066111
v -0.256694 0.216082 0.000000
v 0.247733 0.332567 0.042495
v 0.066507 0.112088 0.066131
v 0.247733 0.332567 -0.042495
v 0.247733 0.332567 0.000000
v 0.062089 0.188666 0.061906
v 0.062089 0.188666 -0.061906
v 0.042495 0.307114 -0.042495
v 0.042495 0.307114 0.042495
v 0.247733 0.217403 0.042699
v 0.247733 0.217403 -0.042699
v 0.247733 0.217880 0.000000
v 0.175775 0.242526 0.000000
v 0.175775 0.242257 -0.042699
v 0.175775 0.242257 0.042699
v 0.175775 0.307114 0.000000
v 0.175775 0.307114 -0.042495
v 0.175775 0.307114 0.042495
v 0.051459 0.307114 -0.017581
v 0.051459 0.307114 0.017581
v 0.151746 0.307114 0.000000
v 0.117170 0.307114 -0.017581
v 0.117170 0.307114 0.017581
v -0.001609 -0.437621 -0.084387
v -0.001609 -0.377848 -0.060590
v -0.060706 -0.447414 -0.059670
v -0.044452 -0.377848 -0.042844
v -0.087828 -0.447414 0.000000
v -0.062199 -0.377848 0.000000
v -0.060706 -0.447414 0.059670
v -0.044452 -0.377848 0.042844
v -0.001609 -0.437621 0.084387
v -0.001609 -0.377848 0.060590
v 0.073468 -0.581349 -0.031762
v 0.051009 -0.581349 -0.022459
v 0.041706 -0.581349 0.000000
v 0.051009 -0.581349 0.022459
v 0.073468 -0.581349 0.031762
v 0.000563 0.076640 -0.075261
v -0.046613 0.214182 -0.046763
v 0.000170 0.216180 -0.066929
v -0.064361 0.210011 0.000000
v -0.046613 0.214182 0.046763
v 0.000170 0.216180 0.066929
v 0.000656 0.058775 -0.075910
v -0.000548 -0.081656 -0.080160
v -0.001414 -0.112284 -0.072043
v -0.000279 -0.232056 -0.064318
v -0.043844 -0.242367 0.045077
v -0.051381 -0.119922 0.050651
v -0.056620 -0.084430 0.057613
v -0.053652 0.043562 0.054370
v -0.054946 0.061035 0.053951
v 0.000563 0.076640 0.075261
v 0.000656 0.058775 0.075910
v -0.000548 -0.081656 0.080160
v -0.001414 -0.112284 0.072043
v -0.000279 -0.232056 0.064318
v -0.043844 -0.242366 -0.045077
v -0.051362 -0.119838 -0.050630
v -0.056628 -0.083935 -0.057621
v -0.053674 0.043618 -0.054393
v -0.053347 0.061105 -0.053977
v -0.075801 0.056426 0.000000
v -0.075973 0.043203 0.000000
v -0.081131 -0.087429 0.000000
v -0.071988 -0.123362 0.000000
v -0.061674 -0.246609 0.000000
v -0.001484 -0.127996 -0.092085
v -0.000280 -0.220034 -0.084059
v -0.057450 -0.222372 0.059153
v -0.065165 -0.137479 0.064552
v -0.001484 -0.127996 0.092085
v -0.000280 -0.220034 0.084059
v -0.057449 -0.222368 -0.059151
v -0.065142 -0.137394 -0.064526
v -0.085935 -0.151005 0.000000
v -0.077394 -0.225727 0.000000
v 0.000762 0.034483 -0.100881
v 0.001895 -0.072237 -0.104141
v -0.073790 -0.066476 0.074793
v -0.071385 0.018523 0.072206
v 0.000762 0.034483 0.100881
v 0.001895 -0.072237 0.104141
v -0.073801 -0.067636 -0.074804
v -0.071412 0.018564 -0.072235
v -0.101961 0.009187 0.000000
v -0.108927 -0.068343 0.000000
v 0.000201 0.197253 -0.068065
v -0.054232 0.201889 0.047077
v -0.054251 0.201477 -0.047094
v 0.000201 0.197253 0.068065
v -0.071972 0.194685 0.000000
v 0.000230 0.179258 -0.089986
v 0.000422 0.104174 -0.094892
v 0.000230 0.179258 0.089986
v 0.000422 0.104174 0.094892
v -0.094495 0.160191 0.000000
v -0.095056 0.084562 0.000000
v -0.067339 0.085086 -0.067826
v -0.067326 0.085022 0.067812
v 0.274510 0.274985 0.042597
v -0.069461 0.176284 0.062212
v -0.069461 0.176284 -0.062212
v -0.042495 0.307114 -0.042495
v 0.000000 0.307114 -0.060097
v -0.042495 0.307114 0.042495
v 0.000000 0.307114 0.060097
v -0.200657 0.274299 0.042495
v -0.051312 0.260648 0.044629
v 0.191695 0.274686 0.042597
v -0.184737 0.241513 0.000000
v -0.184737 0.241485 -0.042495
v -0.184737 0.241485 0.042495
v -0.184737 0.307114 0.000000
v -0.184737 0.307114 -0.042495
v -0.184737 0.307114 0.042495
v 0.000000 0.307114 0.017581
v -0.051458 0.307114 -0.017581
v 0.000000 0.307114 -0.017581
v -0.051458 0.307114 0.017581
v -0.151746 0.307114 0.000000
v -0.117170 0.307114 -0.017581
v -0.117170 0.307114 0.017581
v 0.116241 0.900100 -0.017581
v 0.071187 0.900100 0.017581
v 0.190408 0.900100 0.000000
v 0.160136 0.900100 0.017581
v 0.071187 0.900100 -0.017581
v 0.116241 0.900100 0.017581
v 0.160136 0.900100 -0.017581
v 0.026132 0.900100 -0.017581
v -0.070198 0.900100 0.000000
v -0.039926 0.900100 0.017581
v 0.026132 0.900100 0.017581
v -0.039926 0.900100 -0.017581
v -0.026428 -0.538015 0.048710
v 0.040763 -0.517614 -0.068887
v 0.086863 -0.508637 -0.048710
v 0.114327 -0.508637 0.000000
v 0.086863 -0.508637 0.048710
v 0.035896 -0.515166 0.068887
v -0.003635 -0.362727 -0.060853
v -0.003635 -0.362727 0.060853
v 0.057451 -0.348394 0.000000
v 0.039871 -0.346644 0.043088
v 0.039871 -0.346644 -0.043088
v -0.063842 -0.367071 -0.000000
v -0.046209 -0.365774 0.043014
v -0.046209 -0.365774 -0.043014
v -0.003437 -0.347706 -0.072815
v -0.003437 -0.347706 0.072815
v 0.072050 -0.336080 0.000000
v 0.051080 -0.333630 0.051572
v 0.051080 -0.333630 -0.051572
v -0.075356 -0.351391 0.000000
v -0.054320 -0.350319 0.051422
v -0.054320 -0.350319 -0.051422
v -0.053892 -0.538015 0.000000
v -0.026428 -0.538015 -0.048710
v 0.073468 -0.581349 0.022458
v 0.073468 -0.581349 0.000005
v 0.073468 -0.581349 -0.022453
v 0.051009 -0.581349 -0.000004
v 0.095928 -0.581349 0.000004
v -0.283471 0.274299 -0.042495
v 0.000063 0.261647 -0.063513
v 0.051415 0.260648 -0.044629
v 0.191695 0.274686 -0.042597
v -0.051312 0.260648 -0.044629
v -0.200657 0.274299 -0.042495
v 0.274510 0.274985 -0.042597
v 0.274510 0.274985 -0.000001
v -0.283471 0.274299 -0.000961
v -0.256694 0.216080 -0.001926
v -0.058925 0.566456 -0.017581
v -0.005004 0.566456 0.017581
v -0.058925 0.566456 0.017581
v 0.122638 0.566456 -0.017581
v 0.076345 0.566456 0.017581
v 0.038628 0.566456 -0.017581
v 0.122638 0.566456 0.017581
v -0.088242 0.566456 0.000000
v -0.005004 0.566456 -0.017581
v 0.151955 0.566456 0.000000
v 0.038628 0.566456 0.017581
v 0.076345 0.566456 -0.017581
v 0.153984 1.046804 -0.017581
v 0.094222 1.046804 0.017581
v 0.240475 1.046804 0.000000
v 0.210202 1.046804 0.017581
v 0.094222 1.046804 -0.017581
v 0.153984 1.046804 0.017581
v 0.210202 1.046804 -0.017581
v 0.025177 1.046804 -0.017581
v -0.059158 1.046804 0.000000
v -0.028886 1.046804 0.017581
v 0.025177 1.046804 0.017581
v -0.028886 1.046804 -0.017581
v 0.185821 1.226319 -0.017581
v 0.094222 1.226319 0.017581
v 0.272312 1.226319 0.000000
v 0.242040 1.226319 0.017581
v 0.094222 1.226319 -0.017581
v 0.185821 1.226319 0.017581
v 0.242040 1.226319 -0.017581
v 0.025177 1.226319 -0.017581
v -0.071996 1.226319 0.000000
v -0.041724 1.226319 0.017581
v 0.025177 1.226319 0.017581
v -0.041724 1.226319 -0.017581
v 0.185821 1.261412 -0.017581
v 0.094222 1.261412 0.017581
v 0.247507 1.261412 0.000000
v 0.217234 1.261412 0.017581
v 0.094222 1.261412 -0.017581
v 0.185821 1.261412 0.017581
v 0.217234 1.261412 -0.017581
v 0.025177 1.261412 -0.017581
v -0.028861 1.261412 0.000000
v 0.001411 1.261412 0.017581
v 0.025177 1.261412 0.017581
v 0.001411 1.261412 -0.017581
v 0.185821 1.308204 -0.017581
v 0.094222 1.308204 0.017581
v 0.272312 1.308204 0.000000
v 0.242040 1.308204 0.017581
v 0.094222 1.308204 -0.017581
v 0.185821 1.308204 0.017581
v 0.242040 1.308204 -0.017581
v 0.036474 1.308204 -0.017581
v -0.010375 1.308204 0.000000
v 0.019897 1.308204 0.017581
v 0.036474 1.308204 0.017581
v 0.019897 1.308204 -0.017581
v 0.185821 1.370202 -0.017581
v 0.094222 1.370202 0.017581
v 0.244941 1.370202 0.000000
v 0.214668 1.370202 0.017581
v 0.094222 1.370202 -0.017581
v 0.185821 1.370202 0.017581
v 0.214668 1.370202 -0.017581
v 0.025177 1.370202 -0.017581
v -0.028861 1.370202 0.000000
v 0.001411 1.370202 0.017581
v 0.025177 1.370202 0.017581
v 0.001411 1.370202 -0.017581
v 0.185821 1.412315 -0.017581
v 0.094222 1.412315 0.017581
v 0.272312 1.412315 0.000000
v 0.242040 1.412315 0.017581
v 0.094222 1.412315 -0.017581
v 0.185821 1.412315 0.017581
v 0.242040 1.412315 -0.017581
v 0.025177 1.412315 -0.017581
v -0.078158 1.412315 0.000000
v -0.047886 1.412315 0.017581
v 0.025177 1.412315 0.017581
v -0.047886 1.412315 -0.017581
v 0.128247 1.683312 -0.017581
v 0.076592 1.767177 0.017581
v 0.204918 1.602507 0.000000
v 0.177623 1.590048 0.017581
v 0.076592 1.767177 -0.017581
v 0.128247 1.683312 0.017581
v 0.177623 1.590048 -0.017581
v 0.008604 1.859609 -0.017581
v -0.118477 1.977350 0.000000
v -0.092850 1.961236 0.017581
v 0.008604 1.859609 0.017581
v -0.092850 1.961236 -0.017581
v -0.048016 0.687483 -0.017581
v -0.020812 0.722062 -0.017581
v -0.043533 0.756641 -0.017581
v 0.012161 0.687483 0.017581
v 0.013505 0.722062 0.017581
v 0.014849 0.756641 0.017581
v -0.048016 0.687483 0.017581
v -0.020812 0.722062 0.017581
v -0.043533 0.756641 0.017581
v 0.163901 0.687483 -0.017581
v 0.163017 0.722062 -0.017581
v 0.162132 0.756641 -0.017581
v 0.102139 0.687483 0.017581
v 0.104403 0.722062 0.017581
v 0.106667 0.756641 0.017581
v 0.057150 0.687483 -0.017581
v 0.058954 0.722062 -0.017581
v 0.060758 0.756641 -0.017581
v 0.163901 0.687483 0.017581
v 0.163017 0.722062 0.017581
v 0.162132 0.756641 0.017581
v -0.074379 0.756640 0.000000
v -0.051350 0.722062 0.000000
v -0.078245 0.687483 0.000000
v 0.014849 0.756640 -0.017581
v 0.013505 0.722062 -0.017581
v 0.012161 0.687483 -0.017581
v 0.192979 0.756640 0.000000
v 0.193554 0.722062 0.000000
v 0.194130 0.687483 0.000000
v 0.060758 0.756640 0.017581
v 0.058954 0.722062 0.017581
v 0.057150 0.687483 0.017581
v 0.106667 0.756640 -0.017581
v 0.104403 0.722062 -0.017581
v 0.102139 0.687483 -0.017581
v -0.074520 1.992141 0.000000
v 0.026079 1.886238 0.000000
v -0.122386 2.027074 0.000000
v 0.100909 1.792950 0.000000
v 0.152564 1.708230 0.000000
vn 0.0000 0.0000 1.0000
vn 0.0000 0.0000 -1.0000
vn 0.6423 0.7208 -0.2603
vn 0.4214 -0.1984 0.8849
vn 0.2163 0.6579 0.7214
vn 0.3994 -0.7870 0.4702
vn 0.7541 0.5391 -0.3752
vn 0.3605 0.0655 -0.9305
vn 0.6426 0.7208 0.2599
vn 0.9197 -0.0213 -0.3921
vn 0.3605 0.0655 0.9305
vn 0.7539 -0.6343 -0.1712
vn 0.9200 -0.0239 0.3912
vn 0.3301 -0.8286 0.4522
vn 0.9235 0.0779 -0.3757
vn 0.7540 -0.6341 0.1716
vn -0.3545 -0.2293 -0.9065
vn 0.7545 0.5390 0.3744
vn 0.3950 -0.0816 -0.9150
vn 0.3954 -0.0814 0.9149
vn 0.9429 -0.1057 -0.3157
vn 0.9428 -0.1055 0.3161
vn 0.1373 0.7802 0.6102
vn 0.3991 -0.7873 -0.4700
vn 0.1379 0.7803 -0.6100
vn 0.4363 0.0236 -0.8995
vn 0.4360 0.0235 0.8997
vn 0.9212 -0.0310 -0.3879
vn 0.9213 -0.0312 0.3876
vn 0.3297 -0.8254 -0.4583
vn 0.2172 0.6579 -0.7211
vn 0.7355 -0.6438 0.2110
vn 0.7379 -0.6411 -0.2109
vn 0.1675 0.7384 -0.6532
vn 0.3951 -0.5443 0.7400
vn 0.6195 0.7421 0.2559
vn 0.8338 -0.4767 -0.2784
vn 0.8337 -0.4768 0.2785
vn 0.6195 0.7421 -0.2559
vn 0.3977 0.0670 -0.9151
vn 0.3975 0.0672 0.9151
vn 0.9204 0.0743 -0.3839
vn 0.9204 0.0745 0.3837
vn 0.3949 -0.5443 -0.7401
vn 0.1675 0.7384 0.6532
vn 0.9235 0.0779 0.3757
vn -0.8045 0.5570 -0.2065
vn -0.3532 -0.2302 0.9068
vn -0.4097 0.6770 0.6115
vn -0.1844 -0.7497 0.6356
vn -0.7371 0.6240 -0.2594
vn -0.4036 0.0851 -0.9110
vn -0.8043 0.5571 0.2068
vn -0.8958 -0.2174 -0.3876
vn -0.4036 0.0851 0.9110
vn -0.7203 -0.6222 -0.3065
vn -0.8962 -0.2181 0.3864
vn -0.2113 -0.8471 0.4877
vn -0.9235 0.1158 -0.3656
vn -0.7203 -0.6223 0.3064
vn 0.4208 -0.1982 -0.8852
vn -0.7368 0.6241 0.2601
vn -0.3894 -0.0890 -0.9167
vn -0.3891 -0.0892 0.9169
vn -0.9400 -0.1065 -0.3242
vn -0.9400 -0.1067 0.3239
vn -0.3583 0.7357 0.5748
vn -0.1845 -0.7496 -0.6356
vn -0.3577 0.7357 -0.5752
vn -0.3669 0.0305 -0.9298
vn -0.3670 0.0308 0.9297
vn -0.9130 0.0585 -0.4038
vn -0.9130 0.0591 0.4036
vn -0.1990 -0.8615 -0.4671
vn -0.4089 0.6770 -0.6119
vn -0.5464 -0.7910 0.2752
vn -0.5317 -0.8044 -0.2650
vn -0.2622 0.6797 -0.6851
vn -0.1586 -0.5649 0.8098
vn -0.8070 0.5566 0.1972
vn -0.7519 -0.5684 -0.3340
vn -0.7661 -0.5524 0.3287
vn -0.8051 0.5591 -0.1979
vn -0.3774 0.0532 -0.9245
vn -0.3775 0.0531 0.9245
vn -0.9268 0.0040 -0.3755
vn -0.9268 0.0039 0.3756
vn -0.1591 -0.5683 -0.8073
vn -0.2615 0.6764 0.6886
vn 0.6218 -0.7293 -0.2856
vn -0.7581 -0.5655 -0.3246
vn 0.6218 -0.7293 0.2856
vn -0.9235 0.1158 0.3656
vn -0.7581 -0.5655 0.3246
vn -0.2843 -0.5827 0.7613
vn 0.4460 -0.6387 0.6270
vn -0.2843 -0.5827 -0.7613
vn 0.4460 -0.6387 -0.6270
vn 0.9240 0.0503 0.3791
vn 0.9240 0.0503 -0.3791
vn 0.3985 0.0527 0.9157
vn 0.3814 0.0519 -0.9230
vn 0.3985 0.0527 -0.9157
vn 0.3808 0.0519 0.9232
vn 0.9104 0.1318 -0.3923
vn 0.9106 0.1318 0.3917
vn -0.8437 0.4683 0.2623
vn -0.8456 0.4632 -0.2655
vn -0.3704 0.1327 0.9194
vn -0.3750 0.0304 -0.9265
vn -0.3707 0.1318 -0.9194
vn -0.3668 0.0137 0.9302
vn -0.9244 0.0202 -0.3808
vn -0.9281 -0.0288 0.3713
vn -0.9149 -0.1389 0.3791
vn -0.9149 -0.1389 -0.3791
vn -0.3816 -0.0678 0.9218
vn -0.3816 -0.0678 -0.9218
vn 0.9244 0.0426 0.3791
vn 0.9244 0.0426 -0.3791
vn 0.3775 0.0175 0.9258
vn 0.3775 0.0175 -0.9258
vn -0.5080 0.0439 -0.8602
vn -0.4791 0.1125 -0.8705
vn -0.5080 0.0439 0.8602
vn -0.4791 0.1125 0.8705
vn 0.5008 -0.1726 -0.8481
vn 0.4821 -0.0053 -0.8761
vn 0.5008 -0.1726 0.8481
vn 0.4821 -0.0053 0.8761
vn -0.4986 0.0135 -0.8667
vn -0.4986 0.0135 0.8667
vn 0.4987 0.0079 -0.8668
vn 0.4987 0.0079 0.8668
vn -0.5019 0.0378 0.8641
vn 0.4950 -0.1689 -0.8523
vn -0.5019 0.0378 -0.8641
vn 0.4950 -0.1689 0.8523
vn -0.5019 -0.0359 -0.8642
vn 0.5002 -0.0887 0.8613
vn -0.5019 -0.0359 0.8642
vn 0.5002 -0.0887 -0.8613
vn -0.4273 0.5253 -0.7358
vn 0.4733 0.3345 0.8149
vn -0.4273 0.5253 0.7358
vn 0.4733 0.3345 -0.8149
vn -0.4926 0.1946 -0.8482
vn 0.4853 -0.2573 0.8356
vn -0.4926 0.1946 0.8482
vn 0.4853 -0.2573 -0.8356
vn 0.4903 0.2165 -0.8442
vn -0.4967 -0.1481 -0.8552
vn 0.4903 0.2165 0.8442
vn -0.4967 -0.1481 0.8552
vn 0.4774 -0.3103 -0.8221
vn -0.4329 -0.5068 -0.7455
vn 0.4774 -0.3103 0.8221
vn -0.4329 -0.5068 0.7455
vn 0.4856 0.1740 -0.8567
vn -0.5405 -0.0414 -0.8403
vn 0.4856 0.1740 0.8567
vn -0.5405 -0.0414 0.8403
vn 0.3768 0.2898 -0.8798
vn -0.0758 0.2254 -0.9713
vn 0.3918 0.2401 -0.8881
vn 0.3768 0.2898 0.8798
vn 0.5008 0.0106 0.8655
vn 0.4970 0.0105 0.8677
vn 0.5008 0.0106 -0.8655
vn 0.4970 0.0105 -0.8677
vn -0.4663 0.3648 0.8059
vn -0.4722 -0.3124 0.8243
vn -0.4663 0.3648 -0.8059
vn -0.4722 -0.3124 -0.8243
vn -0.0758 0.2254 0.9713
vn 0.4341 0.2219 0.8731
vn 0.4341 0.2219 -0.8731
vn 0.3377 0.3288 0.8819
vn 0.3918 0.2401 0.8881
vn 0.3377 0.3288 -0.8819
vn 0.1983 0.4596 -0.8657
vn 0.5326 0.8136 -0.2331
vn 0.5326 0.8136 0.2331
vn 0.1983 0.4596 0.8657
vn 0.3791 -0.2757 0.8833
vn 0.8854 -0.0828 -0.4574
vn 0.4099 -0.2780 -0.8687
vn 0.8854 -0.0828 0.4574
vn 0.0059 0.0302 0.9995
vn -0.3704 0.0367 0.9282
vn -0.0060 0.0288 0.9996
vn 0.9061 -0.4231 0.0024
vn -0.8394 -0.3416 0.4228
vn -0.9086 -0.4177 0.0002
vn 0.0003 0.0021 1.0000
vn 0.3333 -0.9428 0.0009
vn -0.3252 -0.9456 -0.0083
vn 0.3335 0.9428 0.0000
vn -0.3252 -0.9456 0.0083
vn 0.0000 1.0000 0.0000
vn 0.2325 -0.9712 0.0521
vn 0.3617 0.0913 -0.9278
vn 0.0000 -1.0000 0.0000
vn 0.3617 0.0913 0.9278
vn -0.3335 0.9428 0.0000
vn -0.0004 0.0021 -1.0000
vn 0.0059 0.0302 -0.9995
vn 0.0190 0.0234 0.9995
vn 0.2325 -0.9712 -0.0521
vn -0.3903 0.3202 -0.8632
vn -0.8714 0.3085 -0.3814
vn -0.8714 0.3085 0.3814
vn -0.3903 0.3202 0.8632
vn -0.1195 -0.5883 0.7998
vn -0.4116 -0.8862 -0.2126
vn -0.1246 -0.5972 -0.7923
vn -0.4116 -0.8862 0.2126
vn -0.2223 -0.9709 0.0893
vn -0.3616 0.0905 -0.9279
vn -0.3616 0.0905 0.9279
vn -0.0004 0.0021 1.0000
vn -0.0060 0.0288 -0.9996
vn -0.0191 0.0219 0.9996
vn -0.2223 -0.9709 -0.0893
vn 0.3333 -0.9428 -0.0009
vn 0.3706 0.0383 0.9280
vn 0.3203 -0.0754 -0.9443
vn 0.8908 -0.0723 0.4486
vn -0.2720 -0.2618 0.9260
vn -0.8394 -0.3416 -0.4228
vn -0.2665 -0.2636 -0.9271
vn 0.8908 -0.0723 -0.4486
vn 0.3112 -0.0877 0.9463
vn -0.0191 0.0219 -0.9996
vn -0.3704 0.0367 -0.9282
vn 0.0190 0.0234 -0.9995
vn 0.0003 0.0021 -1.0000
vn 0.3706 0.0383 -0.9280
vn -0.9086 0.4176 0.0000
vn 0.9068 0.4217 0.0000
vn 0.9061 -0.4231 -0.0024
vn -0.9086 -0.4177 -0.0002
usemtl Steel
s off
f 230/1/1 328/1/1 331/1/1 231/1/1
f 174/1/1 230/1/1 231/1/1 177/1/1
f 357/1/1 328/1/1 230/1/1 239/1/1
f 171/1/1 239/1/1 230/1/1 174/1/1
f 351/1/2 340/1/2 234/1/2 237/1/2
f 172/1/2 237/1/2 234/1/2 173/1/2
f 360/1/2 334/1/2 232/1/2 240/1/2
f 72/1/2 240/1/2 232/1/2 75/1/2
f 235/1/1 343/1/1 337/1/1 233/1/1
f 76/1/1 235/1/1 233/1/1 73/1/1
f 233/1/1 337/1/1 357/1/1 239/1/1
f 73/1/1 233/1/1 239/1/1 171/1/1
f 234/1/2 340/1/2 360/1/2 240/1/2
f 173/1/2 234/1/2 240/1/2 72/1/2
f 176/1/2 229/1/2 237/1/2 172/1/2
f 229/1/2 325/1/2 351/1/2 237/1/2
f 327/1/2 189/1/2 185/1/2 349/1/2
f 330/1/1 188/1/1 187/1/1 333/1/1
f 179/1/1 188/1/1 330/1/1 355/1/1
f 185/1/2 182/1/2 342/1/2 349/1/2
f 178/1/2 184/1/2 336/1/2 358/1/2
f 345/1/1 181/1/1 183/1/1 339/1/1
f 339/1/1 183/1/1 179/1/1 355/1/1
f 182/1/2 185/1/2 248/1/2 245/1/2
f 183/1/1 181/1/1 244/1/1 246/1/1
f 184/1/2 178/1/2 241/1/2 247/1/2
f 187/1/1 188/1/1 251/1/1 250/1/1
f 179/1/1 183/1/1 246/1/1 242/1/1
f 185/1/2 189/1/2 252/1/2 248/1/2
f 188/1/1 179/1/1 242/1/1 251/1/1
f 178/1/2 182/1/2 245/1/2 241/1/2
f 241/1/2 245/1/2 257/1/2 253/1/2
f 245/1/2 248/1/2 260/1/2 257/1/2
f 246/1/1 244/1/1 256/1/1 258/1/1
f 247/1/2 241/1/2 253/1/2 259/1/2
f 250/1/1 251/1/1 263/1/1 262/1/1
f 242/1/1 246/1/1 258/1/1 254/1/1
f 248/1/2 252/1/2 264/1/2 260/1/2
f 251/1/1 242/1/1 254/1/1 263/1/1
f 263/1/1 254/1/1 266/1/1 275/1/1
f 253/1/2 257/1/2 269/1/2 265/1/2
f 257/1/2 260/1/2 272/1/2 269/1/2
f 258/1/1 256/1/1 268/1/1 270/1/1
f 259/1/2 253/1/2 265/1/2 271/1/2
f 262/1/1 263/1/1 275/1/1 274/1/1
f 254/1/1 258/1/1 270/1/1 266/1/1
f 260/1/2 264/1/2 276/1/2 272/1/2
f 275/1/1 266/1/1 278/1/1 287/1/1
f 265/1/2 269/1/2 281/1/2 277/1/2
f 269/1/2 272/1/2 284/1/2 281/1/2
f 270/1/1 268/1/1 280/1/1 282/1/1
f 271/1/2 265/1/2 277/1/2 283/1/2
f 274/1/1 275/1/1 287/1/1 286/1/1
f 266/1/1 270/1/1 282/1/1 278/1/1
f 272/1/2 276/1/2 288/1/2 284/1/2
f 287/1/1 278/1/1 290/1/1 299/1/1
f 277/1/2 281/1/2 293/1/2 289/1/2
f 281/1/2 284/1/2 296/1/2 293/1/2
f 282/1/1 280/1/1 292/1/1 294/1/1
f 283/1/2 277/1/2 289/1/2 295/1/2
f 286/1/1 287/1/1 299/1/1 298/1/1
f 278/1/1 282/1/1 294/1/1 290/1/1
f 284/1/2 288/1/2 300/1/2 296/1/2
f 296/1/2 300/1/2 312/1/2 308/1/2
f 299/1/1 290/1/1 302/1/1 311/1/1
f 289/1/2 293/1/2 305/1/2 301/1/2
f 293/1/2 296/1/2 308/1/2 305/1/2
f 294/1/1 292/1/1 304/1/1 306/1/1
f 295/1/2 289/1/2 301/1/2 307/1/2
f 298/1/1 299/1/1 311/1/1 310/1/1
f 290/1/1 294/1/1 306/1/1 302/1/1
f 302/1/1 306/1/1 318/1/1 314/1/1
f 308/1/2 312/1/2 324/1/2 320/1/2
f 311/1/1 302/1/1 314/1/1 323/1/1
f 301/1/2 305/1/2 317/1/2 313/1/2
f 305/1/2 308/1/2 320/1/2 317/1/2
f 306/1/1 304/1/1 316/1/1 318/1/1
f 307/1/2 301/1/2 313/1/2 319/1/2
f 310/1/1 311/1/1 323/1/1 322/1/1
f 340/1/2 341/1/2 359/1/2 360/1/2
f 341/1/2 342/1/2 358/1/2 359/1/2
f 337/1/1 338/1/1 356/1/1 357/1/1
f 338/1/1 339/1/1 355/1/1 356/1/1
f 343/1/1 344/1/1 338/1/1 337/1/1
f 344/1/1 345/1/1 339/1/1 338/1/1
f 334/1/2 360/1/2 359/1/2 335/1/2
f 335/1/2 359/1/2 358/1/2 336/1/2
f 340/1/2 351/1/2 350/1/2 341/1/2
f 341/1/2 350/1/2 349/1/2 342/1/2
f 328/1/1 357/1/1 356/1/1 329/1/1
f 329/1/1 356/1/1 355/1/1 330/1/1
f 331/1/1 328/1/1 329/1/1 332/1/1
f 332/1/1 329/1/1 330/1/1 333/1/1
f 325/1/2 326/1/2 350/1/2 351/1/2
f 326/1/2 327/1/2 349/1/2 350/1/2
f 342/1/2 182/1/2 178/1/2 358/1/2
usemtl LightWood
f 22/2/3 29/2/3 35/2/3 34/2/3
f 17/2/4 18/2/4 109/2/4 110/2/4
f 19/2/5 108/2/5 136/2/5 41/2/5
f 111/2/6 16/2/6 31/2/6 127/2/6
f 24/2/7 27/2/7 44/2/7 43/2/7
f 204/2/8 101/2/8 21/2/8 208/2/8
f 29/2/9 17/2/9 32/2/9 35/2/9
f 28/2/10 29/2/10 22/2/10 23/2/10
f 111/2/11 205/2/11 207/2/11 16/2/11
f 30/2/12 21/2/12 33/2/12 36/2/12
f 29/2/13 28/2/13 18/2/13 17/2/13
f 109/2/14 18/2/14 40/2/14 137/2/14
f 30/2/15 206/2/15 208/2/15 21/2/15
f 16/2/16 30/2/16 36/2/16 31/2/16
f 113/2/17 114/2/17 99/2/17 100/2/17
f 27/2/18 19/2/18 41/2/18 44/2/18
f 123/2/19 122/2/19 34/2/19 33/2/19
f 31/2/20 32/2/20 126/2/20 127/2/20
f 33/2/21 34/2/21 35/2/21 36/2/21
f 36/2/22 35/2/22 32/2/22 31/2/22
f 17/2/23 110/2/23 126/2/23 32/2/23
f 21/2/24 101/2/24 123/2/24 33/2/24
f 100/2/25 22/2/25 34/2/25 122/2/25
f 133/2/26 132/2/26 43/2/26 42/2/26
f 40/2/27 41/2/27 136/2/27 137/2/27
f 42/2/28 43/2/28 44/2/28 45/2/28
f 45/2/29 44/2/29 41/2/29 40/2/29
f 23/2/30 99/2/30 133/2/30 42/2/30
f 98/2/31 24/2/31 43/2/31 132/2/31
f 18/2/32 28/2/32 45/2/32 40/2/32
f 28/2/33 23/2/33 42/2/33 45/2/33
f 142/2/34 47/2/34 60/2/34 147/2/34
f 107/2/35 20/2/35 56/2/35 150/2/35
f 48/2/36 46/2/36 59/2/36 51/2/36
f 26/2/37 25/2/37 53/2/37 52/2/37
f 20/2/38 26/2/38 52/2/38 56/2/38
f 47/2/39 48/2/39 51/2/39 60/2/39
f 148/2/40 147/2/40 60/2/40 53/2/40
f 56/2/41 59/2/41 149/2/41 150/2/41
f 53/2/42 60/2/42 51/2/42 52/2/42
f 52/2/43 51/2/43 59/2/43 56/2/43
f 25/2/44 92/2/44 148/2/44 53/2/44
f 46/2/45 145/2/45 149/2/45 59/2/45
f 206/2/46 30/2/46 16/2/46 207/2/46
f 113/2/47 129/2/47 130/2/47 120/2/47
f 104/2/48 103/2/48 110/2/48 109/2/48
f 105/2/49 135/2/49 136/2/49 108/2/49
f 111/2/50 127/2/50 124/2/50 102/2/50
f 115/2/51 139/2/51 140/2/51 118/2/51
f 101/2/52 204/2/52 211/2/52 112/2/52
f 120/2/53 130/2/53 125/2/53 103/2/53
f 120/2/54 119/2/54 114/2/54 113/2/54
f 102/2/55 210/2/55 205/2/55 111/2/55
f 121/2/56 131/2/56 128/2/56 112/2/56
f 103/2/57 104/2/57 119/2/57 120/2/57
f 109/2/58 137/2/58 134/2/58 104/2/58
f 211/2/59 209/2/59 121/2/59 112/2/59
f 102/2/60 124/2/60 131/2/60 121/2/60
f 100/2/61 99/2/61 23/2/61 22/2/61
f 118/2/62 140/2/62 135/2/62 105/2/62
f 123/2/63 128/2/63 129/2/63 122/2/63
f 124/2/64 127/2/64 126/2/64 125/2/64
f 128/2/65 131/2/65 130/2/65 129/2/65
f 131/2/66 124/2/66 125/2/66 130/2/66
f 103/2/67 125/2/67 126/2/67 110/2/67
f 112/2/68 128/2/68 123/2/68 101/2/68
f 100/2/69 122/2/69 129/2/69 113/2/69
f 133/2/70 138/2/70 139/2/70 132/2/70
f 134/2/71 137/2/71 136/2/71 135/2/71
f 138/2/72 141/2/72 140/2/72 139/2/72
f 141/2/73 134/2/73 135/2/73 140/2/73
f 114/2/74 138/2/74 133/2/74 99/2/74
f 98/2/75 132/2/75 139/2/75 115/2/75
f 104/2/76 134/2/76 141/2/76 119/2/76
f 119/2/77 141/2/77 138/2/77 114/2/77
f 142/2/78 147/2/78 157/2/78 144/2/78
f 107/2/79 150/2/79 154/2/79 106/2/79
f 146/2/80 151/2/80 156/2/80 143/2/80
f 117/2/81 152/2/81 153/2/81 116/2/81
f 106/2/82 154/2/82 152/2/82 117/2/82
f 144/2/83 157/2/83 151/2/83 146/2/83
f 148/2/84 153/2/84 157/2/84 147/2/84
f 154/2/85 150/2/85 149/2/85 156/2/85
f 153/2/86 152/2/86 151/2/86 157/2/86
f 152/2/87 154/2/87 156/2/87 151/2/87
f 116/2/88 153/2/88 148/2/88 92/2/88
f 143/2/89 156/2/89 149/2/89 145/2/89
f 198/2/90 200/2/90 208/2/90 206/2/90
f 203/2/91 201/2/91 209/2/91 211/2/91
f 199/2/92 198/2/92 206/2/92 207/2/92
f 209/2/93 210/2/93 102/2/93 121/2/93
f 201/2/94 202/2/94 210/2/94 209/2/94
f 202/2/95 197/2/95 205/2/95 210/2/95
f 197/2/96 199/2/96 207/2/96 205/2/96
f 196/2/97 203/2/97 211/2/97 204/2/97
f 200/2/98 196/2/98 204/2/98 208/2/98
usemtl DarkWood
f 48/3/99 14/3/99 15/3/99 46/3/99
f 47/3/100 13/3/100 14/3/100 48/3/100
f 46/3/101 15/3/101 97/3/101 145/3/101
f 98/3/102 92/3/102 25/3/102 24/3/102
f 142/3/103 94/3/103 13/3/103 47/3/103
f 19/3/104 20/3/104 107/3/104 108/3/104
f 24/3/105 25/3/105 26/3/105 27/3/105
f 27/3/106 26/3/106 20/3/106 19/3/106
f 146/3/107 143/3/107 96/3/107 95/3/107
f 144/3/108 146/3/108 95/3/108 93/3/108
f 143/3/109 145/3/109 97/3/109 96/3/109
f 98/3/110 115/3/110 116/3/110 92/3/110
f 142/3/111 144/3/111 93/3/111 94/3/111
f 105/3/112 108/3/112 107/3/112 106/3/112
f 115/3/113 118/3/113 117/3/113 116/3/113
f 118/3/114 105/3/114 106/3/114 117/3/114
f 82/3/115 84/3/115 202/3/115 201/3/115
f 80/3/116 82/3/116 201/3/116 203/3/116
f 84/3/117 86/3/117 197/3/117 202/3/117
f 78/3/118 80/3/118 203/3/118 196/3/118
f 4/3/119 198/3/119 199/3/119 6/3/119
f 2/3/120 200/3/120 198/3/120 4/3/120
f 6/3/121 199/3/121 197/3/121 86/3/121
f 78/3/122 196/3/122 200/3/122 2/3/122
usemtl LightSteel
f 348/4/123 325/4/123 229/4/123 236/4/123
f 175/4/124 236/4/124 229/4/124 176/4/124
f 231/4/125 331/4/125 348/4/125 236/4/125
f 177/4/126 231/4/126 236/4/126 175/4/126
f 232/4/127 334/4/127 354/4/127 238/4/127
f 75/4/128 232/4/128 238/4/128 74/4/128
f 354/4/129 343/4/129 235/4/129 238/4/129
f 74/4/130 238/4/130 235/4/130 76/4/130
f 186/4/131 189/4/131 327/4/131 346/4/131
f 333/4/132 187/4/132 186/4/132 346/4/132
f 336/4/133 184/4/133 180/4/133 352/4/133
f 180/4/134 181/4/134 345/4/134 352/4/134
f 186/4/135 187/4/135 250/4/135 249/4/135
f 180/4/136 184/4/136 247/4/136 243/4/136
f 189/4/137 186/4/137 249/4/137 252/4/137
f 181/4/138 180/4/138 243/4/138 244/4/138
f 252/4/139 249/4/139 261/4/139 264/4/139
f 244/4/140 243/4/140 255/4/140 256/4/140
f 249/4/141 250/4/141 262/4/141 261/4/141
f 243/4/142 247/4/142 259/4/142 255/4/142
f 264/4/143 261/4/143 273/4/143 276/4/143
f 256/4/144 255/4/144 267/4/144 268/4/144
f 261/4/145 262/4/145 274/4/145 273/4/145
f 255/4/146 259/4/146 271/4/146 267/4/146
f 276/4/147 273/4/147 285/4/147 288/4/147
f 268/4/148 267/4/148 279/4/148 280/4/148
f 273/4/149 274/4/149 286/4/149 285/4/149
f 267/4/150 271/4/150 283/4/150 279/4/150
f 279/4/151 283/4/151 295/4/151 291/4/151
f 288/4/152 285/4/152 297/4/152 300/4/152
f 280/4/153 279/4/153 291/4/153 292/4/153
f 285/4/154 286/4/154 298/4/154 297/4/154
f 291/4/155 295/4/155 307/4/155 303/4/155
f 300/4/156 297/4/156 309/4/156 312/4/156
f 292/4/157 291/4/157 303/4/157 304/4/157
f 297/4/158 298/4/158 310/4/158 309/4/158
f 303/4/159 307/4/159 319/4/159 315/4/159
f 312/4/160 309/4/160 321/4/160 324/4/160
f 304/4/161 303/4/161 315/4/161 316/4/161
f 309/4/162 310/4/162 322/4/162 321/4/162
f 317/4/163 320/4/163 362/4/163 364/4/163
f 324/4/164 321/4/164 363/4/164 361/4/164
f 313/4/165 317/4/165 364/4/165 365/4/165
f 323/4/166 314/4/166 364/4/166 362/4/166
f 354/4/167 353/4/167 344/4/167 343/4/167
f 353/4/168 352/4/168 345/4/168 344/4/168
f 334/4/169 335/4/169 353/4/169 354/4/169
f 335/4/170 336/4/170 352/4/170 353/4/170
f 348/4/171 331/4/171 332/4/171 347/4/171
f 347/4/172 332/4/172 333/4/172 346/4/172
f 325/4/173 348/4/173 347/4/173 326/4/173
f 326/4/174 347/4/174 346/4/174 327/4/174
f 321/4/175 322/4/175 361/4/175 363/4/175
f 318/4/176 316/4/176 315/4/176 365/4/176
f 319/4/177 313/4/177 365/4/177 315/4/177
f 322/4/178 323/4/178 362/4/178 361/4/178
f 314/4/179 318/4/179 365/4/179 364/4/179
f 320/4/180 324/4/180 361/4/180 362/4/180
usemtl DarkSteel
f 77/5/181 78/5/181 2/5/181 1/5/181
f 1/5/182 2/5/182 4/5/182 3/5/182
f 3/5/183 4/5/183 6/5/183 5/5/183
f 5/5/184 6/5/184 86/5/184 85/5/184
f 167/5/1 162/5/1 12/5/1 49/5/1
f 194/5/185 195/5/185 91/5/185 9/5/185
f 192/5/186 193/5/186 8/5/186 7/5/186
f 191/5/187 192/5/187 7/5/187 87/5/187
f 193/5/188 194/5/188 9/5/188 8/5/188
f 62/5/189 10/5/189 164/5/189 71/5/189
f 97/5/190 11/5/190 163/5/190 96/5/190
f 160/5/191 170/5/191 162/5/191 163/5/191
f 64/5/192 225/5/192 226/5/192 65/5/192
f 81/5/193 212/5/193 190/5/193 83/5/193
f 50/5/194 228/5/194 227/5/194 219/5/194
f 164/5/195 68/5/195 63/5/195 155/5/195
f 166/5/196 165/5/196 54/5/196 228/5/196 50/5/196
f 68/5/197 66/5/197 65/5/197 63/5/197
f 170/5/198 168/5/198 39/5/198 37/5/198
f 224/5/2 166/5/2 50/5/2 219/5/2
f 66/5/199 67/5/199 64/5/199 65/5/199
f 62/5/200 71/5/200 76/5/200 73/5/200
f 15/5/201 14/5/201 66/5/201 68/5/201
f 221/5/202 220/5/202 159/5/202 61/5/202
f 168/5/198 169/5/198 38/5/198 39/5/198
f 91/5/203 214/5/203 9/5/203
f 11/5/204 10/5/204 62/5/204 161/5/204
f 69/5/200 70/5/200 75/5/200 74/5/200
f 69/5/205 71/5/205 55/5/205 58/5/205
f 222/5/206 70/5/206 57/5/206 225/5/206
f 162/5/1 170/5/1 37/5/1 12/5/1
f 221/5/207 61/5/207 70/5/207 222/5/207
f 61/5/200 159/5/200 173/5/200 72/5/200
f 10/5/208 15/5/208 68/5/208 164/5/208
f 14/5/209 13/5/209 67/5/209 66/5/209
f 71/5/200 69/5/200 74/5/200 76/5/200
f 161/5/200 62/5/200 73/5/200 171/5/200
f 70/5/200 61/5/200 72/5/200 75/5/200
f 77/5/210 79/5/210 80/5/210 78/5/210
f 79/5/211 81/5/211 82/5/211 80/5/211
f 81/5/212 83/5/212 84/5/212 82/5/212
f 83/5/213 85/5/213 86/5/213 84/5/213
f 190/5/214 90/5/214 91/5/214 195/5/214
f 213/5/215 88/5/215 89/5/215 212/5/215
f 191/5/216 87/5/216 88/5/216 213/5/216
f 212/5/217 89/5/217 90/5/217 190/5/217
f 160/5/200 174/5/200 177/5/200 170/5/200
f 96/5/218 167/5/218 165/5/218 95/5/218
f 223/5/219 158/5/219 159/5/219 220/5/219
f 91/5/203 90/5/203 214/5/203
f 11/5/220 161/5/220 160/5/220 163/5/220
f 168/5/200 175/5/200 176/5/200 169/5/200
f 71/5/221 164/5/221 155/5/221 55/5/221
f 223/5/222 224/5/222 169/5/222 158/5/222
f 158/5/200 172/5/200 173/5/200 159/5/200
f 163/5/223 162/5/223 167/5/223 96/5/223
f 95/5/224 165/5/224 166/5/224 93/5/224
f 170/5/200 177/5/200 175/5/200 168/5/200
f 161/5/200 171/5/200 174/5/200 160/5/200
f 169/5/200 176/5/200 172/5/200 158/5/200
f 165/5/225 167/5/225 49/5/225 54/5/225
f 97/5/226 15/5/226 10/5/226 11/5/226
f 77/5/227 1/5/227 192/5/227 191/5/227
f 3/5/228 5/5/228 194/5/228 193/5/228
f 83/5/229 190/5/229 195/5/229 85/5/229
f 79/5/230 213/5/230 212/5/230 81/5/230
f 77/5/231 191/5/231 213/5/231 79/5/231
f 1/5/232 3/5/232 193/5/232 192/5/232
f 70/5/205 69/5/205 58/5/205 57/5/205
f 5/5/233 85/5/233 195/5/233 194/5/233
f 214/5/203 90/5/203 217/5/203 215/5/203
f 215/5/203 217/5/203 88/5/203 216/5/203
f 216/5/203 88/5/203 87/5/203
f 88/5/203 217/5/203 89/5/203
f 89/5/203 217/5/203 90/5/203
f 9/5/203 218/5/203 8/5/203
f 8/5/203 218/5/203 7/5/203
f 7/5/203 216/5/203 87/5/203
f 216/5/203 7/5/203 218/5/203 215/5/203
f 215/5/203 218/5/203 9/5/203 214/5/203
f 93/5/234 166/5/234 224/5/234 223/5/234
f 93/5/235 223/5/235 220/5/235 94/5/235
f 13/5/236 221/5/236 222/5/236 67/5/236
f 67/5/237 222/5/237 225/5/237 64/5/237
f 13/5/238 94/5/238 220/5/238 221/5/238
f 169/5/2 224/5/2 219/5/2 38/5/2
f 219/5/239 227/5/239 39/5/239 38/5/239
f 155/5/240 226/5/240 58/5/240 55/5/240
f 65/5/241 226/5/241 155/5/241 63/5/241
f 58/5/240 226/5/240 225/5/240 57/5/240
f 39/5/239 227/5/239 12/5/239 37/5/239
f 227/5/242 228/5/242 54/5/242 49/5/242 12/5/242
