vt 0.125 0.5
vt 0.375 0.5
vt 0.625 0.5
vt 0.875 0.5
# Blender v2.79 (sub 0) OBJ File: 'Hammer_Small.blend'
# www.blender.org
mtllib Hammer_Small.mtl
o Hammer_small_Cylinder.013
v -0.044209 1.614317 0.147773
v -0.044209 2.074470 0.147773
v -0.044209 1.614317 0.126503
v -0.044209 2.074470 0.126503
v 0.036548 1.614317 0.147773
v 0.036548 2.074470 0.147773
v 0.036548 1.614317 0.126503
v 0.036548 2.074470 0.126503
v -0.044209 2.083304 0.153235
v -0.044209 2.098344 0.138194
v 0.036548 2.098344 0.138194
v 0.036548 2.083304 0.153235
v -0.044209 2.189990 0.320189
v -0.044209 2.198829 0.300843
v 0.036548 2.198829 0.300843
v 0.036548 2.189990 0.320189
v -0.044209 2.205697 0.321794
v -0.044209 2.205697 0.300692
v 0.036548 2.205697 0.300692
v 0.036548 2.205697 0.321794
v -0.003830 1.529898 0.126503
v -0.003830 1.529898 0.147773
v -0.001186 1.758657 0.166280
v 0.009421 1.752533 0.166280
v -0.001186 1.769192 0.121110
v -0.001186 1.769192 0.157910
v 0.018545 1.757800 0.121110
v 0.018545 1.757800 0.157910
v 0.018545 1.735018 0.121110
v 0.018545 1.735018 0.157910
v -0.001186 1.723626 0.121110
v -0.001186 1.723626 0.157910
v -0.020916 1.735018 0.121110
v -0.020916 1.735018 0.157910
v -0.020916 1.757800 0.121110
v -0.020916 1.757800 0.157910
v 0.009421 1.740285 0.166280
v -0.001186 1.734161 0.166280
v -0.011793 1.740285 0.166280
v -0.011793 1.752533 0.166280
v -0.001186 1.936362 0.166280
v 0.009421 1.930238 0.166280
v -0.001186 1.946897 0.115228
v -0.001186 1.946897 0.157910
v 0.018545 1.935505 0.115228
v 0.018545 1.935505 0.157910
v 0.018545 1.912723 0.115228
v 0.018545 1.912723 0.157910
v -0.001186 1.901331 0.115228
v -0.001186 1.901331 0.157910
v -0.020916 1.912723 0.115228
v -0.020916 1.912723 0.157910
v -0.020916 1.935505 0.115228
v -0.020916 1.935505 0.157910
v 0.009421 1.917990 0.166280
v -0.001186 1.911866 0.166280
v -0.011793 1.917990 0.166280
v -0.011793 1.930238 0.166280
v -0.001186 2.267320 0.339140
v 0.009421 2.261196 0.339140
v -0.001186 2.277854 0.277473
v -0.001186 2.277854 0.330770
v 0.018545 2.266463 0.277473
v 0.018545 2.266463 0.330770
v 0.018545 2.243680 0.277473
v 0.018545 2.243680 0.330770
v -0.001186 2.232289 0.277473
v -0.001186 2.232289 0.330770
v -0.020916 2.243680 0.277473
v -0.020916 2.243680 0.330770
v -0.020916 2.266463 0.277473
v -0.020916 2.266463 0.330770
v 0.009421 2.248948 0.339140
v -0.001186 2.242824 0.339140
v -0.011793 2.248948 0.339140
v -0.011793 2.261196 0.339140
v -0.001186 2.433663 0.339140
v 0.009421 2.427539 0.339140
v -0.001186 2.444197 0.277473
v -0.001186 2.444197 0.330770
v 0.018545 2.432806 0.277473
v 0.018545 2.432806 0.330770
v 0.018545 2.410023 0.277473
v 0.018545 2.410023 0.330770
v -0.001186 2.398632 0.277473
v -0.001186 2.398632 0.330770
v -0.020916 2.410023 0.277473
v -0.020916 2.410023 0.330770
v -0.020916 2.432806 0.277473
v -0.020916 2.432806 0.330770
v 0.009421 2.415291 0.339140
v -0.001186 2.409167 0.339140
v -0.011793 2.415291 0.339140
v -0.011793 2.427539 0.339140
v -0.033600 2.516888 0.321794
v -0.044209 2.498887 0.321794
v -0.044209 2.498887 0.300692
v -0.033600 2.516888 0.300692
v 0.025940 2.516888 0.300692
v 0.036548 2.498887 0.300692
v 0.036548 2.498887 0.321794
v 0.025940 2.516888 0.321794
v -0.044209 1.614317 -0.147773
v -0.044209 2.074470 -0.147773
v -0.044209 1.614317 -0.126503
v -0.044209 2.074470 -0.126503
v 0.036548 1.614317 -0.147773
v 0.036548 2.074470 -0.147773
v 0.036548 1.614317 -0.126503
v 0.036548 2.074470 -0.126503
v -0.044209 2.083304 -0.153235
v -0.044209 2.098344 -0.138194
v 0.036548 2.098344 -0.138194
v 0.036548 2.083304 -0.153235
v -0.044209 2.189990 -0.320189
v -0.044209 2.198829 -0.300843
v 0.036548 2.198829 -0.300843
v 0.036548 2.189990 -0.320189
v -0.044209 2.205697 -0.321794
v -0.044209 2.205697 -0.300692
v 0.036548 2.205697 -0.300692
v 0.036548 2.205697 -0.321794
v -0.003830 1.529898 -0.126503
v -0.003830 1.529898 -0.147773
v -0.001186 1.758657 -0.166280
v 0.009421 1.752533 -0.166280
v -0.001186 1.769192 -0.121110
v -0.001186 1.769192 -0.157910
v 0.018545 1.757800 -0.121110
v 0.018545 1.757800 -0.157910
v 0.018545 1.735018 -0.121110
v 0.018545 1.735018 -0.157910
v -0.001186 1.723626 -0.121110
v -0.001186 1.723626 -0.157910
v -0.020916 1.735018 -0.121110
v -0.020916 1.735018 -0.157910
v -0.020916 1.757800 -0.121110
v -0.020916 1.757800 -0.157910
v 0.009421 1.740285 -0.166280
v -0.001186 1.734161 -0.166280
v -0.011793 1.740285 -0.166280
v -0.011793 1.752533 -0.166280
v -0.001186 1.936362 -0.166280
v 0.009421 1.930238 -0.166280
v -0.001186 1.946897 -0.115228
v -0.001186 1.946897 -0.157910
v 0.018545 1.935505 -0.115228
v 0.018545 1.935505 -0.157910
v 0.018545 1.912723 -0.115228
v 0.018545 1.912723 -0.157910
v -0.001186 1.901331 -0.115228
v -0.001186 1.901331 -0.157910
v -0.020916 1.912723 -0.115228
v -0.020916 1.912723 -0.157910
v -0.020916 1.935505 -0.115228
v -0.020916 1.935505 -0.157910
v 0.009421 1.917990 -0.166280
v -0.001186 1.911866 -0.166280
v -0.011793 1.917990 -0.166280
v -0.011793 1.930238 -0.166280
v -0.001186 2.267320 -0.339140
v 0.009421 2.261196 -0.339140
v -0.001186 2.277854 -0.277473
v -0.001186 2.277854 -0.330770
v 0.018545 2.266463 -0.277473
v 0.018545 2.266463 -0.330770
v 0.018545 2.243680 -0.277473
v 0.018545 2.243680 -0.330770
v -0.001186 2.232289 -0.277473
v -0.001186 2.232289 -0.330770
v -0.020916 2.243680 -0.277473
v -0.020916 2.243680 -0.330770
v -0.020916 2.266463 -0.277473
v -0.020916 2.266463 -0.330770
v 0.009421 2.248948 -0.339140
v -0.001186 2.242824 -0.339140
v -0.011793 2.248948 -0.339140
v -0.011793 2.261196 -0.339140
v -0.001186 2.433663 -0.339140
v 0.009421 2.427539 -0.339140
v -0.001186 2.444197 -0.277473
v -0.001186 2.444197 -0.330770
v 0.018545 2.432806 -0.277473
v 0.018545 2.432806 -0.330770
v 0.018545 2.410023 -0.277473
v 0.018545 2.410023 -0.330770
v -0.001186 2.398632 -0.277473
v -0.001186 2.398632 -0.330770
v -0.020916 2.410023 -0.277473
v -0.020916 2.410023 -0.330770
v -0.020916 2.432806 -0.277473
v -0.020916 2.432806 -0.330770
v 0.009421 2.415291 -0.339140
v -0.001186 2.409167 -0.339140
v -0.011793 2.415291 -0.339140
v -0.011793 2.427539 -0.339140
v -0.033600 2.516888 -0.321794
v -0.044209 2.498887 -0.321794
v -0.044209 2.498887 -0.300692
v -0.033600 2.516888 -0.300692
v 0.025940 2.516888 -0.300692
v 0.036548 2.498887 -0.300692
v 0.036548 2.498887 -0.321794
v 0.025940 2.516888 -0.321794
v 0.440360 2.411537 0.127634
v 0.440360 2.411537 -0.129580
v 0.440360 2.358266 -0.000973
v 0.440360 2.540145 -0.182851
v 0.440360 2.688747 0.127635
v 0.440360 2.688747 -0.129580
v 0.440360 2.540145 0.180905
v 0.440360 2.742018 -0.000973
v 0.185018 2.538382 -0.214932
v 0.185018 2.713196 -0.152265
v 0.185018 2.324422 -0.000973
v 0.185018 2.387089 -0.152265
v 0.185018 2.775863 -0.000973
v 0.185018 2.713196 0.150319
v 0.185018 2.538382 0.212987
v 0.185018 2.387089 0.150319
v 0.488209 2.452823 0.089326
v 0.488209 2.452823 -0.091272
v 0.488209 2.415420 -0.000973
v 0.488209 2.543123 -0.128675
v 0.488209 2.647461 0.089326
v 0.488209 2.647461 -0.091272
v 0.488209 2.543123 0.126730
v 0.488209 2.684865 -0.000973
v 0.561311 2.452823 0.089326
v 0.561311 2.452823 -0.091272
v 0.561311 2.415420 -0.000973
v 0.561311 2.543123 -0.128675
v 0.561311 2.647461 0.089326
v 0.561311 2.647461 -0.091272
v 0.561311 2.543123 0.126730
v 0.561311 2.684865 -0.000973
v 0.547874 2.841718 0.262570
v 0.547874 2.934234 0.188888
v 0.909619 3.150333 0.290044
v 0.909619 3.008162 0.403273
v 0.547874 2.934234 -0.188050
v 0.547874 2.841718 -0.261732
v 0.909619 3.008162 -0.402435
v 0.909619 3.150333 -0.289206
v 0.547874 2.128986 0.188888
v 0.547874 2.221502 0.262570
v 0.909619 2.055060 0.403273
v 0.909619 1.912888 0.290044
v 0.547874 2.221502 -0.261732
v 0.547874 2.128986 -0.188050
v 0.909619 1.912888 -0.289206
v 0.909619 2.055060 -0.402435
v 1.108545 2.956685 0.359756
v 1.108545 3.083499 0.258759
v 1.108545 3.083499 -0.257921
v 1.108545 2.956685 -0.358919
v 1.108545 2.106536 -0.358919
v 1.108545 1.979722 -0.257921
v 1.108546 1.979722 0.258759
v 1.108546 2.106536 0.359756
v 1.108546 2.172364 0.304109
v 1.108546 2.065188 0.218752
v 1.108545 2.065188 -0.217914
v 1.108545 2.172364 -0.303271
v 1.108545 2.890857 -0.303271
v 1.108545 2.998033 -0.217914
v 1.108545 2.998033 0.218752
v 1.108545 2.890857 0.304109
v 1.077657 2.172364 -0.303271
v 1.077657 2.890857 -0.303271
v 1.077657 2.065188 0.218752
v 1.077657 2.065188 -0.217914
v 1.077657 2.172364 0.304109
v 1.077657 2.890857 0.304109
v 1.077657 2.998033 0.218752
v 1.077657 2.998033 -0.217914
v 0.421560 2.707395 -0.146882
v 0.421560 2.392890 -0.146882
v 0.421560 2.707395 0.144937
v 0.421560 2.538800 0.205374
v 0.421560 2.538800 -0.207320
v 0.421560 2.332452 -0.000973
v 0.421560 2.767833 -0.000973
v 0.421560 2.392890 0.144937
v 0.385792 2.538737 -0.208471
v 0.385792 2.331238 -0.000973
v 0.385792 2.769047 -0.000973
v 0.385792 2.392013 0.145751
v 0.385792 2.708272 -0.147696
v 0.385792 2.392013 -0.147696
v 0.385792 2.708272 0.145751
v 0.385792 2.538737 0.206525
v 0.388564 2.718779 -0.164022
v 0.418788 2.717844 -0.163118
v 0.388564 2.381505 -0.164022
v 0.418788 2.382441 -0.163118
v 0.388564 2.718779 0.162077
v 0.418788 2.717844 0.161172
v 0.388564 2.537979 0.229614
v 0.418788 2.538046 0.228335
v 0.418788 2.782298 -0.000973
v 0.418788 2.382441 0.161172
v 0.418788 2.317987 -0.000973
v 0.418788 2.538046 -0.230280
v 0.388564 2.537979 -0.231559
v 0.388564 2.316692 -0.000973
v 0.388564 2.783593 -0.000973
v 0.388564 2.381505 0.162077
v 0.152804 -0.932700 -0.091214
v 0.084752 -0.786518 -0.084752
v 0.190586 -0.932700 0.000000
v 0.119857 -0.786518 0.000000
v 0.152804 -0.932700 0.091214
v 0.084752 -0.786518 0.084752
v 0.044429 -1.179391 -0.044429
v 0.062832 -1.179391 0.000000
v 0.044429 -1.179391 0.044429
v 0.076215 -0.320250 0.076101
v 0.074655 -0.074335 0.075200
v 0.080357 -0.047536 0.076069
v 0.070338 0.221797 0.075068
v 0.060447 0.264793 0.075916
v 0.083598 0.548993 0.080920
v 0.081896 0.578396 0.081814
v 0.076215 -0.320250 -0.076101
v 0.074655 -0.074335 -0.075200
v 0.080357 -0.047536 -0.076069
v 0.070338 0.221797 -0.075068
v 0.060293 0.264030 -0.075916
v 0.083598 0.548993 -0.080920
v 0.081896 0.578396 -0.081814
v 0.115785 0.583316 0.000000
v 0.117131 0.557469 0.000000
v 0.094662 0.275333 -0.000000
v 0.100727 0.215212 0.000000
v 0.111828 -0.049069 0.000000
v 0.105373 -0.069171 0.000000
v 0.106682 -0.312160 0.000000
v 0.093199 -0.275079 0.093797
v 0.093895 -0.120815 0.094893
v 0.093199 -0.275079 -0.093797
v 0.093895 -0.120815 -0.094893
v 0.129314 -0.125443 0.000000
v 0.122949 -0.255078 0.000000
v 0.088500 0.007308 0.093593
v 0.090244 0.159068 0.094662
v 0.088500 0.007308 -0.093593
v 0.090244 0.159068 -0.094662
v 0.122485 0.137062 0.000000
v 0.127221 0.005422 0.000000
v 0.078232 0.325361 0.094607
v 0.085561 0.481146 0.095663
v 0.078232 0.325361 -0.094607
v 0.085561 0.481146 -0.095663
v 0.129025 0.486314 0.000000
v 0.115365 0.343740 -0.000000
v 0.076650 0.829966 0.077801
v 0.076650 0.829966 -0.077801
v 0.108876 0.829966 0.000000
v 0.145113 0.788164 0.000000
v 0.143779 0.668322 0.000000
v 0.101369 0.647797 -0.102389
v 0.101369 0.647797 0.102389
v 0.102312 0.788164 0.103332
v 0.102312 0.788164 -0.103332
v 0.000000 -0.932700 -0.128996
v 0.000000 -0.786518 -0.119857
v -0.152804 -0.932700 -0.091214
v -0.084752 -0.786518 -0.084752
v -0.190586 -0.932700 0.000000
v -0.119857 -0.786518 0.000000
v -0.152804 -0.932700 0.091214
v -0.084752 -0.786518 0.084752
v 0.000000 -0.932700 0.128996
v 0.000000 -0.786518 0.119857
v 0.000000 -1.179391 -0.062831
v -0.044429 -1.179391 -0.044429
v -0.062832 -1.179391 0.000000
v -0.044429 -1.179391 0.044429
v 0.000000 -1.179391 0.062831
v 0.000082 0.562815 -0.115702
v 0.000082 0.531040 -0.114438
v -0.002840 0.265686 -0.107361
v -0.007809 0.237001 -0.106162
v 0.002986 -0.058221 -0.107577
v 0.000496 -0.086802 -0.106348
v 0.002663 -0.339781 -0.107624
v -0.070890 -0.359312 0.076101
v -0.073663 -0.099268 0.075200
v -0.073840 -0.040183 0.076069
v -0.080780 0.236383 0.075068
v -0.076719 0.263392 0.075916
v -0.080839 0.505619 0.080920
v -0.084193 0.535754 0.081814
v 0.000082 0.562815 0.115702
v 0.000082 0.531040 0.114438
v -0.002840 0.265686 0.107361
v -0.007809 0.237001 0.106162
v 0.002986 -0.058221 0.107577
v 0.000496 -0.086802 0.106348
v 0.002663 -0.339781 0.107624
v -0.070890 -0.359312 -0.076101
v -0.073663 -0.099268 -0.075200
v -0.073840 -0.040183 -0.076068
v -0.080780 0.236383 -0.075068
v -0.076719 0.264170 -0.075916
v -0.080839 0.505619 -0.080920
v -0.081732 0.535754 -0.081814
v -0.115621 0.528374 0.000000
v -0.114356 0.505619 0.000000
v -0.108164 0.260033 0.000000
v -0.111138 0.235318 0.000000
v -0.104175 -0.031665 0.000000
v -0.104381 -0.104432 0.000000
v -0.101356 -0.367402 0.000000
v 0.000315 -0.136546 -0.134199
v 0.002544 -0.299152 -0.132648
v -0.088111 -0.303851 0.093797
v -0.093265 -0.152278 0.094893
v 0.000315 -0.136546 0.134199
v 0.002544 -0.299152 0.132648
v -0.088111 -0.303851 -0.093797
v -0.093265 -0.152278 -0.094893
v -0.125340 -0.175510 0.000000
v -0.120089 -0.309792 0.000000
v -0.006910 0.178442 -0.133872
v 0.001089 -0.000669 -0.132360
v -0.092417 0.022243 0.093593
v -0.099020 0.182566 0.094662
v -0.006910 0.178442 0.133872
v 0.001089 -0.000669 0.132360
v -0.092417 0.022243 -0.093593
v -0.099020 0.182566 -0.094662
v -0.135079 0.169351 0.000000
v -0.122791 0.048252 0.000000
v -0.000967 0.467592 -0.135289
v 0.000212 0.309184 -0.133794
v -0.095574 0.319505 0.094607
v -0.096630 0.444474 0.095663
v -0.000967 0.467592 0.135289
v 0.000212 0.309184 0.133794
v -0.095574 0.317763 -0.094607
v -0.096630 0.444474 -0.095663
v -0.136255 0.431051 0.000000
v -0.139244 0.317776 0.000000
v -0.001152 0.829966 -0.110027
v -0.091048 0.829966 0.077801
v -0.091048 0.829966 -0.077801
v -0.001152 0.829966 0.110027
v -0.123275 0.829966 0.000000
v -0.001021 0.766537 -0.146134
v -0.001021 0.632798 -0.144799
v -0.001021 0.766537 0.146134
v -0.001021 0.632798 0.144799
v -0.159513 0.741182 0.000000
v -0.145820 0.599642 0.000000
v -0.103410 0.599642 -0.102389
v -0.103410 0.599642 0.102389
v -0.116711 0.766444 0.103332
v -0.116711 0.766444 -0.103332
v -0.139628 -1.065731 0.092914
v 0.000000 -1.065731 -0.131400
v 0.139628 -1.065731 -0.092914
v 0.178114 -1.065731 0.000000
v 0.139628 -1.065731 0.092914
v 0.000000 -1.065731 0.131400
v 0.002004 -0.380816 -0.107204
v -0.004006 -0.610368 -0.120329
v 0.002004 -0.380816 0.107204
v -0.004006 -0.610368 0.120329
v 0.109941 -0.347967 0.000000
v 0.116695 -0.581622 0.000000
v 0.081916 -0.577881 0.085086
v 0.078775 -0.347707 0.075805
v 0.081916 -0.577881 -0.085086
v 0.078775 -0.347707 -0.075805
v -0.104399 -0.379929 0.000000
v -0.123108 -0.619175 -0.000000
v -0.088224 -0.616596 0.085086
v -0.073234 -0.380189 0.075805
v -0.088224 -0.616596 -0.085086
v -0.073234 -0.380189 -0.075805
v 0.015260 -0.408438 -0.128912
v -0.002991 -0.569412 -0.128408
v 0.009704 -0.413994 0.128912
v -0.002991 -0.569412 0.128408
v 0.134484 -0.398980 0.000000
v 0.130002 -0.548471 0.000000
v 0.093003 -0.543889 0.090798
v 0.093258 -0.389193 0.091155
v 0.093003 -0.543889 -0.090798
v 0.093258 -0.389193 -0.091155
v -0.130201 -0.421592 0.000000
v -0.130062 -0.576759 0.000000
v -0.092844 -0.574607 0.090798
v -0.088181 -0.415943 0.091155
v -0.092844 -0.574607 -0.090798
v -0.088181 -0.415943 -0.091155
v -0.178114 -1.065731 0.000000
v -0.139628 -1.065731 -0.092914
v 0.000000 -1.179391 0.044425
v 0.000000 -1.179391 0.000009
v 0.000000 -1.179391 -0.044416
v -0.044429 -1.179391 -0.000007
v 0.044429 -1.179391 0.000007
v 0.072759 2.017617 0.076828
v 0.072759 2.017617 -0.078774
v 0.104985 2.017617 -0.000973
v -0.005042 2.017617 -0.111000
v -0.094939 2.017617 0.076828
v -0.094939 2.017617 -0.078774
v -0.005042 2.017617 0.109054
v -0.127165 2.017617 -0.000973
v -0.094453 1.880335 -0.078652
v -0.093966 1.788375 -0.078530
v -0.093480 1.700527 -0.078409
v -0.125706 1.700527 -0.000608
v -0.126193 1.788375 -0.000730
v -0.126679 1.880335 -0.000851
v -0.004556 1.880335 -0.110878
v -0.004070 1.788375 -0.110756
v -0.003583 1.700527 -0.110635
v 0.073245 1.880335 0.076950
v 0.073732 1.788375 0.077071
v 0.074218 1.700527 0.077193
v 0.106444 1.700527 -0.000608
v 0.105958 1.788375 -0.000730
v 0.105471 1.880335 -0.000851
v -0.004556 1.880335 0.109176
v -0.004070 1.788375 0.109297
v -0.003583 1.700527 0.109419
v -0.093480 1.700527 0.077193
v -0.093966 1.788375 0.077071
v -0.094453 1.880335 0.076950
v 0.074218 1.700527 -0.078409
v 0.073732 1.788375 -0.078530
v 0.073245 1.880335 -0.078652
v -0.110785 1.779590 -0.094103
v -0.110201 1.709312 -0.093957
v -0.148873 1.709312 -0.000596
v -0.149456 1.779591 -0.000742
v -0.002909 1.779590 -0.132774
v -0.002325 1.709312 -0.132628
v 0.090453 1.779590 0.092619
v 0.091036 1.709312 0.092765
v 0.129708 1.709312 -0.000596
v 0.129124 1.779591 -0.000742
v -0.002909 1.779590 0.131291
v -0.002325 1.709312 0.131436
v -0.110201 1.709312 0.092765
v -0.110785 1.779591 0.092619
v 0.091036 1.709312 -0.093957
v 0.090453 1.779591 -0.094103
v -0.126863 1.961909 -0.000897
v 0.105287 1.961909 -0.000897
v -0.094637 1.961909 0.076904
v 0.073061 1.961909 -0.078698
v -0.094637 1.961909 -0.078698
v -0.004740 1.961909 -0.110924
v 0.073061 1.961909 0.076904
v -0.004740 1.961909 0.109130
v -0.111425 1.953752 -0.094263
v -0.111204 1.888493 -0.094207
v -0.003549 1.953752 -0.132934
v -0.003328 1.888493 -0.132879
v 0.089812 1.953752 0.092459
v 0.090033 1.888493 0.092514
v -0.003549 1.953752 0.131130
v -0.003328 1.888493 0.131186
v 0.090033 1.888493 -0.094207
v 0.128705 1.888493 -0.000847
v -0.111204 1.888493 0.092514
v -0.149876 1.888493 -0.000847
v -0.150097 1.953752 -0.000902
v 0.128484 1.953752 -0.000902
v -0.111425 1.953752 0.092459
v 0.089812 1.953752 -0.094263
v 0.193838 2.192214 0.197013
v 0.193838 2.192214 -0.198959
v 0.273075 2.192214 -0.000973
v 0.002545 2.192214 -0.280968
v -0.218488 2.192214 0.197014
v -0.218488 2.192214 -0.198959
v 0.002545 2.192214 0.279022
v -0.297725 2.192214 -0.000973
v 0.123281 2.090027 -0.000973
v 0.085831 2.090027 -0.094548
v -0.004581 2.090027 -0.133309
v -0.146500 2.090027 -0.000973
v -0.109050 2.090027 0.092603
v -0.004581 2.090027 0.131363
v 0.085831 2.090027 0.092603
v -0.109050 2.090027 -0.094548
v 0.193838 2.878196 0.197013
v 0.193838 2.878196 -0.198959
v 0.273075 2.878196 -0.000973
v 0.002545 2.878196 -0.280968
v -0.218488 2.878196 0.197014
v -0.218488 2.878196 -0.198959
v 0.002545 2.878196 0.279022
v -0.297725 2.878196 -0.000973
v 0.216429 2.878196 0.218708
v 0.216429 2.878196 -0.220654
v 0.304348 2.878196 -0.000973
v 0.004174 2.878196 -0.311649
v -0.241079 2.878196 0.218708
v -0.241079 2.878196 -0.220654
v 0.004174 2.878196 0.309703
v -0.328998 2.878196 -0.000973
v -0.004268 2.017617 0.123135
v -0.105670 2.017617 0.086785
v -0.004268 2.017617 -0.125081
v 0.083490 2.017617 -0.088730
v -0.105670 2.017617 -0.088730
v 0.083490 2.017617 0.086785
v -0.142020 2.017617 -0.000973
v 0.119840 2.017617 -0.000973
v 0.216429 2.967760 0.218708
v 0.197324 3.029415 0.198934
v 0.197324 3.029415 -0.200880
v 0.216429 2.967760 -0.220654
v 0.277329 3.029415 -0.000973
v 0.304348 2.967760 -0.000973
v 0.004174 2.967760 -0.311649
v 0.003526 3.029415 -0.283962
v -0.222248 3.029415 0.198249
v -0.241079 2.967760 0.218708
v -0.241079 2.967760 -0.220654
v -0.222248 3.029415 -0.200195
v 0.003526 3.029415 0.282017
v 0.004174 2.967760 0.309703
v -0.328998 2.967760 -0.000973
v -0.301979 3.029415 -0.000973
v 0.003984 2.220511 -0.308059
v -0.238436 2.220511 -0.218116
v 0.300689 2.220511 -0.000973
v 0.213786 2.220511 -0.218116
v -0.325339 2.220511 -0.000973
v -0.238436 2.220511 0.216170
v 0.003984 2.220511 0.306114
v 0.213786 2.220511 0.216170
v 0.000000 -0.796273 -0.147402
v 0.109258 -0.796273 -0.104229
v 0.152431 -0.796273 0.000000
v 0.109258 -0.796273 0.104229
v 0.000000 -0.796273 0.147402
v -0.109258 -0.796273 -0.104229
v -0.152431 -0.796273 0.000000
v -0.109258 -0.796273 0.104229
v -0.288446 2.288889 0.212744
v -0.249474 2.481936 0.221133
v -0.324950 2.359525 0.164108
v -0.190666 2.444378 0.273409
v -0.071007 2.642739 0.301380
v -0.033924 2.581691 0.306966
v -0.191910 2.834303 0.276863
v -0.209665 2.752664 0.233053
v -0.278197 2.863383 0.143715
v -0.287400 2.779383 0.113646
v -0.268824 2.295381 0.168661
v -0.234971 2.482522 0.174312
v -0.296481 2.368561 0.136168
v -0.175764 2.446005 0.226803
v -0.321540 2.279728 0.000000
v -0.344512 2.337776 0.000000
v -0.060766 2.645847 0.253111
v -0.023596 2.585660 0.258815
v -0.179624 2.833338 0.240174
v -0.198251 2.750355 0.195746
v -0.240540 2.858759 0.122682
v -0.249694 2.772146 0.093769
v 0.279315 2.292172 0.212744
v 0.247069 2.481936 0.221133
v 0.326988 2.355806 0.164108
v 0.188261 2.444378 0.273409
v 0.298384 2.393378 0.215084
v 0.242728 2.349219 0.272001
v 0.068602 2.642739 0.301380
v 0.031519 2.581691 0.306966
v 0.189506 2.834303 0.276863
v 0.207260 2.752664 0.233053
v 0.275792 2.863383 0.143715
v 0.284995 2.779383 0.113646
v -0.001202 2.682616 0.274861
v 0.261036 2.301816 0.168661
v 0.232566 2.482522 0.174312
v 0.300402 2.369422 0.136168
v 0.173359 2.446005 0.226803
v 0.286442 2.387628 0.167730
v -0.001202 2.603236 0.265211
v 0.231030 2.343070 0.224633
v 0.310442 2.277669 0.000000
v 0.342688 2.331124 0.000000
v 0.058361 2.645847 0.253111
v 0.021191 2.585660 0.258815
v 0.177219 2.833338 0.240174
v 0.195846 2.750355 0.195746
v 0.238135 2.858759 0.122682
v 0.247289 2.772146 0.093769
v -0.001202 2.681066 0.323961
v -0.001202 2.601779 0.314878
v -0.288446 2.288889 -0.212744
v -0.249474 2.481936 -0.221133
v -0.324950 2.359525 -0.164108
v -0.190666 2.444378 -0.273409
v -0.290533 2.391855 -0.215083
v -0.242937 2.339108 -0.272001
v -0.071007 2.642739 -0.301380
v -0.033924 2.581691 -0.306966
v -0.191910 2.834303 -0.276863
v -0.209665 2.752664 -0.233052
v -0.278197 2.863383 -0.143715
v -0.287400 2.779383 -0.113646
v -0.268824 2.295381 -0.168661
v -0.234971 2.482522 -0.174312
v -0.296481 2.368561 -0.136168
v -0.175764 2.446005 -0.226802
v -0.279705 2.384211 -0.167730
v -0.232416 2.331111 -0.224633
v -0.060766 2.645847 -0.253111
v -0.023596 2.585660 -0.258814
v -0.179624 2.833338 -0.240174
v -0.198251 2.750355 -0.195746
v -0.240540 2.858759 -0.122682
v -0.249694 2.772146 -0.093769
v -0.305418 2.865934 0.000000
v -0.299375 2.788159 0.000000
v -0.348216 2.274945 0.000000
v -0.378088 2.325609 0.000000
v -0.345719 2.865680 0.000000
v -0.339614 2.790439 0.000000
v 0.279315 2.292172 -0.212744
v 0.247069 2.481936 -0.221133
v 0.326988 2.355806 -0.164108
v 0.188261 2.444378 -0.273409
v 0.298384 2.393378 -0.215083
v 0.242728 2.349219 -0.272001
v 0.068602 2.642739 -0.301380
v 0.031519 2.581691 -0.306966
v 0.189506 2.834303 -0.276863
v 0.207260 2.752664 -0.233052
v 0.275792 2.863383 -0.143715
v 0.284995 2.779383 -0.113646
v -0.001202 2.682616 -0.274861
v 0.261036 2.301816 -0.168661
v 0.232566 2.482522 -0.174312
v 0.300402 2.369422 -0.136168
v 0.173359 2.446005 -0.226802
v 0.286442 2.387628 -0.167730
v -0.001202 2.603236 -0.265211
v 0.231030 2.343070 -0.224633
v 0.058361 2.645847 -0.253111
v 0.021191 2.585660 -0.258814
v 0.177219 2.833338 -0.240174
v 0.195846 2.750355 -0.195746
v 0.238135 2.858759 -0.122682
v 0.247289 2.772146 -0.093769
v 0.303013 2.865934 0.000000
v 0.296970 2.788159 0.000000
v -0.001202 2.681066 -0.323961
v -0.001202 2.601779 -0.314878
v 0.335961 2.268545 0.000000
v 0.373792 2.313578 0.000000
v 0.343314 2.865680 0.000000
v 0.337209 2.790439 0.000000
vn -1.0000 0.0000 0.0000
vn 0.0000 0.0000 -1.0000
vn 1.0000 0.0000 0.0000
vn 0.0000 0.0000 1.0000
vn 0.9021 -0.4315 0.0000
vn 0.0000 0.4398 -0.8981
vn 0.0000 -0.5258 0.8506
vn 0.0000 -0.1017 0.9948
vn 0.0000 -0.8426 0.5385
vn 0.0000 0.8507 -0.5256
vn 0.0000 -0.0220 -0.9998
vn 0.0000 1.0000 0.0000
vn -0.9021 -0.4315 0.0000
vn -0.8615 0.5077 0.0000
vn 0.8615 0.5077 0.0000
vn 0.0000 0.4398 0.8981
vn 0.0000 -0.5258 -0.8506
vn 0.0000 -0.1017 -0.9948
vn 0.0000 -0.8426 -0.5385
vn 0.0000 0.8507 0.5256
vn 0.0000 -0.0220 0.9998
vn 0.7685 0.2159 -0.6023
vn 0.7853 -0.5719 -0.2369
vn 0.7759 -0.2414 -0.5829
vn 0.7853 0.5719 0.2369
vn 0.7685 0.2159 0.6023
vn 0.7853 -0.5719 0.2369
vn 0.7759 -0.2414 0.5829
vn 0.7853 0.5719 -0.2369
vn 0.7306 -0.2613 0.6309
vn 0.7410 0.6204 -0.2570
vn 0.7224 0.2333 -0.6509
vn 0.7410 -0.6204 -0.2570
vn 0.7306 -0.2613 -0.6309
vn 0.7410 0.6204 0.2570
vn 0.7224 0.2333 0.6509
vn 0.7410 -0.6204 0.2570
vn 0.0000 0.9239 -0.3827
vn 0.0000 0.3375 -0.9413
vn 0.0000 -0.9239 -0.3827
vn 0.0000 -0.3827 -0.9239
vn 0.0000 0.9239 0.3827
vn 0.0000 0.3375 0.9413
vn 0.0000 -0.9239 0.3827
vn 0.0000 -0.3827 0.9239
vn 0.0000 -1.0000 0.0000
vn -0.3625 -0.0000 0.9320
vn 0.3185 -0.9479 0.0000
vn -0.5128 -0.8585 0.0000
vn -0.5128 0.8585 0.0000
vn -0.3625 -0.0000 -0.9320
vn -0.5087 0.5363 0.6734
vn -0.5087 0.5363 -0.6734
vn -0.5087 -0.5363 -0.6734
vn 0.3185 0.9479 0.0000
vn 0.2137 0.0000 -0.9769
vn 0.3154 -0.5912 0.7423
vn 0.2137 0.0000 0.9769
vn 0.3154 -0.5912 -0.7423
vn 0.3154 0.5912 -0.7423
vn 0.3154 0.5912 0.7423
vn -0.5087 -0.5363 0.6734
vn 0.0000 -0.6230 -0.7822
vn 0.0000 -0.6230 0.7822
vn 0.0000 0.6230 0.7822
vn 0.0000 0.6230 -0.7822
vn -0.9826 -0.1720 0.0697
vn 0.9824 -0.1729 -0.0701
vn -0.9907 0.0468 0.1278
vn 0.9907 -0.0529 -0.1250
vn -0.9826 0.1720 0.0697
vn 0.9824 0.1729 0.0701
vn -0.9908 -0.0526 -0.1243
vn 0.9906 0.0471 0.1285
vn 0.0297 0.3373 -0.9409
vn 0.0314 -0.9234 -0.3825
vn 0.0304 -0.3825 -0.9235
vn 0.0314 0.9234 0.3825
vn 0.0297 0.3373 0.9409
vn 0.0314 -0.9234 0.3825
vn 0.0304 -0.3825 0.9235
vn 0.0314 0.9234 -0.3825
vn 0.0398 0.9285 -0.3691
vn 0.0397 -0.3960 0.9174
vn 0.0398 -0.9285 0.3691
vn 0.0388 0.3497 0.9361
vn 0.0398 0.9285 0.3691
vn 0.0397 -0.3960 -0.9174
vn 0.0398 -0.9285 -0.3691
vn 0.0388 0.3497 -0.9361
vn 0.9906 0.0471 -0.1285
vn -0.9908 -0.0526 0.1243
vn 0.9824 0.1729 -0.0701
vn -0.9826 0.1720 -0.0697
vn 0.9907 -0.0529 0.1250
vn -0.9907 0.0468 -0.1278
vn 0.9824 -0.1729 0.0701
vn -0.9826 -0.1720 -0.0697
vn 0.1297 0.9380 -0.3216
vn 0.2849 0.9513 -0.1180
vn 0.2849 0.9513 0.1180
vn 0.1297 0.9380 0.3216
vn 0.2515 -0.5242 0.8136
vn 0.6742 -0.6838 -0.2792
vn 0.2515 -0.5242 -0.8136
vn 0.6742 -0.6838 0.2792
vn -0.9204 -0.0863 0.3813
vn -0.1297 0.9380 -0.3216
vn -0.2849 0.9513 -0.1180
vn -0.2849 0.9513 0.1180
vn -0.1297 0.9380 0.3216
vn -0.2515 -0.5242 0.8136
vn -0.6742 -0.6838 -0.2792
vn -0.2515 -0.5242 -0.8136
vn -0.6742 -0.6838 0.2792
vn 0.2524 0.0024 -0.9676
vn 0.9204 -0.0863 0.3813
vn -0.2524 0.0024 0.9676
vn -0.9204 -0.0863 -0.3813
vn -0.2524 0.0024 -0.9676
vn 0.9204 -0.0863 -0.3813
vn 0.2524 0.0024 0.9676
vn -0.3507 -0.9251 0.1453
vn -0.1338 0.9180 -0.3733
vn 0.1488 -0.9214 0.3591
vn -0.3495 0.9257 -0.1448
vn 0.3495 -0.9257 0.1448
vn -0.1341 -0.9176 -0.3742
vn -0.3509 -0.9251 -0.1453
vn 0.1490 0.9211 -0.3597
vn 0.3827 0.0013 -0.9239
vn 0.9239 0.0069 -0.3827
vn -0.3375 -0.0008 0.9413
vn -0.9239 -0.0069 0.3827
vn 0.3827 0.0051 0.9239
vn 0.9238 0.0085 0.3827
vn -0.3374 -0.0048 -0.9413
vn -0.9238 -0.0085 -0.3827
vn 0.3509 0.9251 0.1453
vn -0.1340 -0.9178 0.3738
vn 0.1491 0.9210 0.3600
vn 0.3496 -0.9256 -0.1448
vn -0.3496 0.9256 0.1448
vn 0.1489 -0.9212 -0.3594
vn -0.1340 0.9178 0.3737
vn 0.3507 0.9251 -0.1453
vn 0.1398 0.9309 0.3376
vn -0.3282 0.9348 0.1360
vn -0.1258 0.9279 0.3509
vn 0.1397 -0.9309 -0.3374
vn 0.3286 0.9346 -0.1361
vn 0.3282 -0.9348 -0.1360
vn -0.1258 -0.9279 0.3509
vn -0.3286 -0.9346 0.1361
vn 0.3827 0.0005 -0.9239
vn 0.9239 0.0028 -0.3827
vn -0.3375 -0.0003 0.9413
vn -0.9239 -0.0028 0.3827
vn 0.3827 0.0021 0.9239
vn 0.9239 0.0035 0.3827
vn -0.3375 -0.0019 -0.9413
vn -0.9239 -0.0035 -0.3827
vn 0.3287 0.9346 0.1361
vn -0.1257 0.9280 -0.3507
vn -0.3287 -0.9346 -0.1361
vn -0.1258 -0.9279 -0.3510
vn 0.3282 -0.9348 0.1359
vn -0.3282 0.9348 -0.1359
vn 0.1397 -0.9310 0.3373
vn 0.1398 0.9309 -0.3375
vn 0.5497 -0.8058 -0.2200
vn 0.2339 -0.8047 -0.5456
vn -0.5463 -0.8085 0.2187
vn -0.2090 -0.7994 0.5633
vn 0.5497 -0.8058 0.2200
vn 0.2339 -0.8047 0.5456
vn -0.5463 -0.8085 -0.2187
vn -0.2090 -0.7994 -0.5633
vn -0.3410 -0.0994 -0.9348
vn -0.9243 -0.0653 -0.3762
vn 0.3867 -0.0944 0.9174
vn 0.9250 -0.0521 0.3765
vn -0.3410 -0.0994 0.9348
vn -0.9243 -0.0653 0.3762
vn 0.3867 -0.0944 -0.9174
vn 0.9250 -0.0521 -0.3765
vn -0.3476 0.0378 -0.9369
vn 0.9277 0.0390 -0.3713
vn 0.3937 0.0387 -0.9184
vn -0.9277 0.0390 0.3713
vn -0.3476 0.0378 0.9369
vn 0.9277 0.0390 0.3713
vn 0.3937 0.0387 0.9184
vn -0.9277 0.0390 -0.3713
vn 0.9284 0.0000 -0.3716
vn -0.9284 0.0000 -0.3716
vn -0.9284 0.0000 0.3716
vn 0.3940 0.0000 0.9191
vn 0.3940 0.0000 -0.9191
vn -0.3479 0.0000 0.9375
vn -0.3479 0.0000 -0.9375
vn 0.9284 0.0000 0.3716
vn 0.3637 0.3848 -0.8483
vn 0.3637 0.3848 0.8483
vn 0.8600 0.3769 -0.3442
vn 0.8600 0.3769 0.3442
vn -0.3210 0.3852 -0.8652
vn -0.3210 0.3852 0.8652
vn -0.8600 0.3769 -0.3442
vn -0.8600 0.3769 0.3442
vn -0.6880 -0.6714 -0.2754
vn 0.2929 -0.6690 0.6832
vn 0.6880 -0.6714 0.2754
vn -0.2611 -0.6606 0.7039
vn -0.6880 -0.6714 0.2754
vn 0.2929 -0.6690 -0.6832
vn 0.6880 -0.6714 -0.2754
vn -0.2611 -0.6606 -0.7039
vn -0.2946 -0.0628 0.9536
vn -0.8945 0.2502 0.3705
vn -0.8945 0.2502 -0.3705
vn -0.2946 -0.0628 -0.9536
vn 0.2946 -0.0628 0.9536
vn 0.8945 0.2502 0.3705
vn 0.8945 0.2502 -0.3705
vn 0.2946 -0.0628 -0.9536
vn 0.8459 0.4188 -0.3302
vn 0.4011 -0.3421 0.8497
vn 0.9082 0.3080 0.2833
vn 0.3437 0.2479 0.9058
vn 0.8924 -0.2521 -0.3743
vn 0.4502 -0.4673 0.7609
vn 0.9047 0.1331 -0.4048
vn 0.8459 0.4188 0.3302
vn 0.8924 -0.2521 0.3743
vn 0.9029 -0.3393 -0.2639
vn 0.4080 0.3916 -0.8247
vn 0.4405 -0.4299 0.7881
vn 0.9029 -0.3393 0.2639
vn 0.9047 0.1331 0.4048
vn 0.3916 -0.0058 -0.9201
vn 0.3916 -0.0058 0.9201
vn 0.9455 -0.0248 -0.3246
vn 0.9455 -0.0248 0.3246
vn 0.2738 0.4691 0.8396
vn 0.4502 -0.4673 -0.7609
vn 0.2738 0.4691 -0.8396
vn 0.3892 0.0002 -0.9212
vn 0.3892 0.0002 0.9212
vn 0.9361 0.0086 -0.3518
vn 0.9361 0.0086 0.3518
vn 0.9082 0.3080 -0.2833
vn 0.4080 0.3916 0.8247
vn 0.4011 -0.3421 -0.8497
vn 0.4342 -0.0158 -0.9007
vn 0.4342 -0.0158 0.9007
vn 0.9217 -0.0662 -0.3822
vn 0.9217 -0.0662 0.3822
vn 0.4393 -0.4280 -0.7899
vn 0.3437 0.2479 -0.9058
vn 0.8938 -0.3132 0.3209
vn 0.8942 -0.3125 -0.3205
vn 0.2680 0.5350 -0.8012
vn 0.4075 -0.3537 0.8419
vn 0.7211 0.6251 0.2987
vn 0.8909 -0.3172 -0.3252
vn 0.8909 -0.3172 0.3252
vn 0.7211 0.6251 -0.2987
vn 0.3840 -0.0090 -0.9233
vn 0.3840 -0.0090 0.9233
vn 0.9242 -0.0095 -0.3819
vn 0.9242 -0.0095 0.3819
vn 0.4075 -0.3537 -0.8419
vn 0.2680 0.5350 0.8012
vn -0.8999 0.3379 -0.2758
vn -0.4287 -0.3646 0.8266
vn -0.8785 0.3606 0.3134
vn -0.4344 0.3012 0.8489
vn -0.9217 -0.2746 -0.2739
vn -0.3006 -0.4322 0.8502
vn -0.8928 0.2858 -0.3481
vn -0.8999 0.3379 0.2758
vn -0.9217 -0.2746 0.2739
vn -0.8757 -0.3332 -0.3494
vn -0.3502 0.4088 -0.8427
vn -0.3640 -0.4316 0.8253
vn -0.8757 -0.3332 0.3494
vn -0.8928 0.2858 0.3481
vn -0.3889 -0.0169 -0.9211
vn -0.3889 -0.0169 0.9211
vn -0.9446 -0.0356 -0.3262
vn -0.9446 -0.0356 0.3262
vn -0.4093 0.4469 0.7955
vn -0.3006 -0.4322 -0.8502
vn -0.4093 0.4469 -0.7955
vn -0.3901 -0.0238 -0.9204
vn -0.3901 -0.0238 0.9204
vn -0.9424 -0.0645 -0.3282
vn -0.9424 -0.0645 0.3282
vn -0.8785 0.3606 -0.3134
vn -0.3502 0.4088 0.8427
vn -0.4287 -0.3646 -0.8266
vn -0.3799 -0.0113 -0.9250
vn -0.3800 -0.0113 0.9249
vn -0.9162 0.0056 -0.4007
vn -0.9162 0.0057 0.4006
vn -0.3606 -0.4407 -0.8220
vn -0.4344 0.3012 -0.8489
vn -0.8244 -0.4233 0.3758
vn -0.8218 -0.4311 -0.3724
vn -0.3037 0.4649 -0.8317
vn -0.2468 -0.3698 0.8957
vn -0.8644 0.4020 0.3020
vn -0.8485 -0.3815 -0.3667
vn -0.8578 -0.3682 0.3586
vn -0.8644 0.4020 -0.3020
vn -0.3608 -0.0230 -0.9324
vn -0.3608 -0.0230 0.9324
vn -0.9172 -0.0815 -0.3899
vn -0.9172 -0.0815 0.3899
vn -0.2480 -0.3738 -0.8937
vn -0.3037 0.4649 0.8317
vn -0.8041 0.4900 -0.3366
vn 0.8632 -0.3450 -0.3686
vn -0.9133 -0.1508 -0.3784
vn 0.8444 0.4129 0.3413
vn -0.8041 0.4900 0.3366
vn 0.8632 -0.3450 0.3686
vn 0.1940 0.5229 -0.8300
vn -0.9133 -0.1508 0.3784
vn -0.9170 0.0128 0.3988
vn -0.9170 0.0128 -0.3988
vn -0.3731 0.0181 0.9276
vn -0.3645 0.0236 -0.9309
vn 0.9182 -0.0148 0.3959
vn 0.9182 -0.0148 -0.3959
vn 0.3915 -0.0189 0.9200
vn 0.4030 -0.0261 -0.9148
vn 0.8444 0.4129 -0.3413
vn -0.3712 -0.1680 0.9132
vn 0.4241 -0.2297 0.8760
vn -0.3298 0.4737 0.8166
vn 0.1945 0.4818 0.8544
vn -0.3712 -0.1680 -0.9132
vn 0.4241 -0.2297 -0.8760
vn -0.3322 0.4827 -0.8103
vn 0.6348 -0.0917 -0.7672
vn -0.8810 -0.3580 0.3094
vn -0.2381 -0.0870 0.9673
vn -0.4161 0.1240 0.9008
vn -0.4415 -0.1658 0.8818
vn -0.8444 -0.0976 0.5268
vn -0.9062 -0.0614 0.4184
vn -0.7411 0.5714 -0.3525
vn 0.9029 0.2645 -0.3387
vn 0.2647 0.0976 -0.9594
vn 0.4196 -0.1230 -0.8993
vn 0.4254 0.2089 -0.8806
vn 0.8932 0.0471 -0.4472
vn 0.8848 0.0644 -0.4614
vn 0.7776 -0.5795 0.2441
vn 0.5618 -0.8272 0.0134
vn 0.2405 -0.9706 0.0044
vn -0.3548 0.9314 -0.0811
vn -0.6364 0.7592 -0.1361
vn 0.6469 -0.7518 0.1278
vn -0.5629 -0.8128 -0.1500
vn 0.6203 0.7787 0.0942
vn -0.2581 -0.9642 -0.0607
vn 0.2106 0.9736 0.0880
vn -0.1365 -0.9887 -0.0620
vn 0.0578 0.9983 0.0068
vn 0.5481 0.2837 0.7868
vn 0.8097 -0.4986 0.3094
vn 0.7826 -0.1613 0.6013
vn 0.2381 -0.0870 0.9673
vn 0.4161 0.1240 0.9008
vn 0.4415 -0.1658 0.8818
vn 0.8444 -0.0976 0.5268
vn 0.9062 -0.0614 0.4184
vn -0.5534 -0.2773 -0.7854
vn -0.8468 0.4100 -0.3387
vn -0.7979 0.2302 -0.5571
vn -0.2647 0.0976 -0.9594
vn -0.4196 -0.1230 -0.8993
vn -0.4254 0.2089 -0.8806
vn -0.8932 0.0471 -0.4472
vn -0.8848 0.0644 -0.4614
vn 0.8298 0.4937 -0.2601
vn -0.6874 -0.6986 0.1986
vn -0.8382 -0.4792 0.2603
vn -0.5618 -0.8272 0.0134
vn 0.5899 0.7767 -0.2207
vn -0.3976 -0.9176 0.0044
vn 0.5038 0.8600 -0.0811
vn 0.6364 0.7592 -0.1361
vn -0.6469 -0.7518 0.1278
vn 0.5629 -0.8128 -0.1500
vn -0.6203 0.7787 0.0942
vn 0.2581 -0.9642 -0.0607
vn -0.2106 0.9736 0.0880
vn 0.1365 -0.9887 -0.0620
vn -0.0578 0.9983 0.0068
vn -0.5827 0.2489 -0.7736
vn -0.8810 -0.3580 -0.3094
vn -0.7985 -0.0299 -0.6013
vn -0.2381 -0.0870 -0.9673
vn -0.4161 0.1240 -0.9008
vn -0.4415 -0.1658 -0.8818
vn -0.8444 -0.0976 -0.5268
vn -0.9062 -0.0614 -0.4184
vn 0.5855 -0.2468 0.7722
vn 0.9029 0.2645 0.3387
vn 0.8250 0.0952 0.5571
vn 0.2647 0.0976 0.9594
vn 0.4196 -0.1230 0.8993
vn 0.4254 0.2089 0.8806
vn 0.8932 0.0471 0.4472
vn 0.8848 0.0644 0.4614
vn -0.8706 0.4143 0.2652
vn 0.5626 -0.8025 -0.1986
vn 0.8631 -0.4313 -0.2627
vn 0.5618 -0.8272 -0.0134
vn -0.4535 0.8635 0.2207
vn 0.2405 -0.9706 -0.0044
vn -0.3548 0.9314 0.0811
vn -0.6364 0.7592 0.1361
vn 0.6469 -0.7518 -0.1278
vn -0.5629 -0.8128 0.1500
vn 0.6203 0.7787 -0.0942
vn -0.2581 -0.9642 0.0607
vn 0.2106 0.9736 -0.0880
vn -0.1365 -0.9887 0.0620
vn 0.0578 0.9983 -0.0068
vn 0.5481 0.2837 -0.7868
vn 0.8097 -0.4986 -0.3094
vn 0.7826 -0.1613 -0.6013
vn 0.2381 -0.0870 -0.9673
vn 0.4161 0.1240 -0.9008
vn 0.4415 -0.1658 -0.8818
vn 0.8444 -0.0976 -0.5268
vn 0.9062 -0.0614 -0.4184
vn -0.5534 -0.2773 0.7854
vn -0.8468 0.4100 0.3387
vn -0.7979 0.2302 0.5571
vn -0.2647 0.0976 0.9594
vn -0.4196 -0.1230 0.8993
vn -0.4254 0.2089 0.8806
vn -0.8932 0.0471 0.4472
vn -0.8848 0.0644 0.4614
vn 0.8298 0.4937 0.2601
vn -0.6874 -0.6985 -0.1986
vn -0.8382 -0.4792 -0.2603
vn -0.5618 -0.8272 -0.0134
vn 0.5899 0.7767 0.2207
vn -0.3976 -0.9176 -0.0044
vn 0.5038 0.8600 0.0811
vn 0.6364 0.7592 0.1361
vn -0.6469 -0.7518 -0.1278
vn 0.5629 -0.8128 0.1500
vn -0.6203 0.7787 -0.0942
vn 0.2581 -0.9642 0.0607
vn -0.2106 0.9736 -0.0880
vn 0.1365 -0.9887 0.0620
vn -0.0578 0.9983 -0.0068
vn -0.6661 0.1024 0.7388
vn 0.3858 0.0011 -0.9226
vn 0.3925 -0.0927 -0.9150
vn 0.4050 0.0026 -0.9143
vn 0.3813 -0.0220 -0.9242
vn 0.3858 0.0011 0.9226
vn 0.3925 -0.0927 0.9150
vn 0.4046 0.0017 0.9145
vn 0.3813 -0.0220 0.9242
vn 0.9219 0.0830 -0.3783
vn 0.8999 -0.2400 -0.3642
vn 0.9084 0.1397 -0.3940
vn 0.9216 0.0446 -0.3855
vn 0.9219 0.0830 0.3783
vn 0.8999 -0.2400 0.3642
vn 0.9093 0.1375 0.3927
vn 0.9216 0.0446 0.3855
vn -0.3904 0.0083 -0.9206
vn -0.3836 -0.0120 -0.9234
vn -0.3920 0.0294 -0.9195
vn -0.3720 -0.0377 -0.9275
vn -0.3904 0.0083 0.9206
vn -0.3836 -0.0120 0.9234
vn -0.3921 0.0298 0.9194
vn -0.3631 -0.0521 0.9303
vn -0.9194 0.1450 -0.3656
vn -0.9273 -0.0023 -0.3742
vn -0.9205 0.1173 -0.3728
vn -0.9223 -0.0441 -0.3840
vn -0.9194 0.1450 0.3656
vn -0.9273 -0.0023 0.3742
vn -0.9201 0.1190 0.3732
vn -0.9239 -0.0870 0.3727
vn -0.9243 -0.0188 0.3812
vn -0.9243 -0.0188 -0.3812
vn -0.3840 -0.0105 0.9233
vn -0.3840 -0.0105 -0.9233
vn 0.9248 0.0131 0.3802
vn 0.9248 0.0131 -0.3802
vn 0.3803 0.0048 0.9249
vn 0.3803 0.0048 -0.9249
vn -0.9239 -0.0055 -0.3827
vn -0.3375 -0.0031 -0.9413
vn 0.9239 0.0055 0.3827
vn 0.3827 0.0033 0.9239
vn -0.9239 -0.0045 0.3827
vn -0.3375 -0.0006 0.9413
vn 0.9239 0.0045 -0.3827
vn 0.3827 0.0008 -0.9239
vn 0.9239 0.0023 -0.3827
vn 0.9239 0.0044 -0.3827
vn -0.9239 -0.0023 0.3827
vn -0.3375 -0.0005 0.9413
vn 0.3827 0.0017 0.9239
vn -0.9239 -0.0044 0.3827
vn 0.9239 0.0028 0.3827
vn 0.3827 0.0032 0.9239
vn -0.3375 -0.0016 -0.9413
vn 0.9239 0.0054 0.3827
vn -0.9239 -0.0028 -0.3827
vn -0.3375 -0.0030 -0.9413
vn 0.3827 0.0004 -0.9239
vn -0.9239 -0.0054 -0.3827
vn -0.6760 0.0000 0.7369
vn 0.5000 0.8660 0.0000
vn -0.3380 -0.5855 0.7369
vn 0.3380 -0.5855 0.7369
vn 0.5000 -0.8660 0.0000
vn 0.3380 0.5855 0.7369
vn -0.5000 -0.8660 0.0000
vn -0.3380 0.5855 0.7369
vn 0.6760 0.0000 0.7369
vn -0.5000 0.8660 0.0000
vn -0.6760 0.0000 -0.7369
vn -0.3380 -0.5855 -0.7369
vn 0.3380 -0.5855 -0.7369
vn 0.3380 0.5855 -0.7369
vn -0.3380 0.5855 -0.7369
vn 0.6760 0.0000 -0.7369
usemtl Steel
s off
f 1/1/1 2/1/1 4/1/1 3/1/1
f 3/1/2 4/1/2 8/1/2 7/1/2
f 7/1/3 8/1/3 6/1/3 5/1/3
f 5/1/4 6/1/4 2/1/4 1/1/4
f 7/1/5 5/1/5 22/1/5 21/1/5
f 8/1/6 4/1/6 10/1/6 11/1/6
f 12/1/3 11/1/3 15/1/3 16/1/3
f 6/1/3 8/1/3 11/1/3 12/1/3
f 4/1/1 2/1/1 9/1/1 10/1/1
f 2/1/7 6/1/7 12/1/7 9/1/7
f 13/1/8 16/1/8 20/1/8 17/1/8
f 10/1/1 9/1/1 13/1/1 14/1/1
f 9/1/9 12/1/9 16/1/9 13/1/9
f 11/1/10 10/1/10 14/1/10 15/1/10
f 15/1/11 14/1/11 18/1/11 19/1/11
f 16/1/3 15/1/3 19/1/3 20/1/3
f 14/1/1 13/1/1 17/1/1 18/1/1
f 17/1/4 20/1/4 101/1/4 102/1/4 95/1/4 96/1/4
f 99/1/12 98/1/12 95/1/12 102/1/12
f 19/1/2 18/1/2 97/1/2 98/1/2 99/1/2 100/1/2
f 20/1/3 19/1/3 100/1/3 101/1/3
f 5/1/4 1/1/4 22/1/4
f 3/1/2 7/1/2 21/1/2
f 1/1/13 3/1/13 21/1/13 22/1/13
f 95/1/14 98/1/14 97/1/14 96/1/14
f 99/1/15 102/1/15 101/1/15 100/1/15
f 18/1/1 17/1/1 96/1/1 97/1/1
f 103/1/1 105/1/1 106/1/1 104/1/1
f 105/1/4 109/1/4 110/1/4 106/1/4
f 109/1/3 107/1/3 108/1/3 110/1/3
f 107/1/2 103/1/2 104/1/2 108/1/2
f 109/1/5 123/1/5 124/1/5 107/1/5
f 110/1/16 113/1/16 112/1/16 106/1/16
f 114/1/3 118/1/3 117/1/3 113/1/3
f 108/1/3 114/1/3 113/1/3 110/1/3
f 106/1/1 112/1/1 111/1/1 104/1/1
f 104/1/17 111/1/17 114/1/17 108/1/17
f 115/1/18 119/1/18 122/1/18 118/1/18
f 112/1/1 116/1/1 115/1/1 111/1/1
f 111/1/19 115/1/19 118/1/19 114/1/19
f 113/1/20 117/1/20 116/1/20 112/1/20
f 117/1/21 121/1/21 120/1/21 116/1/21
f 118/1/3 122/1/3 121/1/3 117/1/3
f 116/1/1 120/1/1 119/1/1 115/1/1
f 119/1/2 198/1/2 197/1/2 204/1/2 203/1/2 122/1/2
f 201/1/12 204/1/12 197/1/12 200/1/12
f 121/1/4 202/1/4 201/1/4 200/1/4 199/1/4 120/1/4
f 122/1/3 203/1/3 202/1/3 121/1/3
f 107/1/2 124/1/2 103/1/2
f 105/1/4 123/1/4 109/1/4
f 103/1/13 124/1/13 123/1/13 105/1/13
f 197/1/14 198/1/14 199/1/14 200/1/14
f 201/1/15 202/1/15 203/1/15 204/1/15
f 120/1/1 199/1/1 198/1/1 119/1/1
f 281/1/22 277/1/22 210/1/22 208/1/22
f 282/1/23 278/1/23 206/1/23 207/1/23
f 278/1/24 281/1/24 208/1/24 206/1/24
f 283/1/25 279/1/25 209/1/25 212/1/25
f 279/1/26 280/1/26 211/1/26 209/1/26
f 284/1/27 282/1/27 207/1/27 205/1/27
f 280/1/28 284/1/28 205/1/28 211/1/28
f 277/1/29 283/1/29 212/1/29 210/1/29
f 211/1/30 205/1/30 221/1/30 227/1/30
f 210/1/31 212/1/31 228/1/31 226/1/31
f 208/1/32 210/1/32 226/1/32 224/1/32
f 207/1/33 206/1/33 222/1/33 223/1/33
f 206/1/34 208/1/34 224/1/34 222/1/34
f 212/1/35 209/1/35 225/1/35 228/1/35
f 209/1/36 211/1/36 227/1/36 225/1/36
f 205/1/37 207/1/37 223/1/37 221/1/37
f 226/1/38 228/1/38 236/1/38 234/1/38
f 224/1/39 226/1/39 234/1/39 232/1/39
f 223/1/40 222/1/40 230/1/40 231/1/40
f 222/1/41 224/1/41 232/1/41 230/1/41
f 228/1/42 225/1/42 233/1/42 236/1/42
f 225/1/43 227/1/43 235/1/43 233/1/43
f 221/1/44 223/1/44 231/1/44 229/1/44
f 227/1/45 221/1/45 229/1/45 235/1/45
f 266/1/46 267/1/46 275/1/46 276/1/46
f 246/1/47 247/1/47 240/1/47 237/1/47
f 248/1/48 251/1/48 258/1/48 259/1/48
f 250/1/49 251/1/49 248/1/49 245/1/49
f 238/1/50 239/1/50 244/1/50 241/1/50
f 242/1/51 243/1/51 252/1/51 249/1/51
f 237/1/52 240/1/52 239/1/52 238/1/52
f 243/1/53 242/1/53 241/1/53 244/1/53
f 251/1/54 250/1/54 249/1/54 252/1/54
f 241/1/1 242/1/1 249/1/1 250/1/1 245/1/1 246/1/1 237/1/1 238/1/1
f 253/1/3 260/1/3 261/1/3 268/1/3
f 244/1/55 239/1/55 254/1/55 255/1/55
f 252/1/56 243/1/56 256/1/56 257/1/56
f 247/1/57 248/1/57 259/1/57 260/1/57
f 240/1/58 247/1/58 260/1/58 253/1/58
f 251/1/59 252/1/59 257/1/59 258/1/59
f 243/1/60 244/1/60 255/1/60 256/1/60
f 239/1/61 240/1/61 253/1/61 254/1/61
f 272/1/3 269/1/3 270/1/3 276/1/3 275/1/3 274/1/3 273/1/3 271/1/3
f 257/1/3 256/1/3 265/1/3 264/1/3
f 254/1/3 253/1/3 268/1/3 267/1/3
f 258/1/3 257/1/3 264/1/3 263/1/3
f 255/1/3 254/1/3 267/1/3 266/1/3
f 259/1/3 258/1/3 263/1/3 262/1/3
f 256/1/3 255/1/3 266/1/3 265/1/3
f 260/1/3 259/1/3 262/1/3 261/1/3
f 247/1/62 246/1/62 245/1/62 248/1/62
f 268/1/2 261/1/2 273/1/2 274/1/2
f 262/1/12 263/1/12 272/1/12 271/1/12
f 264/1/4 265/1/4 270/1/4 269/1/4
f 267/1/63 268/1/63 274/1/63 275/1/63
f 265/1/64 266/1/64 276/1/64 270/1/64
f 263/1/65 264/1/65 269/1/65 272/1/65
f 261/1/66 262/1/66 271/1/66 273/1/66
f 288/1/67 286/1/67 306/1/67 308/1/67
f 278/1/68 282/1/68 303/1/68 296/1/68
f 291/1/69 292/1/69 299/1/69 297/1/69
f 281/1/70 278/1/70 296/1/70 304/1/70
f 287/1/71 291/1/71 297/1/71 307/1/71
f 279/1/72 283/1/72 301/1/72 298/1/72
f 290/1/73 285/1/73 305/1/73 295/1/73
f 280/1/74 279/1/74 298/1/74 300/1/74
f 213/1/75 214/1/75 289/1/75 285/1/75
f 215/1/76 216/1/76 290/1/76 286/1/76
f 216/1/77 213/1/77 285/1/77 290/1/77
f 217/1/78 218/1/78 291/1/78 287/1/78
f 218/1/79 219/1/79 292/1/79 291/1/79
f 220/1/80 215/1/80 286/1/80 288/1/80
f 219/1/81 220/1/81 288/1/81 292/1/81
f 214/1/82 217/1/82 287/1/82 289/1/82
f 293/1/83 307/1/83 301/1/83 294/1/83
f 299/1/84 308/1/84 302/1/84 300/1/84
f 308/1/85 306/1/85 303/1/85 302/1/85
f 297/1/86 299/1/86 300/1/86 298/1/86
f 307/1/87 297/1/87 298/1/87 301/1/87
f 295/1/88 305/1/88 304/1/88 296/1/88
f 306/1/89 295/1/89 296/1/89 303/1/89
f 305/1/90 293/1/90 294/1/90 304/1/90
f 277/1/91 281/1/91 304/1/91 294/1/91
f 292/1/92 288/1/92 308/1/92 299/1/92
f 283/1/93 277/1/93 294/1/93 301/1/93
f 289/1/94 287/1/94 307/1/94 293/1/94
f 284/1/95 280/1/95 300/1/95 302/1/95
f 285/1/96 289/1/96 293/1/96 305/1/96
f 282/1/97 284/1/97 302/1/97 303/1/97
f 286/1/98 290/1/98 295/1/98 306/1/98
f 642/1/99 367/1/99 310/1/99 643/1/99
f 643/1/100 310/1/100 312/1/100 644/1/100
f 644/1/101 312/1/101 314/1/101 645/1/101
f 645/1/102 314/1/102 375/1/102 646/1/102
f 465/1/103 466/1/103 380/1/103 317/1/103
f 463/1/104 464/1/104 316/1/104 315/1/104
f 462/1/105 463/1/105 315/1/105 376/1/105
f 464/1/106 465/1/106 317/1/106 316/1/106
f 370/1/107 499/1/107 461/1/107 372/1/107
f 380/1/46 501/1/46 317/1/46
f 642/1/108 647/1/108 369/1/108 367/1/108
f 647/1/109 648/1/109 371/1/109 369/1/109
f 648/1/110 649/1/110 373/1/110 371/1/110
f 649/1/111 646/1/111 375/1/111 373/1/111
f 461/1/112 379/1/112 380/1/112 466/1/112
f 500/1/113 377/1/113 378/1/113 499/1/113
f 462/1/114 376/1/114 377/1/114 500/1/114
f 499/1/115 378/1/115 379/1/115 461/1/115
f 380/1/46 379/1/46 501/1/46
f 366/1/116 309/1/116 463/1/116 462/1/116
f 311/1/117 313/1/117 465/1/117 464/1/117
f 372/1/118 461/1/118 466/1/118 374/1/118
f 368/1/119 500/1/119 499/1/119 370/1/119
f 366/1/120 462/1/120 500/1/120 368/1/120
f 309/1/121 311/1/121 464/1/121 463/1/121
f 313/1/122 374/1/122 466/1/122 465/1/122
f 501/1/46 379/1/46 504/1/46 502/1/46
f 502/1/46 504/1/46 377/1/46 503/1/46
f 503/1/46 377/1/46 376/1/46
f 377/1/46 504/1/46 378/1/46
f 378/1/46 504/1/46 379/1/46
f 317/1/46 505/1/46 316/1/46
f 316/1/46 505/1/46 315/1/46
f 315/1/46 503/1/46 376/1/46
f 503/1/46 315/1/46 505/1/46 502/1/46
f 502/1/46 505/1/46 317/1/46 501/1/46
f 517/1/123 532/1/123 550/1/123 540/1/123
f 515/1/124 521/1/124 542/1/124 538/1/124
f 531/1/125 525/1/125 545/1/125 549/1/125
f 518/1/126 515/1/126 538/1/126 541/1/126
f 525/1/127 526/1/127 546/1/127 545/1/127
f 522/1/128 516/1/128 539/1/128 543/1/128
f 516/1/129 517/1/129 540/1/129 539/1/129
f 521/1/130 536/1/130 553/1/130 542/1/130
f 552/1/131 543/1/131 542/1/131 553/1/131
f 546/1/132 552/1/132 553/1/132 547/1/132
f 550/1/133 549/1/133 548/1/133 551/1/133
f 540/1/134 550/1/134 551/1/134 541/1/134
f 549/1/135 545/1/135 544/1/135 548/1/135
f 545/1/136 546/1/136 547/1/136 544/1/136
f 543/1/137 539/1/137 538/1/137 542/1/137
f 539/1/138 540/1/138 541/1/138 538/1/138
f 527/1/139 524/1/139 544/1/139 547/1/139
f 532/1/140 531/1/140 549/1/140 550/1/140
f 524/1/141 530/1/141 548/1/141 544/1/141
f 526/1/142 535/1/142 552/1/142 546/1/142
f 533/1/143 518/1/143 541/1/143 551/1/143
f 535/1/144 522/1/144 543/1/144 552/1/144
f 530/1/145 533/1/145 551/1/145 548/1/145
f 536/1/146 527/1/146 547/1/146 553/1/146
f 560/1/147 561/1/147 568/1/147 566/1/147
f 556/1/148 554/1/148 574/1/148 576/1/148
f 561/1/149 556/1/149 576/1/149 568/1/149
f 537/1/150 520/1/150 565/1/150 570/1/150
f 557/1/151 555/1/151 575/1/151 577/1/151
f 528/1/152 537/1/152 570/1/152 571/1/152
f 534/1/153 529/1/153 569/1/153 572/1/153
f 519/1/154 534/1/154 572/1/154 573/1/154
f 570/1/155 565/1/155 564/1/155 577/1/155
f 571/1/156 570/1/156 577/1/156 575/1/156
f 572/1/157 569/1/157 568/1/157 576/1/157
f 573/1/158 572/1/158 576/1/158 574/1/158
f 569/1/159 567/1/159 566/1/159 568/1/159
f 567/1/160 571/1/160 575/1/160 566/1/160
f 565/1/161 563/1/161 562/1/161 564/1/161
f 563/1/162 573/1/162 574/1/162 562/1/162
f 555/1/163 560/1/163 566/1/163 575/1/163
f 558/1/164 559/1/164 564/1/164 562/1/164
f 514/1/165 519/1/165 573/1/165 563/1/165
f 520/1/166 514/1/166 563/1/166 565/1/166
f 523/1/167 528/1/167 571/1/167 567/1/167
f 554/1/168 558/1/168 562/1/168 574/1/168
f 529/1/169 523/1/169 567/1/169 569/1/169
f 559/1/170 557/1/170 577/1/170 564/1/170
f 586/1/171 587/1/171 579/1/171 580/1/171
f 587/1/172 588/1/172 581/1/172 579/1/172
f 589/1/173 590/1/173 582/1/173 585/1/173
f 590/1/174 591/1/174 584/1/174 582/1/174
f 592/1/175 586/1/175 580/1/175 578/1/175
f 591/1/176 592/1/176 578/1/176 584/1/176
f 593/1/177 589/1/177 585/1/177 583/1/177
f 588/1/178 593/1/178 583/1/178 581/1/178
f 612/1/179 614/1/179 593/1/179 588/1/179
f 614/1/180 616/1/180 589/1/180 593/1/180
f 610/1/181 615/1/181 592/1/181 591/1/181
f 615/1/182 617/1/182 586/1/182 592/1/182
f 611/1/183 610/1/183 591/1/183 590/1/183
f 616/1/184 611/1/184 590/1/184 589/1/184
f 613/1/185 612/1/185 588/1/185 587/1/185
f 617/1/186 613/1/186 587/1/186 586/1/186
f 634/1/187 635/1/187 599/1/187 597/1/187
f 636/1/188 637/1/188 595/1/188 596/1/188
f 637/1/189 634/1/189 597/1/189 595/1/189
f 638/1/190 639/1/190 598/1/190 601/1/190
f 639/1/191 640/1/191 600/1/191 598/1/191
f 641/1/192 636/1/192 596/1/192 594/1/192
f 640/1/193 641/1/193 594/1/193 600/1/193
f 635/1/194 638/1/194 601/1/194 599/1/194
f 598/1/46 600/1/46 608/1/46 606/1/46
f 594/1/46 596/1/46 604/1/46 602/1/46
f 600/1/46 594/1/46 602/1/46 608/1/46
f 599/1/46 601/1/46 609/1/46 607/1/46
f 597/1/46 599/1/46 607/1/46 605/1/46
f 596/1/46 595/1/46 603/1/46 604/1/46
f 595/1/46 597/1/46 605/1/46 603/1/46
f 601/1/46 598/1/46 606/1/46 609/1/46
f 604/1/195 603/1/195 621/1/195 623/1/195
f 607/1/196 609/1/196 632/1/196 628/1/196
f 609/1/197 606/1/197 627/1/197 632/1/197
f 608/1/198 602/1/198 618/1/198 631/1/198
f 603/1/199 605/1/199 624/1/199 621/1/199
f 508/1/46 507/1/46 613/1/46 617/1/46
f 606/1/200 608/1/200 631/1/200 627/1/200
f 605/1/201 607/1/201 628/1/201 624/1/201
f 602/1/202 604/1/202 623/1/202 618/1/202
f 625/1/203 620/1/203 621/1/203 624/1/203
f 619/1/204 630/1/204 631/1/204 618/1/204
f 620/1/205 622/1/205 623/1/205 621/1/205
f 622/1/206 619/1/206 618/1/206 623/1/206
f 624/1/207 628/1/207 629/1/207 625/1/207
f 627/1/208 631/1/208 630/1/208 626/1/208
f 628/1/209 632/1/209 633/1/209 629/1/209
f 632/1/210 627/1/210 626/1/210 633/1/210
f 620/1/12 625/1/12 629/1/12 633/1/12 626/1/12 630/1/12 619/1/12 622/1/12
f 507/1/46 509/1/46 612/1/46 613/1/46
f 513/1/46 510/1/46 611/1/46 616/1/46
f 510/1/46 512/1/46 610/1/46 611/1/46
f 506/1/46 508/1/46 617/1/46 615/1/46
f 512/1/46 506/1/46 615/1/46 610/1/46
f 511/1/46 513/1/46 616/1/46 614/1/46
f 509/1/46 511/1/46 614/1/46 612/1/46
f 583/1/211 585/1/211 638/1/211 635/1/211
f 584/1/212 578/1/212 641/1/212 640/1/212
f 578/1/213 580/1/213 636/1/213 641/1/213
f 582/1/214 584/1/214 640/1/214 639/1/214
f 585/1/215 582/1/215 639/1/215 638/1/215
f 579/1/216 581/1/216 634/1/216 637/1/216
f 580/1/217 579/1/217 637/1/217 636/1/217
f 581/1/218 583/1/218 635/1/218 634/1/218
f 372/1/219 374/1/219 646/1/219 649/1/219
f 370/1/220 372/1/220 649/1/220 648/1/220
f 368/1/221 370/1/221 648/1/221 647/1/221
f 366/1/222 368/1/222 647/1/222 642/1/222
f 313/1/223 645/1/223 646/1/223 374/1/223
f 311/1/224 644/1/224 645/1/224 313/1/224
f 309/1/225 643/1/225 644/1/225 311/1/225
f 366/1/226 642/1/226 643/1/226 309/1/226
usemtl LightWood
f 326/2/227 337/2/227 343/2/227 342/2/227
f 399/2/228 320/2/228 345/2/228 431/2/228
f 335/2/229 321/2/229 346/2/229 349/2/229
f 323/2/230 396/2/230 440/2/230 352/2/230
f 336/2/231 327/2/231 347/2/231 350/2/231
f 401/2/232 318/2/232 339/2/232 421/2/232
f 330/2/233 333/2/233 355/2/233 354/2/233
f 337/2/234 319/2/234 340/2/234 343/2/234
f 320/2/235 336/2/235 350/2/235 345/2/235
f 338/2/236 325/2/236 341/2/236 344/2/236
f 384/2/237 328/2/237 348/2/237 426/2/237
f 397/2/238 322/2/238 351/2/238 441/2/238
f 318/2/239 338/2/239 344/2/239 339/2/239
f 333/2/240 323/2/240 352/2/240 355/2/240
f 417/2/241 416/2/241 342/2/241 341/2/241
f 339/2/242 340/2/242 420/2/242 421/2/242
f 341/2/243 342/2/243 343/2/243 344/2/243
f 344/2/244 343/2/244 340/2/244 339/2/244
f 319/2/245 400/2/245 420/2/245 340/2/245
f 325/2/246 387/2/246 417/2/246 341/2/246
f 386/2/247 326/2/247 342/2/247 416/2/247
f 427/2/248 426/2/248 348/2/248 347/2/248
f 345/2/249 346/2/249 430/2/249 431/2/249
f 347/2/250 348/2/250 349/2/250 350/2/250
f 350/2/251 349/2/251 346/2/251 345/2/251
f 328/2/252 335/2/252 349/2/252 348/2/252
f 321/2/253 398/2/253 430/2/253 346/2/253
f 327/2/254 385/2/254 427/2/254 347/2/254
f 437/2/255 436/2/255 354/2/255 353/2/255
f 351/2/256 352/2/256 440/2/256 441/2/256
f 353/2/257 354/2/257 355/2/257 356/2/257
f 356/2/258 355/2/258 352/2/258 351/2/258
f 329/2/259 383/2/259 437/2/259 353/2/259
f 382/2/260 330/2/260 354/2/260 436/2/260
f 322/2/261 334/2/261 356/2/261 351/2/261
f 334/2/262 329/2/262 353/2/262 356/2/262
f 446/2/263 358/2/263 365/2/263 451/2/263
f 395/2/264 324/2/264 363/2/264 454/2/264
f 359/2/265 357/2/265 364/2/265 360/2/265
f 332/2/266 331/2/266 362/2/266 361/2/266
f 324/2/267 332/2/267 361/2/267 363/2/267
f 358/2/268 359/2/268 360/2/268 365/2/268
f 452/2/269 451/2/269 365/2/269 362/2/269
f 363/2/270 364/2/270 453/2/270 454/2/270
f 362/2/271 365/2/271 360/2/271 361/2/271
f 361/2/272 360/2/272 364/2/272 363/2/272
f 331/2/273 381/2/273 452/2/273 362/2/273
f 357/2/274 449/2/274 453/2/274 364/2/274
f 403/2/275 423/2/275 424/2/275 414/2/275
f 399/2/276 431/2/276 428/2/276 390/2/276
f 412/2/277 434/2/277 429/2/277 391/2/277
f 393/2/278 439/2/278 440/2/278 396/2/278
f 413/2/279 435/2/279 432/2/279 404/2/279
f 401/2/280 421/2/280 418/2/280 388/2/280
f 407/2/281 443/2/281 444/2/281 410/2/281
f 414/2/282 424/2/282 419/2/282 389/2/282
f 390/2/283 428/2/283 435/2/283 413/2/283
f 415/2/284 425/2/284 422/2/284 402/2/284
f 384/2/285 426/2/285 433/2/285 405/2/285
f 397/2/286 441/2/286 438/2/286 392/2/286
f 388/2/287 418/2/287 425/2/287 415/2/287
f 410/2/288 444/2/288 439/2/288 393/2/288
f 417/2/289 422/2/289 423/2/289 416/2/289
f 418/2/290 421/2/290 420/2/290 419/2/290
f 422/2/291 425/2/291 424/2/291 423/2/291
f 425/2/292 418/2/292 419/2/292 424/2/292
f 389/2/293 419/2/293 420/2/293 400/2/293
f 402/2/294 422/2/294 417/2/294 387/2/294
f 386/2/295 416/2/295 423/2/295 403/2/295
f 427/2/296 432/2/296 433/2/296 426/2/296
f 428/2/297 431/2/297 430/2/297 429/2/297
f 432/2/298 435/2/298 434/2/298 433/2/298
f 435/2/299 428/2/299 429/2/299 434/2/299
f 405/2/300 433/2/300 434/2/300 412/2/300
f 391/2/301 429/2/301 430/2/301 398/2/301
f 404/2/302 432/2/302 427/2/302 385/2/302
f 437/2/303 442/2/303 443/2/303 436/2/303
f 438/2/304 441/2/304 440/2/304 439/2/304
f 442/2/305 445/2/305 444/2/305 443/2/305
f 445/2/306 438/2/306 439/2/306 444/2/306
f 406/2/307 442/2/307 437/2/307 383/2/307
f 382/2/308 436/2/308 443/2/308 407/2/308
f 392/2/309 438/2/309 445/2/309 411/2/309
f 411/2/310 445/2/310 442/2/310 406/2/310
f 446/2/311 451/2/311 460/2/311 448/2/311
f 395/2/312 454/2/312 458/2/312 394/2/312
f 450/2/313 455/2/313 459/2/313 447/2/313
f 409/2/314 456/2/314 457/2/314 408/2/314
f 394/2/315 458/2/315 456/2/315 409/2/315
f 448/2/316 460/2/316 455/2/316 450/2/316
f 452/2/317 457/2/317 460/2/317 451/2/317
f 458/2/318 454/2/318 453/2/318 459/2/318
f 457/2/319 456/2/319 455/2/319 460/2/319
f 456/2/320 458/2/320 459/2/320 455/2/320
f 408/2/321 457/2/321 452/2/321 381/2/321
f 447/2/322 459/2/322 453/2/322 449/2/322
f 477/2/323 482/2/323 498/2/323 493/2/323
f 472/2/324 475/2/324 491/2/324 488/2/324
f 481/2/325 478/2/325 494/2/325 497/2/325
f 471/2/326 474/2/326 490/2/326 487/2/326
f 480/2/327 477/2/327 493/2/327 496/2/327
f 473/2/328 472/2/328 488/2/328 489/2/328
f 467/2/329 476/2/329 492/2/329 483/2/329
f 478/2/330 479/2/330 495/2/330 494/2/330
f 494/2/331 495/2/331 496/2/331 493/2/331
f 497/2/332 494/2/332 493/2/332 498/2/332
f 495/2/333 486/2/333 485/2/333 496/2/333
f 484/2/334 497/2/334 498/2/334 483/2/334
f 488/2/335 487/2/335 490/2/335 489/2/335
f 491/2/336 492/2/336 487/2/336 488/2/336
f 489/2/337 490/2/337 485/2/337 486/2/337
f 484/2/338 483/2/338 492/2/338 491/2/338
f 476/2/339 471/2/339 487/2/339 492/2/339
f 479/2/340 470/2/340 486/2/340 495/2/340
f 470/2/341 473/2/341 489/2/341 486/2/341
f 469/2/342 480/2/342 496/2/342 485/2/342
f 474/2/343 469/2/343 485/2/343 490/2/343
f 468/2/344 481/2/344 497/2/344 484/2/344
f 475/2/345 468/2/345 484/2/345 491/2/345
f 482/2/346 467/2/346 483/2/346 498/2/346
f 662/2/347 661/2/347 663/2/347 660/2/347
f 729/2/348 728/2/348 650/2/348 652/2/348
f 654/2/349 655/2/349 701/2/349 700/2/349
f 651/2/350 653/2/350 655/2/350 654/2/350
f 654/2/351 700/2/351 656/2/351 657/2/351
f 657/2/352 656/2/352 658/2/352 659/2/352
f 659/2/353 658/2/353 730/2/353 731/2/353
f 652/2/354 651/2/354 661/2/354 662/2/354
f 665/2/355 662/2/355 660/2/355 664/2/355
f 666/2/356 684/2/356 690/2/356 667/2/356
f 661/2/357 666/2/357 667/2/357 663/2/357
f 666/2/358 669/2/358 668/2/358 684/2/358
f 669/2/359 671/2/359 670/2/359 668/2/359
f 671/2/360 727/2/360 726/2/360 670/2/360
f 653/2/361 650/2/361 660/2/361 663/2/361
f 701/2/362 655/2/362 667/2/362 690/2/362
f 650/2/363 728/2/363 664/2/363 660/2/363
f 729/2/364 652/2/364 662/2/364 665/2/364
f 651/2/365 654/2/365 666/2/365 661/2/365
f 655/2/366 653/2/366 663/2/366 667/2/366
f 654/2/367 657/2/367 669/2/367 666/2/367
f 656/2/368 700/2/368 684/2/368 668/2/368
f 657/2/369 659/2/369 671/2/369 669/2/369
f 658/2/370 656/2/370 668/2/370 670/2/370
f 659/2/371 731/2/371 727/2/371 671/2/371
f 730/2/372 658/2/372 670/2/372 726/2/372
f 676/2/373 673/2/373 675/2/373 677/2/373
f 763/2/374 674/2/374 672/2/374 762/2/374
f 674/2/375 676/2/375 677/2/375 672/2/375
f 678/2/376 700/2/376 701/2/376 679/2/376
f 673/2/377 678/2/377 679/2/377 675/2/377
f 678/2/378 681/2/378 680/2/378 700/2/378
f 681/2/379 683/2/379 682/2/379 680/2/379
f 683/2/380 765/2/380 764/2/380 682/2/380
f 689/2/381 691/2/381 688/2/381 686/2/381
f 693/2/382 692/2/382 685/2/382 687/2/382
f 687/2/383 685/2/383 691/2/383 689/2/383
f 694/2/384 695/2/384 690/2/384 684/2/384
f 686/2/385 688/2/385 695/2/385 694/2/385
f 694/2/386 684/2/386 696/2/386 697/2/386
f 697/2/387 696/2/387 698/2/387 699/2/387
f 699/2/388 698/2/388 758/2/388 759/2/388
f 676/2/389 689/2/389 686/2/389 673/2/389
f 677/2/390 691/2/390 685/2/390 672/2/390
f 675/2/391 688/2/391 691/2/391 677/2/391
f 701/2/392 690/2/392 695/2/392 679/2/392
f 674/2/393 687/2/393 689/2/393 676/2/393
f 672/2/394 685/2/394 692/2/394 762/2/394
f 763/2/395 693/2/395 687/2/395 674/2/395
f 673/2/396 686/2/396 694/2/396 678/2/396
f 679/2/397 695/2/397 688/2/397 675/2/397
f 678/2/398 694/2/398 697/2/398 681/2/398
f 680/2/399 696/2/399 684/2/399 700/2/399
f 681/2/400 697/2/400 699/2/400 683/2/400
f 682/2/401 698/2/401 696/2/401 680/2/401
f 683/2/402 699/2/402 759/2/402 765/2/402
f 764/2/403 758/2/403 698/2/403 682/2/403
f 706/2/404 703/2/404 705/2/404 707/2/404
f 729/2/405 704/2/405 702/2/405 728/2/405
f 704/2/406 706/2/406 707/2/406 702/2/406
f 708/2/407 760/2/407 761/2/407 709/2/407
f 703/2/408 708/2/408 709/2/408 705/2/408
f 708/2/409 711/2/409 710/2/409 760/2/409
f 711/2/410 713/2/410 712/2/410 710/2/410
f 713/2/411 731/2/411 730/2/411 712/2/411
f 718/2/412 719/2/412 717/2/412 715/2/412
f 665/2/413 664/2/413 714/2/413 716/2/413
f 716/2/414 714/2/414 719/2/414 718/2/414
f 720/2/415 721/2/415 750/2/415 744/2/415
f 715/2/416 717/2/416 721/2/416 720/2/416
f 720/2/417 744/2/417 722/2/417 723/2/417
f 723/2/418 722/2/418 724/2/418 725/2/418
f 725/2/419 724/2/419 726/2/419 727/2/419
f 706/2/420 718/2/420 715/2/420 703/2/420
f 707/2/421 719/2/421 714/2/421 702/2/421
f 705/2/422 717/2/422 719/2/422 707/2/422
f 761/2/423 750/2/423 721/2/423 709/2/423
f 704/2/424 716/2/424 718/2/424 706/2/424
f 702/2/425 714/2/425 664/2/425 728/2/425
f 729/2/426 665/2/426 716/2/426 704/2/426
f 703/2/427 715/2/427 720/2/427 708/2/427
f 709/2/428 721/2/428 717/2/428 705/2/428
f 708/2/429 720/2/429 723/2/429 711/2/429
f 710/2/430 722/2/430 744/2/430 760/2/430
f 711/2/431 723/2/431 725/2/431 713/2/431
f 712/2/432 724/2/432 722/2/432 710/2/432
f 713/2/433 725/2/433 727/2/433 731/2/433
f 730/2/434 726/2/434 724/2/434 712/2/434
f 736/2/435 737/2/435 735/2/435 733/2/435
f 763/2/436 762/2/436 732/2/436 734/2/436
f 734/2/437 732/2/437 737/2/437 736/2/437
f 738/2/438 739/2/438 761/2/438 760/2/438
f 733/2/439 735/2/439 739/2/439 738/2/439
f 738/2/440 760/2/440 740/2/440 741/2/440
f 741/2/441 740/2/441 742/2/441 743/2/441
f 743/2/442 742/2/442 764/2/442 765/2/442
f 749/2/443 746/2/443 748/2/443 751/2/443
f 693/2/444 747/2/444 745/2/444 692/2/444
f 747/2/445 749/2/445 751/2/445 745/2/445
f 752/2/446 744/2/446 750/2/446 753/2/446
f 746/2/447 752/2/447 753/2/447 748/2/447
f 752/2/448 755/2/448 754/2/448 744/2/448
f 755/2/449 757/2/449 756/2/449 754/2/449
f 757/2/450 759/2/450 758/2/450 756/2/450
f 736/2/451 733/2/451 746/2/451 749/2/451
f 737/2/452 732/2/452 745/2/452 751/2/452
f 735/2/453 737/2/453 751/2/453 748/2/453
f 761/2/454 739/2/454 753/2/454 750/2/454
f 734/2/455 736/2/455 749/2/455 747/2/455
f 732/2/456 762/2/456 692/2/456 745/2/456
f 763/2/457 734/2/457 747/2/457 693/2/457
f 733/2/458 738/2/458 752/2/458 746/2/458
f 739/2/459 735/2/459 748/2/459 753/2/459
f 738/2/460 741/2/460 755/2/460 752/2/460
f 740/2/461 760/2/461 744/2/461 754/2/461
f 741/2/462 743/2/462 757/2/462 755/2/462
f 742/2/463 740/2/463 754/2/463 756/2/463
f 743/2/464 765/2/464 759/2/464 757/2/464
f 764/2/465 742/2/465 756/2/465 758/2/465
f 652/2/466 650/2/466 653/2/466 651/2/466
usemtl DarkWood
f 467/3/467 387/3/467 325/3/467 476/3/467
f 386/3/468 385/3/468 327/3/468 326/3/468
f 384/3/469 383/3/469 329/3/469 328/3/469
f 382/3/470 381/3/470 331/3/470 330/3/470
f 474/3/471 318/3/471 401/3/471 469/3/471
f 319/3/472 320/3/472 399/3/472 400/3/472
f 321/3/473 322/3/473 397/3/473 398/3/473
f 323/3/474 324/3/474 395/3/474 396/3/474
f 476/3/475 325/3/475 338/3/475 471/3/475
f 326/3/476 327/3/476 336/3/476 337/3/476
f 328/3/477 329/3/477 334/3/477 335/3/477
f 330/3/478 331/3/478 332/3/478 333/3/478
f 471/3/479 338/3/479 318/3/479 474/3/479
f 337/3/480 336/3/480 320/3/480 319/3/480
f 335/3/481 334/3/481 322/3/481 321/3/481
f 333/3/482 332/3/482 324/3/482 323/3/482
f 467/3/483 482/3/483 402/3/483 387/3/483
f 386/3/484 403/3/484 404/3/484 385/3/484
f 384/3/485 405/3/485 406/3/485 383/3/485
f 382/3/486 407/3/486 408/3/486 381/3/486
f 480/3/487 469/3/487 401/3/487 388/3/487
f 389/3/488 400/3/488 399/3/488 390/3/488
f 391/3/489 398/3/489 397/3/489 392/3/489
f 393/3/490 396/3/490 395/3/490 394/3/490
f 482/3/491 477/3/491 415/3/491 402/3/491
f 403/3/492 414/3/492 413/3/492 404/3/492
f 405/3/493 412/3/493 411/3/493 406/3/493
f 407/3/494 410/3/494 409/3/494 408/3/494
f 477/3/495 480/3/495 388/3/495 415/3/495
f 414/3/496 389/3/496 390/3/496 413/3/496
f 412/3/497 391/3/497 392/3/497 411/3/497
f 410/3/498 393/3/498 394/3/498 409/3/498
f 371/3/499 373/3/499 479/3/499 478/3/499
f 369/3/500 371/3/500 478/3/500 481/3/500
f 373/3/501 375/3/501 470/3/501 479/3/501
f 367/3/502 369/3/502 481/3/502 468/3/502
f 312/3/503 472/3/503 473/3/503 314/3/503
f 310/3/504 475/3/504 472/3/504 312/3/504
f 314/3/505 473/3/505 470/3/505 375/3/505
f 367/3/506 468/3/506 475/3/506 310/3/506
f 558/3/507 554/3/507 513/3/507 511/3/507
f 559/3/508 558/3/508 511/3/508 509/3/508
f 560/3/509 555/3/509 508/3/509 506/3/509
f 561/3/510 560/3/510 506/3/510 512/3/510
f 554/3/511 556/3/511 510/3/511 513/3/511
f 556/3/512 561/3/512 512/3/512 510/3/512
f 555/3/513 557/3/513 507/3/513 508/3/513
f 557/3/514 559/3/514 509/3/514 507/3/514
f 535/3/515 526/3/515 359/3/515 358/3/515
f 536/3/514 521/3/514 520/3/514 537/3/514
f 449/3/157 531/3/157 532/3/157 447/3/157
f 527/3/516 536/3/516 537/3/516 528/3/516
f 517/3/517 450/3/517 447/3/517 532/3/517
f 533/3/518 530/3/518 529/3/518 534/3/518
f 357/3/519 525/3/519 531/3/519 449/3/519
f 518/3/520 533/3/520 534/3/520 519/3/520
f 359/3/521 526/3/521 525/3/521 357/3/521
f 530/3/522 524/3/522 523/3/522 529/3/522
f 448/3/523 516/3/523 522/3/523 446/3/523
f 524/3/524 527/3/524 528/3/524 523/3/524
f 450/3/525 517/3/525 516/3/525 448/3/525
f 521/3/526 515/3/526 514/3/526 520/3/526
f 446/3/527 522/3/527 535/3/527 358/3/527
f 515/3/528 518/3/528 519/3/528 514/3/528
usemtl LightSteel
f 36/4/529 34/4/529 39/4/529 40/4/529
f 25/4/530 26/4/530 28/4/530 27/4/530
f 34/4/531 32/4/531 38/4/531 39/4/531
f 27/4/3 28/4/3 30/4/3 29/4/3
f 32/4/532 30/4/532 37/4/532 38/4/532
f 29/4/533 30/4/533 32/4/533 31/4/533
f 28/4/534 26/4/534 23/4/534 24/4/534
f 31/4/535 32/4/535 34/4/535 33/4/535
f 26/4/536 36/4/536 40/4/536 23/4/536
f 24/4/4 23/4/4 40/4/4 39/4/4 38/4/4 37/4/4
f 33/4/1 34/4/1 36/4/1 35/4/1
f 30/4/537 28/4/537 24/4/537 37/4/537
f 35/4/538 36/4/538 26/4/538 25/4/538
f 25/4/2 27/4/2 29/4/2 31/4/2 33/4/2 35/4/2
f 54/4/529 52/4/529 57/4/529 58/4/529
f 43/4/530 44/4/530 46/4/530 45/4/530
f 52/4/531 50/4/531 56/4/531 57/4/531
f 45/4/3 46/4/3 48/4/3 47/4/3
f 50/4/532 48/4/532 55/4/532 56/4/532
f 47/4/533 48/4/533 50/4/533 49/4/533
f 46/4/534 44/4/534 41/4/534 42/4/534
f 49/4/535 50/4/535 52/4/535 51/4/535
f 44/4/536 54/4/536 58/4/536 41/4/536
f 42/4/4 41/4/4 58/4/4 57/4/4 56/4/4 55/4/4
f 51/4/1 52/4/1 54/4/1 53/4/1
f 48/4/537 46/4/537 42/4/537 55/4/537
f 53/4/538 54/4/538 44/4/538 43/4/538
f 43/4/2 45/4/2 47/4/2 49/4/2 51/4/2 53/4/2
f 72/4/529 70/4/529 75/4/529 76/4/529
f 61/4/530 62/4/530 64/4/530 63/4/530
f 70/4/531 68/4/531 74/4/531 75/4/531
f 63/4/3 64/4/3 66/4/3 65/4/3
f 68/4/532 66/4/532 73/4/532 74/4/532
f 65/4/533 66/4/533 68/4/533 67/4/533
f 64/4/534 62/4/534 59/4/534 60/4/534
f 67/4/535 68/4/535 70/4/535 69/4/535
f 62/4/536 72/4/536 76/4/536 59/4/536
f 60/4/4 59/4/4 76/4/4 75/4/4 74/4/4 73/4/4
f 69/4/1 70/4/1 72/4/1 71/4/1
f 66/4/537 64/4/537 60/4/537 73/4/537
f 71/4/538 72/4/538 62/4/538 61/4/538
f 61/4/2 63/4/2 65/4/2 67/4/2 69/4/2 71/4/2
f 90/4/529 88/4/529 93/4/529 94/4/529
f 79/4/530 80/4/530 82/4/530 81/4/530
f 88/4/531 86/4/531 92/4/531 93/4/531
f 81/4/3 82/4/3 84/4/3 83/4/3
f 86/4/532 84/4/532 91/4/532 92/4/532
f 83/4/533 84/4/533 86/4/533 85/4/533
f 82/4/534 80/4/534 77/4/534 78/4/534
f 85/4/535 86/4/535 88/4/535 87/4/535
f 80/4/536 90/4/536 94/4/536 77/4/536
f 78/4/4 77/4/4 94/4/4 93/4/4 92/4/4 91/4/4
f 87/4/1 88/4/1 90/4/1 89/4/1
f 84/4/537 82/4/537 78/4/537 91/4/537
f 89/4/538 90/4/538 80/4/538 79/4/538
f 79/4/2 81/4/2 83/4/2 85/4/2 87/4/2 89/4/2
f 138/4/539 142/4/539 141/4/539 136/4/539
f 127/4/530 129/4/530 130/4/530 128/4/530
f 136/4/540 141/4/540 140/4/540 134/4/540
f 129/4/3 131/4/3 132/4/3 130/4/3
f 134/4/541 140/4/541 139/4/541 132/4/541
f 131/4/533 133/4/533 134/4/533 132/4/533
f 130/4/542 126/4/542 125/4/542 128/4/542
f 133/4/535 135/4/535 136/4/535 134/4/535
f 128/4/543 125/4/543 142/4/543 138/4/543
f 126/4/2 139/4/2 140/4/2 141/4/2 142/4/2 125/4/2
f 135/4/1 137/4/1 138/4/1 136/4/1
f 132/4/544 139/4/544 126/4/544 130/4/544
f 137/4/538 127/4/538 128/4/538 138/4/538
f 127/4/4 137/4/4 135/4/4 133/4/4 131/4/4 129/4/4
f 156/4/539 160/4/539 159/4/539 154/4/539
f 145/4/530 147/4/530 148/4/530 146/4/530
f 154/4/540 159/4/540 158/4/540 152/4/540
f 147/4/3 149/4/3 150/4/3 148/4/3
f 152/4/541 158/4/541 157/4/541 150/4/541
f 149/4/533 151/4/533 152/4/533 150/4/533
f 148/4/542 144/4/542 143/4/542 146/4/542
f 151/4/535 153/4/535 154/4/535 152/4/535
f 146/4/543 143/4/543 160/4/543 156/4/543
f 144/4/2 157/4/2 158/4/2 159/4/2 160/4/2 143/4/2
f 153/4/1 155/4/1 156/4/1 154/4/1
f 150/4/544 157/4/544 144/4/544 148/4/544
f 155/4/538 145/4/538 146/4/538 156/4/538
f 145/4/4 155/4/4 153/4/4 151/4/4 149/4/4 147/4/4
f 174/4/539 178/4/539 177/4/539 172/4/539
f 163/4/530 165/4/530 166/4/530 164/4/530
f 172/4/540 177/4/540 176/4/540 170/4/540
f 165/4/3 167/4/3 168/4/3 166/4/3
f 170/4/541 176/4/541 175/4/541 168/4/541
f 167/4/533 169/4/533 170/4/533 168/4/533
f 166/4/542 162/4/542 161/4/542 164/4/542
f 169/4/535 171/4/535 172/4/535 170/4/535
f 164/4/543 161/4/543 178/4/543 174/4/543
f 162/4/2 175/4/2 176/4/2 177/4/2 178/4/2 161/4/2
f 171/4/1 173/4/1 174/4/1 172/4/1
f 168/4/544 175/4/544 162/4/544 166/4/544
f 173/4/538 163/4/538 164/4/538 174/4/538
f 163/4/4 173/4/4 171/4/4 169/4/4 167/4/4 165/4/4
f 192/4/539 196/4/539 195/4/539 190/4/539
f 181/4/530 183/4/530 184/4/530 182/4/530
f 190/4/540 195/4/540 194/4/540 188/4/540
f 183/4/3 185/4/3 186/4/3 184/4/3
f 188/4/541 194/4/541 193/4/541 186/4/541
f 185/4/533 187/4/533 188/4/533 186/4/533
f 184/4/542 180/4/542 179/4/542 182/4/542
f 187/4/535 189/4/535 190/4/535 188/4/535
f 182/4/543 179/4/543 196/4/543 192/4/543
f 180/4/2 193/4/2 194/4/2 195/4/2 196/4/2 179/4/2
f 189/4/1 191/4/1 192/4/1 190/4/1
f 186/4/544 193/4/544 180/4/544 184/4/544
f 191/4/538 181/4/538 182/4/538 192/4/538
f 181/4/4 191/4/4 189/4/4 187/4/4 185/4/4 183/4/4
