vt 0.125 0.5
vt 0.375 0.5
vt 0.625 0.5
vt 0.875 0.5
# Blender v2.79 (sub 0) OBJ File: 'Scythe.blend'
# www.blender.org
mtllib Scythe.mtl
o Scythe_Cylinder.005
v -0.275287 -1.816687 -0.059320
v -0.251381 -1.815500 -0.000014
v -0.274946 -1.816609 0.059293
v -0.284185 -1.586268 0.059717
v -0.264591 -1.419000 0.059824
v -0.255065 -1.398352 0.060486
v -0.194583 -1.217180 0.059764
v -0.186452 -1.181261 0.059909
v -0.083589 -0.987552 0.058711
v -0.073297 -0.964777 0.059155
v -0.285128 -1.586388 -0.059738
v -0.265819 -1.419086 -0.059833
v -0.256254 -1.398430 -0.060494
v -0.196089 -1.217317 -0.059760
v -0.188580 -1.182050 -0.059903
v -0.084944 -0.987880 -0.058734
v -0.074708 -0.965133 -0.059181
v -0.048227 -0.959597 -0.000013
v -0.057298 -0.979976 -0.000013
v -0.159547 -1.177060 -0.000013
v -0.175794 -1.227028 -0.000013
v -0.232187 -1.404113 -0.000013
v -0.240953 -1.419333 -0.000013
v -0.262611 -1.582362 -0.000014
v -0.267855 -1.565692 0.077702
v -0.252559 -1.439548 0.078142
v -0.268853 -1.565803 -0.077718
v -0.253781 -1.439630 -0.078146
v -0.225649 -1.448346 -0.000013
v -0.244629 -1.552454 -0.000014
v -0.237496 -1.376465 0.078679
v -0.190078 -1.248907 0.078488
v -0.238855 -1.376550 -0.078676
v -0.191584 -1.249023 -0.078474
v -0.173882 -1.272725 -0.000013
v -0.208037 -1.383859 -0.000013
v -0.158440 -1.154694 0.077964
v -0.091089 -1.020871 0.076736
v -0.160302 -1.154880 -0.077934
v -0.092818 -1.021269 -0.076761
v -0.055680 -1.015417 -0.000013
v -0.124556 -1.143601 -0.000013
v -0.131055 -0.791360 0.066114
v -0.162308 -0.810006 -0.000013
v 0.030560 -0.807530 -0.000013
v 0.003276 -0.905831 -0.000013
v -0.037497 -0.924869 -0.076834
v -0.036118 -0.924502 0.076804
v 0.000192 -0.809062 0.078338
v -0.000159 -0.809339 -0.078364
v -0.332690 -1.819454 -0.083885
v -0.390374 -1.822247 -0.059320
v -0.414348 -1.823411 -0.000014
v -0.390374 -1.822247 0.059293
v -0.332493 -1.819409 0.083858
v -0.137006 -0.979124 -0.083339
v -0.148674 -1.003123 -0.082583
v -0.228212 -1.176441 -0.083295
v -0.241052 -1.199257 -0.082664
v -0.307960 -1.399836 -0.084359
v -0.315429 -1.422325 -0.083560
v -0.336406 -1.599019 -0.084045
v -0.387896 -1.614171 0.059296
v -0.363899 -1.427429 0.058577
v -0.350262 -1.380343 0.058904
v -0.285239 -1.196335 0.057797
v -0.273899 -1.175053 0.058229
v -0.207635 -1.020930 0.057535
v -0.199777 -0.999109 0.058211
v -0.134235 -0.978523 0.083343
v -0.146044 -1.002588 0.082598
v -0.226356 -1.176215 0.083311
v -0.239412 -1.199066 0.082673
v -0.306765 -1.399737 0.084355
v -0.314345 -1.422230 0.083552
v -0.335720 -1.598910 0.084022
v -0.387896 -1.614171 -0.059323
v -0.363923 -1.427428 -0.058603
v -0.350277 -1.380343 -0.058931
v -0.285275 -1.196335 -0.057824
v -0.273668 -1.174435 -0.058249
v -0.207440 -1.020930 -0.057561
v -0.198082 -0.999119 -0.058253
v -0.220780 -1.003647 -0.000013
v -0.227042 -1.019968 -0.000013
v -0.291386 -1.175155 -0.000013
v -0.301011 -1.194436 -0.000013
v -0.362505 -1.370351 -0.000013
v -0.381615 -1.428520 -0.000013
v -0.409370 -1.620642 -0.000014
v -0.319452 -1.444122 -0.108815
v -0.335683 -1.581287 -0.109042
v -0.401680 -1.582965 0.076677
v -0.383616 -1.451148 0.076155
v -0.318000 -1.443994 0.108819
v -0.334660 -1.581136 0.109025
v -0.401680 -1.582965 -0.076704
v -0.383660 -1.451148 -0.076182
v -0.408558 -1.468045 -0.000013
v -0.425272 -1.587433 -0.000014
v -0.249937 -1.225021 -0.108000
v -0.299478 -1.374837 -0.109307
v -0.353511 -1.348972 0.075985
v -0.305637 -1.216555 0.075156
v -0.247784 -1.224788 0.108035
v -0.297777 -1.374696 0.109325
v -0.353532 -1.348971 -0.076012
v -0.305689 -1.216554 -0.075182
v -0.328866 -1.224054 -0.000013
v -0.360678 -1.324123 -0.000013
v -0.162037 -1.033198 -0.107432
v -0.219231 -1.163613 -0.108114
v -0.276636 -1.150826 0.075050
v -0.233989 -1.049861 0.074638
v -0.158791 -1.032673 0.107546
v -0.216590 -1.163292 0.108169
v -0.277268 -1.152252 -0.075098
v -0.233851 -1.049861 -0.074664
v -0.262902 -1.058979 -0.000013
v -0.301719 -1.149348 -0.000013
v -0.063415 -0.788139 0.093458
v -0.067126 -0.789133 -0.093489
v -0.003955 -0.770706 -0.066033
v -0.003660 -0.770449 0.066007
v 0.021033 -0.769226 -0.000013
v -0.076800 -0.831291 -0.110776
v -0.118504 -0.940133 -0.108320
v -0.072457 -0.830166 0.110751
v -0.114556 -0.939232 0.108313
v -0.191176 -0.855362 -0.000013
v -0.225614 -0.966563 -0.000013
v -0.197738 -0.967106 -0.075909
v -0.198019 -0.967106 0.075883
v -0.153561 -0.833970 0.078284
v -0.153183 -0.833974 -0.078311
v -0.287035 -2.013929 0.100808
v -0.336063 -1.633152 -0.083982
v -0.335933 -1.798182 -0.084216
v -0.335462 -1.633042 0.083957
v -0.335704 -1.798129 0.084189
v -0.259698 -1.610562 -0.000014
v -0.255630 -1.773847 -0.000014
v -0.278685 -1.772226 0.059526
v -0.281529 -1.608315 0.059567
v -0.279175 -1.772340 -0.059554
v -0.282404 -1.608438 -0.059588
v -0.411628 -1.631634 -0.000014
v -0.416518 -1.808328 -0.000014
v -0.392822 -1.805348 0.059526
v -0.389532 -1.632142 0.059192
v -0.392822 -1.805348 -0.059554
v -0.389532 -1.632142 -0.059219
v -0.326214 -1.643916 -0.100445
v -0.336137 -1.776340 -0.100580
v -0.329237 -1.648312 0.100435
v -0.335773 -1.776255 0.100553
v -0.240712 -1.639597 -0.000014
v -0.237369 -1.754888 -0.000014
v -0.264698 -1.752459 0.071097
v -0.270333 -1.630058 0.071278
v -0.265235 -1.752584 -0.071125
v -0.271170 -1.630185 -0.071300
v -0.429700 -1.655632 -0.000014
v -0.431767 -1.786758 -0.000014
v -0.403637 -1.783695 0.071097
v -0.399647 -1.650232 0.070819
v -0.403637 -1.783695 -0.071125
v -0.399647 -1.650232 -0.070846
v -0.358023 -2.020505 0.071278
v -0.387427 -2.023230 -0.000014
v -0.358023 -2.020505 -0.071305
v -0.287035 -2.013929 -0.100835
v -0.216047 -2.007353 0.071278
v -0.186643 -2.004629 -0.000014
v -0.216047 -2.007353 -0.071305
v -0.130648 -0.791363 -0.066140
v -0.040763 0.475298 0.071924
v 0.029560 0.481468 0.101982
v -0.067999 0.465124 -0.000013
v 0.090615 0.493308 -0.072094
v 0.022967 0.479921 -0.102016
v 0.119303 0.495670 -0.000013
v -0.042570 0.474791 -0.071951
v 0.092522 0.493701 0.072066
v 0.042594 -0.478689 0.065845
v 0.077169 -0.196228 0.073903
v 0.082927 -0.161463 0.075114
v 0.077494 0.075375 0.073510
v 0.068914 0.114170 0.073456
v 0.070726 0.308122 0.069203
v 0.070251 0.329003 0.069393
v 0.041639 -0.479020 -0.065873
v 0.075925 -0.196620 -0.073930
v 0.081711 -0.161843 -0.075142
v 0.076110 0.074887 -0.073529
v 0.067301 0.113066 -0.073504
v 0.069187 0.307784 -0.069232
v 0.068557 0.328653 -0.069422
v 0.091679 0.332699 -0.000014
v 0.092019 0.314338 -0.000014
v 0.092428 0.123224 -0.000014
v 0.100176 0.069155 -0.000014
v 0.108010 -0.162948 -0.000014
v 0.102045 -0.189026 -0.000014
v 0.064844 -0.467684 -0.000013
v 0.064056 -0.443770 0.087102
v 0.092428 -0.227514 0.095467
v 0.062655 -0.444245 -0.087124
v 0.090760 -0.228054 -0.095490
v 0.119960 -0.233327 -0.000013
v 0.089974 -0.415584 -0.000013
v 0.095309 -0.125057 0.097918
v 0.096065 0.042047 0.096600
v 0.093493 -0.125723 -0.097923
v 0.094174 0.041351 -0.096606
v 0.121362 0.020243 -0.000014
v 0.126911 -0.126715 -0.000014
v 0.084059 0.144964 0.094611
v 0.080319 0.277103 0.091111
v 0.081950 0.144235 -0.094623
v 0.078033 0.276593 -0.091146
v 0.110105 0.281539 -0.000014
v 0.108987 0.160975 -0.000014
v -0.036304 0.477224 0.071912
v -0.064746 0.459110 -0.000014
v 0.136764 0.468726 -0.000014
v 0.119915 0.381461 -0.000014
v 0.088918 0.365801 -0.089033
v 0.091158 0.366255 0.089001
v 0.104707 0.467920 0.086765
v 0.102404 0.467452 -0.086796
v 0.013545 0.312816 -0.098430
v 0.013480 0.290150 -0.098238
v 0.023678 0.111755 -0.103860
v 0.020850 0.085743 -0.103539
v 0.025799 -0.178211 -0.106140
v 0.022320 -0.215522 -0.104313
v -0.011006 -0.504785 -0.092194
v -0.061709 -0.525499 0.065042
v -0.027795 -0.230736 0.073731
v -0.023344 -0.154883 0.075339
v -0.026130 0.082975 0.073052
v -0.023904 0.107335 0.073307
v -0.035191 0.268011 0.069731
v -0.037895 0.289385 0.069881
v 0.018992 0.314215 0.098391
v 0.018822 0.291540 0.098198
v 0.028647 0.113196 0.103810
v 0.025965 0.087250 0.103488
v 0.030617 -0.176501 0.106134
v 0.027148 -0.213800 0.104310
v -0.006496 -0.503460 0.092167
v -0.061807 -0.525634 -0.065073
v -0.028597 -0.230961 -0.073762
v -0.024293 -0.155166 -0.075369
v -0.027193 0.082634 -0.073081
v -0.025282 0.107590 -0.073318
v -0.037040 0.267439 -0.069760
v -0.038297 0.288963 -0.069916
v -0.060177 0.281828 -0.000014
v -0.058733 0.265611 -0.000014
v -0.045705 0.102518 -0.000014
v -0.046890 0.080346 -0.000014
v -0.044471 -0.143629 -0.000014
v -0.051479 -0.235214 -0.000014
v -0.085768 -0.531674 -0.000013
v 0.021411 -0.252551 -0.134601
v -0.006358 -0.478331 -0.121694
v -0.069000 -0.481263 0.086764
v -0.046243 -0.272810 0.095066
v 0.027479 -0.250390 0.134616
v -0.000418 -0.476572 0.121679
v -0.069091 -0.481406 -0.086797
v -0.046538 -0.272993 -0.095099
v -0.075231 -0.301339 -0.000013
v -0.096156 -0.486298 -0.000013
v 0.023071 0.055646 -0.135753
v 0.027812 -0.139105 -0.138530
v -0.036845 -0.110672 0.098044
v -0.039067 0.057115 0.095657
v 0.029578 0.057570 0.135683
v 0.034000 -0.136937 0.138530
v -0.037781 -0.110964 -0.098074
v -0.040027 0.056800 -0.095685
v -0.064444 0.042623 -0.000014
v -0.058429 -0.080411 -0.000014
v 0.016066 0.260255 -0.129190
v 0.027006 0.125607 -0.134347
v -0.038520 0.131578 0.094404
v -0.046812 0.237113 0.091660
v 0.023087 0.262118 0.129137
v 0.033298 0.127413 0.134282
v -0.039749 0.129598 -0.094485
v -0.048399 0.236604 -0.091688
v -0.075011 0.223503 -0.000014
v -0.069538 0.127405 -0.000014
v 0.034071 0.483307 0.101956
v 0.027845 0.481868 -0.101990
v 0.095550 0.500458 -0.071973
v 0.097533 0.500842 0.071945
v 0.124906 0.501639 -0.000014
v 0.023300 0.445257 -0.123090
v 0.016017 0.348483 -0.126141
v 0.030937 0.447088 0.123051
v 0.023659 0.350381 0.126096
v -0.084285 0.418085 -0.000014
v -0.080640 0.316049 -0.000014
v -0.052247 0.318524 -0.089682
v -0.050302 0.319129 0.089655
v -0.051440 0.439556 0.086710
v -0.053495 0.438950 -0.086737
v -0.019811 -0.553797 -0.089305
v -0.061010 -0.754921 -0.080070
v -0.015780 -0.552615 0.089269
v -0.057870 -0.754063 0.080032
v 0.058762 -0.512166 -0.000013
v 0.014484 -0.729703 -0.000013
v -0.004741 -0.727627 0.056676
v 0.038513 -0.512656 0.064332
v -0.005164 -0.727906 -0.056703
v 0.037619 -0.512968 -0.064360
v -0.090280 -0.546888 -0.000013
v -0.132951 -0.762554 -0.000013
v -0.110008 -0.761139 0.056606
v -0.067509 -0.550037 0.063968
v -0.109593 -0.761141 -0.056633
v -0.067463 -0.550142 -0.063999
v -0.013855 -0.568656 -0.105624
v -0.055227 -0.730837 -0.096492
v -0.013964 -0.573546 0.105265
v -0.051781 -0.729818 0.096457
v 0.066317 -0.554837 -0.000013
v 0.033958 -0.708883 -0.000013
v 0.012089 -0.705700 0.068260
v 0.042535 -0.544548 0.075339
v 0.011619 -0.705977 -0.068287
v 0.041427 -0.544932 -0.075364
v -0.112287 -0.579327 -0.000013
v -0.140658 -0.738087 -0.000013
v -0.113700 -0.737213 0.068178
v -0.080933 -0.574556 0.075383
v -0.113256 -0.737214 -0.068205
v -0.080808 -0.574695 -0.075401
v -0.038379 0.476646 -0.071939
v -0.015220 0.918867 0.081472
v -0.024044 0.917244 -0.081499
v -0.080967 0.917100 -0.057632
v 0.042315 0.923813 0.057605
v -0.078372 0.917567 0.057605
v -0.102173 0.914170 -0.000013
v 0.039651 0.923508 -0.057632
v 0.065245 0.925011 -0.000013
v -0.136909 2.345499 -0.000014
v -0.165647 2.359181 -0.076323
v -0.313076 2.442681 -0.000014
v -0.287985 2.429482 0.076296
v -0.162803 2.357567 0.076296
v -0.290749 2.430847 -0.076323
v -0.232940 2.395723 -0.107932
v -0.224096 2.390880 0.107905
v -0.139212 -2.130955 0.088133
v -0.156932 -2.190713 0.062315
v -0.164272 -2.215465 -0.000014
v -0.156932 -2.190713 -0.062343
v -0.139212 -2.130955 -0.088160
v -0.121491 -2.071198 0.062315
v -0.114152 -2.046446 -0.000014
v -0.121491 -2.071198 -0.062343
v 0.020929 -2.087841 0.075649
v 0.046223 -2.134986 0.053488
v 0.056700 -2.154515 -0.000014
v 0.046223 -2.134986 -0.053515
v 0.020929 -2.087841 -0.075677
v -0.004364 -2.040694 0.053488
v -0.014841 -2.021167 -0.000014
v -0.004364 -2.040694 -0.053515
v 0.122693 -1.967371 0.052543
v 0.148497 -1.996621 0.036387
v 0.159184 -2.008735 -0.002617
v 0.148497 -1.996621 -0.041620
v 0.122693 -1.967371 -0.057776
v 0.096891 -1.938121 0.036387
v 0.086203 -1.926007 -0.002617
v 0.096891 -1.938121 -0.041620
v -0.087057 2.806147 0.107905
v -0.147266 2.868144 0.076296
v -0.173101 2.893203 -0.000013
v -0.094898 2.814227 -0.107932
v -0.039719 2.754383 -0.076323
v -0.015109 2.728467 -0.000013
v -0.149811 2.870403 -0.076323
v -0.037583 2.751855 0.076296
v 0.233113 3.264876 0.107905
v 0.189523 3.338808 0.076297
v 0.173257 3.366398 -0.000013
v 0.227334 3.274678 -0.107932
v 0.270477 3.201504 -0.076323
v 0.288133 3.171557 -0.000013
v 0.187790 3.341748 -0.076323
v 0.272148 3.198669 0.076297
v -0.139746 1.956593 -0.102696
v -0.130423 1.956867 0.102669
v -0.067168 1.955966 0.072594
v -0.202963 1.957179 -0.072621
v -0.069849 1.956074 -0.072621
v -0.041562 1.955554 -0.000014
v -0.200117 1.957446 0.072594
v -0.225525 1.956470 -0.000014
v 1.380314 2.539642 -0.023516
v 1.391612 2.629533 0.020997
v 1.380450 2.539696 0.021139
v 1.375757 2.502446 -0.001130
v 1.391477 2.629480 -0.023658
v 1.424610 2.896135 -0.024078
v 1.416157 2.827062 0.020686
v 1.402026 2.714379 -0.023791
v 1.424746 2.896188 0.020577
v 1.429303 2.933385 -0.001809
v 1.402162 2.714432 0.020864
v 1.416021 2.827008 -0.023969
v 1.822488 2.673340 -0.025023
v 1.790697 2.586076 0.019833
v 1.847176 2.736079 -0.002886
v 1.842219 2.726985 0.019508
v 1.790562 2.586023 -0.024822
v 1.822624 2.673394 0.019632
v 1.842084 2.726932 -0.025147
v 1.766496 2.520204 -0.024670
v 1.753441 2.476989 -0.002115
v 1.764061 2.505873 0.020146
v 1.766631 2.520257 0.019985
v 1.763925 2.505820 -0.024509
v 2.133108 2.536317 -0.025806
v 2.217576 2.461709 0.018682
v 2.061296 2.633923 -0.003376
v 2.036647 2.611707 0.019054
v 2.217440 2.461656 -0.025973
v 2.133244 2.536370 0.018849
v 2.036511 2.611654 -0.025601
v 2.306534 2.368829 -0.026134
v 2.405983 2.212026 -0.003921
v 2.395319 2.241367 0.018404
v 2.306670 2.368882 0.018521
v 2.395183 2.241313 -0.026251
v 2.439353 2.249446 -0.004068
v 2.345186 2.377443 -0.003934
v 2.465296 2.193229 -0.004080
v 2.257434 2.477052 -0.003786
v 2.172058 2.551972 -0.003615
v 0.971820 2.559125 -0.022296
v 0.955295 2.658683 0.022291
v 0.971956 2.559179 0.022359
v 0.978791 2.517924 0.000060
v 0.955159 2.658629 -0.022364
v 0.905707 2.953974 -0.022566
v 0.918663 2.877464 0.022141
v 0.939415 2.752662 -0.022428
v 0.905843 2.954028 0.022089
v 0.898871 2.995229 -0.000267
v 0.939551 2.752716 0.022227
v 0.918527 2.877410 -0.022514
v 0.565620 2.536345 -0.021031
v 0.545176 2.649930 0.023551
v 0.567573 2.536182 0.023618
v 0.577413 2.491524 0.001327
v 0.545040 2.649876 -0.021104
v 0.483954 2.986858 -0.021321
v 0.499926 2.899553 0.023390
v 0.525591 2.757166 -0.021173
v 0.484090 2.986911 0.023334
v 0.475495 3.033925 0.000976
v 0.525727 2.757219 0.023482
v 0.499790 2.899500 -0.021265
v 0.095550 2.463984 -0.029606
v -0.045113 2.586502 0.035518
v 0.095747 2.464062 0.035235
v 0.154012 2.413292 0.002697
v -0.045310 2.586424 -0.029324
v -0.505172 2.981868 -0.028396
v -0.408769 2.898321 0.036253
v -0.275202 2.781971 -0.028857
v -0.504975 2.981946 0.036446
v -0.563437 3.032638 0.004142
v -0.275005 2.782048 0.035985
v -0.408967 2.898243 -0.028589
v -0.181778 2.898557 -0.026758
v 0.272601 2.899186 -0.023096
v 0.247361 2.816428 -0.023094
v 0.125194 2.769568 -0.025015
v -0.048993 2.814265 -0.026936
v 0.102459 2.602359 0.032526
v 0.250031 2.618216 0.029535
v 0.397603 2.634073 0.026543
v 0.247513 2.816488 0.026608
v 0.125361 2.769634 0.029733
v -0.048811 2.814337 0.032859
v -0.303704 3.032960 0.003351
v 0.215762 3.033603 0.001768
v 0.236672 2.985610 -0.023089
v -0.257891 2.983116 -0.026627
v 0.102277 2.602287 -0.027269
v 0.249865 2.618150 -0.025214
v 0.397452 2.634013 -0.023159
v 0.420690 2.519992 -0.023175
v 0.330585 2.500165 -0.025319
v 0.213067 2.482075 -0.027462
v 0.272752 2.899245 0.026606
v -0.181595 2.898629 0.033037
v 0.213249 2.482146 0.032333
v 0.330751 2.500230 0.029430
v 0.419567 2.521606 0.026565
v 0.236824 2.985670 0.026612
v -0.257708 2.983187 0.033168
v 0.259062 2.432302 0.002355
v 0.364113 2.451312 0.002012
v 0.441953 2.465497 0.001669
v 1.455616 2.696773 0.020722
v 1.443207 2.614499 0.020858
v 1.471942 2.805867 -0.024114
v 1.482045 2.872856 -0.024225
v 1.472078 2.805920 0.020541
v 1.437313 2.577379 0.021002
v 1.443071 2.614446 -0.023797
v 1.455480 2.696720 -0.023933
v 1.466238 2.897902 -0.001957
v 1.482181 2.872910 0.020430
v 1.431805 2.541280 -0.001266
v 1.437177 2.577325 -0.023653
v 1.481653 2.688171 0.020653
v 1.510022 2.861517 -0.024296
v 1.499317 2.795622 0.020471
v 1.481518 2.688118 -0.024002
v 1.510158 2.861570 0.020359
v 1.454114 2.521416 -0.023719
v 1.468339 2.607176 0.020790
v 1.499181 2.795569 -0.024184
v 1.454250 2.521469 0.020936
v 1.468203 2.607123 -0.023865
v 1.515928 2.897055 -0.002029
v 1.448344 2.485931 -0.001332
v 1.809948 2.580467 0.019782
v 1.836632 2.667215 0.019597
v 1.790849 2.513377 -0.024736
v 1.770529 2.441120 -0.024587
v 1.862109 2.750319 -0.002908
v 1.850852 2.721733 -0.025167
v 1.790985 2.513431 0.019919
v 1.836496 2.667161 -0.025058
v 1.809812 2.580414 -0.024873
v 1.761005 2.412268 -0.002196
v 1.850987 2.721787 0.019488
v 1.770665 2.441173 0.020068
v 1.756754 2.597290 0.019923
v 1.805611 2.741714 -0.025053
v 1.787113 2.686819 0.019724
v 1.756618 2.597236 -0.024732
v 1.805748 2.741767 0.019602
v 1.709516 2.458339 -0.024422
v 1.733869 2.529804 0.020074
v 1.786978 2.686765 -0.024931
v 1.709652 2.458392 0.020233
v 1.733733 2.529751 -0.024581
v 1.815713 2.771329 -0.002792
v 1.699550 2.428777 -0.002029
v 0.197192 2.779356 -0.024055
v 0.323817 2.626144 0.028039
v 0.197351 2.779418 0.028170
v 0.323658 2.626082 -0.024186
v 0.363359 2.540091 -0.024247
v 0.362881 2.540931 0.027998
v 0.373020 2.518431 0.001841
v 0.361159 2.890875 0.057473
v 0.227881 2.906510 0.056203
v 0.248905 2.671609 0.065812
v 0.121833 2.722335 0.065094
v 0.363274 2.895521 0.033762
v 0.230343 2.912117 0.032587
v 0.250609 2.673903 0.041953
v 0.123321 2.724260 0.041217
v 0.405859 3.030668 0.059713
v 0.273305 3.022638 0.060690
v 0.406606 3.021584 0.036534
v 0.274159 3.014432 0.037408
v 0.406393 3.065689 0.024199
v 0.274198 3.062679 0.032409
v 0.409243 3.032333 0.017571
v 0.277145 3.029514 0.025178
v 0.166378 2.418181 0.057627
v 0.034062 2.452986 0.058651
v 0.171474 2.437461 0.037228
v 0.039003 2.471933 0.038114
v 0.218222 2.317169 -0.024704
v 0.097524 2.381592 -0.025898
v 0.236433 2.350515 -0.022445
v 0.115701 2.414999 -0.023904
v 0.307309 2.418833 -0.075648
v 0.186902 2.480510 -0.088489
v 0.315867 2.443783 -0.058356
v 0.195583 2.505742 -0.071383
v 0.386653 2.542298 -0.050266
v 0.288377 2.637336 -0.053773
v 0.401393 2.558775 -0.030763
v 0.303319 2.654098 -0.034426
v 0.495677 2.787185 -0.044817
v 0.378278 2.838331 -0.048324
v 0.502032 2.784416 -0.025315
v 0.384699 2.835534 -0.028977
v 0.562426 3.005895 -0.048521
v 0.434666 3.015137 -0.051451
v 0.569598 3.005882 -0.029052
v 0.441908 3.015115 -0.032138
v 0.565701 3.039369 -0.037125
v 0.437783 3.045856 -0.040203
v 0.572145 3.022778 -0.020549
v 0.444300 3.029394 -0.023760
v 0.361159 2.890875 -0.053300
v 0.227881 2.906510 -0.052030
v 0.263592 2.673504 -0.051099
v 0.136520 2.724230 -0.050381
v 0.363274 2.895521 -0.029590
v 0.230343 2.912117 -0.028414
v 0.287266 2.672730 -0.030893
v 0.138008 2.726154 -0.026504
v 0.405859 3.030668 -0.055540
v 0.273305 3.022638 -0.056517
v 0.406606 3.021584 -0.032361
v 0.274159 3.014432 -0.033235
v 0.406393 3.065689 -0.020026
v 0.274198 3.062679 -0.028236
v 0.409243 3.032333 -0.013398
v 0.277145 3.029514 -0.021005
v 0.410274 3.072289 0.002086
v 0.277912 3.066727 0.002086
v 0.413186 3.042997 0.002086
v 0.281043 3.037165 0.002086
v 0.237358 2.459198 -0.051735
v 0.101969 2.476889 -0.057305
v 0.262505 2.478415 -0.033916
v 0.102499 2.495086 -0.036276
v 0.294166 2.362809 0.010907
v 0.166238 2.411205 0.008548
v 0.312954 2.407106 0.003640
v 0.184962 2.455542 0.001545
v 0.335804 2.424321 0.054164
v 0.231869 2.478822 0.067004
v 0.349472 2.447045 0.036872
v 0.240551 2.504054 0.049898
v 0.386653 2.542298 0.054439
v 0.288377 2.637336 0.057945
v 0.401393 2.558775 0.034936
v 0.303319 2.654098 0.038599
v 0.495677 2.787185 0.048990
v 0.378278 2.838331 0.052497
v 0.502032 2.784416 0.029487
v 0.384699 2.835534 0.033150
v 0.562426 3.005895 0.052694
v 0.434666 3.015137 0.055624
v 0.569598 3.005882 0.033225
v 0.441908 3.015115 0.036311
v 0.565701 3.039369 0.041298
v 0.437783 3.045856 0.044376
v 0.572145 3.022778 0.024722
v 0.444300 3.029394 0.027933
v 0.560825 3.053016 0.002086
v 0.433951 3.068401 0.002086
v 0.565453 3.021505 0.002086
v 0.438668 3.037132 0.002086
vn -0.0030 -0.0012 -1.0000
vn 0.0030 0.0012 1.0000
vn -0.0021 -0.0020 -1.0000
vn 0.0021 0.0020 1.0000
vn 0.0074 0.0121 -0.9999
vn 0.0148 0.0119 0.9998
vn 0.0138 0.0162 -0.9998
vn 0.0129 0.0149 0.9998
vn 0.0198 0.0186 0.9996
vn 0.0076 0.0097 -0.9999
vn 0.0136 0.0121 0.9998
vn 0.0093 0.0106 -0.9999
vn -0.6532 -0.7572 0.0029
vn 0.0099 0.0058 -0.9999
vn 0.0123 0.0112 -0.9999
vn 0.0134 0.0116 -0.9998
vn 0.0137 0.0044 0.9999
vn 0.0076 0.0020 -1.0000
vn 0.0220 0.0123 0.9997
vn 0.0203 0.0151 0.9997
vn 0.0126 0.0004 0.9999
vn 0.0153 0.0098 -0.9998
vn 0.0142 0.0127 -0.9998
vn 0.0153 0.0090 0.9998
vn 0.0192 0.0147 0.9997
vn 0.0203 0.0139 0.9997
vn 0.0074 -0.0004 -1.0000
vn 0.7432 0.6690 -0.0031
vn 0.5359 0.8443 -0.0026
vn 0.2486 0.9686 -0.0019
vn -0.5943 0.8042 0.0008
vn -0.9565 0.2917 0.0026
vn -0.9234 -0.3839 0.0033
vn 0.0197 0.0043 0.9998
vn 0.0141 0.0025 -0.9999
vn 0.0054 0.0015 1.0000
vn -0.0054 -0.0015 -1.0000
vn 0.0080 0.0014 1.0000
vn -0.0080 -0.0014 -1.0000
vn 0.0004 0.0036 1.0000
vn -0.0004 -0.0036 -1.0000
vn -0.1347 0.9909 -0.0008
vn 0.0192 0.0152 0.9997
vn 0.0165 0.0056 -0.9998
vn 0.0230 0.0070 0.9997
vn 0.0122 0.0106 -0.9999
vn 0.7969 0.5399 -0.2711
vn 0.2962 -0.7320 0.6136
vn 0.9682 0.1317 0.2129
vn 0.2512 0.4868 0.8366
vn 0.6076 -0.7321 -0.3080
vn 0.4169 -0.7555 0.5054
vn 0.9004 0.0318 -0.4338
vn 0.8024 0.5380 0.2583
vn 0.6105 -0.7334 0.2989
vn 0.7798 -0.5966 -0.1898
vn 0.5446 0.4837 -0.6852
vn 0.2981 -0.8186 0.4909
vn 0.7823 -0.5961 0.1807
vn 0.9085 0.0316 0.4168
vn 0.4296 -0.0518 -0.9015
vn 0.4304 -0.0530 0.9011
vn 0.9399 -0.1396 -0.3116
vn 0.9436 -0.1410 0.2995
vn 0.2578 0.7175 0.6471
vn 0.4182 -0.7539 -0.5068
vn 0.2580 0.7161 -0.6485
vn 0.4219 -0.1424 -0.8954
vn 0.4244 -0.1442 0.8939
vn 0.8917 -0.3040 -0.3354
vn 0.8962 -0.3060 0.3211
vn 0.9632 0.1359 -0.2319
vn 0.5483 0.4856 0.6809
vn 0.2966 -0.7301 -0.6156
vn 0.4466 -0.2048 -0.8710
vn 0.4538 -0.2087 0.8663
vn 0.8332 -0.4324 -0.3447
vn 0.8385 -0.4344 0.3290
vn 0.2977 -0.8131 -0.5002
vn 0.2451 0.4851 -0.8394
vn 0.6445 -0.7373 0.2023
vn 0.6429 -0.7350 -0.2154
vn -0.3681 0.4269 -0.8260
vn 0.3948 -0.6368 0.6623
vn 0.6896 -0.6912 -0.2161
vn 0.6921 -0.6915 0.2068
vn 0.4027 -0.1579 -0.9016
vn 0.4168 -0.1614 0.8946
vn 0.8876 -0.2709 -0.3725
vn 0.8913 -0.2678 0.3659
vn 0.3891 -0.6334 -0.6690
vn -0.8197 0.5140 -0.2529
vn -0.7719 0.6147 -0.1619
vn -0.5973 -0.4394 0.6710
vn -0.6781 0.7153 0.1688
vn -0.4260 0.6950 0.5792
vn -0.9904 -0.0469 -0.1301
vn -0.2402 -0.6701 0.7023
vn -0.6931 0.6888 -0.2126
vn -0.7719 0.6146 0.1623
vn -0.9904 -0.0469 0.1304
vn -0.8281 -0.4658 -0.3119
vn -0.2696 0.7419 -0.6140
vn -0.4274 -0.6379 0.6407
vn -0.8281 -0.4658 0.3119
vn -0.6938 0.6885 0.2111
vn -0.4489 0.0596 -0.8916
vn -0.4426 0.0596 0.8947
vn -0.9500 0.1319 -0.2829
vn -0.9499 0.1321 0.2831
vn -0.3666 0.7308 0.5758
vn -0.2438 -0.6712 -0.7000
vn -0.3709 0.7317 -0.5718
vn -0.4692 0.1685 -0.8668
vn -0.4592 0.1657 0.8727
vn -0.9223 0.3168 -0.2214
vn -0.9222 0.3169 0.2218
vn -0.6781 0.7154 -0.1683
vn -0.2656 0.7405 0.6174
vn -0.6090 -0.4370 -0.6619
vn -0.4494 0.1984 -0.8710
vn -0.4359 0.1930 0.8791
vn -0.8777 0.3751 -0.2981
vn -0.8782 0.3745 0.2976
vn -0.4295 -0.6633 -0.6128
vn -0.4358 0.6979 -0.5684
vn -0.9000 -0.3306 0.2840
vn -0.8926 -0.3562 -0.2765
vn 0.2974 0.3095 -0.9032
vn -0.1843 -0.4631 0.8669
vn 0.9096 0.2145 -0.3559
vn -0.9236 -0.1501 -0.3527
vn -0.9311 -0.1287 0.3412
vn -0.3552 0.4227 0.8338
vn -0.4020 0.1251 -0.9071
vn -0.3840 0.1189 0.9156
vn -0.8946 0.2858 -0.3435
vn -0.8958 0.2859 0.3402
vn -0.1977 -0.4656 -0.8627
vn -0.8209 0.5139 0.2490
vn -0.7592 0.5864 -0.2824
vn 0.6909 -0.6617 -0.2912
vn -0.7669 -0.5507 -0.3297
vn 0.8004 0.5371 0.2663
vn -0.7592 0.5864 0.2824
vn 0.6921 -0.6622 0.2874
vn 0.1083 0.6902 -0.7155
vn -0.7669 -0.5507 0.3297
vn -0.9255 0.0216 0.3781
vn -0.9255 0.0216 -0.3781
vn -0.3938 0.0173 0.9190
vn -0.3882 0.0217 -0.9213
vn 0.9289 0.0348 0.3686
vn 0.9258 0.0359 -0.3763
vn 0.4115 -0.0017 0.9114
vn 0.4235 -0.0068 -0.9059
vn 0.7966 0.5377 -0.2762
vn -0.2704 -0.5670 0.7781
vn 0.4975 -0.5918 0.6342
vn -0.3143 0.6328 0.7076
vn 0.1192 0.6365 0.7620
vn -0.2717 -0.5679 -0.7770
vn 0.4985 -0.5907 -0.6345
vn -0.3181 0.6628 -0.6779
vn 0.9112 0.2149 0.3516
vn 0.3150 0.3093 0.8972
vn 0.2383 0.6697 0.7034
vn 0.8682 0.4669 0.1679
vn 0.5311 -0.5674 0.6292
vn 0.8483 0.4474 -0.2832
vn 0.8423 -0.4504 -0.2961
vn 0.5873 -0.6537 0.4772
vn 0.8304 0.4581 -0.3172
vn 0.8520 0.4502 0.2673
vn 0.8447 -0.4532 0.2849
vn 0.8565 -0.4926 -0.1541
vn 0.4569 0.6620 -0.5942
vn 0.4988 -0.7389 0.4530
vn 0.8575 -0.4941 0.1434
vn 0.8347 0.4639 0.2967
vn 0.5016 -0.1047 -0.8587
vn 0.5266 -0.1076 0.8432
vn 0.9503 -0.1443 -0.2757
vn 0.9542 -0.1452 0.2615
vn 0.2321 0.6237 0.7464
vn 0.5706 -0.6525 -0.4987
vn 0.2107 0.6171 -0.7582
vn 0.5037 0.0154 -0.8637
vn 0.5294 0.0151 0.8482
vn 0.9551 0.0160 -0.2958
vn 0.9602 0.0158 0.2789
vn 0.8655 0.4645 -0.1875
vn 0.4856 0.6669 0.5652
vn 0.5168 -0.5659 -0.6424
vn 0.5410 0.0572 -0.8391
vn 0.5718 0.0564 0.8184
vn 0.9523 0.0147 -0.3048
vn 0.9587 0.0139 0.2839
vn 0.4850 -0.7357 -0.4728
vn 0.2178 0.6617 -0.7175
vn 0.8698 -0.4586 0.1823
vn 0.8690 -0.4539 -0.1970
vn -0.4006 0.4823 -0.7790
vn 0.5045 -0.5850 0.6351
vn 0.8272 -0.5178 -0.2182
vn 0.8301 -0.5201 0.2009
vn 0.4394 -0.0221 -0.8980
vn 0.4660 -0.0254 0.8844
vn 0.9318 -0.1457 -0.3324
vn 0.9388 -0.1474 0.3114
vn 0.4879 -0.5781 -0.6541
vn -0.8788 0.4270 -0.2132
vn -0.9002 0.3866 -0.2004
vn -0.5661 -0.4996 0.6556
vn -0.8585 0.4779 0.1862
vn -0.5472 0.5884 0.5952
vn -0.9485 -0.2754 -0.1565
vn -0.2684 -0.5661 0.7795
vn -0.8859 0.4041 -0.2277
vn -0.8978 0.3904 0.2038
vn -0.9463 -0.2771 0.1667
vn -0.9100 -0.2581 -0.3244
vn -0.4020 0.6787 -0.6146
vn -0.2919 -0.7929 0.5349
vn -0.9094 -0.2584 0.3258
vn -0.8801 0.4089 0.2415
vn -0.4968 0.0152 -0.8678
vn -0.4653 0.0110 0.8851
vn -0.9563 0.0999 -0.2749
vn -0.9557 0.1003 0.2766
vn -0.5232 0.5486 0.6521
vn -0.2996 -0.5672 -0.7672
vn -0.5415 0.5463 -0.6390
vn -0.5301 0.0019 -0.8479
vn -0.4994 0.0034 0.8663
vn -0.9742 -0.0258 -0.2244
vn -0.9720 -0.0256 0.2335
vn -0.8614 0.4754 -0.1788
vn -0.3896 0.6792 0.6220
vn -0.6037 -0.4959 -0.6242
vn -0.5064 -0.0127 -0.8622
vn -0.4782 -0.0080 0.8782
vn -0.9537 -0.0623 -0.2941
vn -0.9495 -0.0606 0.3079
vn -0.3022 -0.8123 -0.4988
vn -0.5680 0.5856 -0.5783
vn -0.7043 -0.6616 0.2572
vn -0.6969 -0.6765 -0.2379
vn 0.2610 0.4495 -0.8543
vn -0.1421 -0.5895 0.7952
vn 0.8748 0.3284 -0.3562
vn -0.8040 -0.5220 -0.2847
vn -0.8075 -0.5078 0.3001
vn -0.3855 0.4786 0.7889
vn -0.4557 0.0372 -0.8893
vn -0.4293 0.0370 0.9024
vn -0.9473 -0.0166 -0.3200
vn -0.9406 -0.0157 0.3391
vn -0.1564 -0.5991 -0.7853
vn -0.8737 0.4283 0.2306
vn -0.7828 0.5455 -0.2996
vn 0.7004 -0.6646 -0.2603
vn -0.8833 -0.2947 -0.3646
vn 0.9405 0.1878 0.2833
vn -0.7828 0.5466 0.2976
vn 0.7007 -0.6651 0.2584
vn 0.1177 0.5187 -0.8468
vn -0.8855 -0.2945 0.3594
vn -0.9159 0.1660 0.3654
vn -0.9148 0.1649 -0.3688
vn -0.4134 0.0458 0.9094
vn -0.4276 0.0518 -0.9025
vn 0.9299 -0.1923 0.3136
vn 0.9275 -0.1902 -0.3219
vn 0.4819 -0.1469 0.8638
vn 0.4743 -0.1480 -0.8678
vn 0.9367 0.1863 -0.2965
vn -0.3159 -0.4650 0.8270
vn 0.5249 -0.6165 0.5868
vn -0.3467 0.5477 0.7614
vn 0.1448 0.4630 0.8744
vn -0.3424 -0.4619 -0.8182
vn 0.5121 -0.6157 -0.5989
vn -0.3648 0.5805 -0.7280
vn 0.8828 0.3304 0.3339
vn 0.2809 0.4553 0.8449
vn 0.0029 0.0411 0.9991
vn -0.0028 -0.0395 -0.9992
vn 0.8908 -0.4543 0.0052
vn -0.8676 0.4972 0.0067
vn 0.0023 0.0324 -0.9995
vn -0.0018 -0.0256 0.9997
vn -0.9210 0.3799 -0.0862
vn 0.9452 -0.3146 0.0875
vn -0.9939 -0.0105 -0.1095
vn 0.0086 -0.7709 -0.6369
vn 0.9963 0.0275 0.0811
vn -0.0006 0.6476 0.7620
vn 0.9706 0.0648 0.2317
vn -0.0257 0.9804 0.1954
vn -0.9845 -0.0773 -0.1572
vn 0.0174 -0.9046 -0.4259
vn 0.0042 0.0146 -0.9999
vn -0.0073 -0.0256 0.9996
vn -0.9497 0.3131 0.0097
vn 0.9497 -0.3132 -0.0068
vn 0.3028 0.7714 -0.5597
vn 0.7165 -0.0784 0.6931
vn -0.2982 -0.7593 0.5784
vn -0.6973 0.0547 -0.7147
vn 0.7737 -0.4900 0.4016
vn -0.1479 -0.3842 -0.9113
vn -0.7888 0.4845 -0.3782
vn 0.1146 0.3260 0.9384
vn -0.7975 0.5831 -0.1549
vn -0.1621 -0.1211 0.9793
vn 0.7963 -0.5849 0.1543
vn 0.1534 0.1116 -0.9818
vn 0.8636 -0.3771 -0.3346
vn 0.0377 0.0076 -0.9993
vn -0.8619 0.3763 0.3400
vn -0.0400 -0.0089 0.9992
vn 0.9004 -0.2804 -0.3326
vn 0.0204 -0.0236 -0.9995
vn -0.8951 0.2913 0.3376
vn -0.0216 0.0239 0.9995
vn -0.9381 -0.0355 0.3446
vn -0.0508 -0.4693 0.8816
vn 0.9392 0.0267 -0.3425
vn 0.0424 0.3286 -0.9435
vn 0.9563 0.2636 0.1261
vn 0.0833 0.9140 -0.3970
vn -0.9707 -0.2384 -0.0289
vn -0.0879 -0.9901 0.1097
vn -0.0090 -0.0054 -0.9999
vn 0.0182 -0.0060 0.9998
vn 0.8272 -0.3271 -0.4569
vn -0.8948 0.4464 0.0036
vn 0.0023 0.0324 0.9995
vn -0.0018 -0.0256 -0.9997
vn -0.9210 0.3799 0.0862
vn 0.9452 -0.3146 -0.0875
vn -0.9939 -0.0105 0.1095
vn 0.0086 -0.7709 0.6369
vn 0.9963 0.0275 -0.0811
vn -0.0006 0.6476 -0.7620
vn 0.9706 0.0648 -0.2317
vn -0.0257 0.9804 -0.1954
vn -0.9845 -0.0773 0.1572
vn 0.0174 -0.9046 0.4259
vn -0.0002 -0.0300 0.9995
vn 0.0220 0.0135 -0.9997
vn -0.9891 0.1456 -0.0208
vn 0.6296 -0.0716 -0.7736
vn 0.1391 0.6654 0.7334
vn 0.4879 -0.1962 -0.8506
vn -0.1491 -0.6803 -0.7176
vn -0.5792 -0.0045 0.8152
vn 0.8454 -0.4885 -0.2159
vn -0.1871 -0.5072 0.8413
vn -0.7930 0.4534 0.4070
vn 0.2032 0.5411 -0.8160
vn -0.9180 0.3416 -0.2014
vn -0.0887 -0.0115 -0.9960
vn 0.8815 -0.3925 0.2624
vn 0.0808 0.0003 0.9967
vn 0.8636 -0.3771 0.3346
vn 0.0377 0.0076 0.9993
vn -0.8619 0.3763 -0.3400
vn -0.0400 -0.0089 -0.9992
vn 0.9004 -0.2804 0.3326
vn 0.0204 -0.0236 0.9995
vn -0.8951 0.2913 -0.3376
vn -0.0216 0.0239 -0.9995
vn -0.9381 -0.0355 -0.3446
vn -0.0508 -0.4693 -0.8816
vn 0.9392 0.0267 0.3425
vn 0.0424 0.3286 0.9435
vn 0.9563 0.2636 -0.1261
vn 0.0833 0.9140 0.3970
vn -0.9707 -0.2384 0.0289
vn -0.0879 -0.9901 -0.1097
vn 0.4153 0.0192 -0.9095
vn 0.4242 -0.1974 -0.8838
vn 0.4375 -0.1651 -0.8839
vn 0.3897 -0.2057 -0.8977
vn 0.4139 0.0180 0.9102
vn 0.4237 -0.1980 0.8839
vn 0.4367 -0.1692 0.8836
vn 0.3971 -0.2100 0.8934
vn 0.9295 0.1032 -0.3540
vn 0.8287 -0.4301 -0.3583
vn 0.8918 -0.2492 -0.3775
vn 0.8542 -0.3861 -0.3482
vn 0.9343 0.1025 0.3413
vn 0.8338 -0.4316 0.3442
vn 0.8991 -0.2558 0.3553
vn 0.8592 -0.3890 0.3323
vn -0.4273 0.0077 -0.9041
vn -0.4657 0.1272 -0.8757
vn -0.4630 0.2329 -0.8552
vn -0.4247 0.1668 -0.8899
vn -0.4232 0.0082 0.9060
vn -0.4578 0.1253 0.8802
vn -0.4518 0.2288 0.8623
vn -0.4012 0.1439 0.9046
vn -0.9333 0.1243 -0.3369
vn -0.9231 0.2865 -0.2567
vn -0.8610 0.4413 -0.2527
vn -0.8814 0.3554 -0.3111
vn -0.9333 0.1243 0.3369
vn -0.9230 0.2864 0.2570
vn -0.8605 0.4420 0.2534
vn -0.8956 0.3262 0.3025
vn -0.9179 -0.1353 0.3729
vn -0.9179 -0.1353 -0.3729
vn -0.3873 -0.0710 0.9192
vn -0.3885 -0.0715 -0.9187
vn 0.9277 0.0851 0.3635
vn 0.9253 0.0865 -0.3692
vn 0.3876 0.0331 0.9213
vn 0.3885 0.0343 -0.9208
vn 0.8814 0.2984 0.3662
vn -0.9171 -0.1252 0.3786
vn 0.3721 0.1699 -0.9125
vn 0.8803 0.2990 -0.3683
vn -0.9171 -0.1252 -0.3786
vn 0.3718 0.1693 0.9128
vn -0.3865 -0.0086 0.9222
vn -0.3870 -0.0089 -0.9220
vn 0.2966 0.2531 -0.9209
vn 0.9323 0.1263 -0.3388
vn -0.3962 0.4515 -0.7995
vn -0.7934 0.5475 -0.2662
vn 0.3132 0.2527 0.9154
vn 0.9345 0.1244 0.3336
vn -0.3815 0.4465 0.8094
vn 0.4645 -0.0017 -0.8856
vn 0.5237 0.0449 -0.8507
vn 0.5111 -0.1017 -0.8535
vn 0.4779 -0.1200 -0.8702
vn 0.5030 -0.1263 0.8550
vn 0.5360 -0.1039 0.8378
vn 0.5525 0.0469 0.8322
vn 0.4910 -0.0042 0.8711
vn 0.9425 -0.1273 -0.3091
vn 0.9294 -0.1858 -0.3188
vn 0.9334 0.1676 -0.3174
vn 0.9485 0.0219 -0.3161
vn 0.9461 -0.1283 0.2975
vn 0.9337 -0.1860 0.3058
vn 0.9399 0.1654 0.2986
vn 0.9551 0.0184 0.2957
vn -0.4758 0.0462 -0.8783
vn -0.5184 0.0097 -0.8551
vn -0.5341 0.0404 -0.8445
vn -0.4794 -0.0199 -0.8773
vn -0.4461 0.0431 0.8940
vn -0.4907 0.0079 0.8713
vn -0.5057 0.0395 0.8618
vn -0.4455 -0.0326 0.8947
vn -0.9174 0.2260 -0.3277
vn -0.9581 0.0621 -0.2797
vn -0.9634 0.0620 -0.2609
vn -0.9510 -0.0693 -0.3012
vn -0.9167 0.2290 0.3273
vn -0.9550 0.0626 0.2899
vn -0.9589 0.0688 0.2753
vn -0.9426 -0.1053 0.3168
vn -0.7948 0.5477 0.2614
vn 0.9262 0.1184 0.3579
vn 0.3967 0.0803 0.9144
vn -0.9363 -0.0707 -0.3439
vn -0.4029 -0.0029 -0.9152
vn 0.9147 0.1183 -0.3864
vn 0.3677 0.0789 -0.9266
vn -0.9257 -0.0686 0.3719
vn -0.3747 0.0016 0.9272
vn 0.9179 0.2197 -0.3305
vn -0.9464 -0.1739 -0.2723
vn -0.4406 -0.0971 0.8924
vn 0.4279 0.0865 -0.8997
vn -0.4756 -0.1029 -0.8736
vn 0.4627 0.0954 0.8814
vn -0.9370 -0.1727 0.3036
vn 0.9270 0.2223 0.3020
vn 0.4100 -0.1328 0.9024
vn 0.5205 0.7968 -0.3070
vn 0.3181 0.3194 0.8926
vn -0.6121 -0.7243 -0.3173
vn -0.2630 -0.3861 0.8842
vn 0.3181 0.3194 -0.8926
vn 0.5205 0.7968 0.3070
vn -0.2630 -0.3861 -0.8842
vn -0.6121 -0.7243 0.3173
vn -0.0379 0.4069 -0.9127
vn -0.2199 0.9092 0.3535
vn 0.1604 -0.3947 -0.9047
vn 0.2551 -0.9008 0.3513
vn -0.2199 0.9092 -0.3535
vn -0.0379 0.4069 0.9127
vn 0.2551 -0.9008 -0.3513
vn 0.1604 -0.3947 0.9047
vn -0.1877 0.3372 0.9225
vn 0.7629 -0.5380 -0.3586
vn 0.4043 -0.1794 0.8969
vn -0.2151 0.3191 -0.9230
vn -0.6285 0.6806 0.3766
vn 0.3821 -0.1973 -0.9028
vn 0.7694 -0.5296 0.3572
vn -0.6389 0.6713 -0.3758
vn 0.7499 0.6615 0.0000
vn -0.7564 0.5477 -0.3577
vn -0.4023 0.1308 -0.9061
vn 0.3774 -0.1224 -0.9179
vn -0.3711 0.1207 0.9207
vn 0.8931 -0.2838 0.3490
vn -0.8992 0.2838 -0.3331
vn 0.8811 -0.2805 -0.3808
vn -0.8873 0.2801 0.3663
vn 0.8614 0.5079 0.0000
vn 0.7549 -0.5202 -0.3995
vn -0.7453 0.5395 0.3917
vn 0.3349 -0.2330 0.9130
vn -0.3200 0.2266 -0.9199
vn 0.3069 -0.2139 -0.9274
vn -0.2949 0.2085 0.9325
vn 0.7659 -0.5276 0.3676
vn 0.9326 0.0953 0.3481
vn -0.9283 -0.1118 0.3545
vn 0.4068 0.0282 0.9131
vn -0.4090 -0.0626 -0.9104
vn 0.3734 0.0244 -0.9274
vn -0.3753 -0.0589 0.9250
vn -0.9409 -0.1132 -0.3194
vn 0.9197 0.0937 -0.3812
vn 0.3614 0.5841 -0.7268
vn 0.3548 -0.5208 0.7765
vn 0.3676 0.5868 0.7215
vn 0.2940 0.5027 -0.8129
vn -0.1915 -0.6011 -0.7759
vn 0.2989 0.5047 0.8099
vn -0.1867 -0.5992 0.7785
vn 0.3777 0.3485 -0.8578
vn 0.1881 -0.1716 -0.9670
vn 0.3344 0.3814 -0.8618
vn 0.3830 0.3506 0.8547
vn 0.1940 -0.1693 0.9663
vn 0.3322 0.4356 0.8366
vn 0.3271 0.4336 -0.8396
vn 0.4108 0.2931 0.8633
vn 0.3397 0.3834 0.8588
vn 0.4055 0.2910 -0.8665
vn 0.3522 -0.5224 -0.7765
vn 0.0591 0.4962 0.8662
vn -0.0241 -0.4961 -0.8679
vn 0.0538 0.4941 -0.8677
vn -0.0188 -0.4940 0.8693
vn 0.0360 0.4554 -0.8896
vn 0.0307 -0.4557 0.8896
vn 0.0414 0.4575 0.8882
vn 0.0250 -0.4568 -0.8892
vn 0.0000 0.5278 -0.8494
vn 0.0892 -0.4575 0.8847
vn 0.0052 0.5298 0.8481
vn 0.0838 -0.4596 -0.8842
vn 0.5919 -0.2240 -0.7742
vn 0.0821 -0.4493 -0.8896
vn 0.0058 0.4466 0.8947
vn 0.5972 -0.2158 0.7725
vn 0.0875 -0.4472 0.8902
vn 0.0004 0.4445 -0.8958
vn 0.7353 0.6777 -0.0030
vn -0.9161 -0.4009 0.0033
vn 0.0686 -0.4050 0.9117
vn 0.0678 -0.4098 -0.9097
vn -0.7856 -0.2357 -0.5720
vn 0.0960 0.6027 0.7922
vn -0.7806 -0.2356 0.5790
vn 0.0926 0.5995 -0.7950
vn 0.2106 0.5158 -0.8304
vn -0.1255 -0.5386 0.8332
vn 0.2156 0.5178 0.8279
vn -0.1306 -0.5406 -0.8311
vn -0.8542 -0.0942 0.5113
vn -0.2970 0.7810 0.5495
vn -0.8587 -0.0934 -0.5039
vn -0.2983 0.7794 -0.5510
vn 0.5481 -0.6214 -0.5599
vn 0.4437 0.6000 0.6657
vn 0.5492 -0.6205 0.5597
vn 0.4387 0.5982 -0.6706
vn -0.3401 -0.6071 0.7182
vn -0.3506 -0.6148 -0.7064
usemtl Steel
s off
f 416/1/1 413/1/1 454/1/1 457/1/1
f 519/1/1 524/1/1 416/1/1 420/1/1
f 518/1/2 517/1/2 419/1/2 410/1/2
f 523/1/3 528/1/3 409/1/3 413/1/3
f 517/1/2 521/1/2 415/1/2 419/1/2
f 522/1/4 518/1/4 410/1/4 411/1/4
f 520/1/1 519/1/1 420/1/1 414/1/1
f 521/1/2 526/1/2 417/1/2 415/1/2
f 524/1/1 523/1/1 413/1/1 416/1/1
f 541/1/2 434/1/2 438/1/2 542/1/2
f 543/1/1 440/1/1 444/1/1 544/1/1
f 547/1/2 443/1/2 434/1/2 541/1/2
f 548/1/1 433/1/1 437/1/1 549/1/1
f 549/1/1 437/1/1 440/1/1 543/1/1
f 542/1/2 438/1/2 436/1/2 551/1/2
f 546/1/1 439/1/1 433/1/1 548/1/1
f 552/1/2 442/1/2 443/1/2 547/1/2
f 420/1/1 416/1/1 457/1/1 461/1/1
f 410/1/2 419/1/2 460/1/2 451/1/2
f 413/1/1 409/1/1 450/1/1 454/1/1
f 419/1/2 415/1/2 456/1/2 460/1/2
f 411/1/2 410/1/2 451/1/2 452/1/2
f 414/1/1 420/1/1 461/1/1 455/1/1
f 415/1/2 417/1/2 458/1/2 456/1/2
f 451/1/2 460/1/2 472/1/2 463/1/2
f 454/1/1 450/1/1 462/1/1 466/1/1
f 460/1/2 456/1/2 468/1/2 472/1/2
f 452/1/2 451/1/2 463/1/2 464/1/2
f 455/1/1 461/1/1 473/1/1 467/1/1
f 456/1/2 458/1/2 470/1/2 468/1/2
f 457/1/1 454/1/1 466/1/1 469/1/1
f 461/1/1 457/1/1 469/1/1 473/1/1
f 486/1/5 490/1/5 481/1/5 485/1/5
f 491/1/6 496/1/6 484/1/6 475/1/6
f 501/1/7 506/1/7 474/1/7 478/1/7
f 496/1/8 508/1/8 480/1/8 484/1/8
f 509/1/9 491/1/9 475/1/9 476/1/9
f 500/1/10 486/1/10 485/1/10 479/1/10
f 508/1/11 513/1/11 482/1/11 480/1/11
f 490/1/12 501/1/12 478/1/12 481/1/12
f 481/1/13 478/1/13 474/1/13 477/1/13 476/1/13 475/1/13 484/1/13 480/1/13 482/1/13 483/1/13 479/1/13 485/1/13
f 469/1/14 466/1/14 503/1/14 488/1/14
f 565/1/15 568/1/15 502/1/15 489/1/15
f 489/1/16 502/1/16 501/1/16 490/1/16
f 468/1/17 470/1/17 512/1/17 507/1/17
f 467/1/18 473/1/18 487/1/18 499/1/18
f 570/1/19 566/1/19 492/1/19 510/1/19
f 510/1/20 492/1/20 491/1/20 509/1/20
f 472/1/21 468/1/21 507/1/21 494/1/21
f 568/1/22 569/1/22 505/1/22 502/1/22
f 502/1/23 505/1/23 506/1/23 501/1/23
f 463/1/24 472/1/24 494/1/24 493/1/24
f 566/1/25 567/1/25 495/1/25 492/1/25
f 492/1/26 495/1/26 496/1/26 491/1/26
f 473/1/27 469/1/27 488/1/27 487/1/27
f 513/1/28 508/1/28 486/1/28 500/1/28
f 508/1/29 496/1/29 490/1/29 486/1/29
f 490/1/30 496/1/30 495/1/30 489/1/30
f 565/1/31 567/1/31 494/1/31 488/1/31
f 507/1/32 487/1/32 488/1/32 494/1/32
f 512/1/33 499/1/33 487/1/33 507/1/33
f 463/1/34 493/1/34 511/1/34 464/1/34
f 503/1/35 466/1/35 462/1/35 504/1/35
f 532/1/1 538/1/1 523/1/1 524/1/1
f 531/1/2 533/1/2 526/1/2 521/1/2
f 530/1/1 536/1/1 519/1/1 520/1/1
f 537/1/36 535/1/36 518/1/36 522/1/36
f 529/1/2 531/1/2 521/1/2 517/1/2
f 538/1/37 534/1/37 528/1/37 523/1/37
f 535/1/2 529/1/2 517/1/2 518/1/2
f 536/1/1 532/1/1 524/1/1 519/1/1
f 560/1/1 556/1/1 532/1/1 536/1/1
f 559/1/2 553/1/2 529/1/2 535/1/2
f 562/1/1 558/1/1 534/1/1 538/1/1
f 553/1/2 555/1/2 531/1/2 529/1/2
f 561/1/2 559/1/2 535/1/2 537/1/2
f 554/1/1 560/1/1 536/1/1 530/1/1
f 555/1/2 557/1/2 533/1/2 531/1/2
f 556/1/1 562/1/1 538/1/1 532/1/1
f 430/1/38 552/1/38 547/1/38 431/1/38
f 427/1/1 546/1/1 548/1/1 421/1/1
f 426/1/2 542/1/2 551/1/2 424/1/2
f 425/1/1 549/1/1 543/1/1 428/1/1
f 421/1/1 548/1/1 549/1/1 425/1/1
f 431/1/2 547/1/2 541/1/2 422/1/2
f 428/1/39 543/1/39 544/1/39 432/1/39
f 422/1/2 541/1/2 542/1/2 426/1/2
f 425/1/1 428/1/1 562/1/1 556/1/1
f 426/1/2 424/1/2 557/1/2 555/1/2
f 427/1/1 421/1/1 560/1/1 554/1/1
f 430/1/40 431/1/40 559/1/40 561/1/40
f 422/1/2 426/1/2 555/1/2 553/1/2
f 428/1/41 432/1/41 558/1/41 562/1/41
f 431/1/2 422/1/2 553/1/2 559/1/2
f 421/1/1 425/1/1 556/1/1 560/1/1
f 489/1/42 495/1/42 567/1/42 565/1/42
f 493/1/43 494/1/43 567/1/43 566/1/43
f 503/1/44 504/1/44 569/1/44 568/1/44
f 511/1/45 493/1/45 566/1/45 570/1/45
f 488/1/46 503/1/46 568/1/46 565/1/46
usemtl LightWood
f 12/2/47 23/2/47 29/2/47 28/2/47
f 74/2/48 6/2/48 31/2/48 106/2/48
f 21/2/49 7/2/49 32/2/49 35/2/49
f 9/2/50 71/2/50 115/2/50 38/2/50
f 22/2/51 13/2/51 33/2/51 36/2/51
f 76/2/52 4/2/52 25/2/52 96/2/52
f 16/2/53 19/2/53 41/2/53 40/2/53
f 23/2/54 5/2/54 26/2/54 29/2/54
f 6/2/55 22/2/55 36/2/55 31/2/55
f 24/2/56 11/2/56 27/2/56 30/2/56
f 59/2/57 14/2/57 34/2/57 101/2/57
f 72/2/58 8/2/58 37/2/58 116/2/58
f 4/2/59 24/2/59 30/2/59 25/2/59
f 19/2/60 9/2/60 38/2/60 41/2/60
f 92/2/61 91/2/61 28/2/61 27/2/61
f 25/2/62 26/2/62 95/2/62 96/2/62
f 27/2/63 28/2/63 29/2/63 30/2/63
f 30/2/64 29/2/64 26/2/64 25/2/64
f 5/2/65 75/2/65 95/2/65 26/2/65
f 11/2/66 62/2/66 92/2/66 27/2/66
f 61/2/67 12/2/67 28/2/67 91/2/67
f 102/2/68 101/2/68 34/2/68 33/2/68
f 31/2/69 32/2/69 105/2/69 106/2/69
f 33/2/70 34/2/70 35/2/70 36/2/70
f 36/2/71 35/2/71 32/2/71 31/2/71
f 14/2/72 21/2/72 35/2/72 34/2/72
f 7/2/73 73/2/73 105/2/73 32/2/73
f 13/2/74 60/2/74 102/2/74 33/2/74
f 112/2/75 111/2/75 40/2/75 39/2/75
f 37/2/76 38/2/76 115/2/76 116/2/76
f 39/2/77 40/2/77 41/2/77 42/2/77
f 42/2/78 41/2/78 38/2/78 37/2/78
f 15/2/79 58/2/79 112/2/79 39/2/79
f 57/2/80 16/2/80 40/2/80 111/2/80
f 8/2/81 20/2/81 42/2/81 37/2/81
f 20/2/82 15/2/82 39/2/82 42/2/82
f 126/2/83 135/2/83 176/2/83 122/2/83
f 70/2/84 10/2/84 48/2/84 129/2/84
f 18/2/85 17/2/85 47/2/85 46/2/85
f 10/2/86 18/2/86 46/2/86 48/2/86
f 127/2/87 126/2/87 50/2/87 47/2/87
f 48/2/88 49/2/88 128/2/88 129/2/88
f 47/2/89 50/2/89 45/2/89 46/2/89
f 46/2/90 45/2/90 49/2/90 48/2/90
f 17/2/91 56/2/91 127/2/91 47/2/91
f 135/2/92 130/2/92 44/2/92 176/2/92
f 78/2/93 98/2/93 99/2/93 89/2/93
f 74/2/94 106/2/94 103/2/94 65/2/94
f 87/2/95 109/2/95 104/2/95 66/2/95
f 68/2/96 114/2/96 115/2/96 71/2/96
f 88/2/97 110/2/97 107/2/97 79/2/97
f 76/2/98 96/2/98 93/2/98 63/2/98
f 82/2/99 118/2/99 119/2/99 85/2/99
f 89/2/100 99/2/100 94/2/100 64/2/100
f 65/2/101 103/2/101 110/2/101 88/2/101
f 90/2/102 100/2/102 97/2/102 77/2/102
f 59/2/103 101/2/103 108/2/103 80/2/103
f 72/2/104 116/2/104 113/2/104 67/2/104
f 63/2/105 93/2/105 100/2/105 90/2/105
f 85/2/106 119/2/106 114/2/106 68/2/106
f 92/2/107 97/2/107 98/2/107 91/2/107
f 93/2/108 96/2/108 95/2/108 94/2/108
f 97/2/109 100/2/109 99/2/109 98/2/109
f 100/2/110 93/2/110 94/2/110 99/2/110
f 64/2/111 94/2/111 95/2/111 75/2/111
f 77/2/112 97/2/112 92/2/112 62/2/112
f 61/2/113 91/2/113 98/2/113 78/2/113
f 102/2/114 107/2/114 108/2/114 101/2/114
f 103/2/115 106/2/115 105/2/115 104/2/115
f 107/2/116 110/2/116 109/2/116 108/2/116
f 110/2/117 103/2/117 104/2/117 109/2/117
f 80/2/118 108/2/118 109/2/118 87/2/118
f 66/2/119 104/2/119 105/2/119 73/2/119
f 79/2/120 107/2/120 102/2/120 60/2/120
f 112/2/121 117/2/121 118/2/121 111/2/121
f 113/2/122 116/2/122 115/2/122 114/2/122
f 117/2/123 120/2/123 119/2/123 118/2/123
f 120/2/124 113/2/124 114/2/124 119/2/124
f 81/2/125 117/2/125 112/2/125 58/2/125
f 57/2/126 111/2/126 118/2/126 82/2/126
f 67/2/127 113/2/127 120/2/127 86/2/127
f 86/2/128 120/2/128 117/2/128 81/2/128
f 50/2/129 126/2/129 122/2/129 123/2/129
f 70/2/130 129/2/130 133/2/130 69/2/130
f 45/2/131 50/2/131 123/2/131 125/2/131
f 84/2/132 131/2/132 132/2/132 83/2/132
f 69/2/133 133/2/133 131/2/133 84/2/133
f 134/2/134 128/2/134 121/2/134 43/2/134
f 127/2/135 132/2/135 135/2/135 126/2/135
f 133/2/136 129/2/136 128/2/136 134/2/136
f 132/2/137 131/2/137 130/2/137 135/2/137
f 131/2/138 133/2/138 134/2/138 130/2/138
f 83/2/139 132/2/139 127/2/139 56/2/139
f 130/2/140 134/2/140 43/2/140 44/2/140
f 147/2/141 152/2/141 168/2/141 163/2/141
f 142/2/142 145/2/142 161/2/142 158/2/142
f 151/2/143 148/2/143 164/2/143 167/2/143
f 141/2/144 144/2/144 160/2/144 157/2/144
f 150/2/145 147/2/145 163/2/145 166/2/145
f 143/2/146 142/2/146 158/2/146 159/2/146
f 137/2/147 146/2/147 162/2/147 153/2/147
f 148/2/148 149/2/148 165/2/148 164/2/148
f 164/2/149 165/2/149 166/2/149 163/2/149
f 167/2/150 164/2/150 163/2/150 168/2/150
f 165/2/151 156/2/151 155/2/151 166/2/151
f 154/2/152 167/2/152 168/2/152 153/2/152
f 158/2/153 157/2/153 160/2/153 159/2/153
f 161/2/154 162/2/154 157/2/154 158/2/154
f 159/2/155 160/2/155 155/2/155 156/2/155
f 154/2/156 153/2/156 162/2/156 161/2/156
f 146/2/157 141/2/157 157/2/157 162/2/157
f 149/2/158 140/2/158 156/2/158 165/2/158
f 140/2/159 143/2/159 159/2/159 156/2/159
f 139/2/160 150/2/160 166/2/160 155/2/160
f 144/2/161 139/2/161 155/2/161 160/2/161
f 138/2/162 151/2/162 167/2/162 154/2/162
f 145/2/163 138/2/163 154/2/163 161/2/163
f 152/2/164 137/2/164 153/2/164 168/2/164
f 49/2/165 45/2/165 125/2/165 124/2/165
f 128/2/166 49/2/166 124/2/166 121/2/166
f 190/2/167 247/2/167 291/2/167 219/2/167
f 202/2/168 188/2/168 213/2/168 216/2/168
f 250/2/169 187/2/169 212/2/169 282/2/169
f 193/2/170 204/2/170 210/2/170 209/2/170
f 203/2/171 194/2/171 214/2/171 217/2/171
f 252/2/172 185/2/172 206/2/172 272/2/172
f 197/2/173 200/2/173 222/2/173 221/2/173
f 204/2/174 186/2/174 207/2/174 210/2/174
f 187/2/175 203/2/175 217/2/175 212/2/175
f 205/2/176 192/2/176 208/2/176 211/2/176
f 235/2/177 195/2/177 215/2/177 277/2/177
f 248/2/178 189/2/178 218/2/178 292/2/178
f 185/2/179 205/2/179 211/2/179 206/2/179
f 200/2/180 190/2/180 219/2/180 222/2/180
f 268/2/181 267/2/181 209/2/181 208/2/181
f 206/2/182 207/2/182 271/2/182 272/2/182
f 208/2/183 209/2/183 210/2/183 211/2/183
f 211/2/184 210/2/184 207/2/184 206/2/184
f 186/2/185 251/2/185 271/2/185 207/2/185
f 192/2/186 238/2/186 268/2/186 208/2/186
f 237/2/187 193/2/187 209/2/187 267/2/187
f 278/2/188 277/2/188 215/2/188 214/2/188
f 212/2/189 213/2/189 281/2/189 282/2/189
f 214/2/190 215/2/190 216/2/190 217/2/190
f 217/2/191 216/2/191 213/2/191 212/2/191
f 195/2/192 202/2/192 216/2/192 215/2/192
f 188/2/193 249/2/193 281/2/193 213/2/193
f 194/2/194 236/2/194 278/2/194 214/2/194
f 288/2/195 287/2/195 221/2/195 220/2/195
f 218/2/196 219/2/196 291/2/196 292/2/196
f 220/2/197 221/2/197 222/2/197 223/2/197
f 223/2/198 222/2/198 219/2/198 218/2/198
f 196/2/199 234/2/199 288/2/199 220/2/199
f 233/2/200 197/2/200 221/2/200 287/2/200
f 189/2/201 201/2/201 223/2/201 218/2/201
f 201/2/202 196/2/202 220/2/202 223/2/202
f 302/2/203 311/2/203 344/2/203 298/2/203
f 246/2/204 191/2/204 229/2/204 305/2/204
f 199/2/205 198/2/205 228/2/205 227/2/205
f 191/2/206 199/2/206 227/2/206 229/2/206
f 303/2/207 302/2/207 231/2/207 228/2/207
f 229/2/208 230/2/208 304/2/208 305/2/208
f 228/2/209 231/2/209 226/2/209 227/2/209
f 227/2/210 226/2/210 230/2/210 229/2/210
f 198/2/211 232/2/211 303/2/211 228/2/211
f 311/2/212 306/2/212 225/2/212 344/2/212
f 254/2/213 274/2/213 275/2/213 265/2/213
f 250/2/214 282/2/214 279/2/214 241/2/214
f 263/2/215 285/2/215 280/2/215 242/2/215
f 244/2/216 290/2/216 291/2/216 247/2/216
f 264/2/217 286/2/217 283/2/217 255/2/217
f 252/2/218 272/2/218 269/2/218 239/2/218
f 258/2/219 294/2/219 295/2/219 261/2/219
f 265/2/220 275/2/220 270/2/220 240/2/220
f 241/2/221 279/2/221 286/2/221 264/2/221
f 266/2/222 276/2/222 273/2/222 253/2/222
f 235/2/223 277/2/223 284/2/223 256/2/223
f 248/2/224 292/2/224 289/2/224 243/2/224
f 239/2/225 269/2/225 276/2/225 266/2/225
f 261/2/226 295/2/226 290/2/226 244/2/226
f 268/2/227 273/2/227 274/2/227 267/2/227
f 269/2/228 272/2/228 271/2/228 270/2/228
f 273/2/229 276/2/229 275/2/229 274/2/229
f 276/2/230 269/2/230 270/2/230 275/2/230
f 240/2/231 270/2/231 271/2/231 251/2/231
f 253/2/232 273/2/232 268/2/232 238/2/232
f 237/2/233 267/2/233 274/2/233 254/2/233
f 278/2/234 283/2/234 284/2/234 277/2/234
f 279/2/235 282/2/235 281/2/235 280/2/235
f 283/2/236 286/2/236 285/2/236 284/2/236
f 286/2/237 279/2/237 280/2/237 285/2/237
f 256/2/238 284/2/238 285/2/238 263/2/238
f 242/2/239 280/2/239 281/2/239 249/2/239
f 255/2/240 283/2/240 278/2/240 236/2/240
f 288/2/241 293/2/241 294/2/241 287/2/241
f 289/2/242 292/2/242 291/2/242 290/2/242
f 293/2/243 296/2/243 295/2/243 294/2/243
f 296/2/244 289/2/244 290/2/244 295/2/244
f 257/2/245 293/2/245 288/2/245 234/2/245
f 233/2/246 287/2/246 294/2/246 258/2/246
f 243/2/247 289/2/247 296/2/247 262/2/247
f 262/2/248 296/2/248 293/2/248 257/2/248
f 231/2/249 302/2/249 298/2/249 299/2/249
f 246/2/250 305/2/250 309/2/250 245/2/250
f 226/2/251 231/2/251 299/2/251 301/2/251
f 260/2/252 307/2/252 308/2/252 259/2/252
f 245/2/253 309/2/253 307/2/253 260/2/253
f 310/2/254 304/2/254 297/2/254 224/2/254
f 303/2/255 308/2/255 311/2/255 302/2/255
f 309/2/256 305/2/256 304/2/256 310/2/256
f 308/2/257 307/2/257 306/2/257 311/2/257
f 307/2/258 309/2/258 310/2/258 306/2/258
f 259/2/259 308/2/259 303/2/259 232/2/259
f 306/2/260 310/2/260 224/2/260 225/2/260
f 322/2/261 327/2/261 343/2/261 338/2/261
f 317/2/262 320/2/262 336/2/262 333/2/262
f 326/2/263 323/2/263 339/2/263 342/2/263
f 316/2/264 319/2/264 335/2/264 332/2/264
f 325/2/265 322/2/265 338/2/265 341/2/265
f 318/2/266 317/2/266 333/2/266 334/2/266
f 312/2/267 321/2/267 337/2/267 328/2/267
f 323/2/268 324/2/268 340/2/268 339/2/268
f 339/2/269 340/2/269 341/2/269 338/2/269
f 342/2/270 339/2/270 338/2/270 343/2/270
f 340/2/271 331/2/271 330/2/271 341/2/271
f 329/2/272 342/2/272 343/2/272 328/2/272
f 333/2/273 332/2/273 335/2/273 334/2/273
f 336/2/274 337/2/274 332/2/274 333/2/274
f 334/2/275 335/2/275 330/2/275 331/2/275
f 329/2/276 328/2/276 337/2/276 336/2/276
f 321/2/277 316/2/277 332/2/277 337/2/277
f 324/2/278 315/2/278 331/2/278 340/2/278
f 315/2/279 318/2/279 334/2/279 331/2/279
f 314/2/280 325/2/280 341/2/280 330/2/280
f 319/2/281 314/2/281 330/2/281 335/2/281
f 313/2/282 326/2/282 342/2/282 329/2/282
f 320/2/283 313/2/283 329/2/283 336/2/283
f 327/2/284 312/2/284 328/2/284 343/2/284
f 230/2/285 226/2/285 301/2/285 300/2/285
f 304/2/286 230/2/286 300/2/286 297/2/286
f 574/2/287 572/2/287 573/2/287 575/2/287
f 578/2/288 579/2/288 577/2/288 576/2/288
f 574/2/289 578/2/289 576/2/289 572/2/289
f 573/2/290 577/2/290 579/2/290 575/2/290
f 576/2/291 577/2/291 583/2/291 582/2/291
f 573/2/292 572/2/292 580/2/292 581/2/292
f 577/2/293 573/2/293 581/2/293 583/2/293
f 572/2/294 576/2/294 582/2/294 580/2/294
f 583/2/295 581/2/295 585/2/295 587/2/295
f 582/2/296 583/2/296 587/2/296 586/2/296
f 580/2/297 582/2/297 586/2/297 584/2/297
f 581/2/298 580/2/298 584/2/298 585/2/298
f 584/2/299 586/2/299 634/2/299 632/2/299
f 585/2/300 584/2/300 632/2/300 633/2/300
f 587/2/301 585/2/301 633/2/301 635/2/301
f 586/2/302 587/2/302 635/2/302 634/2/302
f 579/2/303 578/2/303 590/2/303 591/2/303
f 574/2/304 575/2/304 589/2/304 588/2/304
f 575/2/305 579/2/305 591/2/305 589/2/305
f 578/2/306 574/2/306 588/2/306 590/2/306
f 591/2/307 590/2/307 594/2/307 595/2/307
f 590/2/308 588/2/308 592/2/308 594/2/308
f 588/2/309 589/2/309 593/2/309 592/2/309
f 589/2/310 591/2/310 595/2/310 593/2/310
f 594/2/311 592/2/311 596/2/311 598/2/311
f 592/2/312 593/2/312 597/2/312 596/2/312
f 593/2/313 595/2/313 599/2/313 597/2/313
f 595/2/314 594/2/314 598/2/314 599/2/314
f 597/2/315 599/2/315 603/2/315 601/2/315
f 599/2/316 598/2/316 602/2/316 603/2/316
f 598/2/317 596/2/317 600/2/317 602/2/317
f 596/2/318 597/2/318 601/2/318 600/2/318
f 602/2/319 600/2/319 604/2/319 606/2/319
f 600/2/320 601/2/320 605/2/320 604/2/320
f 601/2/321 603/2/321 607/2/321 605/2/321
f 603/2/322 602/2/322 606/2/322 607/2/322
f 606/2/323 604/2/323 608/2/323 610/2/323
f 604/2/324 605/2/324 609/2/324 608/2/324
f 605/2/325 607/2/325 611/2/325 609/2/325
f 607/2/326 606/2/326 610/2/326 611/2/326
f 609/2/327 611/2/327 615/2/327 613/2/327
f 611/2/328 610/2/328 614/2/328 615/2/328
f 610/2/329 608/2/329 612/2/329 614/2/329
f 608/2/330 609/2/330 613/2/330 612/2/330
f 614/2/331 612/2/331 664/2/331 666/2/331
f 612/2/332 613/2/332 665/2/332 664/2/332
f 613/2/333 615/2/333 667/2/333 665/2/333
f 615/2/334 614/2/334 666/2/334 667/2/334
f 618/2/335 619/2/335 617/2/335 616/2/335
f 622/2/336 620/2/336 621/2/336 623/2/336
f 618/2/337 616/2/337 620/2/337 622/2/337
f 617/2/338 619/2/338 623/2/338 621/2/338
f 620/2/339 626/2/339 627/2/339 621/2/339
f 617/2/340 625/2/340 624/2/340 616/2/340
f 621/2/341 627/2/341 625/2/341 617/2/341
f 616/2/342 624/2/342 626/2/342 620/2/342
f 627/2/343 631/2/343 629/2/343 625/2/343
f 626/2/344 630/2/344 631/2/344 627/2/344
f 624/2/345 628/2/345 630/2/345 626/2/345
f 625/2/346 629/2/346 628/2/346 624/2/346
f 628/2/347 632/2/347 634/2/347 630/2/347
f 629/2/348 633/2/348 632/2/348 628/2/348
f 631/2/349 635/2/349 633/2/349 629/2/349
f 630/2/350 634/2/350 635/2/350 631/2/350
f 623/2/351 639/2/351 638/2/351 622/2/351
f 618/2/352 636/2/352 637/2/352 619/2/352
f 619/2/353 637/2/353 639/2/353 623/2/353
f 622/2/354 638/2/354 636/2/354 618/2/354
f 639/2/355 643/2/355 642/2/355 638/2/355
f 638/2/356 642/2/356 640/2/356 636/2/356
f 636/2/357 640/2/357 641/2/357 637/2/357
f 637/2/358 641/2/358 643/2/358 639/2/358
f 642/2/359 646/2/359 644/2/359 640/2/359
f 640/2/360 644/2/360 645/2/360 641/2/360
f 641/2/361 645/2/361 647/2/361 643/2/361
f 643/2/362 647/2/362 646/2/362 642/2/362
f 645/2/363 649/2/363 651/2/363 647/2/363
f 647/2/364 651/2/364 650/2/364 646/2/364
f 646/2/365 650/2/365 648/2/365 644/2/365
f 644/2/366 648/2/366 649/2/366 645/2/366
f 650/2/367 654/2/367 652/2/367 648/2/367
f 648/2/368 652/2/368 653/2/368 649/2/368
f 649/2/369 653/2/369 655/2/369 651/2/369
f 651/2/370 655/2/370 654/2/370 650/2/370
f 654/2/371 658/2/371 656/2/371 652/2/371
f 652/2/372 656/2/372 657/2/372 653/2/372
f 653/2/373 657/2/373 659/2/373 655/2/373
f 655/2/374 659/2/374 658/2/374 654/2/374
f 657/2/375 661/2/375 663/2/375 659/2/375
f 659/2/376 663/2/376 662/2/376 658/2/376
f 658/2/377 662/2/377 660/2/377 656/2/377
f 656/2/378 660/2/378 661/2/378 657/2/378
f 662/2/379 666/2/379 664/2/379 660/2/379
f 660/2/380 664/2/380 665/2/380 661/2/380
f 661/2/381 665/2/381 667/2/381 663/2/381
f 663/2/382 667/2/382 666/2/382 662/2/382
usemtl DarkWood
f 137/3/383 62/3/383 11/3/383 146/3/383
f 61/3/384 60/3/384 13/3/384 12/3/384
f 59/3/385 58/3/385 15/3/385 14/3/385
f 57/3/386 56/3/386 17/3/386 16/3/386
f 144/3/387 4/3/387 76/3/387 139/3/387
f 5/3/388 6/3/388 74/3/388 75/3/388
f 7/3/389 8/3/389 72/3/389 73/3/389
f 9/3/390 10/3/390 70/3/390 71/3/390
f 146/3/391 11/3/391 24/3/391 141/3/391
f 12/3/392 13/3/392 22/3/392 23/3/392
f 14/3/393 15/3/393 20/3/393 21/3/393
f 16/3/394 17/3/394 18/3/394 19/3/394
f 141/3/395 24/3/395 4/3/395 144/3/395
f 23/3/396 22/3/396 6/3/396 5/3/396
f 21/3/397 20/3/397 8/3/397 7/3/397
f 19/3/398 18/3/398 10/3/398 9/3/398
f 137/3/399 152/3/399 77/3/399 62/3/399
f 61/3/400 78/3/400 79/3/400 60/3/400
f 59/3/401 80/3/401 81/3/401 58/3/401
f 57/3/402 82/3/402 83/3/402 56/3/402
f 150/3/403 139/3/403 76/3/403 63/3/403
f 64/3/404 75/3/404 74/3/404 65/3/404
f 66/3/405 73/3/405 72/3/405 67/3/405
f 68/3/406 71/3/406 70/3/406 69/3/406
f 152/3/407 147/3/407 90/3/407 77/3/407
f 78/3/408 89/3/408 88/3/408 79/3/408
f 80/3/409 87/3/409 86/3/409 81/3/409
f 82/3/410 85/3/410 84/3/410 83/3/410
f 147/3/411 150/3/411 63/3/411 90/3/411
f 89/3/412 64/3/412 65/3/412 88/3/412
f 87/3/413 66/3/413 67/3/413 86/3/413
f 85/3/414 68/3/414 69/3/414 84/3/414
f 53/3/415 54/3/415 149/3/415 148/3/415
f 52/3/416 53/3/416 148/3/416 151/3/416
f 54/3/417 55/3/417 140/3/417 149/3/417
f 51/3/418 52/3/418 151/3/418 138/3/418
f 2/3/419 142/3/419 143/3/419 3/3/419
f 1/3/420 145/3/420 142/3/420 2/3/420
f 3/3/421 143/3/421 140/3/421 55/3/421
f 51/3/422 138/3/422 145/3/422 1/3/422
f 2/3/423 3/3/423 173/3/423 174/3/423
f 54/3/424 53/3/424 170/3/424 169/3/424
f 51/3/425 1/3/425 175/3/425 172/3/425
f 1/3/426 2/3/426 174/3/426 175/3/426
f 53/3/427 52/3/427 171/3/427 170/3/427
f 3/3/428 55/3/428 136/3/428 173/3/428
f 55/3/429 54/3/429 169/3/429 136/3/429
f 52/3/430 51/3/430 172/3/430 171/3/430
f 122/3/431 313/3/431 320/3/431 123/3/431
f 123/3/432 320/3/432 317/3/432 125/3/432
f 176/3/433 326/3/433 313/3/433 122/3/433
f 44/3/434 323/3/434 326/3/434 176/3/434
f 124/3/435 318/3/435 315/3/435 121/3/435
f 125/3/436 317/3/436 318/3/436 124/3/436
f 121/3/437 315/3/437 324/3/437 43/3/437
f 233/3/438 232/3/438 198/3/438 197/3/438
f 235/3/439 234/3/439 196/3/439 195/3/439
f 237/3/440 236/3/440 194/3/440 193/3/440
f 312/3/441 238/3/441 192/3/441 321/3/441
f 319/3/442 185/3/442 252/3/442 314/3/442
f 186/3/443 187/3/443 250/3/443 251/3/443
f 188/3/444 189/3/444 248/3/444 249/3/444
f 190/3/445 191/3/445 246/3/445 247/3/445
f 321/3/446 192/3/446 205/3/446 316/3/446
f 193/3/447 194/3/447 203/3/447 204/3/447
f 195/3/448 196/3/448 201/3/448 202/3/448
f 197/3/449 198/3/449 199/3/449 200/3/449
f 316/3/450 205/3/450 185/3/450 319/3/450
f 204/3/451 203/3/451 187/3/451 186/3/451
f 202/3/452 201/3/452 189/3/452 188/3/452
f 200/3/453 199/3/453 191/3/453 190/3/453
f 312/3/454 327/3/454 253/3/454 238/3/454
f 237/3/455 254/3/455 255/3/455 236/3/455
f 235/3/456 256/3/456 257/3/456 234/3/456
f 233/3/457 258/3/457 259/3/457 232/3/457
f 325/3/458 314/3/458 252/3/458 239/3/458
f 240/3/459 251/3/459 250/3/459 241/3/459
f 242/3/460 249/3/460 248/3/460 243/3/460
f 244/3/461 247/3/461 246/3/461 245/3/461
f 327/3/462 322/3/462 266/3/462 253/3/462
f 254/3/463 265/3/463 264/3/463 255/3/463
f 256/3/464 263/3/464 262/3/464 257/3/464
f 258/3/465 261/3/465 260/3/465 259/3/465
f 322/3/466 325/3/466 239/3/466 266/3/466
f 265/3/467 240/3/467 241/3/467 264/3/467
f 263/3/468 242/3/468 243/3/468 262/3/468
f 261/3/469 244/3/469 245/3/469 260/3/469
f 43/3/470 324/3/470 323/3/470 44/3/470
f 184/3/471 182/3/471 352/3/471 348/3/471
f 178/3/472 184/3/472 348/3/472 345/3/472
f 183/3/473 179/3/473 350/3/473 347/3/473
f 181/3/474 183/3/474 347/3/474 346/3/474
f 182/3/475 180/3/475 351/3/475 352/3/475
f 180/3/476 181/3/476 346/3/476 351/3/476
f 179/3/477 177/3/477 349/3/477 350/3/477
f 177/3/478 178/3/478 345/3/478 349/3/478
f 405/3/479 354/3/479 353/3/479 406/3/479
f 408/3/480 355/3/480 358/3/480 404/3/480
f 402/3/481 360/3/481 356/3/481 407/3/481
f 401/3/482 359/3/482 354/3/482 405/3/482
f 404/3/483 358/3/483 359/3/483 401/3/483
f 403/3/484 357/3/484 360/3/484 402/3/484
f 407/3/485 356/3/485 355/3/485 408/3/485
f 406/3/486 353/3/486 357/3/486 403/3/486
f 360/3/487 357/3/487 392/3/487 385/3/487
f 175/3/488 174/3/488 367/3/488 368/3/488
f 173/3/489 136/3/489 361/3/489 366/3/489
f 170/3/490 171/3/490 364/3/490 363/3/490
f 136/3/491 169/3/491 362/3/491 361/3/491
f 172/3/492 175/3/492 368/3/492 365/3/492
f 174/3/493 173/3/493 366/3/493 367/3/493
f 171/3/494 172/3/494 365/3/494 364/3/494
f 169/3/495 170/3/495 363/3/495 362/3/495
f 365/3/496 368/3/496 376/3/496 373/3/496
f 367/3/497 366/3/497 374/3/497 375/3/497
f 364/3/498 365/3/498 373/3/498 372/3/498
f 362/3/499 363/3/499 371/3/499 370/3/499
f 368/3/500 367/3/500 375/3/500 376/3/500
f 366/3/501 361/3/501 369/3/501 374/3/501
f 363/3/502 364/3/502 372/3/502 371/3/502
f 361/3/503 362/3/503 370/3/503 369/3/503
f 374/3/504 369/3/504 377/3/504 382/3/504
f 371/3/505 372/3/505 380/3/505 379/3/505
f 369/3/506 370/3/506 378/3/506 377/3/506
f 373/3/507 376/3/507 384/3/507 381/3/507
f 375/3/508 374/3/508 382/3/508 383/3/508
f 372/3/509 373/3/509 381/3/509 380/3/509
f 370/3/510 371/3/510 379/3/510 378/3/510
f 376/3/511 375/3/511 383/3/511 384/3/511
f 378/3/512 379/3/512 380/3/512 381/3/512 384/3/512 383/3/512 382/3/512 377/3/512
f 391/3/513 387/3/513 395/3/513 399/3/513
f 359/3/514 358/3/514 391/3/514 388/3/514
f 354/3/515 359/3/515 388/3/515 389/3/515
f 356/3/516 360/3/516 385/3/516 386/3/516
f 357/3/517 353/3/517 390/3/517 392/3/517
f 358/3/518 355/3/518 387/3/518 391/3/518
f 353/3/519 354/3/519 389/3/519 390/3/519
f 355/3/520 356/3/520 386/3/520 387/3/520
f 393/3/521 400/3/521 398/3/521 397/3/521 396/3/521 399/3/521 395/3/521 394/3/521
f 390/3/522 389/3/522 397/3/522 398/3/522
f 387/3/523 386/3/523 394/3/523 395/3/523
f 385/3/524 392/3/524 400/3/524 393/3/524
f 388/3/525 391/3/525 399/3/525 396/3/525
f 389/3/526 388/3/526 396/3/526 397/3/526
f 386/3/527 385/3/527 393/3/527 394/3/527
f 392/3/528 390/3/528 398/3/528 400/3/528
f 352/3/529 406/3/529 403/3/529 348/3/529
f 349/3/530 407/3/530 408/3/530 350/3/530
f 348/3/531 403/3/531 402/3/531 345/3/531
f 347/3/532 404/3/532 401/3/532 346/3/532
f 346/3/533 401/3/533 405/3/533 351/3/533
f 345/3/534 402/3/534 407/3/534 349/3/534
f 350/3/535 408/3/535 404/3/535 347/3/535
f 351/3/536 405/3/536 406/3/536 352/3/536
usemtl LightSteel
f 525/4/537 520/4/537 414/4/537 418/4/537
f 527/4/538 522/4/538 411/4/538 412/4/538
f 526/4/539 525/4/539 418/4/539 417/4/539
f 545/4/540 435/4/540 439/4/540 546/4/540
f 544/4/541 444/4/541 441/4/541 550/4/541
f 551/4/542 436/4/542 435/4/542 545/4/542
f 550/4/543 441/4/543 442/4/543 552/4/543
f 437/4/544 448/4/544 446/4/544 440/4/544
f 444/4/545 445/4/545 447/4/545 441/4/545
f 433/4/546 449/4/546 448/4/546 437/4/546
f 443/4/547 446/4/547 448/4/547 434/4/547
f 441/4/548 447/4/548 445/4/548 442/4/548
f 438/4/549 449/4/549 435/4/549 436/4/549
f 439/4/550 435/4/550 449/4/550 433/4/550
f 442/4/551 445/4/551 446/4/551 443/4/551
f 434/4/552 448/4/552 449/4/552 438/4/552
f 440/4/553 446/4/553 445/4/553 444/4/553
f 528/4/554 527/4/554 412/4/554 409/4/554
f 417/4/555 418/4/555 459/4/555 458/4/555
f 409/4/556 412/4/556 453/4/556 450/4/556
f 418/4/557 414/4/557 455/4/557 459/4/557
f 412/4/558 411/4/558 452/4/558 453/4/558
f 459/4/559 455/4/559 467/4/559 471/4/559
f 453/4/560 452/4/560 464/4/560 465/4/560
f 458/4/561 459/4/561 471/4/561 470/4/561
f 450/4/562 453/4/562 465/4/562 462/4/562
f 497/4/563 500/4/563 479/4/563 483/4/563
f 514/4/564 509/4/564 476/4/564 477/4/564
f 513/4/565 497/4/565 483/4/565 482/4/565
f 506/4/566 514/4/566 477/4/566 474/4/566
f 569/4/567 571/4/567 515/4/567 505/4/567
f 505/4/568 515/4/568 514/4/568 506/4/568
f 470/4/569 471/4/569 498/4/569 512/4/569
f 571/4/570 570/4/570 510/4/570 515/4/570
f 515/4/571 510/4/571 509/4/571 514/4/571
f 471/4/572 467/4/572 499/4/572 498/4/572
f 497/4/573 513/4/573 500/4/573
f 498/4/574 499/4/574 512/4/574
f 465/4/575 464/4/575 511/4/575 516/4/575
f 462/4/576 465/4/576 516/4/576 504/4/576
f 534/4/577 540/4/577 527/4/577 528/4/577
f 533/4/578 539/4/578 525/4/578 526/4/578
f 540/4/579 537/4/579 522/4/579 527/4/579
f 539/4/580 530/4/580 520/4/580 525/4/580
f 563/4/581 554/4/581 530/4/581 539/4/581
f 564/4/582 561/4/582 537/4/582 540/4/582
f 557/4/583 563/4/583 539/4/583 533/4/583
f 558/4/584 564/4/584 540/4/584 534/4/584
f 429/4/585 550/4/585 552/4/585 430/4/585
f 424/4/586 551/4/586 545/4/586 423/4/586
f 432/4/587 544/4/587 550/4/587 429/4/587
f 423/4/588 545/4/588 546/4/588 427/4/588
f 432/4/589 429/4/589 564/4/589 558/4/589
f 424/4/590 423/4/590 563/4/590 557/4/590
f 429/4/591 430/4/591 561/4/591 564/4/591
f 423/4/592 427/4/592 554/4/592 563/4/592
f 516/4/593 511/4/593 570/4/593 571/4/593
f 504/4/594 516/4/594 571/4/594 569/4/594
