vt 0.125 0.5
vt 0.375 0.5
vt 0.625 0.5
vt 0.875 0.5
# Blender v2.79 (sub 0) OBJ File: 'Spear.blend'
# www.blender.org
mtllib Spear.mtl
o Spear_Cylinder.031
v 0.094967 -1.251057 -0.059306
v 0.119532 -1.251057 -0.000000
v 0.094967 -1.251057 0.059306
v 0.095512 -1.024632 0.060008
v 0.095530 -0.855554 0.060709
v 0.100133 -0.833920 0.061411
v 0.094524 -0.650652 0.062112
v 0.086340 -0.615078 0.062814
v 0.101213 -0.418310 0.063515
v 0.099877 -0.395232 0.064216
v 0.095512 -1.024632 -0.060008
v 0.095530 -0.855554 -0.060709
v 0.100133 -0.833920 -0.061411
v 0.094524 -0.650652 -0.062112
v 0.086212 -0.615708 -0.062814
v 0.101213 -0.418310 -0.063515
v 0.099877 -0.395232 -0.064217
v 0.126477 -0.391370 -0.000000
v 0.127534 -0.411658 -0.000000
v 0.114649 -0.606357 -0.000000
v 0.119668 -0.656101 -0.000000
v 0.125539 -0.835157 -0.000000
v 0.120328 -0.851386 -0.000000
v 0.119535 -1.018253 -0.000000
v 0.112911 -1.003238 0.078010
v 0.113490 -0.874938 0.078922
v 0.112911 -1.003238 -0.078010
v 0.113490 -0.874938 -0.078922
v 0.142948 -0.878788 -0.000000
v 0.137654 -0.986604 -0.000000
v 0.111752 -0.810564 0.079834
v 0.113239 -0.681114 0.080746
v 0.111752 -0.810564 -0.079834
v 0.113239 -0.681114 -0.080746
v 0.140741 -0.699885 -0.000000
v 0.144781 -0.812173 -0.000000
v 0.104019 -0.587011 0.081658
v 0.110346 -0.452549 0.082570
v 0.104019 -0.587011 -0.081658
v 0.110346 -0.452549 -0.082570
v 0.147860 -0.448088 -0.000000
v 0.136070 -0.571148 -0.000000
v -0.044098 -0.218018 0.070504
v -0.073301 -0.235254 -0.000000
v 0.154810 -0.240438 -0.000000
v 0.153721 -0.338150 -0.000000
v 0.119142 -0.354885 -0.083482
v 0.119142 -0.354885 0.083481
v 0.119912 -0.240438 0.084251
v 0.119912 -0.240438 -0.084251
v 0.035661 -1.251057 -0.083872
v -0.023646 -1.251057 -0.059306
v -0.048211 -1.251057 -0.000000
v -0.023646 -1.251057 0.059306
v 0.035661 -1.251057 0.083872
v 0.280034 -2.021725 -0.084905
v 0.310596 -2.004323 -0.000000
v 0.280034 -2.021725 0.084905
v 0.035661 -0.407462 -0.090816
v 0.035661 -0.432402 -0.089824
v 0.033975 -0.614339 -0.088832
v 0.029864 -0.638073 -0.087840
v 0.037671 -0.842546 -0.086848
v 0.035661 -0.865619 -0.085856
v 0.037514 -1.040033 -0.084864
v -0.020483 -1.055434 0.060008
v -0.024209 -0.875684 0.060709
v -0.024351 -0.827983 0.061411
v -0.030513 -0.638584 0.062112
v -0.027153 -0.616236 0.062814
v -0.027855 -0.452355 0.063515
v -0.030487 -0.428702 0.064216
v 0.035661 -0.407462 0.090816
v 0.035661 -0.432402 0.089824
v 0.033975 -0.614339 0.088832
v 0.029864 -0.638073 0.087840
v 0.037671 -0.842546 0.086848
v 0.035661 -0.865619 0.085856
v 0.037514 -1.040033 0.084864
v -0.020483 -1.055434 -0.060008
v -0.024209 -0.875684 -0.060709
v -0.024351 -0.827983 -0.061411
v -0.030513 -0.638584 -0.062112
v -0.027153 -0.615593 -0.062814
v -0.027855 -0.452355 -0.063515
v -0.028556 -0.428702 -0.064217
v -0.055155 -0.434495 -0.000000
v -0.054163 -0.452355 -0.000000
v -0.053171 -0.619016 -0.000000
v -0.055632 -0.639466 -0.000000
v -0.048841 -0.821107 -0.000000
v -0.049007 -0.879852 -0.000000
v -0.044507 -1.061813 -0.000000
v 0.035661 -0.888022 -0.111612
v 0.037514 -1.023259 -0.110323
v -0.037883 -1.027168 0.078010
v -0.042169 -0.901106 0.078922
v 0.035661 -0.888022 0.111612
v 0.037514 -1.023259 0.110323
v -0.037883 -1.027168 -0.078010
v -0.042169 -0.901106 -0.078922
v -0.068846 -0.920428 -0.000000
v -0.064479 -1.032109 -0.000000
v 0.030369 -0.664588 -0.114192
v 0.037192 -0.817368 -0.112902
v -0.042568 -0.797825 0.079834
v -0.048201 -0.661070 0.080746
v 0.030369 -0.664588 0.114192
v 0.037192 -0.817368 0.112902
v -0.042568 -0.797825 -0.079834
v -0.048201 -0.661070 -0.080746
v -0.078958 -0.672343 -0.000000
v -0.068477 -0.775639 -0.000000
v 0.035661 -0.464248 -0.116771
v 0.036679 -0.600974 -0.115481
v -0.045997 -0.592065 0.081658
v -0.046909 -0.484201 0.082570
v 0.035661 -0.464248 0.116771
v 0.036679 -0.600974 0.115481
v -0.045997 -0.593569 -0.081658
v -0.046909 -0.484201 -0.082570
v -0.081111 -0.495787 -0.000000
v -0.083690 -0.593558 -0.000000
v 0.034839 -0.217954 0.099708
v 0.034839 -0.217954 -0.099708
v 0.105343 -0.203198 -0.070504
v 0.105343 -0.203198 0.070504
v 0.134547 -0.203198 -0.000000
v 0.035661 -0.258072 -0.119149
v 0.035661 -0.367115 -0.118061
v 0.035661 -0.258072 0.119149
v 0.035661 -0.367115 0.118061
v -0.093564 -0.278745 -0.000000
v -0.082400 -0.394148 -0.000000
v -0.047821 -0.394148 -0.083482
v -0.047821 -0.394148 0.083481
v -0.058667 -0.258147 0.084251
v -0.058667 -0.258147 -0.084251
v 0.160901 -2.040848 -0.120074
v 0.105004 -2.137793 -0.084905
v 0.074442 -2.155195 -0.000000
v 0.105004 -2.137793 0.084905
v 0.160901 -2.040848 0.120074
v 0.066531 -1.582211 0.100821
v 0.036995 -1.072390 -0.084533
v 0.032857 -1.229976 -0.084202
v 0.036995 -1.072390 0.084533
v 0.032857 -1.229976 0.084202
v 0.122105 -1.046489 -0.000000
v 0.117319 -1.209860 -0.000000
v 0.092983 -1.207243 0.059540
v 0.097531 -1.046284 0.059774
v 0.092983 -1.207243 -0.059540
v 0.097531 -1.046284 -0.059774
v -0.046906 -1.071691 -0.000000
v -0.050486 -1.236139 -0.000000
v -0.026075 -1.234334 0.059540
v -0.022332 -1.071896 0.059774
v -0.026075 -1.234334 -0.059540
v -0.022332 -1.071896 -0.059774
v 0.047433 -1.082456 -0.100961
v 0.033140 -1.208526 -0.100566
v 0.043082 -1.086807 0.100961
v 0.033140 -1.208526 0.100566
v 0.140807 -1.075047 -0.000000
v 0.137296 -1.192126 -0.000000
v 0.108320 -1.188538 0.071111
v 0.108520 -1.067382 0.071390
v 0.108320 -1.188538 -0.071111
v 0.108520 -1.067382 -0.071390
v -0.066488 -1.092757 -0.000000
v -0.066379 -1.214280 -0.000000
v -0.037231 -1.212595 0.071111
v -0.033579 -1.088332 0.071390
v -0.037231 -1.212595 -0.071111
v -0.033579 -1.088332 -0.071390
v -0.004699 -1.585196 0.071291
v -0.034203 -1.586433 -0.000000
v -0.004699 -1.585196 -0.071292
v 0.066531 -1.582211 -0.100822
v 0.137760 -1.579226 0.071291
v 0.167264 -1.577990 -0.000000
v 0.137760 -1.579226 -0.071292
v -0.044098 -0.218018 -0.070504
v -0.049208 0.823271 0.070504
v 0.029728 0.823303 0.099708
v -0.078412 0.814653 0.000000
v 0.101326 0.832081 -0.070504
v 0.029728 0.823303 -0.099708
v 0.130467 0.833439 0.000000
v -0.049208 0.823271 -0.070504
v 0.101326 0.832081 0.070504
v 0.095512 0.018298 0.060008
v 0.095530 0.187376 0.060709
v 0.100133 0.209011 0.061411
v 0.094524 0.392278 0.062112
v 0.086340 0.427853 0.062814
v 0.101213 0.624620 0.063515
v 0.099877 0.647699 0.064216
v 0.095512 0.018298 -0.060008
v 0.095530 0.187376 -0.060709
v 0.100133 0.209011 -0.061411
v 0.094524 0.392278 -0.062112
v 0.086212 0.427222 -0.062814
v 0.101213 0.624620 -0.063515
v 0.099877 0.647699 -0.064217
v 0.126477 0.651560 -0.000000
v 0.127534 0.631273 -0.000000
v 0.114649 0.436574 -0.000000
v 0.119668 0.386830 -0.000000
v 0.125539 0.207773 -0.000000
v 0.120328 0.191544 -0.000000
v 0.119535 0.024677 -0.000000
v 0.112911 0.039692 0.078010
v 0.113490 0.167992 0.078922
v 0.112911 0.039692 -0.078010
v 0.113490 0.167992 -0.078922
v 0.142948 0.164144 -0.000000
v 0.137654 0.056327 -0.000000
v 0.111752 0.232367 0.079834
v 0.113239 0.361816 0.080746
v 0.111752 0.232367 -0.079834
v 0.113239 0.361816 -0.080746
v 0.140741 0.343046 -0.000000
v 0.144781 0.230758 -0.000000
v 0.104019 0.455919 0.081658
v 0.110346 0.590382 0.082570
v 0.104019 0.455919 -0.081658
v 0.110346 0.590382 -0.082570
v 0.147860 0.594842 -0.000000
v 0.136070 0.471783 -0.000000
v -0.044098 0.824913 0.070504
v -0.073301 0.807677 -0.000000
v 0.154810 0.802492 -0.000000
v 0.153721 0.704781 -0.000000
v 0.119142 0.688045 -0.083482
v 0.119142 0.688045 0.083481
v 0.119912 0.802492 0.084251
v 0.119912 0.802492 -0.084251
v 0.035661 0.635469 -0.090816
v 0.035661 0.610529 -0.089824
v 0.033975 0.428592 -0.088832
v 0.029864 0.404858 -0.087840
v 0.037671 0.200384 -0.086848
v 0.035661 0.177311 -0.085856
v 0.037514 0.002897 -0.084864
v -0.020483 -0.012503 0.060008
v -0.024209 0.167247 0.060709
v -0.024351 0.214948 0.061411
v -0.030513 0.404347 0.062112
v -0.027153 0.426694 0.062814
v -0.027855 0.590576 0.063515
v -0.030487 0.614228 0.064216
v 0.035661 0.635469 0.090816
v 0.035661 0.610529 0.089824
v 0.033975 0.428592 0.088832
v 0.029864 0.404858 0.087840
v 0.037671 0.200384 0.086848
v 0.035661 0.177311 0.085856
v 0.037514 0.002897 0.084864
v -0.020483 -0.012503 -0.060008
v -0.024209 0.167247 -0.060709
v -0.024351 0.214948 -0.061411
v -0.030513 0.404347 -0.062112
v -0.027153 0.427338 -0.062814
v -0.027855 0.590576 -0.063515
v -0.028556 0.614228 -0.064217
v -0.055155 0.608436 -0.000000
v -0.054163 0.590576 -0.000000
v -0.053171 0.423914 -0.000000
v -0.055632 0.403465 -0.000000
v -0.048841 0.221824 -0.000000
v -0.049007 0.163078 -0.000000
v -0.044507 -0.018882 -0.000000
v 0.035661 0.154909 -0.111612
v 0.037514 0.019671 -0.110323
v -0.037883 0.015763 0.078010
v -0.042169 0.141825 0.078922
v 0.035661 0.154909 0.111612
v 0.037514 0.019671 0.110323
v -0.037883 0.015763 -0.078010
v -0.042169 0.141825 -0.078922
v -0.068846 0.122503 -0.000000
v -0.064479 0.010821 -0.000000
v 0.030369 0.378342 -0.114192
v 0.037192 0.225563 -0.112902
v -0.042568 0.245106 0.079834
v -0.048201 0.381860 0.080746
v 0.030369 0.378342 0.114192
v 0.037192 0.225563 0.112902
v -0.042568 0.245106 -0.079834
v -0.048201 0.381860 -0.080746
v -0.078958 0.370588 -0.000000
v -0.068477 0.267291 -0.000000
v 0.035661 0.578683 -0.116771
v 0.036679 0.441957 -0.115481
v -0.045997 0.450866 0.081658
v -0.046909 0.558730 0.082570
v 0.035661 0.578683 0.116771
v 0.036679 0.441957 0.115481
v -0.045997 0.449362 -0.081658
v -0.046909 0.558730 -0.082570
v -0.081111 0.547144 -0.000000
v -0.083690 0.449372 -0.000000
v 0.034839 0.824977 0.099708
v 0.034839 0.824977 -0.099708
v 0.105343 0.839733 -0.070504
v 0.105343 0.839733 0.070504
v 0.134547 0.839733 -0.000000
v 0.035661 0.784859 -0.119149
v 0.035661 0.675816 -0.118061
v 0.035661 0.784859 0.119149
v 0.035661 0.675816 0.118061
v -0.093564 0.764186 -0.000000
v -0.082400 0.648782 -0.000000
v -0.047821 0.648782 -0.083482
v -0.047821 0.648782 0.083481
v -0.058667 0.784783 0.084251
v -0.058667 0.784783 -0.084251
v 0.036995 -0.029460 -0.084533
v 0.032857 -0.187045 -0.084202
v 0.036995 -0.029460 0.084533
v 0.032857 -0.187045 0.084202
v 0.122105 -0.003558 -0.000000
v 0.117319 -0.166930 -0.000000
v 0.092983 -0.164312 0.059540
v 0.097531 -0.003353 0.059774
v 0.092983 -0.164312 -0.059540
v 0.097531 -0.003353 -0.059774
v -0.046906 -0.028761 -0.000000
v -0.050486 -0.193209 -0.000000
v -0.026075 -0.191403 0.059540
v -0.022332 -0.028966 0.059774
v -0.026075 -0.191403 -0.059540
v -0.022332 -0.028966 -0.059774
v 0.047433 -0.039525 -0.100961
v 0.033140 -0.165596 -0.100566
v 0.043082 -0.043876 0.100961
v 0.033140 -0.165596 0.100566
v 0.140807 -0.032117 -0.000000
v 0.137296 -0.149195 -0.000000
v 0.108320 -0.145607 0.071111
v 0.108520 -0.024452 0.071390
v 0.108320 -0.145607 -0.071111
v 0.108520 -0.024452 -0.071390
v -0.066488 -0.049827 -0.000000
v -0.066379 -0.171350 -0.000000
v -0.037231 -0.169664 0.071111
v -0.033579 -0.045402 0.071390
v -0.037231 -0.169664 -0.071111
v -0.033579 -0.045402 -0.071390
v -0.044098 0.824913 -0.070504
v -0.012688 1.244049 0.099708
v 0.029728 4.613631 0.099708
v -0.012688 1.244049 -0.099708
v 0.029728 4.613631 -0.099708
v -0.091624 1.244036 -0.070504
v -0.049208 4.613628 -0.070504
v 0.059274 1.248503 0.070504
v 0.102055 4.615031 0.070504
v -0.049208 4.613628 0.070504
v -0.091624 1.244035 0.070504
v -0.078412 4.612789 0.000000
v -0.120828 1.240264 0.000000
v 0.102055 4.615031 -0.070504
v 0.059274 1.248503 -0.070504
v 0.131153 4.615692 0.000000
v 0.088394 1.249692 0.000000
v 0.029728 5.120367 0.099708
v 0.029728 5.120367 -0.099708
v -0.049208 5.120363 -0.070504
v 0.102055 5.121767 0.070504
v -0.049208 5.120363 0.070504
v -0.078412 5.119524 0.000000
v 0.102055 5.121767 -0.070504
v 0.131153 5.122427 0.000000
v -0.031431 2.654938 0.099708
v -0.031431 2.654938 -0.099708
v -0.110368 2.654927 -0.070504
v 0.040713 2.658737 0.070504
v -0.110368 2.654927 0.070504
v -0.139571 2.652098 0.000000
v 0.040713 2.658737 -0.070504
v 0.069822 2.660074 0.000000
v 0.132657 5.055246 0.104221
v 0.102055 4.952854 0.070504
v 0.136203 4.858767 0.103447
v 0.122428 5.279695 0.000000
v 0.129646 4.685396 0.098935
v 0.169590 4.680767 0.000000
v -0.069686 5.277033 0.000000
v 0.178595 4.855884 0.000000
v 0.131153 4.953516 0.000000
v 0.173231 5.062950 0.000000
v -0.079911 5.018070 0.104221
v -0.049208 4.951452 0.070504
v -0.083227 4.876693 0.103447
v 0.095752 5.279089 0.064633
v -0.076643 4.712218 0.098935
v 0.030525 4.697231 0.139916
v -0.042914 5.277803 -0.064633
v 0.030946 4.866284 0.146296
v 0.029728 4.951455 0.099708
v 0.031610 5.036440 0.147391
v -0.120489 5.010089 0.000000
v -0.078412 4.950612 0.000000
v -0.125854 4.879332 0.000000
v 0.029449 5.277806 -0.091404
v -0.116848 4.716625 0.000000
v 0.132657 5.055246 -0.104221
v 0.102055 4.952854 -0.070504
v 0.136203 4.858767 -0.103447
v 0.095752 5.279089 -0.064633
v 0.129646 4.685396 -0.098935
v 0.030525 4.697231 -0.139916
v 0.029449 5.277806 0.091404
v 0.030946 4.866284 -0.146296
v 0.029728 4.951455 -0.099708
v 0.031610 5.036440 -0.147391
v -0.076643 4.712218 -0.098935
v -0.042914 5.277803 0.064633
v -0.083227 4.876693 -0.103447
v -0.049208 4.951452 -0.070504
v -0.079911 5.018070 -0.104221
v 0.029705 5.652330 0.058524
v 0.029705 5.652330 -0.058524
v -0.048948 5.652327 -0.041383
v 0.101772 5.653730 0.041383
v -0.048948 5.652327 0.041383
v -0.078047 5.651487 0.000000
v 0.101772 5.653730 -0.041383
v 0.130767 5.654391 0.000000
v -0.095426 5.554554 0.114864
v -0.049208 5.475006 0.070504
v -0.070119 5.402557 0.090516
v -0.064484 5.297561 0.084755
v -0.076289 5.208805 0.095767
v 0.030932 5.208809 0.135435
v 0.030407 5.297565 0.119862
v 0.030797 5.407519 0.128009
v 0.029728 5.475009 0.099708
v 0.032039 5.563683 0.162442
v 0.148266 5.574302 -0.114864
v 0.102055 5.476408 -0.070504
v 0.122956 5.413852 -0.090516
v 0.117353 5.299247 -0.084755
v 0.129174 5.210711 -0.095767
v 0.030932 5.208809 -0.135435
v 0.030407 5.297565 -0.119862
v 0.030797 5.407519 -0.128009
v 0.029728 5.475009 -0.099708
v 0.032039 5.563683 -0.162442
v -0.076289 5.208805 -0.095767
v -0.064484 5.297561 -0.084755
v -0.070119 5.402557 -0.090516
v -0.049208 5.475006 -0.070504
v -0.095426 5.554555 -0.114864
v 0.129174 5.210711 0.095767
v 0.117353 5.299247 0.084755
v 0.122956 5.413853 0.090516
v 0.102055 5.476409 0.070504
v 0.148266 5.574302 0.114864
v -0.142246 5.549824 0.000000
v -0.078412 5.474166 0.000000
v -0.107271 5.399650 0.000000
v -0.099591 5.296552 0.000000
v -0.115957 5.207665 0.000000
v 0.194988 5.578733 0.000000
v 0.131153 5.477070 0.000000
v 0.160013 5.416525 0.000000
v 0.152333 5.300042 0.000000
v 0.168699 5.211608 0.000000
v 0.100167 4.754700 0.069467
v 0.128603 4.753882 0.000000
v -0.047292 4.760931 0.069467
v 0.029532 4.756970 0.098241
v -0.075861 4.761582 0.000000
v 0.100167 4.754700 -0.069467
v 0.029532 4.756970 -0.098241
v -0.047292 4.760931 -0.069467
v 0.100437 4.651291 0.070126
v -0.047543 4.661811 0.070126
v -0.076269 4.663288 0.000000
v 0.100437 4.651291 -0.070126
v 0.129011 4.649649 0.000000
v 0.029480 4.655610 0.099173
v 0.029480 4.655610 -0.099173
v -0.047543 4.661811 -0.070126
v 0.098128 4.793951 0.067178
v 0.125765 4.793450 0.000000
v -0.045262 4.798479 0.067178
v 0.029467 4.795425 0.095004
v -0.073023 4.798814 0.000000
v 0.098128 4.793951 -0.067178
v 0.029467 4.795425 -0.095004
v -0.045262 4.798479 -0.067178
v 0.098740 4.919705 0.067749
v 0.126613 4.919208 0.000000
v -0.045873 4.924238 0.067749
v 0.029494 4.921176 0.095812
v -0.073871 4.924570 0.000000
v 0.098740 4.919705 -0.067749
v 0.029494 4.921176 -0.095812
v -0.045873 4.924238 -0.067749
v 0.125583 5.106281 0.000000
v 0.029666 5.099191 0.096070
v 0.029666 5.099191 -0.096070
v -0.045267 5.095193 -0.067932
v 0.098077 5.104181 0.067932
v -0.045267 5.095193 0.067932
v -0.072842 5.092918 0.000000
v 0.098077 5.104181 -0.067932
v -0.049202 5.428466 0.070776
v 0.029805 5.431202 0.100093
v 0.102027 5.435107 -0.070776
v 0.029805 5.431202 -0.100093
v -0.049202 5.428466 -0.070776
v 0.102027 5.435107 0.070776
v -0.078330 5.426616 0.000000
v 0.131072 5.436777 0.000000
v 0.272239 5.771644 0.000000
v 0.217875 5.781004 0.040978
v 0.034238 5.769583 0.057952
v -0.219519 5.768741 0.000000
v -0.164908 5.779601 -0.040978
v 0.034238 5.769583 -0.057952
v 0.217875 5.781004 -0.040978
v -0.164908 5.779601 0.040978
v 0.143219 7.066439 0.000000
v 0.124184 7.072770 0.041383
v 0.025623 7.083023 0.058524
v -0.142619 7.070527 0.000000
v -0.103989 7.083019 -0.041383
v 0.025623 7.083023 -0.058524
v 0.124183 7.072770 -0.041383
v -0.103989 7.083019 0.041383
v 0.142854 7.299543 0.000000
v 0.108349 7.298883 0.036499
v 0.022584 7.297483 0.051618
v -0.105649 7.296640 0.000000
v -0.071019 7.297480 -0.036499
v 0.022584 7.297483 -0.051618
v 0.108349 7.298883 -0.036499
v -0.071019 7.297480 0.036499
v 0.089204 7.430981 0.000000
v 0.069338 7.394896 0.026591
v 0.019960 7.393496 0.037605
v -0.053868 7.428078 0.000000
v -0.033930 7.393493 -0.026591
v 0.019960 7.393496 -0.037605
v 0.069338 7.394896 -0.026591
v -0.033930 7.393493 0.026591
v 0.015902 7.561881 0.000000
v 0.016075 7.498421 0.012678
v 0.016075 7.498421 -0.012678
v -0.100464 7.105950 0.040861
v -0.146992 7.105110 0.000000
v 0.140529 7.107352 -0.040861
v 0.186889 7.108014 0.000000
v -0.100464 7.105950 -0.040861
v 0.140529 7.107352 0.040861
v 0.025298 7.105952 0.057786
v 0.025298 7.105952 -0.057786
v 0.194141 7.052618 0.000000
v 0.146198 7.052205 0.041373
v 0.025836 7.050557 0.058510
v -0.105495 7.050801 0.041373
v 0.025836 7.050557 -0.058510
v 0.146198 7.052205 -0.041373
v -0.105495 7.050801 -0.041373
v -0.153612 7.049715 0.000000
v 0.184287 6.402798 0.041163
v -0.137067 6.375290 0.041163
v 0.184287 6.402798 -0.041163
v -0.188635 6.369009 0.000000
v 0.235642 6.395658 0.000000
v 0.030301 6.369852 0.058213
v 0.030301 6.369852 -0.058213
v -0.137067 6.375290 -0.041163
v 0.143833 6.370226 0.041154
v -0.138400 6.346771 0.041154
v 0.143833 6.370226 -0.041154
v -0.190114 6.340271 0.000000
v 0.167365 6.369442 0.000000
v 0.030489 6.341114 0.058201
v 0.030489 6.341114 -0.058201
v -0.138400 6.346771 -0.041154
v 0.187136 6.327343 0.041147
v -0.139428 6.324772 0.041147
v 0.187135 6.327343 -0.041147
v -0.165525 6.318104 0.000000
v 0.238745 6.319624 0.000000
v 0.030635 6.318946 0.058191
v 0.030635 6.318946 -0.058191
v -0.139428 6.324772 -0.041147
v 0.136246 6.291141 0.041141
v -0.140456 6.302772 0.041141
v 0.136245 6.291141 -0.041141
v -0.192395 6.295934 0.000000
v 0.163356 6.281497 0.000000
v 0.030780 6.296776 0.058181
v 0.030780 6.296776 -0.058181
v -0.140456 6.302772 -0.041141
v 0.189938 6.253113 0.041132
v -0.141751 6.275075 0.041132
v 0.189937 6.253113 -0.041132
v -0.193831 6.268023 0.000000
v 0.241799 6.244822 0.000000
v 0.030963 6.268866 0.058169
v 0.030963 6.268866 -0.058169
v -0.141751 6.275075 -0.041132
vn 0.1351 -0.0627 -0.9889
vn -0.1236 -0.0524 -0.9910
vn 0.1351 -0.0627 0.9889
vn -0.1236 -0.0524 0.9910
vn -0.1302 0.0022 0.9915
vn 0.1569 0.0653 -0.9855
vn -0.1302 0.0022 -0.9915
vn 0.1569 0.0653 0.9855
vn 0.1842 0.1607 0.9697
vn -0.1444 0.0373 0.9888
vn 0.1567 0.0414 -0.9868
vn -0.1444 0.0373 -0.9888
vn 0.1567 0.0414 0.9868
vn -0.1954 0.2198 0.9558
vn -0.1724 0.1522 0.9732
vn 0.1842 0.1607 -0.9697
vn -0.1724 0.1522 -0.9732
vn 0.2054 0.2334 -0.9504
vn -0.1954 0.2198 -0.9558
vn 0.2054 0.2334 0.9504
vn 0.1564 -0.0219 0.9874
vn -0.1321 0.0364 -0.9906
vn 0.1564 -0.0219 -0.9874
vn -0.1321 0.0364 0.9906
vn 0.1232 0.0036 0.9924
vn -0.1137 0.0019 -0.9935
vn 0.1232 0.0036 -0.9924
vn -0.1137 0.0019 0.9935
vn -0.1008 0.0016 0.9949
vn 0.1482 -0.0977 -0.9841
vn -0.1008 0.0016 -0.9949
vn 0.1482 -0.0977 0.9841
vn 0.1145 0.0762 0.9905
vn -0.1000 0.0016 -0.9950
vn 0.1145 0.0762 -0.9905
vn -0.1000 0.0016 0.9950
vn -0.0993 0.0016 0.9951
vn 0.1294 -0.1127 -0.9852
vn -0.0993 0.0016 -0.9951
vn 0.1294 -0.1127 0.9852
vn 0.1358 0.1107 0.9845
vn -0.0985 0.0016 -0.9951
vn 0.1358 0.1107 -0.9845
vn -0.0985 0.0016 0.9951
vn -0.0910 0.0014 0.9958
vn 0.0988 0.0028 -0.9951
vn -0.0910 0.0014 -0.9958
vn 0.0988 0.0028 0.9951
vn 0.6754 0.6886 -0.2640
vn 0.3527 -0.6749 0.6481
vn 0.8350 0.5033 0.2224
vn 0.2317 0.5771 0.7831
vn 0.7281 -0.6095 -0.3135
vn 0.4161 -0.7593 0.5003
vn 0.8093 0.4418 -0.3872
vn 0.6754 0.6886 0.2640
vn 0.7281 -0.6095 0.3135
vn 0.7879 -0.5888 -0.1802
vn 0.3902 0.6480 -0.6541
vn 0.3536 -0.7650 0.5383
vn 0.7879 -0.5888 0.1802
vn 0.8093 0.4418 0.3872
vn 0.3916 -0.0058 -0.9201
vn 0.3916 -0.0058 0.9201
vn 0.9455 -0.0248 -0.3245
vn 0.9455 -0.0248 0.3245
vn 0.1472 0.7463 0.6491
vn 0.4161 -0.7593 -0.5003
vn 0.1472 0.7463 -0.6491
vn 0.3892 0.0002 -0.9212
vn 0.3892 0.0002 0.9212
vn 0.9361 0.0086 -0.3518
vn 0.9361 0.0086 0.3518
vn 0.8350 0.5033 -0.2224
vn 0.3902 0.6480 0.6541
vn 0.3527 -0.6749 -0.6481
vn 0.4342 -0.0158 -0.9007
vn 0.4342 -0.0158 0.9007
vn 0.9217 -0.0662 -0.3822
vn 0.9217 -0.0662 0.3822
vn 0.3527 -0.7610 -0.5446
vn 0.2317 0.5771 -0.7831
vn 0.7936 -0.5607 0.2361
vn 0.7957 -0.5579 -0.2358
vn -0.3170 0.4083 -0.8560
vn 0.3982 -0.5276 0.7504
vn 0.8354 -0.4729 -0.2801
vn 0.8354 -0.4729 0.2801
vn 0.3840 -0.0090 -0.9233
vn 0.3840 -0.0090 0.9233
vn 0.9242 -0.0095 -0.3819
vn 0.9242 -0.0095 0.3819
vn 0.3982 -0.5276 -0.7504
vn -0.8746 0.4075 -0.2627
vn -0.8211 0.5293 -0.2137
vn -0.4181 -0.6507 0.6339
vn -0.7410 0.6285 0.2364
vn -0.4398 0.6086 0.6604
vn -0.8539 -0.4777 -0.2064
vn -0.1836 -0.7184 0.6710
vn -0.7854 0.5512 -0.2816
vn -0.8211 0.5293 0.2137
vn -0.8539 -0.4777 0.2064
vn -0.7472 -0.5816 -0.3217
vn -0.2666 0.7009 -0.6616
vn -0.2691 -0.7876 0.5544
vn -0.7472 -0.5816 0.3217
vn -0.7854 0.5512 0.2816
vn -0.3889 -0.0169 -0.9211
vn -0.3889 -0.0169 0.9211
vn -0.9446 -0.0356 -0.3262
vn -0.9446 -0.0356 0.3262
vn -0.3734 0.7000 0.6088
vn -0.1836 -0.7184 -0.6710
vn -0.3734 0.7000 -0.6088
vn -0.3901 -0.0238 -0.9204
vn -0.3901 -0.0238 0.9204
vn -0.9424 -0.0645 -0.3282
vn -0.9424 -0.0645 0.3282
vn -0.7410 0.6285 -0.2364
vn -0.2666 0.7009 0.6616
vn -0.4181 -0.6507 -0.6339
vn -0.3799 -0.0113 -0.9250
vn -0.3800 -0.0113 0.9249
vn -0.9162 0.0056 -0.4007
vn -0.9162 0.0057 0.4006
vn -0.2570 -0.8049 -0.5349
vn -0.4398 0.6086 -0.6604
vn -0.6193 -0.7278 0.2946
vn -0.6059 -0.7429 -0.2847
vn 0.2692 0.4245 -0.8645
vn -0.1595 -0.5471 0.8217
vn 0.8254 0.4491 -0.3419
vn -0.7589 -0.5577 -0.3362
vn -0.7712 -0.5440 0.3307
vn -0.3170 0.4083 0.8560
vn -0.3608 -0.0230 -0.9324
vn -0.3608 -0.0230 0.9324
vn -0.9172 -0.0815 -0.3899
vn -0.9172 -0.0815 0.3899
vn -0.1597 -0.5501 -0.8197
vn -0.8746 0.4075 0.2627
vn -0.6958 0.6598 -0.2837
vn 0.6380 -0.7117 -0.2941
vn -0.7616 -0.5594 -0.3272
vn 0.7834 0.5403 0.3072
vn -0.6958 0.6598 0.2837
vn 0.6380 -0.7117 0.2941
vn 0.0820 0.6972 -0.7121
vn -0.7616 -0.5594 0.3272
vn -0.9170 0.0128 0.3988
vn -0.9170 0.0128 -0.3988
vn -0.3731 0.0181 0.9276
vn -0.3645 0.0236 -0.9309
vn 0.9182 -0.0148 0.3959
vn 0.9182 -0.0148 -0.3959
vn 0.3915 -0.0189 0.9200
vn 0.4030 -0.0261 -0.9148
vn 0.7834 0.5403 -0.3072
vn -0.2853 -0.5701 0.7704
vn 0.4521 -0.6212 0.6401
vn -0.2795 0.6710 0.6868
vn 0.0943 0.6445 0.7588
vn -0.2853 -0.5701 -0.7704
vn 0.4521 -0.6212 -0.6401
vn -0.2805 0.7017 -0.6550
vn 0.8254 0.4491 0.3419
vn 0.2692 0.4245 0.8645
vn 0.4160 -0.7593 0.5003
vn 0.8093 0.4417 -0.3872
vn 0.8093 0.4417 0.3872
vn 0.2693 0.4245 -0.8645
vn 0.2693 0.4245 0.8645
vn 0.2114 -0.7056 0.6763
vn -0.2680 0.7213 0.6386
vn 0.2817 -0.5769 0.7667
vn 0.3906 -0.4229 0.8177
vn -0.7561 -0.5878 -0.2878
vn 0.7815 0.5311 0.3275
vn -0.7903 -0.5244 -0.3169
vn -0.7740 -0.5366 -0.3362
vn -0.3381 -0.6309 -0.6984
vn -0.7881 0.5257 -0.3202
vn -0.3289 -0.5368 -0.7769
vn -0.2666 -0.4948 -0.8271
vn 0.5958 -0.7566 -0.2695
vn 0.7815 0.5311 -0.3275
vn 0.7291 -0.6096 -0.3113
vn 0.8748 -0.3530 -0.3319
vn 0.2114 -0.7056 -0.6763
vn -0.7881 0.5257 0.3202
vn 0.2817 -0.5769 -0.7667
vn 0.3906 -0.4229 -0.8177
vn -0.7561 -0.5878 0.2878
vn 0.3121 0.5158 0.7978
vn -0.7903 -0.5244 0.3169
vn -0.7740 -0.5366 0.3362
vn -0.3381 -0.6309 0.6984
vn -0.2987 0.5088 -0.8074
vn -0.3289 -0.5368 0.7769
vn -0.2666 -0.4948 0.8271
vn 0.5958 -0.7566 0.2695
vn 0.3122 0.5158 -0.7978
vn 0.7291 -0.6096 0.3113
vn 0.8748 -0.3530 0.3319
vn -0.2424 0.6983 0.6735
vn 0.1766 0.7383 -0.6509
vn -0.2424 0.6983 -0.6735
vn 0.1766 0.7383 0.6509
vn -0.7589 0.5498 0.3491
vn 0.6766 0.6484 -0.3490
vn -0.7589 0.5498 -0.3491
vn 0.6766 0.6484 0.3490
vn 0.8625 -0.3631 0.3526
vn 0.9236 -0.0625 0.3783
vn 0.8004 -0.5110 0.3133
vn -0.8584 -0.3656 -0.3599
vn -0.9217 -0.0695 -0.3816
vn -0.7285 -0.6072 -0.3170
vn 0.8625 -0.3631 -0.3526
vn 0.9236 -0.0625 -0.3783
vn 0.8004 -0.5110 -0.3133
vn -0.8584 -0.3656 0.3599
vn -0.9217 -0.0695 0.3816
vn -0.7285 -0.6072 0.3170
vn 0.3560 -0.3542 0.8648
vn 0.3774 -0.0673 0.9236
vn 0.3480 -0.5332 0.7711
vn -0.3250 -0.3504 -0.8784
vn -0.3453 -0.0690 -0.9360
vn -0.2653 -0.5661 -0.7805
vn 0.3560 -0.3542 -0.8648
vn 0.3774 -0.0673 -0.9236
vn 0.3480 -0.5332 -0.7711
vn -0.3250 -0.3504 0.8784
vn -0.3453 -0.0690 0.9360
vn -0.2653 -0.5661 0.7805
vn 0.8218 0.4725 0.3184
vn -0.2374 0.5755 0.7826
vn -0.7111 0.6313 0.3094
vn 0.3622 0.5142 -0.7775
vn 0.8218 0.4725 -0.3184
vn -0.2374 0.5755 -0.7826
vn -0.7111 0.6313 -0.3094
vn 0.3622 0.5142 0.7775
vn -0.2987 0.5088 0.8074
vn 0.7354 0.6126 0.2897
vn -0.2172 0.6719 0.7081
vn -0.6374 0.7197 0.2754
vn 0.3194 0.6324 -0.7058
vn 0.7354 0.6126 -0.2897
vn -0.2172 0.6719 -0.7081
vn -0.6374 0.7197 -0.2754
vn 0.3194 0.6324 0.7057
vn 0.2175 0.6455 0.7322
vn -0.8205 0.4892 -0.2957
vn -0.3545 0.5545 -0.7529
vn 0.6517 0.6978 -0.2974
vn 0.2175 0.6455 -0.7322
vn -0.8205 0.4892 0.2957
vn -0.3545 0.5545 0.7529
vn 0.6517 0.6978 0.2974
vn 0.2048 0.7574 -0.6200
vn -0.2680 0.7213 -0.6386
vn 0.2048 0.7574 0.6200
vn -0.6566 0.7120 0.2488
vn 0.5589 0.7906 -0.2503
vn -0.6566 0.7120 -0.2488
vn 0.5589 0.7906 0.2503
vn 0.3858 0.0011 -0.9226
vn 0.3925 -0.0927 -0.9150
vn 0.4050 0.0026 -0.9143
vn 0.3813 -0.0220 -0.9242
vn 0.3858 0.0011 0.9226
vn 0.3925 -0.0927 0.9150
vn 0.4046 0.0017 0.9145
vn 0.3813 -0.0220 0.9242
vn 0.9219 0.0830 -0.3783
vn 0.8999 -0.2400 -0.3642
vn 0.9084 0.1397 -0.3940
vn 0.9216 0.0446 -0.3855
vn 0.9219 0.0830 0.3783
vn 0.8999 -0.2400 0.3642
vn 0.9093 0.1375 0.3927
vn 0.9216 0.0446 0.3855
vn 0.4948 -0.8690 0.0000
vn 0.8663 -0.4995 0.0000
vn -0.3904 0.0083 -0.9206
vn -0.3836 -0.0120 -0.9234
vn -0.3920 0.0294 -0.9195
vn -0.3720 -0.0377 -0.9275
vn -0.3904 0.0083 0.9206
vn -0.3836 -0.0120 0.9234
vn -0.3921 0.0298 0.9194
vn -0.3631 -0.0521 0.9303
vn -0.9194 0.1450 -0.3656
vn -0.9273 -0.0023 -0.3742
vn -0.9205 0.1173 -0.3728
vn -0.9223 -0.0441 -0.3840
vn -0.9194 0.1450 0.3656
vn -0.9273 -0.0023 0.3742
vn -0.9201 0.1190 0.3731
vn -0.9239 -0.0870 0.3727
vn 0.1585 -0.9874 0.0000
vn -0.9122 -0.1731 0.3714
vn -0.4182 -0.0549 -0.9067
vn 0.8795 0.2950 0.3734
vn 0.3076 0.1152 -0.9445
vn -0.4182 -0.0549 0.9067
vn -0.9149 -0.1388 0.3791
vn -0.9149 -0.1388 -0.3791
vn -0.3814 -0.0666 0.9220
vn -0.3814 -0.0666 -0.9220
vn 0.9242 0.0446 0.3793
vn 0.9242 0.0446 -0.3793
vn 0.3778 0.0198 0.9257
vn 0.3778 0.0198 -0.9257
vn -0.9122 -0.1731 -0.3714
vn 0.3076 0.1152 0.9445
vn 0.8795 0.2950 -0.3734
vn 0.9152 0.1334 0.3802
vn -0.9231 -0.0386 0.3826
vn 0.3799 0.0829 -0.9213
vn 0.9152 0.1334 -0.3802
vn -0.9231 -0.0386 -0.3826
vn 0.3799 0.0829 0.9213
vn -0.3830 0.0115 0.9237
vn -0.3830 0.0115 -0.9237
vn 0.2539 0.3882 -0.8859
vn 0.8554 0.3870 -0.3444
vn -0.3344 0.4693 -0.8173
vn -0.8117 0.5240 -0.2579
vn 0.2539 0.3882 0.8859
vn 0.8554 0.3870 0.3444
vn -0.3344 0.4693 0.8173
vn -0.8117 0.5240 0.2579
vn 0.9196 0.0929 0.3816
vn 0.9241 -0.0290 0.3811
vn 0.3736 0.0377 0.9268
vn 0.3752 -0.0117 0.9269
vn -0.9171 -0.0919 -0.3879
vn -0.9238 0.0288 -0.3819
vn -0.3468 -0.0350 -0.9373
vn -0.3470 0.0108 -0.9378
vn 0.9196 0.0929 -0.3816
vn 0.9241 -0.0290 -0.3811
vn 0.3736 0.0377 -0.9268
vn 0.3752 -0.0117 -0.9269
vn -0.9171 -0.0919 0.3879
vn -0.9238 0.0288 0.3819
vn -0.3468 -0.0350 0.9373
vn -0.3470 0.0108 0.9378
vn 0.8907 -0.2794 0.3586
vn -0.3416 -0.1528 0.9273
vn -0.9077 -0.1854 0.3765
vn 0.3780 -0.1847 -0.9072
vn 0.8907 -0.2794 -0.3586
vn -0.3416 -0.1528 -0.9273
vn -0.9077 -0.1854 -0.3765
vn 0.3780 -0.1847 0.9072
vn -0.3470 -0.0046 0.9379
vn -0.9236 -0.0123 0.3831
vn 0.3754 0.0050 -0.9269
vn 0.9241 0.0122 -0.3818
vn -0.3470 -0.0046 -0.9379
vn -0.9236 -0.0123 -0.3831
vn 0.3754 0.0050 0.9269
vn 0.9241 0.0122 0.3818
vn 0.3723 -0.1174 0.9206
vn -0.9127 -0.1545 -0.3782
vn -0.3473 -0.1262 -0.9292
vn 0.9177 -0.1223 -0.3780
vn 0.3723 -0.1174 -0.9206
vn -0.9127 -0.1545 0.3782
vn -0.3473 -0.1262 0.9292
vn 0.9177 -0.1223 0.3780
vn 0.5489 -0.8067 0.2190
vn 0.9247 0.0000 0.3806
vn -0.5319 -0.8150 -0.2300
vn -0.9243 0.0002 -0.3816
vn 0.5489 -0.8067 -0.2190
vn 0.9247 0.0000 -0.3806
vn -0.5319 -0.8150 0.2300
vn -0.9243 0.0002 0.3816
vn 0.2371 -0.8017 0.5487
vn 0.3750 0.0074 0.9270
vn -0.2081 -0.8001 -0.5626
vn -0.3475 0.0065 -0.9376
vn 0.2371 -0.8017 -0.5487
vn 0.3750 0.0074 -0.9270
vn -0.2081 -0.8001 0.5626
vn -0.3475 0.0065 0.9376
vn 0.9241 0.0515 0.3786
vn -0.3493 0.0150 0.9369
vn -0.9239 0.0371 0.3808
vn 0.3769 0.0198 -0.9260
vn 0.9241 0.0515 -0.3786
vn -0.3493 0.0150 -0.9369
vn -0.9239 0.0371 -0.3808
vn 0.3769 0.0198 0.9260
vn 0.9232 0.0681 0.3782
vn -0.3457 0.0769 0.9352
vn -0.9220 0.0716 0.3806
vn 0.3771 0.0759 -0.9231
vn 0.9232 0.0681 -0.3782
vn -0.3457 0.0769 -0.9352
vn -0.9220 0.0716 -0.3806
vn 0.3771 0.0759 0.9231
vn 0.4106 0.8709 0.2701
vn -0.5374 -0.5647 0.6264
vn 0.5450 -0.5730 -0.6121
vn -0.5374 -0.5647 -0.6264
vn 0.5450 -0.5730 0.6121
vn -0.6851 0.1348 0.7158
vn -0.6943 0.1635 0.7009
vn 0.4106 0.8709 -0.2701
vn -0.6943 0.1635 -0.7009
vn 0.6828 0.1440 -0.7162
vn -0.6851 0.1348 -0.7158
vn 0.6828 0.1440 0.7162
vn -0.6453 0.2830 0.7095
vn 0.6350 0.2899 -0.7161
vn -0.6453 0.2830 -0.7095
vn 0.6350 0.2899 0.7161
vn -0.4206 0.2617 0.8687
vn 0.3986 0.2672 -0.8773
vn -0.4206 0.2617 -0.8687
vn 0.3986 0.2672 0.8773
vn 0.6547 -0.5121 0.5559
vn -0.6944 -0.0037 -0.7196
vn 0.6547 -0.5121 -0.5559
vn -0.6944 -0.0037 0.7196
vn -0.6388 0.0312 -0.7687
vn 0.6403 0.0389 -0.7671
vn -0.6388 0.0312 0.7687
vn 0.6403 0.0389 0.7671
vn 0.4224 -0.7813 0.4595
vn -0.6253 0.0306 0.7798
vn 0.4224 -0.7813 -0.4595
vn -0.6253 0.0306 -0.7798
vn -0.6527 -0.3483 -0.6728
vn 0.5637 0.6974 -0.4426
vn -0.6527 -0.3483 0.6728
vn 0.5637 0.6974 0.4426
vn 0.4220 -0.7169 0.5549
vn -0.6881 0.4345 0.5812
vn 0.4220 -0.7169 -0.5549
vn -0.6881 0.4345 -0.5812
vn -0.6226 0.0304 -0.7820
vn 0.4736 0.8377 -0.2720
vn -0.6226 0.0304 0.7820
vn 0.4736 0.8377 0.2720
vn 0.6151 0.0379 0.7876
vn -0.6128 0.0300 0.7897
vn 0.6151 0.0379 -0.7876
vn -0.6128 0.0300 -0.7897
usemtl Steel
s off
f 431/1/1 426/1/1 526/1/1 527/1/1
f 426/1/2 427/1/2 525/1/2 526/1/2
f 425/1/3 428/1/3 522/1/3 523/1/3
f 429/1/4 425/1/4 523/1/4 528/1/4
f 567/1/5 566/1/5 531/1/5 536/1/5
f 569/1/6 568/1/6 534/1/6 535/1/6
f 568/1/7 570/1/7 533/1/7 534/1/7
f 566/1/8 565/1/8 530/1/8 531/1/8
f 539/1/9 538/1/9 546/1/9 547/1/9
f 556/1/10 562/1/10 539/1/10 544/1/10
f 558/1/11 563/1/11 542/1/11 543/1/11
f 563/1/12 560/1/12 541/1/12 542/1/12
f 562/1/13 561/1/13 538/1/13 539/1/13
f 552/1/14 547/1/14 554/1/14
f 544/1/15 539/1/15 547/1/15 552/1/15
f 543/1/16 542/1/16 550/1/16 551/1/16
f 542/1/17 541/1/17 549/1/17 550/1/17
f 551/1/18 550/1/18 555/1/18
f 550/1/19 549/1/19 555/1/19
f 547/1/20 546/1/20 554/1/20
f 531/1/21 530/1/21 561/1/21 562/1/21
f 534/1/22 533/1/22 560/1/22 563/1/22
f 535/1/23 534/1/23 563/1/23 558/1/23
f 536/1/24 531/1/24 562/1/24 556/1/24
f 577/1/25 572/1/25 565/1/25 566/1/25
f 578/1/26 579/1/26 570/1/26 568/1/26
f 574/1/27 578/1/27 568/1/27 569/1/27
f 573/1/28 577/1/28 566/1/28 567/1/28
f 581/1/29 585/1/29 577/1/29 573/1/29
f 582/1/30 586/1/30 578/1/30 574/1/30
f 586/1/31 587/1/31 579/1/31 578/1/31
f 585/1/32 580/1/32 572/1/32 577/1/32
f 593/1/33 588/1/33 580/1/33 585/1/33
f 594/1/34 595/1/34 587/1/34 586/1/34
f 590/1/35 594/1/35 586/1/35 582/1/35
f 589/1/36 593/1/36 585/1/36 581/1/36
f 597/1/37 601/1/37 593/1/37 589/1/37
f 598/1/38 602/1/38 594/1/38 590/1/38
f 602/1/39 603/1/39 595/1/39 594/1/39
f 601/1/40 596/1/40 588/1/40 593/1/40
f 609/1/41 604/1/41 596/1/41 601/1/41
f 610/1/42 611/1/42 603/1/42 602/1/42
f 606/1/43 610/1/43 602/1/43 598/1/43
f 605/1/44 609/1/44 601/1/44 597/1/44
f 528/1/45 523/1/45 609/1/45 605/1/45
f 527/1/46 526/1/46 610/1/46 606/1/46
f 526/1/47 525/1/47 611/1/47 610/1/47
f 523/1/48 522/1/48 604/1/48 609/1/48
usemtl LightWood
f 12/2/49 23/2/49 29/2/49 28/2/49
f 77/2/50 6/2/50 31/2/50 109/2/50
f 21/2/51 7/2/51 32/2/51 35/2/51
f 9/2/52 74/2/52 118/2/52 38/2/52
f 22/2/53 13/2/53 33/2/53 36/2/53
f 79/2/54 4/2/54 25/2/54 99/2/54
f 16/2/55 19/2/55 41/2/55 40/2/55
f 23/2/56 5/2/56 26/2/56 29/2/56
f 6/2/57 22/2/57 36/2/57 31/2/57
f 24/2/58 11/2/58 27/2/58 30/2/58
f 62/2/59 14/2/59 34/2/59 104/2/59
f 75/2/60 8/2/60 37/2/60 119/2/60
f 4/2/61 24/2/61 30/2/61 25/2/61
f 19/2/62 9/2/62 38/2/62 41/2/62
f 95/2/63 94/2/63 28/2/63 27/2/63
f 25/2/64 26/2/64 98/2/64 99/2/64
f 27/2/65 28/2/65 29/2/65 30/2/65
f 30/2/66 29/2/66 26/2/66 25/2/66
f 5/2/67 78/2/67 98/2/67 26/2/67
f 11/2/68 65/2/68 95/2/68 27/2/68
f 64/2/69 12/2/69 28/2/69 94/2/69
f 105/2/70 104/2/70 34/2/70 33/2/70
f 31/2/71 32/2/71 108/2/71 109/2/71
f 33/2/72 34/2/72 35/2/72 36/2/72
f 36/2/73 35/2/73 32/2/73 31/2/73
f 14/2/74 21/2/74 35/2/74 34/2/74
f 7/2/75 76/2/75 108/2/75 32/2/75
f 13/2/76 63/2/76 105/2/76 33/2/76
f 115/2/77 114/2/77 40/2/77 39/2/77
f 37/2/78 38/2/78 118/2/78 119/2/78
f 39/2/79 40/2/79 41/2/79 42/2/79
f 42/2/80 41/2/80 38/2/80 37/2/80
f 15/2/81 61/2/81 115/2/81 39/2/81
f 60/2/82 16/2/82 40/2/82 114/2/82
f 8/2/83 20/2/83 42/2/83 37/2/83
f 20/2/84 15/2/84 39/2/84 42/2/84
f 129/2/85 138/2/85 184/2/85 125/2/85
f 73/2/86 10/2/86 48/2/86 132/2/86
f 18/2/87 17/2/87 47/2/87 46/2/87
f 10/2/88 18/2/88 46/2/88 48/2/88
f 130/2/89 129/2/89 50/2/89 47/2/89
f 48/2/90 49/2/90 131/2/90 132/2/90
f 47/2/91 50/2/91 45/2/91 46/2/91
f 46/2/92 45/2/92 49/2/92 48/2/92
f 17/2/93 59/2/93 130/2/93 47/2/93
f 138/2/94 133/2/94 44/2/94 184/2/94
f 81/2/95 101/2/95 102/2/95 92/2/95
f 77/2/96 109/2/96 106/2/96 68/2/96
f 90/2/97 112/2/97 107/2/97 69/2/97
f 71/2/98 117/2/98 118/2/98 74/2/98
f 91/2/99 113/2/99 110/2/99 82/2/99
f 79/2/100 99/2/100 96/2/100 66/2/100
f 85/2/101 121/2/101 122/2/101 88/2/101
f 92/2/102 102/2/102 97/2/102 67/2/102
f 68/2/103 106/2/103 113/2/103 91/2/103
f 93/2/104 103/2/104 100/2/104 80/2/104
f 62/2/105 104/2/105 111/2/105 83/2/105
f 75/2/106 119/2/106 116/2/106 70/2/106
f 66/2/107 96/2/107 103/2/107 93/2/107
f 88/2/108 122/2/108 117/2/108 71/2/108
f 95/2/109 100/2/109 101/2/109 94/2/109
f 96/2/110 99/2/110 98/2/110 97/2/110
f 100/2/111 103/2/111 102/2/111 101/2/111
f 103/2/112 96/2/112 97/2/112 102/2/112
f 67/2/113 97/2/113 98/2/113 78/2/113
f 80/2/114 100/2/114 95/2/114 65/2/114
f 64/2/115 94/2/115 101/2/115 81/2/115
f 105/2/116 110/2/116 111/2/116 104/2/116
f 106/2/117 109/2/117 108/2/117 107/2/117
f 110/2/118 113/2/118 112/2/118 111/2/118
f 113/2/119 106/2/119 107/2/119 112/2/119
f 83/2/120 111/2/120 112/2/120 90/2/120
f 69/2/121 107/2/121 108/2/121 76/2/121
f 82/2/122 110/2/122 105/2/122 63/2/122
f 115/2/123 120/2/123 121/2/123 114/2/123
f 116/2/124 119/2/124 118/2/124 117/2/124
f 120/2/125 123/2/125 122/2/125 121/2/125
f 123/2/126 116/2/126 117/2/126 122/2/126
f 84/2/127 120/2/127 115/2/127 61/2/127
f 60/2/128 114/2/128 121/2/128 85/2/128
f 70/2/129 116/2/129 123/2/129 89/2/129
f 89/2/130 123/2/130 120/2/130 84/2/130
f 50/2/131 129/2/131 125/2/131 126/2/131
f 73/2/132 132/2/132 136/2/132 72/2/132
f 45/2/133 50/2/133 126/2/133 128/2/133
f 87/2/134 134/2/134 135/2/134 86/2/134
f 72/2/135 136/2/135 134/2/135 87/2/135
f 137/2/136 131/2/136 124/2/136 43/2/136
f 130/2/137 135/2/137 138/2/137 129/2/137
f 136/2/138 132/2/138 131/2/138 137/2/138
f 135/2/139 134/2/139 133/2/139 138/2/139
f 134/2/140 136/2/140 137/2/140 133/2/140
f 86/2/141 135/2/141 130/2/141 59/2/141
f 133/2/142 137/2/142 43/2/142 44/2/142
f 155/2/143 160/2/143 176/2/143 171/2/143
f 150/2/144 153/2/144 169/2/144 166/2/144
f 159/2/145 156/2/145 172/2/145 175/2/145
f 149/2/146 152/2/146 168/2/146 165/2/146
f 158/2/147 155/2/147 171/2/147 174/2/147
f 151/2/148 150/2/148 166/2/148 167/2/148
f 145/2/149 154/2/149 170/2/149 161/2/149
f 156/2/150 157/2/150 173/2/150 172/2/150
f 172/2/151 173/2/151 174/2/151 171/2/151
f 175/2/152 172/2/152 171/2/152 176/2/152
f 173/2/153 164/2/153 163/2/153 174/2/153
f 162/2/154 175/2/154 176/2/154 161/2/154
f 166/2/155 165/2/155 168/2/155 167/2/155
f 169/2/156 170/2/156 165/2/156 166/2/156
f 167/2/157 168/2/157 163/2/157 164/2/157
f 162/2/158 161/2/158 170/2/158 169/2/158
f 154/2/159 149/2/159 165/2/159 170/2/159
f 157/2/160 148/2/160 164/2/160 173/2/160
f 148/2/161 151/2/161 167/2/161 164/2/161
f 147/2/162 158/2/162 174/2/162 163/2/162
f 152/2/163 147/2/163 163/2/163 168/2/163
f 146/2/164 159/2/164 175/2/164 162/2/164
f 153/2/165 146/2/165 162/2/165 169/2/165
f 160/2/166 145/2/166 161/2/166 176/2/166
f 49/2/167 45/2/167 128/2/167 127/2/167
f 131/2/168 49/2/168 127/2/168 124/2/168
f 198/2/52 255/2/52 299/2/52 227/2/52
f 210/2/51 196/2/51 221/2/51 224/2/51
f 258/2/50 195/2/50 220/2/50 290/2/50
f 201/2/49 212/2/49 218/2/49 217/2/49
f 211/2/53 202/2/53 222/2/53 225/2/53
f 260/2/169 193/2/169 214/2/169 280/2/169
f 205/2/170 208/2/170 230/2/170 229/2/170
f 212/2/56 194/2/56 215/2/56 218/2/56
f 195/2/57 211/2/57 225/2/57 220/2/57
f 213/2/58 200/2/58 216/2/58 219/2/58
f 243/2/59 203/2/59 223/2/59 285/2/59
f 256/2/60 197/2/60 226/2/60 300/2/60
f 193/2/61 213/2/61 219/2/61 214/2/61
f 208/2/171 198/2/171 227/2/171 230/2/171
f 276/2/63 275/2/63 217/2/63 216/2/63
f 214/2/64 215/2/64 279/2/64 280/2/64
f 216/2/65 217/2/65 218/2/65 219/2/65
f 219/2/66 218/2/66 215/2/66 214/2/66
f 194/2/67 259/2/67 279/2/67 215/2/67
f 200/2/68 246/2/68 276/2/68 216/2/68
f 245/2/69 201/2/69 217/2/69 275/2/69
f 286/2/70 285/2/70 223/2/70 222/2/70
f 220/2/71 221/2/71 289/2/71 290/2/71
f 222/2/72 223/2/72 224/2/72 225/2/72
f 225/2/73 224/2/73 221/2/73 220/2/73
f 203/2/74 210/2/74 224/2/74 223/2/74
f 196/2/75 257/2/75 289/2/75 221/2/75
f 202/2/76 244/2/76 286/2/76 222/2/76
f 296/2/77 295/2/77 229/2/77 228/2/77
f 226/2/78 227/2/78 299/2/78 300/2/78
f 228/2/79 229/2/79 230/2/79 231/2/79
f 231/2/80 230/2/80 227/2/80 226/2/80
f 204/2/81 242/2/81 296/2/81 228/2/81
f 241/2/82 205/2/82 229/2/82 295/2/82
f 197/2/83 209/2/83 231/2/83 226/2/83
f 209/2/84 204/2/84 228/2/84 231/2/84
f 310/2/85 319/2/85 352/2/85 306/2/85
f 254/2/86 199/2/86 237/2/86 313/2/86
f 207/2/87 206/2/87 236/2/87 235/2/87
f 199/2/88 207/2/88 235/2/88 237/2/88
f 311/2/89 310/2/89 239/2/89 236/2/89
f 237/2/90 238/2/90 312/2/90 313/2/90
f 236/2/91 239/2/91 234/2/91 235/2/91
f 235/2/92 234/2/92 238/2/92 237/2/92
f 206/2/93 240/2/93 311/2/93 236/2/93
f 319/2/94 314/2/94 233/2/94 352/2/94
f 262/2/95 282/2/95 283/2/95 273/2/95
f 258/2/96 290/2/96 287/2/96 249/2/96
f 271/2/97 293/2/97 288/2/97 250/2/97
f 252/2/98 298/2/98 299/2/98 255/2/98
f 272/2/99 294/2/99 291/2/99 263/2/99
f 260/2/100 280/2/100 277/2/100 247/2/100
f 266/2/101 302/2/101 303/2/101 269/2/101
f 273/2/102 283/2/102 278/2/102 248/2/102
f 249/2/103 287/2/103 294/2/103 272/2/103
f 274/2/104 284/2/104 281/2/104 261/2/104
f 243/2/105 285/2/105 292/2/105 264/2/105
f 256/2/106 300/2/106 297/2/106 251/2/106
f 247/2/107 277/2/107 284/2/107 274/2/107
f 269/2/108 303/2/108 298/2/108 252/2/108
f 276/2/109 281/2/109 282/2/109 275/2/109
f 277/2/110 280/2/110 279/2/110 278/2/110
f 281/2/111 284/2/111 283/2/111 282/2/111
f 284/2/112 277/2/112 278/2/112 283/2/112
f 248/2/113 278/2/113 279/2/113 259/2/113
f 261/2/114 281/2/114 276/2/114 246/2/114
f 245/2/115 275/2/115 282/2/115 262/2/115
f 286/2/116 291/2/116 292/2/116 285/2/116
f 287/2/117 290/2/117 289/2/117 288/2/117
f 291/2/118 294/2/118 293/2/118 292/2/118
f 294/2/119 287/2/119 288/2/119 293/2/119
f 264/2/120 292/2/120 293/2/120 271/2/120
f 250/2/121 288/2/121 289/2/121 257/2/121
f 263/2/122 291/2/122 286/2/122 244/2/122
f 296/2/123 301/2/123 302/2/123 295/2/123
f 297/2/124 300/2/124 299/2/124 298/2/124
f 301/2/125 304/2/125 303/2/125 302/2/125
f 304/2/126 297/2/126 298/2/126 303/2/126
f 265/2/127 301/2/127 296/2/127 242/2/127
f 241/2/128 295/2/128 302/2/128 266/2/128
f 251/2/129 297/2/129 304/2/129 270/2/129
f 270/2/130 304/2/130 301/2/130 265/2/130
f 239/2/172 310/2/172 306/2/172 307/2/172
f 254/2/132 313/2/132 317/2/132 253/2/132
f 234/2/133 239/2/133 307/2/133 309/2/133
f 268/2/134 315/2/134 316/2/134 267/2/134
f 253/2/135 317/2/135 315/2/135 268/2/135
f 318/2/136 312/2/136 305/2/136 232/2/136
f 311/2/137 316/2/137 319/2/137 310/2/137
f 317/2/138 313/2/138 312/2/138 318/2/138
f 316/2/139 315/2/139 314/2/139 319/2/139
f 315/2/140 317/2/140 318/2/140 314/2/140
f 267/2/141 316/2/141 311/2/141 240/2/141
f 314/2/142 318/2/142 232/2/142 233/2/142
f 330/2/143 335/2/143 351/2/143 346/2/143
f 325/2/144 328/2/144 344/2/144 341/2/144
f 334/2/145 331/2/145 347/2/145 350/2/145
f 324/2/146 327/2/146 343/2/146 340/2/146
f 333/2/147 330/2/147 346/2/147 349/2/147
f 326/2/148 325/2/148 341/2/148 342/2/148
f 320/2/149 329/2/149 345/2/149 336/2/149
f 331/2/150 332/2/150 348/2/150 347/2/150
f 347/2/151 348/2/151 349/2/151 346/2/151
f 350/2/152 347/2/152 346/2/152 351/2/152
f 348/2/153 339/2/153 338/2/153 349/2/153
f 337/2/154 350/2/154 351/2/154 336/2/154
f 341/2/155 340/2/155 343/2/155 342/2/155
f 344/2/156 345/2/156 340/2/156 341/2/156
f 342/2/157 343/2/157 338/2/157 339/2/157
f 337/2/158 336/2/158 345/2/158 344/2/158
f 329/2/159 324/2/159 340/2/159 345/2/159
f 332/2/160 323/2/160 339/2/160 348/2/160
f 323/2/161 326/2/161 342/2/161 339/2/161
f 322/2/162 333/2/162 349/2/162 338/2/162
f 327/2/163 322/2/163 338/2/163 343/2/163
f 321/2/164 334/2/164 350/2/164 337/2/164
f 328/2/165 321/2/165 337/2/165 344/2/165
f 335/2/166 320/2/166 336/2/166 351/2/166
f 238/2/167 234/2/167 309/2/167 308/2/167
f 312/2/173 238/2/173 308/2/173 305/2/173
f 486/2/174 481/2/174 389/2/174 400/2/174
f 435/2/175 440/2/175 514/2/175 513/2/175
f 492/2/176 489/2/176 387/2/176 402/2/176
f 403/2/177 386/2/177 385/2/177 404/2/177
f 488/2/178 483/2/178 409/2/178 420/2/178
f 458/2/179 472/2/179 388/2/179 398/2/179
f 496/2/180 493/2/180 407/2/180 422/2/180
f 423/2/181 406/2/181 405/2/181 424/2/181
f 487/2/182 488/2/182 420/2/182 415/2/182
f 453/2/183 467/2/183 391/2/183 401/2/183
f 495/2/184 496/2/184 422/2/184 417/2/184
f 418/2/185 423/2/185 424/2/185 419/2/185
f 485/2/186 484/2/186 414/2/186 390/2/186
f 472/2/187 447/2/187 413/2/187 388/2/187
f 490/2/188 494/2/188 412/2/188 392/2/188
f 393/2/189 411/2/189 410/2/189 394/2/189
f 484/2/190 487/2/190 415/2/190 414/2/190
f 467/2/191 437/2/191 421/2/191 391/2/191
f 494/2/192 495/2/192 417/2/192 412/2/192
f 411/2/193 418/2/193 419/2/193 410/2/193
f 483/2/194 482/2/194 399/2/194 409/2/194
f 438/2/195 458/2/195 398/2/195 416/2/195
f 493/2/196 491/2/196 397/2/196 407/2/196
f 406/2/197 396/2/197 395/2/197 405/2/197
f 482/2/198 486/2/198 400/2/198 399/2/198
f 448/2/199 453/2/199 401/2/199 408/2/199
f 491/2/200 492/2/200 402/2/200 397/2/200
f 396/2/201 403/2/201 404/2/201 395/2/201
f 481/2/202 485/2/202 390/2/202 389/2/202
f 447/2/203 448/2/203 408/2/203 413/2/203
f 489/2/204 490/2/204 392/2/204 387/2/204
f 386/2/205 393/2/205 394/2/205 385/2/205
f 433/2/206 442/2/206 425/2/206 429/2/206
f 443/2/207 452/2/207 426/2/207 431/2/207
f 452/2/208 457/2/208 427/2/208 426/2/208
f 442/2/209 462/2/209 428/2/209 425/2/209
f 463/2/210 433/2/210 429/2/210 430/2/210
f 468/2/211 443/2/211 431/2/211 432/2/211
f 457/2/212 463/2/212 430/2/212 427/2/212
f 462/2/213 468/2/213 432/2/213 428/2/213
f 372/2/214 376/2/214 472/2/214 458/2/214
f 459/2/215 471/2/215 470/2/215 460/2/215
f 461/2/216 469/2/216 468/2/216 462/2/216
f 371/2/217 374/2/217 467/2/217 453/2/217
f 454/2/218 466/2/218 465/2/218 455/2/218
f 456/2/219 464/2/219 463/2/219 457/2/219
f 376/2/220 375/2/220 447/2/220 472/2/220
f 471/2/221 446/2/221 445/2/221 470/2/221
f 469/2/222 444/2/222 443/2/222 468/2/222
f 374/2/223 373/2/223 437/2/223 467/2/223
f 466/2/224 436/2/224 435/2/224 465/2/224
f 464/2/225 434/2/225 433/2/225 463/2/225
f 369/2/226 372/2/226 458/2/226 438/2/226
f 439/2/227 459/2/227 460/2/227 440/2/227
f 441/2/228 461/2/228 462/2/228 442/2/228
f 370/2/229 371/2/229 453/2/229 448/2/229
f 449/2/230 454/2/230 455/2/230 450/2/230
f 451/2/231 456/2/231 457/2/231 452/2/231
f 375/2/232 370/2/232 448/2/232 447/2/232
f 446/2/233 449/2/233 450/2/233 445/2/233
f 444/2/234 451/2/234 452/2/234 443/2/234
f 373/2/235 369/2/235 438/2/235 437/2/235
f 436/2/236 439/2/236 440/2/236 435/2/236
f 434/2/237 441/2/237 442/2/237 433/2/237
f 389/2/238 390/2/238 474/2/238 473/2/238
f 399/2/239 400/2/239 476/2/239 475/2/239
f 409/2/240 399/2/240 475/2/240 477/2/240
f 414/2/241 415/2/241 479/2/241 478/2/241
f 390/2/242 414/2/242 478/2/242 474/2/242
f 415/2/243 420/2/243 480/2/243 479/2/243
f 420/2/244 409/2/244 477/2/244 480/2/244
f 400/2/245 389/2/245 473/2/245 476/2/245
f 437/2/246 438/2/246 416/2/246 421/2/246
f 387/2/247 392/2/247 498/2/247 497/2/247
f 397/2/248 402/2/248 500/2/248 499/2/248
f 407/2/249 397/2/249 499/2/249 501/2/249
f 412/2/250 417/2/250 503/2/250 502/2/250
f 392/2/251 412/2/251 502/2/251 498/2/251
f 417/2/252 422/2/252 504/2/252 503/2/252
f 422/2/253 407/2/253 501/2/253 504/2/253
f 402/2/254 387/2/254 497/2/254 500/2/254
f 404/2/255 385/2/255 509/2/255 506/2/255
f 424/2/256 405/2/256 511/2/256 508/2/256
f 419/2/257 424/2/257 508/2/257 507/2/257
f 394/2/258 410/2/258 512/2/258 505/2/258
f 410/2/259 419/2/259 507/2/259 512/2/259
f 405/2/260 395/2/260 510/2/260 511/2/260
f 395/2/261 404/2/261 506/2/261 510/2/261
f 385/2/262 394/2/262 505/2/262 509/2/262
f 445/2/263 450/2/263 516/2/263 515/2/263
f 450/2/264 455/2/264 517/2/264 516/2/264
f 440/2/265 460/2/265 518/2/265 514/2/265
f 465/2/266 435/2/266 513/2/266 519/2/266
f 470/2/267 445/2/267 515/2/267 520/2/267
f 455/2/268 465/2/268 519/2/268 517/2/268
f 460/2/269 470/2/269 520/2/269 518/2/269
usemtl DarkWood
f 145/3/270 65/3/270 11/3/270 154/3/270
f 64/3/271 63/3/271 13/3/271 12/3/271
f 62/3/272 61/3/272 15/3/272 14/3/272
f 60/3/273 59/3/273 17/3/273 16/3/273
f 152/3/274 4/3/274 79/3/274 147/3/274
f 5/3/275 6/3/275 77/3/275 78/3/275
f 7/3/276 8/3/276 75/3/276 76/3/276
f 9/3/277 10/3/277 73/3/277 74/3/277
f 154/3/278 11/3/278 24/3/278 149/3/278
f 12/3/279 13/3/279 22/3/279 23/3/279
f 14/3/280 15/3/280 20/3/280 21/3/280
f 16/3/281 17/3/281 18/3/281 19/3/281
f 149/3/282 24/3/282 4/3/282 152/3/282
f 23/3/283 22/3/283 6/3/283 5/3/283
f 21/3/284 20/3/284 8/3/284 7/3/284
f 19/3/285 18/3/285 10/3/285 9/3/285
f 58/3/286 56/3/286 57/3/286
f 143/3/287 142/3/287 140/3/287 139/3/287
f 140/3/286 142/3/286 141/3/286
f 145/3/288 160/3/288 80/3/288 65/3/288
f 64/3/289 81/3/289 82/3/289 63/3/289
f 62/3/290 83/3/290 84/3/290 61/3/290
f 60/3/291 85/3/291 86/3/291 59/3/291
f 158/3/292 147/3/292 79/3/292 66/3/292
f 67/3/293 78/3/293 77/3/293 68/3/293
f 69/3/294 76/3/294 75/3/294 70/3/294
f 71/3/295 74/3/295 73/3/295 72/3/295
f 160/3/296 155/3/296 93/3/296 80/3/296
f 81/3/297 92/3/297 91/3/297 82/3/297
f 83/3/298 90/3/298 89/3/298 84/3/298
f 85/3/299 88/3/299 87/3/299 86/3/299
f 155/3/300 158/3/300 66/3/300 93/3/300
f 92/3/301 67/3/301 68/3/301 91/3/301
f 90/3/302 69/3/302 70/3/302 89/3/302
f 88/3/303 71/3/303 72/3/303 87/3/303
f 139/3/304 56/3/304 58/3/304 143/3/304
f 177/3/305 178/3/305 141/3/305 142/3/305
f 179/3/306 180/3/306 139/3/306 140/3/306
f 182/3/307 181/3/307 58/3/307 57/3/307
f 180/3/308 183/3/308 56/3/308 139/3/308
f 144/3/309 177/3/309 142/3/309 143/3/309
f 53/3/310 54/3/310 157/3/310 156/3/310
f 52/3/311 53/3/311 156/3/311 159/3/311
f 54/3/312 55/3/312 148/3/312 157/3/312
f 51/3/313 52/3/313 159/3/313 146/3/313
f 2/3/314 150/3/314 151/3/314 3/3/314
f 1/3/315 153/3/315 150/3/315 2/3/315
f 3/3/316 151/3/316 148/3/316 55/3/316
f 51/3/317 146/3/317 153/3/317 1/3/317
f 178/3/318 179/3/318 140/3/318 141/3/318
f 181/3/319 144/3/319 143/3/319 58/3/319
f 183/3/320 182/3/320 57/3/320 56/3/320
f 2/3/321 3/3/321 181/3/321 182/3/321
f 54/3/322 53/3/322 178/3/322 177/3/322
f 51/3/323 1/3/323 183/3/323 180/3/323
f 1/3/324 2/3/324 182/3/324 183/3/324
f 53/3/325 52/3/325 179/3/325 178/3/325
f 3/3/326 55/3/326 144/3/326 181/3/326
f 55/3/327 54/3/327 177/3/327 144/3/327
f 52/3/328 51/3/328 180/3/328 179/3/328
f 125/3/329 321/3/329 328/3/329 126/3/329
f 126/3/330 328/3/330 325/3/330 128/3/330
f 184/3/331 334/3/331 321/3/331 125/3/331
f 44/3/332 331/3/332 334/3/332 184/3/332
f 127/3/333 326/3/333 323/3/333 124/3/333
f 128/3/334 325/3/334 326/3/334 127/3/334
f 124/3/335 323/3/335 332/3/335 43/3/335
f 241/3/273 240/3/273 206/3/273 205/3/273
f 243/3/272 242/3/272 204/3/272 203/3/272
f 245/3/271 244/3/271 202/3/271 201/3/271
f 320/3/270 246/3/270 200/3/270 329/3/270
f 327/3/274 193/3/274 260/3/274 322/3/274
f 194/3/275 195/3/275 258/3/275 259/3/275
f 196/3/276 197/3/276 256/3/276 257/3/276
f 198/3/277 199/3/277 254/3/277 255/3/277
f 329/3/278 200/3/278 213/3/278 324/3/278
f 201/3/279 202/3/279 211/3/279 212/3/279
f 203/3/280 204/3/280 209/3/280 210/3/280
f 205/3/281 206/3/281 207/3/281 208/3/281
f 324/3/282 213/3/282 193/3/282 327/3/282
f 212/3/283 211/3/283 195/3/283 194/3/283
f 210/3/284 209/3/284 197/3/284 196/3/284
f 208/3/285 207/3/285 199/3/285 198/3/285
f 320/3/288 335/3/288 261/3/288 246/3/288
f 245/3/289 262/3/289 263/3/289 244/3/289
f 243/3/290 264/3/290 265/3/290 242/3/290
f 241/3/291 266/3/291 267/3/291 240/3/291
f 333/3/292 322/3/292 260/3/292 247/3/292
f 248/3/293 259/3/293 258/3/293 249/3/293
f 250/3/294 257/3/294 256/3/294 251/3/294
f 252/3/295 255/3/295 254/3/295 253/3/295
f 335/3/296 330/3/296 274/3/296 261/3/296
f 262/3/297 273/3/297 272/3/297 263/3/297
f 264/3/298 271/3/298 270/3/298 265/3/298
f 266/3/299 269/3/299 268/3/299 267/3/299
f 330/3/300 333/3/300 247/3/300 274/3/300
f 273/3/301 248/3/301 249/3/301 272/3/301
f 271/3/302 250/3/302 251/3/302 270/3/302
f 269/3/303 252/3/303 253/3/303 268/3/303
f 43/3/336 332/3/336 331/3/336 44/3/336
f 192/3/337 190/3/337 368/3/337 359/3/337
f 380/3/338 384/3/338 367/3/338 360/3/338
f 186/3/339 192/3/339 359/3/339 353/3/339
f 377/3/340 380/3/340 360/3/340 354/3/340
f 191/3/341 187/3/341 364/3/341 357/3/341
f 379/3/342 382/3/342 363/3/342 358/3/342
f 189/3/343 191/3/343 357/3/343 355/3/343
f 378/3/344 379/3/344 358/3/344 356/3/344
f 190/3/345 188/3/345 366/3/345 368/3/345
f 384/3/346 383/3/346 365/3/346 367/3/346
f 188/3/347 189/3/347 355/3/347 366/3/347
f 383/3/348 378/3/348 356/3/348 365/3/348
f 187/3/349 185/3/349 362/3/349 364/3/349
f 382/3/350 381/3/350 361/3/350 363/3/350
f 185/3/351 186/3/351 353/3/351 362/3/351
f 381/3/352 377/3/352 354/3/352 361/3/352
f 509/3/353 505/3/353 376/3/353 372/3/353
f 510/3/354 506/3/354 369/3/354 373/3/354
f 511/3/355 510/3/355 373/3/355 374/3/355
f 512/3/356 507/3/356 370/3/356 375/3/356
f 505/3/357 512/3/357 375/3/357 376/3/357
f 507/3/358 508/3/358 371/3/358 370/3/358
f 508/3/359 511/3/359 374/3/359 371/3/359
f 506/3/360 509/3/360 372/3/360 369/3/360
f 362/3/361 353/3/361 377/3/361 381/3/361
f 364/3/362 362/3/362 381/3/362 382/3/362
f 366/3/363 355/3/363 378/3/363 383/3/363
f 368/3/364 366/3/364 383/3/364 384/3/364
f 355/3/365 357/3/365 379/3/365 378/3/365
f 357/3/366 364/3/366 382/3/366 379/3/366
f 353/3/367 359/3/367 380/3/367 377/3/367
f 359/3/368 368/3/368 384/3/368 380/3/368
f 500/3/369 497/3/369 386/3/369 403/3/369
f 504/3/370 501/3/370 406/3/370 423/3/370
f 503/3/371 504/3/371 423/3/371 418/3/371
f 498/3/372 502/3/372 411/3/372 393/3/372
f 502/3/373 503/3/373 418/3/373 411/3/373
f 501/3/374 499/3/374 396/3/374 406/3/374
f 499/3/375 500/3/375 403/3/375 396/3/375
f 497/3/376 498/3/376 393/3/376 386/3/376
f 398/3/377 388/3/377 471/3/377 459/3/377
f 518/3/378 520/3/378 469/3/378 461/3/378
f 401/3/379 391/3/379 466/3/379 454/3/379
f 517/3/380 519/3/380 464/3/380 456/3/380
f 388/3/381 413/3/381 446/3/381 471/3/381
f 520/3/382 515/3/382 444/3/382 469/3/382
f 391/3/383 421/3/383 436/3/383 466/3/383
f 519/3/384 513/3/384 434/3/384 464/3/384
f 416/3/385 398/3/385 459/3/385 439/3/385
f 514/3/386 518/3/386 461/3/386 441/3/386
f 408/3/387 401/3/387 454/3/387 449/3/387
f 516/3/388 517/3/388 456/3/388 451/3/388
f 413/3/389 408/3/389 449/3/389 446/3/389
f 515/3/390 516/3/390 451/3/390 444/3/390
f 421/3/391 416/3/391 439/3/391 436/3/391
f 513/3/392 514/3/392 441/3/392 434/3/392
f 360/3/393 367/3/393 485/3/393 481/3/393
f 361/3/394 354/3/394 486/3/394 482/3/394
f 363/3/395 361/3/395 482/3/395 483/3/395
f 365/3/396 356/3/396 487/3/396 484/3/396
f 367/3/397 365/3/397 484/3/397 485/3/397
f 356/3/398 358/3/398 488/3/398 487/3/398
f 358/3/399 363/3/399 483/3/399 488/3/399
f 354/3/400 360/3/400 481/3/400 486/3/400
f 473/3/401 474/3/401 490/3/401 489/3/401
f 475/3/402 476/3/402 492/3/402 491/3/402
f 477/3/403 475/3/403 491/3/403 493/3/403
f 478/3/404 479/3/404 495/3/404 494/3/404
f 474/3/405 478/3/405 494/3/405 490/3/405
f 479/3/406 480/3/406 496/3/406 495/3/406
f 480/3/407 477/3/407 493/3/407 496/3/407
f 476/3/408 473/3/408 489/3/408 492/3/408
usemtl LightSteel
f 565/4/409 564/4/409 529/4/409 530/4/409
f 430/4/410 429/4/410 528/4/410 524/4/410
f 432/4/411 431/4/411 527/4/411 521/4/411
f 427/4/412 430/4/412 524/4/412 525/4/412
f 428/4/413 432/4/413 521/4/413 522/4/413
f 557/4/414 556/4/414 544/4/414 540/4/414
f 571/4/415 567/4/415 536/4/415 532/4/415
f 564/4/416 569/4/416 535/4/416 529/4/416
f 570/4/417 571/4/417 532/4/417 533/4/417
f 559/4/418 558/4/418 543/4/418 537/4/418
f 560/4/419 557/4/419 540/4/419 541/4/419
f 561/4/420 559/4/420 537/4/420 538/4/420
f 540/4/421 544/4/421 552/4/421 548/4/421
f 537/4/422 543/4/422 551/4/422 545/4/422
f 541/4/423 540/4/423 548/4/423 549/4/423
f 538/4/424 537/4/424 545/4/424 546/4/424
f 548/4/425 552/4/425 554/4/425 553/4/425
f 545/4/426 551/4/426 555/4/426 553/4/426
f 549/4/427 548/4/427 553/4/427 555/4/427
f 546/4/428 545/4/428 553/4/428 554/4/428
f 530/4/429 529/4/429 559/4/429 561/4/429
f 533/4/430 532/4/430 557/4/430 560/4/430
f 529/4/431 535/4/431 558/4/431 559/4/431
f 532/4/432 536/4/432 556/4/432 557/4/432
f 579/4/433 575/4/433 571/4/433 570/4/433
f 576/4/434 574/4/434 569/4/434 564/4/434
f 575/4/435 573/4/435 567/4/435 571/4/435
f 572/4/436 576/4/436 564/4/436 565/4/436
f 580/4/437 584/4/437 576/4/437 572/4/437
f 583/4/438 581/4/438 573/4/438 575/4/438
f 584/4/439 582/4/439 574/4/439 576/4/439
f 587/4/440 583/4/440 575/4/440 579/4/440
f 595/4/441 591/4/441 583/4/441 587/4/441
f 592/4/442 590/4/442 582/4/442 584/4/442
f 591/4/443 589/4/443 581/4/443 583/4/443
f 588/4/444 592/4/444 584/4/444 580/4/444
f 596/4/445 600/4/445 592/4/445 588/4/445
f 599/4/446 597/4/446 589/4/446 591/4/446
f 600/4/447 598/4/447 590/4/447 592/4/447
f 603/4/448 599/4/448 591/4/448 595/4/448
f 611/4/449 607/4/449 599/4/449 603/4/449
f 608/4/450 606/4/450 598/4/450 600/4/450
f 607/4/451 605/4/451 597/4/451 599/4/451
f 604/4/452 608/4/452 600/4/452 596/4/452
f 522/4/453 521/4/453 608/4/453 604/4/453
f 524/4/454 528/4/454 605/4/454 607/4/454
f 521/4/455 527/4/455 606/4/455 608/4/455
f 525/4/456 524/4/456 607/4/456 611/4/456
