vt 0.166666666666667 0.5
vt 0.5 0.5
vt 0.833333333333333 0.5
# Blender v2.76 (sub 0) OBJ File: 'P90.blend'
# www.blender.org
mtllib P90.mtl
o P90_Cylinder.001
v 0.559849 0.254111 1.448544
v 0.489501 0.669473 1.456098
v 0.697233 0.254111 1.847772
v 0.622595 0.669473 1.837714
v 0.525768 0.254111 2.247000
v 0.455420 0.669473 2.219331
v 0.541574 0.254111 1.214073
v 0.474052 0.669473 1.225893
v 0.471021 0.669473 -3.326042
v 0.538403 0.254111 -3.520253
v 0.559849 0.554702 1.448544
v 0.697233 0.554702 1.847772
v 0.525768 0.554702 2.247000
v 0.541574 0.554702 1.214073
v 0.538403 0.554702 -3.520253
v 0.011828 0.254111 1.216263
v 0.011828 0.669473 1.227987
v -0.536194 0.254111 1.448544
v -0.465845 0.669473 1.456098
v -0.673577 0.254111 1.847772
v -0.598940 0.669473 1.837714
v -0.502112 0.254111 2.247000
v -0.431764 0.669473 2.219331
v 0.011828 0.254111 2.383290
v 0.011828 0.669473 2.349608
v -0.517918 0.254111 1.214073
v -0.450396 0.669473 1.225893
v -0.447365 0.669473 -3.326042
v 0.011828 0.669473 -3.323949
v 0.011828 0.254111 -3.518063
v -0.514747 0.254111 -3.520253
v 0.011828 0.554702 1.354041
v -0.536194 0.554702 1.448544
v -0.673577 0.554702 1.847772
v -0.502112 0.554702 2.247000
v 0.011828 0.554702 2.383290
v -0.517918 0.554702 1.214073
v 0.011828 0.554702 -3.518063
v -0.514747 0.554702 -3.520253
v -0.196900 -0.975979 -1.234251
v -0.196900 -0.387989 -1.234251
v -0.196900 -0.975979 -1.822241
v -0.196900 -0.387989 -2.037180
v 0.191557 -0.975979 -1.234251
v 0.191557 -0.387989 -1.234251
v 0.191557 -0.975979 -1.822241
v 0.191557 -0.387989 -2.037180
v -0.196900 -0.828982 -1.234251
v -0.196900 -0.828982 -1.808463
v 0.191557 -0.828982 -1.808463
v 0.191557 -0.828982 -1.234251
v -0.196900 -0.608486 -1.234251
v -0.196900 -0.575418 -1.866331
v 0.191557 -0.575418 -1.866331
v 0.191557 -0.608486 -1.234251
v -0.196900 -0.702200 -1.812137
v 0.191557 -0.702200 -1.812137
v 0.191557 -0.718734 -1.234251
v -0.196900 -0.718734 -1.234251
v 0.405012 0.758214 4.678841
v -0.000000 0.758214 4.678841
v -0.000000 0.598924 4.829951
v 0.405012 0.598924 4.829951
v 0.564524 0.598703 4.670206
v -0.000000 0.757398 2.453517
v 0.417383 0.757398 2.453518
v -0.405012 0.758214 4.678841
v -0.405012 0.598924 4.829951
v -0.000000 -0.438536 4.786307
v 0.405012 -0.438536 4.786307
v 0.564524 -0.438314 4.626586
v -0.000000 0.274061 2.446122
v -0.417383 0.757398 2.453518
v -0.564524 0.598703 4.670206
v -0.405012 -0.438536 4.786307
v -0.000000 -0.521902 4.786307
v 0.286345 -0.521902 4.786307
v 0.445857 -0.522124 4.626586
v 0.564445 0.268024 2.439819
v 0.564406 0.599308 2.443816
v -0.564524 -0.438314 4.626586
v -0.286345 -0.521902 4.786307
v 0.000000 -1.349401 4.829951
v 0.286345 -1.349401 4.829951
v 0.564524 -0.438314 0.708525
v 0.445857 -0.522124 0.773286
v -0.000000 0.253466 -3.564641
v -0.564445 0.268024 2.439819
v -0.564406 0.599308 2.443816
v -0.445857 -0.522124 4.626586
v -0.286345 -1.349401 4.829951
v 0.445857 -1.349180 4.670206
v 0.000000 -1.508691 4.678841
v 0.286345 -1.508691 4.678841
v -0.000000 -0.522124 0.773286
v -0.000000 -0.438314 0.708525
v 0.445857 -1.107394 -1.963539
v 0.445857 -1.008762 -1.925168
v 0.445857 -0.863788 -1.868768
v 0.445857 -0.863788 -1.384881
v 0.445857 -0.645449 -1.431304
v 0.445857 -0.522124 -1.642901
v 0.445857 -0.522124 -0.534386
v 0.445857 -0.642755 -0.593711
v 0.445857 -0.886625 -0.553974
v 0.445857 -1.141366 -0.205801
v 0.445857 -1.323412 0.288647
v 0.445857 -1.206539 0.623659
v 0.445857 -1.119834 0.765241
v 0.445857 -0.658705 0.849860
v 0.445857 -1.349180 2.343027
v 0.445857 -1.391872 2.024004
v 0.445857 -1.734160 0.942683
v 0.445857 -1.777849 0.623659
v 0.445857 -1.705090 -0.205801
v 0.445857 -1.562095 -0.524824
v 0.445857 -1.178902 -1.132647
v 0.445857 -1.107394 -1.451670
v 0.445857 -1.107394 -1.606144
v 0.445857 -1.426417 -1.908172
v 0.445857 -1.426417 -2.851522
v 0.445857 -1.107394 -3.006489
v 0.445857 -1.107394 -2.535752
v 0.445857 -1.213080 -2.238320
v 0.564524 -0.341855 0.559047
v 0.564113 0.270750 -3.567939
v -0.564524 -0.438314 0.708525
v -0.445857 -0.522124 0.773286
v -0.445857 -1.349180 4.670206
v -0.286345 -1.508691 4.678841
v 0.000000 -1.508691 2.343027
v 0.286345 -1.508691 2.343027
v -0.000000 -0.341855 0.559047
v -0.000000 -0.658705 0.849860
v 0.000000 -1.213080 -2.238320
v 0.000000 -1.107394 -1.963539
v 0.000000 -1.008762 -1.925168
v 0.000000 -0.863788 -1.868768
v 0.000000 -0.863788 -1.384881
v -0.000000 -0.645449 -1.431304
v 0.564524 -0.438314 -0.493170
v -0.000000 -0.522124 -0.534386
v -0.000000 -0.642755 -0.593711
v -0.000000 -0.886625 -0.553974
v -0.000000 -1.141366 -0.205801
v 0.000000 -1.323412 0.288647
v -0.000000 -1.206539 0.623659
v -0.000000 -1.119834 0.765241
v 0.286345 -1.556830 2.031441
v 0.286345 -1.903827 0.935246
v 0.286345 -1.938027 0.624270
v 0.286345 -1.865160 -0.206411
v 0.286345 -1.766153 -0.500247
v 0.286345 -1.351973 -1.157224
v 0.286345 -1.266905 -1.451670
v 0.286345 -1.266905 -1.606144
v 0.286345 -1.425410 -1.747761
v 0.445857 -1.777140 -1.833112
v 0.445857 -1.717862 -2.668707
v 0.286345 -1.395609 -3.071771
v 0.445857 -0.889511 -3.006489
v 0.445857 -0.729999 -3.325512
v 0.445857 -0.729999 -3.510210
v 0.445857 -0.729999 -3.829233
v 0.445857 -0.729999 -4.113245
v 0.445857 -0.522124 -4.113245
v 0.445857 -0.523569 -2.403302
v 0.445857 -0.741289 -2.606146
v 0.445857 -0.951230 -2.634243
v 0.000000 -1.107394 -2.535752
v 0.564524 -0.381026 -0.205801
v 0.546611 0.788937 -3.513834
v -0.000000 0.771653 -3.510536
v 0.564524 -0.398885 -0.455955
v -0.564113 0.270750 -3.567939
v -0.564524 -0.341855 0.559047
v -0.445857 -1.107394 -1.963539
v -0.445857 -1.213080 -2.238320
v -0.445857 -1.107394 -2.535752
v -0.445857 -1.107394 -3.006489
v -0.445857 -1.426417 -2.851522
v -0.445857 -1.426417 -1.908172
v -0.445857 -1.107394 -1.606144
v -0.445857 -1.107394 -1.451670
v -0.445857 -1.178902 -1.132647
v -0.445857 -1.562095 -0.524824
v -0.445857 -1.705090 -0.205801
v -0.445857 -1.777849 0.623659
v -0.445857 -1.734160 0.942683
v -0.445857 -1.391872 2.024004
v -0.445857 -1.349180 2.343027
v -0.445857 -0.658705 0.849860
v -0.445857 -1.119834 0.765241
v -0.445857 -1.206539 0.623659
v -0.445857 -1.323412 0.288647
v -0.445857 -1.141366 -0.205801
v -0.445857 -0.886625 -0.553974
v -0.445857 -0.642755 -0.593711
v -0.445857 -0.522124 -0.534386
v -0.445857 -0.522124 -1.642901
v -0.445857 -0.645449 -1.431304
v -0.445857 -0.863788 -1.384881
v -0.445857 -0.863788 -1.868768
v -0.445857 -1.008762 -1.925168
v -0.286345 -1.508691 2.343027
v 0.000000 -1.556830 2.031441
v -0.000000 -0.381026 -0.205801
v -0.000000 -0.523933 -1.651192
v 0.445857 -0.522124 -2.113175
v 0.473388 -0.502680 -0.524824
v -0.000000 -0.502680 -0.524824
v 0.000000 -1.903827 0.935246
v 0.000000 -1.938027 0.624270
v 0.000000 -1.865160 -0.206411
v 0.000000 -1.766154 -0.500247
v 0.000000 -1.351973 -1.157224
v 0.000000 -1.266905 -1.451670
v 0.000000 -1.266905 -1.606144
v 0.286345 -1.744116 -2.847179
v 0.286345 -1.938082 -1.812640
v 0.286345 -1.107394 -3.166001
v 0.000000 -0.951230 -2.634243
v 0.283840 -1.035697 -3.181988
v 0.283853 -0.908149 -3.309525
v 0.286359 -0.891622 -3.510210
v 0.317137 -1.049008 -3.829233
v 0.317137 -1.049008 -4.113245
v 0.445557 -0.732735 -4.216948
v 0.564524 -0.438314 -4.097551
v -0.000000 -0.523569 -2.403302
v -0.000000 -0.741289 -2.606146
v -0.546611 0.788937 -3.513834
v 0.564102 0.270846 -4.039311
v 0.546600 0.789033 -4.004236
v 0.526775 0.796562 -1.895707
v -0.564524 -0.398885 -0.455955
v -0.564524 -0.381026 -0.205801
v -0.445857 -0.951230 -2.634243
v -0.445857 -0.741289 -2.606146
v -0.445857 -0.523569 -2.403302
v -0.445857 -0.522124 -4.113245
v -0.445857 -0.729999 -4.113245
v -0.445857 -0.729999 -3.829233
v -0.445857 -0.729999 -3.510210
v -0.445857 -0.729999 -3.325512
v -0.445857 -0.889511 -3.006489
v -0.286345 -1.395609 -3.071771
v -0.445857 -1.717862 -2.668707
v -0.445857 -1.777140 -1.833112
v -0.286345 -1.425410 -1.747761
v -0.286345 -1.266905 -1.451670
v -0.286345 -1.266905 -1.606144
v -0.286345 -1.351973 -1.157224
v -0.286345 -1.766153 -0.500247
v -0.286345 -1.865160 -0.206411
v -0.286345 -1.938027 0.624270
v -0.286345 -1.556830 2.031441
v -0.286345 -1.903827 0.935246
v -0.564524 -0.438314 -0.493170
v -0.000000 -0.398885 -0.455955
v -0.000000 -0.522124 -2.113175
v -0.000000 -0.438314 -0.493170
v -0.473388 -0.502680 -0.524824
v 0.000000 -1.425410 -1.747761
v 0.286345 -1.788677 -1.671284
v 0.286345 -1.881920 -2.593698
v 0.000000 -1.395609 -3.071771
v 0.000000 -1.107394 -3.166001
v 0.000000 -1.744116 -2.847179
v 0.196808 -1.210630 -3.829233
v 0.196808 -1.210630 -4.113245
v 0.445557 -0.591705 -4.263079
v 0.405012 -0.439014 -4.257831
v -0.526775 0.796562 -1.895707
v -0.546600 0.789033 -4.004236
v -0.564102 0.270846 -4.039311
v 0.444911 0.270932 -4.236072
v 0.427409 0.789119 -4.200998
v 0.490423 1.281389 -3.899791
v -0.000000 0.795982 -1.890158
v 0.459523 1.660818 -2.576327
v -0.564524 -0.438314 -4.097551
v -0.445557 -0.732735 -4.216948
v -0.317137 -1.049008 -4.113245
v -0.317137 -1.049008 -3.829233
v -0.286359 -0.891622 -3.510210
v -0.283853 -0.908149 -3.309525
v -0.283840 -1.035697 -3.181988
v -0.286345 -1.107394 -3.166001
v -0.286345 -1.744116 -2.847179
v -0.286345 -1.938082 -1.812640
v -0.445857 -0.522124 -2.113175
v 0.000000 -1.788677 -1.671284
v 0.000000 -1.881920 -2.593698
v 0.000000 -1.938082 -1.812640
v 0.000000 -1.039984 -3.181988
v 0.000000 -0.912436 -3.309525
v 0.000000 -0.896985 -3.510210
v 0.157640 -1.051120 -3.669721
v 0.219490 -1.083571 -4.299738
v 0.000000 -1.203256 -4.104017
v 0.286345 -0.522124 -4.272757
v 0.348196 -0.774714 -4.379634
v -0.459523 1.660818 -2.576327
v -0.490423 1.281389 -3.899791
v -0.427409 0.789119 -4.200998
v -0.444911 0.270932 -4.236072
v -0.000000 0.252015 -4.236650
v -0.000000 0.770202 -4.201578
v 0.386903 1.303970 -4.069185
v 0.490433 1.235554 -3.555418
v 0.529933 0.812236 -1.162442
v -0.000000 0.811492 -1.160840
v 0.480212 1.404248 -3.345468
v 0.464801 1.569411 -2.237094
v -0.405012 -0.439014 -4.257831
v -0.445557 -0.591705 -4.263079
v -0.196808 -1.210630 -4.113245
v -0.196808 -1.210630 -3.829233
v -0.286345 -1.881920 -2.593698
v -0.286345 -1.788677 -1.671284
v 0.000000 -1.056510 -3.669721
v 0.000000 -1.088762 -4.298396
v 0.000000 -1.216008 -3.829233
v 0.348196 -0.596975 -4.417508
v -0.000000 -0.522124 -4.272757
v -0.000000 -0.439014 -4.257831
v -0.000000 -0.199497 -4.250490
v 0.003419 -0.200914 -4.250533
v 0.109502 -0.156972 -4.249187
v 0.153443 -0.050889 -4.245935
v 0.109502 0.055194 -4.242683
v 0.003419 0.099135 -4.241338
v -0.000000 0.097719 -4.241381
v -0.529933 0.812236 -1.162442
v -0.464801 1.569411 -2.237094
v -0.480212 1.404248 -3.345468
v -0.490433 1.235554 -3.555418
v -0.386903 1.303970 -4.069185
v -0.000000 1.287750 -4.071848
v 0.486853 1.384361 -3.885376
v 0.383333 1.401708 -4.054770
v 0.554448 0.771027 -1.905651
v 0.535003 0.927651 -1.170873
v 0.474934 1.652473 -3.282279
v 0.475022 1.378817 -1.956046
v -0.000000 1.555461 -2.235664
v -0.286345 -0.522124 -4.272757
v -0.348196 -0.774714 -4.379634
v -0.219490 -1.083571 -4.299738
v -0.157640 -1.051120 -3.669721
v 0.000000 -0.779905 -4.378290
v -0.000000 -0.596975 -4.417508
v -0.102664 0.055194 -4.242683
v -0.146605 -0.050889 -4.245935
v -0.102664 -0.156972 -4.249187
v -0.535003 0.927651 -1.170873
v -0.554448 0.771027 -1.905651
v -0.475022 1.378817 -1.956046
v -0.474934 1.652473 -3.282279
v -0.486853 1.384361 -3.885376
v -0.383333 1.401708 -4.054770
v -0.000000 1.389247 -4.057433
v -0.000000 1.388970 -3.345763
v 0.486863 1.349147 -3.541003
v 0.564921 0.778709 -1.154154
v 0.618782 0.854194 -1.918112
v -0.000000 0.924873 -1.172918
v -0.000000 1.637336 -3.284120
v -0.000000 1.646796 -2.576520
v -0.000000 1.365069 -1.953011
v 0.516346 0.925587 -1.907866
v -0.348196 -0.596975 -4.417508
v -0.564921 0.778709 -1.154154
v -0.618782 0.854194 -1.918112
v -0.516346 0.925587 -1.907866
v -0.486863 1.349147 -3.541003
v -0.000000 1.220295 -3.554554
v -0.000000 1.337425 -3.540140
v 0.553731 0.700325 -1.906446
v 0.640822 0.717116 -1.918906
v 0.631112 0.845225 -1.162795
v -0.000000 0.903141 -1.880688
v -0.631112 0.845225 -1.162795
v -0.553731 0.700325 -1.906446
v -0.640822 0.717116 -1.918906
v 0.564396 0.698792 -1.154949
v 0.642575 0.702190 -1.163589
v -0.564396 0.698792 -1.154949
v -0.642575 0.702190 -1.163589
v 0.556345 0.451001 -1.908939
v 0.567010 0.449469 -1.157442
v 0.643435 0.467792 -1.921400
v 0.645189 0.452867 -1.166083
v -0.567010 0.449469 -1.157442
v -0.556345 0.451001 -1.908939
v -0.643435 0.467792 -1.921400
v -0.645189 0.452867 -1.166083
v 0.557564 0.380626 -1.898905
v 0.608296 0.387789 -1.911015
v 0.608875 0.379127 -1.177056
v -0.557564 0.380626 -1.898905
v -0.608296 0.387789 -1.911015
v -0.608875 0.379127 -1.177056
v 0.563672 0.379433 -1.168660
v -0.563672 0.379433 -1.168660
v 0.559201 0.273989 -1.901043
v 0.565287 0.272685 -1.170798
v 0.610055 0.280225 -1.913153
v 0.610476 0.271554 -1.179194
v -0.565287 0.272685 -1.170798
v -0.559201 0.273989 -1.901043
v -0.610055 0.280225 -1.913153
v -0.610476 0.271554 -1.179194
v 0.003419 -0.200914 -4.268863
v 0.109502 -0.156972 -4.268863
v -0.102664 -0.156972 -4.268863
v 0.003419 -0.200914 -4.369526
v 0.109502 -0.156972 -4.369526
v 0.153443 -0.050889 -4.268863
v -0.146605 -0.050889 -4.268863
v -0.102664 -0.156972 -4.369526
v 0.153443 -0.050889 -4.369526
v 0.003419 -0.237359 -4.396092
v 0.135273 -0.182743 -4.396092
v 0.109502 0.055194 -4.268863
v -0.102664 0.055194 -4.268863
v -0.146605 -0.050889 -4.369526
v -0.128435 -0.182743 -4.396092
v 0.109502 0.055194 -4.369526
v 0.189888 -0.050889 -4.396092
v 0.003419 -0.237359 -4.656097
v 0.135273 -0.182743 -4.656097
v 0.003419 0.099135 -4.268863
v -0.102664 0.055194 -4.369526
v -0.183051 -0.050889 -4.396092
v -0.128435 -0.182743 -4.656097
v 0.003419 0.099135 -4.369526
v 0.135273 0.080964 -4.396092
v 0.189888 -0.050889 -4.656097
v 0.003419 -0.261613 -4.659142
v 0.152423 -0.199893 -4.659142
v -0.128435 0.080964 -4.396092
v -0.183051 -0.050889 -4.656097
v -0.145585 -0.199893 -4.659142
v 0.003419 0.135580 -4.396092
v 0.135273 0.080965 -4.656097
v 0.214142 -0.050889 -4.659142
v 0.003419 -0.261613 -6.253263
v 0.152423 -0.199893 -6.253263
v -0.128435 0.080965 -4.656097
v -0.207305 -0.050889 -4.659142
v -0.145585 -0.199893 -6.253263
v 0.003419 0.135580 -4.656097
v 0.152423 0.098115 -4.659142
v 0.214142 -0.050889 -6.253263
v 0.003419 -0.199042 -6.253263
v 0.108179 -0.155649 -6.253263
v -0.145585 0.098115 -4.659142
v -0.207305 -0.050889 -6.253263
v -0.101341 -0.155649 -6.253263
v 0.003419 0.159834 -4.659142
v 0.152423 0.098115 -6.253263
v 0.151572 -0.050889 -6.253263
v 0.003419 -0.199042 -4.415716
v 0.108179 -0.155649 -4.415716
v -0.145585 0.098115 -6.253263
v -0.144734 -0.050889 -6.253263
v -0.101341 -0.155649 -4.415716
v 0.003419 0.159834 -6.253263
v 0.108179 0.053871 -6.253263
v 0.151572 -0.050889 -4.415716
v -0.144734 -0.050889 -4.415716
v -0.101341 0.053871 -4.415716
v 0.003419 0.097264 -4.415716
v 0.108179 0.053871 -4.415716
v -0.101341 0.053871 -6.253263
v 0.003419 0.097264 -6.253263
vn 0.853300 0.517700 -0.061900
vn 0.812700 0.510200 -0.281500
vn 0.771000 0.542000 0.334400
vn 0.253900 0.321600 0.912200
vn -0.000000 -1.000000 -0.000000
vn 0.000000 1.000000 0.000000
vn -0.002200 0.860700 -0.509100
vn 1.000000 0.000000 -0.000700
vn 0.861900 0.507100 -0.000600
vn -0.004200 0.000000 -1.000000
vn 0.256300 0.000000 0.966600
vn 0.918800 0.000000 0.394600
vn 0.945600 0.000000 -0.325400
vn 0.997000 0.000000 -0.077700
vn -0.853300 0.517700 -0.061900
vn -0.812700 0.510200 -0.281500
vn -0.771000 0.542000 0.334400
vn -0.253900 0.321600 0.912200
vn 0.002200 0.860700 -0.509100
vn -1.000000 0.000000 -0.000700
vn 1.000000 -0.000000 0.000000
vn -0.861900 0.507100 -0.000600
vn 0.004200 0.000000 -1.000000
vn -0.256300 0.000000 0.966600
vn -0.918800 0.000000 0.394600
vn -0.945600 0.000000 -0.325400
vn -0.997000 0.000000 -0.077700
vn -1.000000 0.000000 0.000000
vn 0.000000 0.093300 -0.995600
vn 0.000000 0.000000 1.000000
vn 0.000000 -0.029000 -0.999600
vn 0.000000 -0.673700 -0.739000
vn 0.000000 -0.393100 -0.919500
vn 0.000000 0.688200 0.725500
vn 0.588300 0.556500 0.586700
vn 0.000000 1.000000 -0.000400
vn 0.000000 -0.042000 0.999100
vn 0.707300 -0.029700 0.706300
vn 0.719600 0.694400 0.001900
vn -0.010600 0.019900 -0.999700
vn -0.588300 0.556500 0.586700
vn 0.499200 -0.708700 0.498500
vn 1.000000 0.000300 -0.000000
vn 0.010600 0.019900 -0.999700
vn -0.719600 0.694400 0.001900
vn -0.707300 -0.029700 0.706300
vn 0.000000 0.052700 0.998600
vn 0.576900 -0.816800 -0.000000
vn -0.499200 -0.708700 0.498500
vn 0.707100 0.037200 0.706100
vn 0.000000 -0.688200 0.725500
vn 0.000000 -0.611400 -0.791300
vn -0.010000 0.999900 -0.001500
vn 0.010000 0.999900 -0.001500
vn -1.000000 0.000300 -0.000000
vn -0.576900 -0.816800 -0.000000
vn -0.707100 0.037200 0.706100
vn 0.588300 -0.556500 0.586700
vn 0.000000 -0.840200 -0.542200
vn 0.000000 -0.489000 -0.872300
vn 0.000000 0.933300 -0.359000
vn 0.000000 0.362600 -0.932000
vn 0.000000 -0.208000 -0.978100
vn 0.006400 -0.869700 -0.493500
vn 0.000000 -0.441300 0.897400
vn 0.000000 0.160800 0.987000
vn 0.000000 0.807100 0.590500
vn 0.000000 0.938400 0.345500
vn 0.000000 0.944200 -0.329400
vn 0.000000 0.852800 -0.522300
vn 0.000000 0.180500 -0.983600
vn 0.707100 -0.707100 0.000000
vn 0.710600 -0.696400 0.100300
vn 0.707100 -0.674100 0.213400
vn 0.715300 -0.693600 0.085700
vn 0.707100 -0.704400 -0.061800
vn 0.718800 -0.646600 -0.255300
vn 0.707100 -0.598200 -0.377100
vn 0.717200 -0.675200 -0.172300
vn 0.577000 -0.555900 0.598300
vn 0.728900 -0.259900 -0.633400
vn 0.000000 0.942300 0.334800
vn 0.009100 -0.103700 0.994600
vn -0.588300 -0.556500 0.586700
vn 0.000000 -0.988300 0.152700
vn 0.000000 -0.998700 0.051100
vn 0.000000 -0.953400 0.301800
vn 0.000000 -0.996200 -0.087400
vn 0.000000 -0.845900 -0.533300
vn 0.723000 -0.371000 -0.582700
vn 0.000000 0.533500 0.845800
vn 0.927400 -0.374200 0.000000
vn 0.000000 -0.681700 0.731700
vn 0.000000 -0.132600 0.991200
vn -0.009100 -0.103700 0.994600
vn 0.999400 0.033800 -0.000000
vn -0.707100 -0.707100 0.000000
vn -0.707100 -0.598200 -0.377100
vn -0.707100 -0.704400 -0.061800
vn -0.707100 -0.674100 0.213400
vn -0.006400 -0.869700 -0.493500
vn 0.000000 -0.997500 0.071200
vn 0.002000 -1.000000 -0.001900
vn 0.000000 -0.994000 0.109300
vn 0.000000 -0.947700 -0.319300
vn 0.000000 -0.960700 -0.277600
vn 0.000000 -0.666300 0.745700
vn 0.700400 0.148200 0.698200
vn 0.561700 -0.726800 -0.395100
vn 0.705300 -0.707100 -0.050500
vn 0.618300 -0.540200 0.570900
vn 0.000000 -0.310800 -0.950500
vn 0.000000 -0.541700 -0.840600
vn 0.728000 -0.031500 -0.684900
vn 0.742400 -0.563500 -0.362200
vn 0.725600 -0.687700 -0.024800
vn 0.769700 -0.592700 0.237400
vn 0.927300 -0.374200 0.007200
vn 0.802100 -0.597200 0.000000
vn 1.000000 -0.000300 -0.002300
vn 0.578700 -0.815500 -0.000000
vn 0.532600 -0.660000 -0.529800
vn 0.000000 -1.000000 0.005000
vn -0.016700 -0.999800 0.010000
vn -0.999400 0.033800 -0.000000
vn 0.853600 0.063800 -0.517000
vn 0.992900 0.118400 0.006500
vn 0.016700 -0.999800 0.010000
vn 0.996200 0.087100 0.006400
vn 0.000000 -0.686400 0.727200
vn -1.000000 -0.000300 -0.002300
vn -0.927400 -0.374200 0.000000
vn -0.769700 -0.592700 0.237400
vn -0.725600 -0.687700 -0.024800
vn -0.742400 -0.563600 -0.362200
vn -0.728000 -0.031500 -0.684900
vn -0.728900 -0.259900 -0.633400
vn -0.723000 -0.371000 -0.582700
vn -0.705300 -0.707100 -0.050500
vn -0.700400 0.148200 0.698200
vn -0.577000 -0.555900 0.598300
vn -0.717200 -0.675200 -0.172300
vn -0.718800 -0.646600 -0.255300
vn -0.715300 -0.693600 0.085700
vn -0.710600 -0.696400 0.100300
vn -0.578700 -0.815500 -0.000000
vn -0.002000 -1.000000 -0.001900
vn 0.000000 0.206000 0.978600
vn 0.000000 -0.878600 -0.477600
vn 0.000000 -0.997400 -0.071700
vn 0.000000 -0.687300 0.726400
vn 0.001700 -0.224000 -0.974600
vn 0.010700 -0.707000 -0.707100
vn 0.016900 -0.996700 -0.079300
vn 0.820400 -0.443500 -0.361000
vn 0.766300 -0.570500 -0.295500
vn 0.628100 -0.467700 0.621900
vn -0.005600 -0.999700 -0.022800
vn 0.394200 0.855100 -0.336900
vn 0.853300 -0.132900 -0.504200
vn 0.788200 0.012800 -0.615300
vn -0.996200 0.087100 0.006400
vn -0.992900 0.118400 0.006500
vn -0.853600 0.063800 -0.517000
vn -0.001600 0.067500 -0.997700
vn 0.842800 0.198300 -0.500400
vn 0.001400 -0.999800 0.021300
vn -0.532600 -0.660000 -0.529800
vn -0.927300 -0.374200 0.007200
vn -0.802100 -0.597200 0.000000
vn -0.561700 -0.726800 -0.395100
vn -0.618300 -0.540200 0.570900
vn -0.001700 -0.224000 -0.974600
vn -0.010700 -0.707000 -0.707100
vn 0.017200 -0.710500 0.703500
vn -0.018000 -0.843900 -0.536300
vn 0.021400 -0.705600 0.708200
vn -0.000000 0.176800 -0.984300
vn 0.000000 0.030600 -0.999500
vn -0.001400 -0.999800 0.021300
vn -0.788200 0.012800 -0.615300
vn -0.842800 0.198300 -0.500400
vn 0.001600 0.067500 -0.997700
vn -0.006700 0.245300 -0.969400
vn 0.999500 0.032400 0.003800
vn 0.854100 0.103600 -0.509700
vn -0.685500 -0.727800 0.017700
vn -0.000700 0.089300 0.996000
vn -0.028900 0.965300 0.259600
vn -0.394200 0.855100 -0.336900
vn -0.853300 -0.132900 -0.504200
vn -0.820400 -0.443500 -0.361000
vn -0.766300 -0.570500 -0.295500
vn 0.005600 -0.999700 -0.022800
vn -0.628100 -0.467700 0.621900
vn -0.016900 -0.996700 -0.079300
vn -0.017200 -0.710500 0.703500
vn -0.000000 -0.250400 -0.968100
vn 0.018000 -0.843900 -0.536300
vn 0.000000 0.888300 -0.459300
vn -0.000300 -0.209000 -0.977900
vn 0.000700 0.089300 0.996000
vn 0.685500 -0.727800 0.017700
vn 0.028900 0.965300 0.259600
vn -0.999500 0.032400 0.003800
vn -0.854100 0.103600 -0.509700
vn 0.006700 0.245300 -0.969400
vn 0.001500 0.143200 -0.989700
vn -0.024800 0.778200 -0.627600
vn -0.198700 -0.063000 -0.978000
vn -0.030900 0.105400 0.994000
vn -0.005600 0.243700 -0.969800
vn -0.031200 0.999400 -0.012900
vn -0.021700 0.828100 0.560100
vn -0.021400 -0.705600 0.708200
vn 0.030900 0.105400 0.994000
vn 0.198700 -0.063000 -0.978000
vn 0.021700 0.828100 0.560100
vn 0.024800 0.778200 -0.627600
vn 0.031200 0.999400 -0.012900
vn 0.005600 0.243700 -0.969800
vn -0.001500 0.143200 -0.989700
vn 0.005200 -0.123900 0.992300
vn -0.025800 0.994300 0.103300
vn -0.999900 0.008100 0.014000
vn -0.156900 -0.008600 -0.987600
vn -0.024400 0.999600 -0.016100
vn 0.025400 0.131600 0.991000
vn 0.000300 -0.209000 -0.977900
vn 0.024400 0.999600 -0.016100
vn 0.999900 0.008100 0.014000
vn 0.156900 -0.008600 -0.987600
vn -0.025400 0.131600 0.991000
vn -0.005200 -0.123900 0.992300
vn 0.025800 0.994300 0.103300
vn 0.612400 0.790500 -0.009100
vn 0.992900 0.118800 -0.007400
vn 0.119400 -0.001200 0.992800
vn -0.612400 0.790500 -0.009100
vn -0.119400 -0.001200 0.992800
vn -0.992900 0.118800 -0.007400
vn -0.999800 -0.010600 0.014200
vn -0.143200 0.008400 -0.989700
vn 0.999900 0.010500 -0.002100
vn 0.999800 -0.010600 0.014200
vn 0.143200 0.008400 -0.989700
vn -0.999900 0.010500 -0.002100
vn 0.110200 -0.008800 0.993900
vn -0.999800 0.015000 0.011300
vn -0.158200 -0.097700 -0.982600
vn 0.906800 -0.421400 -0.008100
vn -0.110200 -0.008800 0.993900
vn 0.999800 0.015000 0.011300
vn 0.158200 -0.097700 -0.982600
vn -0.906800 -0.421400 -0.008100
vn 0.139000 -0.188400 0.972200
vn -0.139000 -0.188400 0.972200
vn -0.999800 -0.015400 0.008300
vn -0.233800 0.015700 -0.972100
vn 0.999900 0.015600 -0.000500
vn 0.182400 -0.016900 0.983100
vn 0.999800 -0.015400 0.008300
vn 0.233800 0.015700 -0.972100
vn -0.999900 0.015600 -0.000500
vn -0.182400 -0.016900 0.983100
vn 0.051600 -0.998600 -0.007000
vn -0.051600 -0.998600 -0.007000
vn 0.382700 -0.923900 0.000000
vn -0.382700 -0.923900 0.000000
vn 0.923900 -0.382700 0.000000
vn -0.923900 -0.382700 0.000000
vn 0.237000 -0.572300 0.785100
vn 0.923900 0.382700 0.000000
vn -0.923900 0.382700 0.000000
vn -0.237000 -0.572300 0.785100
vn 0.572300 -0.237000 0.785100
vn 0.382700 0.923900 0.000000
vn -0.382700 0.923900 -0.000000
vn -0.572300 -0.237000 0.785100
vn 0.572300 0.237000 0.785100
vn 0.051500 -0.124400 0.990900
vn -0.572300 0.237000 0.785100
vn -0.051500 -0.124400 0.990900
vn 0.237000 0.572300 0.785100
vn 0.124400 -0.051500 0.990900
vn -0.237000 0.572300 0.785100
vn -0.124400 -0.051500 0.990900
vn 0.124400 0.051500 0.990900
vn 0.000000 0.000000 -1.000000
vn -0.124400 0.051500 0.990900
vn 0.051500 0.124400 0.990900
vn -0.051500 0.124400 0.990900
usemtl Material.004
s off
f 14/1/1 8/1/1 2/1/1 11/1/1
f 11/1/2 2/1/2 4/1/2 12/1/2
f 12/1/3 4/1/3 6/1/3 13/1/3
f 13/1/4 6/1/4 25/1/4 36/1/4
f 16/1/5 7/1/5 1/1/5 3/1/5 5/1/5 24/1/5
f 2/1/6 8/1/6 17/1/6 25/1/6 6/1/6 4/1/6
f 17/1/6 8/1/6 9/1/6 29/1/6
f 38/1/7 29/1/7 9/1/7 15/1/7
f 14/1/8 7/1/8 10/1/8 15/1/8
f 7/1/5 16/1/5 30/1/5 10/1/5
f 8/1/9 14/1/9 15/1/9 9/1/9
f 30/1/10 38/1/10 15/1/10 10/1/10
f 5/1/11 13/1/11 36/1/11 24/1/11
f 3/1/12 12/1/12 13/1/12 5/1/12
f 1/1/13 11/1/13 12/1/13 3/1/13
f 7/1/14 14/1/14 11/1/14 1/1/14
f 37/1/15 33/1/15 19/1/15 27/1/15
f 33/1/16 34/1/16 21/1/16 19/1/16
f 34/1/17 35/1/17 23/1/17 21/1/17
f 35/1/18 36/1/18 25/1/18 23/1/18
f 16/1/5 24/1/5 22/1/5 20/1/5 18/1/5 26/1/5
f 19/1/6 21/1/6 23/1/6 25/1/6 17/1/6 27/1/6
f 17/1/6 29/1/6 28/1/6 27/1/6
f 38/1/19 39/1/19 28/1/19 29/1/19
f 37/1/20 39/1/20 31/1/20 26/1/20
f 26/1/5 31/1/5 30/1/5 16/1/5
f 32/1/21 38/1/21 29/1/21 17/1/21
f 16/1/21 30/1/21 38/1/21 32/1/21
f 27/1/22 28/1/22 39/1/22 37/1/22
f 30/1/23 31/1/23 39/1/23 38/1/23
f 22/1/24 24/1/24 36/1/24 35/1/24
f 20/1/25 22/1/25 35/1/25 34/1/25
f 18/1/26 20/1/26 34/1/26 33/1/26
f 26/1/27 18/1/27 33/1/27 37/1/27
usemtl Material.003
f 48/2/28 49/2/28 42/2/28 40/2/28
f 49/2/29 50/2/29 46/2/29 42/2/29
f 50/2/21 51/2/21 44/2/21 46/2/21
f 51/2/30 48/2/30 40/2/30 44/2/30
f 40/2/5 42/2/5 46/2/5 44/2/5
f 45/2/6 47/2/6 43/2/6 41/2/6
f 58/2/30 59/2/30 48/2/30 51/2/30
f 57/2/21 58/2/21 51/2/21 50/2/21
f 56/2/31 57/2/31 50/2/31 49/2/31
f 59/2/28 56/2/28 49/2/28 48/2/28
f 41/2/28 43/2/28 53/2/28 52/2/28
f 43/2/32 47/2/32 54/2/32 53/2/32
f 47/2/21 45/2/21 55/2/21 54/2/21
f 45/2/30 41/2/30 52/2/30 55/2/30
f 52/2/28 53/2/28 56/2/28 59/2/28
f 53/2/33 54/2/33 57/2/33 56/2/33
f 54/2/21 55/2/21 58/2/21 57/2/21
f 55/2/30 52/2/30 59/2/30 58/2/30
usemtl Material.001
f 60/3/34 61/3/34 62/3/34 63/3/34
f 64/3/35 60/3/35 63/3/35
f 65/3/36 61/3/36 60/3/36 66/3/36
f 67/3/34 68/3/34 62/3/34 61/3/34
f 63/3/37 62/3/37 69/3/37 70/3/37
f 63/3/38 70/3/38 71/3/38 64/3/38
f 60/3/39 64/3/39 80/3/39 66/3/39
f 65/3/40 66/3/40 80/3/40 79/3/40 72/3/40
f 65/3/36 73/3/36 67/3/36 61/3/36
f 74/3/41 68/3/41 67/3/41
f 68/3/37 75/3/37 69/3/37 62/3/37
f 76/3/30 77/3/30 70/3/30 69/3/30
f 71/3/42 70/3/42 77/3/42 78/3/42
f 64/3/43 71/3/43 85/3/43 125/3/43 171/3/43 174/3/43 141/3/43 229/3/43 233/3/43 126/3/43 79/3/43 80/3/43
f 65/3/44 72/3/44 88/3/44 89/3/44 73/3/44
f 67/3/45 73/3/45 89/3/45 74/3/45
f 68/3/46 74/3/46 81/3/46 75/3/46
f 76/3/30 69/3/30 75/3/30 82/3/30
f 77/3/47 76/3/47 83/3/47 84/3/47
f 85/3/48 71/3/48 78/3/48 86/3/48
f 81/3/49 90/3/49 82/3/49 75/3/49
f 82/3/47 91/3/47 83/3/47 76/3/47
f 77/3/50 84/3/50 92/3/50 78/3/50
f 93/3/51 94/3/51 84/3/51 83/3/51
f 85/3/52 86/3/52 95/3/52 96/3/52
f 97/3/21 98/3/21 99/3/21 100/3/21 101/3/21 102/3/21 103/3/21 104/3/21 105/3/21 106/3/21 107/3/21 108/3/21 109/3/21 110/3/21 86/3/21 78/3/21 92/3/21 111/3/21 112/3/21 113/3/21 114/3/21 115/3/21 116/3/21 117/3/21 118/3/21 119/3/21 120/3/21 121/3/21 122/3/21 123/3/21 124/3/21
f 126/3/53 87/3/53 72/3/53 79/3/53
f 72/3/54 87/3/54 175/3/54 88/3/54
f 89/3/55 88/3/55 175/3/55 276/3/55 282/3/55 259/3/55 236/3/55 237/3/55 176/3/55 127/3/55 81/3/55 74/3/55
f 127/3/56 128/3/56 90/3/56 81/3/56
f 82/3/57 90/3/57 129/3/57 91/3/57
f 93/3/51 83/3/51 91/3/51 130/3/51
f 84/3/58 94/3/58 92/3/58
f 93/3/5 131/3/5 132/3/5 94/3/5
f 125/3/59 85/3/59 96/3/59 133/3/59
f 86/3/60 110/3/60 134/3/60 95/3/60
f 127/3/52 96/3/52 95/3/52 128/3/52
f 97/3/61 124/3/61 135/3/61 136/3/61
f 98/3/62 97/3/62 136/3/62 137/3/62
f 99/3/62 98/3/62 137/3/62 138/3/62
f 99/3/6 138/3/6 139/3/6 100/3/6
f 101/3/63 100/3/63 139/3/63 140/3/63
f 101/3/64 140/3/64 208/3/64 102/3/64
f 104/3/65 103/3/65 142/3/65 143/3/65
f 105/3/66 104/3/66 143/3/66 144/3/66
f 106/3/67 105/3/67 144/3/67 145/3/67
f 107/3/68 106/3/68 145/3/68 146/3/68
f 108/3/69 107/3/69 146/3/69 147/3/69
f 109/3/70 108/3/70 147/3/70 148/3/70
f 110/3/71 109/3/71 148/3/71 134/3/71
f 94/3/72 132/3/72 111/3/72 92/3/72
f 111/3/73 132/3/73 149/3/73 112/3/73
f 149/3/74 150/3/74 113/3/74 112/3/74
f 114/3/75 113/3/75 150/3/75 151/3/75
f 151/3/76 152/3/76 115/3/76 114/3/76
f 115/3/77 152/3/77 153/3/77 116/3/77
f 153/3/78 154/3/78 117/3/78 116/3/78
f 117/3/79 154/3/79 155/3/79 118/3/79
f 155/3/72 156/3/72 119/3/72 118/3/72
f 120/3/80 119/3/80 156/3/80 157/3/80
f 121/3/21 120/3/21 158/3/21 159/3/21
f 121/3/81 160/3/81 221/3/81 122/3/81
f 123/3/21 122/3/21 161/3/21 162/3/21 163/3/21 164/3/21 165/3/21 166/3/21 167/3/21 168/3/21 169/3/21
f 124/3/82 123/3/82 170/3/82 135/3/82
f 87/3/83 126/3/83 172/3/83 173/3/83
f 177/3/28 178/3/28 179/3/28 180/3/28 181/3/28 182/3/28 183/3/28 184/3/28 185/3/28 186/3/28 187/3/28 188/3/28 189/3/28 190/3/28 191/3/28 129/3/28 90/3/28 128/3/28 192/3/28 193/3/28 194/3/28 195/3/28 196/3/28 197/3/28 198/3/28 199/3/28 200/3/28 201/3/28 202/3/28 203/3/28 204/3/28
f 91/3/84 129/3/84 130/3/84
f 93/3/5 130/3/5 205/3/5 131/3/5
f 132/3/85 131/3/85 206/3/85 149/3/85
f 171/3/86 125/3/86 133/3/86 207/3/86
f 176/3/59 133/3/59 96/3/59 127/3/59
f 128/3/60 95/3/60 134/3/60 192/3/60
f 177/3/61 136/3/61 135/3/61 178/3/61
f 204/3/62 137/3/62 136/3/62 177/3/62
f 203/3/62 138/3/62 137/3/62 204/3/62
f 203/3/6 202/3/6 139/3/6 138/3/6
f 201/3/63 140/3/63 139/3/63 202/3/63
f 103/3/65 210/3/65 211/3/65 142/3/65
f 198/3/65 143/3/65 142/3/65 199/3/65
f 197/3/66 144/3/66 143/3/66 198/3/66
f 196/3/67 145/3/67 144/3/67 197/3/67
f 195/3/68 146/3/68 145/3/68 196/3/68
f 194/3/69 147/3/69 146/3/69 195/3/69
f 193/3/70 148/3/70 147/3/70 194/3/70
f 192/3/71 134/3/71 148/3/71 193/3/71
f 149/3/87 206/3/87 212/3/87 150/3/87
f 151/3/88 213/3/88 214/3/88 152/3/88
f 153/3/89 215/3/89 216/3/89 154/3/89
f 155/3/5 217/3/5 218/3/5 156/3/5
f 159/3/90 219/3/90 160/3/90 121/3/90
f 123/3/91 169/3/91 222/3/91 170/3/91
f 165/3/92 164/3/92 226/3/92 227/3/92
f 168/3/93 167/3/93 230/3/93 231/3/93
f 169/3/94 168/3/94 231/3/94 222/3/94
f 178/3/82 135/3/82 170/3/82 179/3/82
f 87/3/95 173/3/95 232/3/95 175/3/95
f 126/3/96 233/3/96 234/3/96 172/3/96
f 179/3/28 238/3/28 239/3/28 240/3/28 241/3/28 242/3/28 243/3/28 244/3/28 245/3/28 246/3/28 180/3/28
f 181/3/28 248/3/28 249/3/28 182/3/28
f 251/3/97 184/3/97 183/3/97 252/3/97
f 254/3/98 186/3/98 185/3/98 253/3/98
f 256/3/99 188/3/99 187/3/99 255/3/99
f 257/3/100 190/3/100 189/3/100 258/3/100
f 130/3/97 129/3/97 191/3/97 205/3/97
f 201/3/101 200/3/101 208/3/101 140/3/101
f 205/3/85 257/3/85 206/3/85 131/3/85
f 174/3/102 171/3/102 207/3/102 260/3/102
f 237/3/86 207/3/86 133/3/86 176/3/86
f 208/3/103 261/3/103 209/3/103 102/3/103
f 210/3/65 141/3/65 262/3/65 211/3/65
f 199/3/65 142/3/65 211/3/65 263/3/65
f 257/3/87 258/3/87 212/3/87 206/3/87
f 150/3/104 212/3/104 213/3/104 151/3/104
f 256/3/88 255/3/88 214/3/88 213/3/88
f 152/3/105 214/3/105 215/3/105 153/3/105
f 254/3/89 253/3/89 216/3/89 215/3/89
f 154/3/106 216/3/106 217/3/106 155/3/106
f 251/3/5 252/3/5 218/3/5 217/3/5
f 156/3/107 218/3/107 264/3/107 157/3/107
f 265/3/108 158/3/108 120/3/108 157/3/108
f 219/3/109 159/3/109 266/3/109
f 266/3/110 159/3/110 158/3/110 220/3/110
f 265/3/111 220/3/111 158/3/111
f 160/3/112 267/3/112 268/3/112 221/3/112
f 267/3/113 160/3/113 219/3/113 269/3/113
f 179/3/91 170/3/91 222/3/91 238/3/91
f 223/3/114 161/3/114 122/3/114 221/3/114
f 224/3/115 162/3/115 161/3/115 223/3/115
f 225/3/116 163/3/116 162/3/116 224/3/116
f 226/3/117 164/3/117 163/3/117 225/3/117 299/3/117
f 165/3/118 227/3/118 228/3/118
f 227/3/119 226/3/119 270/3/119 271/3/119
f 272/3/120 166/3/120 165/3/120 228/3/120
f 229/3/121 141/3/121 210/3/121 103/3/121 102/3/121 209/3/121 167/3/121 166/3/121
f 229/3/122 166/3/122 302/3/122 273/3/122
f 167/3/123 209/3/123 261/3/123 230/3/123
f 239/3/93 231/3/93 230/3/93 240/3/93
f 238/3/94 222/3/94 231/3/94 239/3/94
f 232/3/124 173/3/124 280/3/124 274/3/124
f 175/3/125 232/3/125 275/3/125 276/3/125
f 233/3/126 277/3/126 278/3/126 234/3/126
f 234/3/127 279/3/127 311/3/127 172/3/127
f 280/3/128 173/3/128 172/3/128 235/3/128
f 235/3/129 172/3/129 311/3/129 314/3/129 345/3/129 281/3/129 315/3/129 346/3/129 372/3/129
f 141/3/130 174/3/130 260/3/130 262/3/130
f 242/3/131 241/3/131 317/3/131 283/3/131
f 242/3/132 284/3/132 285/3/132 243/3/132
f 244/3/133 243/3/133 285/3/133 351/3/133 286/3/133
f 245/3/134 244/3/134 286/3/134 287/3/134
f 246/3/135 245/3/135 287/3/135 288/3/135
f 180/3/136 246/3/136 288/3/136 289/3/136
f 289/3/137 247/3/137 181/3/137 180/3/137
f 247/3/138 290/3/138 248/3/138 181/3/138
f 249/3/139 248/3/139 320/3/139 291/3/139
f 182/3/140 249/3/140 321/3/140 250/3/140
f 252/3/141 183/3/141 182/3/141 250/3/141
f 251/3/142 253/3/142 185/3/142 184/3/142
f 254/3/143 255/3/143 187/3/143 186/3/143
f 258/3/144 189/3/144 188/3/144 256/3/144
f 257/3/145 205/3/145 191/3/145 190/3/145
f 263/3/146 259/3/146 282/3/146 241/3/146 240/3/146 292/3/146 200/3/146 199/3/146
f 236/3/102 260/3/102 207/3/102 237/3/102
f 208/3/147 200/3/147 292/3/147 261/3/147
f 263/3/65 211/3/65 262/3/65 259/3/65
f 258/3/104 256/3/104 213/3/104 212/3/104
f 255/3/105 254/3/105 215/3/105 214/3/105
f 253/3/106 251/3/106 217/3/106 216/3/106
f 252/3/107 250/3/107 264/3/107 218/3/107
f 157/3/148 264/3/148 293/3/148 265/3/148
f 266/3/149 294/3/149 269/3/149 219/3/149
f 295/3/150 294/3/150 266/3/150 220/3/150
f 265/3/151 293/3/151 295/3/151 220/3/151
f 247/3/112 289/3/112 268/3/112 267/3/112
f 268/3/152 296/3/152 223/3/152 221/3/152
f 267/3/113 269/3/113 290/3/113 247/3/113
f 223/3/153 296/3/153 297/3/153 224/3/153
f 225/3/154 224/3/154 297/3/154 298/3/154
f 227/3/155 300/3/155 303/3/155 228/3/155
f 300/3/156 227/3/156 271/3/156
f 299/3/157 270/3/157 226/3/157
f 271/3/158 270/3/158 324/3/158 301/3/158
f 166/3/159 272/3/159 325/3/159 302/3/159
f 228/3/160 303/3/160 325/3/160 272/3/160
f 273/3/161 277/3/161 233/3/161 229/3/161
f 240/3/123 230/3/123 261/3/123 292/3/123
f 336/3/162 304/3/162 360/3/162 337/3/162 338/3/162 232/3/162 274/3/162 376/3/162 359/3/162
f 275/3/163 232/3/163 338/3/163 305/3/163
f 276/3/164 275/3/164 306/3/164 307/3/164
f 277/3/165 308/3/165 309/3/165 278/3/165
f 278/3/166 310/3/166 279/3/166 234/3/166
f 280/3/167 235/3/167 312/3/167 313/3/167
f 259/3/130 262/3/130 260/3/130 236/3/130
f 282/3/168 316/3/168 348/3/168 241/3/168
f 242/3/169 283/3/169 284/3/169
f 284/3/170 318/3/170 319/3/170 285/3/170
f 290/3/171 320/3/171 248/3/171
f 321/3/172 249/3/172 291/3/172
f 250/3/148 321/3/148 293/3/148 264/3/148
f 320/3/149 290/3/149 269/3/149 294/3/149
f 295/3/150 291/3/150 320/3/150 294/3/150
f 321/3/151 291/3/151 295/3/151 293/3/151
f 268/3/173 289/3/173 288/3/173 296/3/173
f 288/3/174 287/3/174 297/3/174 296/3/174
f 298/3/175 322/3/175 299/3/175 225/3/175
f 300/3/176 271/3/176 301/3/176 323/3/176
f 270/3/177 299/3/177 322/3/177 324/3/177
f 302/3/178 326/3/178 327/3/178 273/3/178
f 327/3/179 328/3/179 329/3/179 330/3/179 331/3/179 332/3/179 333/3/179 334/3/179 308/3/179 277/3/179 273/3/179
f 280/3/180 313/3/180 335/3/180 274/3/180
f 276/3/181 307/3/181 316/3/181 282/3/181
f 305/3/182 339/3/182 306/3/182 275/3/182
f 307/3/183 306/3/183 309/3/183 308/3/183
f 310/3/184 278/3/184 309/3/184 340/3/184
f 279/3/185 341/3/185 365/3/185 311/3/185
f 310/3/186 342/3/186 341/3/186 279/3/186
f 235/3/187 343/3/187 366/3/187 312/3/187
f 312/3/188 344/3/188 368/3/188 313/3/188
f 315/3/189 281/3/189 370/3/189 347/3/189
f 241/3/190 348/3/190 373/3/190 317/3/190
f 283/3/191 317/3/191 373/3/191 349/3/191
f 284/3/192 283/3/192 349/3/192 350/3/192
f 350/3/193 318/3/193 284/3/193
f 318/3/194 301/3/194 324/3/194 319/3/194
f 351/3/195 285/3/195 319/3/195
f 286/3/196 298/3/196 297/3/196 287/3/196
f 298/3/197 286/3/197 351/3/197 322/3/197
f 300/3/198 323/3/198 352/3/198 303/3/198
f 301/3/199 318/3/199 350/3/199 323/3/199
f 326/3/200 302/3/200 325/3/200 353/3/200
f 325/3/201 303/3/201 352/3/201 353/3/201
f 348/3/178 316/3/178 327/3/178 326/3/178
f 327/3/179 316/3/179 307/3/179 308/3/179 334/3/179 354/3/179 355/3/179 356/3/179 328/3/179
f 335/3/202 313/3/202 368/3/202 357/3/202
f 274/3/203 335/3/203 374/3/203 358/3/203
f 336/3/204 347/3/204 370/3/204 304/3/204
f 305/3/205 338/3/205 377/3/205 361/3/205
f 339/3/206 305/3/206 361/3/206 362/3/206
f 339/3/207 340/3/207 309/3/207 306/3/207
f 340/3/208 363/3/208 342/3/208 310/3/208
f 314/3/209 311/3/209 378/3/209 364/3/209
f 343/3/210 235/3/210 372/3/210 367/3/210
f 312/3/211 366/3/211 382/3/211 344/3/211
f 345/3/212 314/3/212 364/3/212 369/3/212
f 281/3/213 345/3/213 369/3/213 370/3/213
f 346/3/214 315/3/214 347/3/214 371/3/214
f 319/3/215 324/3/215 322/3/215 351/3/215
f 350/3/198 349/3/198 352/3/198 323/3/198
f 326/3/200 353/3/200 373/3/200 348/3/200
f 335/3/216 357/3/216 384/3/216 374/3/216
f 358/3/217 375/3/217 376/3/217 274/3/217
f 347/3/218 336/3/218 359/3/218 371/3/218
f 337/3/219 364/3/219 378/3/219 338/3/219
f 304/3/220 370/3/220 369/3/220 360/3/220
f 360/3/221 369/3/221 364/3/221 337/3/221
f 362/3/222 363/3/222 340/3/222 339/3/222
f 311/3/223 365/3/223 379/3/223 378/3/223
f 365/3/224 341/3/224 342/3/224 363/3/224 379/3/224
f 343/3/225 380/3/225 387/3/225 366/3/225
f 367/3/226 381/3/226 380/3/226 343/3/226
f 344/3/227 372/3/227 383/3/227 368/3/227
f 371/3/228 383/3/228 372/3/228 346/3/228
f 373/3/229 353/3/229 352/3/229 349/3/229
f 357/3/230 368/3/230 383/3/230 376/3/230
f 358/3/231 374/3/231 389/3/231 385/3/231
f 375/3/232 358/3/232 385/3/232 386/3/232
f 376/3/233 383/3/233 371/3/233 359/3/233
f 338/3/234 378/3/234 379/3/234 377/3/234
f 377/3/235 379/3/235 363/3/235 362/3/235 361/3/235
f 367/3/236 372/3/236 344/3/236 382/3/236
f 381/3/237 367/3/237 382/3/237 388/3/237
f 366/3/238 387/3/238 388/3/238 382/3/238
f 357/3/239 376/3/239 375/3/239 384/3/239
f 374/3/240 384/3/240 390/3/240 389/3/240
f 386/3/241 390/3/241 384/3/241 375/3/241
f 387/3/242 380/3/242 391/3/242 392/3/242
f 380/3/243 381/3/243 393/3/243 391/3/243
f 381/3/244 388/3/244 394/3/244 393/3/244
f 389/3/245 395/3/245 396/3/245 385/3/245
f 385/3/246 396/3/246 397/3/246 386/3/246
f 386/3/247 397/3/247 398/3/247 390/3/247
f 388/3/248 387/3/248 392/3/248 394/3/248
f 391/3/249 399/3/249 405/3/249 392/3/249
f 393/3/250 400/3/250 399/3/250 391/3/250
f 394/3/251 401/3/251 400/3/251 393/3/251
f 390/3/252 398/3/252 395/3/252 389/3/252
f 396/3/253 395/3/253 406/3/253 402/3/253
f 397/3/254 396/3/254 402/3/254 403/3/254
f 398/3/255 397/3/255 403/3/255 404/3/255
f 392/3/256 405/3/256 401/3/256 394/3/256
f 395/3/257 398/3/257 404/3/257 406/3/257
f 405/3/258 399/3/258 407/3/258 408/3/258
f 400/3/259 409/3/259 407/3/259 399/3/259
f 401/3/260 410/3/260 409/3/260 400/3/260
f 405/3/261 408/3/261 410/3/261 401/3/261
f 406/3/262 411/3/262 412/3/262 402/3/262
f 403/3/263 402/3/263 412/3/263 413/3/263
f 404/3/264 403/3/264 413/3/264 414/3/264
f 406/3/265 404/3/265 414/3/265 411/3/265
f 408/3/266 407/3/266 409/3/266 410/3/266
f 411/3/267 414/3/267 413/3/267 412/3/267
f 329/3/268 415/3/268 416/3/268 330/3/268
f 356/3/269 417/3/269 415/3/269 329/3/269 328/3/269
f 416/3/268 415/3/268 418/3/268 419/3/268
f 330/3/270 416/3/270 420/3/270 331/3/270
f 355/3/271 421/3/271 417/3/271 356/3/271
f 415/3/269 417/3/269 422/3/269 418/3/269
f 420/3/270 416/3/270 419/3/270 423/3/270
f 419/3/272 418/3/272 424/3/272 425/3/272
f 331/3/273 420/3/273 426/3/273 332/3/273
f 354/3/274 427/3/274 421/3/274 355/3/274
f 417/3/271 421/3/271 428/3/271 422/3/271
f 418/3/275 422/3/275 429/3/275 424/3/275
f 426/3/273 420/3/273 423/3/273 430/3/273
f 423/3/276 419/3/276 425/3/276 431/3/276
f 425/3/268 424/3/268 432/3/268 433/3/268
f 332/3/277 426/3/277 434/3/277 333/3/277
f 333/3/278 434/3/278 427/3/278 354/3/278 334/3/278
f 421/3/274 427/3/274 435/3/274 428/3/274
f 422/3/279 428/3/279 436/3/279 429/3/279
f 424/3/269 429/3/269 437/3/269 432/3/269
f 434/3/277 426/3/277 430/3/277 438/3/277
f 430/3/280 423/3/280 431/3/280 439/3/280
f 431/3/270 425/3/270 433/3/270 440/3/270
f 433/3/281 432/3/281 441/3/281 442/3/281
f 427/3/278 434/3/278 438/3/278 435/3/278
f 428/3/282 435/3/282 443/3/282 436/3/282
f 429/3/271 436/3/271 444/3/271 437/3/271
f 432/3/283 437/3/283 445/3/283 441/3/283
f 438/3/284 430/3/284 439/3/284 446/3/284
f 439/3/273 431/3/273 440/3/273 447/3/273
f 440/3/285 433/3/285 442/3/285 448/3/285
f 442/3/268 441/3/268 449/3/268 450/3/268
f 435/3/286 438/3/286 446/3/286 443/3/286
f 436/3/274 443/3/274 451/3/274 444/3/274
f 437/3/287 444/3/287 452/3/287 445/3/287
f 441/3/269 445/3/269 453/3/269 449/3/269
f 446/3/277 439/3/277 447/3/277 454/3/277
f 447/3/288 440/3/288 448/3/288 455/3/288
f 448/3/270 442/3/270 450/3/270 456/3/270
f 450/3/289 449/3/289 457/3/289 458/3/289
f 443/3/278 446/3/278 454/3/278 451/3/278
f 444/3/290 451/3/290 459/3/290 452/3/290
f 445/3/271 452/3/271 460/3/271 453/3/271
f 449/3/289 453/3/289 461/3/289 457/3/289
f 454/3/291 447/3/291 455/3/291 462/3/291
f 455/3/273 448/3/273 456/3/273 463/3/273
f 456/3/289 450/3/289 458/3/289 464/3/289
f 458/3/278 457/3/278 465/3/278 466/3/278
f 451/3/292 454/3/292 462/3/292 459/3/292
f 452/3/274 459/3/274 467/3/274 460/3/274
f 453/3/289 460/3/289 468/3/289 461/3/289
f 457/3/277 461/3/277 469/3/277 465/3/277
f 462/3/277 455/3/277 463/3/277 470/3/277
f 463/3/289 456/3/289 464/3/289 471/3/289
f 464/3/274 458/3/274 466/3/274 472/3/274
f 466/3/289 465/3/289 469/3/289 473/3/289 474/3/289 475/3/289 476/3/289 472/3/289
f 459/3/278 462/3/278 470/3/278 467/3/278
f 460/3/289 467/3/289 477/3/289 468/3/289
f 461/3/273 468/3/273 473/3/273 469/3/273
f 470/3/289 463/3/289 471/3/289 478/3/289
f 471/3/271 464/3/271 472/3/271 476/3/271
f 468/3/270 477/3/270 474/3/270 473/3/270
f 477/3/268 478/3/268 475/3/268 474/3/268
f 478/3/269 471/3/269 476/3/269 475/3/269
f 467/3/289 470/3/289 478/3/289 477/3/289
