vt 0.0833333333333333 0.5
vt 0.25 0.5
vt 0.416666666666667 0.5
vt 0.583333333333333 0.5
vt 0.75 0.5
vt 0.916666666666667 0.5
# Blender v2.76 (sub 0) OBJ File: 'Pistol.blend'
# www.blender.org
mtllib Pistol.mtl
o Muzzle
v -4.476699 -2.729682 0.281679
v -2.784325 -3.084115 0.281679
v -4.476699 -2.729682 -0.281678
v -2.784325 -3.084115 -0.281678
v -3.267023 0.938434 0.281679
v -1.521989 0.636661 0.281679
v -3.267023 0.938434 -0.281678
v -1.521989 0.636661 -0.281678
v -4.649329 -2.729682 0.327933
v -2.603434 -3.084114 0.327933
v -4.649329 -2.729682 -0.327932
v -2.603434 -3.084114 -0.327932
v -4.690264 -2.934360 0.327933
v -2.644368 -3.233776 0.327933
v -4.690264 -2.934360 -0.327932
v -2.644368 -3.233776 -0.327932
v -4.798998 -2.581476 0.362281
v -3.579317 0.473820 0.362282
v -2.355204 -2.987302 0.362281
v -1.444532 -0.241017 0.362282
v -4.222938 -1.236677 0.362282
v -1.998442 -1.582696 0.362282
v -1.090580 0.101692 0.362282
v -3.733734 0.826496 0.362282
v -0.989683 0.383415 0.362282
v -3.666064 1.591670 0.362282
v -4.440645 1.117349 0.152840
v -4.432783 1.324311 0.152840
v -4.009551 1.433071 0.194895
v -4.057285 1.076588 0.194895
v -3.851285 -0.381428 0.362282
v -1.754714 -0.911856 0.362282
v -0.859403 1.757498 0.362282
v -3.602237 1.769586 0.362282
v -1.058072 0.727078 0.362282
v -0.740763 1.124958 0.362281
v 0.562104 1.760490 0.355657
v 0.750571 1.125198 0.355657
v 2.815151 1.811499 0.352552
v 2.830560 1.166613 0.352552
v 1.224105 1.141108 0.354104
v 1.208697 1.785994 0.354105
v -3.543367 -0.238613 0.617818
v -3.315637 0.477518 0.617818
v -2.121719 -1.244479 0.617818
v -2.506987 -2.420609 0.617818
v -1.657910 -0.121041 0.617818
v -4.336923 -2.080794 0.617818
v -3.444936 0.772827 0.617818
v -3.854564 -0.954745 0.617818
v -1.917637 -0.682760 0.617818
v -1.361532 0.165922 0.617818
v -1.277048 0.401819 0.617818
v -3.388275 1.413535 0.617818
v -3.334830 1.656411 0.617818
v -3.675889 1.381268 0.450506
v -4.030276 1.341147 0.277035
v -4.036859 1.167850 0.277035
v -3.715859 1.082772 0.450506
v -1.038153 1.646288 0.617818
v 0.152128 1.648794 0.612270
v -1.334311 0.689580 0.617818
v -0.938811 1.345454 0.617818
v 0.165030 1.345655 0.612270
v 2.627126 1.691507 0.609671
v 2.640028 1.422055 0.609671
v 0.706446 1.400698 0.610971
v 0.693544 1.670150 0.610971
v -4.306217 -2.612876 0.375104
v -2.865760 -2.844352 0.375104
v -2.684457 -2.298832 0.616215
v -3.489255 -0.240016 0.616215
v -3.252746 0.435687 0.616215
v -2.277669 -1.189098 0.616215
v -1.937399 -0.129081 0.616215
v -4.238012 -2.043105 0.616215
v -3.158402 0.714326 0.616215
v -3.782884 -0.915720 0.616215
v -2.085109 -0.659090 0.616215
v -1.830828 0.141682 0.616215
v -1.816016 0.364262 0.616215
v -2.910228 1.318864 0.616215
v -2.773263 1.548029 0.616215
v -1.550943 1.430306 0.616215
v -1.686155 0.679047 0.616215
v -1.475239 1.254626 0.616215
v -2.095214 1.588775 0.616215
v -4.307481 -2.620646 0.515038
v -2.867024 -2.852122 0.515038
v -2.685722 -2.306602 0.756148
v -3.490520 -0.247786 0.756148
v -3.254010 0.427918 0.756148
v -2.278934 -1.196867 0.756148
v -1.938663 -0.136851 0.756148
v -4.239276 -2.050875 0.756148
v -3.159667 0.706556 0.756148
v -3.784149 -0.923490 0.756148
v -2.086372 -0.666860 0.756148
v -1.832092 0.133912 0.756148
v -1.817281 0.356493 0.756148
v -2.911492 1.311095 0.756148
v -2.774528 1.540260 0.756148
v -2.096478 1.581006 0.756148
v -1.687419 0.671278 0.756148
v -1.476503 1.246857 0.756148
v -1.552208 1.422536 0.756148
v -4.620386 -2.757102 0.362281
v -2.583257 -3.109388 0.362281
v 0.169830 1.125104 0.358236
v 0.639359 0.808476 0.360184
v 0.499530 0.808383 0.362764
v 0.620819 0.367841 0.366194
v 0.519641 0.396732 0.368774
v 0.433727 0.092503 0.369846
v 0.356526 0.163999 0.372426
v 0.224690 -0.043395 0.373404
v 0.214296 0.061313 0.375984
v -0.070517 -0.072659 0.377330
v -0.064520 0.032393 0.379909
v -0.639295 -0.082211 0.385008
v -0.633298 0.053320 0.387588
v -1.228139 -0.031497 0.362281
v -4.798998 -2.581476 -0.362281
v -3.579317 0.473820 -0.362282
v -2.355204 -2.987302 -0.362281
v -1.444532 -0.241017 -0.362282
v -3.579317 0.473820 0.000000
v -4.798998 -2.581476 0.000000
v -1.444532 -0.241017 -0.000000
v -2.355204 -2.987302 -0.000000
v -4.222938 -1.236677 -0.362282
v -1.998442 -1.582696 -0.362282
v -1.998442 -1.582696 -0.000000
v -4.222938 -1.236677 0.000000
v -1.090580 0.101692 -0.362282
v -3.733735 0.826496 -0.362282
v -3.733735 0.826496 0.000000
v -0.989683 0.383415 -0.000000
v -0.989683 0.383415 -0.362282
v -3.666064 1.591670 -0.362282
v -3.666064 1.591670 0.000000
v -4.440645 1.117349 -0.152840
v -4.440645 1.117349 0.000000
v -4.432783 1.324311 -0.152840
v -4.432783 1.324311 0.000000
v -4.009551 1.433071 -0.194895
v -4.057285 1.076588 -0.194895
v -4.057285 1.076588 0.000000
v -4.009551 1.433071 0.000000
v -3.851285 -0.381428 -0.362282
v -1.754714 -0.911856 -0.362282
v -1.754714 -0.911856 -0.000000
v -3.851285 -0.381428 0.000000
v -0.853143 1.770017 -0.000000
v -0.859403 1.757498 -0.362282
v -3.602237 1.769586 -0.362282
v -3.602237 1.769586 0.000000
v -1.058072 0.727078 -0.362282
v -1.057932 0.728554 -0.000000
v -0.741879 1.119604 -0.000000
v -0.740764 1.124958 -0.362282
v 0.562104 1.760490 -0.000000
v 0.562104 1.760490 -0.355657
v 0.748635 1.120156 -0.000000
v 0.750571 1.125198 -0.355657
v 2.815151 1.811499 -0.000000
v 2.815151 1.811499 -0.352553
v 2.828624 1.161572 -0.000000
v 2.830560 1.166613 -0.352553
v 1.224105 1.141108 -0.354105
v 1.208697 1.785994 -0.354105
v 1.208697 1.785994 -0.000000
v 1.222168 1.136067 -0.000000
v -3.543369 -0.238613 -0.617818
v -3.315637 0.477518 -0.617818
v -2.121719 -1.244479 -0.617818
v -2.506988 -2.420609 -0.617818
v -1.657910 -0.121041 -0.617818
v -4.336923 -2.080794 -0.617818
v -3.444937 0.772827 -0.617818
v -3.854564 -0.954745 -0.617818
v -1.917636 -0.682760 -0.617818
v -1.361531 0.165922 -0.617818
v -1.277047 0.401819 -0.617818
v -3.388275 1.413535 -0.617818
v -3.334830 1.656411 -0.617818
v -3.675889 1.381268 -0.450506
v -4.030276 1.341147 -0.277035
v -4.036859 1.167850 -0.277035
v -3.715859 1.082772 -0.450506
v -1.038153 1.646288 -0.617818
v 0.152128 1.648794 -0.612271
v -1.334311 0.689580 -0.617818
v -0.938811 1.345454 -0.617818
v 0.165030 1.345655 -0.612271
v 2.627126 1.691507 -0.609672
v 2.640028 1.422055 -0.609671
v 0.706445 1.400698 -0.610971
v 0.693543 1.670150 -0.610971
v -4.306217 -2.612876 -0.375104
v -2.865759 -2.844352 -0.375104
v -2.684457 -2.298832 -0.616215
v -3.489256 -0.240016 -0.616215
v -3.252746 0.435687 -0.616215
v -2.277670 -1.189098 -0.616215
v -1.937399 -0.129081 -0.616215
v -4.238012 -2.043105 -0.616215
v -3.158402 0.714326 -0.616215
v -3.782884 -0.915720 -0.616215
v -2.085108 -0.659090 -0.616215
v -1.830828 0.141682 -0.616215
v -1.816016 0.364262 -0.616215
v -2.910229 1.318864 -0.616215
v -2.773263 1.548029 -0.616215
v -1.550943 1.430306 -0.616215
v -1.686155 0.679047 -0.616215
v -1.475239 1.254626 -0.616215
v -2.095215 1.588775 -0.616215
v -4.307481 -2.620646 -0.515038
v -2.867024 -2.852122 -0.515038
v -2.685722 -2.306602 -0.756148
v -3.490521 -0.247786 -0.756149
v -3.254010 0.427918 -0.756148
v -2.278934 -1.196867 -0.756149
v -1.938663 -0.136851 -0.756149
v -4.239276 -2.050875 -0.756148
v -3.159667 0.706556 -0.756148
v -3.784149 -0.923490 -0.756148
v -2.086372 -0.666860 -0.756149
v -1.832092 0.133912 -0.756149
v -1.817280 0.356493 -0.756149
v -2.911492 1.311095 -0.756148
v -2.774529 1.540260 -0.756149
v -2.096479 1.581006 -0.756149
v -1.687420 0.671278 -0.756149
v -1.476503 1.246857 -0.756149
v -1.552208 1.422536 -0.756149
v -4.620386 -2.757102 0.000000
v -4.620386 -2.757102 -0.362281
v -2.583257 -3.109388 -0.362281
v -2.583257 -3.109388 -0.000000
v 0.169829 1.125104 -0.358237
v 0.145055 1.119932 -0.000000
v 0.639359 0.808476 -0.360184
v 0.638893 0.803435 -0.000000
v 0.499530 0.808383 -0.362764
v 0.493565 0.803211 -0.000000
v 0.620819 0.367841 -0.366194
v 0.619093 0.363091 -0.000000
v 0.519641 0.396732 -0.368774
v 0.513901 0.392996 -0.000000
v 0.433727 0.092503 -0.369846
v 0.430041 0.089046 -0.000000
v 0.356526 0.163999 -0.372426
v 0.349717 0.163261 -0.000000
v 0.224690 -0.043395 -0.373404
v 0.219638 -0.043539 -0.000000
v 0.214296 0.061313 -0.375984
v 0.208710 0.065274 -0.000000
v -0.070517 -0.072659 -0.377330
v -0.075531 -0.072016 -0.000000
v -0.064521 0.032393 -0.379910
v -0.069425 0.037174 -0.000000
v -0.639295 -0.082211 -0.385008
v -0.644308 -0.081382 -0.000000
v -0.633298 0.053320 -0.387588
v -0.638202 0.059489 -0.000000
v -1.228139 -0.031497 -0.362282
v -1.229475 -0.032792 -0.000000
v -4.474338 -2.782359 0.000000
v -4.474338 -2.782359 0.281679
v -2.729304 -3.084132 0.281679
v -2.729304 -3.084132 -0.000000
v -4.474338 -2.782359 -0.281679
v -2.729304 -3.084132 -0.281679
v -3.387533 0.343164 0.000000
v -3.387533 0.343164 0.281679
v -1.642499 0.041391 0.281679
v -1.642499 0.041391 -0.000000
v -3.387534 0.343164 -0.281679
v -1.642499 0.041391 -0.281679
v -2.668813 2.417684 -0.257792
v 4.936440 2.417684 -0.257792
v -2.668813 2.251978 -0.197480
v 4.936440 2.251979 -0.197480
v -2.668813 2.163808 -0.044765
v 4.936440 2.163809 -0.044765
v -2.668813 2.194429 0.128896
v 4.936440 2.194430 0.128896
v -2.668813 2.329514 0.242246
v 4.936440 2.329514 0.242245
v -2.668813 2.505854 0.242246
v 4.936440 2.505854 0.242245
v -2.668813 2.640938 0.128896
v 4.936440 2.640939 0.128896
v -2.668813 2.671559 -0.044765
v 4.936440 2.671560 -0.044765
v -2.668813 2.583389 -0.197480
v 4.936440 2.583390 -0.197480
v 4.936440 2.291502 -0.150378
v 4.936440 2.417684 -0.196304
v 4.936440 2.224363 -0.034088
v 4.936440 2.247680 0.098152
v 4.936440 2.350544 0.184465
v 4.936440 2.484824 0.184465
v 4.936440 2.587688 0.098152
v 4.936440 2.611006 -0.034088
v 4.936440 2.543866 -0.150378
v -2.218233 2.291501 -0.150377
v -2.218233 2.417683 -0.196303
v -2.218233 2.224361 -0.034087
v -2.218233 2.247679 0.098153
v -2.218233 2.350543 0.184466
v -2.218233 2.484823 0.184466
v -2.218233 2.587687 0.098153
v -2.218233 2.611004 -0.034087
v -2.218233 2.543864 -0.150377
v -1.125007 0.027445 0.182643
v -1.168617 1.161458 0.182643
v -1.125007 0.027445 -0.195360
v -1.168618 1.161458 -0.195360
v -0.414642 0.027445 0.182643
v -0.458253 1.160420 0.182643
v -0.414642 0.027445 -0.195360
v -0.458253 1.160420 -0.195360
v -1.133708 0.279795 0.182643
v -1.133708 0.279795 -0.195360
v -0.535486 0.279795 -0.195360
v -0.535486 0.279795 0.182643
v -1.160284 0.919772 0.182643
v -1.160284 0.919772 -0.195360
v -0.562061 0.919772 -0.195360
v -0.562062 0.919772 0.182643
v -1.146996 0.665200 -0.195360
v -0.654685 0.665200 -0.195360
v -0.654685 0.665200 0.182643
v -1.146996 0.665200 0.182643
v -1.140352 0.472497 -0.195360
v -0.638696 0.472497 -0.195360
v -0.638696 0.472497 0.182643
v -1.140352 0.472497 0.182643
v -2.531889 2.825947 0.456793
v 2.822297 2.844821 0.456793
v 2.822297 2.844821 -0.000000
v -2.528444 2.825947 -0.000000
v -2.628881 2.937348 -0.000000
v -1.492258 2.714040 0.621866
v 3.111325 2.847408 0.456793
v 3.111325 2.847408 -0.000000
v -2.531889 2.825947 -0.456793
v 2.822297 2.844821 -0.456793
v -2.631343 2.937348 0.377462
v -1.608355 2.713631 0.621866
v -1.492258 2.707172 0.631675
v 3.111325 2.847408 -0.456793
v 2.738271 2.691841 0.667700
v 3.472527 2.850611 0.456793
v 3.472527 2.850611 -0.000000
v -1.492258 2.714040 -0.621866
v -3.259650 2.825947 0.456793
v -3.151402 2.937348 0.377462
v -2.749896 2.937348 0.113256
v -2.751221 2.937348 0.175914
v -2.631343 2.937348 -0.377462
v -1.608354 1.829214 0.621866
v -1.492258 1.829460 0.621866
v -1.892259 2.712630 0.621866
v -1.492258 1.931250 0.667700
v -1.492258 2.550798 0.667700
v -1.492258 2.681078 0.667700
v 3.472527 2.850611 -0.456793
v 2.738271 2.691841 -0.667700
v 3.014620 2.693627 0.667700
v 4.053590 2.855762 0.456793
v 4.053590 2.855762 0.046751
v 4.053590 2.855762 -0.000000
v -1.492258 2.707172 -0.631675
v -1.608354 2.713631 -0.621866
v -3.259650 2.825947 -0.000000
v -3.151402 2.937348 -0.000000
v -2.808354 2.710791 0.621866
v -3.030956 2.937348 0.175914
v -3.030956 2.937348 0.113256
v -2.749896 3.009885 0.113256
v -2.751221 3.009885 0.175914
v -3.259650 2.825947 -0.456793
v -3.151402 2.937348 -0.377462
v -2.751221 2.937348 -0.175915
v -2.749896 2.937348 -0.113256
v -1.608355 2.703468 0.636381
v -1.608355 2.680783 0.667700
v -1.608355 2.567521 0.667700
v -1.608354 1.931004 0.667700
v -1.892259 1.828612 0.621866
v -1.692259 2.713335 0.621866
v -2.292259 2.711220 0.621866
v -0.651391 1.736751 0.579318
v 2.746555 1.940238 0.667700
v 4.053590 2.855762 -0.046751
v 4.053590 2.855762 -0.456793
v 3.014620 2.693627 -0.667700
v -1.492258 2.681078 -0.667700
v 3.022904 1.942023 0.667700
v 3.359975 2.695836 0.667700
v 4.631854 2.860802 0.456793
v 4.631854 2.860802 0.047130
v 4.196826 3.002388 0.046751
v 4.196826 3.002388 -0.000000
v -1.492258 1.829460 -0.621866
v -1.492258 2.550798 -0.667700
v -1.492258 1.931250 -0.667700
v -1.608355 1.829214 -0.621866
v -1.892259 2.712630 -0.621866
v -2.608355 2.710791 0.621866
v -3.076865 2.678817 0.667700
v -3.030956 3.070570 0.175914
v -3.030956 2.937348 -0.113256
v -3.030956 3.070570 0.113256
v -2.808354 2.710791 -0.621866
v -3.030956 2.937348 -0.175915
v -2.751221 3.009885 -0.175915
v -2.749896 3.009885 -0.113256
v -1.692259 2.700791 0.639782
v -1.692259 2.680570 0.667700
v -1.692259 2.579606 0.667700
v -1.692259 1.930826 0.667700
v -1.808354 1.828790 0.621866
v -1.808354 2.712925 0.621866
v -2.092258 2.711925 0.621866
v -2.408354 2.710810 0.621866
v 0.722717 1.736751 0.579318
v 4.196826 3.002388 -0.046751
v 4.631854 2.860802 -0.047130
v 4.631854 2.860802 -0.456793
v 3.359975 2.695836 -0.667700
v 3.022904 1.942023 -0.667700
v 2.746554 1.940238 -0.667700
v 2.830961 1.755625 0.579318
v 3.368259 2.089247 0.667700
v 3.915548 2.699391 0.667700
v 4.820063 2.775364 0.456793
v 4.820063 2.775364 0.021671
v 4.454093 2.983511 0.047130
v 4.454093 2.983511 -0.000000
v -0.651391 1.736751 -0.579318
v -1.892259 1.828612 -0.621866
v -1.608355 1.931004 -0.667700
v -1.608354 2.567521 -0.667700
v -1.608354 2.680783 -0.667700
v -1.608354 2.703468 -0.636381
v -1.692258 2.713335 -0.621866
v -2.292258 2.711220 -0.621866
v -3.613609 2.383409 0.465826
v -3.516194 2.524010 -0.000000
v -3.516194 2.524010 0.000079
v -3.516194 2.524010 0.149714
v -3.615434 2.399936 0.145756
v -3.620815 2.393209 0.145451
v -2.692258 2.710791 0.621866
v -2.492259 2.710791 0.621866
v -2.808354 2.678817 0.667700
v -3.382849 2.373442 0.675347
v -3.030956 3.070570 -0.113256
v -2.608355 2.710791 -0.621866
v -3.076864 2.678817 -0.667700
v -3.030956 3.070570 -0.175915
v -1.692259 1.829036 0.621866
v -1.972652 1.828442 0.621866
v -1.892259 1.930402 0.667700
v -1.808354 2.697088 0.644487
v -2.208354 2.711515 0.621866
v -2.008355 2.712220 0.621866
v -2.408354 2.705466 0.629499
v -2.408355 1.828442 0.621866
v -2.292258 1.828442 0.621866
v -0.651077 1.631627 0.350908
v 0.723031 1.631627 0.350908
v 4.454093 2.983511 -0.047131
v 4.820063 2.775364 -0.021671
v 4.820063 2.775364 -0.456793
v 3.915547 2.699391 -0.667700
v 3.368259 2.089247 -0.667700
v 2.830961 1.755625 -0.579318
v 3.119990 1.758212 0.456793
v 3.923832 2.092802 0.667700
v 4.511218 2.910254 0.047130
v 4.468442 2.702869 0.667700
v 4.631854 2.860802 -0.000000
v 4.820063 2.775364 -0.000000
v 4.640518 1.981755 0.456793
v 4.828727 2.115226 0.456793
v 4.823622 2.504166 0.237607
v 0.722717 1.736751 -0.579318
v -1.808354 1.828790 -0.621866
v -1.692259 1.930826 -0.667700
v -1.692258 2.579606 -0.667700
v -1.692258 2.680570 -0.667700
v -1.692258 2.700791 -0.639782
v -1.808354 2.712925 -0.621866
v -2.092258 2.711925 -0.621866
v -2.408354 2.710810 -0.621866
v -3.613609 2.383409 -0.465826
v -3.620815 2.393209 -0.138530
v -3.615434 2.399936 -0.138835
v -3.516194 2.524010 -0.149556
v -3.602321 2.022458 0.465826
v -3.614557 2.193099 0.135677
v -3.614557 2.193099 0.003461
v -3.614557 2.193099 -0.000000
v -2.808355 1.828442 0.621866
v -2.692258 1.828442 0.621866
v -2.608355 2.678817 0.667700
v -2.608355 1.828442 0.621866
v -2.492258 1.828442 0.621866
v -2.808354 2.362363 0.667700
v -2.808354 1.928460 0.667700
v -2.808354 1.886436 0.648777
v -2.692258 2.710791 -0.621866
v -2.492258 2.710791 -0.621866
v -2.808354 2.678817 -0.667700
v -3.382848 2.373442 -0.675347
v -2.008354 1.828442 0.621866
v -3.593386 1.736751 0.579318
v -1.808354 1.930580 0.667700
v -1.892259 2.608414 0.667700
v -1.892259 2.680061 0.667700
v -1.892259 2.694411 0.647888
v -1.808354 2.680274 0.667700
v -1.808354 2.596329 0.667700
v -2.208354 1.828442 0.621866
v -2.092258 1.828442 0.621866
v -2.208354 2.684326 0.660701
v -2.008355 2.690707 0.652594
v -2.408354 2.678817 0.667700
v -2.408354 2.658582 0.667700
v -2.408355 1.929308 0.667700
v -2.408355 1.858678 0.635897
v -2.292258 1.850621 0.632158
v -2.292258 1.929554 0.667700
v -2.292259 2.666030 0.667700
v -2.292259 2.679043 0.667700
v -2.292259 2.681649 0.664101
v 2.843441 1.646936 0.348132
v -3.453837 1.631627 0.350908
v -0.651077 1.631627 -0.000000
v 0.723031 1.631627 -0.000000
v 4.511218 2.910254 -0.047130
v 4.822625 2.580217 -0.193699
v 4.828727 2.115226 -0.456793
v 4.640518 1.981755 -0.456793
v 4.468442 2.702869 -0.667700
v 3.923832 2.092802 -0.667700
v 3.119990 1.758212 -0.456793
v 2.843784 1.695861 0.348132
v 3.481191 1.971564 0.456793
v 4.476727 2.096280 0.667700
v 4.499004 2.917927 -0.000000
v 4.821591 2.658957 -0.000000
v 4.640518 1.981755 -0.000000
v 4.828727 2.115226 -0.000000
v 4.821884 2.636664 0.126428
v -1.972652 1.828442 -0.621866
v 0.723031 1.631627 -0.350908
v -0.651077 1.631627 -0.350908
v -1.692259 1.829036 -0.621866
v -1.892259 1.930402 -0.667700
v -1.808354 2.697088 -0.644488
v -2.008354 2.712220 -0.621866
v -2.208354 2.711515 -0.621866
v -2.292259 1.828442 -0.621866
v -2.408354 1.828442 -0.621866
v -2.408354 2.705466 -0.629499
v -3.602320 2.022458 -0.465826
v -3.614557 2.193099 -0.128755
v -3.602320 2.022458 -0.000000
v -2.692258 1.878380 0.645039
v -2.692258 1.928706 0.667700
v -2.692258 2.448338 0.667700
v -2.692258 2.678817 0.667700
v -2.608355 2.510473 0.667700
v -2.608355 1.928884 0.667700
v -2.608355 1.872557 0.642337
v -2.492258 1.864500 0.638598
v -2.492258 1.929130 0.667700
v -2.492259 2.596447 0.667700
v -2.492259 2.678817 0.667700
v -3.395959 1.927214 0.667700
v -2.608355 2.678817 -0.667700
v -2.692258 1.828442 -0.621866
v -2.808354 1.828442 -0.621866
v -2.492259 1.828442 -0.621866
v -2.608355 1.828442 -0.621866
v -2.808354 1.886436 -0.648778
v -2.808354 1.928460 -0.667700
v -2.808354 2.362363 -0.667700
v -2.008355 2.679765 0.667700
v -2.008355 2.625137 0.667700
v -2.008354 1.930156 0.667700
v -2.008354 1.830919 0.623016
v -2.092258 1.836742 0.625717
v -2.092258 1.929978 0.667700
v -2.092258 2.637222 0.667700
v -2.092258 2.679552 0.667700
v -2.092258 2.688030 0.655995
v -2.208354 2.679256 0.667700
v -2.208354 2.653945 0.667700
v -2.208354 1.929732 0.667700
v -2.208354 1.844798 0.629456
v 2.844154 1.646936 -0.000000
v -3.593386 1.736751 -0.000000
v -3.453837 1.631627 -0.000000
v 4.821490 2.666699 -0.043908
v 4.824758 2.417684 -0.252857
v 4.476727 2.096280 -0.667700
v 3.481191 1.971564 -0.456793
v 2.843784 1.695861 -0.348132
v 2.843441 1.646936 -0.348132
v 3.132812 1.698448 0.348132
v 3.494013 1.911800 0.348132
v 4.062254 1.976715 0.456793
v 4.653340 1.921991 0.348132
v 4.653340 1.921991 -0.000000
v 4.827631 2.198704 0.126428
v 4.825893 2.331202 0.237607
v -3.593385 1.736751 -0.579318
v -2.008355 1.828442 -0.621866
v -3.453837 1.631627 -0.350908
v -1.892259 2.694411 -0.647888
v -1.892259 2.680061 -0.667700
v -1.892259 2.608414 -0.667700
v -1.808354 1.930580 -0.667700
v -1.808354 2.596329 -0.667700
v -1.808354 2.680274 -0.667700
v -2.008354 2.690707 -0.652594
v -2.092258 1.828442 -0.621866
v -2.208354 1.828442 -0.621866
v -2.208354 2.684326 -0.660701
v -2.292258 2.681649 -0.664102
v -2.292258 2.679043 -0.667700
v -2.292258 2.666030 -0.667700
v -2.292259 1.929554 -0.667700
v -2.292259 1.850621 -0.632158
v -2.408354 1.858678 -0.635897
v -2.408354 1.929308 -0.667700
v -2.408354 2.658582 -0.667700
v -2.408354 2.678817 -0.667700
v -2.608355 1.872557 -0.642337
v -2.608355 1.928884 -0.667700
v -2.608355 2.510473 -0.667700
v -2.692258 2.678817 -0.667700
v -2.692258 2.448338 -0.667700
v -2.692258 1.928706 -0.667700
v -2.692258 1.878380 -0.645039
v -2.492258 2.678817 -0.667700
v -2.492258 2.596447 -0.667700
v -2.492259 1.929130 -0.667700
v -2.492259 1.864500 -0.638599
v -3.395959 1.927214 -0.667700
v 2.816410 1.629348 0.329700
v 3.139605 1.649524 0.348132
v 4.826892 2.255151 -0.193700
v 4.653340 1.921991 -0.348132
v 4.062254 1.976715 -0.456793
v 3.494013 1.911800 -0.348132
v 3.132812 1.698448 -0.348132
v 4.075078 1.916951 0.348132
v 3.500805 1.808020 0.348132
v 4.658651 1.818212 0.348132
v 4.658650 1.818212 -0.000000
v 4.827924 2.176411 -0.000000
v -2.008355 1.830919 -0.623016
v -2.008355 1.930156 -0.667700
v -2.008354 2.625137 -0.667700
v -2.008354 2.679765 -0.667700
v -2.092258 2.688030 -0.655995
v -2.092258 2.679552 -0.667700
v -2.092258 2.637222 -0.667700
v -2.092258 1.929978 -0.667700
v -2.092258 1.836742 -0.625718
v -2.208354 1.844798 -0.629456
v -2.208354 1.929732 -0.667700
v -2.208354 2.653945 -0.667700
v -2.208354 2.679256 -0.667700
v 2.816409 1.629348 -0.329700
v 2.817062 1.629348 -0.000000
v 2.842529 1.516570 0.348132
v 2.815575 1.510141 0.329700
v 3.157703 1.519158 0.348132
v 4.658650 1.818212 -0.348132
v 4.075078 1.916951 -0.348132
v 4.828027 2.168669 -0.043908
v 3.500805 1.808020 -0.348132
v 3.139604 1.649524 -0.348132
v 4.081870 1.813172 0.348132
v 3.518905 1.531486 0.348132
v 4.672799 1.541678 0.348132
v 4.672798 1.541678 -0.000000
v 2.842529 1.516570 -0.348132
v 2.815575 1.510141 -0.329700
v 2.845095 1.413342 0.277502
v 2.817922 1.415750 0.265116
v 3.172035 1.415930 0.277502
v 4.672798 1.541678 -0.348132
v 4.081870 1.813172 -0.348132
v 3.518904 1.531486 -0.348132
v 3.157703 1.519158 -0.348132
v 4.099969 1.536638 0.348132
v 3.533236 1.428259 0.277502
v 4.675811 1.438450 0.277502
v 4.675811 1.438450 -0.000000
v 2.845095 1.413342 -0.277502
v 2.817921 1.415750 -0.265117
v 2.817966 1.510141 -0.000000
v 2.844241 1.210146 0.141676
v 2.817140 1.229947 0.140917
v 4.675811 1.438450 -0.277502
v 4.099969 1.536638 -0.348132
v 3.533236 1.428259 -0.277502
v 3.172035 1.415930 -0.277502
v 4.114299 1.433410 0.277502
v 3.180332 1.212734 0.141676
v 3.541533 1.225062 0.141676
v 4.642606 1.261664 0.141676
v 4.642606 1.261664 -0.000000
v 2.844241 1.210146 -0.141676
v 2.817140 1.229947 -0.140917
v 2.844241 1.210146 -0.000000
v 2.817140 1.229947 -0.000000
v 2.817922 1.415750 -0.000000
v 4.642606 1.261664 -0.141676
v 4.114299 1.433410 -0.277502
v 3.541533 1.225062 -0.141676
v 3.180332 1.212734 -0.141676
v 4.122596 1.230214 0.141676
v 3.180332 1.212734 -0.000000
v 3.541533 1.225062 -0.000000
v 4.122596 1.230214 -0.000000
v 4.122596 1.230214 -0.141676
v 2.830961 1.755625 0.579318
v 2.843784 1.695861 0.348132
v 2.840755 1.755625 0.349334
v 2.830961 1.755625 -0.000000
v 2.843784 1.695861 -0.000000
v 2.843441 1.646936 0.348132
v 2.843783 1.695861 -0.348132
v 2.844154 1.646936 -0.000000
v 2.843441 1.646936 -0.348132
v 2.840755 1.755625 -0.349334
v 2.830961 1.755625 -0.579318
v -3.620133 2.550195 0.153096
v -3.620133 2.550195 0.003461
v -3.916551 2.623163 0.003461
v -3.916551 2.623163 0.153096
v -3.905262 2.389306 0.146458
v -3.620133 2.550195 -0.146174
v -3.916551 2.623163 -0.146174
v -4.065006 2.593568 0.003461
v -4.065006 2.593568 0.153096
v -4.083622 2.479330 0.153096
v -3.905262 2.389306 -0.139536
v -4.065006 2.593568 -0.146174
v -4.083622 2.479330 0.003461
v -3.905262 2.389306 0.003461
v -4.083622 2.479330 -0.146174
vn 0.000000 -0.342000 -0.939700
vn 0.000000 -0.866000 -0.500000
vn 0.000000 -0.984800 0.173600
vn 0.000000 -0.642800 0.766000
vn 0.000000 0.000000 1.000000
vn -0.000000 0.642800 0.766000
vn -0.000000 0.984800 0.173600
vn 1.000000 -0.000000 0.000000
vn -0.000000 0.342000 -0.939700
vn -0.000000 0.866000 -0.500000
vn -1.000000 0.000000 0.000000
vn -0.000000 -0.000000 -1.000000
vn -0.000000 0.866000 0.500000
vn 0.000000 -0.342000 0.939700
vn 0.000000 -0.642800 -0.766000
vn -0.000000 0.984800 -0.173600
vn 0.000000 -0.984800 -0.173600
vn -0.000000 0.642800 -0.766000
vn 0.000000 0.342000 0.939700
vn 0.000000 -0.866000 0.500000
vn -0.000000 1.000000 0.000000
vn -0.170400 -0.985400 0.000000
vn -0.980600 0.196100 0.000000
vn 0.964600 -0.263800 -0.000000
vn -0.949700 0.313200 0.000000
vn 0.186300 0.982400 -0.016600
vn -0.144800 -0.989500 0.000000
vn 0.186300 0.982400 0.016600
vn 0.947000 -0.321300 0.000000
vn 0.969200 -0.246200 0.000000
vn -0.295200 0.011200 0.955400
vn -0.916000 -0.401100 0.000000
vn -0.701100 -0.713000 0.000000
vn -0.919200 0.393800 0.000000
vn -0.917100 0.398600 0.000000
vn -0.008100 0.002800 1.000000
vn 0.939900 -0.341500 0.000000
vn -0.105700 -0.994400 0.000000
vn -0.686400 0.294000 0.665100
vn 0.980900 0.194600 0.000600
vn 0.003200 -0.755400 0.655300
vn -0.999300 0.038000 0.000000
vn -0.624900 -0.214800 0.750600
vn -0.248900 0.968500 0.000000
vn -0.419200 0.907900 0.000000
vn -0.036100 0.936100 0.349800
vn -0.611600 -0.791200 0.000000
vn 0.907700 -0.419700 -0.000000
vn 0.656400 -0.303500 0.690600
vn -0.953000 0.303000 0.000000
vn 0.002100 0.999800 0.017300
vn 0.004000 0.915900 0.401400
vn -0.941300 0.337700 0.000000
vn 0.779800 -0.626000 0.002300
vn 0.002300 0.999800 0.017500
vn 0.677400 -0.194800 0.709400
vn -0.519400 0.351000 0.779200
vn 0.000300 -0.999900 0.014600
vn 0.999700 0.022300 -0.002900
vn -0.015900 0.999900 0.000000
vn 0.015900 -0.999800 0.014200
vn 0.033600 -0.999300 0.014000
vn -0.039400 0.999200 -0.000000
vn 0.009800 -0.699500 0.714500
vn -0.000500 -0.012900 0.999900
vn -0.139400 -0.400700 0.905600
vn 0.024400 -0.008100 0.999700
vn -0.003200 0.000700 1.000000
vn -0.454100 0.044800 0.889800
vn -0.494500 0.050900 0.867700
vn -0.007100 0.002600 1.000000
vn -0.009100 0.003300 1.000000
vn 0.000700 0.000000 1.000000
vn 0.004800 0.000900 1.000000
vn 0.002400 0.000100 1.000000
vn 0.696700 -0.253100 0.671200
vn -0.622600 0.173500 0.763100
vn -0.000100 0.916900 0.399000
vn 0.049200 -0.674600 0.736500
vn 0.663400 0.132000 0.736500
vn -0.681000 0.216600 0.699500
vn -0.330800 -0.589300 0.737000
vn -0.314600 0.670900 0.671500
vn -0.011800 0.914800 0.403600
vn -0.663800 -0.290600 0.689100
vn 0.808200 0.025000 0.588400
vn 0.594700 -0.402300 0.696000
vn 0.638700 -0.228700 0.734700
vn -0.687700 0.298800 0.661600
vn -0.004400 0.003200 1.000000
vn -0.003600 0.000400 1.000000
vn 0.002900 -0.001200 1.000000
vn -0.003800 0.001900 1.000000
vn 0.009300 0.000600 1.000000
vn 0.004000 -0.001000 1.000000
vn -0.002800 -0.001000 1.000000
vn -0.012800 -0.415600 0.909500
vn 0.023100 -0.009600 0.999700
vn 0.029300 -0.012700 0.999500
vn -0.037700 -0.229600 0.972600
vn 0.472000 -0.881600 0.000000
vn -0.682200 -0.730100 0.039600
vn -0.998700 -0.049000 0.016600
vn 0.007200 0.016800 0.999800
vn 0.944200 -0.329300 0.001500
vn 0.825100 -0.564900 0.000200
vn 0.023100 0.014100 0.999600
vn 0.999100 -0.043500 -0.002400
vn 0.539100 -0.842200 -0.002300
vn -0.816200 0.577700 0.010300
vn 0.026700 -0.004000 0.999600
vn -0.101700 0.994700 0.012900
vn -0.577900 0.816000 0.013100
vn 0.030000 -0.014400 0.999400
vn 0.013300 -0.022100 0.999700
vn 0.016100 -0.024200 0.999600
vn 0.097300 -0.995300 -0.002000
vn 0.016600 -0.999900 -0.002100
vn 0.038100 0.999200 0.013800
vn 0.678600 0.734500 0.001600
vn -0.084300 -0.996400 0.001300
vn 0.695600 -0.718400 0.000000
vn 0.512400 -0.529200 0.676300
vn -0.048700 0.016500 0.998700
vn -0.295200 0.011200 -0.955400
vn -0.008100 0.002800 -1.000000
vn -0.686400 0.294000 -0.665100
vn 0.980900 0.194600 -0.000600
vn 0.003200 -0.755400 -0.655300
vn -0.624900 -0.214800 -0.750600
vn -0.036100 0.936100 -0.349800
vn 0.656400 -0.303500 -0.690600
vn 0.002100 0.999800 -0.017300
vn 0.004000 0.915900 -0.401400
vn 0.779800 -0.626000 -0.002300
vn 0.002300 0.999800 -0.017500
vn 0.677400 -0.194800 -0.709400
vn -0.519400 0.351000 -0.779200
vn 0.000300 -0.999900 -0.014600
vn 0.999700 0.022300 0.002900
vn 0.015900 -0.999800 -0.014200
vn 0.033600 -0.999300 -0.014000
vn 0.009800 -0.699500 -0.714500
vn -0.000500 -0.012900 -0.999900
vn -0.139400 -0.400700 -0.905600
vn 0.024400 -0.008100 -0.999700
vn -0.003200 0.000700 -1.000000
vn -0.454100 0.044800 -0.889800
vn -0.494500 0.050900 -0.867700
vn -0.007100 0.002600 -1.000000
vn -0.009100 0.003300 -1.000000
vn 0.000700 0.000000 -1.000000
vn 0.004800 0.000900 -1.000000
vn 0.002400 0.000100 -1.000000
vn 0.696700 -0.253100 -0.671200
vn -0.622600 0.173500 -0.763100
vn -0.000100 0.916900 -0.399000
vn 0.049200 -0.674600 -0.736500
vn 0.663400 0.132000 -0.736500
vn -0.681000 0.216600 -0.699500
vn -0.330800 -0.589300 -0.737000
vn -0.314600 0.670900 -0.671500
vn -0.011800 0.914800 -0.403600
vn -0.663800 -0.290600 -0.689100
vn 0.808200 0.025000 -0.588400
vn 0.594800 -0.402300 -0.696000
vn 0.638700 -0.228700 -0.734700
vn -0.687700 0.298800 -0.661600
vn -0.004400 0.003200 -1.000000
vn -0.003600 0.000400 -1.000000
vn 0.002900 -0.001200 -1.000000
vn -0.003800 0.001900 -1.000000
vn 0.009300 0.000600 -1.000000
vn 0.004000 -0.001000 -1.000000
vn -0.002800 -0.001000 -1.000000
vn -0.012800 -0.415600 -0.909500
vn 0.023100 -0.009600 -0.999700
vn 0.029300 -0.012700 -0.999500
vn -0.037700 -0.229600 -0.972600
vn -0.682200 -0.730100 -0.039600
vn -0.998700 -0.049000 -0.016600
vn 0.007200 0.016800 -0.999800
vn 0.944200 -0.329300 -0.001500
vn 0.825100 -0.564900 -0.000200
vn 0.023100 0.014100 -0.999600
vn 0.999100 -0.043500 0.002400
vn 0.539100 -0.842200 0.002300
vn -0.816200 0.577700 -0.010300
vn 0.026700 -0.004000 -0.999600
vn -0.101700 0.994700 -0.012900
vn -0.577900 0.816000 -0.013100
vn 0.030000 -0.014400 -0.999400
vn 0.013300 -0.022100 -0.999700
vn 0.016100 -0.024200 -0.999600
vn 0.097300 -0.995300 0.002000
vn 0.016600 -0.999900 0.002100
vn 0.038100 0.999200 -0.013800
vn 0.678600 0.734500 -0.001600
vn -0.084300 -0.996400 -0.001300
vn 0.512400 -0.529200 -0.676300
vn -0.048700 0.016500 -0.998700
vn -0.944500 0.328400 0.000000
vn 0.944500 -0.328400 -0.000000
vn -0.158400 -0.985800 -0.056200
vn 0.917900 0.395600 0.030300
vn -0.927200 0.374300 0.012400
vn -0.925000 0.379700 0.012700
vn 0.279100 0.958600 0.055700
vn 0.938900 -0.344000 -0.010600
vn -0.947100 0.320700 0.009200
vn -0.062500 -0.384300 0.921100
vn 0.997800 -0.066400 0.005300
vn 0.939800 -0.341500 -0.010500
vn -0.992800 0.119800 -0.002300
vn 0.950100 -0.311900 -0.008700
vn -0.917100 0.398500 0.013800
vn -0.943800 0.330400 0.009800
vn 0.963300 -0.268500 -0.006200
vn 0.938900 -0.344100 -0.010600
vn 0.930500 -0.366200 -0.011900
vn -0.059900 0.996700 0.054800
vn 0.924300 -0.381300 -0.012800
vn -0.858200 0.512900 0.020700
vn -0.158400 -0.985800 0.056200
vn 0.917900 0.395600 -0.030300
vn -0.927200 0.374300 -0.012400
vn -0.925000 0.379700 -0.012700
vn 0.279100 0.958600 -0.055700
vn 0.938900 -0.344000 0.010600
vn -0.947100 0.320700 -0.009200
vn -0.062500 -0.384300 -0.921100
vn 0.997800 -0.066400 -0.005300
vn 0.939800 -0.341500 0.010500
vn -0.992800 0.119800 0.002300
vn 0.950100 -0.311900 0.008700
vn -0.917100 0.398500 -0.013800
vn -0.943800 0.330400 -0.009800
vn 0.963300 -0.268500 0.006200
vn 0.938900 -0.344100 0.010600
vn 0.930500 -0.366200 0.011900
vn -0.059900 0.996700 -0.054800
vn 0.924400 -0.381300 0.012800
vn -0.858200 0.512900 -0.020700
vn -0.999400 -0.034500 0.000000
vn 0.901900 0.431900 0.000000
vn 0.000000 -1.000000 0.000000
vn 0.001500 1.000000 -0.000000
vn 0.881500 0.472100 0.000000
vn 0.918200 -0.396100 0.000000
vn -0.998600 -0.052100 0.000000
vn 0.939700 -0.341900 0.000000
vn 0.996600 0.082700 0.000000
vn -0.003500 1.000000 -0.000000
vn 0.743400 0.668800 0.005300
vn -0.002900 0.819200 0.573500
vn -0.009000 1.000000 0.000000
vn 0.743400 0.668800 -0.005300
vn -0.006300 0.810000 0.586400
vn -0.008900 1.000000 0.000000
vn -0.000000 0.580100 0.814600
vn -0.002100 0.809900 0.586600
vn -0.006300 0.810000 -0.586400
vn -0.006200 0.808600 0.588400
vn -0.717200 0.696900 0.000000
vn 0.999800 0.000000 0.021100
vn -0.000000 0.580100 -0.814600
vn -0.006200 0.808600 -0.588400
vn -0.002100 0.809900 -0.586600
vn -0.006200 0.806500 0.591200
vn -0.008700 1.000000 0.000000
vn -0.715300 0.698800 0.000000
vn -0.771200 0.636300 0.018300
vn 0.211500 0.977400 0.002200
vn 0.999800 0.000000 -0.021100
vn 0.413400 0.910600 0.000000
vn 0.073200 0.997300 0.000000
vn 0.000000 0.820200 -0.572100
vn 0.211500 0.977400 -0.002200
vn 0.000000 -0.908400 0.418100
vn 0.001400 -0.413300 0.910600
vn -0.001000 -0.000100 -1.000000
vn -0.006100 0.803900 -0.594700
vn -0.006200 0.806500 -0.591200
vn 0.178800 -0.565800 -0.804900
vn 0.178800 -0.565800 0.804900
vn 0.344100 -0.674300 0.653300
vn -0.001000 -0.000100 1.000000
vn -0.006100 0.803900 0.594700
vn 0.999900 0.013100 0.000000
vn 0.804500 0.591300 -0.056100
vn 0.001400 -0.413300 -0.910600
vn -0.771300 0.636200 -0.018200
vn -0.998900 -0.046000 0.013500
vn -0.528100 0.481600 0.699400
vn 0.000000 0.820200 0.572100
vn 0.011000 -0.004700 0.999900
vn -0.528100 0.481600 -0.699400
vn 0.007600 -0.906600 0.422000
vn 0.387500 0.921600 0.024800
vn 0.578500 -0.815700 0.000000
vn 0.000000 -0.908400 -0.418100
vn -0.998900 -0.045700 -0.013400
vn 0.000900 -0.410600 0.911800
vn 0.007200 -1.000000 0.000000
vn -0.601700 -0.798700 0.000000
vn 0.998300 -0.007000 0.057200
vn 0.804500 0.591300 0.056100
vn 0.387500 0.921600 -0.024800
vn 0.789700 0.009000 -0.613500
vn 0.006700 -0.872900 -0.487800
vn 0.344100 -0.674300 -0.653300
vn 0.079600 -0.938500 -0.336100
vn 0.007600 -0.906600 -0.422000
vn 0.079600 -0.938500 0.336100
vn 0.448700 -0.759600 0.470800
vn 0.006700 -0.872900 0.487800
vn 0.006600 -0.875400 0.483300
vn 0.789700 0.009000 0.613500
vn 0.977800 0.209800 0.000000
vn -0.002900 0.819200 -0.573500
vn -0.671300 0.064000 -0.738400
vn -0.999500 -0.031300 -0.000000
vn -0.671300 0.064000 0.738400
vn -0.000000 -0.420900 0.907100
vn 0.000000 -0.420900 -0.907100
vn 0.000900 -0.410600 -0.911800
vn 0.011000 -0.004700 -0.999900
vn -0.544700 0.838600 -0.001100
vn 0.006600 -0.875400 -0.483300
vn 0.448700 -0.759600 -0.470800
vn 0.998300 -0.007000 -0.057200
vn 0.007800 -0.875800 0.482600
vn 0.007600 -0.875800 0.482600
vn 0.998700 0.051100 -0.000000
vn -0.544700 0.838600 0.001100
vn -0.565100 0.004000 0.825000
vn 0.007600 -0.875800 -0.482600
vn 0.007800 -0.875800 -0.482600
vn -0.565100 0.004000 -0.825000
vn -1.000000 -0.000300 -0.004600
vn -0.390800 -0.526400 0.755100
vn 0.004500 -0.564400 0.825500
vn 0.019200 -0.562800 0.826400
vn 0.999600 0.029200 -0.000000
vn -1.000000 -0.000300 0.004600
vn -0.390800 -0.526400 -0.755100
vn -0.393800 -0.509700 0.765000
vn -0.999900 -0.010800 -0.004000
vn 0.019200 -0.562800 -0.826400
vn 0.004500 -0.564400 -0.825500
vn 0.005000 -0.564200 0.825600
vn 0.018900 -0.555100 0.831600
vn 0.005000 -0.564400 0.825500
vn 0.982800 -0.184600 -0.000000
vn -0.393800 -0.509700 -0.764900
vn -0.999900 -0.010800 0.004000
vn -0.590000 -0.807400 0.000000
vn 0.004300 -0.555700 0.831400
vn -1.000000 0.004200 0.000000
vn 0.005000 -0.564400 -0.825500
vn 0.005000 -0.564200 -0.825600
vn 0.018900 -0.555100 -0.831600
vn 0.004900 -0.555600 0.831400
vn 0.034100 -0.999400 0.000000
vn 0.019600 -0.582300 0.812700
vn 0.060400 -0.998200 0.000000
vn 0.004300 -0.555700 -0.831400
vn 0.007700 -1.000000 0.000000
vn 0.019600 -0.582300 -0.812700
vn 0.004900 -0.555600 -0.831400
vn 0.008900 -1.000000 0.000000
vn 0.239000 0.971000 0.000000
vn 0.003900 -0.035400 0.999400
vn 0.244300 0.969700 0.000000
vn -0.195500 0.980700 0.000000
vn 0.020400 -0.048100 0.998600
vn 0.003900 -0.035400 -0.999400
vn -0.987000 0.160800 0.000000
vn -0.450600 -0.892700 0.000000
vn -0.559400 -0.828900 0.000000
vn -0.045100 -0.050100 -0.997700
vn 0.997900 0.049700 0.042500
vn 0.997300 0.073000 -0.007200
vn 0.997300 0.073000 0.007200
vn 0.997900 0.049700 -0.042500
usemtl Muzzle
s off
f 282/1/1 283/1/1 285/1/1 284/1/1
f 284/1/2 285/1/2 287/1/2 286/1/2
f 286/1/3 287/1/3 289/1/3 288/1/3
f 288/1/4 289/1/4 291/1/4 290/1/4
f 290/1/5 291/1/5 293/1/5 292/1/5
f 292/1/6 293/1/6 295/1/6 294/1/6
f 294/1/7 295/1/7 297/1/7 296/1/7
f 293/1/8 291/1/8 304/1/8 305/1/8
f 298/1/9 299/1/9 283/1/9 282/1/9
f 296/1/10 297/1/10 299/1/10 298/1/10
f 282/1/11 284/1/11 286/1/11 288/1/11 290/1/11 292/1/11 294/1/11 296/1/11 298/1/11
f 305/1/12 304/1/12 313/1/12 314/1/12
f 291/1/8 289/1/8 303/1/8 304/1/8
f 285/1/8 283/1/8 301/1/8 300/1/8
f 289/1/8 287/1/8 302/1/8 303/1/8
f 287/1/8 285/1/8 300/1/8 302/1/8
f 283/1/8 299/1/8 308/1/8 301/1/8
f 299/1/8 297/1/8 307/1/8 308/1/8
f 297/1/8 295/1/8 306/1/8 307/1/8
f 295/1/8 293/1/8 305/1/8 306/1/8
f 309/1/8 310/1/8 317/1/8 316/1/8 315/1/8 314/1/8 313/1/8 312/1/8 311/1/8
f 302/1/13 300/1/13 309/1/13 311/1/13
f 301/1/14 308/1/14 317/1/14 310/1/14
f 306/1/15 305/1/15 314/1/15 315/1/15
f 303/1/16 302/1/16 311/1/16 312/1/16
f 307/1/17 306/1/17 315/1/17 316/1/17
f 304/1/18 303/1/18 312/1/18 313/1/18
f 300/1/19 301/1/19 310/1/19 309/1/19
f 308/1/20 307/1/20 316/1/20 317/1/20
usemtl Magazine
f 2/2/5 6/2/5 5/2/5 1/2/5
f 3/2/12 7/2/12 8/2/12 4/2/12
f 2/2/21 10/2/21 12/2/21 4/2/21
f 1/2/21 3/2/21 11/2/21 9/2/21
f 5/2/22 7/2/22 8/2/22 6/2/22
f 9/2/23 11/2/23 15/2/23 13/2/23
f 10/2/24 14/2/24 16/2/24 12/2/24
f 1/2/25 5/2/25 7/2/25 3/2/25
f 10/2/5 9/2/5 13/2/5 14/2/5
f 11/2/12 12/2/12 16/2/12 15/2/12
f 2/2/26 1/2/26 9/2/26 10/2/26
f 13/2/27 15/2/27 16/2/27 14/2/27
f 3/2/28 4/2/28 12/2/28 11/2/28
f 6/2/29 2/2/29 4/2/29 8/2/29
usemtl Metal
f 133/3/30 22/3/30 19/3/30 130/3/30
f 28/3/31 27/3/31 58/3/31 57/3/31
f 127/3/32 18/3/32 24/3/32 137/3/32
f 17/3/33 128/3/33 238/3/33 107/3/33
f 21/3/34 134/3/34 128/3/34 17/3/34
f 31/3/35 153/3/35 134/3/35 21/3/35
f 46/3/36 45/3/36 74/3/36 71/3/36
f 152/3/37 32/3/37 22/3/37 133/3/37
f 148/3/38 30/3/38 27/3/38 143/3/38
f 21/3/39 17/3/39 48/3/39 50/3/39
f 25/3/40 138/3/40 159/3/40 35/3/40
f 36/3/41 109/3/41 38/3/41 64/3/41 63/3/41
f 143/3/42 27/3/42 28/3/42 145/3/42
f 30/3/43 24/3/43 49/3/43 59/3/43
f 29/3/44 149/3/44 145/3/44 28/3/44
f 26/3/45 141/3/45 149/3/45 29/3/45
f 42/3/46 37/3/46 61/3/46 68/3/46
f 137/3/47 24/3/47 30/3/47 148/3/47
f 129/3/48 20/3/48 32/3/48 152/3/48
f 32/3/49 20/3/49 47/3/49 51/3/49
f 18/3/50 127/3/50 153/3/50 31/3/50
f 33/3/51 154/3/51 157/3/51 34/3/51
f 33/3/52 34/3/52 55/3/52 60/3/52
f 141/3/53 26/3/53 34/3/53 157/3/53
f 35/3/54 159/3/54 160/3/54 36/3/54
f 154/3/55 33/3/55 37/3/55 162/3/55
f 19/3/56 22/3/56 45/3/56 46/3/56
f 26/3/57 29/3/57 56/3/57 54/3/57
f 36/3/58 160/3/58 243/3/58 109/3/58
f 40/3/59 168/3/59 166/3/59 39/3/59
f 172/3/60 42/3/60 39/3/60 166/3/60
f 41/3/61 173/3/61 168/3/61 40/3/61
f 38/3/62 164/3/62 173/3/62 41/3/62
f 162/3/63 37/3/63 42/3/63 172/3/63
f 41/3/64 40/3/64 66/3/64 67/3/64
f 60/3/65 55/3/65 83/3/65 87/3/65 84/3/65
f 19/3/66 46/3/66 71/3/66 70/3/66
f 44/3/67 43/3/67 72/3/67 73/3/67
f 52/3/68 53/3/68 81/3/68 80/3/68
f 59/3/69 56/3/69 57/3/69 58/3/69
f 49/3/70 54/3/70 56/3/70 59/3/70
f 51/3/71 47/3/71 75/3/71 79/3/71
f 45/3/72 51/3/72 79/3/72 74/3/72
f 68/3/73 67/3/73 66/3/73 65/3/73
f 60/3/74 63/3/74 64/3/74 61/3/74
f 61/3/75 64/3/75 67/3/75 68/3/75
f 22/3/76 32/3/76 51/3/76 45/3/76
f 34/3/77 26/3/77 54/3/77 55/3/77
f 37/3/78 33/3/78 60/3/78 61/3/78
f 38/3/79 41/3/79 67/3/79 64/3/79
f 25/3/80 35/3/80 62/3/80 53/3/80
f 18/3/81 31/3/81 43/3/81 44/3/81
f 27/3/82 30/3/82 59/3/82 58/3/82
f 29/3/83 28/3/83 57/3/83 56/3/83
f 39/3/84 42/3/84 68/3/84 65/3/84
f 24/3/85 18/3/85 44/3/85 49/3/85
f 40/3/86 39/3/86 65/3/86 66/3/86
f 35/3/87 36/3/87 63/3/87 62/3/87
f 23/3/88 25/3/88 53/3/88 52/3/88
f 31/3/89 21/3/89 50/3/89 43/3/89
f 47/3/90 52/3/90 80/3/90 75/3/90
f 53/3/91 62/3/91 85/3/91 81/3/91
f 55/3/92 54/3/92 82/3/92 83/3/92
f 62/3/93 63/3/93 86/3/93 85/3/93
f 49/3/94 44/3/94 73/3/94 77/3/94
f 54/3/95 49/3/95 77/3/95 82/3/95
f 63/3/96 60/3/96 84/3/96 86/3/96
f 48/3/97 17/3/97 69/3/97 76/3/97
f 50/3/98 48/3/98 76/3/98 78/3/98
f 43/3/99 50/3/99 78/3/99 72/3/99
f 17/3/100 19/3/100 70/3/100 69/3/100
f 240/3/22 241/3/22 273/3/22 275/3/22
f 130/3/101 19/3/101 108/3/101 241/3/101
f 19/3/5 17/3/5 107/3/5 108/3/5
f 109/3/102 243/3/102 247/3/102 111/3/102
f 111/3/103 247/3/103 251/3/103 113/3/103
f 38/3/104 109/3/104 111/3/104 110/3/104
f 164/3/105 38/3/105 110/3/105 245/3/105
f 249/3/106 112/3/106 114/3/106 253/3/106
f 110/3/107 111/3/107 113/3/107 112/3/107
f 245/3/108 110/3/108 112/3/108 249/3/108
f 253/3/109 114/3/109 116/3/109 257/3/109
f 113/3/110 251/3/110 255/3/110 115/3/110
f 112/3/111 113/3/111 115/3/111 114/3/111
f 117/3/112 259/3/112 263/3/112 119/3/112
f 115/3/113 255/3/113 259/3/113 117/3/113
f 114/3/114 115/3/114 117/3/114 116/3/114
f 118/3/115 119/3/115 121/3/115 120/3/115
f 116/3/116 117/3/116 119/3/116 118/3/116
f 257/3/117 116/3/117 118/3/117 261/3/117
f 261/3/118 118/3/118 120/3/118 265/3/118
f 119/3/119 263/3/119 267/3/119 121/3/119
f 121/3/120 267/3/120 138/3/120 25/3/120
f 265/3/121 120/3/121 122/3/121 269/3/121
f 20/3/122 129/3/122 269/3/122 122/3/122
f 20/3/123 122/3/123 23/3/123 52/3/123 47/3/123
f 120/3/124 121/3/124 25/3/124 23/3/124 122/3/124
f 133/3/30 130/3/30 125/3/30 132/3/30
f 144/3/125 188/3/125 189/3/125 142/3/125
f 127/3/32 137/3/32 136/3/32 124/3/32
f 123/3/33 239/3/33 238/3/33 128/3/33
f 131/3/34 123/3/34 128/3/34 134/3/34
f 150/3/35 131/3/35 134/3/35 153/3/35
f 177/3/126 202/3/126 205/3/126 176/3/126
f 152/3/37 133/3/37 132/3/37 151/3/37
f 148/3/38 143/3/38 142/3/38 147/3/38
f 131/3/127 181/3/127 179/3/127 123/3/127
f 139/3/128 158/3/128 159/3/128 138/3/128
f 161/3/129 194/3/129 195/3/129 165/3/129 242/3/129
f 143/3/42 145/3/42 144/3/42 142/3/42
f 147/3/130 190/3/130 180/3/130 136/3/130
f 146/3/44 144/3/44 145/3/44 149/3/44
f 140/3/45 146/3/45 149/3/45 141/3/45
f 171/3/131 199/3/131 192/3/131 163/3/131
f 137/3/47 148/3/47 147/3/47 136/3/47
f 129/3/48 152/3/48 151/3/48 126/3/48
f 151/3/132 182/3/132 178/3/132 126/3/132
f 124/3/50 150/3/50 153/3/50 127/3/50
f 155/3/133 156/3/133 157/3/133 154/3/133
f 155/3/134 191/3/134 186/3/134 156/3/134
f 141/3/53 157/3/53 156/3/53 140/3/53
f 158/3/135 161/3/135 160/3/135 159/3/135
f 154/3/136 162/3/136 163/3/136 155/3/136
f 125/3/137 177/3/137 176/3/137 132/3/137
f 140/3/138 185/3/138 187/3/138 146/3/138
f 161/3/139 242/3/139 243/3/139 160/3/139
f 169/3/140 167/3/140 166/3/140 168/3/140
f 172/3/60 166/3/60 167/3/60 171/3/60
f 170/3/141 169/3/141 168/3/141 173/3/141
f 165/3/142 170/3/142 173/3/142 164/3/142
f 162/3/63 172/3/63 171/3/63 163/3/63
f 170/3/143 198/3/143 197/3/143 169/3/143
f 191/3/144 215/3/144 218/3/144 214/3/144 186/3/144
f 125/3/145 201/3/145 202/3/145 177/3/145
f 175/3/146 204/3/146 203/3/146 174/3/146
f 183/3/147 211/3/147 212/3/147 184/3/147
f 190/3/148 189/3/148 188/3/148 187/3/148
f 180/3/149 190/3/149 187/3/149 185/3/149
f 182/3/150 210/3/150 206/3/150 178/3/150
f 176/3/151 205/3/151 210/3/151 182/3/151
f 199/3/152 196/3/152 197/3/152 198/3/152
f 191/3/153 192/3/153 195/3/153 194/3/153
f 192/3/154 199/3/154 198/3/154 195/3/154
f 132/3/155 176/3/155 182/3/155 151/3/155
f 156/3/156 186/3/156 185/3/156 140/3/156
f 163/3/157 192/3/157 191/3/157 155/3/157
f 165/3/158 195/3/158 198/3/158 170/3/158
f 139/3/159 184/3/159 193/3/159 158/3/159
f 124/3/160 175/3/160 174/3/160 150/3/160
f 142/3/161 189/3/161 190/3/161 147/3/161
f 146/3/162 187/3/162 188/3/162 144/3/162
f 167/3/163 196/3/163 199/3/163 171/3/163
f 136/3/164 180/3/164 175/3/164 124/3/164
f 169/3/165 197/3/165 196/3/165 167/3/165
f 158/3/166 193/3/166 194/3/166 161/3/166
f 135/3/167 183/3/167 184/3/167 139/3/167
f 150/3/168 174/3/168 181/3/168 131/3/168
f 178/3/169 206/3/169 211/3/169 183/3/169
f 184/3/170 212/3/170 216/3/170 193/3/170
f 186/3/171 214/3/171 213/3/171 185/3/171
f 193/3/172 216/3/172 217/3/172 194/3/172
f 180/3/173 208/3/173 204/3/173 175/3/173
f 185/3/174 213/3/174 208/3/174 180/3/174
f 194/3/175 217/3/175 215/3/175 191/3/175
f 179/3/176 207/3/176 200/3/176 123/3/176
f 181/3/177 209/3/177 207/3/177 179/3/177
f 174/3/178 203/3/178 209/3/178 181/3/178
f 123/3/179 200/3/179 201/3/179 125/3/179
f 107/3/22 238/3/22 270/3/22 271/3/22
f 130/3/101 241/3/101 240/3/101 125/3/101
f 125/3/12 240/3/12 239/3/12 123/3/12
f 242/3/180 246/3/180 247/3/180 243/3/180
f 246/3/181 250/3/181 251/3/181 247/3/181
f 165/3/182 244/3/182 246/3/182 242/3/182
f 164/3/183 245/3/183 244/3/183 165/3/183
f 249/3/184 253/3/184 252/3/184 248/3/184
f 244/3/185 248/3/185 250/3/185 246/3/185
f 245/3/186 249/3/186 248/3/186 244/3/186
f 253/3/187 257/3/187 256/3/187 252/3/187
f 250/3/188 254/3/188 255/3/188 251/3/188
f 248/3/189 252/3/189 254/3/189 250/3/189
f 258/3/190 262/3/190 263/3/190 259/3/190
f 254/3/191 258/3/191 259/3/191 255/3/191
f 252/3/192 256/3/192 258/3/192 254/3/192
f 260/3/193 264/3/193 266/3/193 262/3/193
f 256/3/194 260/3/194 262/3/194 258/3/194
f 257/3/195 261/3/195 260/3/195 256/3/195
f 261/3/196 265/3/196 264/3/196 260/3/196
f 262/3/197 266/3/197 267/3/197 263/3/197
f 266/3/198 139/3/198 138/3/198 267/3/198
f 265/3/199 269/3/199 268/3/199 264/3/199
f 126/3/122 268/3/122 269/3/122 129/3/122
f 126/3/200 178/3/200 183/3/200 135/3/200 268/3/200
f 264/3/201 268/3/201 135/3/201 139/3/201 266/3/201
f 272/3/12 271/3/12 277/3/12 278/3/12
f 274/3/5 275/3/5 281/3/5 280/3/5
f 238/3/22 239/3/22 274/3/22 270/3/22
f 108/3/22 107/3/22 271/3/22 272/3/22
f 239/3/22 240/3/22 275/3/22 274/3/22
f 241/3/22 108/3/22 272/3/22 273/3/22
f 277/3/22 276/3/22 279/3/22 278/3/22
f 280/3/22 281/3/22 279/3/22 276/3/22
f 275/3/202 273/3/202 279/3/202 281/3/202
f 270/3/203 274/3/203 280/3/203 276/3/203
f 273/3/202 272/3/202 278/3/202 279/3/202
f 271/3/203 270/3/203 276/3/203 277/3/203
usemtl Wood
f 69/4/204 70/4/204 89/4/204 88/4/204
f 86/4/205 84/4/205 106/4/205 105/4/205
f 78/4/206 76/4/206 95/4/206 97/4/206
f 82/4/207 77/4/207 96/4/207 101/4/207
f 84/4/208 87/4/208 103/4/208 106/4/208
f 85/4/209 86/4/209 105/4/209 104/4/209
f 77/4/210 73/4/210 92/4/210 96/4/210
f 88/4/211 89/4/211 90/4/211 95/4/211
f 93/4/5 97/4/5 95/4/5 90/4/5
f 98/4/5 91/4/5 97/4/5 93/4/5
f 92/4/5 94/4/5 99/4/5 96/4/5
f 96/4/5 99/4/5 100/4/5 101/4/5
f 94/4/5 92/4/5 91/4/5 98/4/5
f 101/4/5 100/4/5 104/4/5 105/4/5 106/4/5 103/4/5 102/4/5
f 80/4/212 81/4/212 100/4/212 99/4/212
f 74/4/213 79/4/213 98/4/213 93/4/213
f 76/4/214 69/4/214 88/4/214 95/4/214
f 70/4/215 71/4/215 90/4/215 89/4/215
f 72/4/216 78/4/216 97/4/216 91/4/216
f 73/4/217 72/4/217 91/4/217 92/4/217
f 79/4/218 75/4/218 94/4/218 98/4/218
f 71/4/219 74/4/219 93/4/219 90/4/219
f 75/4/220 80/4/220 99/4/220 94/4/220
f 87/4/221 83/4/221 102/4/221 103/4/221
f 81/4/222 85/4/222 104/4/222 100/4/222
f 83/4/223 82/4/223 101/4/223 102/4/223
f 200/4/224 219/4/224 220/4/224 201/4/224
f 217/4/225 236/4/225 237/4/225 215/4/225
f 209/4/226 228/4/226 226/4/226 207/4/226
f 213/4/227 232/4/227 227/4/227 208/4/227
f 215/4/228 237/4/228 234/4/228 218/4/228
f 216/4/229 235/4/229 236/4/229 217/4/229
f 208/4/230 227/4/230 223/4/230 204/4/230
f 219/4/231 226/4/231 221/4/231 220/4/231
f 224/4/12 221/4/12 226/4/12 228/4/12
f 229/4/12 224/4/12 228/4/12 222/4/12
f 223/4/12 227/4/12 230/4/12 225/4/12
f 227/4/12 232/4/12 231/4/12 230/4/12
f 225/4/12 229/4/12 222/4/12 223/4/12
f 232/4/12 233/4/12 234/4/12 237/4/12 236/4/12 235/4/12 231/4/12
f 211/4/232 230/4/232 231/4/232 212/4/232
f 205/4/233 224/4/233 229/4/233 210/4/233
f 207/4/234 226/4/234 219/4/234 200/4/234
f 201/4/235 220/4/235 221/4/235 202/4/235
f 203/4/236 222/4/236 228/4/236 209/4/236
f 204/4/237 223/4/237 222/4/237 203/4/237
f 210/4/238 229/4/238 225/4/238 206/4/238
f 202/4/239 221/4/239 224/4/239 205/4/239
f 206/4/240 225/4/240 230/4/240 211/4/240
f 218/4/241 234/4/241 233/4/241 214/4/241
f 212/4/242 231/4/242 235/4/242 216/4/242
f 214/4/243 233/4/243 232/4/243 213/4/243
usemtl Material.003
f 326/5/244 327/5/244 320/5/244 318/5/244
f 327/5/12 328/5/12 324/5/12 320/5/12
f 328/5/245 329/5/245 322/5/245 324/5/245
f 329/5/5 326/5/5 318/5/5 322/5/5
f 318/5/246 320/5/246 324/5/246 322/5/246
f 323/5/247 325/5/247 321/5/247 319/5/247
f 340/5/5 341/5/5 326/5/5 329/5/5
f 339/5/248 340/5/248 329/5/248 328/5/248
f 338/5/12 339/5/12 328/5/12 327/5/12
f 341/5/244 338/5/244 327/5/244 326/5/244
f 319/5/244 321/5/244 331/5/244 330/5/244
f 321/5/12 325/5/12 332/5/12 331/5/12
f 325/5/249 323/5/249 333/5/249 332/5/249
f 323/5/5 319/5/5 330/5/5 333/5/5
f 330/5/250 331/5/250 334/5/250 337/5/250
f 331/5/12 332/5/12 335/5/12 334/5/12
f 332/5/251 333/5/251 336/5/251 335/5/251
f 333/5/5 330/5/5 337/5/5 336/5/5
f 337/5/244 334/5/244 338/5/244 341/5/244
f 334/5/12 335/5/12 339/5/12 338/5/12
f 335/5/252 336/5/252 340/5/252 339/5/252
f 336/5/5 337/5/5 341/5/5 340/5/5
usemtl DarkerMetal
f 342/6/253 343/6/253 344/6/253 345/6/253
f 345/6/254 346/6/254 352/6/254 342/6/254
f 343/6/255 342/6/255 473/6/255 430/6/255 396/6/255 542/6/255 532/6/255 471/6/255 429/6/255 604/6/255 533/6/255 472/6/255 367/6/255 527/6/255 470/6/255 428/6/255 395/6/255 423/6/255 390/6/255 353/6/255 347/6/255 354/6/255
f 344/6/256 343/6/256 348/6/256 349/6/256
f 350/6/253 345/6/253 344/6/253 351/6/253
f 345/6/257 350/6/257 364/6/257 346/6/257
f 344/6/256 349/6/256 355/6/256 351/6/256
f 343/6/258 356/6/258 373/6/258 348/6/258
f 349/6/259 348/6/259 357/6/259 358/6/259
f 360/6/260 342/6/260 352/6/260 361/6/260
f 352/6/21 346/6/21 362/6/21 363/6/21
f 347/6/5 353/6/5 365/6/5 366/6/5
f 366/6/11 368/6/11 369/6/11 370/6/11 354/6/11 347/6/11
f 343/6/261 354/6/261 370/6/261 356/6/261
f 349/6/259 358/6/259 371/6/259 355/6/259
f 351/6/262 355/6/262 401/6/262 372/6/262
f 348/6/263 373/6/263 404/6/263 357/6/263
f 358/6/259 357/6/259 374/6/259 375/6/259 376/6/259
f 379/6/264 360/6/264 361/6/264 380/6/264
f 361/6/21 352/6/21 363/6/21 382/6/21
f 346/6/21 380/6/21 383/6/21 362/6/21
f 363/6/265 362/6/265 384/6/265 385/6/265
f 386/6/266 387/6/266 364/6/266 350/6/266
f 364/6/21 388/6/21 389/6/21 346/6/21
f 353/6/8 390/6/8 391/6/8 392/6/8 393/6/8 365/6/8
f 368/6/5 398/6/5 369/6/5
f 398/6/5 356/6/5 370/6/5 369/6/5
f 358/6/259 376/6/259 399/6/259 400/6/259 371/6/259
f 355/6/267 371/6/267 435/6/267 401/6/267
f 351/6/268 372/6/268 402/6/268 377/6/268
f 356/6/5 398/6/5 403/6/5 373/6/5
f 357/6/269 404/6/269 440/6/269 374/6/269
f 375/6/270 374/6/270 405/6/270 406/6/270
f 376/6/271 375/6/271 407/6/271 408/6/271
f 409/6/11 359/6/11 377/6/11 402/6/11 410/6/11 411/6/11
f 359/6/12 409/6/12 412/6/12 378/6/12
f 379/6/264 380/6/264 387/6/264 386/6/264
f 379/6/272 454/6/272 455/6/272 456/6/272 457/6/272 458/6/272 453/6/272 360/6/272
f 380/6/21 361/6/21 382/6/21 383/6/21
f 382/6/5 363/6/5 385/6/5 416/6/5
f 346/6/21 389/6/21 417/6/21 380/6/21
f 362/6/12 383/6/12 418/6/12 384/6/12
f 384/6/273 418/6/273 416/6/273 385/6/273
f 387/6/21 420/6/21 388/6/21 364/6/21
f 388/6/274 421/6/274 422/6/274 389/6/274
f 390/6/261 423/6/261 424/6/261 391/6/261
f 391/6/5 424/6/5 425/6/5 392/6/5
f 426/6/5 393/6/5 392/6/5 425/6/5
f 376/6/271 408/6/271 432/6/271 399/6/271
f 399/6/270 433/6/270 434/6/270 400/6/270
f 372/6/12 401/6/12 436/6/12 437/6/12
f 437/6/12 410/6/12 402/6/12 372/6/12
f 373/6/5 403/6/5 439/6/5 404/6/5
f 406/6/275 405/6/275 441/6/275 442/6/275
f 408/6/276 407/6/276 443/6/276 444/6/276
f 411/6/12 410/6/12 437/6/12
f 378/6/8 412/6/8 447/6/8 448/6/8 449/6/8 450/6/8
f 380/6/21 417/6/21 420/6/21 387/6/21
f 383/6/11 382/6/11 416/6/11 418/6/11
f 389/6/5 422/6/5 463/6/5 417/6/5
f 465/6/277 386/6/277 350/6/277 572/6/277 646/6/277 654/6/277 519/6/277 464/6/277 588/6/277 650/6/277 518/6/277 419/6/277 520/6/277
f 420/6/12 466/6/12 421/6/12 388/6/12
f 422/6/278 421/6/278 466/6/278 463/6/278
f 467/6/11 426/6/11 425/6/11 424/6/11 423/6/11 395/6/11
f 395/6/5 428/6/5 427/6/5 467/6/5
f 396/6/5 430/6/5 474/6/5 475/6/5
f 431/6/279 397/6/279 476/6/279 477/6/279
f 438/6/280 398/6/280 368/6/280 366/6/280 365/6/280 393/6/280 426/6/280 467/6/280 427/6/280 524/6/280 469/6/280 394/6/280 468/6/280 397/6/280 431/6/280
f 408/6/276 444/6/276 478/6/276 432/6/276
f 399/6/281 432/6/281 478/6/281 547/6/281 433/6/281
f 433/6/275 479/6/275 480/6/275 434/6/275
f 400/6/282 434/6/282 551/6/282 481/6/282
f 481/6/283 435/6/283 371/6/283 400/6/283
f 401/6/12 435/6/12 482/6/12 436/6/12
f 437/6/284 436/6/284 553/6/284 483/6/284
f 484/6/285 403/6/285 398/6/285 438/6/285
f 403/6/286 484/6/286 555/6/286 439/6/286
f 404/6/5 439/6/5 485/6/5 440/6/5
f 406/6/287 486/6/287 443/6/287 407/6/287 375/6/287
f 487/6/288 405/6/288 374/6/288 440/6/288
f 488/6/275 406/6/275 442/6/275 489/6/275
f 405/6/5 490/6/5 491/6/5 441/6/5
f 561/6/289 558/6/289 489/6/289 442/6/289 441/6/289 491/6/289 560/6/289 670/6/289 623/6/289 624/6/289 492/6/289
f 443/6/290 486/6/290 557/6/290 444/6/290
f 562/6/291 446/6/291 566/6/291 631/6/291 494/6/291 565/6/291 495/6/291 447/6/291 412/6/291 409/6/291 411/6/291 437/6/291 483/6/291 493/6/291 445/6/291
f 495/6/12 496/6/12 448/6/12 447/6/12
f 449/6/12 448/6/12 496/6/12 497/6/12
f 450/6/268 449/6/268 497/6/268 498/6/268
f 502/6/292 503/6/292 504/6/292 505/6/292 454/6/292 379/6/292 386/6/292
f 417/6/11 463/6/11 466/6/11 420/6/11
f 453/6/293 458/6/293 507/6/293 508/6/293 509/6/293 575/6/293 506/6/293
f 453/6/294 462/6/294 415/6/294 360/6/294
f 459/6/5 381/6/5 510/6/5 511/6/5
f 512/6/295 414/6/295 460/6/295 586/6/295 534/6/295 473/6/295 342/6/295 360/6/295 415/6/295 461/6/295 381/6/295 459/6/295 579/6/295
f 460/6/5 414/6/5 513/6/5 514/6/5
f 461/6/296 415/6/296 462/6/296 587/6/296 515/6/296
f 381/6/8 461/6/8 515/6/8 516/6/8 517/6/8 510/6/8
f 465/6/297 521/6/297 502/6/297 386/6/297
f 367/6/5 472/6/5 522/6/5 468/6/5 394/6/5
f 394/6/11 469/6/11 525/6/11 526/6/11 527/6/11 367/6/11
f 428/6/8 470/6/8 528/6/8 529/6/8 524/6/8 427/6/8
f 429/6/5 471/6/5 530/6/5 531/6/5
f 430/6/8 473/6/8 534/6/8 535/6/8 536/6/8 537/6/8 474/6/8
f 475/6/11 538/6/11 539/6/11 540/6/11 541/6/11 542/6/11 396/6/11
f 477/6/298 543/6/298 438/6/298 431/6/298
f 397/6/279 523/6/279 544/6/279 476/6/279
f 476/6/246 545/6/246 546/6/246 477/6/246
f 488/6/275 489/6/275 479/6/275 433/6/275
f 434/6/12 480/6/12 549/6/12 550/6/12
f 435/6/12 481/6/12 552/6/12 482/6/12
f 440/6/5 485/6/5 556/6/5 487/6/5
f 486/6/299 406/6/299 488/6/299 557/6/299
f 490/6/300 559/6/300 560/6/300 491/6/300
f 493/6/301 563/6/301 564/6/301 445/6/301
f 565/6/11 451/6/11 498/6/11 497/6/11 496/6/11 495/6/11
f 451/6/12 565/6/12 494/6/12 499/6/12
f 452/6/12 570/6/12 571/6/12 501/6/12
f 509/6/302 574/6/302 503/6/302 502/6/302 573/6/302 575/6/302
f 511/6/11 576/6/11 577/6/11 578/6/11 579/6/11 459/6/11
f 414/6/8 512/6/8 580/6/8 581/6/8 582/6/8 513/6/8
f 514/6/11 583/6/11 584/6/11 585/6/11 586/6/11 460/6/11
f 587/6/5 516/6/5 515/6/5
f 516/6/303 587/6/303 517/6/303
f 518/6/12 589/6/12 590/6/12 419/6/12
f 519/6/12 591/6/12 592/6/12 464/6/12
f 419/6/8 590/6/8 593/6/8 594/6/8 595/6/8 520/6/8
f 472/6/8 533/6/8 596/6/8 597/6/8 598/6/8 599/6/8 522/6/8
f 469/6/5 524/6/5 529/6/5 525/6/5
f 528/6/5 526/6/5 525/6/5 529/6/5
f 470/6/261 527/6/261 526/6/261 528/6/261
f 531/6/11 600/6/11 601/6/11 602/6/11 603/6/11 604/6/11 429/6/11
f 471/6/8 532/6/8 605/6/8 606/6/8 607/6/8 608/6/8 530/6/8
f 585/6/5 535/6/5 534/6/5 586/6/5
f 584/6/5 536/6/5 535/6/5 585/6/5
f 536/6/303 584/6/303 583/6/303 537/6/303
f 607/6/303 539/6/303 538/6/303 608/6/303
f 539/6/5 607/6/5 606/6/5 540/6/5
f 605/6/5 541/6/5 540/6/5 606/6/5
f 532/6/261 542/6/261 541/6/261 605/6/261
f 477/6/304 546/6/304 609/6/304 543/6/304
f 523/6/305 610/6/305 611/6/305 544/6/305
f 544/6/246 611/6/246 545/6/246 476/6/246
f 564/6/246 563/6/246 546/6/246 545/6/246
f 438/6/306 543/6/306 554/6/306
f 557/6/307 547/6/307 478/6/307 444/6/307
f 547/6/308 557/6/308 488/6/308 433/6/308
f 479/6/289 489/6/289 558/6/289 612/6/289 548/6/289 613/6/289 661/6/289 691/6/289 670/6/289 560/6/289 549/6/289 480/6/289
f 434/6/309 550/6/309 614/6/309 551/6/309
f 550/6/300 549/6/300 560/6/300 559/6/300
f 481/6/12 551/6/12 614/6/12 552/6/12
f 482/6/310 552/6/310 663/6/310 615/6/310
f 615/6/311 553/6/311 436/6/311 482/6/311
f 483/6/312 553/6/312 665/6/312 616/6/312
f 483/6/313 617/6/313 563/6/313 493/6/313
f 618/6/314 484/6/314 438/6/314 554/6/314
f 555/6/315 484/6/315 618/6/315 619/6/315
f 620/6/316 485/6/316 439/6/316 555/6/316
f 485/6/317 620/6/317 490/6/317 556/6/317
f 556/6/318 490/6/318 405/6/318 487/6/318
f 559/6/319 490/6/319 621/6/319 622/6/319
f 413/6/12 446/6/12 562/6/12 626/6/12 568/6/12
f 445/6/301 564/6/301 627/6/301 625/6/301
f 446/6/11 413/6/11 628/6/11 629/6/11 630/6/11 566/6/11
f 499/6/8 494/6/8 631/6/8 632/6/8 633/6/8 567/6/8
f 500/6/12 635/6/12 636/6/12 569/6/12
f 638/6/320 452/6/320 501/6/320 572/6/320 350/6/320 351/6/320 377/6/320 359/6/320 378/6/320 450/6/320 498/6/320 451/6/320 499/6/320 567/6/320 628/6/320 413/6/320 568/6/320 634/6/320 675/6/320 500/6/320 569/6/320 637/6/320
f 570/6/11 452/6/11 638/6/11 639/6/11 640/6/11 641/6/11 642/6/11
f 501/6/8 571/6/8 643/6/8 644/6/8 645/6/8 646/6/8 572/6/8
f 502/6/321 521/6/321 658/6/321 625/6/321 573/6/321
f 506/6/322 575/6/322 610/6/322 523/6/322
f 587/6/323 462/6/323 453/6/323 506/6/323 523/6/323
f 581/6/303 577/6/303 576/6/303 582/6/303
f 577/6/5 581/6/5 580/6/5 578/6/5
f 578/6/5 580/6/5 512/6/5 579/6/5
f 475/6/324 474/6/324 537/6/324 583/6/324 514/6/324 513/6/324 582/6/324 576/6/324 511/6/324 510/6/324 517/6/324 587/6/324 523/6/324 397/6/324 468/6/324 522/6/324 599/6/324 600/6/324 531/6/324 530/6/324 608/6/324 538/6/324
f 464/6/8 592/6/8 647/6/8 648/6/8 649/6/8 588/6/8
f 589/6/11 518/6/11 650/6/11 651/6/11 652/6/11 653/6/11
f 591/6/11 519/6/11 654/6/11 655/6/11 656/6/11 657/6/11
f 643/6/325 571/6/325 570/6/325 642/6/325 680/6/325 636/6/325 635/6/325 679/6/325 671/6/325 626/6/325 562/6/325 445/6/325 625/6/325 658/6/325 593/6/325 590/6/325 589/6/325 653/6/325 647/6/325 592/6/325 591/6/325 657/6/325
f 594/6/326 593/6/326 658/6/326
f 658/6/12 595/6/12 594/6/12
f 658/6/327 521/6/327 465/6/327 520/6/327 595/6/327
f 533/6/261 604/6/261 603/6/261 596/6/261
f 596/6/5 603/6/5 602/6/5 597/6/5
f 601/6/5 598/6/5 597/6/5 602/6/5
f 598/6/303 601/6/303 600/6/303 599/6/303
f 563/6/304 617/6/304 609/6/304 546/6/304
f 543/6/328 609/6/328 685/6/328 659/6/328
f 625/6/305 627/6/305 611/6/305 610/6/305
f 627/6/246 564/6/246 545/6/246 611/6/246
f 618/6/5 554/6/5 543/6/5 660/6/5
f 559/6/319 622/6/319 662/6/319 550/6/319
f 552/6/329 614/6/329 550/6/329 663/6/329
f 615/6/330 664/6/330 665/6/330 553/6/330
f 483/6/331 616/6/331 617/6/331
f 620/6/332 555/6/332 619/6/332 666/6/332
f 619/6/5 618/6/5 660/6/5 667/6/5
f 490/6/333 620/6/333 666/6/333 621/6/333
f 622/6/334 621/6/334 668/6/334 669/6/334
f 568/6/8 626/6/8 671/6/8 672/6/8 673/6/8 674/6/8 634/6/8
f 567/6/268 633/6/268 629/6/268 628/6/268
f 633/6/12 632/6/12 630/6/12 629/6/12
f 566/6/12 630/6/12 632/6/12 631/6/12
f 635/6/11 500/6/11 675/6/11 676/6/11 677/6/11 678/6/11 679/6/11
f 569/6/8 636/6/8 680/6/8 681/6/8 682/6/8 683/6/8 637/6/8
f 637/6/268 683/6/268 639/6/268 638/6/268
f 683/6/12 682/6/12 640/6/12 639/6/12
f 641/6/12 640/6/12 682/6/12 681/6/12
f 681/6/326 680/6/326 642/6/326 641/6/326
f 644/6/326 643/6/326 657/6/326 656/6/326
f 656/6/12 655/6/12 645/6/12 644/6/12
f 655/6/12 654/6/12 646/6/12 645/6/12
f 573/6/322 625/6/322 610/6/322 575/6/322
f 648/6/326 647/6/326 653/6/326 652/6/326
f 652/6/12 651/6/12 649/6/12 648/6/12
f 651/6/12 650/6/12 588/6/12 649/6/12
f 617/6/335 684/6/335 685/6/335 609/6/335
f 686/6/336 543/6/336 659/6/336 687/6/336
f 660/6/5 543/6/5 686/6/5 688/6/5
f 622/6/334 669/6/334 689/6/334 662/6/334
f 550/6/337 662/6/337 690/6/337 663/6/337
f 663/6/338 690/6/338 664/6/338 615/6/338
f 664/6/12 692/6/12 693/6/12 665/6/12
f 665/6/12 693/6/12 617/6/12 616/6/12
f 666/6/5 619/6/5 667/6/5 694/6/5
f 667/6/5 660/6/5 688/6/5 695/6/5
f 621/6/5 666/6/5 694/6/5 668/6/5
f 669/6/334 668/6/334 696/6/334 697/6/334
f 672/6/326 671/6/326 679/6/326 678/6/326
f 678/6/12 677/6/12 673/6/12 672/6/12
f 674/6/12 673/6/12 677/6/12 676/6/12
f 634/6/268 674/6/268 676/6/268 675/6/268
f 698/6/339 699/6/339 684/6/339 617/6/339
f 659/6/340 685/6/340 713/6/340 687/6/340
f 700/6/341 686/6/341 687/6/341 701/6/341
f 688/6/342 686/6/342 700/6/342 702/6/342
f 669/6/334 697/6/334 703/6/334 689/6/334
f 662/6/12 689/6/12 704/6/12 690/6/12
f 690/6/12 704/6/12 692/6/12 664/6/12
f 692/6/12 705/6/12 706/6/12 693/6/12
f 693/6/12 706/6/12 698/6/12 617/6/12
f 694/6/5 667/6/5 695/6/5 707/6/5
f 695/6/343 688/6/343 702/6/343 708/6/343
f 668/6/5 694/6/5 707/6/5 696/6/5
f 697/6/344 696/6/344 709/6/344 710/6/344
f 684/6/345 699/6/345 713/6/345 685/6/345
f 711/6/346 712/6/346 699/6/346 698/6/346
f 714/6/347 700/6/347 701/6/347 715/6/347
f 687/6/348 713/6/348 729/6/348 701/6/348
f 697/6/344 710/6/344 716/6/344 703/6/344
f 689/6/12 703/6/12 717/6/12 704/6/12
f 704/6/12 717/6/12 705/6/12 692/6/12
f 705/6/349 718/6/349 719/6/349 706/6/349
f 706/6/350 719/6/350 711/6/350 698/6/350
f 707/6/351 695/6/351 708/6/351 720/6/351
f 708/6/352 702/6/352 721/6/352 722/6/352
f 696/6/353 707/6/353 720/6/353 709/6/353
f 710/6/354 709/6/354 723/6/354 724/6/354
f 725/6/355 726/6/355 712/6/355 711/6/355
f 699/6/356 712/6/356 729/6/356 713/6/356
f 727/6/357 714/6/357 715/6/357 728/6/357
f 702/6/358 700/6/358 714/6/358 721/6/358
f 701/6/359 729/6/359 728/6/359 715/6/359
f 710/6/354 724/6/354 730/6/354 716/6/354
f 703/6/360 716/6/360 731/6/360 717/6/360
f 717/6/361 731/6/361 718/6/361 705/6/361
f 718/6/362 732/6/362 733/6/362 719/6/362
f 720/6/363 708/6/363 722/6/363 734/6/363
f 721/6/364 735/6/364 736/6/364 722/6/364
f 720/6/365 734/6/365 723/6/365 709/6/365
f 734/6/366 737/6/366 724/6/366 723/6/366
f 719/6/367 733/6/367 725/6/367 711/6/367
f 727/6/357 728/6/357 726/6/357 725/6/357
f 712/6/359 726/6/359 728/6/359 729/6/359
f 714/6/368 727/6/368 735/6/368 721/6/368
f 738/6/366 730/6/366 724/6/366 737/6/366
f 730/6/369 738/6/369 731/6/369 716/6/369
f 731/6/370 738/6/370 732/6/370 718/6/370
f 733/6/364 732/6/364 736/6/364 735/6/364
f 722/6/371 736/6/371 737/6/371 734/6/371
f 725/6/368 733/6/368 735/6/368 727/6/368
f 732/6/371 738/6/371 737/6/371 736/6/371
f 750/6/372 751/6/372 752/6/372 753/6/372
f 750/6/373 753/6/373 758/6/373 759/6/373 754/6/373 507/6/373 458/6/373 457/6/373
f 455/6/374 751/6/374 750/6/374 456/6/374
f 755/6/372 756/6/372 752/6/372 751/6/372
f 753/6/375 752/6/375 757/6/375 758/6/375
f 755/6/374 751/6/374 455/6/374 454/6/374 505/6/374
f 456/6/376 750/6/376 457/6/376
f 574/6/377 760/6/377 764/6/377 761/6/377 756/6/377 755/6/377 504/6/377 503/6/377
f 756/6/375 761/6/375 757/6/375 752/6/375
f 758/6/378 757/6/378 762/6/378 759/6/378
f 763/6/379 754/6/379 759/6/379 762/6/379
f 507/6/380 754/6/380 763/6/380 508/6/380
f 504/6/381 755/6/381 505/6/381
f 761/6/378 764/6/378 762/6/378 757/6/378
f 763/6/379 762/6/379 764/6/379 760/6/379
f 508/6/380 763/6/380 760/6/380 574/6/380 509/6/380
f 739/6/382 740/6/382 741/6/382
f 741/6/383 740/6/383 744/6/383 746/6/383 743/6/383 742/6/383
f 747/6/384 745/6/384 748/6/384 742/6/384 743/6/384 746/6/384
f 749/6/385 748/6/385 745/6/385
