vt 0.0833333333333333 0.5
vt 0.25 0.5
vt 0.416666666666667 0.5
vt 0.583333333333333 0.5
vt 0.75 0.5
vt 0.916666666666667 0.5
# Blender v2.76 (sub 0) OBJ File: 'Shotgun.blend'
# www.blender.org
mtllib Shotgun.mtl
o Shotgun_Cylinder
v -0.092066 0.290536 -2.036970
v -0.092066 0.290536 -2.270715
v -0.051154 0.307483 -2.036970
v -0.051154 0.307483 -2.270715
v -0.034207 0.348395 -2.036970
v -0.034207 0.348395 -2.270715
v -0.051154 0.389308 -2.036970
v -0.051154 0.389308 -2.270715
v -0.092066 0.406254 -2.036970
v -0.092066 0.406254 -2.270715
v -0.132979 0.389308 -2.036970
v -0.132979 0.389308 -2.270715
v -0.149925 0.348395 -2.036970
v -0.149925 0.348395 -2.270715
v -0.132979 0.307483 -2.036970
v -0.132979 0.307483 -2.270715
v -0.060758 0.317087 -2.270715
v -0.092066 0.304118 -2.270715
v -0.047790 0.348395 -2.270715
v -0.060758 0.379704 -2.270715
v -0.092066 0.392672 -2.270715
v -0.123375 0.379704 -2.270715
v -0.136343 0.348395 -2.270715
v -0.123375 0.317087 -2.270715
v -0.060758 0.317087 -2.259676
v -0.092066 0.304118 -2.259676
v -0.047790 0.348395 -2.259676
v -0.060758 0.379704 -2.259676
v -0.092066 0.392672 -2.259676
v -0.123375 0.379704 -2.259676
v -0.136343 0.348395 -2.259676
v -0.123375 0.317087 -2.259676
v -0.092066 0.286980 -2.035834
v -0.048640 0.304968 -2.035834
v -0.030652 0.348395 -2.035834
v -0.048640 0.391822 -2.035834
v -0.092066 0.409810 -2.035834
v -0.135493 0.391822 -2.035834
v -0.153481 0.348395 -2.035834
v -0.135493 0.304968 -2.035834
v -0.092066 0.286980 -1.956658
v -0.048640 0.304968 -1.956658
v -0.030652 0.348395 -1.956658
v -0.048640 0.391822 -1.956658
v -0.092066 0.409810 -1.956658
v -0.135493 0.391822 -1.956658
v -0.153481 0.348395 -1.956658
v -0.135493 0.304968 -1.956658
v -0.092066 0.330352 -1.956658
v -0.079308 0.335637 -1.956658
v -0.074023 0.348395 -1.956658
v -0.079308 0.361154 -1.956658
v -0.092066 0.366438 -1.956658
v -0.104825 0.361154 -1.956658
v -0.110110 0.348395 -1.956658
v -0.104825 0.335637 -1.956658
v -0.014667 -0.015708 -1.202048
v -0.014667 0.044867 -1.202048
v -0.014667 -0.015708 -1.335920
v -0.014667 0.044867 -1.335920
v 0.014667 -0.015708 -1.202048
v 0.014667 0.044867 -1.202048
v 0.014667 -0.015708 -1.335921
v 0.014667 0.044867 -1.335921
v -0.014667 -0.046161 -1.280533
v -0.014667 -0.046161 -1.229929
v 0.014667 -0.046161 -1.280533
v 0.014667 -0.046161 -1.229929
v -0.014667 -0.095809 -1.253702
v -0.014667 -0.104572 -1.229254
v 0.014667 -0.095809 -1.253702
v 0.014667 -0.104572 -1.229254
v -0.014667 -0.151800 -1.271254
v -0.014667 -0.160563 -1.259702
v 0.014667 -0.151800 -1.271254
v 0.014667 -0.160563 -1.259702
v 0.047097 -0.010389 -3.179550
v -0.006741 0.026739 -3.121388
v -0.060579 -0.010389 -3.179549
v -0.006741 0.048126 -4.626300
v 0.047082 0.007363 -4.568043
v -0.060564 0.007363 -4.568043
v 0.074306 0.060310 -3.121389
v 0.065056 -0.002950 -3.179550
v 0.141226 0.073268 -3.179630
v 0.065071 0.014814 -4.568043
v 0.076492 0.082602 -4.626300
v 0.144914 0.089233 -4.568043
v 0.117172 0.133312 -3.156363
v 0.148640 0.087534 -3.179646
v 0.148640 0.195180 -3.218268
v 0.144914 0.089233 -4.568043
v 0.109814 0.140860 -4.605620
v 0.148640 0.195180 -4.548994
v 0.072335 0.227217 -3.181755
v 0.141189 0.213169 -3.228603
v 0.065071 0.289286 -3.275983
v 0.141189 0.213169 -4.543411
v 0.073639 0.224032 -4.594682
v 0.065071 0.289286 -4.516867
v -0.006741 0.269921 -3.196279
v 0.047082 0.296737 -3.282874
v -0.060564 0.296737 -3.282873
v 0.047082 0.296737 -4.513144
v -0.006741 0.261598 -4.590007
v -0.060564 0.296737 -4.513144
v -0.085817 0.227216 -3.181754
v -0.078553 0.289286 -3.275983
v -0.154670 0.213169 -3.228603
v -0.078553 0.289286 -4.516866
v -0.087121 0.224032 -4.594682
v -0.154670 0.213169 -4.543411
v -0.130654 0.133312 -3.156363
v -0.162122 0.195179 -3.218267
v -0.162122 0.087533 -3.179646
v -0.162122 0.195179 -4.548993
v -0.123296 0.140860 -4.605619
v -0.158396 0.089232 -4.568043
v -0.087788 0.060310 -3.121388
v -0.154707 0.073268 -3.179629
v -0.078538 -0.002950 -3.179549
v -0.158396 0.089232 -4.568043
v -0.089973 0.082602 -4.626300
v -0.078553 0.014814 -4.568043
v 0.047082 0.007363 -3.522402
v 0.047097 0.003740 -3.405983
v -0.060579 0.003740 -3.405983
v -0.060564 0.007363 -3.522402
v 0.065056 0.011179 -3.405983
v 0.065071 0.014814 -3.522402
v 0.144914 0.089232 -3.522402
v 0.144955 0.085680 -3.405910
v 0.144914 0.089233 -3.405887
v 0.144914 0.089233 -3.522402
v 0.148640 0.195180 -3.522402
v 0.148640 0.195180 -3.405887
v 0.141189 0.213169 -3.405887
v 0.141189 0.213169 -3.522402
v 0.065071 0.289286 -3.522402
v 0.065071 0.289286 -3.405887
v 0.047082 0.296737 -3.405887
v 0.047082 0.296737 -3.522402
v -0.060564 0.296737 -3.522402
v -0.060564 0.296737 -3.405887
v -0.078553 0.289286 -3.405887
v -0.078553 0.289286 -3.522402
v -0.154670 0.213169 -3.522402
v -0.154670 0.213169 -3.405886
v -0.162122 0.195179 -3.405886
v -0.162122 0.195179 -3.522402
v -0.158396 0.089232 -3.522402
v -0.158396 0.089232 -3.405886
v -0.078538 0.011179 -3.405983
v -0.158436 0.085680 -3.405909
v -0.158396 0.089232 -3.522402
v -0.078553 0.014814 -3.522402
v 0.103614 0.024004 -1.049154
v 0.103614 0.024004 -1.049154
v 0.103614 0.022727 -1.093526
v 0.103614 0.022727 -1.093526
v 0.207229 0.126334 -1.095276
v 0.207229 0.128429 -1.022471
v 0.118888 -0.012794 -1.049589
v 0.118888 -0.012794 -1.049589
v 0.068690 0.022727 -1.093526
v 0.068690 0.024004 -1.049153
v 0.103614 0.019857 -1.300711
v 0.103615 0.019857 -1.300711
v 0.237776 0.107025 -1.018975
v 0.207229 0.123473 -1.302486
v 0.207229 0.303976 -0.967700
v 0.207229 0.358242 -1.099210
v 0.068690 0.005399 -1.049374
v 0.118888 -0.056828 -0.821744
v 0.118888 -0.056828 -0.821744
v 0.068690 0.011733 -1.049299
v 0.068690 -0.017823 -1.204339
v 0.068690 0.021442 -1.186279
v 0.103614 0.021202 -2.561068
v 0.103616 0.021202 -2.561068
v 0.237776 0.308448 -0.956129
v 0.237776 0.057052 -0.785486
v 0.207230 0.124817 -2.561295
v 0.207229 0.410402 -1.307353
v 0.103614 0.474661 -1.109704
v 0.103614 0.403123 -0.936337
v -0.068541 0.005399 -1.049374
v 0.118888 -0.129702 -0.654350
v -0.118888 -0.056828 -0.821744
v -0.118888 -0.012794 -1.049589
v 0.068690 -0.098482 -1.136426
v 0.068690 -0.098482 -1.168216
v 0.068690 0.007077 -1.365206
v 0.068690 0.019927 -1.366359
v 0.068690 0.019857 -1.300711
v -0.103614 0.019857 -1.300711
v -0.103614 0.021202 -2.561067
v 0.068690 0.020012 -1.445996
v 0.068690 0.020337 -1.750953
v 0.068690 0.020421 -1.829668
v -0.068541 0.020421 -1.829668
v -0.068541 0.020337 -1.750953
v -0.068541 0.020012 -1.445995
v -0.068541 0.019927 -1.366358
v -0.068541 0.019857 -1.300711
v 0.118888 0.422211 -0.920142
v 0.237776 0.203351 -0.739839
v 0.207230 0.408335 -2.561919
v 0.103614 0.403123 -0.936337
v 0.103614 0.474661 -1.109704
v -0.068541 -0.098482 -1.136426
v 0.237776 -0.024648 -0.597817
v 0.118888 -0.129702 -0.654350
v -0.118888 -0.129702 -0.654349
v -0.118888 -0.012794 -1.049589
v 0.068690 -0.177053 -1.175361
v 0.068690 -0.151188 -1.193842
v -0.068541 -0.017823 -1.204339
v -0.068541 -0.098482 -1.168215
v -0.068541 0.007077 -1.365206
v 0.068690 0.008216 -1.445088
v -0.068541 0.021442 -1.186279
v -0.103615 0.019857 -1.300711
v -0.103616 0.021202 -2.561067
v 0.068690 0.012573 -1.750735
v 0.068690 0.013696 -1.829565
v -0.068541 0.013696 -1.829564
v -0.068541 0.012573 -1.750735
v -0.068541 0.008215 -1.445088
v 0.003189 0.274357 -2.561624
v 0.084748 0.068761 -2.561172
v 0.111401 0.133109 -2.561314
v 0.079707 0.209627 -2.561481
v 0.018871 0.234826 -2.561537
v 0.118888 0.422211 -0.920142
v 0.118888 0.320132 -0.705763
v 0.237776 0.091880 -0.534544
v 0.103616 0.511949 -2.562147
v 0.103615 0.514013 -1.309099
v 0.079707 0.306051 -2.561694
v -0.103614 0.474661 -1.109704
v -0.103614 0.403123 -0.936336
v 0.103614 0.514013 -1.309099
v -0.103614 0.024004 -1.049153
v -0.068541 0.011733 -1.049299
v -0.068541 -0.177053 -1.175361
v 0.237776 -0.256749 -0.401053
v 0.118888 -0.292025 -0.514688
v -0.118888 -0.292025 -0.514687
v 0.118888 -0.292025 -0.514688
v -0.118888 -0.129702 -0.654349
v -0.118888 -0.056828 -0.821744
v -0.103614 0.024004 -1.049153
v -0.068541 -0.151188 -1.193842
v 0.068690 -0.218027 -1.269475
v 0.068690 -0.186312 -1.271641
v -0.103614 0.022727 -1.093525
v -0.103614 0.022727 -1.093525
v -0.207229 0.123473 -1.302485
v -0.207230 0.124817 -2.561294
v -0.080937 0.074958 -2.561185
v -0.073329 0.056591 -2.561145
v 0.003189 0.024896 -2.561076
v 0.079707 0.056591 -2.561145
v 0.068460 -0.049283 -1.511661
v -0.068312 -0.068783 -1.578367
v -0.068541 0.024004 -1.049153
v -0.068541 0.022727 -1.093525
v -0.013700 0.234326 -2.561536
v 0.003189 0.241321 -2.561551
v -0.118888 0.422211 -0.920142
v 0.118888 0.320132 -0.705763
v 0.118888 0.196360 -0.477814
v 0.237776 0.044646 -0.289625
v 0.237776 0.023384 -0.301170
v 0.111401 0.382569 -2.561862
v 0.103614 0.511949 -2.562147
v -0.103614 0.514013 -1.309098
v -0.103614 0.474661 -1.109704
v -0.068541 -0.218027 -1.269475
v -0.118888 -0.335492 -0.503087
v 0.118888 -0.335492 -0.503087
v -0.118888 -0.292025 -0.514687
v -0.237776 0.057052 -0.785485
v -0.207229 0.128429 -1.022471
v -0.237776 0.107024 -1.018973
v -0.068541 -0.186312 -1.271641
v 0.068690 -0.204259 -1.390773
v 0.068690 -0.172903 -1.385545
v -0.068312 -0.049283 -1.511661
v -0.207229 0.126334 -1.095275
v -0.073329 0.209627 -2.561481
v -0.105024 0.133109 -2.561313
v -0.207229 0.410401 -1.307353
v -0.207230 0.408335 -2.561918
v 0.068460 -0.068783 -1.578367
v 0.003189 0.274357 -4.891192
v 0.009311 0.276893 -4.891192
v 0.009311 0.276893 -5.122174
v 0.003189 0.274357 -5.122678
v 0.003189 0.274357 -6.420291
v 0.079707 0.306051 -6.420291
v -0.118888 0.422211 -0.920142
v -0.118888 0.320132 -0.705763
v 0.118888 0.196360 -0.477814
v 0.118888 0.182778 -0.262553
v 0.237776 0.067736 -0.230342
v 0.237776 0.045778 -0.229244
v 0.079707 0.459087 -2.562031
v -0.103614 0.511949 -2.562147
v 0.019653 0.483962 -2.562085
v 0.111401 0.382569 -6.420291
v -0.103615 0.514013 -1.309098
v -0.103614 0.403123 -0.936336
v -0.068541 -0.204259 -1.390773
v 0.237776 -0.190936 -0.189673
v 0.118888 -0.335492 -0.503087
v 0.237776 -0.324646 -0.382933
v 0.118888 -0.441732 -0.353857
v -0.118888 -0.441732 -0.353856
v -0.237776 -0.024648 -0.597816
v -0.207229 0.303976 -0.967699
v -0.237776 0.308448 -0.956128
v -0.068541 -0.172903 -1.385544
v 0.068690 -0.142449 -1.524097
v 0.068690 -0.120806 -1.500813
v -0.068541 -0.120806 -1.500812
v -0.207229 0.358242 -1.099209
v -0.064609 0.302439 -2.561686
v -0.103616 0.511949 -2.562147
v -0.073329 0.306051 -2.561693
v -0.068541 -0.142449 -1.524097
v -0.073329 0.306051 -6.420291
v -0.002934 0.276893 -5.122174
v -0.002934 0.276893 -4.891192
v 0.003189 0.274357 -6.532399
v 0.079707 0.306051 -6.532399
v -0.118888 0.320132 -0.705763
v -0.118888 0.196360 -0.477813
v 0.118888 0.182778 -0.262553
v 0.118888 0.195216 -0.230619
v 0.237776 0.099835 0.006126
v 0.237776 0.049985 0.008619
v 0.079707 0.459087 -6.420291
v 0.065797 0.464849 -2.562043
v 0.003189 0.490781 -2.562100
v 0.111401 0.382569 -6.532399
v 0.237776 -0.213381 0.061785
v 0.237776 -0.308369 -0.159225
v 0.118888 -0.441732 -0.353857
v -0.118888 -0.425221 -0.126920
v 0.118888 -0.425221 -0.126920
v -0.118888 -0.335492 -0.503086
v -0.237776 -0.256750 -0.401052
v -0.237776 0.091880 -0.534544
v -0.237776 0.203351 -0.739838
v -0.076269 0.451988 -2.562015
v -0.105024 0.382569 -2.561862
v -0.105024 0.382569 -6.420290
v -0.073329 0.306051 -6.532399
v 0.003189 0.274357 -6.644507
v 0.079707 0.306051 -6.644507
v -0.118888 0.182778 -0.262552
v 0.118888 0.195216 -0.230619
v 0.118888 0.221196 -0.002196
v 0.237776 -0.147745 1.702607
v 0.237776 -0.446216 1.701369
v 0.079707 0.459087 -6.532399
v 0.003189 0.490781 -6.420291
v -0.073329 0.459087 -2.562030
v 0.111401 0.382569 -6.644507
v 0.237776 -0.690056 1.687923
v 0.237776 -0.330203 0.092074
v 0.118888 -0.425221 -0.126920
v 0.118888 -0.463287 0.100989
v -0.118888 -0.463287 0.100989
v -0.118888 -0.425221 -0.126920
v -0.118888 -0.441732 -0.353856
v -0.237776 -0.324646 -0.382932
v -0.237776 0.023383 -0.301169
v -0.237776 0.044646 -0.289624
v -0.118888 0.196360 -0.477813
v -0.073329 0.459087 -6.420291
v -0.105024 0.382569 -6.532398
v -0.073329 0.306051 -6.644507
v 0.003189 0.274357 -6.714530
v 0.079707 0.306051 -6.714530
v -0.118888 0.182778 -0.262552
v -0.118888 0.195216 -0.230618
v 0.118888 0.221196 -0.002196
v 0.118888 -0.027842 1.704281
v 0.118888 -0.163897 1.821429
v 0.118888 -0.485877 1.820093
v 0.079707 0.459087 -6.644507
v 0.026482 0.526673 -6.420291
v 0.003189 0.526924 -6.420291
v 0.111401 0.382569 -6.714530
v 0.118888 -0.722553 1.803470
v 0.237776 -0.993968 1.646306
v 0.118888 -0.463287 0.100989
v -0.118888 -1.117824 1.633614
v 0.118888 -1.117824 1.633614
v -0.237776 -0.308369 -0.159224
v -0.237776 -0.190936 -0.189672
v -0.237776 0.045778 -0.229243
v -0.237776 0.067736 -0.230341
v -0.073329 0.459087 -6.532399
v -0.105024 0.382569 -6.644506
v -0.073329 0.306051 -6.714530
v -0.105024 0.382569 -6.714530
v -0.073329 0.459087 -6.714530
v 0.003189 0.490781 -6.714530
v 0.079707 0.459087 -6.714530
v -0.118888 0.195216 -0.230618
v -0.118888 0.221196 -0.002195
v 0.118888 -0.027842 1.704281
v 0.118888 -0.163897 1.821429
v 0.118888 -0.485877 1.820093
v 0.026482 0.571301 -6.644507
v 0.026482 0.571301 -6.532399
v -0.020104 0.526673 -6.420291
v 0.003189 0.571553 -6.532399
v 0.118888 -1.046729 1.759079
v 0.118888 -1.117824 1.633614
v 0.118888 -1.046729 1.759079
v -0.118888 -1.046729 1.759079
v -0.118888 -0.463287 0.100989
v -0.237776 -0.330203 0.092075
v -0.237776 -0.213381 0.061786
v -0.237776 0.049984 0.008620
v -0.237776 0.099835 0.006127
v -0.020104 0.571301 -6.532399
v -0.073329 0.459087 -6.644507
v 0.003189 0.490781 -6.644507
v -0.118888 0.221196 -0.002195
v -0.118888 -0.027842 1.704281
v 0.118888 -0.722553 1.803470
v -0.118888 -0.163897 1.821429
v -0.118888 -0.485877 1.820094
v 0.003189 0.571553 -6.644507
v -0.118888 -0.722553 1.803470
v -0.118888 -1.117824 1.633614
v -0.118888 -1.046729 1.759079
v -0.237776 -0.993969 1.646307
v -0.237776 -0.690056 1.687923
v -0.237776 -0.446216 1.701370
v -0.237776 -0.147745 1.702609
v -0.020104 0.571301 -6.644507
v -0.118888 -0.485877 1.820094
v -0.118888 -0.722553 1.803470
v -0.118888 -0.163897 1.821429
v -0.118888 -0.027842 1.704281
v -0.105024 0.133109 -4.891191
v -0.073329 0.056591 -4.891192
v -0.073329 0.209627 -4.891192
v -0.143131 0.133109 -4.891191
v -0.100275 0.029645 -4.891192
v 0.003189 0.024896 -4.891192
v 0.003189 0.241321 -4.891192
v -0.100275 0.236572 -4.891192
v 0.003189 -0.013211 -4.891192
v -0.143131 0.133109 -5.122173
v -0.100275 0.029645 -5.122174
v 0.079707 0.056591 -4.891192
v 0.079707 0.209627 -4.891192
v -0.100275 0.236572 -5.122174
v 0.106653 0.029645 -4.891192
v 0.003189 -0.013211 -5.122174
v -0.104530 0.133109 -5.126012
v -0.072980 0.056940 -5.126012
v 0.111401 0.133109 -4.891192
v 0.106653 0.236573 -4.891192
v -0.072980 0.209277 -5.126012
v 0.149509 0.133109 -4.891192
v 0.106653 0.029645 -5.122174
v 0.003189 0.025390 -5.126012
v -0.104530 0.133109 -5.295255
v -0.072980 0.056940 -5.295256
v 0.106653 0.236573 -5.122174
v 0.003189 0.240827 -5.126012
v -0.072980 0.209277 -5.295256
v 0.149509 0.133109 -5.122174
v 0.079357 0.056940 -5.126012
v 0.003189 0.025390 -5.295256
v 0.003189 0.240827 -5.295256
v 0.079357 0.209277 -5.295256
v 0.110907 0.133109 -5.295256
v 0.079357 0.056940 -5.295256
v 0.079357 0.209277 -5.126012
v 0.110907 0.133109 -5.126013
v 0.003189 0.303203 -6.714530
v 0.059309 0.326449 -6.714530
v 0.082555 0.382569 -6.714530
v -0.052931 0.326449 -6.714530
v -0.076177 0.382569 -6.714530
v -0.052931 0.438689 -6.714530
v 0.003189 0.461935 -6.714530
v 0.059309 0.438689 -6.714530
v 0.003189 0.303233 -2.786079
v 0.059309 0.326479 -2.786079
v 0.082555 0.382599 -2.786079
v -0.052931 0.326478 -2.786079
v -0.076177 0.382599 -2.786079
v -0.052931 0.438719 -2.786079
v 0.003189 0.461965 -2.786079
v 0.059309 0.438719 -2.786079
v 0.207289 0.325888 -2.310173
v 0.207289 0.325493 -1.886054
v 0.207289 0.409709 -1.887695
v 0.207289 0.409102 -2.310383
v 0.176878 0.439513 -2.310461
v 0.176878 0.440119 -1.888282
v -0.017557 0.308944 -2.310156
v -0.017558 0.308550 -1.886037
v -0.017558 0.392765 -1.887678
v -0.017557 0.392159 -2.310366
v -0.047969 0.422570 -2.310443
v -0.047969 0.423176 -1.888266
v 0.094866 0.317021 -1.886046
v 0.094866 0.401237 -1.887686
v 0.064454 0.431647 -1.888274
v 0.064455 0.431042 -2.310452
v 0.094866 0.400630 -2.310374
v 0.094866 0.317416 -2.310165
vn 0.382700 -0.923900 -0.000000
vn 0.923900 -0.382700 -0.000000
vn 0.923900 0.382700 0.000000
vn 0.382700 0.923900 0.000000
vn -0.382700 0.923900 0.000000
vn -0.923900 0.382700 0.000000
vn 0.000000 0.000000 -1.000000
vn -0.382700 -0.923900 -0.000000
vn -0.923900 -0.382700 -0.000000
vn -0.302000 -0.125100 -0.945100
vn 0.125100 0.301900 -0.945100
vn -0.301900 0.125100 -0.945100
vn 0.301900 0.125100 -0.945100
vn 0.125100 -0.301900 -0.945100
vn -0.125100 -0.301900 -0.945100
vn -0.125100 0.301900 -0.945100
vn 0.301900 -0.125100 -0.945100
vn 0.000000 0.000000 1.000000
vn -1.000000 0.000000 0.000000
vn 1.000000 0.000000 0.000000
vn 0.000000 1.000000 0.000000
vn 0.000000 -0.876300 -0.481800
vn 0.000000 -0.675300 0.737600
vn -0.000000 0.011600 0.999900
vn -0.000000 -0.475400 -0.879700
vn 0.000000 -0.796700 -0.604400
vn 0.000000 -0.477700 0.878500
vn 0.000000 0.299100 -0.954200
vn -0.923900 -0.382400 -0.011900
vn 0.923900 -0.382400 -0.011900
vn -0.000000 0.192800 -0.981200
vn -0.382000 -0.922300 -0.057600
vn 0.382000 -0.922300 -0.057600
vn 0.463300 -0.886200 -0.000000
vn 0.000000 -0.842900 0.538100
vn 0.000000 -0.819300 -0.573300
vn 0.591700 -0.590800 0.548500
vn 0.554000 -0.594300 -0.583000
vn 0.765000 0.217500 0.606200
vn 0.782800 0.083300 -0.616700
vn 0.467500 0.754400 0.460900
vn 0.505900 0.687600 -0.520900
vn 0.000000 0.955200 0.295800
vn 0.000000 0.909500 -0.415800
vn -0.467500 0.754400 0.460900
vn -0.505900 0.687600 -0.520900
vn -0.765000 0.217500 0.606200
vn -0.782800 0.083400 -0.616700
vn -0.591700 -0.590800 0.548500
vn -0.554000 -0.594300 -0.583000
vn 0.000000 -0.999500 -0.031100
vn 0.681700 -0.731300 -0.022600
vn 0.999400 -0.035100 0.000000
vn 0.707100 0.707100 0.000000
vn -0.707100 0.707100 0.000000
vn -0.999400 -0.035100 0.000000
vn -0.681700 -0.731300 -0.022600
vn 0.278300 -0.671800 0.686500
vn 0.270600 -0.653300 -0.707100
vn 0.000000 -1.000000 0.000000
vn 0.694200 -0.718800 -0.036400
vn 0.627300 -0.049800 0.777200
vn 0.650600 -0.105100 -0.752100
vn 0.999800 -0.019100 -0.009100
vn 0.534000 0.473200 0.700700
vn 0.583000 0.369600 -0.723600
vn 0.315600 0.816900 0.482800
vn 0.297700 0.758600 -0.579500
vn -0.315600 0.816900 0.482800
vn -0.297700 0.758600 -0.579500
vn -0.534000 0.473200 0.700700
vn -0.583000 0.369600 -0.723600
vn -0.999800 -0.019100 -0.009100
vn -0.627300 -0.049800 0.777200
vn -0.650600 -0.105100 -0.752100
vn -0.694200 -0.718900 -0.036400
vn -0.278300 -0.671800 0.686500
vn -0.270600 -0.653300 -0.707100
vn -0.000000 -0.998100 -0.062300
vn 0.681800 -0.731500 0.000000
vn -0.681800 -0.731500 -0.000000
vn -0.999900 0.011400 0.000000
vn -0.382500 -0.923500 -0.028800
vn 0.999900 0.011400 -0.000000
vn 0.382500 -0.923500 -0.028800
vn 0.000000 0.318300 0.948000
vn 0.000000 0.011800 -0.999900
vn 0.170000 0.082200 -0.982000
vn 0.000000 -0.981700 -0.190200
vn 0.303000 0.283800 -0.909700
vn 0.713800 -0.686200 -0.139800
vn 0.768000 -0.576000 -0.279800
vn -0.000000 -0.981800 -0.189800
vn 0.238300 0.510400 -0.826300
vn 0.000000 -0.642300 0.766500
vn 0.707100 -0.648300 -0.282200
vn -0.000000 -0.916900 -0.399200
vn 0.000000 -0.982000 -0.188700
vn -0.000000 -0.408700 -0.912700
vn 0.000000 -0.988200 -0.153000
vn -0.000000 -0.015400 -0.999900
vn 0.000000 0.699500 -0.714600
vn 0.707600 0.636700 0.306300
vn 0.000000 -0.444000 0.896000
vn 0.680000 -0.475800 -0.557800
vn 0.000000 -0.610100 -0.792300
vn -0.000000 -0.652200 -0.758000
vn 0.000000 -0.932100 -0.362300
vn -0.000000 0.437300 -0.899300
vn 0.000000 -0.999900 -0.014300
vn 1.000000 -0.003200 0.000100
vn -1.000000 -0.003200 0.000100
vn -0.000000 0.646900 -0.762500
vn 0.000000 0.925800 0.378000
vn 0.707100 0.621400 0.337400
vn 0.000000 -0.916900 0.399200
vn -0.000000 -0.257800 -0.966200
vn -0.713800 -0.686200 -0.139800
vn -0.170000 0.082200 -0.982000
vn -0.000000 0.911400 -0.411500
vn 0.000000 -0.756800 0.653600
vn 0.000000 -0.904300 -0.426800
vn 0.507000 0.823800 -0.253500
vn 0.000000 0.902900 0.429900
vn 0.726700 0.681100 0.090000
vn 0.000000 -0.993600 -0.112800
vn 0.707100 -0.182300 -0.683200
vn -0.108600 -0.274700 -0.955400
vn -0.000000 -0.814600 -0.580000
vn -0.940000 -0.097900 -0.326900
vn -0.680000 -0.475800 -0.557800
vn -0.707100 -0.648300 -0.282200
vn -0.303000 0.283800 -0.909700
vn -0.000000 0.993100 0.116900
vn 0.000000 0.150000 0.988700
vn 1.000000 0.002600 -0.001200
vn -0.000000 -0.593100 -0.805100
vn -1.000000 0.002600 -0.001200
vn -0.907100 0.378000 0.185200
vn 0.000000 0.878800 0.477200
vn 0.707100 0.658900 -0.256600
vn -0.000000 -0.907200 -0.420600
vn 0.551100 -0.679800 -0.483900
vn 0.000000 -0.997400 0.072600
vn -0.238300 0.510400 -0.826300
vn -0.000000 0.911300 0.411800
vn -0.707600 0.636700 0.306300
vn -0.990400 0.123800 0.061300
vn -0.000000 0.998000 0.063000
vn 0.000000 0.929100 -0.369800
vn 0.721800 0.686800 -0.085800
vn 0.707100 -0.705200 0.051300
vn 0.388500 -0.777000 -0.495300
vn 0.000000 -0.997300 0.074100
vn 0.000000 -0.986300 -0.164700
vn 0.000000 -0.997300 0.073200
vn -0.704400 -0.587000 -0.399100
vn -0.707100 -0.182300 -0.683200
vn -0.707100 0.621400 0.337400
vn 0.000000 0.997400 0.072200
vn -0.000000 0.931800 -0.362900
vn 0.000000 0.990500 -0.137300
vn 0.707100 0.699700 0.102100
vn 0.707100 -0.002900 0.707100
vn 0.707900 -0.044100 0.704900
vn 0.714600 -0.694100 -0.086800
vn 0.000000 -0.988600 -0.150500
vn 0.000000 -0.919600 -0.392800
vn 0.000000 -0.986500 -0.163900
vn -0.707100 -0.705200 0.051300
vn -0.551100 -0.679800 -0.483900
vn -0.726700 0.681100 0.090000
vn -0.000000 0.993600 -0.113000
vn 0.000000 0.989000 0.147800
vn 0.555900 0.542400 0.629900
vn 0.000000 -0.004300 1.000000
vn 0.707100 -0.095900 0.700600
vn 0.707100 -0.650300 -0.277700
vn 0.000000 -0.911900 -0.410400
vn 0.000000 -0.870000 0.493000
vn 0.000000 -0.916500 -0.399900
vn -0.714600 -0.694100 -0.086800
vn -0.707100 0.658900 -0.256600
vn 0.000000 0.994600 -0.103400
vn -0.000000 0.989500 0.144400
vn 0.000000 0.655400 0.755300
vn 0.000000 -0.070200 0.997500
vn 0.000000 -0.004100 1.000000
vn 0.649300 -0.661700 0.374900
vn 0.000000 -0.143100 0.989700
vn 0.000000 -0.869200 0.494400
vn 0.000000 -0.135700 0.990800
vn -0.721800 0.686700 -0.085800
vn 0.000000 0.989600 0.143800
vn 0.000000 0.652500 0.757800
vn 0.000000 -0.070100 0.997500
vn 0.000000 -0.004200 1.000000
vn 0.000000 -0.136400 0.990700
vn -0.649300 -0.661700 0.374900
vn -0.707100 -0.650300 -0.277700
vn -0.707100 -0.095900 0.700600
vn -0.707900 -0.044100 0.704900
vn -0.707100 -0.002900 0.707100
vn -0.707100 0.699700 0.102100
vn 0.000000 0.657600 0.753400
vn 0.000000 -0.073200 0.997300
vn -0.555900 0.542400 0.629900
vn 0.001300 -0.018000 -0.999800
vn 0.001400 -0.019500 -0.999800
vn 0.707100 0.707100 -0.001000
vn -0.000100 0.002500 1.000000
vn -0.075100 0.997200 0.000900
vn 0.075100 -0.997200 0.001400
vn 0.000000 -0.999600 0.029200
vn 0.707100 -0.706800 0.020300
vn 0.000000 -0.999600 0.028800
vn 0.000000 -0.999900 0.014100
vn 0.707100 -0.707000 0.009800
vn 0.000000 -0.999900 0.013900
vn 0.000000 -1.000000 -0.001100
vn 0.707100 -0.707100 -0.000800
vn 0.707100 0.653600 0.269700
vn 0.000000 -0.002200 -1.000000
vn 0.707100 0.707100 -0.000800
vn 0.715100 0.682000 0.153100
vn 0.000000 0.918900 0.394400
vn 0.705400 0.708800 -0.001100
vn 0.000000 0.924400 0.381400
vn 0.000000 0.981200 0.193100
vn -0.707100 -0.707100 -0.000800
vn 0.000000 1.000000 -0.001600
vn -0.000000 0.981100 0.193600
vn -0.335300 0.860400 0.383800
vn -0.707100 -0.707000 0.009800
vn 0.000000 0.980100 0.198400
vn -0.707100 -0.706800 0.020300
vn -0.707100 0.707100 -0.001200
vn 0.000000 1.000000 -0.001700
vn -0.715100 0.682000 0.153100
vn -0.707100 0.653600 0.269700
vn 1.000000 0.000000 0.000100
vn 0.707100 0.707100 -0.002300
vn 1.000000 -0.000300 0.000000
vn 1.000000 -0.000000 -0.000200
vn 0.856100 0.506800 0.100900
vn 0.903500 0.428500 0.000000
vn 0.010000 0.929000 0.369800
vn -0.856100 0.506800 0.100900
vn 0.010800 0.999900 0.000000
vn -0.010000 0.929000 0.369800
vn -0.903500 0.428500 0.000000
vn -0.010800 0.999900 0.000000
vn -0.098900 -0.040900 -0.994300
vn -0.098900 0.040900 -0.994300
vn -0.041000 -0.098900 -0.994300
vn -0.040900 0.098900 -0.994300
vn 0.040900 -0.098900 -0.994300
vn 0.040900 0.098900 -0.994300
vn 0.098900 -0.041000 -0.994300
vn 0.098900 0.041000 -0.994300
usemtl BulletRed
s off
f 1/1/1 2/1/1 4/1/1 3/1/1
f 3/1/2 4/1/2 6/1/2 5/1/2
f 5/1/3 6/1/3 8/1/3 7/1/3
f 7/1/4 8/1/4 10/1/4 9/1/4
f 9/1/5 10/1/5 12/1/5 11/1/5
f 11/1/6 12/1/6 14/1/6 13/1/6
f 2/1/7 16/1/7 24/1/7 18/1/7
f 15/1/8 16/1/8 2/1/8 1/1/8
f 13/1/9 14/1/9 16/1/9 15/1/9
f 24/1/3 23/1/3 31/1/3 32/1/3
f 4/1/7 2/1/7 18/1/7 17/1/7
f 8/1/7 6/1/7 19/1/7 20/1/7
f 14/1/7 12/1/7 22/1/7 23/1/7
f 10/1/7 8/1/7 20/1/7 21/1/7
f 16/1/7 14/1/7 23/1/7 24/1/7
f 6/1/7 4/1/7 17/1/7 19/1/7
f 12/1/7 10/1/7 21/1/7 22/1/7
f 25/1/7 26/1/7 32/1/7 31/1/7 30/1/7 29/1/7 28/1/7 27/1/7
f 22/1/1 21/1/1 29/1/1 30/1/1
f 20/1/9 19/1/9 27/1/9 28/1/9
f 17/1/5 18/1/5 26/1/5 25/1/5
f 18/1/4 24/1/4 32/1/4 26/1/4
f 23/1/2 22/1/2 30/1/2 31/1/2
f 21/1/8 20/1/8 28/1/8 29/1/8
f 19/1/6 17/1/6 25/1/6 27/1/6
usemtl BulletYellow
f 13/2/10 15/2/10 40/2/10 39/2/10
f 7/2/11 9/2/11 37/2/11 36/2/11
f 11/2/12 13/2/12 39/2/12 38/2/12
f 5/2/13 7/2/13 36/2/13 35/2/13
f 1/2/14 3/2/14 34/2/14 33/2/14
f 15/2/15 1/2/15 33/2/15 40/2/15
f 9/2/16 11/2/16 38/2/16 37/2/16
f 3/2/17 5/2/17 35/2/17 34/2/17
f 34/2/2 35/2/2 43/2/2 42/2/2
f 42/2/18 43/2/18 51/2/18 50/2/18
f 37/2/5 38/2/5 46/2/5 45/2/5
f 40/2/8 33/2/8 41/2/8 48/2/8
f 33/2/1 34/2/1 42/2/1 41/2/1
f 35/2/3 36/2/3 44/2/3 43/2/3
f 38/2/6 39/2/6 47/2/6 46/2/6
f 36/2/4 37/2/4 45/2/4 44/2/4
f 39/2/9 40/2/9 48/2/9 47/2/9
f 49/2/18 50/2/18 51/2/18 52/2/18 53/2/18 54/2/18 55/2/18 56/2/18
f 47/2/18 48/2/18 56/2/18 55/2/18
f 45/2/18 46/2/18 54/2/18 53/2/18
f 43/2/18 44/2/18 52/2/18 51/2/18
f 41/2/18 42/2/18 50/2/18 49/2/18
f 48/2/18 41/2/18 49/2/18 56/2/18
f 46/2/18 47/2/18 55/2/18 54/2/18
f 44/2/18 45/2/18 53/2/18 52/2/18
usemtl Trigger
f 58/3/19 60/3/19 59/3/19 57/3/19
f 60/3/7 64/3/7 63/3/7 59/3/7
f 64/3/20 62/3/20 61/3/20 63/3/20
f 62/3/18 58/3/18 57/3/18 61/3/18
f 63/3/20 61/3/20 68/3/20 67/3/20
f 62/3/21 64/3/21 60/3/21 58/3/21
f 67/3/20 68/3/20 72/3/20 71/3/20
f 57/3/19 59/3/19 65/3/19 66/3/19
f 59/3/22 63/3/22 67/3/22 65/3/22
f 61/3/23 57/3/23 66/3/23 68/3/23
f 70/3/19 69/3/19 73/3/19 74/3/19
f 66/3/19 65/3/19 69/3/19 70/3/19
f 68/3/24 66/3/24 70/3/24 72/3/24
f 65/3/25 67/3/25 71/3/25 69/3/25
f 74/3/26 73/3/26 75/3/26 76/3/26
f 72/3/27 70/3/27 74/3/27 76/3/27
f 69/3/28 71/3/28 75/3/28 73/3/28
f 71/3/20 72/3/20 76/3/20 75/3/20
usemtl Black
f 156/4/8 124/4/8 82/4/8 128/4/8
f 91/4/3 136/4/3 137/4/3 96/4/3
f 97/4/4 140/4/4 141/4/4 102/4/4
f 103/4/5 144/4/5 145/4/5 108/4/5
f 109/4/6 148/4/6 149/4/6 114/4/6
f 115/4/29 152/4/29 154/4/29 120/4/29
f 85/4/30 132/4/30 133/4/30 90/4/30
f 87/4/31 80/4/31 123/4/31 117/4/31 111/4/31 105/4/31 99/4/31 93/4/31
f 121/4/32 153/4/32 127/4/32 79/4/32
f 151/4/20 118/4/20 122/4/20 155/4/20
f 77/4/33 126/4/33 129/4/33 84/4/33
f 147/4/6 112/4/6 116/4/6 150/4/6
f 143/4/5 106/4/5 110/4/5 146/4/5
f 139/4/4 100/4/4 104/4/4 142/4/4
f 135/4/3 94/4/3 98/4/3 138/4/3
f 131/4/34 88/4/34 92/4/34 134/4/34
f 125/4/1 81/4/1 86/4/1 130/4/1
f 77/4/35 78/4/35 79/4/35
f 80/4/36 81/4/36 82/4/36
f 83/4/37 84/4/37 85/4/37
f 86/4/38 87/4/38 88/4/38
f 89/4/39 90/4/39 91/4/39
f 92/4/40 93/4/40 94/4/40
f 95/4/41 96/4/41 97/4/41
f 98/4/42 99/4/42 100/4/42
f 101/4/43 102/4/43 103/4/43
f 104/4/44 105/4/44 106/4/44
f 107/4/45 108/4/45 109/4/45
f 110/4/46 111/4/46 112/4/46
f 113/4/47 114/4/47 115/4/47
f 116/4/48 117/4/48 118/4/48
f 119/4/49 120/4/49 121/4/49
f 122/4/50 123/4/50 124/4/50
f 125/4/51 126/4/51 127/4/51 128/4/51
f 129/4/52 130/4/52 131/4/52 132/4/52
f 133/4/53 134/4/53 135/4/53 136/4/53
f 137/4/54 138/4/54 139/4/54 140/4/54
f 141/4/21 142/4/21 143/4/21 144/4/21
f 145/4/55 146/4/55 147/4/55 148/4/55
f 149/4/56 150/4/56 151/4/56 152/4/56
f 153/4/57 154/4/57 155/4/57 156/4/57
f 77/4/58 84/4/58 83/4/58 78/4/58
f 86/4/59 81/4/59 80/4/59 87/4/59
f 128/4/60 82/4/60 81/4/60 125/4/60
f 132/4/61 85/4/61 84/4/61 129/4/61
f 85/4/62 90/4/62 89/4/62 83/4/62
f 92/4/63 88/4/63 87/4/63 93/4/63
f 136/4/64 91/4/64 90/4/64 133/4/64
f 91/4/65 96/4/65 95/4/65 89/4/65
f 98/4/66 94/4/66 93/4/66 99/4/66
f 140/4/54 97/4/54 96/4/54 137/4/54
f 97/4/67 102/4/67 101/4/67 95/4/67
f 104/4/68 100/4/68 99/4/68 105/4/68
f 144/4/21 103/4/21 102/4/21 141/4/21
f 103/4/69 108/4/69 107/4/69 101/4/69
f 110/4/70 106/4/70 105/4/70 111/4/70
f 148/4/55 109/4/55 108/4/55 145/4/55
f 109/4/71 114/4/71 113/4/71 107/4/71
f 116/4/72 112/4/72 111/4/72 117/4/72
f 152/4/73 115/4/73 114/4/73 149/4/73
f 115/4/74 120/4/74 119/4/74 113/4/74
f 122/4/75 118/4/75 117/4/75 123/4/75
f 153/4/76 121/4/76 120/4/76 154/4/76
f 121/4/77 79/4/77 78/4/77 119/4/77
f 82/4/78 124/4/78 123/4/78 80/4/78
f 79/4/79 127/4/79 126/4/79 77/4/79
f 88/4/80 131/4/80 130/4/80 86/4/80
f 94/4/53 135/4/53 134/4/53 92/4/53
f 100/4/54 139/4/54 138/4/54 98/4/54
f 106/4/21 143/4/21 142/4/21 104/4/21
f 112/4/55 147/4/55 146/4/55 110/4/55
f 118/4/56 151/4/56 150/4/56 116/4/56
f 124/4/81 156/4/81 155/4/81 122/4/81
f 151/4/82 155/4/82 154/4/82 152/4/82
f 156/4/83 128/4/83 127/4/83 153/4/83
f 147/4/6 150/4/6 149/4/6 148/4/6
f 143/4/5 146/4/5 145/4/5 144/4/5
f 139/4/4 142/4/4 141/4/4 140/4/4
f 135/4/3 138/4/3 137/4/3 136/4/3
f 131/4/84 134/4/84 133/4/84 132/4/84
f 125/4/85 130/4/85 129/4/85 126/4/85
f 78/4/86 83/4/86 89/4/86 95/4/86 101/4/86 107/4/86 113/4/86 119/4/86
f 158/4/87 157/4/87 163/4/87 164/4/87
f 157/4/88 162/4/88 169/4/88 163/4/88
f 187/4/87 173/4/87 176/4/87 166/4/87 158/4/87 164/4/87 190/4/87 244/4/87 267/4/87 245/4/87
f 174/4/89 175/4/89 164/4/89 163/4/89
f 176/4/20 177/4/20 178/4/20 165/4/20 166/4/20
f 162/4/90 171/4/90 181/4/90 169/4/90
f 169/4/91 182/4/91 174/4/91 163/4/91
f 174/4/92 188/4/92 213/4/92 175/4/92
f 164/4/93 175/4/93 189/4/93 190/4/93
f 173/4/20 191/4/20 192/4/20 177/4/20 176/4/20
f 178/4/20 177/4/20 193/4/20 194/4/20 195/4/20
f 171/4/94 186/4/94 206/4/94 181/4/94
f 169/4/20 181/4/20 207/4/20 182/4/20
f 187/4/95 211/4/95 191/4/95 173/4/95
f 182/4/96 212/4/96 188/4/96 174/4/96
f 214/4/97 189/4/97 175/4/97 213/4/97
f 190/4/98 189/4/98 252/4/98 215/4/98
f 192/4/20 191/4/20 216/4/20 217/4/20
f 218/4/99 177/4/99 192/4/99 219/4/99
f 177/4/100 218/4/100 220/4/100 193/4/100
f 194/4/20 193/4/20 221/4/20 198/4/20
f 198/4/20 221/4/20 225/4/20 199/4/20
f 199/4/20 225/4/20 226/4/20 200/4/20
f 200/4/101 226/4/101 227/4/101 201/4/101
f 201/4/19 227/4/19 228/4/19 202/4/19
f 202/4/19 228/4/19 229/4/19 203/4/19
f 203/4/19 229/4/19 220/4/19 204/4/19
f 218/4/19 222/4/19 205/4/19 204/4/19 220/4/19
f 186/4/102 209/4/102 235/4/102 206/4/102
f 206/4/103 236/4/103 207/4/103 181/4/103
f 237/4/20 212/4/20 182/4/20 207/4/20
f 245/4/19 218/4/19 219/4/19 211/4/19 187/4/19
f 191/4/104 211/4/104 246/4/104 216/4/104
f 212/4/105 247/4/105 248/4/105 188/4/105
f 188/4/106 248/4/106 250/4/106 213/4/106
f 249/4/107 214/4/107 213/4/107 250/4/107
f 214/4/108 251/4/108 252/4/108 189/4/108
f 253/4/87 244/4/87 190/4/87 215/4/87
f 219/4/109 192/4/109 217/4/109 254/4/109
f 217/4/20 216/4/20 255/4/20 256/4/20
f 193/4/110 220/4/110 229/4/110 221/4/110
f 221/4/111 265/4/111 296/4/111 225/4/111
f 225/4/110 228/4/110 227/4/110 226/4/110
f 228/4/112 266/4/112 290/4/112 229/4/112
f 222/4/19 218/4/19 245/4/19 267/4/19 268/4/19
f 209/4/113 242/4/113 271/4/113 235/4/113
f 206/4/114 235/4/114 272/4/114 236/4/114
f 237/4/115 207/4/115 236/4/115 273/4/115
f 212/4/20 237/4/20 274/4/20 275/4/20
f 211/4/19 219/4/19 254/4/19 246/4/19
f 216/4/116 246/4/116 280/4/116 255/4/116
f 275/4/20 247/4/20 212/4/20
f 281/4/117 249/4/117 250/4/117 282/4/117
f 251/4/106 214/4/106 249/4/106 283/4/106
f 252/4/118 284/4/118 286/4/118 215/4/118
f 285/4/119 253/4/119 215/4/119 286/4/119
f 254/4/120 217/4/120 256/4/120 287/4/120
f 256/4/20 255/4/20 288/4/20 289/4/20
f 290/4/121 265/4/121 221/4/121 229/4/121
f 296/4/122 266/4/122 228/4/122 225/4/122
f 271/4/123 242/4/123 314/4/123 303/4/123
f 235/4/124 271/4/124 304/4/124 272/4/124
f 305/4/18 273/4/18 236/4/18 272/4/18
f 274/4/125 237/4/125 273/4/125 306/4/125
f 307/4/20 308/4/20 275/4/20 274/4/20
f 246/4/19 254/4/19 287/4/19 280/4/19
f 255/4/126 280/4/126 315/4/126 288/4/126
f 275/4/20 308/4/20 316/4/20 247/4/20
f 317/4/127 248/4/127 247/4/127 318/4/127
f 250/4/128 248/4/128 317/4/128 282/4/128
f 319/4/129 320/4/129 281/4/129 282/4/129
f 249/4/130 281/4/130 353/4/130 283/4/130
f 251/4/131 283/4/131 354/4/131 321/4/131
f 252/4/132 251/4/132 321/4/132 284/4/132
f 322/4/133 285/4/133 286/4/133 323/4/133
f 287/4/134 256/4/134 289/4/134 324/4/134
f 289/4/20 288/4/20 325/4/20 326/4/20
f 327/4/135 326/4/135 265/4/135 290/4/135
f 265/4/136 326/4/136 325/4/136 296/4/136
f 325/4/137 332/4/137 266/4/137 296/4/137
f 266/4/138 332/4/138 327/4/138 290/4/138
f 303/4/139 338/4/139 304/4/139 271/4/139
f 304/4/140 339/4/140 305/4/140 272/4/140
f 305/4/18 340/4/18 306/4/18 273/4/18
f 306/4/141 341/4/141 307/4/141 274/4/141
f 308/4/20 307/4/20 342/4/20 343/4/20
f 280/4/19 287/4/19 324/4/19 315/4/19
f 288/4/142 315/4/142 332/4/142 325/4/142
f 343/4/20 348/4/20 316/4/20 308/4/20
f 316/4/20 349/4/20 318/4/20 247/4/20
f 318/4/143 350/4/143 317/4/143
f 351/4/144 320/4/144 319/4/144 352/4/144
f 355/4/19 356/4/19 284/4/19 321/4/19
f 284/4/19 356/4/19 323/4/19 286/4/19
f 314/4/145 322/4/145 323/4/145 303/4/145
f 324/4/146 289/4/146 326/4/146 327/4/146
f 303/4/147 323/4/147 356/4/147 338/4/147
f 304/4/148 338/4/148 382/4/148 339/4/148
f 363/4/149 340/4/149 305/4/149 339/4/149
f 341/4/150 306/4/150 340/4/150 364/4/150
f 341/4/151 365/4/151 342/4/151 307/4/151
f 343/4/20 342/4/20 366/4/20 367/4/20
f 315/4/19 324/4/19 327/4/19 332/4/19
f 343/4/20 367/4/20 372/4/20 348/4/20
f 349/4/20 316/4/20 348/4/20 373/4/20
f 374/4/152 350/4/152 318/4/152 349/4/152
f 317/4/153 350/4/153 319/4/153 282/4/153
f 374/4/154 352/4/154 319/4/154 350/4/154
f 352/4/155 375/4/155 376/4/155 351/4/155
f 377/4/156 378/4/156 320/4/156 351/4/156
f 378/4/157 353/4/157 281/4/157 320/4/157
f 379/4/158 354/4/158 283/4/158 353/4/158
f 354/4/19 380/4/19 321/4/19
f 380/4/19 381/4/19 355/4/19 321/4/19
f 382/4/159 338/4/159 356/4/159 355/4/159
f 363/4/160 339/4/160 382/4/160 388/4/160
f 363/4/161 389/4/161 364/4/161 340/4/161
f 364/4/162 390/4/162 365/4/162 341/4/162
f 365/4/163 391/4/163 366/4/163 342/4/163
f 367/4/164 366/4/164 392/4/164 393/4/164
f 372/4/165 367/4/165 393/4/165 398/4/165
f 373/4/20 348/4/20 372/4/20 399/4/20
f 349/4/166 373/4/166 400/4/166 374/4/166
f 400/4/167 375/4/167 352/4/167 374/4/167
f 401/4/168 376/4/168 375/4/168 402/4/168
f 351/4/169 376/4/169 427/4/169 377/4/169
f 403/4/170 379/4/170 378/4/170 377/4/170
f 379/4/171 353/4/171 378/4/171
f 404/4/19 354/4/19 379/4/19 403/4/19
f 354/4/19 404/4/19 405/4/19 380/4/19
f 406/4/19 381/4/19 380/4/19 405/4/19
f 381/4/172 388/4/172 382/4/172 355/4/172
f 389/4/150 363/4/150 388/4/150 414/4/150
f 390/4/173 364/4/173 389/4/173 415/4/173
f 365/4/174 390/4/174 416/4/174 391/4/174
f 392/4/175 366/4/175 391/4/175
f 393/4/176 392/4/176 417/4/176 418/4/176
f 399/4/177 372/4/177 398/4/177 423/4/177
f 373/4/178 399/4/178 424/4/178 400/4/178
f 400/4/179 424/4/179 402/4/179 375/4/179
f 402/4/180 425/4/180 426/4/180 401/4/180
f 376/4/181 401/4/181 442/4/181 427/4/181
f 403/4/182 377/4/182 427/4/182 428/4/182
f 428/4/19 429/4/19 404/4/19 403/4/19
f 430/4/19 405/4/19 404/4/19 429/4/19
f 430/4/19 431/4/19 406/4/19 405/4/19
f 381/4/183 406/4/183 414/4/183 388/4/183
f 414/4/184 435/4/184 415/4/184 389/4/184
f 415/4/185 436/4/185 416/4/185 390/4/185
f 391/4/186 416/4/186 417/4/186 392/4/186
f 398/4/187 393/4/187 418/4/187 437/4/187
f 438/4/188 439/4/188 418/4/188 417/4/188
f 399/4/189 423/4/189 424/4/189
f 398/4/190 437/4/190 425/4/190 423/4/190
f 423/4/191 425/4/191 402/4/191 424/4/191
f 441/4/192 426/4/192 425/4/192 437/4/192
f 442/4/191 401/4/191 426/4/191 443/4/191
f 428/4/19 444/4/19 445/4/19 429/4/19
f 429/4/19 445/4/19 446/4/19 430/4/19
f 430/4/19 446/4/19 447/4/19 431/4/19
f 414/4/193 406/4/193 431/4/193 435/4/193
f 415/4/194 435/4/194 452/4/194 436/4/194
f 417/4/195 416/4/195 436/4/195 438/4/195
f 441/4/196 437/4/196 418/4/196 439/4/196
f 439/4/197 438/4/197 451/4/197 449/4/197
f 426/4/198 441/4/198 450/4/198 443/4/198
f 444/4/199 442/4/199 443/4/199
f 427/4/200 442/4/200 444/4/200 428/4/200
f 443/4/201 450/4/201 445/4/201 444/4/201
f 445/4/202 450/4/202 449/4/202 446/4/202
f 449/4/203 451/4/203 447/4/203 446/4/203
f 431/4/204 447/4/204 452/4/204 435/4/204
f 438/4/205 436/4/205 452/4/205 451/4/205
f 441/4/206 439/4/206 449/4/206 450/4/206
f 451/4/207 452/4/207 447/4/207
f 521/4/208 520/4/208 515/4/208 518/4/208
f 520/4/209 519/4/209 514/4/209 515/4/209
f 515/4/20 514/4/20 513/4/20 516/4/20
f 515/4/210 516/4/210 517/4/210 518/4/210
f 523/4/211 522/4/211 517/4/211 516/4/211
f 524/4/211 523/4/211 516/4/211 513/4/211
f 519/4/212 524/4/212 513/4/212 514/4/212
f 522/4/213 521/4/213 518/4/213 517/4/213
usemtl DarkMetal
f 157/5/214 158/5/214 159/5/214 160/5/214
f 157/5/215 160/5/215 161/5/215 162/5/215
f 165/5/216 159/5/216 158/5/216 166/5/216
f 160/5/217 159/5/217 167/5/217 168/5/217
f 160/5/218 168/5/218 170/5/218 161/5/218
f 171/5/20 162/5/20 161/5/20 172/5/20
f 165/5/219 178/5/219 195/5/219 167/5/219 159/5/219
f 168/5/220 167/5/220 179/5/220 180/5/220
f 183/5/221 170/5/221 168/5/221 180/5/221
f 170/5/20 184/5/20 172/5/20 161/5/20
f 185/5/222 186/5/222 171/5/222 172/5/222
f 196/5/220 197/5/220 179/5/220 167/5/220 195/5/220 194/5/220 198/5/220 199/5/220 200/5/220 201/5/220 202/5/220 203/5/220 204/5/220 205/5/220
f 234/5/223 230/5/223 240/5/223 276/5/223 309/5/223 345/5/223 238/5/223 208/5/223 183/5/223 180/5/223 179/5/223 231/5/223 232/5/223 233/5/223
f 239/5/224 184/5/224 509/5/224 512/5/224
f 172/5/225 184/5/225 239/5/225 185/5/225
f 209/5/226 186/5/226 185/5/226 210/5/226
f 205/5/219 222/5/219 268/5/219 257/5/219 196/5/219
f 197/5/220 196/5/220 223/5/220 224/5/220
f 197/5/223 224/5/223 261/5/223 262/5/223 263/5/223 264/5/223 231/5/223 179/5/223
f 238/5/227 239/5/227 512/5/227 511/5/227
f 241/5/228 242/5/228 209/5/228 210/5/228
f 239/5/229 243/5/229 210/5/229 185/5/229
f 223/5/217 196/5/217 257/5/217 258/5/217
f 224/5/230 223/5/230 259/5/230 260/5/230
f 269/5/223 230/5/223 234/5/223 270/5/223
f 243/5/231 239/5/231 238/5/231 277/5/231
f 243/5/232 278/5/232 241/5/232 210/5/232
f 241/5/233 279/5/233 314/5/233 242/5/233
f 253/5/214 258/5/214 257/5/214 244/5/214
f 258/5/234 291/5/234 259/5/234 223/5/234
f 224/5/223 260/5/223 329/5/223 230/5/223 269/5/223 292/5/223 293/5/223 261/5/223
f 294/5/19 295/5/19 260/5/19 259/5/19
f 244/5/216 257/5/216 268/5/216 267/5/216
f 310/5/231 278/5/231 243/5/231 277/5/231
f 346/5/223 370/5/223 357/5/223 295/5/223 330/5/223 310/5/223 277/5/223 238/5/223 311/5/223
f 279/5/235 241/5/235 278/5/235 313/5/235
f 285/5/236 291/5/236 258/5/236 253/5/236
f 291/5/19 328/5/19 294/5/19 259/5/19
f 313/5/237 330/5/237 295/5/237 294/5/237
f 278/5/238 310/5/238 330/5/238 313/5/238
f 238/5/223 345/5/223 311/5/223
f 313/5/239 294/5/239 328/5/239 279/5/239
f 328/5/240 322/5/240 314/5/240 279/5/240
f 322/5/19 328/5/19 291/5/19 285/5/19
f 329/5/223 260/5/223 295/5/223 357/5/223 358/5/223 331/5/223
f 184/5/241 170/5/241 508/5/241 509/5/241
f 208/5/242 238/5/242 511/5/242 510/5/242
f 170/5/243 183/5/243 507/5/243 508/5/243
f 183/5/244 208/5/244 510/5/244 507/5/244
f 511/5/213 512/5/213 521/5/213 522/5/213
f 508/5/212 507/5/212 524/5/212 519/5/212
f 507/5/211 510/5/211 523/5/211 524/5/211
f 510/5/211 511/5/211 522/5/211 523/5/211
f 509/5/209 508/5/209 519/5/209 520/5/209
f 512/5/208 509/5/208 520/5/208 521/5/208
usemtl Barrels
f 230/6/1 297/6/1 298/6/1 299/6/1 300/6/1 301/6/1 302/6/1 240/6/1
f 240/6/2 302/6/2 312/6/2 276/6/2
f 331/6/8 333/6/8 301/6/8 300/6/8 334/6/8 335/6/8 297/6/8 230/6/8 329/6/8
f 301/6/1 336/6/1 337/6/1 302/6/1
f 276/6/3 312/6/3 344/6/3 309/6/3
f 302/6/2 337/6/2 347/6/2 312/6/2
f 358/6/9 359/6/9 333/6/9 331/6/9
f 333/6/8 360/6/8 336/6/8 301/6/8
f 336/6/1 361/6/1 362/6/1 337/6/1
f 312/6/3 347/6/3 368/6/3 344/6/3
f 309/6/4 344/6/4 369/6/4 346/6/4 311/6/4 345/6/4
f 337/6/2 362/6/2 371/6/2 347/6/2
f 370/6/6 383/6/6 359/6/6 358/6/6 357/6/6
f 359/6/9 384/6/9 360/6/9 333/6/9
f 360/6/8 385/6/8 361/6/8 336/6/8
f 361/6/1 386/6/1 387/6/1 362/6/1
f 347/6/3 371/6/3 394/6/3 368/6/3
f 344/6/245 368/6/245 420/6/245 395/6/245
f 369/6/18 344/6/18 395/6/18 396/6/18
f 346/6/5 369/6/5 383/6/5 370/6/5
f 362/6/2 387/6/2 397/6/2 371/6/2
f 383/6/6 407/6/6 384/6/6 359/6/6
f 384/6/9 408/6/9 385/6/9 360/6/9
f 385/6/8 409/6/8 386/6/8 361/6/8
f 411/6/7 412/6/7 497/6/7 496/6/7
f 371/6/3 397/6/3 413/6/3 394/6/3
f 368/6/246 394/6/246 419/6/246 420/6/246
f 383/6/18 369/6/18 396/6/18 421/6/18
f 395/6/247 420/6/247 422/6/247 396/6/247
f 407/6/248 383/6/248 421/6/248 432/6/248
f 407/6/6 433/6/6 408/6/6 384/6/6
f 408/6/9 410/6/9 409/6/9 385/6/9
f 433/6/6 411/6/6 410/6/6 408/6/6
f 434/6/5 412/6/5 411/6/5 433/6/5
f 394/6/4 413/6/4 412/6/4 434/6/4
f 394/6/7 434/6/7 440/6/7 419/6/7
f 420/6/249 419/6/249 440/6/249 422/6/249
f 396/6/250 422/6/250 432/6/250 421/6/250
f 433/6/251 407/6/251 432/6/251 448/6/251
f 434/6/7 433/6/7 448/6/7 440/6/7
f 422/6/252 440/6/252 448/6/252 432/6/252
f 293/6/9 453/6/9 454/6/9 262/6/9 261/6/9
f 292/6/6 455/6/6 453/6/6 293/6/6
f 454/6/18 453/6/18 456/6/18 457/6/18
f 262/6/8 454/6/8 458/6/8 263/6/8
f 270/6/5 459/6/5 455/6/5 292/6/5 269/6/5
f 453/6/18 455/6/18 460/6/18 456/6/18
f 458/6/18 454/6/18 457/6/18 461/6/18
f 457/6/9 456/6/9 462/6/9 463/6/9
f 263/6/1 458/6/1 464/6/1 264/6/1
f 233/6/4 465/6/4 459/6/4 270/6/4 234/6/4
f 335/6/18 460/6/18 455/6/18 459/6/18 297/6/18
f 456/6/6 460/6/6 466/6/6 462/6/6
f 464/6/18 458/6/18 461/6/18 467/6/18
f 461/6/8 457/6/8 463/6/8 468/6/8
f 463/6/253 462/6/253 469/6/253 470/6/253
f 264/6/2 464/6/2 471/6/2 232/6/2 231/6/2
f 232/6/3 471/6/3 465/6/3 233/6/3
f 297/6/18 459/6/18 465/6/18 472/6/18 298/6/18
f 334/6/5 466/6/5 460/6/5 335/6/5
f 462/6/254 466/6/254 473/6/254 469/6/254
f 471/6/18 464/6/18 467/6/18 474/6/18
f 467/6/1 461/6/1 468/6/1 475/6/1
f 468/6/255 463/6/255 470/6/255 476/6/255
f 470/6/9 469/6/9 477/6/9 478/6/9
f 465/6/18 471/6/18 474/6/18 472/6/18
f 298/6/4 472/6/4 479/6/4 299/6/4
f 300/6/256 480/6/256 473/6/256 466/6/256 334/6/256
f 469/6/6 473/6/6 481/6/6 477/6/6
f 474/6/2 467/6/2 475/6/2 482/6/2
f 475/6/257 468/6/257 476/6/257 483/6/257
f 476/6/8 470/6/8 478/6/8 484/6/8
f 484/6/7 478/6/7 477/6/7 481/6/7 485/6/7 486/6/7 487/6/7 488/6/7
f 472/6/3 474/6/3 482/6/3 479/6/3
f 299/6/258 479/6/258 489/6/258 480/6/258 300/6/258
f 473/6/5 480/6/5 485/6/5 481/6/5
f 482/6/259 475/6/259 483/6/259 490/6/259
f 483/6/1 476/6/1 484/6/1 488/6/1
f 480/6/4 489/6/4 486/6/4 485/6/4
f 489/6/3 490/6/3 487/6/3 486/6/3
f 490/6/2 483/6/2 488/6/2 487/6/2
f 479/6/260 482/6/260 490/6/260 489/6/260
f 493/6/6 492/6/6 500/6/6 501/6/6
f 409/6/7 410/6/7 495/6/7 494/6/7
f 387/6/7 386/6/7 491/6/7 492/6/7
f 412/6/7 413/6/7 498/6/7 497/6/7
f 410/6/7 411/6/7 496/6/7 495/6/7
f 386/6/7 409/6/7 494/6/7 491/6/7
f 413/6/7 397/6/7 493/6/7 498/6/7
f 397/6/7 387/6/7 492/6/7 493/6/7
f 500/6/7 499/6/7 502/6/7 503/6/7 504/6/7 505/6/7 506/6/7 501/6/7
f 497/6/8 498/6/8 506/6/8 505/6/8
f 495/6/2 496/6/2 504/6/2 503/6/2
f 491/6/4 494/6/4 502/6/4 499/6/4
f 492/6/5 491/6/5 499/6/5 500/6/5
f 498/6/9 493/6/9 501/6/9 506/6/9
f 496/6/1 497/6/1 505/6/1 504/6/1
f 494/6/3 495/6/3 503/6/3 502/6/3
