vt 0.0625 0.5
vt 0.1875 0.5
vt 0.3125 0.5
vt 0.4375 0.5
vt 0.5625 0.5
vt 0.6875 0.5
vt 0.8125 0.5
vt 0.9375 0.5
# Blender v2.76 (sub 0) OBJ File: 'SniperRifle.blend'
# www.blender.org
mtllib SniperRifle.mtl
o Rifle.001
v 0.031110 0.500903 2.866135
v 0.031110 0.500902 2.311447
v 0.120601 0.529980 2.866135
v 0.120601 0.529980 2.311448
v 0.175909 0.606106 2.866135
v 0.175909 0.606105 2.311448
v 0.175909 0.700202 2.866135
v 0.175909 0.700202 2.311448
v 0.120601 0.776328 2.866135
v 0.120601 0.776328 2.311447
v 0.031110 0.805405 2.866135
v 0.031110 0.805405 2.311447
v -0.058381 0.776328 2.866135
v -0.058381 0.776328 2.311447
v -0.113690 0.700202 2.866135
v -0.113690 0.700202 2.311448
v -0.113690 0.606106 2.866135
v -0.113690 0.606105 2.311448
v -0.058381 0.529980 2.866135
v -0.058381 0.529980 2.311448
v 0.093313 0.567538 2.092278
v 0.031110 0.547328 2.092278
v 0.131756 0.620452 2.092278
v 0.131756 0.685856 2.092278
v 0.093313 0.738769 2.092278
v 0.031110 0.758980 2.092278
v -0.031093 0.738769 2.092278
v -0.069537 0.685856 2.092278
v -0.069537 0.620452 2.092278
v -0.031093 0.567538 2.092278
v 0.093313 0.567538 1.091870
v 0.031110 0.547327 1.091870
v 0.131756 0.620452 1.091870
v 0.131756 0.685856 1.091870
v 0.093313 0.738769 1.091870
v 0.031110 0.758980 1.091870
v -0.031093 0.738769 1.091870
v -0.069537 0.685856 1.091870
v -0.069537 0.620452 1.091870
v -0.031093 0.567538 1.091870
v 0.162519 0.472284 0.620250
v 0.031110 0.429587 0.620250
v 0.243735 0.584068 0.620250
v 0.243735 0.722240 0.620250
v 0.162519 0.834023 0.620250
v 0.031110 0.876721 0.620250
v -0.100300 0.834023 0.620250
v -0.181515 0.722240 0.620250
v -0.181515 0.584068 0.620250
v -0.100300 0.472284 0.620250
v 0.162519 0.472284 0.337992
v 0.031110 0.429587 0.337992
v 0.243735 0.584068 0.337992
v 0.243735 0.722240 0.337992
v 0.162519 0.834023 0.337992
v 0.031110 0.876721 0.337992
v -0.100300 0.834023 0.337992
v -0.181515 0.722240 0.337992
v -0.181515 0.584068 0.337992
v -0.100300 0.472284 0.337992
v 0.031110 0.547328 1.783510
v 0.093313 0.567539 1.783510
v -0.069537 0.685856 1.783510
v -0.069537 0.620452 1.783510
v 0.093313 0.738769 1.783510
v 0.031110 0.758980 1.783510
v 0.131756 0.620452 1.783510
v -0.031093 0.567538 1.783510
v -0.031093 0.738769 1.783510
v 0.131756 0.685856 1.783510
v 0.031110 0.547328 1.476900
v -0.069537 0.685856 1.476900
v 0.093313 0.738769 1.476900
v 0.093313 0.567539 1.476900
v -0.069537 0.620452 1.476900
v 0.031110 0.758980 1.476900
v 0.131756 0.620452 1.476900
v -0.031093 0.567538 1.476900
v -0.031093 0.738769 1.476900
v 0.131756 0.685856 1.476900
v 0.116593 0.535497 1.479551
v 0.116593 0.535497 1.780859
v -0.107204 0.608213 1.479551
v -0.107204 0.608213 1.780859
v 0.031110 0.798586 1.479551
v 0.031110 0.798586 1.780859
v 0.169424 0.608213 1.479551
v 0.169424 0.608213 1.780859
v -0.054373 0.535497 1.479551
v -0.054373 0.535497 1.780859
v -0.054373 0.770811 1.479551
v -0.054373 0.770811 1.780859
v 0.169424 0.698095 1.479551
v 0.169424 0.698095 1.780859
v 0.116593 0.770811 1.780859
v -0.107204 0.698095 1.780859
v 0.031110 0.507722 1.780859
v 0.031110 0.507722 1.479551
v -0.107204 0.698095 1.479551
v 0.116593 0.770811 1.479551
v 0.093313 0.567539 2.027274
v -0.069537 0.620452 2.027274
v 0.031110 0.758980 2.027274
v 0.131756 0.620452 2.027274
v -0.031093 0.567538 2.027274
v -0.031093 0.738769 2.027274
v 0.131756 0.685856 2.027274
v 0.031110 0.547328 2.027274
v -0.069537 0.685856 2.027274
v 0.093313 0.738769 2.027274
v 0.031110 0.547328 1.891850
v -0.069537 0.685856 1.891850
v 0.093313 0.738769 1.891850
v 0.093313 0.567538 1.891850
v -0.069537 0.620452 1.891850
v 0.031110 0.758980 1.891850
v 0.131756 0.620452 1.891850
v -0.031093 0.567538 1.891850
v -0.031093 0.738769 1.891850
v 0.131756 0.685856 1.891850
v 0.031110 0.547328 1.375294
v -0.069537 0.685856 1.375295
v 0.093313 0.738769 1.375295
v 0.093313 0.567538 1.375294
v -0.069537 0.620452 1.375294
v 0.031110 0.758980 1.375295
v 0.131756 0.620452 1.375294
v -0.031093 0.567538 1.375294
v -0.031093 0.738769 1.375295
v 0.131756 0.685856 1.375295
v 0.031110 0.547328 1.233582
v -0.069537 0.685856 1.233582
v 0.093313 0.738769 1.233582
v 0.093313 0.567538 1.233582
v -0.069537 0.620452 1.233582
v 0.031110 0.758980 1.233582
v 0.131756 0.620452 1.233582
v -0.031093 0.567538 1.233582
v -0.031093 0.738769 1.233582
v 0.131756 0.685856 1.233582
v 0.108679 0.546388 1.231581
v 0.108679 0.546388 1.377296
v -0.094400 0.612373 1.231581
v -0.094400 0.612373 1.377296
v 0.031110 0.785123 1.231581
v 0.031110 0.785123 1.377296
v 0.156620 0.612373 1.231581
v 0.156620 0.612373 1.377296
v -0.046460 0.546388 1.231581
v -0.046460 0.546388 1.377296
v -0.046460 0.759919 1.231581
v -0.046460 0.759919 1.377296
v 0.156620 0.693934 1.231581
v 0.156620 0.693934 1.377296
v 0.108679 0.759919 1.377296
v -0.094400 0.693934 1.377296
v 0.031110 0.521185 1.377296
v 0.031110 0.521185 1.231581
v -0.094400 0.693934 1.231581
v 0.108679 0.759919 1.231581
v 0.108679 0.360466 1.231581
v 0.108679 0.360466 1.377296
v -0.046460 0.360466 1.231581
v -0.046460 0.360466 1.377296
v 0.031110 0.335262 1.377296
v 0.031110 0.335262 1.231581
v 0.107710 0.547722 1.891829
v 0.107710 0.547722 2.027295
v -0.092833 0.612882 1.891829
v -0.092833 0.612882 2.027295
v 0.031110 0.783475 1.891829
v 0.031110 0.783475 2.027295
v 0.155052 0.612882 1.891829
v 0.155052 0.612882 2.027295
v -0.045491 0.547722 1.891829
v -0.045491 0.547722 2.027295
v -0.045491 0.758586 1.891829
v -0.045491 0.758585 2.027295
v 0.155052 0.693425 1.891829
v 0.155052 0.693425 2.027295
v 0.031110 0.522833 2.027295
v -0.092833 0.693425 2.027295
v 0.107710 0.758585 2.027295
v 0.031110 0.522833 1.891829
v -0.092833 0.693425 1.891829
v 0.107710 0.758586 1.891829
v 0.107710 0.348362 1.891829
v 0.107710 0.348362 2.027295
v -0.045491 0.348362 1.891829
v -0.045491 0.348362 2.027295
v 0.031110 0.323473 2.027295
v 0.031110 0.323473 1.891829
v 0.138453 0.505409 0.337992
v 0.031110 0.470531 0.337992
v 0.204794 0.596720 0.337992
v 0.204794 0.709587 0.337992
v 0.138453 0.800899 0.337992
v 0.031110 0.835776 0.337992
v -0.076233 0.800898 0.337992
v -0.142575 0.709587 0.337992
v -0.142575 0.596720 0.337992
v -0.076233 0.505409 0.337992
v 0.138453 0.505409 0.375788
v 0.031110 0.470531 0.375788
v 0.204794 0.596720 0.375788
v 0.204794 0.709587 0.375788
v 0.138453 0.800899 0.375788
v 0.031110 0.835776 0.375789
v -0.076233 0.800899 0.375788
v -0.142575 0.709587 0.375788
v -0.142575 0.596720 0.375788
v -0.076233 0.505409 0.375788
v 0.031110 0.534987 2.866135
v 0.100566 0.557555 2.866135
v 0.143493 0.616638 2.866135
v 0.143493 0.689669 2.866135
v 0.100566 0.748753 2.866135
v 0.031110 0.771320 2.866135
v -0.038347 0.748753 2.866135
v -0.081273 0.689669 2.866135
v -0.081273 0.616638 2.866135
v -0.038347 0.557555 2.866135
v 0.031110 0.534987 2.830771
v 0.100566 0.557555 2.830771
v 0.143493 0.616638 2.830771
v 0.143493 0.689669 2.830771
v 0.100566 0.748753 2.830771
v 0.031110 0.771320 2.830771
v -0.038347 0.748753 2.830771
v -0.081273 0.689669 2.830771
v -0.081273 0.616638 2.830771
v -0.038347 0.557555 2.830771
v 0.031110 0.500903 2.693805
v 0.120601 0.529980 2.693805
v 0.175909 0.606106 2.693805
v 0.175909 0.700202 2.693805
v 0.120601 0.776328 2.693805
v 0.031110 0.805405 2.693805
v -0.058381 0.776328 2.693805
v -0.113690 0.700202 2.693805
v -0.113690 0.606106 2.693805
v -0.058381 0.529980 2.693805
v 0.239975 0.124435 3.993110
v 0.239975 -0.145006 3.993110
v 0.239975 -0.149717 3.815753
v 0.239975 0.124435 3.816251
v 0.149073 0.215337 3.816415
v 0.149073 0.215337 3.993110
v 0.239975 0.123539 4.174913
v 0.239975 -0.145546 4.174913
v 0.239975 -0.326873 3.993110
v 0.239975 -0.331563 3.816541
v 0.239975 -0.163799 3.633924
v 0.239975 0.097223 3.634397
v 0.149073 0.214446 4.174910
v 0.149073 0.192103 3.637632
v 0.034389 0.215337 3.993110
v 0.034389 0.215337 3.816415
v 0.239975 0.118739 4.664481
v 0.239975 -0.161547 4.664481
v 0.239975 -0.327446 4.174913
v 0.239975 -0.347182 3.634895
v 0.239975 -0.430569 3.993110
v 0.239975 -0.430569 3.817607
v 0.239975 -0.188254 3.456192
v 0.239975 0.053029 3.467237
v 0.034389 0.214446 4.174910
v 0.149073 0.209645 4.664482
v 0.034389 0.192103 3.637632
v -0.080296 0.215337 3.816415
v -0.080296 0.215337 3.993110
v 0.253251 0.138085 4.669035
v 0.253251 -0.157054 4.669035
v 0.239975 -0.343155 4.655555
v 0.239975 -0.434031 4.174913
v 0.239975 -0.370597 3.464717
v 0.239975 -0.482793 3.636355
v 0.149073 -0.521470 3.993110
v 0.149073 -0.521470 3.818580
v 0.149073 0.147087 3.467364
v 0.239975 -0.196300 3.273830
v 0.239975 0.033380 3.284343
v -0.080296 0.214446 4.174910
v 0.034389 0.209645 4.664482
v 0.149296 0.233808 4.669037
v -0.080296 0.192103 3.637632
v 0.034389 0.147087 3.467364
v -0.171198 0.124435 3.993110
v -0.171198 0.124435 3.816251
v 0.253251 -0.348285 4.659636
v 0.253251 0.134966 4.987115
v 0.253251 -0.167450 4.987115
v 0.239975 -0.452295 4.645089
v 0.239975 -0.655316 4.174913
v 0.239975 -0.381911 3.305496
v 0.239975 -0.260534 3.289027
v 0.239975 -0.609569 3.502648
v 0.034389 -0.521470 3.993110
v 0.034389 -0.521470 3.818580
v 0.149073 0.124263 3.288580
v 0.239975 -0.185216 3.205594
v -0.080296 0.209645 4.664482
v -0.171198 0.123539 4.174913
v 0.034389 0.233808 4.669037
v -0.080296 0.147087 3.467364
v 0.034389 0.124263 3.288580
v -0.171198 -0.149717 3.815753
v -0.171198 -0.145006 3.993110
v 0.253251 -0.463209 4.648615
v 0.253251 -0.358492 4.971918
v 0.149296 0.230689 4.987120
v 0.149296 0.134032 5.082834
v 0.149296 -0.170629 5.082834
v 0.239975 -0.688840 4.621837
v 0.239975 -0.707775 3.334157
v 0.209392 -0.370650 3.262421
v 0.149073 -0.584015 3.661714
v 0.149073 -0.731757 3.505895
v 0.149073 -0.648753 4.084011
v 0.034389 -0.648753 4.084011
v -0.080296 -0.521470 3.993110
v -0.080296 -0.521470 3.818580
v 0.034389 -0.584015 3.661714
v 0.149073 0.125845 2.937806
v 0.239975 0.034962 2.933379
v 0.239975 -0.128933 3.036653
v -0.171198 0.118739 4.664481
v -0.080519 0.233808 4.669037
v -0.171198 -0.145546 4.174913
v 0.034389 0.230689 4.987120
v -0.080296 0.124263 3.288580
v -0.171198 0.097223 3.634397
v -0.171198 0.053029 3.467237
v 0.034389 0.125845 2.937806
v -0.171198 -0.163799 3.633924
v -0.171198 -0.331563 3.816541
v -0.171198 -0.326873 3.993110
v 0.253251 -0.712288 4.624131
v 0.253251 -0.475076 4.954096
v 0.149296 -0.360967 5.068370
v 0.034389 0.134032 5.082834
v 0.034389 -0.170629 5.082834
v 0.149073 -0.779363 4.613385
v 0.149073 -0.746454 4.174659
v 0.239975 -0.469850 3.273204
v 0.209392 -0.271448 3.248642
v 0.209392 -0.442523 3.235405
v 0.034389 -0.731757 3.505895
v -0.080296 -0.648753 4.084011
v 0.034389 -0.746454 4.174659
v -0.171198 -0.430569 3.993110
v -0.171198 -0.430569 3.817607
v -0.080296 -0.584015 3.661714
v 0.239975 0.051369 2.752167
v 0.209392 -0.209890 3.178843
v -0.171198 -0.161547 4.664481
v -0.080519 0.230689 4.987120
v -0.171198 -0.327446 4.174913
v -0.080296 0.125845 2.937806
v -0.171198 -0.188254 3.456192
v 0.149073 0.142826 2.757527
v 0.034389 0.142826 2.757527
v -0.171198 -0.347182 3.634895
v 0.253251 -0.734069 4.914505
v 0.149296 -0.479421 5.050262
v -0.080519 0.134032 5.082834
v -0.080519 -0.170629 5.082834
v 0.034389 -0.360967 5.068370
v 0.034389 -0.779363 4.613385
v 0.149073 -0.798128 3.349109
v 0.239975 -0.546948 3.171994
v 0.034389 -0.370650 3.262421
v 0.034389 -0.271448 3.248642
v 0.034389 -0.442523 3.235405
v -0.080296 -0.731757 3.505895
v 0.034389 -0.798128 3.349109
v -0.080296 -0.746454 4.174659
v -0.171198 -0.655316 4.174913
v -0.171198 -0.482793 3.636355
v 0.239975 -0.148430 2.920981
v 0.239975 -0.162751 2.854221
v 0.239975 -0.137445 2.742777
v 0.209392 -0.163890 3.037507
v -0.171198 -0.343155 4.655555
v -0.184474 -0.157054 4.669035
v -0.184474 0.138085 4.669035
v -0.184474 0.134966 4.987115
v -0.171198 -0.434031 4.174913
v -0.080296 0.142826 2.757527
v -0.171198 0.034962 2.933379
v -0.171198 0.033380 3.284343
v -0.171198 -0.196300 3.273830
v -0.171198 -0.370597 3.464717
v 0.149073 0.170026 2.610819
v 0.034389 0.170026 2.610819
v 0.149296 -0.807608 4.615232
v 0.149296 -0.741529 5.010195
v 0.149296 -0.828989 4.900280
v 0.034389 -0.479421 5.050262
v -0.184474 -0.167450 4.987115
v -0.080519 -0.360967 5.068370
v 0.034389 -0.807608 4.615232
v -0.080296 -0.779363 4.613385
v 0.239975 -0.720609 3.029472
v 0.149073 -0.810772 3.048922
v 0.209392 -0.505535 3.150732
v 0.034389 -0.209890 3.178843
v -0.140615 -0.271448 3.248642
v -0.140615 -0.370650 3.262421
v 0.034389 -0.505535 3.150732
v -0.140615 -0.442523 3.235405
v -0.171198 -0.609569 3.502648
v -0.080296 -0.798128 3.349109
v 0.034389 -0.810772 3.048922
v 0.239975 0.079097 2.602611
v 0.209392 -0.179825 2.940735
v 0.239975 -0.225306 2.808340
v 0.239975 -0.090985 2.586576
v 0.034389 -0.163890 3.037507
v -0.171198 -0.452295 4.645089
v -0.184474 -0.348285 4.659636
v -0.080296 0.170026 2.610819
v -0.171198 0.051369 2.752167
v -0.171198 -0.128933 3.036653
v -0.171198 -0.185216 3.205594
v -0.171198 -0.260534 3.289027
v -0.171198 -0.381911 3.305496
v 0.141101 0.190348 2.521441
v 0.034389 0.190348 2.521441
v 0.034389 -0.741529 5.010195
v 0.034389 -0.828989 4.900280
v -0.080519 -0.479421 5.050262
v -0.080519 -0.807608 4.615232
v -0.171198 -0.688840 4.621837
v 0.149073 -0.827939 2.868183
v 0.239975 -0.540932 2.983666
v 0.209392 -0.500618 2.993179
v -0.140615 -0.209890 3.178843
v 0.034389 -0.500618 2.993179
v -0.140615 -0.505535 3.150732
v -0.171198 -0.707775 3.334157
v -0.080296 -0.810772 3.048922
v 0.034389 -0.827939 2.868183
v 0.232341 0.194688 2.430539
v 0.209392 -0.191529 2.884884
v 0.239975 -0.329662 2.751321
v 0.239975 -0.286231 2.605305
v 0.239975 -0.065356 2.406383
v 0.239975 0.100557 2.422024
v 0.034389 -0.179825 2.940735
v -0.140615 -0.163890 3.037507
v -0.184474 -0.463209 4.648615
v -0.184474 -0.358492 4.971918
v -0.072324 0.190348 2.521441
v -0.171198 0.079097 2.602611
v -0.171198 -0.137445 2.742777
v -0.171198 -0.162751 2.854221
v -0.171198 -0.148430 2.920981
v 0.150333 0.202568 2.430540
v -0.080519 -0.741529 5.010195
v -0.080519 -0.828989 4.900280
v -0.184474 -0.475076 4.954096
v -0.184474 -0.712288 4.624131
v 0.239975 -0.739169 2.847103
v 0.209392 -0.429724 2.882930
v 0.034389 -0.429724 2.882930
v -0.140615 -0.500618 2.993179
v -0.171198 -0.469850 3.273204
v -0.171198 -0.720609 3.029472
v -0.080296 -0.827939 2.868183
v 0.034389 -0.851517 2.709267
v 0.149073 -0.851517 2.709267
v 0.034389 -0.191529 2.884884
v 0.239975 -0.338260 2.801480
v 0.209392 -0.242656 2.846500
v 0.239975 -0.762055 2.692860
v 0.239975 -0.063997 2.205518
v 0.239975 0.111201 2.209292
v -0.140615 -0.179825 2.940735
v -0.081556 0.202568 2.430540
v -0.163564 0.194688 2.430539
v -0.171198 -0.090985 2.586576
v -0.171198 -0.225306 2.808340
v 0.034389 0.197812 2.432166
v -0.184474 -0.734069 4.914505
v 0.239975 -0.454190 2.851884
v 0.209392 -0.334974 2.840762
v 0.034389 -0.334974 2.840762
v -0.140615 -0.429724 2.882930
v -0.171198 -0.546948 3.171994
v -0.080296 -0.851517 2.709267
v 0.034389 -0.775457 2.602899
v 0.149073 -0.775457 2.602899
v 0.232341 0.205657 2.211326
v 0.034389 -0.242656 2.846500
v -0.140615 -0.191529 2.884884
v 0.149073 -0.156204 2.398165
v 0.149073 -0.410763 2.529415
v 0.149073 -0.154887 2.203550
v 0.239975 -0.062372 2.023708
v 0.239975 0.116539 2.027561
v -0.171198 0.100557 2.422024
v -0.171198 -0.065356 2.406383
v -0.171198 -0.286231 2.605305
v -0.171198 -0.329662 2.751321
v 0.150333 0.213536 2.211327
v 0.133143 0.380407 2.430652
v -0.140615 -0.334974 2.840762
v -0.171198 -0.540932 2.983666
v -0.171198 -0.739169 2.847103
v -0.171198 -0.762055 2.692860
v -0.080296 -0.775457 2.602899
v 0.034389 -0.410763 2.529415
v 0.232351 0.210861 2.029524
v -0.140615 -0.242656 2.846500
v 0.149073 -0.246220 2.505515
v 0.149073 -0.241543 2.087216
v 0.034389 -0.156204 2.398165
v 0.034389 -0.154887 2.203550
v 0.239975 -0.243831 1.991866
v 0.239975 0.122772 0.953377
v 0.239975 -0.052323 0.930061
v -0.064366 0.380407 2.430652
v -0.081556 0.213536 2.211327
v -0.163564 0.205657 2.211326
v -0.171198 0.111201 2.209292
v -0.171198 -0.063997 2.205518
v -0.171198 -0.338260 2.801480
v 0.034389 0.380407 2.430652
v -0.171198 -0.454190 2.851884
v -0.080296 -0.410763 2.529415
v 0.034389 -0.478763 2.460404
v 0.149073 -0.478763 2.460404
v 0.232351 0.217092 0.980310
v 0.034389 -0.246220 2.505515
v 0.149073 -0.364530 2.499090
v 0.034389 -0.241543 2.087216
v -0.080296 -0.156204 2.398165
v -0.080296 -0.154887 2.203550
v 0.239975 -0.234510 0.941510
v 0.239975 -0.051913 0.616951
v 0.239975 0.122613 0.725619
v -0.163573 0.210861 2.029524
v -0.171198 0.116539 2.027561
v -0.171198 -0.062372 2.023708
v 0.150324 0.218959 2.029524
v 0.133143 0.402929 0.980311
v 0.034389 0.402929 0.980311
v -0.080296 -0.478763 2.460404
v 0.034389 -0.486487 2.311562
v 0.149073 -0.486487 2.311562
v 0.149073 -0.444621 2.449322
v 0.150323 0.225196 0.980311
v 0.034389 -0.364530 2.499090
v -0.080296 -0.246220 2.505515
v 0.239975 -0.330192 1.979414
v -0.080296 -0.241543 2.087216
v 0.034389 -0.334622 2.072806
v 0.149073 -0.334622 2.072806
v 0.239975 -0.320005 0.997330
v 0.239975 -0.056066 -0.714713
v 0.239975 0.121062 -0.716698
v -0.064366 0.402929 0.980311
v -0.081546 0.218959 2.029524
v -0.163574 0.217092 0.980310
v -0.171198 0.122772 0.953377
v -0.171198 -0.052323 0.930061
v -0.171198 -0.243831 1.991866
v 0.110996 0.285487 0.980311
v 0.109281 0.289627 0.980311
v 0.107930 0.290187 0.980310
v -0.080296 -0.486487 2.311562
v -0.080296 -0.364530 2.499090
v -0.080296 -0.444621 2.449322
v 0.034389 -0.486812 2.156900
v 0.149073 -0.486812 2.156900
v 0.149073 -0.450610 2.312716
v 0.034389 -0.444621 2.449322
v 0.141101 0.217438 0.889409
v -0.080296 -0.334622 2.072806
v 0.034389 -0.411054 2.068381
v 0.149073 -0.411054 2.068381
v 0.149073 -0.142938 0.576627
v 0.149073 -0.356182 0.894060
v 0.149073 -0.377200 1.956476
v 0.149073 0.211963 -0.717721
v 0.149073 0.213592 0.798507
v 0.149073 -0.146965 -0.713697
v 0.034389 -0.055922 -0.781576
v -0.036724 0.293910 0.980311
v -0.047062 0.289627 0.980311
v -0.060188 0.257938 0.980310
v -0.081546 0.225196 0.980311
v -0.171198 0.122613 0.725619
v -0.171198 -0.051913 0.616951
v -0.171198 -0.234510 0.941510
v 0.034389 0.320618 0.979558
v 0.135976 0.225160 0.980109
v -0.080296 -0.486812 2.156900
v -0.080296 -0.450610 2.312716
v 0.034389 -0.429922 2.037845
v 0.149073 -0.429922 2.037845
v 0.149073 -0.452902 2.168674
v 0.034389 -0.450610 2.312716
v 0.135489 0.217830 0.894104
v -0.171198 -0.330192 1.979414
v -0.080296 -0.411054 2.068381
v 0.034389 -0.452902 2.168674
v 0.149073 -0.197200 0.740252
v 0.149073 -0.367645 1.057684
v 0.034389 0.122808 -0.783042
v 0.062052 0.144313 -0.767286
v 0.087649 0.154916 -0.755627
v 0.093329 0.168627 -0.749472
v 0.133330 0.213592 0.798507
v 0.110859 0.211963 -0.717721
v 0.110202 0.213550 0.759803
v 0.133213 0.213589 0.795628
v 0.034389 -0.142938 0.576627
v 0.034389 -0.146965 -0.713697
v 0.031109 0.321979 0.979617
v -0.073754 0.225176 0.980201
v -0.073282 0.217434 0.890363
v -0.073295 0.218255 0.898982
v -0.073692 0.216126 0.887142
v -0.171198 0.121062 -0.716698
v -0.171198 -0.056066 -0.714713
v -0.171198 -0.320005 0.997330
v -0.080296 -0.429922 2.037845
v -0.080296 -0.452902 2.168674
v 0.034389 -0.377200 1.956476
v 0.135460 0.217438 0.889409
v -0.080296 -0.377200 1.956476
v 0.034389 -0.197200 0.740252
v 0.034389 -0.367645 1.057684
v 0.034389 -0.356182 0.894060
v 0.111069 0.211456 -0.718092
v 0.034389 0.132854 -0.775681
v -0.080296 -0.142938 0.576627
v -0.080296 -0.146965 -0.713697
v -0.073048 0.217089 0.881151
v -0.080296 0.213592 0.798507
v -0.080296 0.211963 -0.717721
v -0.080296 -0.356182 0.894060
v -0.080296 -0.197200 0.740252
v -0.080296 -0.367645 1.057684
v 0.014206 0.138498 -0.771547
v 0.031109 0.131496 -0.776677
v -0.034226 0.176148 -0.743962
v -0.025431 0.154916 -0.753492
v -0.071112 0.213592 0.798507
v -0.048641 0.211963 -0.717721
v -0.070995 0.213589 0.795628
v -0.047983 0.213550 0.759803
v -0.048851 0.211456 -0.718092
v 0.092594 0.211963 -0.717721
v 0.034389 0.211963 -0.717721
v 0.034389 0.212976 0.225277
v 0.089136 0.212976 0.225277
v 0.092176 0.212976 0.225277
v 0.092804 0.211456 -0.718092
v 0.074735 0.167834 -0.750053
v 0.034389 0.151122 -0.762298
v -0.030367 0.211963 -0.717721
v -0.029947 0.212976 0.225277
v -0.012508 0.212976 0.225277
v 0.031113 0.149765 -0.763292
v -0.012508 0.167834 -0.750053
v -0.030577 0.211456 -0.718092
v 0.031109 0.131496 -4.060572
v 0.087649 0.154916 -4.060573
v -0.025431 0.154916 -4.060573
v 0.031109 0.077349 -4.060572
v 0.125937 0.116628 -4.060572
v 0.111069 0.211456 -4.060573
v -0.048851 0.211456 -4.060573
v -0.063719 0.116628 -4.060572
v 0.165216 0.211456 -4.060573
v 0.031109 0.077349 -4.344854
v 0.125937 0.116628 -4.344855
v 0.087649 0.267996 -4.060572
v 0.087649 0.267996 0.759803
v -0.025431 0.267996 0.759803
v -0.025431 0.267996 -4.060572
v -0.102998 0.211456 -4.060573
v -0.063719 0.116628 -4.344855
v 0.125937 0.306284 -4.060572
v 0.165216 0.211456 -4.344854
v 0.031109 0.130944 -4.344854
v 0.088039 0.154525 -4.344853
v 0.031109 0.291416 -4.060572
v 0.031109 0.291416 0.759803
v 0.103932 0.284279 0.795627
v -0.041714 0.284279 0.795627
v -0.063719 0.306284 -4.060572
v -0.102998 0.211456 -4.344854
v -0.025821 0.154525 -4.344853
v 0.031109 0.345562 -4.060572
v 0.125937 0.306283 -4.344854
v 0.111621 0.211456 -4.344854
v 0.031110 0.130944 -4.704440
v 0.088040 0.154525 -4.704440
v 0.031109 0.314444 0.795628
v -0.063719 0.306283 -4.344854
v -0.049402 0.211456 -4.344854
v -0.025821 0.154525 -4.704440
v 0.031109 0.345562 -4.344855
v 0.088039 0.268386 -4.344854
v 0.111621 0.211456 -4.704439
v 0.031110 0.149765 -4.704438
v 0.074732 0.167834 -4.704441
v -0.025821 0.268386 -4.344854
v -0.049402 0.211456 -4.704439
v -0.012512 0.167834 -4.704441
v 0.031109 0.291967 -4.344854
v 0.088040 0.268386 -4.704440
v 0.092800 0.211456 -4.704439
v -0.025821 0.268386 -4.704440
v -0.030581 0.211456 -4.704439
v 0.031110 0.291967 -4.704439
v 0.074732 0.255078 -4.704441
v -0.012512 0.255078 -4.704441
v 0.031110 0.273146 -4.704439
v 0.074736 0.255078 0.225277
v -0.012508 0.255078 0.225277
v 0.031114 0.273147 0.225277
v -0.020919 -0.235599 2.378302
v -0.020919 -0.107840 2.379190
v -0.020919 -0.220523 2.324887
v -0.020919 -0.107840 2.323998
v 0.052297 -0.235599 2.378302
v 0.052297 -0.107840 2.379190
v 0.052297 -0.220523 2.324887
v 0.052297 -0.107840 2.323998
v -0.012115 -0.300374 2.316621
v -0.012115 -0.330021 2.347511
v 0.043492 -0.300374 2.316621
v 0.043492 -0.330021 2.347511
v 0.003564 -0.374778 2.242546
v 0.003564 -0.392072 2.260371
v 0.046100 -0.374778 2.242546
v 0.046100 -0.392072 2.260371
v -0.034660 -0.488762 1.870547
v -0.064617 -0.481399 1.802711
v -0.034660 -0.549317 1.796156
v -0.034660 -0.206662 1.897795
v -0.034660 -0.131392 1.836524
v -0.064617 -0.199309 1.829959
v -0.034660 -0.424893 1.281707
v -0.034660 -0.500163 1.342978
v -0.064617 -0.432246 1.349543
v -0.034660 -0.082239 1.383346
v -0.034660 -0.142794 1.308955
v -0.064617 -0.150157 1.376790
v 0.089774 -0.488762 1.870547
v 0.089774 -0.549317 1.796156
v 0.119730 -0.481399 1.802711
v 0.089774 -0.131392 1.836524
v 0.089774 -0.206662 1.897795
v 0.119730 -0.199309 1.829959
v 0.119730 -0.432246 1.349543
v 0.089774 -0.500163 1.342978
v 0.089774 -0.424893 1.281707
v 0.089774 -0.082239 1.383346
v 0.119730 -0.150157 1.376790
v 0.089774 -0.142794 1.308955
v 0.068578 0.265594 2.339561
v 0.068578 0.265594 2.285825
v 0.081821 0.311923 2.339561
v 0.081821 0.311923 2.285825
v 0.242235 0.224309 2.295690
v 0.242538 0.224417 2.328841
v 0.249852 0.249979 2.295498
v 0.250155 0.250087 2.328650
v 0.255650 0.200155 2.286524
v 0.256171 0.200487 2.337797
v 0.274564 0.262528 2.286228
v 0.275085 0.262859 2.337501
v 0.283042 0.202280 2.286324
v 0.283520 0.202475 2.337596
v 0.296007 0.245743 2.286028
v 0.296484 0.245937 2.337301
v 0.300239 0.208481 2.295516
v 0.300670 0.208526 2.328068
v 0.306733 0.231375 2.295329
v 0.307163 0.231420 2.327880
v 0.075199 0.288759 2.285825
v 0.075199 0.288759 2.339561
v 0.246043 0.237144 2.289679
v 0.246347 0.237252 2.334660
v 0.265107 0.231342 2.276860
v 0.265628 0.231673 2.347990
v 0.289524 0.224012 2.276587
v 0.290002 0.224206 2.347716
v 0.303486 0.219928 2.290485
v 0.303917 0.219973 2.332911
v 0.140108 0.245560 2.338892
v 0.152743 0.289132 2.338769
v 0.152548 0.289062 2.286058
v 0.139913 0.245490 2.286181
v 0.146230 0.267276 2.282314
v 0.146425 0.267346 2.342636
v 0.146699 0.238975 2.099161
v 0.140406 0.314308 2.099174
v 0.140406 0.319061 1.657537
v 0.146695 0.240194 1.657537
v 0.104520 0.310860 2.099124
v 0.104520 0.315614 1.657486
v 0.110809 0.236746 1.657486
v 0.110812 0.235527 2.099110
v 0.091196 0.301865 2.078650
v 0.091196 0.305652 1.677875
v 0.096206 0.240465 1.677875
v 0.096208 0.239495 2.078639
v 0.035223 0.309241 1.851360
v 0.032516 0.311334 2.096038
v 0.010587 0.299033 1.851360
v 0.007194 0.300842 2.096038
v 0.000383 0.274390 1.851360
v -0.003295 0.275511 2.096038
v 0.010587 0.249747 1.851360
v 0.007194 0.250181 2.096038
v 0.035223 0.239539 1.851360
v 0.032516 0.239689 2.096038
v 0.059858 0.249747 1.851360
v 0.057838 0.250181 2.096038
v 0.070062 0.274390 1.851360
v 0.068327 0.275511 2.096038
v 0.059858 0.299033 1.851360
v 0.057838 0.300842 2.096038
v 0.035223 0.300671 1.830377
v 0.016646 0.292973 1.830377
v 0.008951 0.274390 1.830377
v 0.016646 0.255807 1.830377
v 0.035223 0.248109 1.830377
v 0.053800 0.255807 1.830377
v 0.061495 0.274390 1.830377
v 0.053800 0.292973 1.830377
v 0.035223 0.300671 1.765164
v 0.016646 0.292973 1.765164
v 0.008951 0.274390 1.765164
v 0.016646 0.255807 1.765164
v 0.035223 0.248109 1.765164
v 0.053800 0.255807 1.765164
v 0.061495 0.274390 1.765164
v 0.053800 0.292973 1.765164
v 0.035223 0.294976 1.765164
v 0.020671 0.288947 1.765164
v 0.014643 0.274390 1.765164
v 0.020671 0.259833 1.765164
v 0.035223 0.253803 1.765164
v 0.049775 0.259833 1.765164
v 0.055802 0.274390 1.765164
v 0.049775 0.288947 1.765164
v 0.035223 0.290324 1.712289
v 0.023959 0.285657 1.712289
v 0.019294 0.274390 1.712289
v 0.023959 0.263123 1.712289
v 0.035223 0.258456 1.712289
v 0.046486 0.263123 1.712289
v 0.051151 0.274390 1.712289
v 0.046486 0.285657 1.712289
v 0.035223 0.274390 1.662770
vn -0.202400 -0.979300 0.003200
vn -0.961500 0.274800 0.000000
vn -0.454400 0.890800 -0.000200
vn 0.372400 0.928100 -0.004100
vn 0.166900 0.225100 0.959900
vn 0.009900 -0.277000 -0.960800
vn -0.028600 -0.350700 0.936000
vn -0.871500 -0.490300 0.011100
vn -0.616800 -0.098200 0.781000
vn -0.460400 0.410300 -0.787200
vn 0.803400 0.595400 -0.010400
vn 0.144100 0.292600 -0.945300
vn 0.618200 0.785900 -0.010100
vn 0.074900 -0.997200 0.004400
vn 0.962000 -0.272900 -0.010700
vn 0.336000 -0.941900 -0.000900
vn 0.560800 -0.471400 0.680700
vn 0.716300 0.088000 -0.692200
vn 0.546200 -0.469100 -0.694000
vn 0.735000 0.096900 0.671100
vn -0.042000 -0.332700 -0.942100
vn -0.615600 -0.093100 -0.782500
vn -0.459800 0.429800 0.777100
vn 0.177400 0.314900 0.932400
vn 0.159100 0.219400 -0.962600
vn 0.017200 -0.270900 0.962500
vn -0.037800 -0.072100 0.996700
vn 0.002700 0.082200 -0.996600
vn -0.043500 -0.073200 -0.996400
vn 0.009800 0.082900 0.996500
vn 0.306700 0.951800 -0.001200
vn -0.270500 -0.962700 0.001100
vn -0.382800 0.923800 -0.012100
vn -0.923800 0.382500 -0.015600
vn -0.923900 -0.382500 -0.012100
vn -0.382800 -0.923800 -0.003700
vn 0.382800 -0.923800 0.004800
vn 0.923900 -0.382600 0.008300
vn -0.000000 0.000000 1.000000
vn 0.382800 0.923800 -0.003700
vn 0.923900 0.382600 0.004800
vn -0.864500 -0.358000 -0.353000
vn 0.923900 -0.382600 0.000000
vn 0.864500 -0.358000 -0.353000
vn -0.358100 -0.864300 -0.353000
vn 0.864500 0.358000 -0.353000
vn -0.864500 0.358000 -0.353000
vn 0.358100 -0.864300 -0.353000
vn 0.358100 0.864300 -0.353000
vn -0.358100 0.864300 -0.353000
vn 0.000000 0.000000 -1.000000
vn -0.382800 -0.923800 0.000000
vn -0.923900 0.382600 0.000000
vn 0.923900 0.382600 0.000000
vn 0.382800 -0.923800 0.000000
vn -0.923900 -0.382600 0.000000
vn -0.382800 0.923800 0.000000
vn 0.382800 0.923800 0.000000
vn 0.920900 0.381300 -0.081000
vn 0.381500 -0.920800 -0.081000
vn -0.920900 -0.381300 -0.081000
vn -0.381500 0.920800 -0.081000
vn 0.381500 0.920800 -0.081000
vn 0.920900 -0.381300 -0.081000
vn -0.381500 -0.920800 -0.081000
vn -0.920900 0.381300 -0.081000
vn -0.885600 0.366700 -0.284900
vn 0.885600 0.366700 -0.284900
vn 0.366900 -0.885500 -0.284900
vn -0.885600 -0.366700 -0.284900
vn -0.366900 0.885500 -0.284900
vn 0.366900 0.885500 -0.284900
vn 0.885600 -0.366700 -0.284900
vn -0.366900 -0.885500 -0.284900
vn -1.000000 0.000000 0.000000
vn 0.000000 -0.007900 -1.000000
vn 1.000000 0.000000 0.000000
vn 0.000000 -0.007000 1.000000
vn 0.000000 0.103000 -0.994700
vn 0.000000 1.000000 0.000000
vn 0.000000 -0.814600 0.580100
vn 0.000000 -0.310000 0.950700
vn 0.994800 -0.089800 -0.047700
vn -0.994800 -0.089800 -0.047700
vn 0.000000 -0.717700 -0.696300
vn 0.000000 0.705500 -0.708700
vn 0.999700 0.017900 0.017200
vn -0.989000 -0.106300 -0.102400
vn 0.382700 -0.923900 0.000000
vn -0.382700 -0.923900 0.000000
vn 0.923900 -0.382700 0.000000
vn -0.923900 -0.382700 0.000000
vn 0.923900 0.382700 -0.000000
vn -0.923900 0.382700 -0.000000
vn 0.382700 0.923900 -0.000000
vn 0.794400 0.329000 -0.510600
vn -0.794400 0.329000 -0.510600
vn -0.382700 0.923900 -0.000000
vn 0.329000 0.794400 -0.510600
vn 0.923200 0.382400 -0.037800
vn -0.923200 0.382400 -0.037800
vn -0.329000 0.794400 -0.510600
vn 0.382400 0.923200 -0.037800
vn -0.382400 0.923200 -0.037800
vn 0.309000 -0.951100 0.000000
vn 0.809000 -0.587800 0.000000
vn 0.809000 0.587800 0.000000
vn 0.309000 0.951100 0.000000
vn -0.309000 0.951100 0.000000
vn -0.809000 0.587800 0.000000
vn -0.980300 0.000000 -0.197500
vn -0.309000 -0.951100 0.000000
vn -0.809000 -0.587800 0.000000
vn -0.793100 0.576200 -0.197500
vn -0.302900 0.932300 -0.197500
vn 0.302900 0.932300 -0.197500
vn 0.793100 0.576200 -0.197500
vn 0.302900 -0.932300 -0.197500
vn 0.980300 0.000000 -0.197500
vn 0.793100 -0.576200 -0.197500
vn -0.302900 -0.932300 -0.197500
vn -0.793100 -0.576200 -0.197500
vn -0.973000 0.000000 0.231000
vn 0.300700 0.925300 0.231000
vn 0.787100 -0.571900 0.231000
vn -0.787100 -0.571900 0.231000
vn -0.300700 0.925300 0.231000
vn 0.973000 0.000000 0.231000
vn -0.300700 -0.925300 0.231000
vn -0.787100 0.571900 0.231000
vn 0.787100 0.571900 0.231000
vn 0.300700 -0.925300 0.231000
vn 0.707100 0.707100 -0.000000
vn 0.707100 0.707100 0.003500
vn 0.710400 0.697000 -0.097500
vn 0.000000 1.000000 0.004900
vn 0.707100 0.707100 0.006900
vn 0.000000 0.991700 -0.128900
vn 0.707100 -0.707100 0.000000
vn 0.707100 0.683600 -0.180700
vn 0.000000 1.000000 0.009800
vn 0.000000 0.966800 -0.255600
vn -0.707100 0.707100 -0.000000
vn 0.723200 -0.654000 0.222000
vn 0.561900 -0.506600 -0.653900
vn 0.000000 -1.000000 0.000000
vn 0.709800 0.699600 -0.082200
vn -0.707100 0.707100 0.003500
vn -0.710400 0.697000 -0.097500
vn 0.000000 0.991900 -0.126600
vn 0.803800 -0.080800 -0.589400
vn 0.707100 -0.513100 0.486500
vn 0.000000 -0.581200 -0.813800
vn 0.000000 -0.928900 0.370400
vn 0.707100 0.707100 0.003200
vn -0.707100 0.707100 0.006900
vn -0.707100 0.683600 -0.180700
vn 0.000000 1.000000 0.004500
vn 0.707100 -0.705100 -0.052900
vn 0.736400 -0.603700 0.305500
vn 0.824900 0.196700 -0.530000
vn 0.758800 -0.485700 -0.433900
vn 0.000000 -0.725700 0.688100
vn 0.564500 -0.561400 -0.605100
vn 0.000000 -0.680200 -0.733100
vn -0.707100 -0.707100 0.000000
vn 0.708400 0.702800 0.064900
vn 0.726900 -0.652200 -0.215000
vn -0.709800 0.699600 -0.082200
vn 0.000000 0.995600 0.093800
vn 0.000000 -0.997200 -0.074800
vn 0.000000 -0.137600 -0.990500
vn 0.000000 0.351800 -0.936100
vn 0.000000 -0.920900 0.389800
vn -0.562000 -0.506600 -0.653900
vn -0.723200 -0.654000 0.222000
vn -0.707100 0.707100 0.003200
vn 0.000000 0.983200 0.182300
vn 0.707100 -0.706500 0.029800
vn 0.828400 0.447400 -0.337200
vn 0.000000 -0.750000 -0.661400
vn 0.000000 0.802200 -0.597000
vn -0.707100 -0.513100 0.486500
vn 0.000000 -0.999100 0.042100
vn -0.564500 -0.561400 -0.605100
vn 0.707100 0.695300 0.128900
vn 0.749900 -0.647200 0.137400
vn 0.747500 -0.655200 0.109300
vn 0.000000 -0.950900 -0.309500
vn -0.708400 0.702800 0.064900
vn 0.000000 0.975100 0.221700
vn -0.707100 -0.705100 -0.052900
vn 0.707600 -0.703200 0.069200
vn 0.799100 0.600800 0.019000
vn -0.803800 -0.080800 -0.589400
vn 0.000000 0.999500 0.031200
vn -0.824900 0.196700 -0.530000
vn -0.736400 -0.603700 0.305500
vn 0.000000 -0.995500 0.094600
vn 0.552600 0.752500 0.358200
vn 0.804200 -0.353900 0.477500
vn 0.000000 -0.986700 0.162500
vn -0.707100 0.695300 0.128900
vn -0.020400 0.994000 0.107500
vn -0.758800 -0.485700 -0.433900
vn 0.000000 0.841100 0.540900
vn -0.828400 0.447400 -0.337200
vn -0.707100 -0.706500 0.029800
vn 0.000000 -0.989200 0.146800
vn 0.996800 0.080000 0.009500
vn 0.000000 -0.978700 0.205100
vn -0.726900 -0.652200 -0.215000
vn -0.552600 0.752500 0.358200
vn 0.094700 0.985300 0.142100
vn 0.707100 -0.699400 0.103800
vn 0.000000 0.406600 0.913600
vn 0.000000 -0.813400 -0.581700
vn 0.996700 0.080500 0.004000
vn 0.000000 -0.600400 0.799700
vn 0.707100 -0.707100 -0.004800
vn -0.747500 -0.655200 0.109300
vn 0.020400 0.994000 0.107500
vn -0.094700 0.985300 0.142100
vn -0.996800 0.080000 0.009500
vn -0.804200 -0.353900 0.477500
vn -0.749900 -0.647200 0.137400
vn 0.095500 0.994200 0.049700
vn 0.571000 -0.667800 -0.477500
vn 0.780700 0.523600 0.341000
vn 0.777200 0.253100 0.576100
vn 0.000000 -0.062000 0.998100
vn -0.780700 0.523600 0.341000
vn -0.799200 0.600800 0.019000
vn -0.707600 -0.703200 0.069200
vn -0.707100 -0.699400 0.103800
vn 0.000000 -0.197500 -0.980300
vn 0.996800 0.080500 0.002400
vn 0.787500 -0.037800 0.615100
vn 0.526600 -0.596600 -0.605600
vn 0.719600 -0.125700 -0.682900
vn 0.574500 -0.636800 0.514300
vn 0.000000 -1.000000 -0.006800
vn -0.095500 0.994200 0.049700
vn -0.996700 0.080500 0.004000
vn 0.096900 0.994900 0.029100
vn -0.777200 0.253100 0.576100
vn -0.571000 -0.667800 -0.477500
vn 0.000000 -0.712300 0.701900
vn 0.996800 0.080500 0.000500
vn 0.000000 -0.766300 -0.642500
vn 0.000000 -0.802000 0.597400
vn -0.096900 0.994900 0.029100
vn -0.996800 0.080500 0.002400
vn -0.707100 -0.707100 -0.004800
vn -0.526600 -0.596600 -0.605600
vn -0.719600 -0.125700 -0.682900
vn -0.787500 -0.037800 0.615100
vn 0.000000 -0.998700 0.051800
vn 0.996700 0.080600 -0.000100
vn 0.098300 0.995100 0.005900
vn 0.000000 0.054200 -0.998500
vn 0.717000 -0.103200 0.689400
vn 0.000000 -0.153000 0.988200
vn -0.996800 0.080500 0.000500
vn -0.574500 -0.636800 0.514300
vn 0.000000 -1.000000 0.002100
vn 0.000000 0.527800 -0.849400
vn 0.454400 0.862000 -0.224700
vn 0.097900 0.990700 -0.094500
vn 0.000000 -0.057800 0.998300
vn 0.707100 0.707100 -0.000800
vn 0.707100 -0.707100 0.002200
vn -0.098300 0.995100 0.005900
vn -0.996700 0.080600 -0.000100
vn 0.000000 -0.902300 -0.431100
vn 0.000000 0.999000 -0.043800
vn -0.001300 0.996400 -0.084900
vn 0.370500 -0.872200 0.319200
vn 0.000000 0.922900 0.385100
vn 0.645800 -0.686900 -0.333300
vn 0.430100 -0.900600 -0.063100
vn 0.785100 -0.403200 -0.470200
vn 0.460200 -0.887700 -0.009300
vn 0.296500 0.286200 -0.911100
vn -0.000000 1.000000 -0.001100
vn 0.294400 -0.304500 -0.905900
vn 0.000000 -1.000000 0.003100
vn 0.308100 -0.009200 -0.951300
vn -0.097900 0.990700 -0.094500
vn -0.322800 0.890500 -0.320700
vn -0.717000 -0.103200 0.689400
vn 0.000000 -0.839200 -0.543800
vn 0.000000 0.999900 -0.015900
vn 0.000000 0.999100 -0.042300
vn 0.000000 0.996500 -0.083300
vn -0.370500 -0.872200 0.319200
vn -0.000000 -0.949200 -0.314800
vn -0.000000 -0.997600 -0.069900
vn -0.000000 -0.695300 -0.718700
vn 0.000000 -0.999900 -0.010600
vn -0.000000 0.591000 -0.806700
vn 0.000000 -0.597700 -0.801700
vn -0.308100 -0.009200 -0.951300
vn 0.001300 0.996400 -0.084900
vn -0.720400 0.692700 0.033900
vn -0.707100 0.707100 -0.000800
vn -0.707100 -0.707100 0.002200
vn -0.645800 -0.686900 -0.333300
vn -0.785100 -0.403200 -0.470200
vn -0.460200 -0.887700 -0.009300
vn -0.296500 0.286200 -0.911100
vn -0.294400 -0.304500 -0.905900
vn -0.430100 -0.900600 -0.063100
vn 0.007500 0.004200 1.000000
vn -0.007500 0.004200 1.000000
vn 0.995800 0.091100 0.002000
vn -0.995100 0.099100 0.001500
vn 0.000000 0.999900 0.015500
vn 0.014000 0.009100 -0.999900
vn -0.014000 0.009100 -0.999900
vn 0.995000 0.099700 0.001400
vn 0.992800 0.120000 0.001600
vn 0.056800 0.041300 0.997500
vn -0.021700 -0.066800 -0.997500
vn 0.021700 0.066800 0.997500
vn 0.021700 -0.066800 -0.997500
vn -0.056800 0.041300 -0.997500
vn 0.056800 -0.041300 0.997500
vn -0.070200 0.000000 -0.997500
vn 0.056800 0.041300 -0.997500
vn -0.056800 -0.041300 0.997500
vn 0.021700 0.066800 -0.997500
vn -0.070200 0.000000 0.997500
vn 0.070200 0.000000 -0.997500
vn -0.056800 0.041300 0.997500
vn 0.021700 -0.066800 0.997500
vn -0.021700 0.066800 -0.997500
vn -0.021700 -0.066800 0.997500
vn -0.056800 -0.041300 -0.997500
vn 0.070200 0.000000 0.997500
vn 0.056800 -0.041300 -0.997500
vn -0.021700 0.066800 0.997500
vn -0.000300 -0.000900 1.000000
vn 0.000700 0.000500 -1.000000
vn -0.000700 -0.000500 1.000000
vn 0.000900 0.000000 1.000000
vn -0.000700 0.000500 -1.000000
vn 0.000700 -0.000500 1.000000
vn -0.000300 0.000900 1.000000
vn -0.000300 -0.000900 -1.000000
vn 0.000300 0.000900 1.000000
vn -0.000700 -0.000500 -1.000000
vn -0.064900 0.047200 0.996800
vn 0.080200 0.000000 -0.996800
vn -0.064900 -0.047200 -0.996800
vn 0.064900 0.047200 0.996800
vn -0.024800 -0.076300 -0.996800
vn 0.024800 -0.076300 0.996800
vn -0.064900 0.047200 -0.996800
vn -0.080200 -0.000000 0.996800
vn 0.064900 0.047200 -0.996800
vn 0.024800 0.076300 0.996800
vn 0.064900 -0.047200 -0.996800
vn -0.024800 0.076300 -0.996800
vn -0.024800 -0.076300 0.996800
vn 0.024800 0.076300 -0.996800
vn -0.064900 -0.047200 0.996800
vn 0.080200 -0.000000 0.996800
vn -0.080200 0.000000 -0.996800
vn 0.064900 -0.047200 0.996800
vn -0.024800 0.076300 0.996800
vn 0.024800 -0.076300 -0.996800
vn 0.000300 -0.000900 -1.000000
vn -0.000700 0.000500 1.000000
vn -0.000900 0.000000 -1.000000
vn 0.000700 0.000500 1.000000
vn 0.000300 0.000900 -1.000000
vn 0.000300 -0.000900 1.000000
vn -0.000300 0.000900 -1.000000
vn 0.000700 -0.000500 -1.000000
vn -0.000900 0.000000 1.000000
vn 0.000900 0.000000 -1.000000
vn 0.324500 0.000000 -0.945900
vn 0.150900 0.157500 -0.975900
vn 0.309900 0.046700 -0.949600
vn 0.000000 0.185200 -0.982700
vn 0.324300 0.090300 -0.941600
vn 0.677400 0.735600 0.007200
vn 0.677400 0.000000 0.735700
vn 0.325900 0.092500 -0.940900
vn 0.678500 -0.057000 0.732400
vn 0.543800 0.590500 0.596300
vn -0.150900 0.157500 -0.975900
vn 0.000000 0.703600 0.710600
vn 0.131200 -0.045100 -0.990300
vn 0.677400 -0.111200 0.727200
vn 0.000000 -0.075800 0.997100
vn -0.324500 0.000000 -0.945900
vn -0.677400 0.735600 0.007200
vn 0.677400 -0.733600 -0.055000
vn 0.000000 -0.151100 0.988500
vn -0.677400 0.000000 0.735600
vn 0.000000 -0.065200 -0.997900
vn -0.309900 0.046700 -0.949600
vn -0.543800 0.590500 0.596300
vn 0.532600 -0.662300 0.527000
vn -0.678500 -0.057000 0.732400
vn -0.324300 0.090300 -0.941600
vn 0.000000 -0.782500 0.622600
vn -0.677400 -0.111200 0.727200
vn -0.131200 -0.045100 -0.990300
vn -0.325900 0.092500 -0.940900
vn -0.677400 -0.733600 -0.055000
vn -0.532600 -0.662300 0.527000
vn 0.001400 0.000300 -1.000000
vn 0.254500 0.967100 0.002500
vn 0.095600 -0.995400 -0.010700
vn -0.095600 0.995400 0.002700
vn -0.001400 -0.000100 1.000000
vn 0.996900 0.078300 0.000500
vn 0.818800 0.064200 0.570500
vn 0.820400 0.067400 -0.567800
vn 0.579700 -0.814800 -0.008300
vn 0.000000 -0.994200 -0.107800
vn 0.000000 0.994200 0.107800
vn 0.000000 -0.096100 0.995400
vn 0.000000 0.096100 -0.995400
vn -0.851000 -0.407300 0.331600
vn -0.848200 0.334400 0.410800
vn -0.848200 -0.334400 -0.410800
vn -0.851000 0.407300 -0.331600
vn 0.851000 -0.407300 0.331600
vn 0.848200 0.334400 0.410800
vn 0.848200 -0.334400 -0.410800
vn 0.851000 0.407300 -0.331600
vn -0.915600 -0.038700 0.400200
vn -0.915600 0.399700 0.043400
vn -0.915600 0.038700 -0.400200
vn -0.915600 -0.399700 -0.043400
vn 0.000000 0.775500 -0.631300
vn 0.915600 0.038700 -0.400200
vn 0.000000 -0.631300 -0.775500
vn 0.915600 0.399700 0.043400
vn 0.915600 -0.038700 0.400200
vn 0.915600 -0.399700 -0.043400
vn 0.000000 0.631300 0.775500
vn 0.000000 -0.775500 0.631300
usemtl Metal
s off
f 800/1/1 771/1/1 772/1/1 797/1/1
f 788/1/2 787/1/2 768/1/2 767/1/2
f 773/1/3 774/1/3 778/1/3 777/1/3
f 798/1/4 774/1/4 773/1/4 799/1/4
f 802/1/5 790/1/5 774/1/5 798/1/5
f 801/1/6 789/1/6 771/1/6 800/1/6
f 792/1/7 776/1/7 780/1/7 794/1/7
f 772/1/8 771/1/8 775/1/8 776/1/8
f 790/1/9 772/1/9 776/1/9 792/1/9
f 789/1/10 773/1/10 777/1/10 791/1/10
f 781/1/11 782/1/11 786/1/11 785/1/11
f 791/1/12 777/1/12 781/1/12 793/1/12
f 777/1/13 778/1/13 782/1/13 781/1/13
f 776/1/14 775/1/14 779/1/14 780/1/14
f 796/1/15 795/1/15 785/1/15 786/1/15
f 780/1/16 779/1/16 783/1/16 784/1/16
f 794/1/17 780/1/17 784/1/17 796/1/17
f 793/1/18 781/1/18 785/1/18 795/1/18
f 779/1/19 793/1/19 795/1/19 783/1/19
f 782/1/20 794/1/20 796/1/20 786/1/20
f 784/1/15 783/1/15 795/1/15 796/1/15
f 775/1/21 791/1/21 793/1/21 779/1/21
f 771/1/22 789/1/22 791/1/22 775/1/22
f 774/1/23 790/1/23 792/1/23 778/1/23
f 778/1/24 792/1/24 794/1/24 782/1/24
f 799/1/25 773/1/25 789/1/25 801/1/25
f 797/1/26 772/1/26 790/1/26 802/1/26
f 769/1/2 770/1/2 787/1/2 788/1/2
f 767/1/27 797/1/27 802/1/27 788/1/27
f 770/1/28 799/1/28 801/1/28 787/1/28
f 787/1/29 801/1/29 800/1/29 768/1/29
f 788/1/30 802/1/30 798/1/30 769/1/30
f 769/1/31 798/1/31 799/1/31 770/1/31
f 768/1/32 800/1/32 797/1/32 767/1/32
usemtl BulletYellow
f 815/2/33 817/2/33 818/2/33 816/2/33
f 817/2/34 819/2/34 820/2/34 818/2/34
f 819/2/35 821/2/35 822/2/35 820/2/35
f 821/2/36 823/2/36 824/2/36 822/2/36
f 823/2/37 825/2/37 826/2/37 824/2/37
f 825/2/38 827/2/38 828/2/38 826/2/38
f 818/2/39 820/2/39 822/2/39 824/2/39 826/2/39 828/2/39 830/2/39 816/2/39
f 829/2/40 815/2/40 816/2/40 830/2/40
f 827/2/41 829/2/41 830/2/41 828/2/41
f 819/2/42 833/2/42 834/2/42 821/2/42
f 836/2/43 844/2/43 845/2/43 837/2/43
f 825/2/44 836/2/44 837/2/44 827/2/44
f 821/2/45 834/2/45 835/2/45 823/2/45
f 827/2/46 837/2/46 838/2/46 829/2/46
f 817/2/47 832/2/47 833/2/47 819/2/47
f 823/2/48 835/2/48 836/2/48 825/2/48
f 829/2/49 838/2/49 831/2/49 815/2/49
f 815/2/50 831/2/50 832/2/50 817/2/50
f 839/2/51 847/2/51 848/2/51 840/2/51
f 834/2/52 842/2/52 843/2/52 835/2/52
f 832/2/53 840/2/53 841/2/53 833/2/53
f 837/2/54 845/2/54 846/2/54 838/2/54
f 835/2/55 843/2/55 844/2/55 836/2/55
f 833/2/56 841/2/56 842/2/56 834/2/56
f 831/2/57 839/2/57 840/2/57 832/2/57
f 838/2/58 846/2/58 839/2/58 831/2/58
f 846/2/51 854/2/51 847/2/51 839/2/51
f 844/2/51 852/2/51 853/2/51 845/2/51
f 842/2/51 850/2/51 851/2/51 843/2/51
f 840/2/51 848/2/51 849/2/51 841/2/51
f 845/2/51 853/2/51 854/2/51 846/2/51
f 843/2/51 851/2/51 852/2/51 844/2/51
f 841/2/51 849/2/51 850/2/51 842/2/51
usemtl BulletOrange
f 853/3/59 861/3/59 862/3/59 854/3/59
f 851/3/60 859/3/60 860/3/60 852/3/60
f 849/3/61 857/3/61 858/3/61 850/3/61
f 847/3/62 855/3/62 856/3/62 848/3/62
f 854/3/63 862/3/63 855/3/63 847/3/63
f 852/3/64 860/3/64 861/3/64 853/3/64
f 850/3/65 858/3/65 859/3/65 851/3/65
f 848/3/66 856/3/66 857/3/66 849/3/66
f 856/3/67 863/3/67 857/3/67
f 861/3/68 863/3/68 862/3/68
f 859/3/69 863/3/69 860/3/69
f 857/3/70 863/3/70 858/3/70
f 855/3/71 863/3/71 856/3/71
f 862/3/72 863/3/72 855/3/72
f 860/3/73 863/3/73 861/3/73
f 858/3/74 863/3/74 859/3/74
usemtl Trigger
f 728/4/75 730/4/75 729/4/75 727/4/75
f 730/4/76 734/4/76 733/4/76 729/4/76
f 734/4/77 732/4/77 731/4/77 733/4/77
f 732/4/78 728/4/78 727/4/78 731/4/78
f 729/4/79 733/4/79 737/4/79 735/4/79
f 732/4/80 734/4/80 730/4/80 728/4/80
f 738/4/81 736/4/81 740/4/81 742/4/81
f 731/4/82 727/4/82 736/4/82 738/4/82
f 733/4/83 731/4/83 738/4/83 737/4/83
f 727/4/84 729/4/84 735/4/84 736/4/84
f 740/4/85 739/4/85 741/4/85 742/4/85
f 735/4/86 737/4/86 741/4/86 739/4/86
f 737/4/87 738/4/87 742/4/87 741/4/87
f 736/4/88 735/4/88 739/4/88 740/4/88
usemtl Barrel
f 648/5/89 670/5/89 671/5/89 613/5/89 612/5/89 638/5/89
f 650/5/90 672/5/90 670/5/90 648/5/90 647/5/90
f 671/5/39 670/5/39 673/5/39 674/5/39
f 613/5/91 671/5/91 675/5/91 637/5/91 614/5/91
f 655/5/92 676/5/92 672/5/92 650/5/92 649/5/92
f 670/5/39 672/5/39 677/5/39 673/5/39
f 675/5/39 671/5/39 674/5/39 678/5/39
f 674/5/89 673/5/89 679/5/89 680/5/89
f 637/5/93 675/5/93 681/5/93 682/5/93 617/5/93 616/5/93
f 683/5/94 684/5/94 676/5/94 655/5/94 652/5/94 654/5/94
f 672/5/39 676/5/39 685/5/39 677/5/39
f 673/5/90 677/5/90 686/5/90 679/5/90
f 681/5/39 675/5/39 678/5/39 687/5/39
f 678/5/91 674/5/91 680/5/91 688/5/91
f 680/5/51 679/5/51 689/5/51 690/5/51
f 682/5/95 681/5/95 691/5/95 692/5/95
f 617/5/96 682/5/96 693/5/96 618/5/96
f 653/5/97 694/5/97 683/5/97 654/5/97
f 692/5/98 691/5/98 684/5/98 683/5/98
f 676/5/39 684/5/39 695/5/39 685/5/39
f 677/5/92 685/5/92 696/5/92 686/5/92
f 679/5/51 686/5/51 697/5/51 689/5/51
f 691/5/39 681/5/39 687/5/39 698/5/39
f 687/5/93 678/5/93 688/5/93 699/5/93
f 688/5/51 680/5/51 690/5/51 700/5/51
f 690/5/89 689/5/89 701/5/89 702/5/89
f 693/5/99 682/5/99 692/5/99 703/5/99
f 618/5/100 693/5/100 570/5/100 569/5/100 598/5/100 605/5/100 632/5/100 615/5/100
f 591/5/101 694/5/101 653/5/101 651/5/101 641/5/101 625/5/101 623/5/101 624/5/101 622/5/101 592/5/101
f 703/5/102 692/5/102 683/5/102 694/5/102
f 684/5/39 691/5/39 698/5/39 695/5/39
f 685/5/94 695/5/94 704/5/94 696/5/94
f 686/5/51 696/5/51 705/5/51 697/5/51
f 689/5/90 697/5/90 706/5/90 701/5/90
f 698/5/95 687/5/95 699/5/95 707/5/95
f 699/5/51 688/5/51 700/5/51 708/5/51
f 700/5/91 690/5/91 702/5/91 709/5/91
f 702/5/51 701/5/51 710/5/51 711/5/51
f 570/5/103 693/5/103 703/5/103 621/5/103 597/5/103 571/5/103
f 621/5/104 703/5/104 694/5/104 591/5/104 590/5/104
f 695/5/98 698/5/98 707/5/98 704/5/98
f 696/5/51 704/5/51 712/5/51 705/5/51
f 697/5/92 705/5/92 713/5/92 706/5/92
f 701/5/51 706/5/51 714/5/51 710/5/51
f 707/5/51 699/5/51 708/5/51 715/5/51
f 708/5/93 700/5/93 709/5/93 716/5/93
f 709/5/51 702/5/51 711/5/51 717/5/51
f 711/5/98 710/5/98 667/5/98 663/5/98 662/5/98
f 704/5/51 707/5/51 715/5/51 712/5/51
f 705/5/94 712/5/94 718/5/94 713/5/94
f 706/5/51 713/5/51 719/5/51 714/5/51
f 667/5/95 710/5/95 714/5/95 668/5/95
f 715/5/95 708/5/95 716/5/95 720/5/95
f 716/5/51 709/5/51 717/5/51 721/5/51
f 661/5/94 717/5/94 711/5/94 662/5/94
f 712/5/98 715/5/98 720/5/98 718/5/98
f 713/5/51 718/5/51 722/5/51 719/5/51
f 668/5/93 714/5/93 719/5/93 669/5/93
f 720/5/51 716/5/51 721/5/51 723/5/51
f 721/5/92 717/5/92 661/5/92 656/5/92 660/5/92 724/5/92
f 718/5/51 720/5/51 723/5/51 722/5/51
f 719/5/91 722/5/91 725/5/91 665/5/91 664/5/91 669/5/91
f 723/5/90 721/5/90 724/5/90 726/5/90
f 659/5/51 725/5/51 726/5/51 724/5/51 660/5/51
f 722/5/89 723/5/89 726/5/89 725/5/89
f 665/5/51 725/5/51 666/5/51
f 666/5/51 725/5/51 659/5/51 658/5/51
usemtl Green
f 233/6/105 2/6/105 4/6/105 234/6/105
f 234/6/106 4/6/106 6/6/106 235/6/106
f 235/6/77 6/6/77 8/6/77 236/6/77
f 236/6/107 8/6/107 10/6/107 237/6/107
f 237/6/108 10/6/108 12/6/108 238/6/108
f 238/6/109 12/6/109 14/6/109 239/6/109
f 239/6/110 14/6/110 16/6/110 240/6/110
f 240/6/75 16/6/75 18/6/75 241/6/75
f 18/6/111 16/6/111 28/6/111 29/6/111
f 242/6/112 20/6/112 2/6/112 233/6/112
f 241/6/113 18/6/113 20/6/113 242/6/113
f 134/6/105 131/6/105 32/6/105 31/6/105
f 16/6/114 14/6/114 27/6/114 28/6/114
f 14/6/115 12/6/115 26/6/115 27/6/115
f 12/6/116 10/6/116 25/6/116 26/6/116
f 10/6/117 8/6/117 24/6/117 25/6/117
f 4/6/118 2/6/118 22/6/118 21/6/118
f 8/6/119 6/6/119 23/6/119 24/6/119
f 6/6/120 4/6/120 21/6/120 23/6/120
f 2/6/121 20/6/121 30/6/121 22/6/121
f 20/6/122 18/6/122 29/6/122 30/6/122
f 39/6/123 38/6/123 48/6/123 49/6/123
f 135/6/75 132/6/75 38/6/75 39/6/75
f 136/6/108 133/6/108 35/6/108 36/6/108
f 137/6/106 134/6/106 31/6/106 33/6/106
f 138/6/113 135/6/113 39/6/113 40/6/113
f 139/6/109 136/6/109 36/6/109 37/6/109
f 140/6/77 137/6/77 33/6/77 34/6/77
f 131/6/112 138/6/112 40/6/112 32/6/112
f 132/6/110 139/6/110 37/6/110 38/6/110
f 133/6/107 140/6/107 34/6/107 35/6/107
f 36/6/124 35/6/124 45/6/124 46/6/124
f 33/6/125 31/6/125 41/6/125 43/6/125
f 40/6/126 39/6/126 49/6/126 50/6/126
f 37/6/127 36/6/127 46/6/127 47/6/127
f 34/6/128 33/6/128 43/6/128 44/6/128
f 32/6/129 40/6/129 50/6/129 42/6/129
f 38/6/130 37/6/130 47/6/130 48/6/130
f 35/6/131 34/6/131 44/6/131 45/6/131
f 31/6/132 32/6/132 42/6/132 41/6/132
f 113/6/107 120/6/107 70/6/107 65/6/107
f 112/6/110 119/6/110 69/6/110 63/6/110
f 111/6/112 118/6/112 68/6/112 61/6/112
f 120/6/77 117/6/77 67/6/77 70/6/77
f 119/6/109 116/6/109 66/6/109 69/6/109
f 118/6/113 115/6/113 64/6/113 68/6/113
f 117/6/106 114/6/106 62/6/106 67/6/106
f 116/6/108 113/6/108 65/6/108 66/6/108
f 115/6/75 112/6/75 63/6/75 64/6/75
f 114/6/105 111/6/105 61/6/105 62/6/105
f 21/6/105 22/6/105 108/6/105 101/6/105
f 29/6/75 28/6/75 109/6/75 102/6/75
f 26/6/108 25/6/108 110/6/108 103/6/108
f 23/6/106 21/6/106 101/6/106 104/6/106
f 30/6/113 29/6/113 102/6/113 105/6/113
f 27/6/109 26/6/109 103/6/109 106/6/109
f 24/6/77 23/6/77 104/6/77 107/6/77
f 22/6/112 30/6/112 105/6/112 108/6/112
f 28/6/110 27/6/110 106/6/110 109/6/110
f 25/6/107 24/6/107 107/6/107 110/6/107
f 73/6/107 80/6/107 130/6/107 123/6/107
f 72/6/110 79/6/110 129/6/110 122/6/110
f 71/6/112 78/6/112 128/6/112 121/6/112
f 80/6/77 77/6/77 127/6/77 130/6/77
f 79/6/109 76/6/109 126/6/109 129/6/109
f 78/6/113 75/6/113 125/6/113 128/6/113
f 77/6/106 74/6/106 124/6/106 127/6/106
f 76/6/108 73/6/108 123/6/108 126/6/108
f 75/6/75 72/6/75 122/6/75 125/6/75
f 74/6/105 71/6/105 121/6/105 124/6/105
f 243/6/77 244/6/77 245/6/77 246/6/77
f 243/6/133 246/6/133 247/6/133 248/6/133
f 249/6/77 250/6/77 244/6/77 243/6/77
f 245/6/77 244/6/77 251/6/77 252/6/77
f 246/6/77 245/6/77 253/6/77 254/6/77
f 248/6/134 255/6/134 249/6/134 243/6/134
f 257/6/80 248/6/80 247/6/80 258/6/80
f 249/6/77 259/6/77 260/6/77 250/6/77
f 244/6/77 250/6/77 261/6/77 251/6/77
f 253/6/77 245/6/77 252/6/77 262/6/77
f 251/6/77 263/6/77 264/6/77 252/6/77
f 254/6/135 256/6/135 247/6/135 246/6/135
f 254/6/77 253/6/77 265/6/77 266/6/77
f 267/6/136 255/6/136 248/6/136 257/6/136
f 255/6/137 268/6/137 259/6/137 249/6/137
f 258/6/138 247/6/138 256/6/138 269/6/138
f 257/6/80 258/6/80 270/6/80 271/6/80
f 274/6/77 261/6/77 250/6/77 260/6/77
f 261/6/77 275/6/77 263/6/77 251/6/77
f 265/6/77 253/6/77 262/6/77 276/6/77
f 252/6/77 264/6/77 277/6/77 262/6/77
f 278/6/139 279/6/139 264/6/139 263/6/139
f 254/6/140 266/6/140 280/6/140 256/6/140
f 266/6/77 265/6/77 281/6/77 282/6/77
f 267/6/136 257/6/136 271/6/136 283/6/136
f 268/6/141 255/6/141 267/6/141 284/6/141
f 258/6/138 269/6/138 286/6/138 270/6/138
f 269/6/142 256/6/142 280/6/142 287/6/142
f 288/6/143 271/6/143 270/6/143 289/6/143
f 261/6/77 274/6/77 293/6/77 275/6/77
f 275/6/77 294/6/77 263/6/77
f 265/6/77 276/6/77 295/6/77 296/6/77 281/6/77
f 262/6/77 277/6/77 297/6/77 276/6/77
f 264/6/144 279/6/144 317/6/144 277/6/144
f 263/6/145 294/6/145 319/6/145 278/6/145
f 278/6/146 298/6/146 299/6/146 279/6/146
f 280/6/147 266/6/147 282/6/147 300/6/147
f 281/6/77 301/6/77 326/6/77 380/6/77 325/6/77 282/6/77
f 302/6/141 284/6/141 267/6/141 283/6/141
f 271/6/148 288/6/148 303/6/148 283/6/148
f 269/6/142 287/6/142 305/6/142 286/6/142
f 270/6/149 286/6/149 332/6/149 289/6/149
f 287/6/150 280/6/150 300/6/150 306/6/150
f 288/6/75 289/6/75 307/6/75 308/6/75
f 293/6/77 314/6/77 294/6/77 275/6/77
f 276/6/77 297/6/77 315/6/77 295/6/77
f 295/6/151 316/6/151 346/6/151 296/6/151
f 296/6/77 301/6/77 281/6/77
f 297/6/152 277/6/152 317/6/152 318/6/152
f 298/6/153 278/6/153 319/6/153 320/6/153
f 321/6/146 322/6/146 299/6/146 298/6/146
f 279/6/154 299/6/154 323/6/154 317/6/154
f 324/6/155 300/6/155 282/6/155 325/6/155
f 283/6/156 303/6/156 327/6/156 302/6/156
f 303/6/75 288/6/75 308/6/75 329/6/75
f 287/6/150 306/6/150 331/6/150 305/6/150
f 332/6/157 286/6/157 305/6/157 333/6/157
f 306/6/158 300/6/158 324/6/158 334/6/158
f 289/6/75 332/6/75 335/6/75 307/6/75
f 307/6/75 336/6/75 337/6/75 308/6/75
f 343/6/159 344/6/159 294/6/159 314/6/159
f 297/6/160 318/6/160 370/6/160 315/6/160
f 295/6/77 315/6/77 404/6/77 436/6/77 371/6/77 345/6/77
f 316/6/161 295/6/161 345/6/161 347/6/161
f 296/6/162 346/6/162 355/6/162 301/6/162
f 317/6/163 323/6/163 348/6/163 318/6/163
f 319/6/164 294/6/164 344/6/164
f 298/6/153 320/6/153 349/6/153 321/6/153
f 344/6/165 350/6/165 320/6/165 319/6/165
f 321/6/166 351/6/166 352/6/166 322/6/166
f 322/6/154 353/6/154 323/6/154 299/6/154
f 325/6/167 354/6/167 361/6/167 324/6/167
f 301/6/168 355/6/168 383/6/168 326/6/168
f 303/6/75 329/6/75 356/6/75 327/6/75
f 308/6/75 337/6/75 358/6/75 329/6/75
f 306/6/158 334/6/158 359/6/158 331/6/158
f 305/6/169 331/6/169 391/6/169 333/6/169
f 332/6/75 333/6/75 360/6/75 335/6/75
f 334/6/170 324/6/170 361/6/170 362/6/170
f 335/6/75 363/6/75 336/6/75 307/6/75
f 337/6/75 336/6/75 352/6/75 351/6/75
f 369/6/171 350/6/171 344/6/171 343/6/171
f 346/6/172 316/6/172 372/6/172 373/6/172
f 316/6/173 347/6/173 374/6/173 372/6/173
f 353/6/163 375/6/163 348/6/163 323/6/163
f 318/6/174 348/6/174 376/6/174 370/6/174
f 377/6/165 349/6/165 320/6/165 350/6/165
f 349/6/175 378/6/175 351/6/175 321/6/175
f 352/6/176 379/6/176 353/6/176 322/6/176
f 325/6/77 380/6/77 381/6/77 382/6/77 354/6/77
f 384/6/75 356/6/75 329/6/75 358/6/75
f 358/6/75 337/6/75 351/6/75 388/6/75
f 334/6/170 362/6/170 389/6/170 359/6/170
f 359/6/177 390/6/177 391/6/177 331/6/177
f 333/6/75 391/6/75 392/6/75 360/6/75
f 360/6/75 393/6/75 363/6/75 335/6/75
f 362/6/178 361/6/178 394/6/178 395/6/178
f 336/6/75 363/6/75 379/6/75 352/6/75
f 369/6/171 403/6/171 377/6/171 350/6/171
f 404/6/179 315/6/179 370/6/179 405/6/179
f 371/6/180 406/6/180 347/6/180 345/6/180
f 355/6/181 346/6/181 373/6/181 407/6/181
f 408/6/172 373/6/172 372/6/172 409/6/172
f 347/6/182 406/6/182 410/6/182 374/6/182
f 409/6/173 372/6/173 374/6/173 411/6/173
f 412/6/183 375/6/183 353/6/183 379/6/183
f 375/6/174 413/6/174 376/6/174 348/6/174
f 370/6/184 376/6/184 414/6/184 405/6/184
f 349/6/185 377/6/185 378/6/185
f 388/6/75 351/6/75 378/6/75
f 394/6/186 361/6/186 354/6/186 415/6/186
f 380/6/187 416/6/187 445/6/187 381/6/187
f 381/6/77 417/6/77 474/6/77 446/6/77 382/6/77
f 354/6/77 382/6/77 418/6/77 415/6/77
f 326/6/188 383/6/188 416/6/188 380/6/188
f 383/6/189 355/6/189 407/6/189 419/6/189
f 358/6/75 388/6/75 420/6/75 384/6/75
f 362/6/178 395/6/178 422/6/178 389/6/178
f 390/6/190 359/6/190 389/6/190 423/6/190
f 391/6/75 390/6/75 458/6/75 424/6/75 425/6/75 392/6/75
f 360/6/75 392/6/75 426/6/75 427/6/75 393/6/75
f 363/6/75 393/6/75 412/6/75 379/6/75
f 395/6/191 394/6/191 428/6/191 429/6/191
f 403/6/192 434/6/192 378/6/192 377/6/192
f 405/6/193 435/6/193 464/6/193 404/6/193
f 406/6/194 371/6/194 436/6/194 437/6/194
f 438/6/181 407/6/181 373/6/181 408/6/181
f 408/6/195 409/6/195 427/6/195 426/6/195
f 406/6/196 437/6/196 439/6/196 410/6/196
f 411/6/182 374/6/182 410/6/182 440/6/182
f 409/6/197 411/6/197 468/6/197 427/6/197
f 412/6/198 441/6/198 413/6/198 375/6/198
f 413/6/184 442/6/184 414/6/184 376/6/184
f 405/6/199 414/6/199 443/6/199 435/6/199
f 420/6/75 388/6/75 378/6/75 434/6/75
f 415/6/200 444/6/200 428/6/200 394/6/200
f 381/6/201 445/6/201 475/6/201 417/6/201
f 418/6/77 382/6/77 446/6/77 447/6/77
f 415/6/77 418/6/77 448/6/77 449/6/77
f 416/6/202 383/6/202 419/6/202 450/6/202
f 451/6/189 419/6/189 407/6/189 438/6/189
f 395/6/191 429/6/191 454/6/191 422/6/191
f 422/6/203 455/6/203 423/6/203 389/6/203
f 390/6/75 423/6/75 456/6/75 457/6/75 458/6/75
f 426/6/75 392/6/75 425/6/75
f 393/6/75 427/6/75 441/6/75 412/6/75
f 428/6/204 459/6/204 484/6/204 429/6/204
f 404/6/77 464/6/77 446/6/77 474/6/77 486/6/77 436/6/77
f 438/6/205 408/6/205 426/6/205 425/6/205
f 437/6/206 465/6/206 466/6/206 439/6/206
f 440/6/196 410/6/196 439/6/196 467/6/196
f 411/6/207 440/6/207 490/6/207 468/6/207
f 469/6/208 442/6/208 413/6/208 441/6/208
f 442/6/199 470/6/199 443/6/199 414/6/199
f 435/6/209 443/6/209 471/6/209 472/6/209
f 415/6/210 449/6/210 444/6/210
f 445/6/211 416/6/211 450/6/211 473/6/211
f 448/6/77 418/6/77 447/6/77
f 446/6/77 464/6/77 476/6/77 447/6/77
f 449/6/77 448/6/77 477/6/77 478/6/77
f 479/6/202 450/6/202 419/6/202 451/6/202
f 451/6/212 438/6/212 425/6/212 424/6/212
f 454/6/213 481/6/213 455/6/213 422/6/213
f 423/6/75 455/6/75 482/6/75 456/6/75
f 459/6/214 428/6/214 444/6/214
f 435/6/215 472/6/215 476/6/215 464/6/215
f 465/6/216 487/6/216 488/6/216 466/6/216
f 467/6/206 439/6/206 466/6/206 489/6/206
f 470/6/209 491/6/209 471/6/209 443/6/209
f 472/6/217 471/6/217 492/6/217 493/6/217
f 494/6/218 444/6/218 449/6/218 478/6/218
f 475/6/219 445/6/219 473/6/219 495/6/219
f 496/6/211 473/6/211 450/6/211 479/6/211
f 477/6/220 448/6/220 497/6/220 499/6/220
f 478/6/77 477/6/77 500/6/77 501/6/77
f 479/6/221 451/6/221 424/6/221 458/6/221
f 484/6/222 480/6/222 454/6/222 429/6/222
f 480/6/223 481/6/223 454/6/223
f 455/6/224 481/6/224 502/6/224
f 455/6/75 502/6/75 503/6/75 482/6/75
f 482/6/75 504/6/75 505/6/75 456/6/75
f 528/6/75 483/6/75 457/6/75 456/6/75 505/6/75
f 457/6/225 483/6/225 515/6/225 496/6/225
f 496/6/226 479/6/226 458/6/226 457/6/226
f 444/6/227 494/6/227 506/6/227 459/6/227
f 472/6/228 493/6/228 476/6/228
f 486/6/229 465/6/229 437/6/229 436/6/229
f 465/6/230 486/6/230 474/6/230 487/6/230
f 487/6/231 475/6/231 495/6/231 488/6/231
f 489/6/216 466/6/216 488/6/216 508/6/216
f 467/6/232 489/6/232 530/6/232 509/6/232
f 509/6/233 490/6/233 440/6/233 467/6/233
f 469/6/75 441/6/75 427/6/75 468/6/75 490/6/75 509/6/75
f 510/6/234 470/6/234 442/6/234 469/6/234
f 470/6/235 510/6/235 511/6/235 491/6/235
f 491/6/217 512/6/217 492/6/217 471/6/217
f 513/6/236 498/6/236 493/6/236 492/6/236
f 501/6/237 514/6/237 494/6/237 478/6/237
f 515/6/219 495/6/219 473/6/219 496/6/219
f 487/6/238 474/6/238 417/6/238 475/6/238
f 516/6/239 497/6/239 448/6/239 447/6/239
f 516/6/240 447/6/240 476/6/240 493/6/240 498/6/240
f 499/6/241 517/6/241 520/6/241 477/6/241
f 497/6/242 518/6/242 519/6/242 499/6/242
f 500/6/77 477/6/77 520/6/77
f 521/6/77 501/6/77 500/6/77 522/6/77
f 481/6/243 480/6/243 524/6/243 525/6/243
f 525/6/244 526/6/244 502/6/244 481/6/244
f 502/6/75 526/6/75 527/6/75 503/6/75
f 503/6/75 504/6/75 482/6/75
f 505/6/75 504/6/75 511/6/75 510/6/75
f 494/6/245 514/6/245 546/6/245 506/6/245
f 508/6/231 488/6/231 495/6/231 515/6/231
f 489/6/246 508/6/246 528/6/246 530/6/246
f 469/6/75 509/6/75 530/6/75 528/6/75 505/6/75 510/6/75
f 491/6/247 511/6/247 512/6/247
f 513/6/236 492/6/236 512/6/236 531/6/236
f 532/6/248 533/6/248 498/6/248 513/6/248
f 534/6/249 514/6/249 501/6/249 521/6/249
f 516/6/250 535/6/250 518/6/250 497/6/250
f 498/6/77 536/6/77 516/6/77
f 499/6/251 519/6/251 537/6/251 517/6/251
f 538/6/242 539/6/242 519/6/242 518/6/242
f 522/6/77 500/6/77 520/6/77 540/6/77
f 521/6/77 522/6/77 541/6/77 542/6/77
f 525/6/252 524/6/252 564/6/252 543/6/252
f 544/6/253 526/6/253 525/6/253 543/6/253
f 526/6/75 544/6/75 545/6/75 527/6/75
f 527/6/254 539/6/254 538/6/254 503/6/254
f 503/6/255 538/6/255 555/6/255 504/6/255
f 555/6/256 531/6/256 512/6/256 511/6/256 504/6/256
f 483/6/257 528/6/257 508/6/257 515/6/257
f 532/6/248 513/6/248 531/6/248 549/6/248
f 550/6/258 551/6/258 533/6/258 532/6/258
f 533/6/77 552/6/77 536/6/77 498/6/77
f 534/6/259 521/6/259 542/6/259
f 553/6/260 546/6/260 514/6/260 534/6/260
f 536/6/261 554/6/261 535/6/261 516/6/261
f 555/6/250 538/6/250 518/6/250 535/6/250
f 520/6/262 517/6/262 559/6/262 556/6/262
f 539/6/251 557/6/251 537/6/251 519/6/251
f 517/6/263 537/6/263 558/6/263 559/6/263
f 541/6/77 522/6/77 540/6/77
f 540/6/77 520/6/77 556/6/77 560/6/77
f 542/6/77 541/6/77 561/6/77 562/6/77
f 565/6/264 566/6/264 544/6/264 543/6/264
f 566/6/75 567/6/75 545/6/75 544/6/75
f 545/6/75 568/6/75 527/6/75
f 539/6/265 527/6/265 568/6/265 557/6/265
f 550/6/258 532/6/258 549/6/258 572/6/258
f 549/6/75 531/6/75 573/6/75 574/6/75
f 575/6/266 576/6/266 551/6/266 550/6/266
f 551/6/77 577/6/77 552/6/77 533/6/77
f 552/6/267 578/6/267 554/6/267 536/6/267
f 534/6/268 542/6/268 587/6/268 579/6/268
f 553/6/269 534/6/269 579/6/269
f 573/6/261 555/6/261 535/6/261 554/6/261
f 557/6/263 580/6/263 558/6/263 537/6/263
f 559/6/270 558/6/270 581/6/270 582/6/270
f 542/6/271 562/6/271 586/6/271 587/6/271
f 561/6/272 541/6/272 583/6/272 588/6/272
f 593/6/273 565/6/273 543/6/273 564/6/273
f 565/6/274 594/6/274 566/6/274
f 566/6/75 594/6/75 595/6/75 567/6/75
f 567/6/75 596/6/75 568/6/75 545/6/75
f 531/6/75 555/6/75 573/6/75
f 575/6/266 550/6/266 572/6/266 599/6/266
f 572/6/75 549/6/75 574/6/75 600/6/75
f 574/6/267 573/6/267 554/6/267 578/6/267
f 601/6/275 602/6/275 576/6/275 575/6/275
f 576/6/77 603/6/77 577/6/77 551/6/77
f 577/6/276 604/6/276 578/6/276 552/6/276
f 598/6/277 553/6/277 579/6/277 605/6/277
f 559/6/278 585/6/278 556/6/278
f 580/6/270 607/6/270 581/6/270 558/6/270
f 585/6/77 559/6/77 582/6/77 602/6/77
f 582/6/279 581/6/279 608/6/279 603/6/279
f 609/6/280 583/6/280 541/6/280 540/6/280
f 610/6/281 584/6/281 560/6/281
f 609/6/282 540/6/282 560/6/282 584/6/282
f 610/6/283 560/6/283 556/6/283 585/6/283
f 586/6/284 562/6/284 611/6/284 612/6/284 613/6/284 614/6/284
f 615/6/285 587/6/285 586/6/285 616/6/285 617/6/285 618/6/285
f 561/6/286 588/6/286 589/6/286
f 583/6/287 619/6/287 620/6/287 588/6/287
f 611/6/288 562/6/288 561/6/288 589/6/288
f 623/6/289 565/6/289 593/6/289 624/6/289
f 625/6/290 594/6/290 565/6/290 623/6/290
f 594/6/75 626/6/75 627/6/75 595/6/75
f 595/6/75 596/6/75 567/6/75
f 596/6/75 628/6/75 606/6/75 568/6/75
f 568/6/291 606/6/291 580/6/291 557/6/291
f 601/6/275 575/6/275 599/6/275 629/6/275
f 599/6/75 572/6/75 600/6/75 630/6/75
f 600/6/276 574/6/276 578/6/276 604/6/276
f 631/6/292 585/6/292 602/6/292 601/6/292
f 602/6/77 582/6/77 603/6/77 576/6/77
f 603/6/293 608/6/293 604/6/293 577/6/293
f 632/6/294 579/6/294 587/6/294 615/6/294
f 605/6/295 579/6/295 632/6/295
f 580/6/296 606/6/296 633/6/296
f 633/6/75 629/6/75 607/6/75 580/6/75
f 607/6/279 630/6/279 608/6/279 581/6/279
f 609/6/297 634/6/297 619/6/297 583/6/297
f 610/6/298 635/6/298 636/6/298 584/6/298
f 634/6/299 609/6/299 584/6/299 636/6/299
f 610/6/300 585/6/300 631/6/300 635/6/300
f 616/6/301 586/6/301 614/6/301 637/6/301
f 612/6/301 611/6/301 638/6/301
f 588/6/302 620/6/302 589/6/302
f 639/6/287 640/6/287 620/6/287 619/6/287
f 611/6/303 589/6/303 627/6/303 626/6/303
f 624/6/304 593/6/304 622/6/304
f 641/6/305 642/6/305 594/6/305 625/6/305
f 594/6/306 642/6/306 643/6/306 626/6/306
f 627/6/307 640/6/307 639/6/307 595/6/307
f 595/6/308 639/6/308 645/6/308 596/6/308
f 628/6/309 596/6/309 645/6/309 644/6/309
f 606/6/310 628/6/310 646/6/310 633/6/310
f 631/6/292 601/6/292 629/6/292 633/6/292
f 629/6/75 599/6/75 630/6/75 607/6/75
f 630/6/293 600/6/293 604/6/293 608/6/293
f 645/6/297 639/6/297 619/6/297 634/6/297
f 646/6/298 644/6/298 636/6/298 635/6/298
f 634/6/299 636/6/299 644/6/299 645/6/299
f 646/6/300 635/6/300 631/6/300 633/6/300
f 638/6/301 611/6/301 647/6/301 648/6/301
f 640/6/302 589/6/302 620/6/302
f 643/6/311 649/6/311 650/6/311 647/6/311 611/6/311 626/6/311
f 651/6/294 642/6/294 641/6/294
f 652/6/285 643/6/285 642/6/285 651/6/285 653/6/285 654/6/285
f 627/6/312 589/6/312 640/6/312
f 646/6/313 628/6/313 644/6/313
f 649/6/301 643/6/301 652/6/301 655/6/301
f 656/6/285 657/6/285 658/6/285 659/6/285 660/6/285
f 657/6/301 656/6/301 661/6/301 662/6/301 663/6/301
f 658/6/285 657/6/285 664/6/285 665/6/285 666/6/285
f 657/6/301 663/6/301 667/6/301 668/6/301 669/6/301 664/6/301
usemtl Metal
f 459/1/314 507/1/314 529/1/314 484/1/314
f 480/1/315 484/1/315 529/1/315 523/1/315
f 553/1/316 547/1/316 805/1/316 806/1/316
f 480/1/317 523/1/317 563/1/317 593/1/317 564/1/317 524/1/317
f 507/1/318 547/1/318 548/1/318 529/1/318
f 523/1/318 529/1/318 548/1/318 563/1/318
f 548/1/51 547/1/51 553/1/51 569/1/51 570/1/51 571/1/51
f 548/1/51 590/1/51 591/1/51 592/1/51 593/1/51 563/1/51
f 548/1/319 571/1/319 597/1/319
f 569/1/319 553/1/319 598/1/319
f 548/1/320 597/1/320 621/1/320 590/1/320
f 622/1/320 593/1/320 592/1/320
f 547/1/321 507/1/321 804/1/321 805/1/321
f 459/1/322 506/1/322 546/1/322 553/1/322 806/1/322 803/1/322 804/1/322 507/1/322
usemtl Black
f 15/7/39 17/7/39 221/7/39 220/7/39
f 46/7/108 45/7/108 55/7/108 56/7/108
f 53/7/51 51/7/51 193/7/51 195/7/51
f 43/7/106 41/7/106 51/7/106 53/7/106
f 50/7/113 49/7/113 59/7/113 60/7/113
f 47/7/109 46/7/109 56/7/109 57/7/109
f 44/7/77 43/7/77 53/7/77 54/7/77
f 42/7/112 50/7/112 60/7/112 52/7/112
f 48/7/110 47/7/110 57/7/110 58/7/110
f 45/7/107 44/7/107 54/7/107 55/7/107
f 41/7/105 42/7/105 52/7/105 51/7/105
f 49/7/75 48/7/75 58/7/75 59/7/75
f 65/7/323 70/7/323 94/7/323 95/7/323
f 78/7/324 71/7/324 98/7/324 89/7/324
f 66/7/325 65/7/325 95/7/325 86/7/325
f 71/7/326 74/7/326 81/7/326 98/7/326
f 79/7/327 72/7/327 99/7/327 91/7/327
f 67/7/328 62/7/328 82/7/328 88/7/328
f 72/7/329 75/7/329 83/7/329 99/7/329
f 80/7/330 73/7/330 100/7/330 93/7/330
f 68/7/331 64/7/331 84/7/331 90/7/331
f 73/7/332 76/7/332 85/7/332 100/7/332
f 95/7/107 94/7/107 93/7/107 100/7/107
f 96/7/110 92/7/110 91/7/110 99/7/110
f 97/7/112 90/7/112 89/7/112 98/7/112
f 94/7/77 88/7/77 87/7/77 93/7/77
f 92/7/109 86/7/109 85/7/109 91/7/109
f 90/7/113 84/7/113 83/7/113 89/7/113
f 88/7/106 82/7/106 81/7/106 87/7/106
f 86/7/108 95/7/108 100/7/108 85/7/108
f 84/7/75 96/7/75 99/7/75 83/7/75
f 82/7/105 97/7/105 98/7/105 81/7/105
f 64/7/333 63/7/333 96/7/333 84/7/333
f 77/7/334 80/7/334 93/7/334 87/7/334
f 63/7/335 69/7/335 92/7/335 96/7/335
f 62/7/336 61/7/336 97/7/336 82/7/336
f 76/7/337 79/7/337 91/7/337 85/7/337
f 61/7/338 68/7/338 90/7/338 97/7/338
f 75/7/339 78/7/339 89/7/339 83/7/339
f 70/7/340 67/7/340 88/7/340 94/7/340
f 74/7/341 77/7/341 87/7/341 81/7/341
f 69/7/342 66/7/342 86/7/342 92/7/342
f 103/7/343 110/7/343 183/7/343 172/7/343
f 115/7/344 118/7/344 175/7/344 169/7/344
f 110/7/345 107/7/345 180/7/345 183/7/345
f 102/7/346 109/7/346 182/7/346 170/7/346
f 114/7/347 117/7/347 173/7/347 167/7/347
f 109/7/348 106/7/348 178/7/348 182/7/348
f 101/7/349 108/7/349 181/7/349 168/7/349
f 113/7/350 116/7/350 171/7/350 186/7/350
f 108/7/351 105/7/351 176/7/351 181/7/351
f 120/7/352 113/7/352 186/7/352 179/7/352
f 127/7/353 124/7/353 142/7/353 148/7/353
f 132/7/354 135/7/354 143/7/354 159/7/354
f 140/7/355 133/7/355 160/7/355 153/7/355
f 128/7/356 125/7/356 144/7/356 150/7/356
f 133/7/357 136/7/357 145/7/357 160/7/357
f 129/7/358 126/7/358 146/7/358 152/7/358
f 134/7/359 137/7/359 147/7/359 141/7/359
f 130/7/360 127/7/360 148/7/360 154/7/360
f 135/7/361 138/7/361 149/7/361 143/7/361
f 121/7/362 128/7/362 150/7/362 157/7/362
f 155/7/107 154/7/107 153/7/107 160/7/107
f 156/7/110 152/7/110 151/7/110 159/7/110
f 141/7/77 142/7/77 162/7/77 161/7/77
f 154/7/77 148/7/77 147/7/77 153/7/77
f 152/7/109 146/7/109 145/7/109 151/7/109
f 150/7/113 144/7/113 143/7/113 149/7/113
f 148/7/106 142/7/106 141/7/106 147/7/106
f 146/7/108 155/7/108 160/7/108 145/7/108
f 144/7/75 156/7/75 159/7/75 143/7/75
f 149/7/51 158/7/51 166/7/51 163/7/51
f 139/7/363 132/7/363 159/7/363 151/7/363
f 131/7/364 134/7/364 141/7/364 158/7/364
f 126/7/365 123/7/365 155/7/365 146/7/365
f 138/7/366 131/7/366 158/7/366 149/7/366
f 123/7/367 130/7/367 154/7/367 155/7/367
f 125/7/368 122/7/368 156/7/368 144/7/368
f 137/7/369 140/7/369 153/7/369 147/7/369
f 122/7/370 129/7/370 152/7/370 156/7/370
f 124/7/371 121/7/371 157/7/371 142/7/371
f 136/7/372 139/7/372 151/7/372 145/7/372
f 165/7/112 164/7/112 163/7/112 166/7/112
f 162/7/105 165/7/105 166/7/105 161/7/105
f 157/7/39 150/7/39 164/7/39 165/7/39
f 158/7/51 141/7/51 161/7/51 166/7/51
f 142/7/39 157/7/39 165/7/39 162/7/39
f 150/7/75 149/7/75 163/7/75 164/7/75
f 167/7/77 168/7/77 188/7/77 187/7/77
f 170/7/75 182/7/75 185/7/75 169/7/75
f 172/7/108 183/7/108 186/7/108 171/7/108
f 174/7/106 168/7/106 167/7/106 173/7/106
f 176/7/113 170/7/113 169/7/113 175/7/113
f 178/7/109 172/7/109 171/7/109 177/7/109
f 180/7/77 174/7/77 173/7/77 179/7/77
f 176/7/75 175/7/75 189/7/75 190/7/75
f 182/7/110 178/7/110 177/7/110 185/7/110
f 183/7/107 180/7/107 179/7/107 186/7/107
f 116/7/373 119/7/373 177/7/373 171/7/373
f 104/7/374 101/7/374 168/7/374 174/7/374
f 117/7/375 120/7/375 179/7/375 173/7/375
f 105/7/376 102/7/376 170/7/376 176/7/376
f 118/7/377 111/7/377 184/7/377 175/7/377
f 106/7/378 103/7/378 172/7/378 178/7/378
f 111/7/379 114/7/379 167/7/379 184/7/379
f 119/7/380 112/7/380 185/7/380 177/7/380
f 107/7/381 104/7/381 174/7/381 180/7/381
f 112/7/382 115/7/382 169/7/382 185/7/382
f 188/7/105 191/7/105 192/7/105 187/7/105
f 191/7/112 190/7/112 189/7/112 192/7/112
f 184/7/51 167/7/51 187/7/51 192/7/51
f 168/7/39 181/7/39 191/7/39 188/7/39
f 175/7/51 184/7/51 192/7/51 189/7/51
f 181/7/39 176/7/39 190/7/39 191/7/39
f 201/7/77 200/7/77 210/7/77 211/7/77
f 60/7/51 59/7/51 201/7/51 202/7/51
f 57/7/51 56/7/51 198/7/51 199/7/51
f 54/7/51 53/7/51 195/7/51 196/7/51
f 52/7/51 60/7/51 202/7/51 194/7/51
f 58/7/51 57/7/51 199/7/51 200/7/51
f 55/7/51 54/7/51 196/7/51 197/7/51
f 51/7/51 52/7/51 194/7/51 193/7/51
f 59/7/51 58/7/51 200/7/51 201/7/51
f 56/7/51 55/7/51 197/7/51 198/7/51
f 203/7/51 204/7/51 212/7/51 211/7/51 210/7/51 209/7/51 208/7/51 207/7/51 206/7/51 205/7/51
f 198/7/112 197/7/112 207/7/112 208/7/112
f 195/7/110 193/7/110 203/7/110 205/7/110
f 202/7/107 201/7/107 211/7/107 212/7/107
f 199/7/105 198/7/105 208/7/105 209/7/105
f 196/7/75 195/7/75 205/7/75 206/7/75
f 194/7/108 202/7/108 212/7/108 204/7/108
f 200/7/106 199/7/106 209/7/106 210/7/106
f 197/7/113 196/7/113 206/7/113 207/7/113
f 193/7/109 194/7/109 204/7/109 203/7/109
f 222/7/108 213/7/108 223/7/108 232/7/108
f 13/7/39 15/7/39 220/7/39 219/7/39
f 11/7/39 13/7/39 219/7/39 218/7/39
f 9/7/39 11/7/39 218/7/39 217/7/39
f 7/7/39 9/7/39 217/7/39 216/7/39
f 1/7/39 3/7/39 214/7/39 213/7/39
f 5/7/39 7/7/39 216/7/39 215/7/39
f 3/7/39 5/7/39 215/7/39 214/7/39
f 19/7/39 1/7/39 213/7/39 222/7/39
f 17/7/39 19/7/39 222/7/39 221/7/39
f 223/7/39 224/7/39 225/7/39 226/7/39 227/7/39 228/7/39 229/7/39 230/7/39 231/7/39 232/7/39
f 219/7/106 220/7/106 230/7/106 229/7/106
f 216/7/113 217/7/113 227/7/113 226/7/113
f 213/7/109 214/7/109 224/7/109 223/7/109
f 220/7/77 221/7/77 231/7/77 230/7/77
f 217/7/112 218/7/112 228/7/112 227/7/112
f 214/7/110 215/7/110 225/7/110 224/7/110
f 221/7/107 222/7/107 232/7/107 231/7/107
f 218/7/105 219/7/105 229/7/105 228/7/105
f 215/7/75 216/7/75 226/7/75 225/7/75
f 17/7/113 241/7/113 242/7/113 19/7/113
f 19/7/112 242/7/112 233/7/112 1/7/112
f 15/7/75 240/7/75 241/7/75 17/7/75
f 13/7/110 239/7/110 240/7/110 15/7/110
f 11/7/109 238/7/109 239/7/109 13/7/109
f 9/7/108 237/7/108 238/7/108 11/7/108
f 7/7/107 236/7/107 237/7/107 9/7/107
f 5/7/77 235/7/77 236/7/77 7/7/77
f 3/7/106 234/7/106 235/7/106 5/7/106
f 1/7/105 233/7/105 234/7/105 3/7/105
f 260/7/383 259/7/383 272/7/383 273/7/383
f 268/7/384 285/7/384 272/7/384 259/7/384
f 274/7/385 260/7/385 273/7/385 290/7/385
f 272/7/77 291/7/77 292/7/77 273/7/77
f 268/7/386 284/7/386 304/7/386 285/7/386
f 293/7/387 274/7/387 290/7/387 309/7/387
f 310/7/77 290/7/77 273/7/77 292/7/77
f 285/7/388 311/7/388 291/7/388 272/7/388
f 312/7/389 313/7/389 292/7/389 291/7/389
f 302/7/386 328/7/386 304/7/386 284/7/386
f 311/7/141 285/7/141 304/7/141 330/7/141
f 314/7/390 293/7/390 309/7/390 338/7/390
f 290/7/77 310/7/77 339/7/77 309/7/77
f 310/7/391 292/7/391 313/7/391 340/7/391
f 291/7/392 311/7/392 312/7/392
f 312/7/39 341/7/39 342/7/39 313/7/39
f 302/7/393 327/7/393 386/7/393 328/7/393
f 357/7/141 330/7/141 304/7/141 328/7/141
f 311/7/394 330/7/394 341/7/394 312/7/394
f 314/7/395 338/7/395 396/7/395 343/7/395
f 309/7/77 339/7/77 364/7/77 338/7/77
f 340/7/396 365/7/396 339/7/396 310/7/396
f 366/7/39 367/7/39 342/7/39 341/7/39
f 368/7/397 340/7/397 313/7/397 342/7/397
f 356/7/398 385/7/398 386/7/398 327/7/398
f 328/7/399 386/7/399 387/7/399 357/7/399
f 357/7/394 366/7/394 341/7/394 330/7/394
f 365/7/396 397/7/396 364/7/396 339/7/396
f 398/7/400 396/7/400 338/7/400 364/7/400
f 340/7/401 368/7/401 399/7/401 365/7/401
f 366/7/402 387/7/402 400/7/402 367/7/402
f 368/7/397 342/7/397 367/7/397 401/7/397
f 369/7/403 343/7/403 396/7/403 402/7/403
f 384/7/404 421/7/404 385/7/404 356/7/404
f 386/7/75 385/7/75 400/7/75 387/7/75
f 387/7/405 366/7/405 357/7/405
f 399/7/401 430/7/401 397/7/401 365/7/401
f 397/7/406 398/7/406 364/7/406
f 431/7/171 402/7/171 396/7/171 398/7/171
f 401/7/401 432/7/401 399/7/401 368/7/401
f 367/7/407 400/7/407 453/7/407 401/7/407
f 369/7/403 402/7/403 433/7/403 403/7/403
f 420/7/408 452/7/408 421/7/408 384/7/408
f 453/7/75 400/7/75 385/7/75 421/7/75
f 399/7/401 432/7/401 460/7/401 430/7/401
f 431/7/409 398/7/409 397/7/409 430/7/409
f 431/7/171 461/7/171 433/7/171 402/7/171
f 401/7/410 453/7/410 462/7/410 432/7/410
f 433/7/411 463/7/411 434/7/411 403/7/411
f 434/7/412 463/7/412 452/7/412 420/7/412
f 421/7/75 452/7/75 462/7/75 453/7/75
f 432/7/410 462/7/410 485/7/410 460/7/410
f 431/7/409 430/7/409 460/7/409 461/7/409
f 461/7/413 485/7/413 463/7/413 433/7/413
f 452/7/75 463/7/75 485/7/75 462/7/75
f 460/7/414 485/7/414 461/7/414
f 804/7/415 803/7/415 810/7/415 807/7/415
f 810/7/416 809/7/416 813/7/416 814/7/416
f 805/7/417 804/7/417 807/7/417 808/7/417
f 803/7/418 806/7/418 809/7/418 810/7/418
f 806/7/419 805/7/419 808/7/419 809/7/419
f 814/7/420 813/7/420 812/7/420 811/7/420
f 809/7/421 808/7/421 812/7/421 813/7/421
f 807/7/422 810/7/422 814/7/422 811/7/422
f 808/7/423 807/7/423 811/7/423 812/7/423
usemtl Magazine
f 745/8/424 750/8/424 762/8/424 756/8/424
f 765/8/77 760/8/77 757/8/77 761/8/77
f 758/8/425 764/8/425 752/8/425 747/8/425
f 759/8/426 746/8/426 743/8/426 755/8/426
f 753/8/427 766/8/427 763/8/427 749/8/427
f 743/8/428 744/8/428 745/8/428
f 746/8/429 747/8/429 748/8/429
f 749/8/430 750/8/430 751/8/430
f 752/8/431 753/8/431 754/8/431
f 755/8/432 756/8/432 757/8/432
f 758/8/433 759/8/433 760/8/433
f 761/8/434 762/8/434 763/8/434
f 764/8/435 765/8/435 766/8/435
f 743/8/436 746/8/436 748/8/436 744/8/436
f 747/8/437 752/8/437 754/8/437 748/8/437
f 753/8/438 749/8/438 751/8/438 754/8/438
f 750/8/439 745/8/439 744/8/439 751/8/439
f 752/8/440 764/8/440 766/8/440 753/8/440
f 765/8/441 761/8/441 763/8/441 766/8/441
f 762/8/442 750/8/442 749/8/442 763/8/442
f 764/8/443 758/8/443 760/8/443 765/8/443
f 759/8/444 755/8/444 757/8/444 760/8/444
f 756/8/445 762/8/445 761/8/445 757/8/445
f 758/8/446 747/8/446 746/8/446 759/8/446
f 745/8/447 756/8/447 755/8/447 743/8/447
f 748/8/75 754/8/75 751/8/75 744/8/75
